G04 #@! TF.GenerationSoftware,KiCad,Pcbnew,(5.0.1-3-g963ef8bb5)*
G04 #@! TF.CreationDate,2019-06-21T09:31:58-10:00*
G04 #@! TF.ProjectId,OpenHAK_03,4F70656E48414B5F30332E6B69636164,rev?*
G04 #@! TF.SameCoordinates,Original*
G04 #@! TF.FileFunction,Soldermask,Bot*
G04 #@! TF.FilePolarity,Negative*
%FSLAX46Y46*%
G04 Gerber Fmt 4.6, Leading zero omitted, Abs format (unit mm)*
G04 Created by KiCad (PCBNEW (5.0.1-3-g963ef8bb5)) date Friday, June 21, 2019 at 09:31:58 AM*
%MOMM*%
%LPD*%
G01*
G04 APERTURE LIST*
%ADD10C,0.100000*%
G04 APERTURE END LIST*
D10*
G36*
X158539880Y-108919860D02*
X157499880Y-108919860D01*
X157499880Y-107279860D01*
X158539880Y-107279860D01*
X158539880Y-108919860D01*
X158539880Y-108919860D01*
G37*
G36*
X155539880Y-108919860D02*
X154499880Y-108919860D01*
X154499880Y-107279860D01*
X155539880Y-107279860D01*
X155539880Y-108919860D01*
X155539880Y-108919860D01*
G37*
G36*
X126281880Y-108919860D02*
X125241880Y-108919860D01*
X125241880Y-107279860D01*
X126281880Y-107279860D01*
X126281880Y-108919860D01*
X126281880Y-108919860D01*
G37*
G36*
X123281880Y-108919860D02*
X122241880Y-108919860D01*
X122241880Y-107279860D01*
X123281880Y-107279860D01*
X123281880Y-108919860D01*
X123281880Y-108919860D01*
G37*
G36*
X142998880Y-99906860D02*
X142608880Y-99906860D01*
X142608880Y-99066860D01*
X142998880Y-99066860D01*
X142998880Y-99906860D01*
X142998880Y-99906860D01*
G37*
G36*
X142198880Y-99906860D02*
X141808880Y-99906860D01*
X141808880Y-99066860D01*
X142198880Y-99066860D01*
X142198880Y-99906860D01*
X142198880Y-99906860D01*
G37*
G36*
X141398880Y-99906860D02*
X141008880Y-99906860D01*
X141008880Y-99066860D01*
X141398880Y-99066860D01*
X141398880Y-99906860D01*
X141398880Y-99906860D01*
G37*
G36*
X140598880Y-99906860D02*
X140208880Y-99906860D01*
X140208880Y-99066860D01*
X140598880Y-99066860D01*
X140598880Y-99906860D01*
X140598880Y-99906860D01*
G37*
G36*
X139798880Y-99906860D02*
X139408880Y-99906860D01*
X139408880Y-99066860D01*
X139798880Y-99066860D01*
X139798880Y-99906860D01*
X139798880Y-99906860D01*
G37*
G36*
X138998880Y-99906860D02*
X138608880Y-99906860D01*
X138608880Y-99066860D01*
X138998880Y-99066860D01*
X138998880Y-99906860D01*
X138998880Y-99906860D01*
G37*
G36*
X138198880Y-99906860D02*
X137808880Y-99906860D01*
X137808880Y-99066860D01*
X138198880Y-99066860D01*
X138198880Y-99906860D01*
X138198880Y-99906860D01*
G37*
G36*
X142998880Y-97456860D02*
X142608880Y-97456860D01*
X142608880Y-96616860D01*
X142998880Y-96616860D01*
X142998880Y-97456860D01*
X142998880Y-97456860D01*
G37*
G36*
X142198880Y-97456860D02*
X141808880Y-97456860D01*
X141808880Y-96616860D01*
X142198880Y-96616860D01*
X142198880Y-97456860D01*
X142198880Y-97456860D01*
G37*
G36*
X141398880Y-97456860D02*
X141008880Y-97456860D01*
X141008880Y-96616860D01*
X141398880Y-96616860D01*
X141398880Y-97456860D01*
X141398880Y-97456860D01*
G37*
G36*
X140598880Y-97456860D02*
X140208880Y-97456860D01*
X140208880Y-96616860D01*
X140598880Y-96616860D01*
X140598880Y-97456860D01*
X140598880Y-97456860D01*
G37*
G36*
X139798880Y-97456860D02*
X139408880Y-97456860D01*
X139408880Y-96616860D01*
X139798880Y-96616860D01*
X139798880Y-97456860D01*
X139798880Y-97456860D01*
G37*
G36*
X138998880Y-97456860D02*
X138608880Y-97456860D01*
X138608880Y-96616860D01*
X138998880Y-96616860D01*
X138998880Y-97456860D01*
X138998880Y-97456860D01*
G37*
G36*
X138198880Y-97456860D02*
X137808880Y-97456860D01*
X137808880Y-96616860D01*
X138198880Y-96616860D01*
X138198880Y-97456860D01*
X138198880Y-97456860D01*
G37*
G36*
X123281880Y-89107860D02*
X122241880Y-89107860D01*
X122241880Y-87467860D01*
X123281880Y-87467860D01*
X123281880Y-89107860D01*
X123281880Y-89107860D01*
G37*
G36*
X126281880Y-89107860D02*
X125241880Y-89107860D01*
X125241880Y-87467860D01*
X126281880Y-87467860D01*
X126281880Y-89107860D01*
X126281880Y-89107860D01*
G37*
G36*
X155412880Y-89107860D02*
X154372880Y-89107860D01*
X154372880Y-87467860D01*
X155412880Y-87467860D01*
X155412880Y-89107860D01*
X155412880Y-89107860D01*
G37*
G36*
X158412880Y-89107860D02*
X157372880Y-89107860D01*
X157372880Y-87467860D01*
X158412880Y-87467860D01*
X158412880Y-89107860D01*
X158412880Y-89107860D01*
G37*
G36*
X129525364Y-87236065D02*
X129661085Y-87277235D01*
X129786167Y-87344093D01*
X129895800Y-87434067D01*
X129985774Y-87543700D01*
X130052632Y-87668782D01*
X130093802Y-87804503D01*
X130107703Y-87945647D01*
X130093802Y-88086791D01*
X130052632Y-88222512D01*
X129985774Y-88347594D01*
X129895800Y-88457227D01*
X129786167Y-88547201D01*
X129661085Y-88614059D01*
X129525364Y-88655229D01*
X129419586Y-88665647D01*
X129348854Y-88665647D01*
X129243076Y-88655229D01*
X129107355Y-88614059D01*
X128982273Y-88547201D01*
X128872640Y-88457227D01*
X128782666Y-88347594D01*
X128715808Y-88222512D01*
X128674638Y-88086791D01*
X128660737Y-87945647D01*
X128674638Y-87804503D01*
X128715808Y-87668782D01*
X128782666Y-87543700D01*
X128872640Y-87434067D01*
X128982273Y-87344093D01*
X129107355Y-87277235D01*
X129243076Y-87236065D01*
X129348854Y-87225647D01*
X129419586Y-87225647D01*
X129525364Y-87236065D01*
X129525364Y-87236065D01*
G37*
G36*
X136125364Y-87236065D02*
X136261085Y-87277235D01*
X136386167Y-87344093D01*
X136495800Y-87434067D01*
X136585774Y-87543700D01*
X136652632Y-87668782D01*
X136693802Y-87804503D01*
X136707703Y-87945647D01*
X136693802Y-88086791D01*
X136652632Y-88222512D01*
X136585774Y-88347594D01*
X136495800Y-88457227D01*
X136386167Y-88547201D01*
X136261085Y-88614059D01*
X136125364Y-88655229D01*
X136019586Y-88665647D01*
X135948854Y-88665647D01*
X135843076Y-88655229D01*
X135707355Y-88614059D01*
X135582273Y-88547201D01*
X135472640Y-88457227D01*
X135382666Y-88347594D01*
X135315808Y-88222512D01*
X135274638Y-88086791D01*
X135260737Y-87945647D01*
X135274638Y-87804503D01*
X135315808Y-87668782D01*
X135382666Y-87543700D01*
X135472640Y-87434067D01*
X135582273Y-87344093D01*
X135707355Y-87277235D01*
X135843076Y-87236065D01*
X135948854Y-87225647D01*
X136019586Y-87225647D01*
X136125364Y-87236065D01*
X136125364Y-87236065D01*
G37*
M02*
