G04 #@! TF.GenerationSoftware,KiCad,Pcbnew,(5.0.1-3-g963ef8bb5)*
G04 #@! TF.CreationDate,2019-06-21T09:44:15-10:00*
G04 #@! TF.ProjectId,OpenHAK_03,4F70656E48414B5F30332E6B69636164,rev?*
G04 #@! TF.SameCoordinates,Original*
G04 #@! TF.FileFunction,Copper,L4,Bot,Signal*
G04 #@! TF.FilePolarity,Positive*
%FSLAX46Y46*%
G04 Gerber Fmt 4.6, Leading zero omitted, Abs format (unit mm)*
G04 Created by KiCad (PCBNEW (5.0.1-3-g963ef8bb5)) date Friday, June 21, 2019 at 09:44:15 AM*
%MOMM*%
%LPD*%
G01*
G04 APERTURE LIST*
G04 #@! TA.AperFunction,NonConductor*
%ADD10C,0.250000*%
G04 #@! TD*
G04 #@! TA.AperFunction,SMDPad,CuDef*
%ADD11R,0.350000X0.800000*%
G04 #@! TD*
G04 #@! TA.AperFunction,SMDPad,CuDef*
%ADD12R,1.000000X1.600000*%
G04 #@! TD*
G04 #@! TA.AperFunction,ComponentPad*
%ADD13O,1.400000X1.400000*%
G04 #@! TD*
G04 #@! TA.AperFunction,ViaPad*
%ADD14C,0.600000*%
G04 #@! TD*
G04 #@! TA.AperFunction,Conductor*
%ADD15C,0.381000*%
G04 #@! TD*
G04 #@! TA.AperFunction,Conductor*
%ADD16C,0.200000*%
G04 #@! TD*
G04 APERTURE END LIST*
D10*
X134026594Y-90071240D02*
X134121832Y-90023621D01*
X134169451Y-89928383D01*
X134169451Y-89071240D01*
X133264689Y-90023621D02*
X133359927Y-90071240D01*
X133550403Y-90071240D01*
X133645641Y-90023621D01*
X133693260Y-89928383D01*
X133693260Y-89547431D01*
X133645641Y-89452193D01*
X133550403Y-89404574D01*
X133359927Y-89404574D01*
X133264689Y-89452193D01*
X133217070Y-89547431D01*
X133217070Y-89642669D01*
X133693260Y-89737907D01*
X132359927Y-89404574D02*
X132359927Y-90214098D01*
X132407546Y-90309336D01*
X132455165Y-90356955D01*
X132550403Y-90404574D01*
X132693260Y-90404574D01*
X132788499Y-90356955D01*
X132359927Y-90023621D02*
X132455165Y-90071240D01*
X132645641Y-90071240D01*
X132740880Y-90023621D01*
X132788499Y-89976002D01*
X132836118Y-89880764D01*
X132836118Y-89595050D01*
X132788499Y-89499812D01*
X132740880Y-89452193D01*
X132645641Y-89404574D01*
X132455165Y-89404574D01*
X132359927Y-89452193D01*
X131883737Y-90071240D02*
X131883737Y-89404574D01*
X131883737Y-89071240D02*
X131931356Y-89118860D01*
X131883737Y-89166479D01*
X131836118Y-89118860D01*
X131883737Y-89071240D01*
X131883737Y-89166479D01*
X131550403Y-89404574D02*
X131169451Y-89404574D01*
X131407546Y-89071240D02*
X131407546Y-89928383D01*
X131359927Y-90023621D01*
X131264689Y-90071240D01*
X131169451Y-90071240D01*
X134526594Y-91154574D02*
X134145641Y-91154574D01*
X134383737Y-90821240D02*
X134383737Y-91678383D01*
X134336118Y-91773621D01*
X134240880Y-91821240D01*
X134145641Y-91821240D01*
X133812308Y-91821240D02*
X133812308Y-90821240D01*
X133383737Y-91821240D02*
X133383737Y-91297431D01*
X133431356Y-91202193D01*
X133526594Y-91154574D01*
X133669451Y-91154574D01*
X133764689Y-91202193D01*
X133812308Y-91249812D01*
X132907546Y-91821240D02*
X132907546Y-91154574D01*
X132907546Y-90821240D02*
X132955165Y-90868860D01*
X132907546Y-90916479D01*
X132859927Y-90868860D01*
X132907546Y-90821240D01*
X132907546Y-90916479D01*
X132431356Y-91154574D02*
X132431356Y-91821240D01*
X132431356Y-91249812D02*
X132383737Y-91202193D01*
X132288499Y-91154574D01*
X132145641Y-91154574D01*
X132050403Y-91202193D01*
X132002784Y-91297431D01*
X132002784Y-91821240D01*
X131098022Y-91154574D02*
X131098022Y-91964098D01*
X131145641Y-92059336D01*
X131193260Y-92106955D01*
X131288499Y-92154574D01*
X131431356Y-92154574D01*
X131526594Y-92106955D01*
X131098022Y-91773621D02*
X131193260Y-91821240D01*
X131383737Y-91821240D01*
X131478975Y-91773621D01*
X131526594Y-91726002D01*
X131574213Y-91630764D01*
X131574213Y-91345050D01*
X131526594Y-91249812D01*
X131478975Y-91202193D01*
X131383737Y-91154574D01*
X131193260Y-91154574D01*
X131098022Y-91202193D01*
D11*
G04 #@! TO.P,U2,14*
G04 #@! TO.N,Net-(U2-Pad14)*
X142803880Y-97036860D03*
G04 #@! TO.P,U2,13*
G04 #@! TO.N,/MAX_INT*
X142003880Y-97036860D03*
G04 #@! TO.P,U2,12*
G04 #@! TO.N,GND*
X141203880Y-97036860D03*
G04 #@! TO.P,U2,11*
G04 #@! TO.N,+1V8*
X140403880Y-97036860D03*
G04 #@! TO.P,U2,10*
G04 #@! TO.N,VPP*
X139603880Y-97036860D03*
G04 #@! TO.P,U2,9*
X138803880Y-97036860D03*
G04 #@! TO.P,U2,8*
G04 #@! TO.N,Net-(U2-Pad8)*
X138003880Y-97036860D03*
G04 #@! TO.P,U2,7*
G04 #@! TO.N,Net-(U2-Pad7)*
X138003880Y-99486860D03*
G04 #@! TO.P,U2,6*
G04 #@! TO.N,Net-(U2-Pad6)*
X138803880Y-99486860D03*
G04 #@! TO.P,U2,5*
G04 #@! TO.N,Net-(U2-Pad5)*
X139603880Y-99486860D03*
G04 #@! TO.P,U2,4*
G04 #@! TO.N,GND*
X140403880Y-99486860D03*
G04 #@! TO.P,U2,3*
G04 #@! TO.N,/1V8_SDA*
X141203880Y-99486860D03*
G04 #@! TO.P,U2,2*
G04 #@! TO.N,/1V8_SCL*
X142003880Y-99486860D03*
G04 #@! TO.P,U2,1*
G04 #@! TO.N,Net-(U2-Pad1)*
X142803880Y-99486860D03*
G04 #@! TD*
D12*
G04 #@! TO.P,S4,1*
G04 #@! TO.N,GND*
X154892880Y-88287860D03*
G04 #@! TO.P,S4,2*
X157892880Y-88287860D03*
G04 #@! TD*
G04 #@! TO.P,S4,1*
G04 #@! TO.N,GND*
X155019880Y-108099860D03*
G04 #@! TO.P,S4,2*
X158019880Y-108099860D03*
G04 #@! TD*
G04 #@! TO.P,S4,1*
G04 #@! TO.N,GND*
X122761880Y-108099860D03*
G04 #@! TO.P,S4,2*
X125761880Y-108099860D03*
G04 #@! TD*
G04 #@! TO.P,S1,1*
G04 #@! TO.N,GND*
X122761880Y-88287860D03*
G04 #@! TO.P,S1,2*
X125761880Y-88287860D03*
G04 #@! TD*
D13*
G04 #@! TO.P,P2,10*
G04 #@! TO.N,GND*
X135984220Y-87945647D03*
G04 #@! TO.P,P2,11*
X129384220Y-87945647D03*
G04 #@! TD*
D14*
G04 #@! TO.N,GND*
X125740880Y-88293860D03*
X122740880Y-88293860D03*
X122740880Y-108093860D03*
X125740880Y-108093860D03*
X155040880Y-108093860D03*
X158040880Y-108093860D03*
X157940880Y-88293860D03*
X154940880Y-88293860D03*
X143962120Y-92710000D03*
X147245879Y-96616061D03*
X139324100Y-95603060D03*
X135415880Y-99543860D03*
X136965880Y-100518860D03*
X151593860Y-102193860D03*
G04 #@! TO.N,VDD*
X139639205Y-89692124D03*
X143640872Y-100768860D03*
X139065880Y-103593860D03*
X147740880Y-100393860D03*
X151640880Y-103393860D03*
X139140880Y-109393860D03*
X150740880Y-99893852D03*
X133340880Y-104293860D03*
G04 #@! TO.N,VPP*
X136040880Y-95593860D03*
X132040880Y-100193860D03*
G04 #@! TO.N,/MAX_INT*
X146143980Y-90228420D03*
X141990880Y-98093860D03*
G04 #@! TO.N,/BMI_INT2*
X149990880Y-91493860D03*
X149963070Y-100294368D03*
G04 #@! TO.N,/BMI_INT1*
X152000000Y-91200000D03*
X151040880Y-104793860D03*
G04 #@! TO.N,Net-(D3-Pad3)*
X135515880Y-92593860D03*
X129315880Y-94743860D03*
G04 #@! TO.N,Net-(R13-Pad1)*
X132540880Y-93693860D03*
X132540880Y-97368860D03*
G04 #@! TO.N,+1V8*
X143390880Y-102543860D03*
X142665880Y-100568860D03*
X136940880Y-99493860D03*
G04 #@! TO.N,/1V8_SCL*
X141015880Y-102543870D03*
G04 #@! TO.N,/3V3_SCL*
X144219234Y-102334559D03*
X146090880Y-97043858D03*
X146940880Y-102343860D03*
G04 #@! TO.N,/1V8_SDA*
X141015874Y-101618860D03*
G04 #@! TO.N,/3V3_SDA*
X144340880Y-101543860D03*
X145190876Y-97543860D03*
X147740880Y-103193860D03*
G04 #@! TO.N,/PIN_25*
X148340880Y-107693862D03*
X148340884Y-91793860D03*
G04 #@! TO.N,Net-(C10-Pad1)*
X138190880Y-91593860D03*
X141340880Y-105443860D03*
G04 #@! TO.N,/PIN_24*
X149140880Y-93393860D03*
X149640880Y-105093860D03*
G04 #@! TO.N,/PIN_21*
X151340880Y-92593860D03*
X150940880Y-107693860D03*
G04 #@! TD*
D15*
G04 #@! TO.N,GND*
X140415880Y-99348860D02*
X140403880Y-99336860D01*
X140403880Y-99336860D02*
X140403880Y-100355860D01*
X140240880Y-100518860D02*
X136965880Y-100518860D01*
X140403880Y-100355860D02*
X140240880Y-100518860D01*
X140650080Y-95603060D02*
X139324100Y-95603060D01*
X141203880Y-96156860D02*
X140650080Y-95603060D01*
X141203880Y-97186860D02*
X141203880Y-96156860D01*
G04 #@! TO.N,VPP*
X138803380Y-97050860D02*
X138803880Y-97186860D01*
X139603880Y-97186860D02*
X138803880Y-97186860D01*
X138803880Y-97186860D02*
X138803880Y-97830860D01*
X138803880Y-97830860D02*
X138540880Y-98093860D01*
X138540880Y-98093860D02*
X137540880Y-98093860D01*
X136040880Y-96593860D02*
X136040880Y-95593860D01*
X137540880Y-98093860D02*
X136040880Y-96593860D01*
X132040880Y-99593860D02*
X136040880Y-95593860D01*
X132040880Y-100193860D02*
X132040880Y-99593860D01*
D16*
G04 #@! TO.N,/MAX_INT*
X142003880Y-98080860D02*
X141990880Y-98093860D01*
X142003880Y-97186860D02*
X142003880Y-98080860D01*
X142003880Y-93055860D02*
X144831320Y-90228420D01*
X144831320Y-90228420D02*
X146143980Y-90228420D01*
X142003880Y-97186860D02*
X142003880Y-93055860D01*
G04 #@! TO.N,/1V8_SCL*
X141015880Y-102543870D02*
X142003880Y-101555870D01*
X142003880Y-101555870D02*
X142003880Y-99336860D01*
G04 #@! TO.N,/1V8_SDA*
X141203880Y-101430854D02*
X141015874Y-101618860D01*
X141203880Y-99336860D02*
X141203880Y-101430854D01*
G04 #@! TD*
G04 #@! TO.N,+1V8*
G36*
X141204884Y-89302915D02*
X141212492Y-89342128D01*
X141234169Y-89374571D01*
X142758169Y-90898571D01*
X142790612Y-90920248D01*
X142828880Y-90927860D01*
X143566195Y-90927860D01*
X141748897Y-92745159D01*
X141715497Y-92767476D01*
X141674157Y-92829347D01*
X141627089Y-92899789D01*
X141596044Y-93055860D01*
X141603881Y-93095258D01*
X141603880Y-95872628D01*
X141557510Y-95803230D01*
X141516560Y-95775868D01*
X141031074Y-95290382D01*
X141003710Y-95249430D01*
X140841463Y-95141020D01*
X140698387Y-95112560D01*
X140698382Y-95112560D01*
X140650080Y-95102952D01*
X140601778Y-95112560D01*
X139682129Y-95112560D01*
X139663973Y-95094404D01*
X139443447Y-95003060D01*
X139204753Y-95003060D01*
X138984227Y-95094404D01*
X138815444Y-95263187D01*
X138724100Y-95483713D01*
X138724100Y-95722407D01*
X138815444Y-95942933D01*
X138984227Y-96111716D01*
X139204753Y-96203060D01*
X139443447Y-96203060D01*
X139663973Y-96111716D01*
X139682129Y-96093560D01*
X140446909Y-96093560D01*
X140713381Y-96360032D01*
X140713381Y-96367854D01*
X140638553Y-96336860D01*
X140566380Y-96336860D01*
X140491380Y-96411860D01*
X140491380Y-96882860D01*
X140577880Y-96882860D01*
X140577880Y-97190860D01*
X140491380Y-97190860D01*
X140491380Y-97661860D01*
X140566380Y-97736860D01*
X140638553Y-97736860D01*
X140748816Y-97691188D01*
X140802284Y-97637721D01*
X140812592Y-97653148D01*
X140911826Y-97719453D01*
X141028880Y-97742737D01*
X141378880Y-97742737D01*
X141495934Y-97719453D01*
X141558689Y-97677522D01*
X141482224Y-97753987D01*
X141390880Y-97974513D01*
X141390880Y-98213207D01*
X141482224Y-98433733D01*
X141651007Y-98602516D01*
X141871533Y-98693860D01*
X142110227Y-98693860D01*
X142330753Y-98602516D01*
X142499536Y-98433733D01*
X142590880Y-98213207D01*
X142590880Y-97974513D01*
X142499536Y-97753987D01*
X142403880Y-97658331D01*
X142403880Y-97640109D01*
X142412592Y-97653148D01*
X142511826Y-97719453D01*
X142628880Y-97742737D01*
X142978880Y-97742737D01*
X143095934Y-97719453D01*
X143195168Y-97653148D01*
X143261473Y-97553914D01*
X143284757Y-97436860D01*
X143284757Y-97424513D01*
X144590876Y-97424513D01*
X144590876Y-97663207D01*
X144682220Y-97883733D01*
X144851003Y-98052516D01*
X145071529Y-98143860D01*
X145310223Y-98143860D01*
X145530749Y-98052516D01*
X145699532Y-97883733D01*
X145790876Y-97663207D01*
X145790876Y-97569028D01*
X145971533Y-97643858D01*
X146210227Y-97643858D01*
X146430753Y-97552514D01*
X146599536Y-97383731D01*
X146690880Y-97163205D01*
X146690880Y-96924511D01*
X146599536Y-96703985D01*
X146430753Y-96535202D01*
X146337834Y-96496714D01*
X146645879Y-96496714D01*
X146645879Y-96735408D01*
X146737223Y-96955934D01*
X146906006Y-97124717D01*
X147126532Y-97216061D01*
X147365226Y-97216061D01*
X147585752Y-97124717D01*
X147754535Y-96955934D01*
X147845879Y-96735408D01*
X147845879Y-96496714D01*
X147754535Y-96276188D01*
X147585752Y-96107405D01*
X147365226Y-96016061D01*
X147126532Y-96016061D01*
X146906006Y-96107405D01*
X146737223Y-96276188D01*
X146645879Y-96496714D01*
X146337834Y-96496714D01*
X146210227Y-96443858D01*
X145971533Y-96443858D01*
X145751007Y-96535202D01*
X145582224Y-96703985D01*
X145490880Y-96924511D01*
X145490880Y-97018690D01*
X145310223Y-96943860D01*
X145071529Y-96943860D01*
X144851003Y-97035204D01*
X144682220Y-97203987D01*
X144590876Y-97424513D01*
X143284757Y-97424513D01*
X143284757Y-96636860D01*
X143261473Y-96519806D01*
X143195168Y-96420572D01*
X143095934Y-96354267D01*
X142978880Y-96330983D01*
X142628880Y-96330983D01*
X142511826Y-96354267D01*
X142412592Y-96420572D01*
X142403880Y-96433611D01*
X142403880Y-93221544D01*
X143034771Y-92590653D01*
X143362120Y-92590653D01*
X143362120Y-92829347D01*
X143453464Y-93049873D01*
X143622247Y-93218656D01*
X143842773Y-93310000D01*
X144081467Y-93310000D01*
X144167141Y-93274513D01*
X148540880Y-93274513D01*
X148540880Y-93513207D01*
X148632224Y-93733733D01*
X148801007Y-93902516D01*
X149021533Y-93993860D01*
X149260227Y-93993860D01*
X149480753Y-93902516D01*
X149649536Y-93733733D01*
X149740880Y-93513207D01*
X149740880Y-93274513D01*
X149649536Y-93053987D01*
X149480753Y-92885204D01*
X149260227Y-92793860D01*
X149021533Y-92793860D01*
X148801007Y-92885204D01*
X148632224Y-93053987D01*
X148540880Y-93274513D01*
X144167141Y-93274513D01*
X144301993Y-93218656D01*
X144470776Y-93049873D01*
X144562120Y-92829347D01*
X144562120Y-92590653D01*
X144514014Y-92474513D01*
X150740880Y-92474513D01*
X150740880Y-92713207D01*
X150832224Y-92933733D01*
X151001007Y-93102516D01*
X151221533Y-93193860D01*
X151460227Y-93193860D01*
X151680753Y-93102516D01*
X151849536Y-92933733D01*
X151940880Y-92713207D01*
X151940880Y-92474513D01*
X151849536Y-92253987D01*
X151680753Y-92085204D01*
X151460227Y-91993860D01*
X151221533Y-91993860D01*
X151001007Y-92085204D01*
X150832224Y-92253987D01*
X150740880Y-92474513D01*
X144514014Y-92474513D01*
X144470776Y-92370127D01*
X144301993Y-92201344D01*
X144081467Y-92110000D01*
X143842773Y-92110000D01*
X143622247Y-92201344D01*
X143453464Y-92370127D01*
X143362120Y-92590653D01*
X143034771Y-92590653D01*
X143950911Y-91674513D01*
X147740884Y-91674513D01*
X147740884Y-91913207D01*
X147832228Y-92133733D01*
X148001011Y-92302516D01*
X148221537Y-92393860D01*
X148460231Y-92393860D01*
X148680757Y-92302516D01*
X148849540Y-92133733D01*
X148940884Y-91913207D01*
X148940884Y-91674513D01*
X148849540Y-91453987D01*
X148680757Y-91285204D01*
X148460231Y-91193860D01*
X148221537Y-91193860D01*
X148001011Y-91285204D01*
X147832228Y-91453987D01*
X147740884Y-91674513D01*
X143950911Y-91674513D01*
X144697565Y-90927860D01*
X149789449Y-90927860D01*
X149651007Y-90985204D01*
X149482224Y-91153987D01*
X149390880Y-91374513D01*
X149390880Y-91613207D01*
X149482224Y-91833733D01*
X149651007Y-92002516D01*
X149871533Y-92093860D01*
X150110227Y-92093860D01*
X150330753Y-92002516D01*
X150499536Y-91833733D01*
X150590880Y-91613207D01*
X150590880Y-91374513D01*
X150499536Y-91153987D01*
X150330753Y-90985204D01*
X150192311Y-90927860D01*
X151463288Y-90927860D01*
X151400000Y-91080653D01*
X151400000Y-91319347D01*
X151491344Y-91539873D01*
X151660127Y-91708656D01*
X151880653Y-91800000D01*
X152119347Y-91800000D01*
X152339873Y-91708656D01*
X152508656Y-91539873D01*
X152600000Y-91319347D01*
X152600000Y-91080653D01*
X152536712Y-90927860D01*
X152726040Y-90927860D01*
X152726041Y-106874411D01*
X152733245Y-106910628D01*
X152733245Y-106910639D01*
X152771915Y-107105042D01*
X152771915Y-107105043D01*
X152798200Y-107168501D01*
X152780000Y-107260000D01*
X152780000Y-110518860D01*
X128030000Y-110518860D01*
X128030000Y-109274513D01*
X138540880Y-109274513D01*
X138540880Y-109513207D01*
X138632224Y-109733733D01*
X138801007Y-109902516D01*
X139021533Y-109993860D01*
X139260227Y-109993860D01*
X139480753Y-109902516D01*
X139649536Y-109733733D01*
X139740880Y-109513207D01*
X139740880Y-109274513D01*
X139649536Y-109053987D01*
X139480753Y-108885204D01*
X139260227Y-108793860D01*
X139021533Y-108793860D01*
X138801007Y-108885204D01*
X138632224Y-109053987D01*
X138540880Y-109274513D01*
X128030000Y-109274513D01*
X128030000Y-107574515D01*
X147740880Y-107574515D01*
X147740880Y-107813209D01*
X147832224Y-108033735D01*
X148001007Y-108202518D01*
X148221533Y-108293862D01*
X148460227Y-108293862D01*
X148680753Y-108202518D01*
X148849536Y-108033735D01*
X148940880Y-107813209D01*
X148940880Y-107574515D01*
X148940880Y-107574513D01*
X150340880Y-107574513D01*
X150340880Y-107813207D01*
X150432224Y-108033733D01*
X150601007Y-108202516D01*
X150821533Y-108293860D01*
X151060227Y-108293860D01*
X151280753Y-108202516D01*
X151449536Y-108033733D01*
X151540880Y-107813207D01*
X151540880Y-107574513D01*
X151449536Y-107353987D01*
X151280753Y-107185204D01*
X151060227Y-107093860D01*
X150821533Y-107093860D01*
X150601007Y-107185204D01*
X150432224Y-107353987D01*
X150340880Y-107574513D01*
X148940880Y-107574513D01*
X148849536Y-107353989D01*
X148680753Y-107185206D01*
X148460227Y-107093862D01*
X148221533Y-107093862D01*
X148001007Y-107185206D01*
X147832224Y-107353989D01*
X147740880Y-107574515D01*
X128030000Y-107574515D01*
X128030000Y-107290000D01*
X128007164Y-107175195D01*
X128003425Y-107169599D01*
X128030166Y-107105042D01*
X128068835Y-106910638D01*
X128068835Y-106910633D01*
X128076040Y-106874411D01*
X128076040Y-105324513D01*
X140740880Y-105324513D01*
X140740880Y-105563207D01*
X140832224Y-105783733D01*
X141001007Y-105952516D01*
X141221533Y-106043860D01*
X141460227Y-106043860D01*
X141680753Y-105952516D01*
X141849536Y-105783733D01*
X141940880Y-105563207D01*
X141940880Y-105324513D01*
X141849536Y-105103987D01*
X141720062Y-104974513D01*
X149040880Y-104974513D01*
X149040880Y-105213207D01*
X149132224Y-105433733D01*
X149301007Y-105602516D01*
X149521533Y-105693860D01*
X149760227Y-105693860D01*
X149980753Y-105602516D01*
X150149536Y-105433733D01*
X150240880Y-105213207D01*
X150240880Y-104974513D01*
X150149536Y-104753987D01*
X150070062Y-104674513D01*
X150440880Y-104674513D01*
X150440880Y-104913207D01*
X150532224Y-105133733D01*
X150701007Y-105302516D01*
X150921533Y-105393860D01*
X151160227Y-105393860D01*
X151380753Y-105302516D01*
X151549536Y-105133733D01*
X151640880Y-104913207D01*
X151640880Y-104674513D01*
X151549536Y-104453987D01*
X151380753Y-104285204D01*
X151160227Y-104193860D01*
X150921533Y-104193860D01*
X150701007Y-104285204D01*
X150532224Y-104453987D01*
X150440880Y-104674513D01*
X150070062Y-104674513D01*
X149980753Y-104585204D01*
X149760227Y-104493860D01*
X149521533Y-104493860D01*
X149301007Y-104585204D01*
X149132224Y-104753987D01*
X149040880Y-104974513D01*
X141720062Y-104974513D01*
X141680753Y-104935204D01*
X141460227Y-104843860D01*
X141221533Y-104843860D01*
X141001007Y-104935204D01*
X140832224Y-105103987D01*
X140740880Y-105324513D01*
X128076040Y-105324513D01*
X128076040Y-104174513D01*
X132740880Y-104174513D01*
X132740880Y-104413207D01*
X132832224Y-104633733D01*
X133001007Y-104802516D01*
X133221533Y-104893860D01*
X133460227Y-104893860D01*
X133680753Y-104802516D01*
X133849536Y-104633733D01*
X133940880Y-104413207D01*
X133940880Y-104174513D01*
X133849536Y-103953987D01*
X133680753Y-103785204D01*
X133460227Y-103693860D01*
X133221533Y-103693860D01*
X133001007Y-103785204D01*
X132832224Y-103953987D01*
X132740880Y-104174513D01*
X128076040Y-104174513D01*
X128076040Y-103474513D01*
X138465880Y-103474513D01*
X138465880Y-103713207D01*
X138557224Y-103933733D01*
X138726007Y-104102516D01*
X138946533Y-104193860D01*
X139185227Y-104193860D01*
X139405753Y-104102516D01*
X139574536Y-103933733D01*
X139665880Y-103713207D01*
X139665880Y-103474513D01*
X139574536Y-103253987D01*
X139405753Y-103085204D01*
X139185227Y-102993860D01*
X138946533Y-102993860D01*
X138726007Y-103085204D01*
X138557224Y-103253987D01*
X138465880Y-103474513D01*
X128076040Y-103474513D01*
X128076040Y-100074513D01*
X131440880Y-100074513D01*
X131440880Y-100313207D01*
X131532224Y-100533733D01*
X131701007Y-100702516D01*
X131921533Y-100793860D01*
X132160227Y-100793860D01*
X132380753Y-100702516D01*
X132549536Y-100533733D01*
X132605131Y-100399513D01*
X136365880Y-100399513D01*
X136365880Y-100638207D01*
X136457224Y-100858733D01*
X136626007Y-101027516D01*
X136846533Y-101118860D01*
X137085227Y-101118860D01*
X137305753Y-101027516D01*
X137323909Y-101009360D01*
X140192578Y-101009360D01*
X140240880Y-101018968D01*
X140289182Y-101009360D01*
X140289187Y-101009360D01*
X140432263Y-100980900D01*
X140594510Y-100872490D01*
X140621874Y-100831537D01*
X140716557Y-100736854D01*
X140757510Y-100709490D01*
X140803881Y-100640091D01*
X140803881Y-101057235D01*
X140676001Y-101110204D01*
X140507218Y-101278987D01*
X140415874Y-101499513D01*
X140415874Y-101738207D01*
X140507218Y-101958733D01*
X140629853Y-102081368D01*
X140507224Y-102203997D01*
X140415880Y-102424523D01*
X140415880Y-102663217D01*
X140507224Y-102883743D01*
X140676007Y-103052526D01*
X140896533Y-103143870D01*
X141135227Y-103143870D01*
X141355753Y-103052526D01*
X141524536Y-102883743D01*
X141615880Y-102663217D01*
X141615880Y-102509554D01*
X142258865Y-101866570D01*
X142292264Y-101844254D01*
X142380671Y-101711942D01*
X142403880Y-101595264D01*
X142403880Y-101595263D01*
X142411716Y-101555870D01*
X142403880Y-101516476D01*
X142403880Y-100649513D01*
X143040872Y-100649513D01*
X143040872Y-100888207D01*
X143132216Y-101108733D01*
X143300999Y-101277516D01*
X143521525Y-101368860D01*
X143760219Y-101368860D01*
X143764701Y-101367004D01*
X143740880Y-101424513D01*
X143740880Y-101663207D01*
X143829092Y-101876172D01*
X143710578Y-101994686D01*
X143619234Y-102215212D01*
X143619234Y-102453906D01*
X143710578Y-102674432D01*
X143879361Y-102843215D01*
X144099887Y-102934559D01*
X144338581Y-102934559D01*
X144559107Y-102843215D01*
X144727890Y-102674432D01*
X144819234Y-102453906D01*
X144819234Y-102224513D01*
X146340880Y-102224513D01*
X146340880Y-102463207D01*
X146432224Y-102683733D01*
X146601007Y-102852516D01*
X146821533Y-102943860D01*
X147060227Y-102943860D01*
X147222909Y-102876476D01*
X147140880Y-103074513D01*
X147140880Y-103313207D01*
X147232224Y-103533733D01*
X147401007Y-103702516D01*
X147621533Y-103793860D01*
X147860227Y-103793860D01*
X148080753Y-103702516D01*
X148249536Y-103533733D01*
X148340880Y-103313207D01*
X148340880Y-103074513D01*
X148249536Y-102853987D01*
X148080753Y-102685204D01*
X147860227Y-102593860D01*
X147621533Y-102593860D01*
X147458851Y-102661244D01*
X147540880Y-102463207D01*
X147540880Y-102224513D01*
X147478749Y-102074513D01*
X150993860Y-102074513D01*
X150993860Y-102313207D01*
X151085204Y-102533733D01*
X151253987Y-102702516D01*
X151474513Y-102793860D01*
X151521533Y-102793860D01*
X151301007Y-102885204D01*
X151132224Y-103053987D01*
X151040880Y-103274513D01*
X151040880Y-103513207D01*
X151132224Y-103733733D01*
X151301007Y-103902516D01*
X151521533Y-103993860D01*
X151760227Y-103993860D01*
X151980753Y-103902516D01*
X152149536Y-103733733D01*
X152240880Y-103513207D01*
X152240880Y-103274513D01*
X152149536Y-103053987D01*
X151980753Y-102885204D01*
X151760227Y-102793860D01*
X151713207Y-102793860D01*
X151933733Y-102702516D01*
X152102516Y-102533733D01*
X152193860Y-102313207D01*
X152193860Y-102074513D01*
X152102516Y-101853987D01*
X151933733Y-101685204D01*
X151713207Y-101593860D01*
X151474513Y-101593860D01*
X151253987Y-101685204D01*
X151085204Y-101853987D01*
X150993860Y-102074513D01*
X147478749Y-102074513D01*
X147449536Y-102003987D01*
X147280753Y-101835204D01*
X147060227Y-101743860D01*
X146821533Y-101743860D01*
X146601007Y-101835204D01*
X146432224Y-102003987D01*
X146340880Y-102224513D01*
X144819234Y-102224513D01*
X144819234Y-102215212D01*
X144731022Y-102002247D01*
X144849536Y-101883733D01*
X144940880Y-101663207D01*
X144940880Y-101424513D01*
X144849536Y-101203987D01*
X144680753Y-101035204D01*
X144460227Y-100943860D01*
X144221533Y-100943860D01*
X144217051Y-100945716D01*
X144240872Y-100888207D01*
X144240872Y-100649513D01*
X144149528Y-100428987D01*
X143995054Y-100274513D01*
X147140880Y-100274513D01*
X147140880Y-100513207D01*
X147232224Y-100733733D01*
X147401007Y-100902516D01*
X147621533Y-100993860D01*
X147860227Y-100993860D01*
X148080753Y-100902516D01*
X148249536Y-100733733D01*
X148340880Y-100513207D01*
X148340880Y-100274513D01*
X148299670Y-100175021D01*
X149363070Y-100175021D01*
X149363070Y-100413715D01*
X149454414Y-100634241D01*
X149623197Y-100803024D01*
X149843723Y-100894368D01*
X150082417Y-100894368D01*
X150302943Y-100803024D01*
X150471726Y-100634241D01*
X150543299Y-100461447D01*
X150621533Y-100493852D01*
X150860227Y-100493852D01*
X151080753Y-100402508D01*
X151249536Y-100233725D01*
X151340880Y-100013199D01*
X151340880Y-99774505D01*
X151249536Y-99553979D01*
X151080753Y-99385196D01*
X150860227Y-99293852D01*
X150621533Y-99293852D01*
X150401007Y-99385196D01*
X150232224Y-99553979D01*
X150160651Y-99726773D01*
X150082417Y-99694368D01*
X149843723Y-99694368D01*
X149623197Y-99785712D01*
X149454414Y-99954495D01*
X149363070Y-100175021D01*
X148299670Y-100175021D01*
X148249536Y-100053987D01*
X148080753Y-99885204D01*
X147860227Y-99793860D01*
X147621533Y-99793860D01*
X147401007Y-99885204D01*
X147232224Y-100053987D01*
X147140880Y-100274513D01*
X143995054Y-100274513D01*
X143980745Y-100260204D01*
X143760219Y-100168860D01*
X143521525Y-100168860D01*
X143300999Y-100260204D01*
X143132216Y-100428987D01*
X143040872Y-100649513D01*
X142403880Y-100649513D01*
X142403880Y-100090109D01*
X142412592Y-100103148D01*
X142511826Y-100169453D01*
X142628880Y-100192737D01*
X142978880Y-100192737D01*
X143095934Y-100169453D01*
X143195168Y-100103148D01*
X143261473Y-100003914D01*
X143284757Y-99886860D01*
X143284757Y-99086860D01*
X143261473Y-98969806D01*
X143195168Y-98870572D01*
X143095934Y-98804267D01*
X142978880Y-98780983D01*
X142628880Y-98780983D01*
X142511826Y-98804267D01*
X142412592Y-98870572D01*
X142403880Y-98883611D01*
X142395168Y-98870572D01*
X142295934Y-98804267D01*
X142178880Y-98780983D01*
X141828880Y-98780983D01*
X141711826Y-98804267D01*
X141612592Y-98870572D01*
X141603880Y-98883611D01*
X141595168Y-98870572D01*
X141495934Y-98804267D01*
X141378880Y-98780983D01*
X141028880Y-98780983D01*
X140911826Y-98804267D01*
X140812592Y-98870572D01*
X140803880Y-98883611D01*
X140795168Y-98870572D01*
X140695934Y-98804267D01*
X140578880Y-98780983D01*
X140228880Y-98780983D01*
X140111826Y-98804267D01*
X140012592Y-98870572D01*
X140003880Y-98883611D01*
X139995168Y-98870572D01*
X139895934Y-98804267D01*
X139778880Y-98780983D01*
X139428880Y-98780983D01*
X139311826Y-98804267D01*
X139212592Y-98870572D01*
X139203880Y-98883611D01*
X139195168Y-98870572D01*
X139095934Y-98804267D01*
X138978880Y-98780983D01*
X138628880Y-98780983D01*
X138511826Y-98804267D01*
X138412592Y-98870572D01*
X138403880Y-98883611D01*
X138395168Y-98870572D01*
X138295934Y-98804267D01*
X138178880Y-98780983D01*
X137828880Y-98780983D01*
X137711826Y-98804267D01*
X137612592Y-98870572D01*
X137546287Y-98969806D01*
X137523003Y-99086860D01*
X137523003Y-99886860D01*
X137546287Y-100003914D01*
X137562621Y-100028360D01*
X137323909Y-100028360D01*
X137305753Y-100010204D01*
X137085227Y-99918860D01*
X136846533Y-99918860D01*
X136626007Y-100010204D01*
X136457224Y-100178987D01*
X136365880Y-100399513D01*
X132605131Y-100399513D01*
X132640880Y-100313207D01*
X132640880Y-100074513D01*
X132549536Y-99853987D01*
X132531380Y-99835831D01*
X132531380Y-99797031D01*
X132903898Y-99424513D01*
X134815880Y-99424513D01*
X134815880Y-99663207D01*
X134907224Y-99883733D01*
X135076007Y-100052516D01*
X135296533Y-100143860D01*
X135535227Y-100143860D01*
X135755753Y-100052516D01*
X135924536Y-99883733D01*
X136015880Y-99663207D01*
X136015880Y-99424513D01*
X135924536Y-99203987D01*
X135755753Y-99035204D01*
X135535227Y-98943860D01*
X135296533Y-98943860D01*
X135076007Y-99035204D01*
X134907224Y-99203987D01*
X134815880Y-99424513D01*
X132903898Y-99424513D01*
X135572922Y-96755489D01*
X135578840Y-96785242D01*
X135687250Y-96947490D01*
X135728203Y-96974854D01*
X137159886Y-98406537D01*
X137187250Y-98447490D01*
X137349497Y-98555900D01*
X137492573Y-98584360D01*
X137492577Y-98584360D01*
X137540879Y-98593968D01*
X137589181Y-98584360D01*
X138492578Y-98584360D01*
X138540880Y-98593968D01*
X138589182Y-98584360D01*
X138589187Y-98584360D01*
X138732263Y-98555900D01*
X138894510Y-98447490D01*
X138921874Y-98406537D01*
X139116555Y-98211855D01*
X139157510Y-98184490D01*
X139265920Y-98022243D01*
X139294380Y-97879167D01*
X139294380Y-97879163D01*
X139303988Y-97830861D01*
X139294380Y-97782559D01*
X139294380Y-97707796D01*
X139311826Y-97719453D01*
X139428880Y-97742737D01*
X139778880Y-97742737D01*
X139895934Y-97719453D01*
X139995168Y-97653148D01*
X140005476Y-97637721D01*
X140058944Y-97691188D01*
X140169207Y-97736860D01*
X140241380Y-97736860D01*
X140316380Y-97661860D01*
X140316380Y-97190860D01*
X140229880Y-97190860D01*
X140229880Y-96882860D01*
X140316380Y-96882860D01*
X140316380Y-96411860D01*
X140241380Y-96336860D01*
X140169207Y-96336860D01*
X140058944Y-96382532D01*
X140005476Y-96435999D01*
X139995168Y-96420572D01*
X139895934Y-96354267D01*
X139778880Y-96330983D01*
X139428880Y-96330983D01*
X139311826Y-96354267D01*
X139212592Y-96420572D01*
X139203880Y-96433611D01*
X139195168Y-96420572D01*
X139095934Y-96354267D01*
X138978880Y-96330983D01*
X138628880Y-96330983D01*
X138511826Y-96354267D01*
X138412592Y-96420572D01*
X138403880Y-96433611D01*
X138395168Y-96420572D01*
X138295934Y-96354267D01*
X138178880Y-96330983D01*
X137828880Y-96330983D01*
X137711826Y-96354267D01*
X137612592Y-96420572D01*
X137546287Y-96519806D01*
X137523003Y-96636860D01*
X137523003Y-97382312D01*
X136531380Y-96390689D01*
X136531380Y-95951889D01*
X136549536Y-95933733D01*
X136640880Y-95713207D01*
X136640880Y-95474513D01*
X136549536Y-95253987D01*
X136380753Y-95085204D01*
X136160227Y-94993860D01*
X135921533Y-94993860D01*
X135701007Y-95085204D01*
X135532224Y-95253987D01*
X135440880Y-95474513D01*
X135440880Y-95500189D01*
X131728201Y-99212868D01*
X131687251Y-99240230D01*
X131659889Y-99281180D01*
X131659886Y-99281183D01*
X131578841Y-99402477D01*
X131540772Y-99593860D01*
X131550381Y-99642166D01*
X131550381Y-99835830D01*
X131532224Y-99853987D01*
X131440880Y-100074513D01*
X128076040Y-100074513D01*
X128076040Y-97249513D01*
X131940880Y-97249513D01*
X131940880Y-97488207D01*
X132032224Y-97708733D01*
X132201007Y-97877516D01*
X132421533Y-97968860D01*
X132660227Y-97968860D01*
X132880753Y-97877516D01*
X133049536Y-97708733D01*
X133140880Y-97488207D01*
X133140880Y-97249513D01*
X133049536Y-97028987D01*
X132880753Y-96860204D01*
X132660227Y-96768860D01*
X132421533Y-96768860D01*
X132201007Y-96860204D01*
X132032224Y-97028987D01*
X131940880Y-97249513D01*
X128076040Y-97249513D01*
X128076040Y-94624513D01*
X128715880Y-94624513D01*
X128715880Y-94863207D01*
X128807224Y-95083733D01*
X128976007Y-95252516D01*
X129196533Y-95343860D01*
X129435227Y-95343860D01*
X129655753Y-95252516D01*
X129824536Y-95083733D01*
X129915880Y-94863207D01*
X129915880Y-94624513D01*
X129824536Y-94403987D01*
X129655753Y-94235204D01*
X129435227Y-94143860D01*
X129196533Y-94143860D01*
X128976007Y-94235204D01*
X128807224Y-94403987D01*
X128715880Y-94624513D01*
X128076040Y-94624513D01*
X128076040Y-93574513D01*
X131940880Y-93574513D01*
X131940880Y-93813207D01*
X132032224Y-94033733D01*
X132201007Y-94202516D01*
X132421533Y-94293860D01*
X132660227Y-94293860D01*
X132880753Y-94202516D01*
X133049536Y-94033733D01*
X133140880Y-93813207D01*
X133140880Y-93574513D01*
X133049536Y-93353987D01*
X132880753Y-93185204D01*
X132660227Y-93093860D01*
X132421533Y-93093860D01*
X132201007Y-93185204D01*
X132032224Y-93353987D01*
X131940880Y-93574513D01*
X128076040Y-93574513D01*
X128076040Y-89528549D01*
X128068835Y-89492327D01*
X128068835Y-89492322D01*
X128030166Y-89297918D01*
X128025647Y-89287008D01*
X128047164Y-89254805D01*
X128070000Y-89140000D01*
X128070000Y-87945647D01*
X128364629Y-87945647D01*
X128442241Y-88335828D01*
X128663260Y-88666607D01*
X128994039Y-88887626D01*
X129285730Y-88945647D01*
X129482710Y-88945647D01*
X129774401Y-88887626D01*
X130105180Y-88666607D01*
X130192208Y-88536360D01*
X130434928Y-88536360D01*
X130434928Y-92636360D01*
X134915880Y-92636360D01*
X134915880Y-92713207D01*
X135007224Y-92933733D01*
X135176007Y-93102516D01*
X135396533Y-93193860D01*
X135635227Y-93193860D01*
X135855753Y-93102516D01*
X136024536Y-92933733D01*
X136115880Y-92713207D01*
X136115880Y-92474513D01*
X136024536Y-92253987D01*
X135855753Y-92085204D01*
X135635227Y-91993860D01*
X135396533Y-91993860D01*
X135176007Y-92085204D01*
X135046833Y-92214378D01*
X135046833Y-91474513D01*
X137590880Y-91474513D01*
X137590880Y-91713207D01*
X137682224Y-91933733D01*
X137851007Y-92102516D01*
X138071533Y-92193860D01*
X138310227Y-92193860D01*
X138530753Y-92102516D01*
X138699536Y-91933733D01*
X138790880Y-91713207D01*
X138790880Y-91474513D01*
X138699536Y-91253987D01*
X138530753Y-91085204D01*
X138310227Y-90993860D01*
X138071533Y-90993860D01*
X137851007Y-91085204D01*
X137682224Y-91253987D01*
X137590880Y-91474513D01*
X135046833Y-91474513D01*
X135046833Y-89572777D01*
X139039205Y-89572777D01*
X139039205Y-89811471D01*
X139130549Y-90031997D01*
X139299332Y-90200780D01*
X139519858Y-90292124D01*
X139758552Y-90292124D01*
X139979078Y-90200780D01*
X140147861Y-90031997D01*
X140239205Y-89811471D01*
X140239205Y-89572777D01*
X140147861Y-89352251D01*
X139979078Y-89183468D01*
X139758552Y-89092124D01*
X139519858Y-89092124D01*
X139299332Y-89183468D01*
X139130549Y-89352251D01*
X139039205Y-89572777D01*
X135046833Y-89572777D01*
X135046833Y-88536360D01*
X130434928Y-88536360D01*
X130192208Y-88536360D01*
X130326199Y-88335828D01*
X130403811Y-87945647D01*
X134964629Y-87945647D01*
X135042241Y-88335828D01*
X135263260Y-88666607D01*
X135594039Y-88887626D01*
X135885730Y-88945647D01*
X136082710Y-88945647D01*
X136374401Y-88887626D01*
X136705180Y-88666607D01*
X136926199Y-88335828D01*
X137003811Y-87945647D01*
X136926199Y-87555466D01*
X136705180Y-87224687D01*
X136374401Y-87003668D01*
X136082710Y-86945647D01*
X135885730Y-86945647D01*
X135594039Y-87003668D01*
X135263260Y-87224687D01*
X135042241Y-87555466D01*
X134964629Y-87945647D01*
X130403811Y-87945647D01*
X130326199Y-87555466D01*
X130105180Y-87224687D01*
X129774401Y-87003668D01*
X129482710Y-86945647D01*
X129285730Y-86945647D01*
X128994039Y-87003668D01*
X128663260Y-87224687D01*
X128442241Y-87555466D01*
X128364629Y-87945647D01*
X128070000Y-87945647D01*
X128070000Y-85868860D01*
X141237332Y-85868860D01*
X141204884Y-89302915D01*
X141204884Y-89302915D01*
G37*
X141204884Y-89302915D02*
X141212492Y-89342128D01*
X141234169Y-89374571D01*
X142758169Y-90898571D01*
X142790612Y-90920248D01*
X142828880Y-90927860D01*
X143566195Y-90927860D01*
X141748897Y-92745159D01*
X141715497Y-92767476D01*
X141674157Y-92829347D01*
X141627089Y-92899789D01*
X141596044Y-93055860D01*
X141603881Y-93095258D01*
X141603880Y-95872628D01*
X141557510Y-95803230D01*
X141516560Y-95775868D01*
X141031074Y-95290382D01*
X141003710Y-95249430D01*
X140841463Y-95141020D01*
X140698387Y-95112560D01*
X140698382Y-95112560D01*
X140650080Y-95102952D01*
X140601778Y-95112560D01*
X139682129Y-95112560D01*
X139663973Y-95094404D01*
X139443447Y-95003060D01*
X139204753Y-95003060D01*
X138984227Y-95094404D01*
X138815444Y-95263187D01*
X138724100Y-95483713D01*
X138724100Y-95722407D01*
X138815444Y-95942933D01*
X138984227Y-96111716D01*
X139204753Y-96203060D01*
X139443447Y-96203060D01*
X139663973Y-96111716D01*
X139682129Y-96093560D01*
X140446909Y-96093560D01*
X140713381Y-96360032D01*
X140713381Y-96367854D01*
X140638553Y-96336860D01*
X140566380Y-96336860D01*
X140491380Y-96411860D01*
X140491380Y-96882860D01*
X140577880Y-96882860D01*
X140577880Y-97190860D01*
X140491380Y-97190860D01*
X140491380Y-97661860D01*
X140566380Y-97736860D01*
X140638553Y-97736860D01*
X140748816Y-97691188D01*
X140802284Y-97637721D01*
X140812592Y-97653148D01*
X140911826Y-97719453D01*
X141028880Y-97742737D01*
X141378880Y-97742737D01*
X141495934Y-97719453D01*
X141558689Y-97677522D01*
X141482224Y-97753987D01*
X141390880Y-97974513D01*
X141390880Y-98213207D01*
X141482224Y-98433733D01*
X141651007Y-98602516D01*
X141871533Y-98693860D01*
X142110227Y-98693860D01*
X142330753Y-98602516D01*
X142499536Y-98433733D01*
X142590880Y-98213207D01*
X142590880Y-97974513D01*
X142499536Y-97753987D01*
X142403880Y-97658331D01*
X142403880Y-97640109D01*
X142412592Y-97653148D01*
X142511826Y-97719453D01*
X142628880Y-97742737D01*
X142978880Y-97742737D01*
X143095934Y-97719453D01*
X143195168Y-97653148D01*
X143261473Y-97553914D01*
X143284757Y-97436860D01*
X143284757Y-97424513D01*
X144590876Y-97424513D01*
X144590876Y-97663207D01*
X144682220Y-97883733D01*
X144851003Y-98052516D01*
X145071529Y-98143860D01*
X145310223Y-98143860D01*
X145530749Y-98052516D01*
X145699532Y-97883733D01*
X145790876Y-97663207D01*
X145790876Y-97569028D01*
X145971533Y-97643858D01*
X146210227Y-97643858D01*
X146430753Y-97552514D01*
X146599536Y-97383731D01*
X146690880Y-97163205D01*
X146690880Y-96924511D01*
X146599536Y-96703985D01*
X146430753Y-96535202D01*
X146337834Y-96496714D01*
X146645879Y-96496714D01*
X146645879Y-96735408D01*
X146737223Y-96955934D01*
X146906006Y-97124717D01*
X147126532Y-97216061D01*
X147365226Y-97216061D01*
X147585752Y-97124717D01*
X147754535Y-96955934D01*
X147845879Y-96735408D01*
X147845879Y-96496714D01*
X147754535Y-96276188D01*
X147585752Y-96107405D01*
X147365226Y-96016061D01*
X147126532Y-96016061D01*
X146906006Y-96107405D01*
X146737223Y-96276188D01*
X146645879Y-96496714D01*
X146337834Y-96496714D01*
X146210227Y-96443858D01*
X145971533Y-96443858D01*
X145751007Y-96535202D01*
X145582224Y-96703985D01*
X145490880Y-96924511D01*
X145490880Y-97018690D01*
X145310223Y-96943860D01*
X145071529Y-96943860D01*
X144851003Y-97035204D01*
X144682220Y-97203987D01*
X144590876Y-97424513D01*
X143284757Y-97424513D01*
X143284757Y-96636860D01*
X143261473Y-96519806D01*
X143195168Y-96420572D01*
X143095934Y-96354267D01*
X142978880Y-96330983D01*
X142628880Y-96330983D01*
X142511826Y-96354267D01*
X142412592Y-96420572D01*
X142403880Y-96433611D01*
X142403880Y-93221544D01*
X143034771Y-92590653D01*
X143362120Y-92590653D01*
X143362120Y-92829347D01*
X143453464Y-93049873D01*
X143622247Y-93218656D01*
X143842773Y-93310000D01*
X144081467Y-93310000D01*
X144167141Y-93274513D01*
X148540880Y-93274513D01*
X148540880Y-93513207D01*
X148632224Y-93733733D01*
X148801007Y-93902516D01*
X149021533Y-93993860D01*
X149260227Y-93993860D01*
X149480753Y-93902516D01*
X149649536Y-93733733D01*
X149740880Y-93513207D01*
X149740880Y-93274513D01*
X149649536Y-93053987D01*
X149480753Y-92885204D01*
X149260227Y-92793860D01*
X149021533Y-92793860D01*
X148801007Y-92885204D01*
X148632224Y-93053987D01*
X148540880Y-93274513D01*
X144167141Y-93274513D01*
X144301993Y-93218656D01*
X144470776Y-93049873D01*
X144562120Y-92829347D01*
X144562120Y-92590653D01*
X144514014Y-92474513D01*
X150740880Y-92474513D01*
X150740880Y-92713207D01*
X150832224Y-92933733D01*
X151001007Y-93102516D01*
X151221533Y-93193860D01*
X151460227Y-93193860D01*
X151680753Y-93102516D01*
X151849536Y-92933733D01*
X151940880Y-92713207D01*
X151940880Y-92474513D01*
X151849536Y-92253987D01*
X151680753Y-92085204D01*
X151460227Y-91993860D01*
X151221533Y-91993860D01*
X151001007Y-92085204D01*
X150832224Y-92253987D01*
X150740880Y-92474513D01*
X144514014Y-92474513D01*
X144470776Y-92370127D01*
X144301993Y-92201344D01*
X144081467Y-92110000D01*
X143842773Y-92110000D01*
X143622247Y-92201344D01*
X143453464Y-92370127D01*
X143362120Y-92590653D01*
X143034771Y-92590653D01*
X143950911Y-91674513D01*
X147740884Y-91674513D01*
X147740884Y-91913207D01*
X147832228Y-92133733D01*
X148001011Y-92302516D01*
X148221537Y-92393860D01*
X148460231Y-92393860D01*
X148680757Y-92302516D01*
X148849540Y-92133733D01*
X148940884Y-91913207D01*
X148940884Y-91674513D01*
X148849540Y-91453987D01*
X148680757Y-91285204D01*
X148460231Y-91193860D01*
X148221537Y-91193860D01*
X148001011Y-91285204D01*
X147832228Y-91453987D01*
X147740884Y-91674513D01*
X143950911Y-91674513D01*
X144697565Y-90927860D01*
X149789449Y-90927860D01*
X149651007Y-90985204D01*
X149482224Y-91153987D01*
X149390880Y-91374513D01*
X149390880Y-91613207D01*
X149482224Y-91833733D01*
X149651007Y-92002516D01*
X149871533Y-92093860D01*
X150110227Y-92093860D01*
X150330753Y-92002516D01*
X150499536Y-91833733D01*
X150590880Y-91613207D01*
X150590880Y-91374513D01*
X150499536Y-91153987D01*
X150330753Y-90985204D01*
X150192311Y-90927860D01*
X151463288Y-90927860D01*
X151400000Y-91080653D01*
X151400000Y-91319347D01*
X151491344Y-91539873D01*
X151660127Y-91708656D01*
X151880653Y-91800000D01*
X152119347Y-91800000D01*
X152339873Y-91708656D01*
X152508656Y-91539873D01*
X152600000Y-91319347D01*
X152600000Y-91080653D01*
X152536712Y-90927860D01*
X152726040Y-90927860D01*
X152726041Y-106874411D01*
X152733245Y-106910628D01*
X152733245Y-106910639D01*
X152771915Y-107105042D01*
X152771915Y-107105043D01*
X152798200Y-107168501D01*
X152780000Y-107260000D01*
X152780000Y-110518860D01*
X128030000Y-110518860D01*
X128030000Y-109274513D01*
X138540880Y-109274513D01*
X138540880Y-109513207D01*
X138632224Y-109733733D01*
X138801007Y-109902516D01*
X139021533Y-109993860D01*
X139260227Y-109993860D01*
X139480753Y-109902516D01*
X139649536Y-109733733D01*
X139740880Y-109513207D01*
X139740880Y-109274513D01*
X139649536Y-109053987D01*
X139480753Y-108885204D01*
X139260227Y-108793860D01*
X139021533Y-108793860D01*
X138801007Y-108885204D01*
X138632224Y-109053987D01*
X138540880Y-109274513D01*
X128030000Y-109274513D01*
X128030000Y-107574515D01*
X147740880Y-107574515D01*
X147740880Y-107813209D01*
X147832224Y-108033735D01*
X148001007Y-108202518D01*
X148221533Y-108293862D01*
X148460227Y-108293862D01*
X148680753Y-108202518D01*
X148849536Y-108033735D01*
X148940880Y-107813209D01*
X148940880Y-107574515D01*
X148940880Y-107574513D01*
X150340880Y-107574513D01*
X150340880Y-107813207D01*
X150432224Y-108033733D01*
X150601007Y-108202516D01*
X150821533Y-108293860D01*
X151060227Y-108293860D01*
X151280753Y-108202516D01*
X151449536Y-108033733D01*
X151540880Y-107813207D01*
X151540880Y-107574513D01*
X151449536Y-107353987D01*
X151280753Y-107185204D01*
X151060227Y-107093860D01*
X150821533Y-107093860D01*
X150601007Y-107185204D01*
X150432224Y-107353987D01*
X150340880Y-107574513D01*
X148940880Y-107574513D01*
X148849536Y-107353989D01*
X148680753Y-107185206D01*
X148460227Y-107093862D01*
X148221533Y-107093862D01*
X148001007Y-107185206D01*
X147832224Y-107353989D01*
X147740880Y-107574515D01*
X128030000Y-107574515D01*
X128030000Y-107290000D01*
X128007164Y-107175195D01*
X128003425Y-107169599D01*
X128030166Y-107105042D01*
X128068835Y-106910638D01*
X128068835Y-106910633D01*
X128076040Y-106874411D01*
X128076040Y-105324513D01*
X140740880Y-105324513D01*
X140740880Y-105563207D01*
X140832224Y-105783733D01*
X141001007Y-105952516D01*
X141221533Y-106043860D01*
X141460227Y-106043860D01*
X141680753Y-105952516D01*
X141849536Y-105783733D01*
X141940880Y-105563207D01*
X141940880Y-105324513D01*
X141849536Y-105103987D01*
X141720062Y-104974513D01*
X149040880Y-104974513D01*
X149040880Y-105213207D01*
X149132224Y-105433733D01*
X149301007Y-105602516D01*
X149521533Y-105693860D01*
X149760227Y-105693860D01*
X149980753Y-105602516D01*
X150149536Y-105433733D01*
X150240880Y-105213207D01*
X150240880Y-104974513D01*
X150149536Y-104753987D01*
X150070062Y-104674513D01*
X150440880Y-104674513D01*
X150440880Y-104913207D01*
X150532224Y-105133733D01*
X150701007Y-105302516D01*
X150921533Y-105393860D01*
X151160227Y-105393860D01*
X151380753Y-105302516D01*
X151549536Y-105133733D01*
X151640880Y-104913207D01*
X151640880Y-104674513D01*
X151549536Y-104453987D01*
X151380753Y-104285204D01*
X151160227Y-104193860D01*
X150921533Y-104193860D01*
X150701007Y-104285204D01*
X150532224Y-104453987D01*
X150440880Y-104674513D01*
X150070062Y-104674513D01*
X149980753Y-104585204D01*
X149760227Y-104493860D01*
X149521533Y-104493860D01*
X149301007Y-104585204D01*
X149132224Y-104753987D01*
X149040880Y-104974513D01*
X141720062Y-104974513D01*
X141680753Y-104935204D01*
X141460227Y-104843860D01*
X141221533Y-104843860D01*
X141001007Y-104935204D01*
X140832224Y-105103987D01*
X140740880Y-105324513D01*
X128076040Y-105324513D01*
X128076040Y-104174513D01*
X132740880Y-104174513D01*
X132740880Y-104413207D01*
X132832224Y-104633733D01*
X133001007Y-104802516D01*
X133221533Y-104893860D01*
X133460227Y-104893860D01*
X133680753Y-104802516D01*
X133849536Y-104633733D01*
X133940880Y-104413207D01*
X133940880Y-104174513D01*
X133849536Y-103953987D01*
X133680753Y-103785204D01*
X133460227Y-103693860D01*
X133221533Y-103693860D01*
X133001007Y-103785204D01*
X132832224Y-103953987D01*
X132740880Y-104174513D01*
X128076040Y-104174513D01*
X128076040Y-103474513D01*
X138465880Y-103474513D01*
X138465880Y-103713207D01*
X138557224Y-103933733D01*
X138726007Y-104102516D01*
X138946533Y-104193860D01*
X139185227Y-104193860D01*
X139405753Y-104102516D01*
X139574536Y-103933733D01*
X139665880Y-103713207D01*
X139665880Y-103474513D01*
X139574536Y-103253987D01*
X139405753Y-103085204D01*
X139185227Y-102993860D01*
X138946533Y-102993860D01*
X138726007Y-103085204D01*
X138557224Y-103253987D01*
X138465880Y-103474513D01*
X128076040Y-103474513D01*
X128076040Y-100074513D01*
X131440880Y-100074513D01*
X131440880Y-100313207D01*
X131532224Y-100533733D01*
X131701007Y-100702516D01*
X131921533Y-100793860D01*
X132160227Y-100793860D01*
X132380753Y-100702516D01*
X132549536Y-100533733D01*
X132605131Y-100399513D01*
X136365880Y-100399513D01*
X136365880Y-100638207D01*
X136457224Y-100858733D01*
X136626007Y-101027516D01*
X136846533Y-101118860D01*
X137085227Y-101118860D01*
X137305753Y-101027516D01*
X137323909Y-101009360D01*
X140192578Y-101009360D01*
X140240880Y-101018968D01*
X140289182Y-101009360D01*
X140289187Y-101009360D01*
X140432263Y-100980900D01*
X140594510Y-100872490D01*
X140621874Y-100831537D01*
X140716557Y-100736854D01*
X140757510Y-100709490D01*
X140803881Y-100640091D01*
X140803881Y-101057235D01*
X140676001Y-101110204D01*
X140507218Y-101278987D01*
X140415874Y-101499513D01*
X140415874Y-101738207D01*
X140507218Y-101958733D01*
X140629853Y-102081368D01*
X140507224Y-102203997D01*
X140415880Y-102424523D01*
X140415880Y-102663217D01*
X140507224Y-102883743D01*
X140676007Y-103052526D01*
X140896533Y-103143870D01*
X141135227Y-103143870D01*
X141355753Y-103052526D01*
X141524536Y-102883743D01*
X141615880Y-102663217D01*
X141615880Y-102509554D01*
X142258865Y-101866570D01*
X142292264Y-101844254D01*
X142380671Y-101711942D01*
X142403880Y-101595264D01*
X142403880Y-101595263D01*
X142411716Y-101555870D01*
X142403880Y-101516476D01*
X142403880Y-100649513D01*
X143040872Y-100649513D01*
X143040872Y-100888207D01*
X143132216Y-101108733D01*
X143300999Y-101277516D01*
X143521525Y-101368860D01*
X143760219Y-101368860D01*
X143764701Y-101367004D01*
X143740880Y-101424513D01*
X143740880Y-101663207D01*
X143829092Y-101876172D01*
X143710578Y-101994686D01*
X143619234Y-102215212D01*
X143619234Y-102453906D01*
X143710578Y-102674432D01*
X143879361Y-102843215D01*
X144099887Y-102934559D01*
X144338581Y-102934559D01*
X144559107Y-102843215D01*
X144727890Y-102674432D01*
X144819234Y-102453906D01*
X144819234Y-102224513D01*
X146340880Y-102224513D01*
X146340880Y-102463207D01*
X146432224Y-102683733D01*
X146601007Y-102852516D01*
X146821533Y-102943860D01*
X147060227Y-102943860D01*
X147222909Y-102876476D01*
X147140880Y-103074513D01*
X147140880Y-103313207D01*
X147232224Y-103533733D01*
X147401007Y-103702516D01*
X147621533Y-103793860D01*
X147860227Y-103793860D01*
X148080753Y-103702516D01*
X148249536Y-103533733D01*
X148340880Y-103313207D01*
X148340880Y-103074513D01*
X148249536Y-102853987D01*
X148080753Y-102685204D01*
X147860227Y-102593860D01*
X147621533Y-102593860D01*
X147458851Y-102661244D01*
X147540880Y-102463207D01*
X147540880Y-102224513D01*
X147478749Y-102074513D01*
X150993860Y-102074513D01*
X150993860Y-102313207D01*
X151085204Y-102533733D01*
X151253987Y-102702516D01*
X151474513Y-102793860D01*
X151521533Y-102793860D01*
X151301007Y-102885204D01*
X151132224Y-103053987D01*
X151040880Y-103274513D01*
X151040880Y-103513207D01*
X151132224Y-103733733D01*
X151301007Y-103902516D01*
X151521533Y-103993860D01*
X151760227Y-103993860D01*
X151980753Y-103902516D01*
X152149536Y-103733733D01*
X152240880Y-103513207D01*
X152240880Y-103274513D01*
X152149536Y-103053987D01*
X151980753Y-102885204D01*
X151760227Y-102793860D01*
X151713207Y-102793860D01*
X151933733Y-102702516D01*
X152102516Y-102533733D01*
X152193860Y-102313207D01*
X152193860Y-102074513D01*
X152102516Y-101853987D01*
X151933733Y-101685204D01*
X151713207Y-101593860D01*
X151474513Y-101593860D01*
X151253987Y-101685204D01*
X151085204Y-101853987D01*
X150993860Y-102074513D01*
X147478749Y-102074513D01*
X147449536Y-102003987D01*
X147280753Y-101835204D01*
X147060227Y-101743860D01*
X146821533Y-101743860D01*
X146601007Y-101835204D01*
X146432224Y-102003987D01*
X146340880Y-102224513D01*
X144819234Y-102224513D01*
X144819234Y-102215212D01*
X144731022Y-102002247D01*
X144849536Y-101883733D01*
X144940880Y-101663207D01*
X144940880Y-101424513D01*
X144849536Y-101203987D01*
X144680753Y-101035204D01*
X144460227Y-100943860D01*
X144221533Y-100943860D01*
X144217051Y-100945716D01*
X144240872Y-100888207D01*
X144240872Y-100649513D01*
X144149528Y-100428987D01*
X143995054Y-100274513D01*
X147140880Y-100274513D01*
X147140880Y-100513207D01*
X147232224Y-100733733D01*
X147401007Y-100902516D01*
X147621533Y-100993860D01*
X147860227Y-100993860D01*
X148080753Y-100902516D01*
X148249536Y-100733733D01*
X148340880Y-100513207D01*
X148340880Y-100274513D01*
X148299670Y-100175021D01*
X149363070Y-100175021D01*
X149363070Y-100413715D01*
X149454414Y-100634241D01*
X149623197Y-100803024D01*
X149843723Y-100894368D01*
X150082417Y-100894368D01*
X150302943Y-100803024D01*
X150471726Y-100634241D01*
X150543299Y-100461447D01*
X150621533Y-100493852D01*
X150860227Y-100493852D01*
X151080753Y-100402508D01*
X151249536Y-100233725D01*
X151340880Y-100013199D01*
X151340880Y-99774505D01*
X151249536Y-99553979D01*
X151080753Y-99385196D01*
X150860227Y-99293852D01*
X150621533Y-99293852D01*
X150401007Y-99385196D01*
X150232224Y-99553979D01*
X150160651Y-99726773D01*
X150082417Y-99694368D01*
X149843723Y-99694368D01*
X149623197Y-99785712D01*
X149454414Y-99954495D01*
X149363070Y-100175021D01*
X148299670Y-100175021D01*
X148249536Y-100053987D01*
X148080753Y-99885204D01*
X147860227Y-99793860D01*
X147621533Y-99793860D01*
X147401007Y-99885204D01*
X147232224Y-100053987D01*
X147140880Y-100274513D01*
X143995054Y-100274513D01*
X143980745Y-100260204D01*
X143760219Y-100168860D01*
X143521525Y-100168860D01*
X143300999Y-100260204D01*
X143132216Y-100428987D01*
X143040872Y-100649513D01*
X142403880Y-100649513D01*
X142403880Y-100090109D01*
X142412592Y-100103148D01*
X142511826Y-100169453D01*
X142628880Y-100192737D01*
X142978880Y-100192737D01*
X143095934Y-100169453D01*
X143195168Y-100103148D01*
X143261473Y-100003914D01*
X143284757Y-99886860D01*
X143284757Y-99086860D01*
X143261473Y-98969806D01*
X143195168Y-98870572D01*
X143095934Y-98804267D01*
X142978880Y-98780983D01*
X142628880Y-98780983D01*
X142511826Y-98804267D01*
X142412592Y-98870572D01*
X142403880Y-98883611D01*
X142395168Y-98870572D01*
X142295934Y-98804267D01*
X142178880Y-98780983D01*
X141828880Y-98780983D01*
X141711826Y-98804267D01*
X141612592Y-98870572D01*
X141603880Y-98883611D01*
X141595168Y-98870572D01*
X141495934Y-98804267D01*
X141378880Y-98780983D01*
X141028880Y-98780983D01*
X140911826Y-98804267D01*
X140812592Y-98870572D01*
X140803880Y-98883611D01*
X140795168Y-98870572D01*
X140695934Y-98804267D01*
X140578880Y-98780983D01*
X140228880Y-98780983D01*
X140111826Y-98804267D01*
X140012592Y-98870572D01*
X140003880Y-98883611D01*
X139995168Y-98870572D01*
X139895934Y-98804267D01*
X139778880Y-98780983D01*
X139428880Y-98780983D01*
X139311826Y-98804267D01*
X139212592Y-98870572D01*
X139203880Y-98883611D01*
X139195168Y-98870572D01*
X139095934Y-98804267D01*
X138978880Y-98780983D01*
X138628880Y-98780983D01*
X138511826Y-98804267D01*
X138412592Y-98870572D01*
X138403880Y-98883611D01*
X138395168Y-98870572D01*
X138295934Y-98804267D01*
X138178880Y-98780983D01*
X137828880Y-98780983D01*
X137711826Y-98804267D01*
X137612592Y-98870572D01*
X137546287Y-98969806D01*
X137523003Y-99086860D01*
X137523003Y-99886860D01*
X137546287Y-100003914D01*
X137562621Y-100028360D01*
X137323909Y-100028360D01*
X137305753Y-100010204D01*
X137085227Y-99918860D01*
X136846533Y-99918860D01*
X136626007Y-100010204D01*
X136457224Y-100178987D01*
X136365880Y-100399513D01*
X132605131Y-100399513D01*
X132640880Y-100313207D01*
X132640880Y-100074513D01*
X132549536Y-99853987D01*
X132531380Y-99835831D01*
X132531380Y-99797031D01*
X132903898Y-99424513D01*
X134815880Y-99424513D01*
X134815880Y-99663207D01*
X134907224Y-99883733D01*
X135076007Y-100052516D01*
X135296533Y-100143860D01*
X135535227Y-100143860D01*
X135755753Y-100052516D01*
X135924536Y-99883733D01*
X136015880Y-99663207D01*
X136015880Y-99424513D01*
X135924536Y-99203987D01*
X135755753Y-99035204D01*
X135535227Y-98943860D01*
X135296533Y-98943860D01*
X135076007Y-99035204D01*
X134907224Y-99203987D01*
X134815880Y-99424513D01*
X132903898Y-99424513D01*
X135572922Y-96755489D01*
X135578840Y-96785242D01*
X135687250Y-96947490D01*
X135728203Y-96974854D01*
X137159886Y-98406537D01*
X137187250Y-98447490D01*
X137349497Y-98555900D01*
X137492573Y-98584360D01*
X137492577Y-98584360D01*
X137540879Y-98593968D01*
X137589181Y-98584360D01*
X138492578Y-98584360D01*
X138540880Y-98593968D01*
X138589182Y-98584360D01*
X138589187Y-98584360D01*
X138732263Y-98555900D01*
X138894510Y-98447490D01*
X138921874Y-98406537D01*
X139116555Y-98211855D01*
X139157510Y-98184490D01*
X139265920Y-98022243D01*
X139294380Y-97879167D01*
X139294380Y-97879163D01*
X139303988Y-97830861D01*
X139294380Y-97782559D01*
X139294380Y-97707796D01*
X139311826Y-97719453D01*
X139428880Y-97742737D01*
X139778880Y-97742737D01*
X139895934Y-97719453D01*
X139995168Y-97653148D01*
X140005476Y-97637721D01*
X140058944Y-97691188D01*
X140169207Y-97736860D01*
X140241380Y-97736860D01*
X140316380Y-97661860D01*
X140316380Y-97190860D01*
X140229880Y-97190860D01*
X140229880Y-96882860D01*
X140316380Y-96882860D01*
X140316380Y-96411860D01*
X140241380Y-96336860D01*
X140169207Y-96336860D01*
X140058944Y-96382532D01*
X140005476Y-96435999D01*
X139995168Y-96420572D01*
X139895934Y-96354267D01*
X139778880Y-96330983D01*
X139428880Y-96330983D01*
X139311826Y-96354267D01*
X139212592Y-96420572D01*
X139203880Y-96433611D01*
X139195168Y-96420572D01*
X139095934Y-96354267D01*
X138978880Y-96330983D01*
X138628880Y-96330983D01*
X138511826Y-96354267D01*
X138412592Y-96420572D01*
X138403880Y-96433611D01*
X138395168Y-96420572D01*
X138295934Y-96354267D01*
X138178880Y-96330983D01*
X137828880Y-96330983D01*
X137711826Y-96354267D01*
X137612592Y-96420572D01*
X137546287Y-96519806D01*
X137523003Y-96636860D01*
X137523003Y-97382312D01*
X136531380Y-96390689D01*
X136531380Y-95951889D01*
X136549536Y-95933733D01*
X136640880Y-95713207D01*
X136640880Y-95474513D01*
X136549536Y-95253987D01*
X136380753Y-95085204D01*
X136160227Y-94993860D01*
X135921533Y-94993860D01*
X135701007Y-95085204D01*
X135532224Y-95253987D01*
X135440880Y-95474513D01*
X135440880Y-95500189D01*
X131728201Y-99212868D01*
X131687251Y-99240230D01*
X131659889Y-99281180D01*
X131659886Y-99281183D01*
X131578841Y-99402477D01*
X131540772Y-99593860D01*
X131550381Y-99642166D01*
X131550381Y-99835830D01*
X131532224Y-99853987D01*
X131440880Y-100074513D01*
X128076040Y-100074513D01*
X128076040Y-97249513D01*
X131940880Y-97249513D01*
X131940880Y-97488207D01*
X132032224Y-97708733D01*
X132201007Y-97877516D01*
X132421533Y-97968860D01*
X132660227Y-97968860D01*
X132880753Y-97877516D01*
X133049536Y-97708733D01*
X133140880Y-97488207D01*
X133140880Y-97249513D01*
X133049536Y-97028987D01*
X132880753Y-96860204D01*
X132660227Y-96768860D01*
X132421533Y-96768860D01*
X132201007Y-96860204D01*
X132032224Y-97028987D01*
X131940880Y-97249513D01*
X128076040Y-97249513D01*
X128076040Y-94624513D01*
X128715880Y-94624513D01*
X128715880Y-94863207D01*
X128807224Y-95083733D01*
X128976007Y-95252516D01*
X129196533Y-95343860D01*
X129435227Y-95343860D01*
X129655753Y-95252516D01*
X129824536Y-95083733D01*
X129915880Y-94863207D01*
X129915880Y-94624513D01*
X129824536Y-94403987D01*
X129655753Y-94235204D01*
X129435227Y-94143860D01*
X129196533Y-94143860D01*
X128976007Y-94235204D01*
X128807224Y-94403987D01*
X128715880Y-94624513D01*
X128076040Y-94624513D01*
X128076040Y-93574513D01*
X131940880Y-93574513D01*
X131940880Y-93813207D01*
X132032224Y-94033733D01*
X132201007Y-94202516D01*
X132421533Y-94293860D01*
X132660227Y-94293860D01*
X132880753Y-94202516D01*
X133049536Y-94033733D01*
X133140880Y-93813207D01*
X133140880Y-93574513D01*
X133049536Y-93353987D01*
X132880753Y-93185204D01*
X132660227Y-93093860D01*
X132421533Y-93093860D01*
X132201007Y-93185204D01*
X132032224Y-93353987D01*
X131940880Y-93574513D01*
X128076040Y-93574513D01*
X128076040Y-89528549D01*
X128068835Y-89492327D01*
X128068835Y-89492322D01*
X128030166Y-89297918D01*
X128025647Y-89287008D01*
X128047164Y-89254805D01*
X128070000Y-89140000D01*
X128070000Y-87945647D01*
X128364629Y-87945647D01*
X128442241Y-88335828D01*
X128663260Y-88666607D01*
X128994039Y-88887626D01*
X129285730Y-88945647D01*
X129482710Y-88945647D01*
X129774401Y-88887626D01*
X130105180Y-88666607D01*
X130192208Y-88536360D01*
X130434928Y-88536360D01*
X130434928Y-92636360D01*
X134915880Y-92636360D01*
X134915880Y-92713207D01*
X135007224Y-92933733D01*
X135176007Y-93102516D01*
X135396533Y-93193860D01*
X135635227Y-93193860D01*
X135855753Y-93102516D01*
X136024536Y-92933733D01*
X136115880Y-92713207D01*
X136115880Y-92474513D01*
X136024536Y-92253987D01*
X135855753Y-92085204D01*
X135635227Y-91993860D01*
X135396533Y-91993860D01*
X135176007Y-92085204D01*
X135046833Y-92214378D01*
X135046833Y-91474513D01*
X137590880Y-91474513D01*
X137590880Y-91713207D01*
X137682224Y-91933733D01*
X137851007Y-92102516D01*
X138071533Y-92193860D01*
X138310227Y-92193860D01*
X138530753Y-92102516D01*
X138699536Y-91933733D01*
X138790880Y-91713207D01*
X138790880Y-91474513D01*
X138699536Y-91253987D01*
X138530753Y-91085204D01*
X138310227Y-90993860D01*
X138071533Y-90993860D01*
X137851007Y-91085204D01*
X137682224Y-91253987D01*
X137590880Y-91474513D01*
X135046833Y-91474513D01*
X135046833Y-89572777D01*
X139039205Y-89572777D01*
X139039205Y-89811471D01*
X139130549Y-90031997D01*
X139299332Y-90200780D01*
X139519858Y-90292124D01*
X139758552Y-90292124D01*
X139979078Y-90200780D01*
X140147861Y-90031997D01*
X140239205Y-89811471D01*
X140239205Y-89572777D01*
X140147861Y-89352251D01*
X139979078Y-89183468D01*
X139758552Y-89092124D01*
X139519858Y-89092124D01*
X139299332Y-89183468D01*
X139130549Y-89352251D01*
X139039205Y-89572777D01*
X135046833Y-89572777D01*
X135046833Y-88536360D01*
X130434928Y-88536360D01*
X130192208Y-88536360D01*
X130326199Y-88335828D01*
X130403811Y-87945647D01*
X134964629Y-87945647D01*
X135042241Y-88335828D01*
X135263260Y-88666607D01*
X135594039Y-88887626D01*
X135885730Y-88945647D01*
X136082710Y-88945647D01*
X136374401Y-88887626D01*
X136705180Y-88666607D01*
X136926199Y-88335828D01*
X137003811Y-87945647D01*
X136926199Y-87555466D01*
X136705180Y-87224687D01*
X136374401Y-87003668D01*
X136082710Y-86945647D01*
X135885730Y-86945647D01*
X135594039Y-87003668D01*
X135263260Y-87224687D01*
X135042241Y-87555466D01*
X134964629Y-87945647D01*
X130403811Y-87945647D01*
X130326199Y-87555466D01*
X130105180Y-87224687D01*
X129774401Y-87003668D01*
X129482710Y-86945647D01*
X129285730Y-86945647D01*
X128994039Y-87003668D01*
X128663260Y-87224687D01*
X128442241Y-87555466D01*
X128364629Y-87945647D01*
X128070000Y-87945647D01*
X128070000Y-85868860D01*
X141237332Y-85868860D01*
X141204884Y-89302915D01*
G04 #@! TO.N,GND*
G36*
X156885695Y-85940735D02*
X157474703Y-86145850D01*
X158003633Y-86476361D01*
X158446194Y-86915843D01*
X158780389Y-87442451D01*
X158989612Y-88030016D01*
X159063070Y-88646054D01*
X159058757Y-88667737D01*
X159022948Y-88674860D01*
X158692880Y-88674860D01*
X158692880Y-88516860D01*
X158617880Y-88441860D01*
X158046880Y-88441860D01*
X158046880Y-88461860D01*
X157738880Y-88461860D01*
X157738880Y-88441860D01*
X157167880Y-88441860D01*
X157155025Y-88454715D01*
X156922515Y-88222205D01*
X156578863Y-88079860D01*
X156206897Y-88079860D01*
X155863245Y-88222205D01*
X155630735Y-88454715D01*
X155617880Y-88441860D01*
X155046880Y-88441860D01*
X155046880Y-88461860D01*
X154738880Y-88461860D01*
X154738880Y-88441860D01*
X154167880Y-88441860D01*
X154092880Y-88516860D01*
X154092880Y-88674860D01*
X153561949Y-88674860D01*
X153452563Y-88696618D01*
X153432021Y-88710344D01*
X153341478Y-88728354D01*
X153299653Y-88745679D01*
X153206298Y-88784348D01*
X153190880Y-88794650D01*
X153190880Y-87428187D01*
X154092880Y-87428187D01*
X154092880Y-88058860D01*
X154167880Y-88133860D01*
X154738880Y-88133860D01*
X154738880Y-87262860D01*
X155046880Y-87262860D01*
X155046880Y-88133860D01*
X155617880Y-88133860D01*
X155692880Y-88058860D01*
X155692880Y-87428187D01*
X157092880Y-87428187D01*
X157092880Y-88058860D01*
X157167880Y-88133860D01*
X157738880Y-88133860D01*
X157738880Y-87262860D01*
X158046880Y-87262860D01*
X158046880Y-88133860D01*
X158617880Y-88133860D01*
X158692880Y-88058860D01*
X158692880Y-87428187D01*
X158647208Y-87317924D01*
X158562817Y-87233532D01*
X158452554Y-87187860D01*
X158121880Y-87187860D01*
X158046880Y-87262860D01*
X157738880Y-87262860D01*
X157663880Y-87187860D01*
X157333206Y-87187860D01*
X157222943Y-87233532D01*
X157138552Y-87317924D01*
X157092880Y-87428187D01*
X155692880Y-87428187D01*
X155647208Y-87317924D01*
X155562817Y-87233532D01*
X155452554Y-87187860D01*
X155121880Y-87187860D01*
X155046880Y-87262860D01*
X154738880Y-87262860D01*
X154663880Y-87187860D01*
X154333206Y-87187860D01*
X154222943Y-87233532D01*
X154138552Y-87317924D01*
X154092880Y-87428187D01*
X153190880Y-87428187D01*
X153190880Y-85868860D01*
X156244914Y-85868860D01*
X156885695Y-85940735D01*
X156885695Y-85940735D01*
G37*
X156885695Y-85940735D02*
X157474703Y-86145850D01*
X158003633Y-86476361D01*
X158446194Y-86915843D01*
X158780389Y-87442451D01*
X158989612Y-88030016D01*
X159063070Y-88646054D01*
X159058757Y-88667737D01*
X159022948Y-88674860D01*
X158692880Y-88674860D01*
X158692880Y-88516860D01*
X158617880Y-88441860D01*
X158046880Y-88441860D01*
X158046880Y-88461860D01*
X157738880Y-88461860D01*
X157738880Y-88441860D01*
X157167880Y-88441860D01*
X157155025Y-88454715D01*
X156922515Y-88222205D01*
X156578863Y-88079860D01*
X156206897Y-88079860D01*
X155863245Y-88222205D01*
X155630735Y-88454715D01*
X155617880Y-88441860D01*
X155046880Y-88441860D01*
X155046880Y-88461860D01*
X154738880Y-88461860D01*
X154738880Y-88441860D01*
X154167880Y-88441860D01*
X154092880Y-88516860D01*
X154092880Y-88674860D01*
X153561949Y-88674860D01*
X153452563Y-88696618D01*
X153432021Y-88710344D01*
X153341478Y-88728354D01*
X153299653Y-88745679D01*
X153206298Y-88784348D01*
X153190880Y-88794650D01*
X153190880Y-87428187D01*
X154092880Y-87428187D01*
X154092880Y-88058860D01*
X154167880Y-88133860D01*
X154738880Y-88133860D01*
X154738880Y-87262860D01*
X155046880Y-87262860D01*
X155046880Y-88133860D01*
X155617880Y-88133860D01*
X155692880Y-88058860D01*
X155692880Y-87428187D01*
X157092880Y-87428187D01*
X157092880Y-88058860D01*
X157167880Y-88133860D01*
X157738880Y-88133860D01*
X157738880Y-87262860D01*
X158046880Y-87262860D01*
X158046880Y-88133860D01*
X158617880Y-88133860D01*
X158692880Y-88058860D01*
X158692880Y-87428187D01*
X158647208Y-87317924D01*
X158562817Y-87233532D01*
X158452554Y-87187860D01*
X158121880Y-87187860D01*
X158046880Y-87262860D01*
X157738880Y-87262860D01*
X157663880Y-87187860D01*
X157333206Y-87187860D01*
X157222943Y-87233532D01*
X157138552Y-87317924D01*
X157092880Y-87428187D01*
X155692880Y-87428187D01*
X155647208Y-87317924D01*
X155562817Y-87233532D01*
X155452554Y-87187860D01*
X155121880Y-87187860D01*
X155046880Y-87262860D01*
X154738880Y-87262860D01*
X154663880Y-87187860D01*
X154333206Y-87187860D01*
X154222943Y-87233532D01*
X154138552Y-87317924D01*
X154092880Y-87428187D01*
X153190880Y-87428187D01*
X153190880Y-85868860D01*
X156244914Y-85868860D01*
X156885695Y-85940735D01*
G36*
X127670000Y-88833939D02*
X127595782Y-88784348D01*
X127460603Y-88728355D01*
X127460602Y-88728355D01*
X127266199Y-88689685D01*
X127266193Y-88689685D01*
X127229971Y-88682480D01*
X126561880Y-88682480D01*
X126561880Y-88516860D01*
X126486880Y-88441860D01*
X125915880Y-88441860D01*
X125915880Y-88461860D01*
X125607880Y-88461860D01*
X125607880Y-88441860D01*
X125036880Y-88441860D01*
X125024025Y-88454715D01*
X124791515Y-88222205D01*
X124447863Y-88079860D01*
X124075897Y-88079860D01*
X123732245Y-88222205D01*
X123499735Y-88454715D01*
X123486880Y-88441860D01*
X122915880Y-88441860D01*
X122915880Y-88461860D01*
X122607880Y-88461860D01*
X122607880Y-88441860D01*
X122036880Y-88441860D01*
X121961880Y-88516860D01*
X121961880Y-88674860D01*
X121758812Y-88674860D01*
X121723003Y-88667737D01*
X121720033Y-88652804D01*
X121787755Y-88049045D01*
X121961880Y-87549027D01*
X121961880Y-88058860D01*
X122036880Y-88133860D01*
X122607880Y-88133860D01*
X122607880Y-87262860D01*
X122915880Y-87262860D01*
X122915880Y-88133860D01*
X123486880Y-88133860D01*
X123561880Y-88058860D01*
X123561880Y-87428187D01*
X124961880Y-87428187D01*
X124961880Y-88058860D01*
X125036880Y-88133860D01*
X125607880Y-88133860D01*
X125607880Y-87262860D01*
X125915880Y-87262860D01*
X125915880Y-88133860D01*
X126486880Y-88133860D01*
X126561880Y-88058860D01*
X126561880Y-87428187D01*
X126516208Y-87317924D01*
X126431817Y-87233532D01*
X126321554Y-87187860D01*
X125990880Y-87187860D01*
X125915880Y-87262860D01*
X125607880Y-87262860D01*
X125532880Y-87187860D01*
X125202206Y-87187860D01*
X125091943Y-87233532D01*
X125007552Y-87317924D01*
X124961880Y-87428187D01*
X123561880Y-87428187D01*
X123516208Y-87317924D01*
X123431817Y-87233532D01*
X123321554Y-87187860D01*
X122990880Y-87187860D01*
X122915880Y-87262860D01*
X122607880Y-87262860D01*
X122532880Y-87187860D01*
X122202206Y-87187860D01*
X122149234Y-87209802D01*
X122323381Y-86931107D01*
X122762863Y-86488546D01*
X123289471Y-86154351D01*
X123877036Y-85945128D01*
X124516638Y-85868860D01*
X127670000Y-85868860D01*
X127670000Y-88833939D01*
X127670000Y-88833939D01*
G37*
X127670000Y-88833939D02*
X127595782Y-88784348D01*
X127460603Y-88728355D01*
X127460602Y-88728355D01*
X127266199Y-88689685D01*
X127266193Y-88689685D01*
X127229971Y-88682480D01*
X126561880Y-88682480D01*
X126561880Y-88516860D01*
X126486880Y-88441860D01*
X125915880Y-88441860D01*
X125915880Y-88461860D01*
X125607880Y-88461860D01*
X125607880Y-88441860D01*
X125036880Y-88441860D01*
X125024025Y-88454715D01*
X124791515Y-88222205D01*
X124447863Y-88079860D01*
X124075897Y-88079860D01*
X123732245Y-88222205D01*
X123499735Y-88454715D01*
X123486880Y-88441860D01*
X122915880Y-88441860D01*
X122915880Y-88461860D01*
X122607880Y-88461860D01*
X122607880Y-88441860D01*
X122036880Y-88441860D01*
X121961880Y-88516860D01*
X121961880Y-88674860D01*
X121758812Y-88674860D01*
X121723003Y-88667737D01*
X121720033Y-88652804D01*
X121787755Y-88049045D01*
X121961880Y-87549027D01*
X121961880Y-88058860D01*
X122036880Y-88133860D01*
X122607880Y-88133860D01*
X122607880Y-87262860D01*
X122915880Y-87262860D01*
X122915880Y-88133860D01*
X123486880Y-88133860D01*
X123561880Y-88058860D01*
X123561880Y-87428187D01*
X124961880Y-87428187D01*
X124961880Y-88058860D01*
X125036880Y-88133860D01*
X125607880Y-88133860D01*
X125607880Y-87262860D01*
X125915880Y-87262860D01*
X125915880Y-88133860D01*
X126486880Y-88133860D01*
X126561880Y-88058860D01*
X126561880Y-87428187D01*
X126516208Y-87317924D01*
X126431817Y-87233532D01*
X126321554Y-87187860D01*
X125990880Y-87187860D01*
X125915880Y-87262860D01*
X125607880Y-87262860D01*
X125532880Y-87187860D01*
X125202206Y-87187860D01*
X125091943Y-87233532D01*
X125007552Y-87317924D01*
X124961880Y-87428187D01*
X123561880Y-87428187D01*
X123516208Y-87317924D01*
X123431817Y-87233532D01*
X123321554Y-87187860D01*
X122990880Y-87187860D01*
X122915880Y-87262860D01*
X122607880Y-87262860D01*
X122532880Y-87187860D01*
X122202206Y-87187860D01*
X122149234Y-87209802D01*
X122323381Y-86931107D01*
X122762863Y-86488546D01*
X123289471Y-86154351D01*
X123877036Y-85945128D01*
X124516638Y-85868860D01*
X127670000Y-85868860D01*
X127670000Y-88833939D01*
G36*
X127630000Y-110518860D02*
X124536846Y-110518860D01*
X123896065Y-110446985D01*
X123307055Y-110241870D01*
X122778127Y-109911359D01*
X122335566Y-109471877D01*
X122148937Y-109177795D01*
X122202206Y-109199860D01*
X122532880Y-109199860D01*
X122607880Y-109124860D01*
X122607880Y-108253860D01*
X122036880Y-108253860D01*
X121961880Y-108328860D01*
X121961880Y-108834366D01*
X121792148Y-108357704D01*
X121718690Y-107741666D01*
X121723003Y-107719983D01*
X121758812Y-107712860D01*
X121961880Y-107712860D01*
X121961880Y-107870860D01*
X122036880Y-107945860D01*
X122607880Y-107945860D01*
X122607880Y-107925860D01*
X122915880Y-107925860D01*
X122915880Y-107945860D01*
X122935880Y-107945860D01*
X122935880Y-108253860D01*
X122915880Y-108253860D01*
X122915880Y-109124860D01*
X122990880Y-109199860D01*
X123321554Y-109199860D01*
X123431817Y-109154188D01*
X123516208Y-109069796D01*
X123561880Y-108959533D01*
X123561880Y-108328860D01*
X123486882Y-108253862D01*
X123561880Y-108253862D01*
X123561880Y-108122150D01*
X123732245Y-108292515D01*
X124075897Y-108434860D01*
X124447863Y-108434860D01*
X124791515Y-108292515D01*
X124961880Y-108122150D01*
X124961880Y-108253862D01*
X125036878Y-108253862D01*
X124961880Y-108328860D01*
X124961880Y-108959533D01*
X125007552Y-109069796D01*
X125091943Y-109154188D01*
X125202206Y-109199860D01*
X125532880Y-109199860D01*
X125607880Y-109124860D01*
X125607880Y-108253860D01*
X125915880Y-108253860D01*
X125915880Y-109124860D01*
X125990880Y-109199860D01*
X126321554Y-109199860D01*
X126431817Y-109154188D01*
X126516208Y-109069796D01*
X126561880Y-108959533D01*
X126561880Y-108328860D01*
X126486880Y-108253860D01*
X125915880Y-108253860D01*
X125607880Y-108253860D01*
X125587880Y-108253860D01*
X125587880Y-107945860D01*
X125607880Y-107945860D01*
X125607880Y-107925860D01*
X125915880Y-107925860D01*
X125915880Y-107945860D01*
X126486880Y-107945860D01*
X126561880Y-107870860D01*
X126561880Y-107720480D01*
X127229971Y-107720480D01*
X127266193Y-107713275D01*
X127266199Y-107713275D01*
X127460602Y-107674605D01*
X127460603Y-107674605D01*
X127595782Y-107618612D01*
X127630000Y-107595748D01*
X127630000Y-110518860D01*
X127630000Y-110518860D01*
G37*
X127630000Y-110518860D02*
X124536846Y-110518860D01*
X123896065Y-110446985D01*
X123307055Y-110241870D01*
X122778127Y-109911359D01*
X122335566Y-109471877D01*
X122148937Y-109177795D01*
X122202206Y-109199860D01*
X122532880Y-109199860D01*
X122607880Y-109124860D01*
X122607880Y-108253860D01*
X122036880Y-108253860D01*
X121961880Y-108328860D01*
X121961880Y-108834366D01*
X121792148Y-108357704D01*
X121718690Y-107741666D01*
X121723003Y-107719983D01*
X121758812Y-107712860D01*
X121961880Y-107712860D01*
X121961880Y-107870860D01*
X122036880Y-107945860D01*
X122607880Y-107945860D01*
X122607880Y-107925860D01*
X122915880Y-107925860D01*
X122915880Y-107945860D01*
X122935880Y-107945860D01*
X122935880Y-108253860D01*
X122915880Y-108253860D01*
X122915880Y-109124860D01*
X122990880Y-109199860D01*
X123321554Y-109199860D01*
X123431817Y-109154188D01*
X123516208Y-109069796D01*
X123561880Y-108959533D01*
X123561880Y-108328860D01*
X123486882Y-108253862D01*
X123561880Y-108253862D01*
X123561880Y-108122150D01*
X123732245Y-108292515D01*
X124075897Y-108434860D01*
X124447863Y-108434860D01*
X124791515Y-108292515D01*
X124961880Y-108122150D01*
X124961880Y-108253862D01*
X125036878Y-108253862D01*
X124961880Y-108328860D01*
X124961880Y-108959533D01*
X125007552Y-109069796D01*
X125091943Y-109154188D01*
X125202206Y-109199860D01*
X125532880Y-109199860D01*
X125607880Y-109124860D01*
X125607880Y-108253860D01*
X125915880Y-108253860D01*
X125915880Y-109124860D01*
X125990880Y-109199860D01*
X126321554Y-109199860D01*
X126431817Y-109154188D01*
X126516208Y-109069796D01*
X126561880Y-108959533D01*
X126561880Y-108328860D01*
X126486880Y-108253860D01*
X125915880Y-108253860D01*
X125607880Y-108253860D01*
X125587880Y-108253860D01*
X125587880Y-107945860D01*
X125607880Y-107945860D01*
X125607880Y-107925860D01*
X125915880Y-107925860D01*
X125915880Y-107945860D01*
X126486880Y-107945860D01*
X126561880Y-107870860D01*
X126561880Y-107720480D01*
X127229971Y-107720480D01*
X127266193Y-107713275D01*
X127266199Y-107713275D01*
X127460602Y-107674605D01*
X127460603Y-107674605D01*
X127595782Y-107618612D01*
X127630000Y-107595748D01*
X127630000Y-110518860D01*
G36*
X153206298Y-107618612D02*
X153244677Y-107634509D01*
X153341478Y-107674606D01*
X153535882Y-107713275D01*
X153682199Y-107713275D01*
X153683201Y-107712860D01*
X154219880Y-107712860D01*
X154219880Y-107870860D01*
X154294880Y-107945860D01*
X154865880Y-107945860D01*
X154865880Y-107925860D01*
X155173880Y-107925860D01*
X155173880Y-107945860D01*
X155193880Y-107945860D01*
X155193880Y-108253860D01*
X155173880Y-108253860D01*
X155173880Y-109124860D01*
X155248880Y-109199860D01*
X155579554Y-109199860D01*
X155689817Y-109154188D01*
X155774208Y-109069796D01*
X155819880Y-108959533D01*
X155819880Y-108328860D01*
X155744882Y-108253862D01*
X155819880Y-108253862D01*
X155819880Y-108122150D01*
X155990245Y-108292515D01*
X156333897Y-108434860D01*
X156705863Y-108434860D01*
X157049515Y-108292515D01*
X157219880Y-108122150D01*
X157219880Y-108253862D01*
X157294878Y-108253862D01*
X157219880Y-108328860D01*
X157219880Y-108959533D01*
X157265552Y-109069796D01*
X157349943Y-109154188D01*
X157460206Y-109199860D01*
X157790880Y-109199860D01*
X157865880Y-109124860D01*
X157865880Y-108253860D01*
X157845880Y-108253860D01*
X157845880Y-107945860D01*
X157865880Y-107945860D01*
X157865880Y-107925860D01*
X158173880Y-107925860D01*
X158173880Y-107945860D01*
X158744880Y-107945860D01*
X158819880Y-107870860D01*
X158819880Y-107712860D01*
X159022948Y-107712860D01*
X159058757Y-107719983D01*
X159061727Y-107734915D01*
X158994005Y-108338675D01*
X158819880Y-108838693D01*
X158819880Y-108328860D01*
X158744880Y-108253860D01*
X158173880Y-108253860D01*
X158173880Y-109124860D01*
X158248880Y-109199860D01*
X158579554Y-109199860D01*
X158632527Y-109177918D01*
X158458379Y-109456613D01*
X158018897Y-109899174D01*
X157492287Y-110233370D01*
X156904724Y-110442592D01*
X156265121Y-110518860D01*
X153180000Y-110518860D01*
X153180000Y-108328860D01*
X154219880Y-108328860D01*
X154219880Y-108959533D01*
X154265552Y-109069796D01*
X154349943Y-109154188D01*
X154460206Y-109199860D01*
X154790880Y-109199860D01*
X154865880Y-109124860D01*
X154865880Y-108253860D01*
X154294880Y-108253860D01*
X154219880Y-108328860D01*
X153180000Y-108328860D01*
X153180000Y-107601040D01*
X153206298Y-107618612D01*
X153206298Y-107618612D01*
G37*
X153206298Y-107618612D02*
X153244677Y-107634509D01*
X153341478Y-107674606D01*
X153535882Y-107713275D01*
X153682199Y-107713275D01*
X153683201Y-107712860D01*
X154219880Y-107712860D01*
X154219880Y-107870860D01*
X154294880Y-107945860D01*
X154865880Y-107945860D01*
X154865880Y-107925860D01*
X155173880Y-107925860D01*
X155173880Y-107945860D01*
X155193880Y-107945860D01*
X155193880Y-108253860D01*
X155173880Y-108253860D01*
X155173880Y-109124860D01*
X155248880Y-109199860D01*
X155579554Y-109199860D01*
X155689817Y-109154188D01*
X155774208Y-109069796D01*
X155819880Y-108959533D01*
X155819880Y-108328860D01*
X155744882Y-108253862D01*
X155819880Y-108253862D01*
X155819880Y-108122150D01*
X155990245Y-108292515D01*
X156333897Y-108434860D01*
X156705863Y-108434860D01*
X157049515Y-108292515D01*
X157219880Y-108122150D01*
X157219880Y-108253862D01*
X157294878Y-108253862D01*
X157219880Y-108328860D01*
X157219880Y-108959533D01*
X157265552Y-109069796D01*
X157349943Y-109154188D01*
X157460206Y-109199860D01*
X157790880Y-109199860D01*
X157865880Y-109124860D01*
X157865880Y-108253860D01*
X157845880Y-108253860D01*
X157845880Y-107945860D01*
X157865880Y-107945860D01*
X157865880Y-107925860D01*
X158173880Y-107925860D01*
X158173880Y-107945860D01*
X158744880Y-107945860D01*
X158819880Y-107870860D01*
X158819880Y-107712860D01*
X159022948Y-107712860D01*
X159058757Y-107719983D01*
X159061727Y-107734915D01*
X158994005Y-108338675D01*
X158819880Y-108838693D01*
X158819880Y-108328860D01*
X158744880Y-108253860D01*
X158173880Y-108253860D01*
X158173880Y-109124860D01*
X158248880Y-109199860D01*
X158579554Y-109199860D01*
X158632527Y-109177918D01*
X158458379Y-109456613D01*
X158018897Y-109899174D01*
X157492287Y-110233370D01*
X156904724Y-110442592D01*
X156265121Y-110518860D01*
X153180000Y-110518860D01*
X153180000Y-108328860D01*
X154219880Y-108328860D01*
X154219880Y-108959533D01*
X154265552Y-109069796D01*
X154349943Y-109154188D01*
X154460206Y-109199860D01*
X154790880Y-109199860D01*
X154865880Y-109124860D01*
X154865880Y-108253860D01*
X154294880Y-108253860D01*
X154219880Y-108328860D01*
X153180000Y-108328860D01*
X153180000Y-107601040D01*
X153206298Y-107618612D01*
G04 #@! TD*
M02*
