G04 #@! TF.GenerationSoftware,KiCad,Pcbnew,(5.0.1-3-g963ef8bb5)*
G04 #@! TF.CreationDate,2019-06-21T09:31:58-10:00*
G04 #@! TF.ProjectId,OpenHAK_03,4F70656E48414B5F30332E6B69636164,rev?*
G04 #@! TF.SameCoordinates,Original*
G04 #@! TF.FileFunction,Copper,L4,Bot,Signal*
G04 #@! TF.FilePolarity,Positive*
%FSLAX46Y46*%
G04 Gerber Fmt 4.6, Leading zero omitted, Abs format (unit mm)*
G04 Created by KiCad (PCBNEW (5.0.1-3-g963ef8bb5)) date Friday, June 21, 2019 at 09:31:58 AM*
%MOMM*%
%LPD*%
G01*
G04 APERTURE LIST*
G04 #@! TA.AperFunction,SMDPad,CuDef*
%ADD10R,0.350000X0.800000*%
G04 #@! TD*
G04 #@! TA.AperFunction,SMDPad,CuDef*
%ADD11R,1.000000X1.600000*%
G04 #@! TD*
G04 #@! TA.AperFunction,ComponentPad*
%ADD12O,1.400000X1.400000*%
G04 #@! TD*
G04 #@! TA.AperFunction,ViaPad*
%ADD13C,0.600000*%
G04 #@! TD*
G04 #@! TA.AperFunction,Conductor*
%ADD14C,0.381000*%
G04 #@! TD*
G04 #@! TA.AperFunction,Conductor*
%ADD15C,0.200000*%
G04 #@! TD*
G04 APERTURE END LIST*
D10*
G04 #@! TO.P,U2,14*
G04 #@! TO.N,Net-(U2-Pad14)*
X142803880Y-97036860D03*
G04 #@! TO.P,U2,13*
G04 #@! TO.N,/MAX_INT*
X142003880Y-97036860D03*
G04 #@! TO.P,U2,12*
G04 #@! TO.N,GND*
X141203880Y-97036860D03*
G04 #@! TO.P,U2,11*
G04 #@! TO.N,+1V8*
X140403880Y-97036860D03*
G04 #@! TO.P,U2,10*
G04 #@! TO.N,VPP*
X139603880Y-97036860D03*
G04 #@! TO.P,U2,9*
X138803880Y-97036860D03*
G04 #@! TO.P,U2,8*
G04 #@! TO.N,Net-(U2-Pad8)*
X138003880Y-97036860D03*
G04 #@! TO.P,U2,7*
G04 #@! TO.N,Net-(U2-Pad7)*
X138003880Y-99486860D03*
G04 #@! TO.P,U2,6*
G04 #@! TO.N,Net-(U2-Pad6)*
X138803880Y-99486860D03*
G04 #@! TO.P,U2,5*
G04 #@! TO.N,Net-(U2-Pad5)*
X139603880Y-99486860D03*
G04 #@! TO.P,U2,4*
G04 #@! TO.N,GND*
X140403880Y-99486860D03*
G04 #@! TO.P,U2,3*
G04 #@! TO.N,/1V8_SDA*
X141203880Y-99486860D03*
G04 #@! TO.P,U2,2*
G04 #@! TO.N,/1V8_SCL*
X142003880Y-99486860D03*
G04 #@! TO.P,U2,1*
G04 #@! TO.N,Net-(U2-Pad1)*
X142803880Y-99486860D03*
G04 #@! TD*
D11*
G04 #@! TO.P,S4,1*
G04 #@! TO.N,GND*
X154892880Y-88287860D03*
G04 #@! TO.P,S4,2*
X157892880Y-88287860D03*
G04 #@! TD*
G04 #@! TO.P,S4,1*
G04 #@! TO.N,GND*
X155019880Y-108099860D03*
G04 #@! TO.P,S4,2*
X158019880Y-108099860D03*
G04 #@! TD*
G04 #@! TO.P,S4,1*
G04 #@! TO.N,GND*
X122761880Y-108099860D03*
G04 #@! TO.P,S4,2*
X125761880Y-108099860D03*
G04 #@! TD*
G04 #@! TO.P,S1,1*
G04 #@! TO.N,GND*
X122761880Y-88287860D03*
G04 #@! TO.P,S1,2*
X125761880Y-88287860D03*
G04 #@! TD*
D12*
G04 #@! TO.P,P2,10*
G04 #@! TO.N,GND*
X135984220Y-87945647D03*
G04 #@! TO.P,P2,11*
X129384220Y-87945647D03*
G04 #@! TD*
D13*
G04 #@! TO.N,GND*
X143962120Y-92710000D03*
X147245879Y-96616061D03*
X139324100Y-95603060D03*
X135415880Y-99543860D03*
X136965880Y-100518860D03*
X150940880Y-107918860D03*
G04 #@! TO.N,VDD*
X139639205Y-89692124D03*
X151640880Y-97993860D03*
X150840880Y-99993860D03*
X151290880Y-102743860D03*
X148040880Y-100943860D03*
X149690880Y-105487860D03*
X143640872Y-100768860D03*
X132165880Y-104118860D03*
X139065880Y-103593860D03*
G04 #@! TO.N,VPP*
X136915880Y-94618860D03*
X129565880Y-100193860D03*
X130615872Y-106343860D03*
G04 #@! TO.N,/MAX_INT*
X146143980Y-90228420D03*
X141990880Y-98093860D03*
G04 #@! TO.N,/BMI_INT2*
X149990880Y-91493860D03*
X149940880Y-99543860D03*
G04 #@! TO.N,/BMI_INT1*
X152090880Y-91193860D03*
X151115879Y-103818860D03*
G04 #@! TO.N,Net-(D3-Pad3)*
X135515880Y-92593860D03*
X129315880Y-94743860D03*
G04 #@! TO.N,Net-(R13-Pad1)*
X132540880Y-93693860D03*
X132540880Y-97368860D03*
G04 #@! TO.N,+1V8*
X143390880Y-102543860D03*
X142665880Y-100568860D03*
X138340880Y-98093860D03*
G04 #@! TO.N,/1V8_SCL*
X141015880Y-102543870D03*
G04 #@! TO.N,/3V3_SCL*
X144219234Y-102334559D03*
X146090880Y-97043858D03*
X146940880Y-102343860D03*
G04 #@! TO.N,/1V8_SDA*
X141015874Y-101618860D03*
G04 #@! TO.N,/3V3_SDA*
X144340880Y-101543860D03*
X145190876Y-97543860D03*
X147740880Y-102543860D03*
G04 #@! TO.N,Net-(C10-Pad2)*
X138190880Y-91593860D03*
X139990880Y-106743860D03*
G04 #@! TO.N,/EN*
X129215880Y-105393860D03*
X129490880Y-102404760D03*
G04 #@! TO.N,/PIN_25*
X148690880Y-91943860D03*
X148440880Y-104793860D03*
G04 #@! TD*
D14*
G04 #@! TO.N,GND*
X141203880Y-97186860D02*
X141203880Y-96787596D01*
X139748364Y-95603060D02*
X139324100Y-95603060D01*
X141203880Y-96787596D02*
X140019344Y-95603060D01*
X140019344Y-95603060D02*
X139748364Y-95603060D01*
X140415880Y-99348860D02*
X140403880Y-99336860D01*
X140403880Y-99336860D02*
X140403880Y-100355860D01*
X140240880Y-100518860D02*
X136965880Y-100518860D01*
X140403880Y-100355860D02*
X140240880Y-100518860D01*
G04 #@! TO.N,VPP*
X138803380Y-97050860D02*
X138803880Y-97186860D01*
X139603880Y-97186860D02*
X138803880Y-97186860D01*
X138803880Y-97186860D02*
X138803880Y-96506860D01*
X138803880Y-96506860D02*
X137215879Y-94918859D01*
X137215879Y-94918859D02*
X136915880Y-94618860D01*
D15*
G04 #@! TO.N,/MAX_INT*
X142003880Y-98080860D02*
X141990880Y-98093860D01*
X142003880Y-97186860D02*
X142003880Y-98080860D01*
X142003880Y-93055860D02*
X144831320Y-90228420D01*
X144831320Y-90228420D02*
X146143980Y-90228420D01*
X142003880Y-97186860D02*
X142003880Y-93055860D01*
G04 #@! TO.N,/1V8_SCL*
X141015880Y-102543870D02*
X142003880Y-101555870D01*
X142003880Y-101555870D02*
X142003880Y-99336860D01*
G04 #@! TO.N,/1V8_SDA*
X141203880Y-101430854D02*
X141015874Y-101618860D01*
X141203880Y-99336860D02*
X141203880Y-101430854D01*
G04 #@! TD*
G04 #@! TO.N,+1V8*
G36*
X141204884Y-89302915D02*
X141212492Y-89342128D01*
X141234169Y-89374571D01*
X142758169Y-90898571D01*
X142790612Y-90920248D01*
X142828880Y-90927860D01*
X143566195Y-90927860D01*
X141748897Y-92745159D01*
X141715497Y-92767476D01*
X141674157Y-92829347D01*
X141627089Y-92899789D01*
X141596044Y-93055860D01*
X141603881Y-93095258D01*
X141603880Y-96433610D01*
X141603880Y-96433611D01*
X141595168Y-96420572D01*
X141495934Y-96354267D01*
X141456349Y-96346393D01*
X140400338Y-95290383D01*
X140372974Y-95249430D01*
X140210727Y-95141020D01*
X140067651Y-95112560D01*
X140067646Y-95112560D01*
X140019344Y-95102952D01*
X139971042Y-95112560D01*
X139682129Y-95112560D01*
X139663973Y-95094404D01*
X139443447Y-95003060D01*
X139204753Y-95003060D01*
X138984227Y-95094404D01*
X138815444Y-95263187D01*
X138724100Y-95483713D01*
X138724100Y-95722407D01*
X138731879Y-95741187D01*
X137528556Y-94537865D01*
X137515880Y-94525189D01*
X137515880Y-94499513D01*
X137424536Y-94278987D01*
X137255753Y-94110204D01*
X137035227Y-94018860D01*
X136796533Y-94018860D01*
X136576007Y-94110204D01*
X136407224Y-94278987D01*
X136315880Y-94499513D01*
X136315880Y-94738207D01*
X136407224Y-94958733D01*
X136576007Y-95127516D01*
X136796533Y-95218860D01*
X136822209Y-95218860D01*
X136834885Y-95231536D01*
X137934331Y-96330983D01*
X137828880Y-96330983D01*
X137711826Y-96354267D01*
X137612592Y-96420572D01*
X137546287Y-96519806D01*
X137523003Y-96636860D01*
X137523003Y-97436860D01*
X137546287Y-97553914D01*
X137612592Y-97653148D01*
X137711826Y-97719453D01*
X137828880Y-97742737D01*
X138178880Y-97742737D01*
X138295934Y-97719453D01*
X138395168Y-97653148D01*
X138403880Y-97640109D01*
X138412592Y-97653148D01*
X138511826Y-97719453D01*
X138628880Y-97742737D01*
X138978880Y-97742737D01*
X139095934Y-97719453D01*
X139158932Y-97677360D01*
X139248828Y-97677360D01*
X139311826Y-97719453D01*
X139428880Y-97742737D01*
X139778880Y-97742737D01*
X139895934Y-97719453D01*
X139995168Y-97653148D01*
X140005476Y-97637721D01*
X140058944Y-97691188D01*
X140169207Y-97736860D01*
X140241380Y-97736860D01*
X140316380Y-97661860D01*
X140316380Y-97190860D01*
X140229880Y-97190860D01*
X140229880Y-96882860D01*
X140316380Y-96882860D01*
X140316380Y-96862860D01*
X140491380Y-96862860D01*
X140491380Y-96882860D01*
X140577880Y-96882860D01*
X140577880Y-97190860D01*
X140491380Y-97190860D01*
X140491380Y-97661860D01*
X140566380Y-97736860D01*
X140638553Y-97736860D01*
X140748816Y-97691188D01*
X140802284Y-97637721D01*
X140812592Y-97653148D01*
X140911826Y-97719453D01*
X141028880Y-97742737D01*
X141378880Y-97742737D01*
X141495934Y-97719453D01*
X141558689Y-97677522D01*
X141482224Y-97753987D01*
X141390880Y-97974513D01*
X141390880Y-98213207D01*
X141482224Y-98433733D01*
X141651007Y-98602516D01*
X141871533Y-98693860D01*
X142110227Y-98693860D01*
X142330753Y-98602516D01*
X142499536Y-98433733D01*
X142590880Y-98213207D01*
X142590880Y-97974513D01*
X142499536Y-97753987D01*
X142403880Y-97658331D01*
X142403880Y-97640109D01*
X142412592Y-97653148D01*
X142511826Y-97719453D01*
X142628880Y-97742737D01*
X142978880Y-97742737D01*
X143095934Y-97719453D01*
X143195168Y-97653148D01*
X143261473Y-97553914D01*
X143284757Y-97436860D01*
X143284757Y-97424513D01*
X144590876Y-97424513D01*
X144590876Y-97663207D01*
X144682220Y-97883733D01*
X144851003Y-98052516D01*
X145071529Y-98143860D01*
X145310223Y-98143860D01*
X145530749Y-98052516D01*
X145699532Y-97883733D01*
X145703351Y-97874513D01*
X151040880Y-97874513D01*
X151040880Y-98113207D01*
X151132224Y-98333733D01*
X151301007Y-98502516D01*
X151521533Y-98593860D01*
X151760227Y-98593860D01*
X151980753Y-98502516D01*
X152149536Y-98333733D01*
X152240880Y-98113207D01*
X152240880Y-97874513D01*
X152149536Y-97653987D01*
X151980753Y-97485204D01*
X151760227Y-97393860D01*
X151521533Y-97393860D01*
X151301007Y-97485204D01*
X151132224Y-97653987D01*
X151040880Y-97874513D01*
X145703351Y-97874513D01*
X145790876Y-97663207D01*
X145790876Y-97569028D01*
X145971533Y-97643858D01*
X146210227Y-97643858D01*
X146430753Y-97552514D01*
X146599536Y-97383731D01*
X146690880Y-97163205D01*
X146690880Y-96924511D01*
X146599536Y-96703985D01*
X146430753Y-96535202D01*
X146337834Y-96496714D01*
X146645879Y-96496714D01*
X146645879Y-96735408D01*
X146737223Y-96955934D01*
X146906006Y-97124717D01*
X147126532Y-97216061D01*
X147365226Y-97216061D01*
X147585752Y-97124717D01*
X147754535Y-96955934D01*
X147845879Y-96735408D01*
X147845879Y-96496714D01*
X147754535Y-96276188D01*
X147585752Y-96107405D01*
X147365226Y-96016061D01*
X147126532Y-96016061D01*
X146906006Y-96107405D01*
X146737223Y-96276188D01*
X146645879Y-96496714D01*
X146337834Y-96496714D01*
X146210227Y-96443858D01*
X145971533Y-96443858D01*
X145751007Y-96535202D01*
X145582224Y-96703985D01*
X145490880Y-96924511D01*
X145490880Y-97018690D01*
X145310223Y-96943860D01*
X145071529Y-96943860D01*
X144851003Y-97035204D01*
X144682220Y-97203987D01*
X144590876Y-97424513D01*
X143284757Y-97424513D01*
X143284757Y-96636860D01*
X143261473Y-96519806D01*
X143195168Y-96420572D01*
X143095934Y-96354267D01*
X142978880Y-96330983D01*
X142628880Y-96330983D01*
X142511826Y-96354267D01*
X142412592Y-96420572D01*
X142403880Y-96433611D01*
X142403880Y-93221544D01*
X143034771Y-92590653D01*
X143362120Y-92590653D01*
X143362120Y-92829347D01*
X143453464Y-93049873D01*
X143622247Y-93218656D01*
X143842773Y-93310000D01*
X144081467Y-93310000D01*
X144301993Y-93218656D01*
X144470776Y-93049873D01*
X144562120Y-92829347D01*
X144562120Y-92590653D01*
X144470776Y-92370127D01*
X144301993Y-92201344D01*
X144081467Y-92110000D01*
X143842773Y-92110000D01*
X143622247Y-92201344D01*
X143453464Y-92370127D01*
X143362120Y-92590653D01*
X143034771Y-92590653D01*
X143800911Y-91824513D01*
X148090880Y-91824513D01*
X148090880Y-92063207D01*
X148182224Y-92283733D01*
X148351007Y-92452516D01*
X148571533Y-92543860D01*
X148810227Y-92543860D01*
X149030753Y-92452516D01*
X149199536Y-92283733D01*
X149290880Y-92063207D01*
X149290880Y-91824513D01*
X149199536Y-91603987D01*
X149030753Y-91435204D01*
X148810227Y-91343860D01*
X148571533Y-91343860D01*
X148351007Y-91435204D01*
X148182224Y-91603987D01*
X148090880Y-91824513D01*
X143800911Y-91824513D01*
X144697565Y-90927860D01*
X149789449Y-90927860D01*
X149651007Y-90985204D01*
X149482224Y-91153987D01*
X149390880Y-91374513D01*
X149390880Y-91613207D01*
X149482224Y-91833733D01*
X149651007Y-92002516D01*
X149871533Y-92093860D01*
X150110227Y-92093860D01*
X150330753Y-92002516D01*
X150499536Y-91833733D01*
X150590880Y-91613207D01*
X150590880Y-91374513D01*
X150499536Y-91153987D01*
X150330753Y-90985204D01*
X150192311Y-90927860D01*
X151551625Y-90927860D01*
X151490880Y-91074513D01*
X151490880Y-91313207D01*
X151582224Y-91533733D01*
X151751007Y-91702516D01*
X151971533Y-91793860D01*
X152210227Y-91793860D01*
X152430753Y-91702516D01*
X152599536Y-91533733D01*
X152690880Y-91313207D01*
X152690880Y-91074513D01*
X152630135Y-90927860D01*
X152726040Y-90927860D01*
X152726041Y-106874411D01*
X152733245Y-106910628D01*
X152733245Y-106910639D01*
X152771915Y-107105042D01*
X152771915Y-107105043D01*
X152827908Y-107240222D01*
X152938029Y-107405030D01*
X152973021Y-107440021D01*
X153041491Y-107508491D01*
X153206298Y-107618612D01*
X153244677Y-107634509D01*
X153341478Y-107674606D01*
X153535882Y-107713275D01*
X153682199Y-107713275D01*
X153683201Y-107712860D01*
X154214003Y-107712860D01*
X154214003Y-108899860D01*
X154237287Y-109016914D01*
X154303592Y-109116148D01*
X154402826Y-109182453D01*
X154519880Y-109205737D01*
X155519880Y-109205737D01*
X155636934Y-109182453D01*
X155736168Y-109116148D01*
X155802473Y-109016914D01*
X155825757Y-108899860D01*
X155825757Y-108128027D01*
X155990245Y-108292515D01*
X156333897Y-108434860D01*
X156705863Y-108434860D01*
X157049515Y-108292515D01*
X157214003Y-108128027D01*
X157214003Y-108899860D01*
X157237287Y-109016914D01*
X157303592Y-109116148D01*
X157402826Y-109182453D01*
X157519880Y-109205737D01*
X158519880Y-109205737D01*
X158628665Y-109184098D01*
X158458379Y-109456613D01*
X158018897Y-109899174D01*
X157492287Y-110233370D01*
X156904724Y-110442592D01*
X156265121Y-110518860D01*
X124536846Y-110518860D01*
X123896065Y-110446985D01*
X123307055Y-110241870D01*
X122778127Y-109911359D01*
X122335566Y-109471877D01*
X122152914Y-109184062D01*
X122261880Y-109205737D01*
X123261880Y-109205737D01*
X123378934Y-109182453D01*
X123478168Y-109116148D01*
X123544473Y-109016914D01*
X123567757Y-108899860D01*
X123567757Y-108128027D01*
X123732245Y-108292515D01*
X124075897Y-108434860D01*
X124447863Y-108434860D01*
X124791515Y-108292515D01*
X124956003Y-108128027D01*
X124956003Y-108899860D01*
X124979287Y-109016914D01*
X125045592Y-109116148D01*
X125144826Y-109182453D01*
X125261880Y-109205737D01*
X126261880Y-109205737D01*
X126378934Y-109182453D01*
X126478168Y-109116148D01*
X126544473Y-109016914D01*
X126567757Y-108899860D01*
X126567757Y-107799513D01*
X150340880Y-107799513D01*
X150340880Y-108038207D01*
X150432224Y-108258733D01*
X150601007Y-108427516D01*
X150821533Y-108518860D01*
X151060227Y-108518860D01*
X151280753Y-108427516D01*
X151449536Y-108258733D01*
X151540880Y-108038207D01*
X151540880Y-107799513D01*
X151449536Y-107578987D01*
X151280753Y-107410204D01*
X151060227Y-107318860D01*
X150821533Y-107318860D01*
X150601007Y-107410204D01*
X150432224Y-107578987D01*
X150340880Y-107799513D01*
X126567757Y-107799513D01*
X126567757Y-107720480D01*
X127229971Y-107720480D01*
X127266193Y-107713275D01*
X127266199Y-107713275D01*
X127460602Y-107674605D01*
X127460603Y-107674605D01*
X127595782Y-107618612D01*
X127760590Y-107508491D01*
X127829059Y-107440021D01*
X127864051Y-107405029D01*
X127974172Y-107240222D01*
X127997365Y-107184228D01*
X128030166Y-107105042D01*
X128068835Y-106910638D01*
X128068835Y-106910633D01*
X128076040Y-106874411D01*
X128076040Y-106224513D01*
X130015872Y-106224513D01*
X130015872Y-106463207D01*
X130107216Y-106683733D01*
X130275999Y-106852516D01*
X130496525Y-106943860D01*
X130735219Y-106943860D01*
X130955745Y-106852516D01*
X131124528Y-106683733D01*
X131149057Y-106624513D01*
X139390880Y-106624513D01*
X139390880Y-106863207D01*
X139482224Y-107083733D01*
X139651007Y-107252516D01*
X139871533Y-107343860D01*
X140110227Y-107343860D01*
X140330753Y-107252516D01*
X140499536Y-107083733D01*
X140590880Y-106863207D01*
X140590880Y-106624513D01*
X140499536Y-106403987D01*
X140330753Y-106235204D01*
X140110227Y-106143860D01*
X139871533Y-106143860D01*
X139651007Y-106235204D01*
X139482224Y-106403987D01*
X139390880Y-106624513D01*
X131149057Y-106624513D01*
X131215872Y-106463207D01*
X131215872Y-106224513D01*
X131124528Y-106003987D01*
X130955745Y-105835204D01*
X130735219Y-105743860D01*
X130496525Y-105743860D01*
X130275999Y-105835204D01*
X130107216Y-106003987D01*
X130015872Y-106224513D01*
X128076040Y-106224513D01*
X128076040Y-105274513D01*
X128615880Y-105274513D01*
X128615880Y-105513207D01*
X128707224Y-105733733D01*
X128876007Y-105902516D01*
X129096533Y-105993860D01*
X129335227Y-105993860D01*
X129555753Y-105902516D01*
X129724536Y-105733733D01*
X129815880Y-105513207D01*
X129815880Y-105274513D01*
X129724536Y-105053987D01*
X129555753Y-104885204D01*
X129335227Y-104793860D01*
X129096533Y-104793860D01*
X128876007Y-104885204D01*
X128707224Y-105053987D01*
X128615880Y-105274513D01*
X128076040Y-105274513D01*
X128076040Y-103999513D01*
X131565880Y-103999513D01*
X131565880Y-104238207D01*
X131657224Y-104458733D01*
X131826007Y-104627516D01*
X132046533Y-104718860D01*
X132285227Y-104718860D01*
X132392291Y-104674513D01*
X147840880Y-104674513D01*
X147840880Y-104913207D01*
X147932224Y-105133733D01*
X148101007Y-105302516D01*
X148321533Y-105393860D01*
X148560227Y-105393860D01*
X148621420Y-105368513D01*
X149090880Y-105368513D01*
X149090880Y-105607207D01*
X149182224Y-105827733D01*
X149351007Y-105996516D01*
X149571533Y-106087860D01*
X149810227Y-106087860D01*
X150030753Y-105996516D01*
X150199536Y-105827733D01*
X150290880Y-105607207D01*
X150290880Y-105368513D01*
X150199536Y-105147987D01*
X150030753Y-104979204D01*
X149810227Y-104887860D01*
X149571533Y-104887860D01*
X149351007Y-104979204D01*
X149182224Y-105147987D01*
X149090880Y-105368513D01*
X148621420Y-105368513D01*
X148780753Y-105302516D01*
X148949536Y-105133733D01*
X149040880Y-104913207D01*
X149040880Y-104674513D01*
X148949536Y-104453987D01*
X148780753Y-104285204D01*
X148560227Y-104193860D01*
X148321533Y-104193860D01*
X148101007Y-104285204D01*
X147932224Y-104453987D01*
X147840880Y-104674513D01*
X132392291Y-104674513D01*
X132505753Y-104627516D01*
X132674536Y-104458733D01*
X132765880Y-104238207D01*
X132765880Y-103999513D01*
X132674536Y-103778987D01*
X132505753Y-103610204D01*
X132285227Y-103518860D01*
X132046533Y-103518860D01*
X131826007Y-103610204D01*
X131657224Y-103778987D01*
X131565880Y-103999513D01*
X128076040Y-103999513D01*
X128076040Y-103474513D01*
X138465880Y-103474513D01*
X138465880Y-103713207D01*
X138557224Y-103933733D01*
X138726007Y-104102516D01*
X138946533Y-104193860D01*
X139185227Y-104193860D01*
X139405753Y-104102516D01*
X139574536Y-103933733D01*
X139665880Y-103713207D01*
X139665880Y-103699513D01*
X150515879Y-103699513D01*
X150515879Y-103938207D01*
X150607223Y-104158733D01*
X150776006Y-104327516D01*
X150996532Y-104418860D01*
X151235226Y-104418860D01*
X151455752Y-104327516D01*
X151624535Y-104158733D01*
X151715879Y-103938207D01*
X151715879Y-103699513D01*
X151624535Y-103478987D01*
X151466217Y-103320669D01*
X151630753Y-103252516D01*
X151799536Y-103083733D01*
X151890880Y-102863207D01*
X151890880Y-102624513D01*
X151799536Y-102403987D01*
X151630753Y-102235204D01*
X151410227Y-102143860D01*
X151171533Y-102143860D01*
X150951007Y-102235204D01*
X150782224Y-102403987D01*
X150690880Y-102624513D01*
X150690880Y-102863207D01*
X150782224Y-103083733D01*
X150940542Y-103242051D01*
X150776006Y-103310204D01*
X150607223Y-103478987D01*
X150515879Y-103699513D01*
X139665880Y-103699513D01*
X139665880Y-103474513D01*
X139574536Y-103253987D01*
X139405753Y-103085204D01*
X139185227Y-102993860D01*
X138946533Y-102993860D01*
X138726007Y-103085204D01*
X138557224Y-103253987D01*
X138465880Y-103474513D01*
X128076040Y-103474513D01*
X128076040Y-102285413D01*
X128890880Y-102285413D01*
X128890880Y-102524107D01*
X128982224Y-102744633D01*
X129151007Y-102913416D01*
X129371533Y-103004760D01*
X129610227Y-103004760D01*
X129830753Y-102913416D01*
X129999536Y-102744633D01*
X130090880Y-102524107D01*
X130090880Y-102285413D01*
X129999536Y-102064887D01*
X129830753Y-101896104D01*
X129610227Y-101804760D01*
X129371533Y-101804760D01*
X129151007Y-101896104D01*
X128982224Y-102064887D01*
X128890880Y-102285413D01*
X128076040Y-102285413D01*
X128076040Y-100074513D01*
X128965880Y-100074513D01*
X128965880Y-100313207D01*
X129057224Y-100533733D01*
X129226007Y-100702516D01*
X129446533Y-100793860D01*
X129685227Y-100793860D01*
X129905753Y-100702516D01*
X130074536Y-100533733D01*
X130130131Y-100399513D01*
X136365880Y-100399513D01*
X136365880Y-100638207D01*
X136457224Y-100858733D01*
X136626007Y-101027516D01*
X136846533Y-101118860D01*
X137085227Y-101118860D01*
X137305753Y-101027516D01*
X137323909Y-101009360D01*
X140192578Y-101009360D01*
X140240880Y-101018968D01*
X140289182Y-101009360D01*
X140289187Y-101009360D01*
X140432263Y-100980900D01*
X140594510Y-100872490D01*
X140621874Y-100831537D01*
X140716557Y-100736854D01*
X140757510Y-100709490D01*
X140803881Y-100640091D01*
X140803881Y-101057235D01*
X140676001Y-101110204D01*
X140507218Y-101278987D01*
X140415874Y-101499513D01*
X140415874Y-101738207D01*
X140507218Y-101958733D01*
X140629853Y-102081368D01*
X140507224Y-102203997D01*
X140415880Y-102424523D01*
X140415880Y-102663217D01*
X140507224Y-102883743D01*
X140676007Y-103052526D01*
X140896533Y-103143870D01*
X141135227Y-103143870D01*
X141355753Y-103052526D01*
X141524536Y-102883743D01*
X141615880Y-102663217D01*
X141615880Y-102509554D01*
X142258865Y-101866570D01*
X142292264Y-101844254D01*
X142380671Y-101711942D01*
X142403880Y-101595264D01*
X142403880Y-101595263D01*
X142411716Y-101555870D01*
X142403880Y-101516476D01*
X142403880Y-100649513D01*
X143040872Y-100649513D01*
X143040872Y-100888207D01*
X143132216Y-101108733D01*
X143300999Y-101277516D01*
X143521525Y-101368860D01*
X143760219Y-101368860D01*
X143764701Y-101367004D01*
X143740880Y-101424513D01*
X143740880Y-101663207D01*
X143829092Y-101876172D01*
X143710578Y-101994686D01*
X143619234Y-102215212D01*
X143619234Y-102453906D01*
X143710578Y-102674432D01*
X143879361Y-102843215D01*
X144099887Y-102934559D01*
X144338581Y-102934559D01*
X144559107Y-102843215D01*
X144727890Y-102674432D01*
X144819234Y-102453906D01*
X144819234Y-102224513D01*
X146340880Y-102224513D01*
X146340880Y-102463207D01*
X146432224Y-102683733D01*
X146601007Y-102852516D01*
X146821533Y-102943860D01*
X147060227Y-102943860D01*
X147228294Y-102874245D01*
X147232224Y-102883733D01*
X147401007Y-103052516D01*
X147621533Y-103143860D01*
X147860227Y-103143860D01*
X148080753Y-103052516D01*
X148249536Y-102883733D01*
X148340880Y-102663207D01*
X148340880Y-102424513D01*
X148249536Y-102203987D01*
X148080753Y-102035204D01*
X147860227Y-101943860D01*
X147621533Y-101943860D01*
X147453466Y-102013475D01*
X147449536Y-102003987D01*
X147280753Y-101835204D01*
X147060227Y-101743860D01*
X146821533Y-101743860D01*
X146601007Y-101835204D01*
X146432224Y-102003987D01*
X146340880Y-102224513D01*
X144819234Y-102224513D01*
X144819234Y-102215212D01*
X144731022Y-102002247D01*
X144849536Y-101883733D01*
X144940880Y-101663207D01*
X144940880Y-101424513D01*
X144849536Y-101203987D01*
X144680753Y-101035204D01*
X144460227Y-100943860D01*
X144221533Y-100943860D01*
X144217051Y-100945716D01*
X144240872Y-100888207D01*
X144240872Y-100824513D01*
X147440880Y-100824513D01*
X147440880Y-101063207D01*
X147532224Y-101283733D01*
X147701007Y-101452516D01*
X147921533Y-101543860D01*
X148160227Y-101543860D01*
X148380753Y-101452516D01*
X148549536Y-101283733D01*
X148640880Y-101063207D01*
X148640880Y-100824513D01*
X148549536Y-100603987D01*
X148380753Y-100435204D01*
X148160227Y-100343860D01*
X147921533Y-100343860D01*
X147701007Y-100435204D01*
X147532224Y-100603987D01*
X147440880Y-100824513D01*
X144240872Y-100824513D01*
X144240872Y-100649513D01*
X144149528Y-100428987D01*
X143980745Y-100260204D01*
X143760219Y-100168860D01*
X143521525Y-100168860D01*
X143300999Y-100260204D01*
X143132216Y-100428987D01*
X143040872Y-100649513D01*
X142403880Y-100649513D01*
X142403880Y-100090109D01*
X142412592Y-100103148D01*
X142511826Y-100169453D01*
X142628880Y-100192737D01*
X142978880Y-100192737D01*
X143095934Y-100169453D01*
X143195168Y-100103148D01*
X143261473Y-100003914D01*
X143284757Y-99886860D01*
X143284757Y-99424513D01*
X149340880Y-99424513D01*
X149340880Y-99663207D01*
X149432224Y-99883733D01*
X149601007Y-100052516D01*
X149821533Y-100143860D01*
X150060227Y-100143860D01*
X150240880Y-100069032D01*
X150240880Y-100113207D01*
X150332224Y-100333733D01*
X150501007Y-100502516D01*
X150721533Y-100593860D01*
X150960227Y-100593860D01*
X151180753Y-100502516D01*
X151349536Y-100333733D01*
X151440880Y-100113207D01*
X151440880Y-99874513D01*
X151349536Y-99653987D01*
X151180753Y-99485204D01*
X150960227Y-99393860D01*
X150721533Y-99393860D01*
X150540880Y-99468688D01*
X150540880Y-99424513D01*
X150449536Y-99203987D01*
X150280753Y-99035204D01*
X150060227Y-98943860D01*
X149821533Y-98943860D01*
X149601007Y-99035204D01*
X149432224Y-99203987D01*
X149340880Y-99424513D01*
X143284757Y-99424513D01*
X143284757Y-99086860D01*
X143261473Y-98969806D01*
X143195168Y-98870572D01*
X143095934Y-98804267D01*
X142978880Y-98780983D01*
X142628880Y-98780983D01*
X142511826Y-98804267D01*
X142412592Y-98870572D01*
X142403880Y-98883611D01*
X142395168Y-98870572D01*
X142295934Y-98804267D01*
X142178880Y-98780983D01*
X141828880Y-98780983D01*
X141711826Y-98804267D01*
X141612592Y-98870572D01*
X141603880Y-98883611D01*
X141595168Y-98870572D01*
X141495934Y-98804267D01*
X141378880Y-98780983D01*
X141028880Y-98780983D01*
X140911826Y-98804267D01*
X140812592Y-98870572D01*
X140803880Y-98883611D01*
X140795168Y-98870572D01*
X140695934Y-98804267D01*
X140578880Y-98780983D01*
X140228880Y-98780983D01*
X140111826Y-98804267D01*
X140012592Y-98870572D01*
X140003880Y-98883611D01*
X139995168Y-98870572D01*
X139895934Y-98804267D01*
X139778880Y-98780983D01*
X139428880Y-98780983D01*
X139311826Y-98804267D01*
X139212592Y-98870572D01*
X139203880Y-98883611D01*
X139195168Y-98870572D01*
X139095934Y-98804267D01*
X138978880Y-98780983D01*
X138628880Y-98780983D01*
X138511826Y-98804267D01*
X138412592Y-98870572D01*
X138403880Y-98883611D01*
X138395168Y-98870572D01*
X138295934Y-98804267D01*
X138178880Y-98780983D01*
X137828880Y-98780983D01*
X137711826Y-98804267D01*
X137612592Y-98870572D01*
X137546287Y-98969806D01*
X137523003Y-99086860D01*
X137523003Y-99886860D01*
X137546287Y-100003914D01*
X137562621Y-100028360D01*
X137323909Y-100028360D01*
X137305753Y-100010204D01*
X137085227Y-99918860D01*
X136846533Y-99918860D01*
X136626007Y-100010204D01*
X136457224Y-100178987D01*
X136365880Y-100399513D01*
X130130131Y-100399513D01*
X130165880Y-100313207D01*
X130165880Y-100074513D01*
X130074536Y-99853987D01*
X129905753Y-99685204D01*
X129685227Y-99593860D01*
X129446533Y-99593860D01*
X129226007Y-99685204D01*
X129057224Y-99853987D01*
X128965880Y-100074513D01*
X128076040Y-100074513D01*
X128076040Y-99424513D01*
X134815880Y-99424513D01*
X134815880Y-99663207D01*
X134907224Y-99883733D01*
X135076007Y-100052516D01*
X135296533Y-100143860D01*
X135535227Y-100143860D01*
X135755753Y-100052516D01*
X135924536Y-99883733D01*
X136015880Y-99663207D01*
X136015880Y-99424513D01*
X135924536Y-99203987D01*
X135755753Y-99035204D01*
X135535227Y-98943860D01*
X135296533Y-98943860D01*
X135076007Y-99035204D01*
X134907224Y-99203987D01*
X134815880Y-99424513D01*
X128076040Y-99424513D01*
X128076040Y-97249513D01*
X131940880Y-97249513D01*
X131940880Y-97488207D01*
X132032224Y-97708733D01*
X132201007Y-97877516D01*
X132421533Y-97968860D01*
X132660227Y-97968860D01*
X132880753Y-97877516D01*
X133049536Y-97708733D01*
X133140880Y-97488207D01*
X133140880Y-97249513D01*
X133049536Y-97028987D01*
X132880753Y-96860204D01*
X132660227Y-96768860D01*
X132421533Y-96768860D01*
X132201007Y-96860204D01*
X132032224Y-97028987D01*
X131940880Y-97249513D01*
X128076040Y-97249513D01*
X128076040Y-94624513D01*
X128715880Y-94624513D01*
X128715880Y-94863207D01*
X128807224Y-95083733D01*
X128976007Y-95252516D01*
X129196533Y-95343860D01*
X129435227Y-95343860D01*
X129655753Y-95252516D01*
X129824536Y-95083733D01*
X129915880Y-94863207D01*
X129915880Y-94624513D01*
X129824536Y-94403987D01*
X129655753Y-94235204D01*
X129435227Y-94143860D01*
X129196533Y-94143860D01*
X128976007Y-94235204D01*
X128807224Y-94403987D01*
X128715880Y-94624513D01*
X128076040Y-94624513D01*
X128076040Y-93574513D01*
X131940880Y-93574513D01*
X131940880Y-93813207D01*
X132032224Y-94033733D01*
X132201007Y-94202516D01*
X132421533Y-94293860D01*
X132660227Y-94293860D01*
X132880753Y-94202516D01*
X133049536Y-94033733D01*
X133140880Y-93813207D01*
X133140880Y-93574513D01*
X133049536Y-93353987D01*
X132880753Y-93185204D01*
X132660227Y-93093860D01*
X132421533Y-93093860D01*
X132201007Y-93185204D01*
X132032224Y-93353987D01*
X131940880Y-93574513D01*
X128076040Y-93574513D01*
X128076040Y-92474513D01*
X134915880Y-92474513D01*
X134915880Y-92713207D01*
X135007224Y-92933733D01*
X135176007Y-93102516D01*
X135396533Y-93193860D01*
X135635227Y-93193860D01*
X135855753Y-93102516D01*
X136024536Y-92933733D01*
X136115880Y-92713207D01*
X136115880Y-92474513D01*
X136024536Y-92253987D01*
X135855753Y-92085204D01*
X135635227Y-91993860D01*
X135396533Y-91993860D01*
X135176007Y-92085204D01*
X135007224Y-92253987D01*
X134915880Y-92474513D01*
X128076040Y-92474513D01*
X128076040Y-91474513D01*
X137590880Y-91474513D01*
X137590880Y-91713207D01*
X137682224Y-91933733D01*
X137851007Y-92102516D01*
X138071533Y-92193860D01*
X138310227Y-92193860D01*
X138530753Y-92102516D01*
X138699536Y-91933733D01*
X138790880Y-91713207D01*
X138790880Y-91474513D01*
X138699536Y-91253987D01*
X138530753Y-91085204D01*
X138310227Y-90993860D01*
X138071533Y-90993860D01*
X137851007Y-91085204D01*
X137682224Y-91253987D01*
X137590880Y-91474513D01*
X128076040Y-91474513D01*
X128076040Y-89572777D01*
X139039205Y-89572777D01*
X139039205Y-89811471D01*
X139130549Y-90031997D01*
X139299332Y-90200780D01*
X139519858Y-90292124D01*
X139758552Y-90292124D01*
X139979078Y-90200780D01*
X140147861Y-90031997D01*
X140239205Y-89811471D01*
X140239205Y-89572777D01*
X140147861Y-89352251D01*
X139979078Y-89183468D01*
X139758552Y-89092124D01*
X139519858Y-89092124D01*
X139299332Y-89183468D01*
X139130549Y-89352251D01*
X139039205Y-89572777D01*
X128076040Y-89572777D01*
X128076040Y-89528549D01*
X128068835Y-89492327D01*
X128068835Y-89492322D01*
X128030166Y-89297918D01*
X127991179Y-89203797D01*
X127974172Y-89162738D01*
X127864051Y-88997931D01*
X127799218Y-88933098D01*
X127760590Y-88894469D01*
X127595782Y-88784348D01*
X127460603Y-88728355D01*
X127460602Y-88728355D01*
X127266199Y-88689685D01*
X127266193Y-88689685D01*
X127229971Y-88682480D01*
X126567757Y-88682480D01*
X126567757Y-87945647D01*
X128364629Y-87945647D01*
X128442241Y-88335828D01*
X128663260Y-88666607D01*
X128994039Y-88887626D01*
X129285730Y-88945647D01*
X129482710Y-88945647D01*
X129774401Y-88887626D01*
X130105180Y-88666607D01*
X130326199Y-88335828D01*
X130403811Y-87945647D01*
X134964629Y-87945647D01*
X135042241Y-88335828D01*
X135263260Y-88666607D01*
X135594039Y-88887626D01*
X135885730Y-88945647D01*
X136082710Y-88945647D01*
X136374401Y-88887626D01*
X136705180Y-88666607D01*
X136926199Y-88335828D01*
X137003811Y-87945647D01*
X136926199Y-87555466D01*
X136705180Y-87224687D01*
X136374401Y-87003668D01*
X136082710Y-86945647D01*
X135885730Y-86945647D01*
X135594039Y-87003668D01*
X135263260Y-87224687D01*
X135042241Y-87555466D01*
X134964629Y-87945647D01*
X130403811Y-87945647D01*
X130326199Y-87555466D01*
X130105180Y-87224687D01*
X129774401Y-87003668D01*
X129482710Y-86945647D01*
X129285730Y-86945647D01*
X128994039Y-87003668D01*
X128663260Y-87224687D01*
X128442241Y-87555466D01*
X128364629Y-87945647D01*
X126567757Y-87945647D01*
X126567757Y-87487860D01*
X126544473Y-87370806D01*
X126478168Y-87271572D01*
X126378934Y-87205267D01*
X126261880Y-87181983D01*
X125261880Y-87181983D01*
X125144826Y-87205267D01*
X125045592Y-87271572D01*
X124979287Y-87370806D01*
X124956003Y-87487860D01*
X124956003Y-88386693D01*
X124791515Y-88222205D01*
X124447863Y-88079860D01*
X124075897Y-88079860D01*
X123732245Y-88222205D01*
X123567757Y-88386693D01*
X123567757Y-87487860D01*
X123544473Y-87370806D01*
X123478168Y-87271572D01*
X123378934Y-87205267D01*
X123261880Y-87181983D01*
X122261880Y-87181983D01*
X122153095Y-87203622D01*
X122323381Y-86931107D01*
X122762863Y-86488546D01*
X123289471Y-86154351D01*
X123877036Y-85945128D01*
X124516638Y-85868860D01*
X141237332Y-85868860D01*
X141204884Y-89302915D01*
X141204884Y-89302915D01*
G37*
X141204884Y-89302915D02*
X141212492Y-89342128D01*
X141234169Y-89374571D01*
X142758169Y-90898571D01*
X142790612Y-90920248D01*
X142828880Y-90927860D01*
X143566195Y-90927860D01*
X141748897Y-92745159D01*
X141715497Y-92767476D01*
X141674157Y-92829347D01*
X141627089Y-92899789D01*
X141596044Y-93055860D01*
X141603881Y-93095258D01*
X141603880Y-96433610D01*
X141603880Y-96433611D01*
X141595168Y-96420572D01*
X141495934Y-96354267D01*
X141456349Y-96346393D01*
X140400338Y-95290383D01*
X140372974Y-95249430D01*
X140210727Y-95141020D01*
X140067651Y-95112560D01*
X140067646Y-95112560D01*
X140019344Y-95102952D01*
X139971042Y-95112560D01*
X139682129Y-95112560D01*
X139663973Y-95094404D01*
X139443447Y-95003060D01*
X139204753Y-95003060D01*
X138984227Y-95094404D01*
X138815444Y-95263187D01*
X138724100Y-95483713D01*
X138724100Y-95722407D01*
X138731879Y-95741187D01*
X137528556Y-94537865D01*
X137515880Y-94525189D01*
X137515880Y-94499513D01*
X137424536Y-94278987D01*
X137255753Y-94110204D01*
X137035227Y-94018860D01*
X136796533Y-94018860D01*
X136576007Y-94110204D01*
X136407224Y-94278987D01*
X136315880Y-94499513D01*
X136315880Y-94738207D01*
X136407224Y-94958733D01*
X136576007Y-95127516D01*
X136796533Y-95218860D01*
X136822209Y-95218860D01*
X136834885Y-95231536D01*
X137934331Y-96330983D01*
X137828880Y-96330983D01*
X137711826Y-96354267D01*
X137612592Y-96420572D01*
X137546287Y-96519806D01*
X137523003Y-96636860D01*
X137523003Y-97436860D01*
X137546287Y-97553914D01*
X137612592Y-97653148D01*
X137711826Y-97719453D01*
X137828880Y-97742737D01*
X138178880Y-97742737D01*
X138295934Y-97719453D01*
X138395168Y-97653148D01*
X138403880Y-97640109D01*
X138412592Y-97653148D01*
X138511826Y-97719453D01*
X138628880Y-97742737D01*
X138978880Y-97742737D01*
X139095934Y-97719453D01*
X139158932Y-97677360D01*
X139248828Y-97677360D01*
X139311826Y-97719453D01*
X139428880Y-97742737D01*
X139778880Y-97742737D01*
X139895934Y-97719453D01*
X139995168Y-97653148D01*
X140005476Y-97637721D01*
X140058944Y-97691188D01*
X140169207Y-97736860D01*
X140241380Y-97736860D01*
X140316380Y-97661860D01*
X140316380Y-97190860D01*
X140229880Y-97190860D01*
X140229880Y-96882860D01*
X140316380Y-96882860D01*
X140316380Y-96862860D01*
X140491380Y-96862860D01*
X140491380Y-96882860D01*
X140577880Y-96882860D01*
X140577880Y-97190860D01*
X140491380Y-97190860D01*
X140491380Y-97661860D01*
X140566380Y-97736860D01*
X140638553Y-97736860D01*
X140748816Y-97691188D01*
X140802284Y-97637721D01*
X140812592Y-97653148D01*
X140911826Y-97719453D01*
X141028880Y-97742737D01*
X141378880Y-97742737D01*
X141495934Y-97719453D01*
X141558689Y-97677522D01*
X141482224Y-97753987D01*
X141390880Y-97974513D01*
X141390880Y-98213207D01*
X141482224Y-98433733D01*
X141651007Y-98602516D01*
X141871533Y-98693860D01*
X142110227Y-98693860D01*
X142330753Y-98602516D01*
X142499536Y-98433733D01*
X142590880Y-98213207D01*
X142590880Y-97974513D01*
X142499536Y-97753987D01*
X142403880Y-97658331D01*
X142403880Y-97640109D01*
X142412592Y-97653148D01*
X142511826Y-97719453D01*
X142628880Y-97742737D01*
X142978880Y-97742737D01*
X143095934Y-97719453D01*
X143195168Y-97653148D01*
X143261473Y-97553914D01*
X143284757Y-97436860D01*
X143284757Y-97424513D01*
X144590876Y-97424513D01*
X144590876Y-97663207D01*
X144682220Y-97883733D01*
X144851003Y-98052516D01*
X145071529Y-98143860D01*
X145310223Y-98143860D01*
X145530749Y-98052516D01*
X145699532Y-97883733D01*
X145703351Y-97874513D01*
X151040880Y-97874513D01*
X151040880Y-98113207D01*
X151132224Y-98333733D01*
X151301007Y-98502516D01*
X151521533Y-98593860D01*
X151760227Y-98593860D01*
X151980753Y-98502516D01*
X152149536Y-98333733D01*
X152240880Y-98113207D01*
X152240880Y-97874513D01*
X152149536Y-97653987D01*
X151980753Y-97485204D01*
X151760227Y-97393860D01*
X151521533Y-97393860D01*
X151301007Y-97485204D01*
X151132224Y-97653987D01*
X151040880Y-97874513D01*
X145703351Y-97874513D01*
X145790876Y-97663207D01*
X145790876Y-97569028D01*
X145971533Y-97643858D01*
X146210227Y-97643858D01*
X146430753Y-97552514D01*
X146599536Y-97383731D01*
X146690880Y-97163205D01*
X146690880Y-96924511D01*
X146599536Y-96703985D01*
X146430753Y-96535202D01*
X146337834Y-96496714D01*
X146645879Y-96496714D01*
X146645879Y-96735408D01*
X146737223Y-96955934D01*
X146906006Y-97124717D01*
X147126532Y-97216061D01*
X147365226Y-97216061D01*
X147585752Y-97124717D01*
X147754535Y-96955934D01*
X147845879Y-96735408D01*
X147845879Y-96496714D01*
X147754535Y-96276188D01*
X147585752Y-96107405D01*
X147365226Y-96016061D01*
X147126532Y-96016061D01*
X146906006Y-96107405D01*
X146737223Y-96276188D01*
X146645879Y-96496714D01*
X146337834Y-96496714D01*
X146210227Y-96443858D01*
X145971533Y-96443858D01*
X145751007Y-96535202D01*
X145582224Y-96703985D01*
X145490880Y-96924511D01*
X145490880Y-97018690D01*
X145310223Y-96943860D01*
X145071529Y-96943860D01*
X144851003Y-97035204D01*
X144682220Y-97203987D01*
X144590876Y-97424513D01*
X143284757Y-97424513D01*
X143284757Y-96636860D01*
X143261473Y-96519806D01*
X143195168Y-96420572D01*
X143095934Y-96354267D01*
X142978880Y-96330983D01*
X142628880Y-96330983D01*
X142511826Y-96354267D01*
X142412592Y-96420572D01*
X142403880Y-96433611D01*
X142403880Y-93221544D01*
X143034771Y-92590653D01*
X143362120Y-92590653D01*
X143362120Y-92829347D01*
X143453464Y-93049873D01*
X143622247Y-93218656D01*
X143842773Y-93310000D01*
X144081467Y-93310000D01*
X144301993Y-93218656D01*
X144470776Y-93049873D01*
X144562120Y-92829347D01*
X144562120Y-92590653D01*
X144470776Y-92370127D01*
X144301993Y-92201344D01*
X144081467Y-92110000D01*
X143842773Y-92110000D01*
X143622247Y-92201344D01*
X143453464Y-92370127D01*
X143362120Y-92590653D01*
X143034771Y-92590653D01*
X143800911Y-91824513D01*
X148090880Y-91824513D01*
X148090880Y-92063207D01*
X148182224Y-92283733D01*
X148351007Y-92452516D01*
X148571533Y-92543860D01*
X148810227Y-92543860D01*
X149030753Y-92452516D01*
X149199536Y-92283733D01*
X149290880Y-92063207D01*
X149290880Y-91824513D01*
X149199536Y-91603987D01*
X149030753Y-91435204D01*
X148810227Y-91343860D01*
X148571533Y-91343860D01*
X148351007Y-91435204D01*
X148182224Y-91603987D01*
X148090880Y-91824513D01*
X143800911Y-91824513D01*
X144697565Y-90927860D01*
X149789449Y-90927860D01*
X149651007Y-90985204D01*
X149482224Y-91153987D01*
X149390880Y-91374513D01*
X149390880Y-91613207D01*
X149482224Y-91833733D01*
X149651007Y-92002516D01*
X149871533Y-92093860D01*
X150110227Y-92093860D01*
X150330753Y-92002516D01*
X150499536Y-91833733D01*
X150590880Y-91613207D01*
X150590880Y-91374513D01*
X150499536Y-91153987D01*
X150330753Y-90985204D01*
X150192311Y-90927860D01*
X151551625Y-90927860D01*
X151490880Y-91074513D01*
X151490880Y-91313207D01*
X151582224Y-91533733D01*
X151751007Y-91702516D01*
X151971533Y-91793860D01*
X152210227Y-91793860D01*
X152430753Y-91702516D01*
X152599536Y-91533733D01*
X152690880Y-91313207D01*
X152690880Y-91074513D01*
X152630135Y-90927860D01*
X152726040Y-90927860D01*
X152726041Y-106874411D01*
X152733245Y-106910628D01*
X152733245Y-106910639D01*
X152771915Y-107105042D01*
X152771915Y-107105043D01*
X152827908Y-107240222D01*
X152938029Y-107405030D01*
X152973021Y-107440021D01*
X153041491Y-107508491D01*
X153206298Y-107618612D01*
X153244677Y-107634509D01*
X153341478Y-107674606D01*
X153535882Y-107713275D01*
X153682199Y-107713275D01*
X153683201Y-107712860D01*
X154214003Y-107712860D01*
X154214003Y-108899860D01*
X154237287Y-109016914D01*
X154303592Y-109116148D01*
X154402826Y-109182453D01*
X154519880Y-109205737D01*
X155519880Y-109205737D01*
X155636934Y-109182453D01*
X155736168Y-109116148D01*
X155802473Y-109016914D01*
X155825757Y-108899860D01*
X155825757Y-108128027D01*
X155990245Y-108292515D01*
X156333897Y-108434860D01*
X156705863Y-108434860D01*
X157049515Y-108292515D01*
X157214003Y-108128027D01*
X157214003Y-108899860D01*
X157237287Y-109016914D01*
X157303592Y-109116148D01*
X157402826Y-109182453D01*
X157519880Y-109205737D01*
X158519880Y-109205737D01*
X158628665Y-109184098D01*
X158458379Y-109456613D01*
X158018897Y-109899174D01*
X157492287Y-110233370D01*
X156904724Y-110442592D01*
X156265121Y-110518860D01*
X124536846Y-110518860D01*
X123896065Y-110446985D01*
X123307055Y-110241870D01*
X122778127Y-109911359D01*
X122335566Y-109471877D01*
X122152914Y-109184062D01*
X122261880Y-109205737D01*
X123261880Y-109205737D01*
X123378934Y-109182453D01*
X123478168Y-109116148D01*
X123544473Y-109016914D01*
X123567757Y-108899860D01*
X123567757Y-108128027D01*
X123732245Y-108292515D01*
X124075897Y-108434860D01*
X124447863Y-108434860D01*
X124791515Y-108292515D01*
X124956003Y-108128027D01*
X124956003Y-108899860D01*
X124979287Y-109016914D01*
X125045592Y-109116148D01*
X125144826Y-109182453D01*
X125261880Y-109205737D01*
X126261880Y-109205737D01*
X126378934Y-109182453D01*
X126478168Y-109116148D01*
X126544473Y-109016914D01*
X126567757Y-108899860D01*
X126567757Y-107799513D01*
X150340880Y-107799513D01*
X150340880Y-108038207D01*
X150432224Y-108258733D01*
X150601007Y-108427516D01*
X150821533Y-108518860D01*
X151060227Y-108518860D01*
X151280753Y-108427516D01*
X151449536Y-108258733D01*
X151540880Y-108038207D01*
X151540880Y-107799513D01*
X151449536Y-107578987D01*
X151280753Y-107410204D01*
X151060227Y-107318860D01*
X150821533Y-107318860D01*
X150601007Y-107410204D01*
X150432224Y-107578987D01*
X150340880Y-107799513D01*
X126567757Y-107799513D01*
X126567757Y-107720480D01*
X127229971Y-107720480D01*
X127266193Y-107713275D01*
X127266199Y-107713275D01*
X127460602Y-107674605D01*
X127460603Y-107674605D01*
X127595782Y-107618612D01*
X127760590Y-107508491D01*
X127829059Y-107440021D01*
X127864051Y-107405029D01*
X127974172Y-107240222D01*
X127997365Y-107184228D01*
X128030166Y-107105042D01*
X128068835Y-106910638D01*
X128068835Y-106910633D01*
X128076040Y-106874411D01*
X128076040Y-106224513D01*
X130015872Y-106224513D01*
X130015872Y-106463207D01*
X130107216Y-106683733D01*
X130275999Y-106852516D01*
X130496525Y-106943860D01*
X130735219Y-106943860D01*
X130955745Y-106852516D01*
X131124528Y-106683733D01*
X131149057Y-106624513D01*
X139390880Y-106624513D01*
X139390880Y-106863207D01*
X139482224Y-107083733D01*
X139651007Y-107252516D01*
X139871533Y-107343860D01*
X140110227Y-107343860D01*
X140330753Y-107252516D01*
X140499536Y-107083733D01*
X140590880Y-106863207D01*
X140590880Y-106624513D01*
X140499536Y-106403987D01*
X140330753Y-106235204D01*
X140110227Y-106143860D01*
X139871533Y-106143860D01*
X139651007Y-106235204D01*
X139482224Y-106403987D01*
X139390880Y-106624513D01*
X131149057Y-106624513D01*
X131215872Y-106463207D01*
X131215872Y-106224513D01*
X131124528Y-106003987D01*
X130955745Y-105835204D01*
X130735219Y-105743860D01*
X130496525Y-105743860D01*
X130275999Y-105835204D01*
X130107216Y-106003987D01*
X130015872Y-106224513D01*
X128076040Y-106224513D01*
X128076040Y-105274513D01*
X128615880Y-105274513D01*
X128615880Y-105513207D01*
X128707224Y-105733733D01*
X128876007Y-105902516D01*
X129096533Y-105993860D01*
X129335227Y-105993860D01*
X129555753Y-105902516D01*
X129724536Y-105733733D01*
X129815880Y-105513207D01*
X129815880Y-105274513D01*
X129724536Y-105053987D01*
X129555753Y-104885204D01*
X129335227Y-104793860D01*
X129096533Y-104793860D01*
X128876007Y-104885204D01*
X128707224Y-105053987D01*
X128615880Y-105274513D01*
X128076040Y-105274513D01*
X128076040Y-103999513D01*
X131565880Y-103999513D01*
X131565880Y-104238207D01*
X131657224Y-104458733D01*
X131826007Y-104627516D01*
X132046533Y-104718860D01*
X132285227Y-104718860D01*
X132392291Y-104674513D01*
X147840880Y-104674513D01*
X147840880Y-104913207D01*
X147932224Y-105133733D01*
X148101007Y-105302516D01*
X148321533Y-105393860D01*
X148560227Y-105393860D01*
X148621420Y-105368513D01*
X149090880Y-105368513D01*
X149090880Y-105607207D01*
X149182224Y-105827733D01*
X149351007Y-105996516D01*
X149571533Y-106087860D01*
X149810227Y-106087860D01*
X150030753Y-105996516D01*
X150199536Y-105827733D01*
X150290880Y-105607207D01*
X150290880Y-105368513D01*
X150199536Y-105147987D01*
X150030753Y-104979204D01*
X149810227Y-104887860D01*
X149571533Y-104887860D01*
X149351007Y-104979204D01*
X149182224Y-105147987D01*
X149090880Y-105368513D01*
X148621420Y-105368513D01*
X148780753Y-105302516D01*
X148949536Y-105133733D01*
X149040880Y-104913207D01*
X149040880Y-104674513D01*
X148949536Y-104453987D01*
X148780753Y-104285204D01*
X148560227Y-104193860D01*
X148321533Y-104193860D01*
X148101007Y-104285204D01*
X147932224Y-104453987D01*
X147840880Y-104674513D01*
X132392291Y-104674513D01*
X132505753Y-104627516D01*
X132674536Y-104458733D01*
X132765880Y-104238207D01*
X132765880Y-103999513D01*
X132674536Y-103778987D01*
X132505753Y-103610204D01*
X132285227Y-103518860D01*
X132046533Y-103518860D01*
X131826007Y-103610204D01*
X131657224Y-103778987D01*
X131565880Y-103999513D01*
X128076040Y-103999513D01*
X128076040Y-103474513D01*
X138465880Y-103474513D01*
X138465880Y-103713207D01*
X138557224Y-103933733D01*
X138726007Y-104102516D01*
X138946533Y-104193860D01*
X139185227Y-104193860D01*
X139405753Y-104102516D01*
X139574536Y-103933733D01*
X139665880Y-103713207D01*
X139665880Y-103699513D01*
X150515879Y-103699513D01*
X150515879Y-103938207D01*
X150607223Y-104158733D01*
X150776006Y-104327516D01*
X150996532Y-104418860D01*
X151235226Y-104418860D01*
X151455752Y-104327516D01*
X151624535Y-104158733D01*
X151715879Y-103938207D01*
X151715879Y-103699513D01*
X151624535Y-103478987D01*
X151466217Y-103320669D01*
X151630753Y-103252516D01*
X151799536Y-103083733D01*
X151890880Y-102863207D01*
X151890880Y-102624513D01*
X151799536Y-102403987D01*
X151630753Y-102235204D01*
X151410227Y-102143860D01*
X151171533Y-102143860D01*
X150951007Y-102235204D01*
X150782224Y-102403987D01*
X150690880Y-102624513D01*
X150690880Y-102863207D01*
X150782224Y-103083733D01*
X150940542Y-103242051D01*
X150776006Y-103310204D01*
X150607223Y-103478987D01*
X150515879Y-103699513D01*
X139665880Y-103699513D01*
X139665880Y-103474513D01*
X139574536Y-103253987D01*
X139405753Y-103085204D01*
X139185227Y-102993860D01*
X138946533Y-102993860D01*
X138726007Y-103085204D01*
X138557224Y-103253987D01*
X138465880Y-103474513D01*
X128076040Y-103474513D01*
X128076040Y-102285413D01*
X128890880Y-102285413D01*
X128890880Y-102524107D01*
X128982224Y-102744633D01*
X129151007Y-102913416D01*
X129371533Y-103004760D01*
X129610227Y-103004760D01*
X129830753Y-102913416D01*
X129999536Y-102744633D01*
X130090880Y-102524107D01*
X130090880Y-102285413D01*
X129999536Y-102064887D01*
X129830753Y-101896104D01*
X129610227Y-101804760D01*
X129371533Y-101804760D01*
X129151007Y-101896104D01*
X128982224Y-102064887D01*
X128890880Y-102285413D01*
X128076040Y-102285413D01*
X128076040Y-100074513D01*
X128965880Y-100074513D01*
X128965880Y-100313207D01*
X129057224Y-100533733D01*
X129226007Y-100702516D01*
X129446533Y-100793860D01*
X129685227Y-100793860D01*
X129905753Y-100702516D01*
X130074536Y-100533733D01*
X130130131Y-100399513D01*
X136365880Y-100399513D01*
X136365880Y-100638207D01*
X136457224Y-100858733D01*
X136626007Y-101027516D01*
X136846533Y-101118860D01*
X137085227Y-101118860D01*
X137305753Y-101027516D01*
X137323909Y-101009360D01*
X140192578Y-101009360D01*
X140240880Y-101018968D01*
X140289182Y-101009360D01*
X140289187Y-101009360D01*
X140432263Y-100980900D01*
X140594510Y-100872490D01*
X140621874Y-100831537D01*
X140716557Y-100736854D01*
X140757510Y-100709490D01*
X140803881Y-100640091D01*
X140803881Y-101057235D01*
X140676001Y-101110204D01*
X140507218Y-101278987D01*
X140415874Y-101499513D01*
X140415874Y-101738207D01*
X140507218Y-101958733D01*
X140629853Y-102081368D01*
X140507224Y-102203997D01*
X140415880Y-102424523D01*
X140415880Y-102663217D01*
X140507224Y-102883743D01*
X140676007Y-103052526D01*
X140896533Y-103143870D01*
X141135227Y-103143870D01*
X141355753Y-103052526D01*
X141524536Y-102883743D01*
X141615880Y-102663217D01*
X141615880Y-102509554D01*
X142258865Y-101866570D01*
X142292264Y-101844254D01*
X142380671Y-101711942D01*
X142403880Y-101595264D01*
X142403880Y-101595263D01*
X142411716Y-101555870D01*
X142403880Y-101516476D01*
X142403880Y-100649513D01*
X143040872Y-100649513D01*
X143040872Y-100888207D01*
X143132216Y-101108733D01*
X143300999Y-101277516D01*
X143521525Y-101368860D01*
X143760219Y-101368860D01*
X143764701Y-101367004D01*
X143740880Y-101424513D01*
X143740880Y-101663207D01*
X143829092Y-101876172D01*
X143710578Y-101994686D01*
X143619234Y-102215212D01*
X143619234Y-102453906D01*
X143710578Y-102674432D01*
X143879361Y-102843215D01*
X144099887Y-102934559D01*
X144338581Y-102934559D01*
X144559107Y-102843215D01*
X144727890Y-102674432D01*
X144819234Y-102453906D01*
X144819234Y-102224513D01*
X146340880Y-102224513D01*
X146340880Y-102463207D01*
X146432224Y-102683733D01*
X146601007Y-102852516D01*
X146821533Y-102943860D01*
X147060227Y-102943860D01*
X147228294Y-102874245D01*
X147232224Y-102883733D01*
X147401007Y-103052516D01*
X147621533Y-103143860D01*
X147860227Y-103143860D01*
X148080753Y-103052516D01*
X148249536Y-102883733D01*
X148340880Y-102663207D01*
X148340880Y-102424513D01*
X148249536Y-102203987D01*
X148080753Y-102035204D01*
X147860227Y-101943860D01*
X147621533Y-101943860D01*
X147453466Y-102013475D01*
X147449536Y-102003987D01*
X147280753Y-101835204D01*
X147060227Y-101743860D01*
X146821533Y-101743860D01*
X146601007Y-101835204D01*
X146432224Y-102003987D01*
X146340880Y-102224513D01*
X144819234Y-102224513D01*
X144819234Y-102215212D01*
X144731022Y-102002247D01*
X144849536Y-101883733D01*
X144940880Y-101663207D01*
X144940880Y-101424513D01*
X144849536Y-101203987D01*
X144680753Y-101035204D01*
X144460227Y-100943860D01*
X144221533Y-100943860D01*
X144217051Y-100945716D01*
X144240872Y-100888207D01*
X144240872Y-100824513D01*
X147440880Y-100824513D01*
X147440880Y-101063207D01*
X147532224Y-101283733D01*
X147701007Y-101452516D01*
X147921533Y-101543860D01*
X148160227Y-101543860D01*
X148380753Y-101452516D01*
X148549536Y-101283733D01*
X148640880Y-101063207D01*
X148640880Y-100824513D01*
X148549536Y-100603987D01*
X148380753Y-100435204D01*
X148160227Y-100343860D01*
X147921533Y-100343860D01*
X147701007Y-100435204D01*
X147532224Y-100603987D01*
X147440880Y-100824513D01*
X144240872Y-100824513D01*
X144240872Y-100649513D01*
X144149528Y-100428987D01*
X143980745Y-100260204D01*
X143760219Y-100168860D01*
X143521525Y-100168860D01*
X143300999Y-100260204D01*
X143132216Y-100428987D01*
X143040872Y-100649513D01*
X142403880Y-100649513D01*
X142403880Y-100090109D01*
X142412592Y-100103148D01*
X142511826Y-100169453D01*
X142628880Y-100192737D01*
X142978880Y-100192737D01*
X143095934Y-100169453D01*
X143195168Y-100103148D01*
X143261473Y-100003914D01*
X143284757Y-99886860D01*
X143284757Y-99424513D01*
X149340880Y-99424513D01*
X149340880Y-99663207D01*
X149432224Y-99883733D01*
X149601007Y-100052516D01*
X149821533Y-100143860D01*
X150060227Y-100143860D01*
X150240880Y-100069032D01*
X150240880Y-100113207D01*
X150332224Y-100333733D01*
X150501007Y-100502516D01*
X150721533Y-100593860D01*
X150960227Y-100593860D01*
X151180753Y-100502516D01*
X151349536Y-100333733D01*
X151440880Y-100113207D01*
X151440880Y-99874513D01*
X151349536Y-99653987D01*
X151180753Y-99485204D01*
X150960227Y-99393860D01*
X150721533Y-99393860D01*
X150540880Y-99468688D01*
X150540880Y-99424513D01*
X150449536Y-99203987D01*
X150280753Y-99035204D01*
X150060227Y-98943860D01*
X149821533Y-98943860D01*
X149601007Y-99035204D01*
X149432224Y-99203987D01*
X149340880Y-99424513D01*
X143284757Y-99424513D01*
X143284757Y-99086860D01*
X143261473Y-98969806D01*
X143195168Y-98870572D01*
X143095934Y-98804267D01*
X142978880Y-98780983D01*
X142628880Y-98780983D01*
X142511826Y-98804267D01*
X142412592Y-98870572D01*
X142403880Y-98883611D01*
X142395168Y-98870572D01*
X142295934Y-98804267D01*
X142178880Y-98780983D01*
X141828880Y-98780983D01*
X141711826Y-98804267D01*
X141612592Y-98870572D01*
X141603880Y-98883611D01*
X141595168Y-98870572D01*
X141495934Y-98804267D01*
X141378880Y-98780983D01*
X141028880Y-98780983D01*
X140911826Y-98804267D01*
X140812592Y-98870572D01*
X140803880Y-98883611D01*
X140795168Y-98870572D01*
X140695934Y-98804267D01*
X140578880Y-98780983D01*
X140228880Y-98780983D01*
X140111826Y-98804267D01*
X140012592Y-98870572D01*
X140003880Y-98883611D01*
X139995168Y-98870572D01*
X139895934Y-98804267D01*
X139778880Y-98780983D01*
X139428880Y-98780983D01*
X139311826Y-98804267D01*
X139212592Y-98870572D01*
X139203880Y-98883611D01*
X139195168Y-98870572D01*
X139095934Y-98804267D01*
X138978880Y-98780983D01*
X138628880Y-98780983D01*
X138511826Y-98804267D01*
X138412592Y-98870572D01*
X138403880Y-98883611D01*
X138395168Y-98870572D01*
X138295934Y-98804267D01*
X138178880Y-98780983D01*
X137828880Y-98780983D01*
X137711826Y-98804267D01*
X137612592Y-98870572D01*
X137546287Y-98969806D01*
X137523003Y-99086860D01*
X137523003Y-99886860D01*
X137546287Y-100003914D01*
X137562621Y-100028360D01*
X137323909Y-100028360D01*
X137305753Y-100010204D01*
X137085227Y-99918860D01*
X136846533Y-99918860D01*
X136626007Y-100010204D01*
X136457224Y-100178987D01*
X136365880Y-100399513D01*
X130130131Y-100399513D01*
X130165880Y-100313207D01*
X130165880Y-100074513D01*
X130074536Y-99853987D01*
X129905753Y-99685204D01*
X129685227Y-99593860D01*
X129446533Y-99593860D01*
X129226007Y-99685204D01*
X129057224Y-99853987D01*
X128965880Y-100074513D01*
X128076040Y-100074513D01*
X128076040Y-99424513D01*
X134815880Y-99424513D01*
X134815880Y-99663207D01*
X134907224Y-99883733D01*
X135076007Y-100052516D01*
X135296533Y-100143860D01*
X135535227Y-100143860D01*
X135755753Y-100052516D01*
X135924536Y-99883733D01*
X136015880Y-99663207D01*
X136015880Y-99424513D01*
X135924536Y-99203987D01*
X135755753Y-99035204D01*
X135535227Y-98943860D01*
X135296533Y-98943860D01*
X135076007Y-99035204D01*
X134907224Y-99203987D01*
X134815880Y-99424513D01*
X128076040Y-99424513D01*
X128076040Y-97249513D01*
X131940880Y-97249513D01*
X131940880Y-97488207D01*
X132032224Y-97708733D01*
X132201007Y-97877516D01*
X132421533Y-97968860D01*
X132660227Y-97968860D01*
X132880753Y-97877516D01*
X133049536Y-97708733D01*
X133140880Y-97488207D01*
X133140880Y-97249513D01*
X133049536Y-97028987D01*
X132880753Y-96860204D01*
X132660227Y-96768860D01*
X132421533Y-96768860D01*
X132201007Y-96860204D01*
X132032224Y-97028987D01*
X131940880Y-97249513D01*
X128076040Y-97249513D01*
X128076040Y-94624513D01*
X128715880Y-94624513D01*
X128715880Y-94863207D01*
X128807224Y-95083733D01*
X128976007Y-95252516D01*
X129196533Y-95343860D01*
X129435227Y-95343860D01*
X129655753Y-95252516D01*
X129824536Y-95083733D01*
X129915880Y-94863207D01*
X129915880Y-94624513D01*
X129824536Y-94403987D01*
X129655753Y-94235204D01*
X129435227Y-94143860D01*
X129196533Y-94143860D01*
X128976007Y-94235204D01*
X128807224Y-94403987D01*
X128715880Y-94624513D01*
X128076040Y-94624513D01*
X128076040Y-93574513D01*
X131940880Y-93574513D01*
X131940880Y-93813207D01*
X132032224Y-94033733D01*
X132201007Y-94202516D01*
X132421533Y-94293860D01*
X132660227Y-94293860D01*
X132880753Y-94202516D01*
X133049536Y-94033733D01*
X133140880Y-93813207D01*
X133140880Y-93574513D01*
X133049536Y-93353987D01*
X132880753Y-93185204D01*
X132660227Y-93093860D01*
X132421533Y-93093860D01*
X132201007Y-93185204D01*
X132032224Y-93353987D01*
X131940880Y-93574513D01*
X128076040Y-93574513D01*
X128076040Y-92474513D01*
X134915880Y-92474513D01*
X134915880Y-92713207D01*
X135007224Y-92933733D01*
X135176007Y-93102516D01*
X135396533Y-93193860D01*
X135635227Y-93193860D01*
X135855753Y-93102516D01*
X136024536Y-92933733D01*
X136115880Y-92713207D01*
X136115880Y-92474513D01*
X136024536Y-92253987D01*
X135855753Y-92085204D01*
X135635227Y-91993860D01*
X135396533Y-91993860D01*
X135176007Y-92085204D01*
X135007224Y-92253987D01*
X134915880Y-92474513D01*
X128076040Y-92474513D01*
X128076040Y-91474513D01*
X137590880Y-91474513D01*
X137590880Y-91713207D01*
X137682224Y-91933733D01*
X137851007Y-92102516D01*
X138071533Y-92193860D01*
X138310227Y-92193860D01*
X138530753Y-92102516D01*
X138699536Y-91933733D01*
X138790880Y-91713207D01*
X138790880Y-91474513D01*
X138699536Y-91253987D01*
X138530753Y-91085204D01*
X138310227Y-90993860D01*
X138071533Y-90993860D01*
X137851007Y-91085204D01*
X137682224Y-91253987D01*
X137590880Y-91474513D01*
X128076040Y-91474513D01*
X128076040Y-89572777D01*
X139039205Y-89572777D01*
X139039205Y-89811471D01*
X139130549Y-90031997D01*
X139299332Y-90200780D01*
X139519858Y-90292124D01*
X139758552Y-90292124D01*
X139979078Y-90200780D01*
X140147861Y-90031997D01*
X140239205Y-89811471D01*
X140239205Y-89572777D01*
X140147861Y-89352251D01*
X139979078Y-89183468D01*
X139758552Y-89092124D01*
X139519858Y-89092124D01*
X139299332Y-89183468D01*
X139130549Y-89352251D01*
X139039205Y-89572777D01*
X128076040Y-89572777D01*
X128076040Y-89528549D01*
X128068835Y-89492327D01*
X128068835Y-89492322D01*
X128030166Y-89297918D01*
X127991179Y-89203797D01*
X127974172Y-89162738D01*
X127864051Y-88997931D01*
X127799218Y-88933098D01*
X127760590Y-88894469D01*
X127595782Y-88784348D01*
X127460603Y-88728355D01*
X127460602Y-88728355D01*
X127266199Y-88689685D01*
X127266193Y-88689685D01*
X127229971Y-88682480D01*
X126567757Y-88682480D01*
X126567757Y-87945647D01*
X128364629Y-87945647D01*
X128442241Y-88335828D01*
X128663260Y-88666607D01*
X128994039Y-88887626D01*
X129285730Y-88945647D01*
X129482710Y-88945647D01*
X129774401Y-88887626D01*
X130105180Y-88666607D01*
X130326199Y-88335828D01*
X130403811Y-87945647D01*
X134964629Y-87945647D01*
X135042241Y-88335828D01*
X135263260Y-88666607D01*
X135594039Y-88887626D01*
X135885730Y-88945647D01*
X136082710Y-88945647D01*
X136374401Y-88887626D01*
X136705180Y-88666607D01*
X136926199Y-88335828D01*
X137003811Y-87945647D01*
X136926199Y-87555466D01*
X136705180Y-87224687D01*
X136374401Y-87003668D01*
X136082710Y-86945647D01*
X135885730Y-86945647D01*
X135594039Y-87003668D01*
X135263260Y-87224687D01*
X135042241Y-87555466D01*
X134964629Y-87945647D01*
X130403811Y-87945647D01*
X130326199Y-87555466D01*
X130105180Y-87224687D01*
X129774401Y-87003668D01*
X129482710Y-86945647D01*
X129285730Y-86945647D01*
X128994039Y-87003668D01*
X128663260Y-87224687D01*
X128442241Y-87555466D01*
X128364629Y-87945647D01*
X126567757Y-87945647D01*
X126567757Y-87487860D01*
X126544473Y-87370806D01*
X126478168Y-87271572D01*
X126378934Y-87205267D01*
X126261880Y-87181983D01*
X125261880Y-87181983D01*
X125144826Y-87205267D01*
X125045592Y-87271572D01*
X124979287Y-87370806D01*
X124956003Y-87487860D01*
X124956003Y-88386693D01*
X124791515Y-88222205D01*
X124447863Y-88079860D01*
X124075897Y-88079860D01*
X123732245Y-88222205D01*
X123567757Y-88386693D01*
X123567757Y-87487860D01*
X123544473Y-87370806D01*
X123478168Y-87271572D01*
X123378934Y-87205267D01*
X123261880Y-87181983D01*
X122261880Y-87181983D01*
X122153095Y-87203622D01*
X122323381Y-86931107D01*
X122762863Y-86488546D01*
X123289471Y-86154351D01*
X123877036Y-85945128D01*
X124516638Y-85868860D01*
X141237332Y-85868860D01*
X141204884Y-89302915D01*
G04 #@! TD*
M02*
