G04 #@! TF.GenerationSoftware,KiCad,Pcbnew,(5.0.1-3-g963ef8bb5)*
G04 #@! TF.CreationDate,2019-06-21T09:31:58-10:00*
G04 #@! TF.ProjectId,OpenHAK_03,4F70656E48414B5F30332E6B69636164,rev?*
G04 #@! TF.SameCoordinates,Original*
G04 #@! TF.FileFunction,Profile,NP*
%FSLAX46Y46*%
G04 Gerber Fmt 4.6, Leading zero omitted, Abs format (unit mm)*
G04 Created by KiCad (PCBNEW (5.0.1-3-g963ef8bb5)) date Friday, June 21, 2019 at 09:31:58 AM*
%MOMM*%
%LPD*%
G01*
G04 APERTURE LIST*
%ADD10C,0.150000*%
G04 APERTURE END LIST*
D10*
X121721880Y-107337860D02*
G75*
G03X121340880Y-107718860I0J-381000D01*
G01*
X124896880Y-107337860D02*
X121721880Y-107337860D01*
X121340880Y-88668860D02*
G75*
G03X121721880Y-89049860I381000J0D01*
G01*
X124896880Y-89049860D02*
X121721880Y-89049860D01*
X159440880Y-107718860D02*
G75*
G03X159059880Y-107337860I-381000J0D01*
G01*
X153598880Y-107337860D02*
X159059880Y-107337860D01*
X159059880Y-89049860D02*
G75*
G03X159440880Y-88668860I0J381000D01*
G01*
X153598880Y-89049860D02*
X159059880Y-89049860D01*
X156265880Y-85493860D02*
X124515880Y-85493860D01*
X124515880Y-110893860D02*
X156265880Y-110893860D01*
X121340880Y-107718860D02*
G75*
G03X124515880Y-110893860I3175000J0D01*
G01*
X124515880Y-85493860D02*
G75*
G03X121340880Y-88668860I0J-3175000D01*
G01*
X159440880Y-88668860D02*
G75*
G03X156265880Y-85493860I-3175000J0D01*
G01*
X156265880Y-110893860D02*
G75*
G03X159440880Y-107718860I0J3175000D01*
G01*
X124907040Y-107345480D02*
X127193040Y-107345480D01*
X127193040Y-89057480D02*
X124907040Y-89057480D01*
X127701040Y-106837480D02*
X127701040Y-89565480D01*
X127701040Y-89565480D02*
G75*
G03X127193040Y-89057480I-508000J0D01*
G01*
X127193040Y-107345480D02*
G75*
G03X127701040Y-106837480I0J508000D01*
G01*
X153101040Y-89565480D02*
X153101040Y-106837480D01*
X153101040Y-106837480D02*
G75*
G03X153609040Y-107345480I508000J0D01*
G01*
X153609040Y-89057480D02*
G75*
G03X153101040Y-89565480I0J-508000D01*
G01*
M02*
