G04 #@! TF.GenerationSoftware,KiCad,Pcbnew,(5.0.1-3-g963ef8bb5)*
G04 #@! TF.CreationDate,2019-06-21T09:44:15-10:00*
G04 #@! TF.ProjectId,OpenHAK_03,4F70656E48414B5F30332E6B69636164,rev?*
G04 #@! TF.SameCoordinates,Original*
G04 #@! TF.FileFunction,Copper,L1,Top,Signal*
G04 #@! TF.FilePolarity,Positive*
%FSLAX46Y46*%
G04 Gerber Fmt 4.6, Leading zero omitted, Abs format (unit mm)*
G04 Created by KiCad (PCBNEW (5.0.1-3-g963ef8bb5)) date Friday, June 21, 2019 at 09:44:15 AM*
%MOMM*%
%LPD*%
G01*
G04 APERTURE LIST*
G04 #@! TA.AperFunction,SMDPad,CuDef*
%ADD10R,0.530000X0.200000*%
G04 #@! TD*
G04 #@! TA.AperFunction,SMDPad,CuDef*
%ADD11R,0.500000X0.600000*%
G04 #@! TD*
G04 #@! TA.AperFunction,SMDPad,CuDef*
%ADD12R,0.675000X0.250000*%
G04 #@! TD*
G04 #@! TA.AperFunction,SMDPad,CuDef*
%ADD13R,0.250000X0.675000*%
G04 #@! TD*
G04 #@! TA.AperFunction,SMDPad,CuDef*
%ADD14R,0.600000X0.500000*%
G04 #@! TD*
G04 #@! TA.AperFunction,SMDPad,CuDef*
%ADD15C,0.010000*%
G04 #@! TD*
G04 #@! TA.AperFunction,Conductor*
%ADD16C,0.100000*%
G04 #@! TD*
G04 #@! TA.AperFunction,SMDPad,CuDef*
%ADD17C,0.480000*%
G04 #@! TD*
G04 #@! TA.AperFunction,SMDPad,CuDef*
%ADD18R,1.010000X0.490000*%
G04 #@! TD*
G04 #@! TA.AperFunction,SMDPad,CuDef*
%ADD19C,0.339410*%
G04 #@! TD*
G04 #@! TA.AperFunction,SMDPad,CuDef*
%ADD20R,1.500000X1.500000*%
G04 #@! TD*
G04 #@! TA.AperFunction,SMDPad,CuDef*
%ADD21R,1.500000X1.010000*%
G04 #@! TD*
G04 #@! TA.AperFunction,SMDPad,CuDef*
%ADD22R,1.000000X0.254000*%
G04 #@! TD*
G04 #@! TA.AperFunction,SMDPad,CuDef*
%ADD23R,0.254000X1.000000*%
G04 #@! TD*
G04 #@! TA.AperFunction,SMDPad,CuDef*
%ADD24R,1.000000X1.600000*%
G04 #@! TD*
G04 #@! TA.AperFunction,SMDPad,CuDef*
%ADD25R,0.750000X0.800000*%
G04 #@! TD*
G04 #@! TA.AperFunction,SMDPad,CuDef*
%ADD26R,0.650000X0.800000*%
G04 #@! TD*
G04 #@! TA.AperFunction,SMDPad,CuDef*
%ADD27R,0.650000X1.060000*%
G04 #@! TD*
G04 #@! TA.AperFunction,ComponentPad*
%ADD28O,1.400000X1.400000*%
G04 #@! TD*
G04 #@! TA.AperFunction,SMDPad,CuDef*
%ADD29R,1.900000X1.900000*%
G04 #@! TD*
G04 #@! TA.AperFunction,SMDPad,CuDef*
%ADD30R,1.600000X1.400000*%
G04 #@! TD*
G04 #@! TA.AperFunction,SMDPad,CuDef*
%ADD31R,0.400000X1.350000*%
G04 #@! TD*
G04 #@! TA.AperFunction,SMDPad,CuDef*
%ADD32R,1.000000X0.800000*%
G04 #@! TD*
G04 #@! TA.AperFunction,SMDPad,CuDef*
%ADD33R,0.600000X1.550000*%
G04 #@! TD*
G04 #@! TA.AperFunction,SMDPad,CuDef*
%ADD34R,1.200000X1.800000*%
G04 #@! TD*
G04 #@! TA.AperFunction,SMDPad,CuDef*
%ADD35R,0.740000X1.700000*%
G04 #@! TD*
G04 #@! TA.AperFunction,ViaPad*
%ADD36C,0.600000*%
G04 #@! TD*
G04 #@! TA.AperFunction,Conductor*
%ADD37C,0.203200*%
G04 #@! TD*
G04 #@! TA.AperFunction,Conductor*
%ADD38C,0.381000*%
G04 #@! TD*
G04 #@! TA.AperFunction,Conductor*
%ADD39C,0.250000*%
G04 #@! TD*
G04 #@! TA.AperFunction,Conductor*
%ADD40C,0.200000*%
G04 #@! TD*
G04 #@! TA.AperFunction,Conductor*
%ADD41C,0.254000*%
G04 #@! TD*
G04 APERTURE END LIST*
D10*
G04 #@! TO.P,U7,1*
G04 #@! TO.N,+1V8*
X141955880Y-101268860D03*
G04 #@! TO.P,U7,2*
G04 #@! TO.N,/1V8_SDA*
X141955880Y-101618860D03*
G04 #@! TO.P,U7,3*
G04 #@! TO.N,/1V8_SCL*
X141955880Y-101968860D03*
G04 #@! TO.P,U7,4*
G04 #@! TO.N,GND*
X141955880Y-102318860D03*
G04 #@! TO.P,U7,5*
G04 #@! TO.N,+1V8*
X142625880Y-102318860D03*
G04 #@! TO.P,U7,6*
G04 #@! TO.N,/3V3_SCL*
X142625880Y-101968860D03*
G04 #@! TO.P,U7,7*
G04 #@! TO.N,/3V3_SDA*
X142625880Y-101618860D03*
G04 #@! TO.P,U7,8*
G04 #@! TO.N,VDD*
X142625880Y-101268860D03*
G04 #@! TD*
D11*
G04 #@! TO.P,C6,2*
G04 #@! TO.N,GND*
X137840880Y-97743860D03*
G04 #@! TO.P,C6,1*
G04 #@! TO.N,+1V8*
X137840880Y-98843860D03*
G04 #@! TD*
D12*
G04 #@! TO.P,U4,13*
G04 #@! TO.N,/3V3_SCL*
X148678380Y-102693860D03*
D13*
G04 #@! TO.P,U4,1*
G04 #@! TO.N,GND*
X148940880Y-103956360D03*
G04 #@! TO.P,U4,2*
G04 #@! TO.N,Net-(U4-Pad2)*
X149440880Y-103956360D03*
G04 #@! TO.P,U4,3*
G04 #@! TO.N,Net-(U4-Pad3)*
X149940880Y-103956360D03*
G04 #@! TO.P,U4,4*
G04 #@! TO.N,/BMI_INT1*
X150440880Y-103956360D03*
G04 #@! TO.P,U4,8*
G04 #@! TO.N,VDD*
X150440880Y-101431360D03*
G04 #@! TO.P,U4,9*
G04 #@! TO.N,/BMI_INT2*
X149940880Y-101431360D03*
G04 #@! TO.P,U4,10*
G04 #@! TO.N,Net-(U4-Pad10)*
X149440880Y-101431360D03*
G04 #@! TO.P,U4,11*
G04 #@! TO.N,Net-(U4-Pad11)*
X148940880Y-101431360D03*
D12*
G04 #@! TO.P,U4,14*
G04 #@! TO.N,/3V3_SDA*
X148678380Y-103193860D03*
G04 #@! TO.P,U4,12*
G04 #@! TO.N,VDD*
X148678380Y-102193860D03*
G04 #@! TO.P,U4,7*
G04 #@! TO.N,GND*
X150703380Y-102193860D03*
G04 #@! TO.P,U4,6*
X150703380Y-102693860D03*
G04 #@! TO.P,U4,5*
G04 #@! TO.N,VDD*
X150703380Y-103193860D03*
G04 #@! TD*
D14*
G04 #@! TO.P,C12,2*
G04 #@! TO.N,VPP*
X130215880Y-101493860D03*
G04 #@! TO.P,C12,1*
G04 #@! TO.N,GND*
X131315880Y-101493860D03*
G04 #@! TD*
D15*
G04 #@! TO.P,U6,1*
G04 #@! TO.N,VDD*
X131415880Y-103006360D03*
D16*
G04 #@! TD*
G04 #@! TO.N,VDD*
G04 #@! TO.C,U6*
G36*
X131195880Y-102881360D02*
X131420880Y-102881360D01*
X131420880Y-103131360D01*
X131015880Y-103131360D01*
X131015880Y-103096360D01*
X131195880Y-102881360D01*
X131195880Y-102881360D01*
G37*
D15*
G04 #@! TO.P,U6,3*
G04 #@! TO.N,VPP*
X130115880Y-102381360D03*
D16*
G04 #@! TD*
G04 #@! TO.N,VPP*
G04 #@! TO.C,U6*
G36*
X130335880Y-102506360D02*
X130110880Y-102506360D01*
X130110880Y-102256360D01*
X130515880Y-102256360D01*
X130515880Y-102291360D01*
X130335880Y-102506360D01*
X130335880Y-102506360D01*
G37*
D15*
G04 #@! TO.P,U6,2*
G04 #@! TO.N,GND*
X131415880Y-102381360D03*
D16*
G04 #@! TD*
G04 #@! TO.N,GND*
G04 #@! TO.C,U6*
G36*
X131420880Y-102256360D02*
X131420880Y-102506360D01*
X131195880Y-102506360D01*
X131015880Y-102291360D01*
X131015880Y-102256360D01*
X131420880Y-102256360D01*
X131420880Y-102256360D01*
G37*
D15*
G04 #@! TO.P,U6,4*
G04 #@! TO.N,VPP*
X130115880Y-103006360D03*
D16*
G04 #@! TD*
G04 #@! TO.N,VPP*
G04 #@! TO.C,U6*
G36*
X130110880Y-103131360D02*
X130110880Y-102881360D01*
X130335880Y-102881360D01*
X130515880Y-103096360D01*
X130515880Y-103131360D01*
X130110880Y-103131360D01*
X130110880Y-103131360D01*
G37*
D17*
G04 #@! TO.P,U6,5*
G04 #@! TO.N,GND*
X130765880Y-102693860D03*
D16*
G04 #@! TD*
G04 #@! TO.N,GND*
G04 #@! TO.C,U6*
G36*
X131105291Y-102693860D02*
X130765880Y-103033271D01*
X130426469Y-102693860D01*
X130765880Y-102354449D01*
X131105291Y-102693860D01*
X131105291Y-102693860D01*
G37*
D11*
G04 #@! TO.P,C7,1*
G04 #@! TO.N,GND*
X138740880Y-97743860D03*
G04 #@! TO.P,C7,2*
G04 #@! TO.N,+1V8*
X138740880Y-98843860D03*
G04 #@! TD*
D14*
G04 #@! TO.P,C8,2*
G04 #@! TO.N,VDD*
X139640880Y-102668860D03*
G04 #@! TO.P,C8,1*
G04 #@! TO.N,GND*
X138540880Y-102668860D03*
G04 #@! TD*
D18*
G04 #@! TO.P,U1,42*
G04 #@! TO.N,GND*
X143180880Y-91113860D03*
D19*
X142660880Y-91103860D03*
D16*
G04 #@! TD*
G04 #@! TO.N,GND*
G04 #@! TO.C,U1*
G36*
X142185880Y-91338860D02*
X142655880Y-90868860D01*
X142665880Y-90868860D01*
X143135880Y-91338860D01*
X142185880Y-91338860D01*
X142185880Y-91338860D01*
G37*
D20*
G04 #@! TO.P,U1,45*
G04 #@! TO.N,GND*
X144940880Y-91613860D03*
G04 #@! TO.P,U1,44*
X144940880Y-93733860D03*
G04 #@! TO.P,U1,43*
X142940880Y-93733860D03*
D21*
G04 #@! TO.P,U1,42*
X142940880Y-91828860D03*
D22*
G04 #@! TO.P,U1,41*
G04 #@! TO.N,/MAX_INT*
X147245880Y-90123860D03*
G04 #@! TO.P,U1,40*
G04 #@! TO.N,/BMI_INT1*
X147245880Y-90623860D03*
G04 #@! TO.P,U1,39*
G04 #@! TO.N,/BMI_INT2*
X147245880Y-91123860D03*
G04 #@! TO.P,U1,38*
G04 #@! TO.N,/PIN_25*
X147245880Y-91623860D03*
G04 #@! TO.P,U1,37*
G04 #@! TO.N,Net-(U1-Pad37)*
X147245880Y-92123860D03*
G04 #@! TO.P,U1,36*
G04 #@! TO.N,/PIN_21*
X147245880Y-92623860D03*
G04 #@! TO.P,U1,35*
G04 #@! TO.N,/PIN_24*
X147245880Y-93123860D03*
G04 #@! TO.P,U1,34*
G04 #@! TO.N,Net-(U1-Pad34)*
X147245880Y-93623860D03*
G04 #@! TO.P,U1,33*
G04 #@! TO.N,/R_LED*
X147245880Y-94123860D03*
G04 #@! TO.P,U1,32*
G04 #@! TO.N,/G_LED*
X147245880Y-94623860D03*
G04 #@! TO.P,U1,31*
G04 #@! TO.N,/B_LED*
X147245880Y-95123860D03*
G04 #@! TO.P,U1,30*
G04 #@! TO.N,GND*
X147245880Y-95623860D03*
D23*
G04 #@! TO.P,U1,29*
G04 #@! TO.N,Net-(U1-Pad29)*
X146190880Y-95913860D03*
G04 #@! TO.P,U1,28*
G04 #@! TO.N,/3V3_SCL*
X145690880Y-95913860D03*
G04 #@! TO.P,U1,27*
G04 #@! TO.N,/3V3_SDA*
X145190880Y-95913860D03*
G04 #@! TO.P,U1,26*
G04 #@! TO.N,Net-(U1-Pad26)*
X144690880Y-95913860D03*
G04 #@! TO.P,U1,25*
G04 #@! TO.N,/SIM_RX*
X144190880Y-95913860D03*
G04 #@! TO.P,U1,24*
G04 #@! TO.N,/PIN_2*
X143690880Y-95913860D03*
G04 #@! TO.P,U1,23*
G04 #@! TO.N,/SIM_TX*
X143190880Y-95913860D03*
G04 #@! TO.P,U1,22*
G04 #@! TO.N,/PIN_3*
X142690880Y-95913860D03*
G04 #@! TO.P,U1,21*
G04 #@! TO.N,/V_SENSE*
X142190880Y-95913860D03*
G04 #@! TO.P,U1,20*
G04 #@! TO.N,Net-(U1-Pad20)*
X141690880Y-95913860D03*
D22*
G04 #@! TO.P,U1,19*
G04 #@! TO.N,GND*
X140635880Y-95623860D03*
G04 #@! TO.P,U1,18*
G04 #@! TO.N,Net-(U1-Pad18)*
X140635880Y-95123860D03*
G04 #@! TO.P,U1,17*
G04 #@! TO.N,Net-(U1-Pad17)*
X140635880Y-94623860D03*
G04 #@! TO.P,U1,16*
G04 #@! TO.N,Net-(U1-Pad16)*
X140635880Y-94123860D03*
G04 #@! TO.P,U1,15*
G04 #@! TO.N,Net-(U1-Pad15)*
X140635880Y-93623860D03*
G04 #@! TO.P,U1,14*
G04 #@! TO.N,Net-(U1-Pad14)*
X140635880Y-93123860D03*
G04 #@! TO.P,U1,13*
G04 #@! TO.N,Net-(U1-Pad13)*
X140635880Y-92623860D03*
G04 #@! TO.P,U1,12*
G04 #@! TO.N,Net-(U1-Pad12)*
X140635880Y-92123860D03*
G04 #@! TO.P,U1,11*
G04 #@! TO.N,Net-(U1-Pad11)*
X140635880Y-91623860D03*
G04 #@! TO.P,U1,10*
G04 #@! TO.N,Net-(U1-Pad10)*
X140635880Y-91123860D03*
G04 #@! TO.P,U1,9*
G04 #@! TO.N,Net-(U1-Pad9)*
X140635880Y-90623860D03*
G04 #@! TO.P,U1,8*
G04 #@! TO.N,/SIM_RST*
X140635880Y-90123860D03*
G04 #@! TO.P,U1,7*
G04 #@! TO.N,VDD*
X140635880Y-89623860D03*
G04 #@! TO.P,U1,6*
G04 #@! TO.N,GND*
X140635880Y-89123860D03*
G04 #@! TO.P,U1,5*
G04 #@! TO.N,Net-(U1-Pad5)*
X140635880Y-88623860D03*
G04 #@! TO.P,U1,4*
G04 #@! TO.N,GND*
X140635880Y-88123860D03*
G04 #@! TO.P,U1,3*
G04 #@! TO.N,Net-(U1-Pad3)*
X140635880Y-87623860D03*
G04 #@! TO.P,U1,2*
G04 #@! TO.N,GND*
X140635880Y-87123860D03*
G04 #@! TO.P,U1,1*
X140635880Y-86623860D03*
G04 #@! TD*
D24*
G04 #@! TO.P,S3,1*
G04 #@! TO.N,GND*
X154892880Y-88287860D03*
G04 #@! TO.P,S3,2*
X157892880Y-88287860D03*
G04 #@! TD*
G04 #@! TO.P,S3,1*
G04 #@! TO.N,GND*
X155019880Y-108099860D03*
G04 #@! TO.P,S3,2*
X158019880Y-108099860D03*
G04 #@! TD*
G04 #@! TO.P,S3,1*
G04 #@! TO.N,GND*
X122761880Y-108099860D03*
G04 #@! TO.P,S3,2*
X125761880Y-108099860D03*
G04 #@! TD*
D25*
G04 #@! TO.P,D2,1*
G04 #@! TO.N,VPP*
X130990880Y-100218860D03*
G04 #@! TO.P,D2,2*
G04 #@! TO.N,/V_BATT*
X130990880Y-98718860D03*
G04 #@! TD*
D26*
G04 #@! TO.P,D3,4*
G04 #@! TO.N,Net-(D3-Pad4)*
X130165880Y-96218860D03*
G04 #@! TO.P,D3,3*
G04 #@! TO.N,Net-(D3-Pad3)*
X130165880Y-94718860D03*
G04 #@! TO.P,D3,1*
G04 #@! TO.N,Net-(D3-Pad1)*
X131015880Y-94718860D03*
G04 #@! TO.P,D3,2*
G04 #@! TO.N,GND*
X131015880Y-96218860D03*
G04 #@! TD*
D27*
G04 #@! TO.P,U5,1*
G04 #@! TO.N,Net-(R13-Pad1)*
X132565880Y-94793860D03*
G04 #@! TO.P,U5,2*
G04 #@! TO.N,GND*
X133515880Y-94793860D03*
G04 #@! TO.P,U5,3*
G04 #@! TO.N,/V_BATT*
X134465880Y-94793860D03*
G04 #@! TO.P,U5,4*
G04 #@! TO.N,Net-(D3-Pad3)*
X134465880Y-92593860D03*
G04 #@! TO.P,U5,5*
G04 #@! TO.N,Net-(R14-Pad1)*
X132565880Y-92593860D03*
G04 #@! TD*
D28*
G04 #@! TO.P,P2,10*
G04 #@! TO.N,GND*
X135984220Y-87945647D03*
D29*
G04 #@! TO.P,P2,9*
X131484220Y-87945647D03*
D30*
G04 #@! TO.P,P2,7*
X129484220Y-90395647D03*
D31*
G04 #@! TO.P,P2,1*
G04 #@! TO.N,Net-(D3-Pad3)*
X133984220Y-90620647D03*
G04 #@! TO.P,P2,2*
G04 #@! TO.N,Net-(P2-Pad2)*
X133334220Y-90620647D03*
G04 #@! TO.P,P2,5*
G04 #@! TO.N,GND*
X131384220Y-90620647D03*
G04 #@! TO.P,P2,4*
G04 #@! TO.N,Net-(P2-Pad4)*
X132034220Y-90620647D03*
G04 #@! TO.P,P2,3*
G04 #@! TO.N,Net-(P2-Pad3)*
X132684220Y-90620647D03*
D30*
G04 #@! TO.P,P2,6*
G04 #@! TO.N,GND*
X135884220Y-90395647D03*
D29*
G04 #@! TO.P,P2,8*
X133884220Y-87945647D03*
D28*
G04 #@! TO.P,P2,11*
X129384220Y-87945647D03*
G04 #@! TD*
D32*
G04 #@! TO.P,D1,1*
G04 #@! TO.N,VDD*
X150750000Y-98750000D03*
G04 #@! TO.P,D1,2*
G04 #@! TO.N,Net-(D1-Pad2)*
X149250000Y-98750000D03*
G04 #@! TO.P,D1,3*
G04 #@! TO.N,Net-(D1-Pad3)*
X149250000Y-97650000D03*
G04 #@! TO.P,D1,4*
G04 #@! TO.N,Net-(D1-Pad4)*
X150750000Y-97650000D03*
G04 #@! TD*
D24*
G04 #@! TO.P,S2,1*
G04 #@! TO.N,GND*
X122761880Y-88287860D03*
G04 #@! TO.P,S2,2*
X125761880Y-88287860D03*
G04 #@! TD*
D33*
G04 #@! TO.P,BT1,1*
G04 #@! TO.N,/V_BATT*
X134415880Y-98306360D03*
G04 #@! TO.P,BT1,2*
G04 #@! TO.N,GND*
X135415880Y-98306360D03*
D34*
G04 #@! TO.P,BT1,*
X133115880Y-102181360D03*
X136715880Y-102181360D03*
G04 #@! TD*
D14*
G04 #@! TO.P,C1,2*
G04 #@! TO.N,VDD*
X138890880Y-87993860D03*
G04 #@! TO.P,C1,1*
G04 #@! TO.N,GND*
X137790880Y-87993860D03*
G04 #@! TD*
G04 #@! TO.P,C2,1*
G04 #@! TO.N,GND*
X137790880Y-88893860D03*
G04 #@! TO.P,C2,2*
G04 #@! TO.N,VDD*
X138890880Y-88893860D03*
G04 #@! TD*
D11*
G04 #@! TO.P,C3,2*
G04 #@! TO.N,VDD*
X147240880Y-99243860D03*
G04 #@! TO.P,C3,1*
G04 #@! TO.N,GND*
X147240880Y-98143860D03*
G04 #@! TD*
G04 #@! TO.P,C4,2*
G04 #@! TO.N,GND*
X137840880Y-96643860D03*
G04 #@! TO.P,C4,1*
G04 #@! TO.N,VPP*
X137840880Y-95543860D03*
G04 #@! TD*
G04 #@! TO.P,C5,1*
G04 #@! TO.N,VPP*
X136940880Y-95543860D03*
G04 #@! TO.P,C5,2*
G04 #@! TO.N,GND*
X136940880Y-96643860D03*
G04 #@! TD*
D14*
G04 #@! TO.P,C9,1*
G04 #@! TO.N,GND*
X139640880Y-100168860D03*
G04 #@! TO.P,C9,2*
G04 #@! TO.N,+1V8*
X138540880Y-100168860D03*
G04 #@! TD*
G04 #@! TO.P,C10,2*
G04 #@! TO.N,/SIM_RST*
X138890880Y-90693860D03*
G04 #@! TO.P,C10,1*
G04 #@! TO.N,Net-(C10-Pad1)*
X137790880Y-90693860D03*
G04 #@! TD*
G04 #@! TO.P,C11,1*
G04 #@! TO.N,GND*
X133515880Y-96093860D03*
G04 #@! TO.P,C11,2*
G04 #@! TO.N,/V_BATT*
X134615880Y-96093860D03*
G04 #@! TD*
G04 #@! TO.P,C13,1*
G04 #@! TO.N,GND*
X130065880Y-104068860D03*
G04 #@! TO.P,C13,2*
G04 #@! TO.N,VDD*
X131165880Y-104068860D03*
G04 #@! TD*
G04 #@! TO.P,C14,1*
G04 #@! TO.N,GND*
X137860880Y-92593860D03*
G04 #@! TO.P,C14,2*
G04 #@! TO.N,/V_SENSE*
X138960880Y-92593860D03*
G04 #@! TD*
G04 #@! TO.P,C15,1*
G04 #@! TO.N,GND*
X141690880Y-103243860D03*
G04 #@! TO.P,C15,2*
G04 #@! TO.N,+1V8*
X142790880Y-103243860D03*
G04 #@! TD*
G04 #@! TO.P,C16,2*
G04 #@! TO.N,VDD*
X142190880Y-99693860D03*
G04 #@! TO.P,C16,1*
G04 #@! TO.N,GND*
X141090880Y-99693860D03*
G04 #@! TD*
G04 #@! TO.P,R1,2*
G04 #@! TO.N,/SIM_RST*
X137790880Y-89793860D03*
G04 #@! TO.P,R1,1*
G04 #@! TO.N,VDD*
X138890880Y-89793860D03*
G04 #@! TD*
D11*
G04 #@! TO.P,R2,1*
G04 #@! TO.N,VDD*
X140990880Y-98743860D03*
G04 #@! TO.P,R2,2*
G04 #@! TO.N,/MAX_INT*
X140990880Y-97643860D03*
G04 #@! TD*
G04 #@! TO.P,R5,1*
G04 #@! TO.N,Net-(D1-Pad4)*
X150840880Y-96343860D03*
G04 #@! TO.P,R5,2*
G04 #@! TO.N,/R_LED*
X150840880Y-95243860D03*
G04 #@! TD*
D14*
G04 #@! TO.P,R7,2*
G04 #@! TO.N,/V_BATT*
X137850880Y-94393860D03*
G04 #@! TO.P,R7,1*
G04 #@! TO.N,/V_SENSE*
X138950880Y-94393860D03*
G04 #@! TD*
G04 #@! TO.P,R8,1*
G04 #@! TO.N,GND*
X137840880Y-93493860D03*
G04 #@! TO.P,R8,2*
G04 #@! TO.N,/V_SENSE*
X138940880Y-93493860D03*
G04 #@! TD*
D11*
G04 #@! TO.P,R12,2*
G04 #@! TO.N,/G_LED*
X149890880Y-95243860D03*
G04 #@! TO.P,R12,1*
G04 #@! TO.N,Net-(D1-Pad3)*
X149890880Y-96343860D03*
G04 #@! TD*
D14*
G04 #@! TO.P,R13,2*
G04 #@! TO.N,Net-(D3-Pad1)*
X130215880Y-93393860D03*
G04 #@! TO.P,R13,1*
G04 #@! TO.N,Net-(R13-Pad1)*
X131315880Y-93393860D03*
G04 #@! TD*
G04 #@! TO.P,R14,2*
G04 #@! TO.N,GND*
X130215880Y-92493860D03*
G04 #@! TO.P,R14,1*
G04 #@! TO.N,Net-(R14-Pad1)*
X131315880Y-92493860D03*
G04 #@! TD*
G04 #@! TO.P,R15,1*
G04 #@! TO.N,Net-(R13-Pad1)*
X131315880Y-97393860D03*
G04 #@! TO.P,R15,2*
G04 #@! TO.N,Net-(D3-Pad4)*
X130215880Y-97393860D03*
G04 #@! TD*
D11*
G04 #@! TO.P,R17,1*
G04 #@! TO.N,Net-(D1-Pad2)*
X148940880Y-96343860D03*
G04 #@! TO.P,R17,2*
G04 #@! TO.N,/B_LED*
X148940880Y-95243860D03*
G04 #@! TD*
D17*
G04 #@! TO.P,U3,5*
G04 #@! TO.N,GND*
X139090880Y-101418861D03*
D16*
G04 #@! TD*
G04 #@! TO.N,GND*
G04 #@! TO.C,U3*
G36*
X138751469Y-101418861D02*
X139090880Y-101079450D01*
X139430291Y-101418861D01*
X139090880Y-101758272D01*
X138751469Y-101418861D01*
X138751469Y-101418861D01*
G37*
D15*
G04 #@! TO.P,U3,4*
G04 #@! TO.N,VDD*
X139740880Y-101106361D03*
D16*
G04 #@! TD*
G04 #@! TO.N,VDD*
G04 #@! TO.C,U3*
G36*
X139745880Y-100981361D02*
X139745880Y-101231361D01*
X139520880Y-101231361D01*
X139340880Y-101016361D01*
X139340880Y-100981361D01*
X139745880Y-100981361D01*
X139745880Y-100981361D01*
G37*
D15*
G04 #@! TO.P,U3,2*
G04 #@! TO.N,GND*
X138440880Y-101731361D03*
D16*
G04 #@! TD*
G04 #@! TO.N,GND*
G04 #@! TO.C,U3*
G36*
X138435880Y-101856361D02*
X138435880Y-101606361D01*
X138660880Y-101606361D01*
X138840880Y-101821361D01*
X138840880Y-101856361D01*
X138435880Y-101856361D01*
X138435880Y-101856361D01*
G37*
D15*
G04 #@! TO.P,U3,3*
G04 #@! TO.N,VDD*
X139740880Y-101731361D03*
D16*
G04 #@! TD*
G04 #@! TO.N,VDD*
G04 #@! TO.C,U3*
G36*
X139520880Y-101606361D02*
X139745880Y-101606361D01*
X139745880Y-101856361D01*
X139340880Y-101856361D01*
X139340880Y-101821361D01*
X139520880Y-101606361D01*
X139520880Y-101606361D01*
G37*
D15*
G04 #@! TO.P,U3,1*
G04 #@! TO.N,+1V8*
X138440880Y-101106361D03*
D16*
G04 #@! TD*
G04 #@! TO.N,+1V8*
G04 #@! TO.C,U3*
G36*
X138660880Y-101231361D02*
X138435880Y-101231361D01*
X138435880Y-100981361D01*
X138840880Y-100981361D01*
X138840880Y-101016361D01*
X138660880Y-101231361D01*
X138660880Y-101231361D01*
G37*
D35*
G04 #@! TO.P,P1,1*
G04 #@! TO.N,GND*
X139525880Y-106743860D03*
G04 #@! TO.P,P1,2*
G04 #@! TO.N,VDD*
X140795880Y-109443860D03*
G04 #@! TO.P,P1,3*
G04 #@! TO.N,Net-(C10-Pad1)*
X142065880Y-106743860D03*
G04 #@! TO.P,P1,4*
G04 #@! TO.N,/PIN_3*
X143335880Y-109443860D03*
G04 #@! TO.P,P1,5*
G04 #@! TO.N,/SIM_TX*
X144605880Y-106743860D03*
G04 #@! TO.P,P1,6*
G04 #@! TO.N,/PIN_2*
X145875880Y-109443860D03*
G04 #@! TO.P,P1,7*
G04 #@! TO.N,/SIM_RX*
X147145880Y-106743860D03*
G04 #@! TO.P,P1,8*
G04 #@! TO.N,/PIN_25*
X148415880Y-109443860D03*
G04 #@! TO.P,P1,9*
G04 #@! TO.N,/PIN_24*
X149685880Y-106743860D03*
G04 #@! TO.P,P1,10*
G04 #@! TO.N,/PIN_21*
X150955880Y-109443860D03*
G04 #@! TD*
D36*
G04 #@! TO.N,GND*
X125740880Y-88293860D03*
X122740880Y-88293860D03*
X122740880Y-108093860D03*
X125740880Y-108093860D03*
X155040880Y-108093860D03*
X158040880Y-108093860D03*
X157940880Y-88293860D03*
X154940880Y-88293860D03*
X143962120Y-92710000D03*
X147245879Y-96616061D03*
X139324100Y-95603060D03*
X135415880Y-99543860D03*
X136965880Y-100518860D03*
X151593860Y-102193860D03*
G04 #@! TO.N,VDD*
X139639205Y-89692124D03*
X143640872Y-100768860D03*
X139065880Y-103593860D03*
X147740880Y-100393860D03*
X151640880Y-103393860D03*
X139140880Y-109393860D03*
X150740880Y-99893852D03*
X133340880Y-104293860D03*
G04 #@! TO.N,VPP*
X136040880Y-95593860D03*
X132040880Y-100193860D03*
G04 #@! TO.N,/MAX_INT*
X146143980Y-90228420D03*
X141990880Y-98093860D03*
G04 #@! TO.N,/BMI_INT2*
X149990880Y-91493860D03*
X149963070Y-100294368D03*
G04 #@! TO.N,/BMI_INT1*
X152000000Y-91200000D03*
X151040880Y-104793860D03*
G04 #@! TO.N,Net-(D3-Pad3)*
X135515880Y-92593860D03*
X129315880Y-94743860D03*
G04 #@! TO.N,Net-(R13-Pad1)*
X132540880Y-93693860D03*
X132540880Y-97368860D03*
G04 #@! TO.N,+1V8*
X143390880Y-102543860D03*
X142665880Y-100568860D03*
X136940880Y-99493860D03*
G04 #@! TO.N,/1V8_SCL*
X141015880Y-102543870D03*
G04 #@! TO.N,/3V3_SCL*
X144219234Y-102334559D03*
X146090880Y-97043858D03*
X146940880Y-102343860D03*
G04 #@! TO.N,/1V8_SDA*
X141015874Y-101618860D03*
G04 #@! TO.N,/3V3_SDA*
X144340880Y-101543860D03*
X145190876Y-97543860D03*
X147740880Y-103193860D03*
G04 #@! TO.N,/PIN_25*
X148340880Y-107693862D03*
X148340884Y-91793860D03*
G04 #@! TO.N,Net-(C10-Pad1)*
X138190880Y-91593860D03*
X141340880Y-105443860D03*
G04 #@! TO.N,/PIN_24*
X149140880Y-93393860D03*
X149640880Y-105093860D03*
G04 #@! TO.N,/PIN_21*
X151340880Y-92593860D03*
X150940880Y-107693860D03*
G04 #@! TD*
D37*
G04 #@! TO.N,GND*
X142940880Y-91693860D02*
X142940880Y-91828860D01*
X142940880Y-91828860D02*
X142940880Y-91353860D01*
X142940880Y-91353860D02*
X143180880Y-91113860D01*
D38*
X144940880Y-91613860D02*
X144940880Y-91731240D01*
X144940880Y-91731240D02*
X143962120Y-92710000D01*
X142940880Y-91828860D02*
X144725880Y-91828860D01*
X144725880Y-91828860D02*
X144940880Y-91613860D01*
X142940880Y-91828860D02*
X142940880Y-93733860D01*
X142940880Y-93733860D02*
X144940880Y-93733860D01*
X144940880Y-93733860D02*
X144940880Y-91613860D01*
D39*
X140635880Y-87123860D02*
X140635880Y-86623860D01*
X139870880Y-88123860D02*
X140635880Y-88123860D01*
X139740880Y-87993860D02*
X139870880Y-88123860D01*
X139810879Y-88063859D02*
X139740880Y-87993860D01*
X139810879Y-88963859D02*
X139810879Y-88063859D01*
X139970880Y-89123860D02*
X139810879Y-88963859D01*
X140635880Y-89123860D02*
X139970880Y-89123860D01*
X139740880Y-87268860D02*
X139740880Y-87993860D01*
X139885880Y-87123860D02*
X139740880Y-87268860D01*
X140635880Y-87123860D02*
X139885880Y-87123860D01*
X137790880Y-88893860D02*
X137790880Y-87993860D01*
D38*
X138778380Y-101731361D02*
X138440880Y-101731361D01*
X139090880Y-101418861D02*
X138778380Y-101731361D01*
X138540880Y-101831361D02*
X138440880Y-101731361D01*
X138540880Y-102668860D02*
X138540880Y-101831361D01*
D40*
X139590880Y-100168860D02*
X139640880Y-100168860D01*
X139140880Y-101175641D02*
X139140880Y-100618860D01*
X139140880Y-100618860D02*
X139590880Y-100168860D01*
X139090880Y-101225641D02*
X139140880Y-101175641D01*
X139090880Y-101418861D02*
X139090880Y-101225641D01*
D37*
X147245879Y-96191797D02*
X147245879Y-96616061D01*
X147245880Y-95623860D02*
X147245879Y-96191797D01*
D40*
X142660880Y-91548860D02*
X142940880Y-91828860D01*
X142660880Y-91103860D02*
X142660880Y-91548860D01*
D37*
X141955880Y-102978860D02*
X141690880Y-103243860D01*
X141955880Y-102318860D02*
X141955880Y-102978860D01*
D39*
X139324080Y-95603060D02*
X139324100Y-95603060D01*
X139344880Y-95623860D02*
X139324080Y-95603060D01*
D37*
X139344900Y-95623860D02*
X139324100Y-95603060D01*
X140635880Y-95623860D02*
X139344900Y-95623860D01*
D38*
X130765880Y-102693860D02*
X131078380Y-102381360D01*
D39*
X131078380Y-102381360D02*
X131415880Y-102381360D01*
X131315880Y-102281360D02*
X131415880Y-102381360D01*
D40*
X130765880Y-102693860D02*
X130765880Y-102887080D01*
X130765880Y-102887080D02*
X130815890Y-102937090D01*
D37*
X131315880Y-101493860D02*
X131315880Y-102281360D01*
D38*
X132428380Y-101493860D02*
X133115880Y-102181360D01*
X131315880Y-101493860D02*
X132428380Y-101493860D01*
D40*
X130815890Y-102743870D02*
X130765880Y-102693860D01*
X130815890Y-103343850D02*
X130815890Y-102743870D01*
X130090880Y-104068860D02*
X130815890Y-103343850D01*
X130065880Y-104068860D02*
X130090880Y-104068860D01*
D38*
X133515880Y-94793860D02*
X133515880Y-96093860D01*
X133390880Y-96218860D02*
X133515880Y-96093860D01*
X131015880Y-96218860D02*
X133390880Y-96218860D01*
D37*
X138440880Y-101731361D02*
X138303381Y-101731361D01*
X138303381Y-101731361D02*
X138265880Y-101768862D01*
X138265880Y-101768862D02*
X138265880Y-101943860D01*
X138265880Y-101943860D02*
X138240880Y-101918860D01*
X138240880Y-101918860D02*
X138240880Y-101568860D01*
D38*
X135415880Y-99543860D02*
X135415880Y-98306360D01*
D40*
X150703380Y-102693860D02*
X150703380Y-102193860D01*
X150703380Y-102193860D02*
X151593860Y-102193860D01*
D39*
G04 #@! TO.N,VDD*
X138890880Y-87993860D02*
X138890880Y-88893860D01*
X138890880Y-89793860D02*
X138890880Y-88893860D01*
X140635880Y-89623860D02*
X139707469Y-89623860D01*
X139707469Y-89623860D02*
X139639205Y-89692124D01*
X138890880Y-89793860D02*
X139537469Y-89793860D01*
X139537469Y-89793860D02*
X139639205Y-89692124D01*
D38*
X139640880Y-101831361D02*
X139740880Y-101731361D01*
X139640880Y-102668860D02*
X139640880Y-101831361D01*
X139740880Y-101106361D02*
X139740880Y-101731361D01*
D40*
X142625880Y-101268860D02*
X143140872Y-101268860D01*
X143140872Y-101268860D02*
X143640872Y-100768860D01*
D37*
X131165880Y-103168860D02*
X131165880Y-103618860D01*
D40*
X131253380Y-103168860D02*
X131165880Y-103168860D01*
X131415880Y-103006360D02*
X131253380Y-103168860D01*
D38*
X131165880Y-103543860D02*
X131165880Y-104068860D01*
X139346880Y-103593860D02*
X139065880Y-103593860D01*
X139640880Y-103299860D02*
X139346880Y-103593860D01*
X139640880Y-102668860D02*
X139640880Y-103299860D01*
X147240880Y-99893860D02*
X147740880Y-100393860D01*
X147240880Y-99243860D02*
X147240880Y-99893860D01*
D40*
X147740880Y-101468860D02*
X147740880Y-100393860D01*
X148465880Y-102193860D02*
X147740880Y-101468860D01*
X148678380Y-102193860D02*
X148465880Y-102193860D01*
D37*
X151440880Y-103193860D02*
X151640880Y-103393860D01*
X150703380Y-103193860D02*
X151440880Y-103193860D01*
D38*
X139190880Y-109443860D02*
X139140880Y-109393860D01*
X140795880Y-109443860D02*
X139190880Y-109443860D01*
D37*
X150740880Y-100993860D02*
X150740880Y-99893852D01*
X150440880Y-101293860D02*
X150740880Y-100993860D01*
X150440880Y-101331360D02*
X150440880Y-101293860D01*
D40*
X150750000Y-99884732D02*
X150740880Y-99893852D01*
X150750000Y-98750000D02*
X150750000Y-99884732D01*
D38*
X131265880Y-104118860D02*
X131440880Y-104293860D01*
X131440880Y-104293860D02*
X133340880Y-104293860D01*
X143640872Y-100693852D02*
X143640872Y-100768860D01*
X142640880Y-99693860D02*
X143640872Y-100693852D01*
X142190880Y-99693860D02*
X142640880Y-99693860D01*
D40*
X142190880Y-99343860D02*
X142190880Y-99693860D01*
X141590880Y-98743860D02*
X142190880Y-99343860D01*
X140990880Y-98743860D02*
X141590880Y-98743860D01*
G04 #@! TO.N,/SIM_RX*
X147125880Y-105728860D02*
X147125880Y-106743860D01*
X146240880Y-104843860D02*
X147125880Y-105728860D01*
X146240880Y-99993860D02*
X146240880Y-104843860D01*
X144190880Y-97943860D02*
X146240880Y-99993860D01*
X144190880Y-95913860D02*
X144190880Y-97943860D01*
G04 #@! TO.N,/SIM_TX*
X145440858Y-104838882D02*
X144585880Y-105693860D01*
X145440858Y-100693838D02*
X145440858Y-104838882D01*
X143190880Y-98443860D02*
X145440858Y-100693838D01*
X144585880Y-105693860D02*
X144585880Y-106743860D01*
X143190880Y-95913860D02*
X143190880Y-98443860D01*
G04 #@! TO.N,/SIM_RST*
X138790879Y-90693860D02*
X138890880Y-90693860D01*
X137890879Y-89793860D02*
X138790879Y-90693860D01*
X137790880Y-89793860D02*
X137890879Y-89793860D01*
X140055879Y-90123860D02*
X140635880Y-90123860D01*
X139485879Y-90693860D02*
X140055879Y-90123860D01*
X138890880Y-90693860D02*
X139485879Y-90693860D01*
D38*
G04 #@! TO.N,VPP*
X137850880Y-95533860D02*
X137840880Y-95543860D01*
X136940880Y-95543860D02*
X137840880Y-95543860D01*
X136890880Y-95593860D02*
X136940880Y-95543860D01*
X136040880Y-95593860D02*
X136890880Y-95593860D01*
D40*
X129740880Y-102893860D02*
X129740880Y-102493860D01*
X130115880Y-103006360D02*
X129853380Y-103006360D01*
X129853380Y-103006360D02*
X129740880Y-102893860D01*
X129853380Y-102381360D02*
X129740880Y-102493860D01*
X130115880Y-102381360D02*
X129853380Y-102381360D01*
D38*
X132040880Y-100193860D02*
X130990880Y-100218860D01*
D39*
G04 #@! TO.N,/MAX_INT*
X146143980Y-90228420D02*
X146248540Y-90123860D01*
D40*
X146248540Y-90123860D02*
X147245880Y-90123860D01*
X141990880Y-98093860D02*
X141990880Y-98193860D01*
X141540880Y-97643860D02*
X141990880Y-98093860D01*
X140990880Y-97643860D02*
X141540880Y-97643860D01*
D39*
G04 #@! TO.N,/BMI_INT2*
X147254680Y-91132660D02*
X147245880Y-91123860D01*
D40*
X149940880Y-100343860D02*
X149940880Y-101431360D01*
X149620880Y-91123860D02*
X147245880Y-91123860D01*
X149990880Y-91493860D02*
X149620880Y-91123860D01*
G04 #@! TO.N,/BMI_INT1*
X151993860Y-91193860D02*
X152090880Y-91193860D01*
X151423860Y-90623860D02*
X151993860Y-91193860D01*
X147245880Y-90623860D02*
X151423860Y-90623860D01*
X150440880Y-103956360D02*
X150440880Y-104168860D01*
X150440880Y-104168860D02*
X151040880Y-104768860D01*
X151040880Y-104768860D02*
X151040880Y-104793860D01*
G04 #@! TO.N,/B_LED*
X148820880Y-95123860D02*
X147245880Y-95123860D01*
X148940880Y-95243860D02*
X148820880Y-95123860D01*
G04 #@! TO.N,/G_LED*
X149890880Y-94743860D02*
X149890880Y-95243860D01*
X149770880Y-94623860D02*
X149890880Y-94743860D01*
X147245880Y-94623860D02*
X149770880Y-94623860D01*
G04 #@! TO.N,/R_LED*
X147245880Y-94123860D02*
X150370880Y-94123860D01*
X150840880Y-94593860D02*
X150840880Y-95243860D01*
X150370880Y-94123860D02*
X150840880Y-94593860D01*
G04 #@! TO.N,Net-(D1-Pad4)*
X150750000Y-96434740D02*
X150840880Y-96343860D01*
X150750000Y-97650000D02*
X150750000Y-96434740D01*
G04 #@! TO.N,Net-(D1-Pad2)*
X148997020Y-98750000D02*
X149250000Y-98750000D01*
X148340880Y-96993860D02*
X148340880Y-98093860D01*
X148340880Y-98093860D02*
X148997020Y-98750000D01*
X148940880Y-96393860D02*
X148340880Y-96993860D01*
X148940880Y-96343860D02*
X148940880Y-96393860D01*
D38*
G04 #@! TO.N,Net-(D3-Pad3)*
X133984220Y-92093860D02*
X134465880Y-92593860D01*
X133984220Y-90620647D02*
X133984220Y-92093860D01*
D40*
X134465880Y-92593860D02*
X135515880Y-92593860D01*
X129340880Y-94718860D02*
X129315880Y-94743860D01*
X130165880Y-94718860D02*
X129340880Y-94718860D01*
G04 #@! TO.N,Net-(D3-Pad1)*
X131015880Y-94193860D02*
X131015880Y-94718860D01*
X130215880Y-93393860D02*
X131015880Y-94193860D01*
G04 #@! TO.N,Net-(R13-Pad1)*
X132540880Y-94243860D02*
X132565880Y-94793860D01*
X132540880Y-93693860D02*
X132540880Y-94243860D01*
X131615880Y-93693860D02*
X132540880Y-93693860D01*
X131315880Y-93393860D02*
X131615880Y-93693860D01*
X132515880Y-97393860D02*
X132540880Y-97368860D01*
X131315880Y-97393860D02*
X132515880Y-97393860D01*
G04 #@! TO.N,Net-(R14-Pad1)*
X132465880Y-92493860D02*
X132565880Y-92593860D01*
X131315880Y-92493860D02*
X132465880Y-92493860D01*
D38*
G04 #@! TO.N,+1V8*
X138440880Y-100268860D02*
X138540880Y-100168860D01*
X138440880Y-101106361D02*
X138440880Y-100268860D01*
D40*
X142625880Y-102318860D02*
X143165880Y-102318860D01*
X143165880Y-102318860D02*
X143390880Y-102543860D01*
X142790880Y-103143860D02*
X143390880Y-102543860D01*
X142790880Y-103243860D02*
X142790880Y-103143860D01*
X141955880Y-100968860D02*
X142355880Y-100568860D01*
X141955880Y-101268860D02*
X141955880Y-100968860D01*
X142355880Y-100568860D02*
X142665880Y-100568860D01*
D38*
X138540880Y-100168860D02*
X138340880Y-99968860D01*
X137859880Y-100168860D02*
X137184880Y-99493860D01*
X138540880Y-100168860D02*
X137859880Y-100168860D01*
X137184880Y-99493860D02*
X136940880Y-99493860D01*
X138740880Y-98843860D02*
X137840880Y-98843860D01*
X137590880Y-98843860D02*
X136940880Y-99493860D01*
X137840880Y-98843860D02*
X137590880Y-98843860D01*
D40*
G04 #@! TO.N,Net-(D1-Pad3)*
X149890880Y-97009120D02*
X149250000Y-97650000D01*
X149890880Y-96343860D02*
X149890880Y-97009120D01*
G04 #@! TO.N,Net-(D3-Pad4)*
X130165880Y-97343860D02*
X130215880Y-97393860D01*
X130165880Y-96218860D02*
X130165880Y-97343860D01*
G04 #@! TO.N,/1V8_SCL*
X141490880Y-101968860D02*
X141955880Y-101968860D01*
X141015880Y-102543870D02*
X141015880Y-102443860D01*
X141015880Y-102443860D02*
X141490880Y-101968860D01*
G04 #@! TO.N,/3V3_SCL*
X143853535Y-101968860D02*
X142625880Y-101968860D01*
X144219234Y-102334559D02*
X143853535Y-101968860D01*
D37*
X145690880Y-95913860D02*
X145690880Y-96643858D01*
X145690880Y-96643858D02*
X146090880Y-97043858D01*
D40*
X148678380Y-102693860D02*
X148340880Y-102693860D01*
X147990880Y-102343860D02*
X146940880Y-102343860D01*
X148340880Y-102693860D02*
X147990880Y-102343860D01*
G04 #@! TO.N,/1V8_SDA*
X141955880Y-101618860D02*
X141015874Y-101618860D01*
G04 #@! TO.N,/3V3_SDA*
X144265880Y-101618860D02*
X142625880Y-101618860D01*
X144340880Y-101543860D02*
X144265880Y-101618860D01*
D37*
X145190880Y-95913860D02*
X145190880Y-97543856D01*
X145190880Y-97543856D02*
X145190876Y-97543860D01*
D40*
X148678380Y-103193860D02*
X147740880Y-103193860D01*
G04 #@! TO.N,/V_SENSE*
X138960880Y-93473860D02*
X138940880Y-93493860D01*
X138960880Y-92593860D02*
X138960880Y-93473860D01*
X138950880Y-93503860D02*
X138940880Y-93493860D01*
X138950880Y-94393860D02*
X138950880Y-93503860D01*
X142190880Y-96698660D02*
X142190880Y-95913860D01*
X138540880Y-96496260D02*
X138917680Y-96873060D01*
X142016480Y-96873060D02*
X142190880Y-96698660D01*
X138917680Y-96873060D02*
X142016480Y-96873060D01*
X138540880Y-94803860D02*
X138540880Y-96496260D01*
X138950880Y-94393860D02*
X138540880Y-94803860D01*
G04 #@! TO.N,/PIN_3*
X143315880Y-106218860D02*
X143315880Y-109443860D01*
X145040847Y-101093827D02*
X145040847Y-104493893D01*
X142690880Y-95913860D02*
X142690880Y-98743860D01*
X145040847Y-104493893D02*
X143315880Y-106218860D01*
X142690880Y-98743860D02*
X145040847Y-101093827D01*
G04 #@! TO.N,/PIN_2*
X143690880Y-98243860D02*
X145840869Y-100393849D01*
X145840869Y-109428849D02*
X145855880Y-109443860D01*
X145840869Y-100393849D02*
X145840869Y-109428849D01*
X143690880Y-95913860D02*
X143690880Y-98243860D01*
G04 #@! TO.N,/PIN_25*
X148395880Y-109443860D02*
X148340880Y-109388860D01*
X148340880Y-109388860D02*
X148340880Y-107693862D01*
X147245880Y-91623860D02*
X148170884Y-91623860D01*
X148170884Y-91623860D02*
X148340884Y-91793860D01*
D38*
G04 #@! TO.N,/V_BATT*
X134615880Y-94943860D02*
X134615880Y-96093860D01*
X134465880Y-94793860D02*
X134615880Y-94943860D01*
X134415880Y-96293860D02*
X134615880Y-96093860D01*
X134415880Y-98306360D02*
X134415880Y-96293860D01*
X131403380Y-98306360D02*
X130990880Y-98718860D01*
X134415880Y-98306360D02*
X131403380Y-98306360D01*
D40*
X135390880Y-94393860D02*
X137850880Y-94393860D01*
X134990880Y-94793860D02*
X135390880Y-94393860D01*
X134465880Y-94793860D02*
X134990880Y-94793860D01*
G04 #@! TO.N,Net-(C10-Pad1)*
X137790880Y-91193860D02*
X138190880Y-91593860D01*
X137790880Y-90693860D02*
X137790880Y-91193860D01*
X141340880Y-105558860D02*
X141340880Y-105443860D01*
X142065880Y-106168860D02*
X141340880Y-105443860D01*
X142065880Y-106743860D02*
X142065880Y-106168860D01*
G04 #@! TO.N,/PIN_24*
X148870880Y-93123860D02*
X149140880Y-93393860D01*
X147245880Y-93123860D02*
X148870880Y-93123860D01*
X149640880Y-106698860D02*
X149685880Y-106743860D01*
X149640880Y-105093860D02*
X149640880Y-106698860D01*
G04 #@! TO.N,/PIN_21*
X151310880Y-92623860D02*
X151340880Y-92593860D01*
X147245880Y-92623860D02*
X151310880Y-92623860D01*
X150955880Y-107708860D02*
X150940880Y-107693860D01*
X150955880Y-109443860D02*
X150955880Y-107708860D01*
G04 #@! TD*
G04 #@! TO.N,GND*
G36*
X146821533Y-102943860D02*
X147060227Y-102943860D01*
X147222909Y-102876476D01*
X147140880Y-103074513D01*
X147140880Y-103313207D01*
X147232224Y-103533733D01*
X147401007Y-103702516D01*
X147621533Y-103793860D01*
X147860227Y-103793860D01*
X148080753Y-103702516D01*
X148189409Y-103593860D01*
X148212462Y-103593860D01*
X148223826Y-103601453D01*
X148340880Y-103624737D01*
X148515880Y-103624737D01*
X148515880Y-103727360D01*
X148590880Y-103802360D01*
X148878380Y-103802360D01*
X148878380Y-103782360D01*
X149003380Y-103782360D01*
X149003380Y-103802360D01*
X149010003Y-103802360D01*
X149010003Y-104110360D01*
X149003380Y-104110360D01*
X149003380Y-104518860D01*
X149078380Y-104593860D01*
X149125553Y-104593860D01*
X149186868Y-104568463D01*
X149198826Y-104576453D01*
X149291353Y-104594858D01*
X149132224Y-104753987D01*
X149040880Y-104974513D01*
X149040880Y-105213207D01*
X149132224Y-105433733D01*
X149240880Y-105542389D01*
X149240880Y-105602902D01*
X149198826Y-105611267D01*
X149099592Y-105677572D01*
X149033287Y-105776806D01*
X149010003Y-105893860D01*
X149010003Y-107593860D01*
X149033287Y-107710914D01*
X149099592Y-107810148D01*
X149198826Y-107876453D01*
X149315880Y-107899737D01*
X150055880Y-107899737D01*
X150172934Y-107876453D01*
X150272168Y-107810148D01*
X150338473Y-107710914D01*
X150340880Y-107698813D01*
X150340880Y-107813207D01*
X150432224Y-108033733D01*
X150555881Y-108157390D01*
X150555881Y-108293950D01*
X150468826Y-108311267D01*
X150369592Y-108377572D01*
X150303287Y-108476806D01*
X150280003Y-108593860D01*
X150280003Y-110293860D01*
X150303287Y-110410914D01*
X150369592Y-110510148D01*
X150382631Y-110518860D01*
X148989129Y-110518860D01*
X149002168Y-110510148D01*
X149068473Y-110410914D01*
X149091757Y-110293860D01*
X149091757Y-108593860D01*
X149068473Y-108476806D01*
X149002168Y-108377572D01*
X148902934Y-108311267D01*
X148785880Y-108287983D01*
X148740880Y-108287983D01*
X148740880Y-108142391D01*
X148849536Y-108033735D01*
X148940880Y-107813209D01*
X148940880Y-107574515D01*
X148849536Y-107353989D01*
X148680753Y-107185206D01*
X148460227Y-107093862D01*
X148221533Y-107093862D01*
X148001007Y-107185206D01*
X147832224Y-107353989D01*
X147821757Y-107379259D01*
X147821757Y-105893860D01*
X147798473Y-105776806D01*
X147732168Y-105677572D01*
X147632934Y-105611267D01*
X147515880Y-105587983D01*
X147505694Y-105587983D01*
X147502671Y-105572788D01*
X147496269Y-105563207D01*
X147414264Y-105440476D01*
X147380865Y-105418160D01*
X146640880Y-104678176D01*
X146640880Y-104185360D01*
X148515880Y-104185360D01*
X148515880Y-104353534D01*
X148561552Y-104463797D01*
X148645944Y-104548188D01*
X148756207Y-104593860D01*
X148803380Y-104593860D01*
X148878380Y-104518860D01*
X148878380Y-104110360D01*
X148590880Y-104110360D01*
X148515880Y-104185360D01*
X146640880Y-104185360D01*
X146640880Y-102869032D01*
X146821533Y-102943860D01*
X146821533Y-102943860D01*
G37*
X146821533Y-102943860D02*
X147060227Y-102943860D01*
X147222909Y-102876476D01*
X147140880Y-103074513D01*
X147140880Y-103313207D01*
X147232224Y-103533733D01*
X147401007Y-103702516D01*
X147621533Y-103793860D01*
X147860227Y-103793860D01*
X148080753Y-103702516D01*
X148189409Y-103593860D01*
X148212462Y-103593860D01*
X148223826Y-103601453D01*
X148340880Y-103624737D01*
X148515880Y-103624737D01*
X148515880Y-103727360D01*
X148590880Y-103802360D01*
X148878380Y-103802360D01*
X148878380Y-103782360D01*
X149003380Y-103782360D01*
X149003380Y-103802360D01*
X149010003Y-103802360D01*
X149010003Y-104110360D01*
X149003380Y-104110360D01*
X149003380Y-104518860D01*
X149078380Y-104593860D01*
X149125553Y-104593860D01*
X149186868Y-104568463D01*
X149198826Y-104576453D01*
X149291353Y-104594858D01*
X149132224Y-104753987D01*
X149040880Y-104974513D01*
X149040880Y-105213207D01*
X149132224Y-105433733D01*
X149240880Y-105542389D01*
X149240880Y-105602902D01*
X149198826Y-105611267D01*
X149099592Y-105677572D01*
X149033287Y-105776806D01*
X149010003Y-105893860D01*
X149010003Y-107593860D01*
X149033287Y-107710914D01*
X149099592Y-107810148D01*
X149198826Y-107876453D01*
X149315880Y-107899737D01*
X150055880Y-107899737D01*
X150172934Y-107876453D01*
X150272168Y-107810148D01*
X150338473Y-107710914D01*
X150340880Y-107698813D01*
X150340880Y-107813207D01*
X150432224Y-108033733D01*
X150555881Y-108157390D01*
X150555881Y-108293950D01*
X150468826Y-108311267D01*
X150369592Y-108377572D01*
X150303287Y-108476806D01*
X150280003Y-108593860D01*
X150280003Y-110293860D01*
X150303287Y-110410914D01*
X150369592Y-110510148D01*
X150382631Y-110518860D01*
X148989129Y-110518860D01*
X149002168Y-110510148D01*
X149068473Y-110410914D01*
X149091757Y-110293860D01*
X149091757Y-108593860D01*
X149068473Y-108476806D01*
X149002168Y-108377572D01*
X148902934Y-108311267D01*
X148785880Y-108287983D01*
X148740880Y-108287983D01*
X148740880Y-108142391D01*
X148849536Y-108033735D01*
X148940880Y-107813209D01*
X148940880Y-107574515D01*
X148849536Y-107353989D01*
X148680753Y-107185206D01*
X148460227Y-107093862D01*
X148221533Y-107093862D01*
X148001007Y-107185206D01*
X147832224Y-107353989D01*
X147821757Y-107379259D01*
X147821757Y-105893860D01*
X147798473Y-105776806D01*
X147732168Y-105677572D01*
X147632934Y-105611267D01*
X147515880Y-105587983D01*
X147505694Y-105587983D01*
X147502671Y-105572788D01*
X147496269Y-105563207D01*
X147414264Y-105440476D01*
X147380865Y-105418160D01*
X146640880Y-104678176D01*
X146640880Y-104185360D01*
X148515880Y-104185360D01*
X148515880Y-104353534D01*
X148561552Y-104463797D01*
X148645944Y-104548188D01*
X148756207Y-104593860D01*
X148803380Y-104593860D01*
X148878380Y-104518860D01*
X148878380Y-104110360D01*
X148590880Y-104110360D01*
X148515880Y-104185360D01*
X146640880Y-104185360D01*
X146640880Y-102869032D01*
X146821533Y-102943860D01*
G36*
X137334592Y-94860148D02*
X137433826Y-94926453D01*
X137541335Y-94947838D01*
X137473826Y-94961267D01*
X137390880Y-95016689D01*
X137307934Y-94961267D01*
X137190880Y-94937983D01*
X136690880Y-94937983D01*
X136573826Y-94961267D01*
X136474592Y-95027572D01*
X136423953Y-95103360D01*
X136398909Y-95103360D01*
X136380753Y-95085204D01*
X136160227Y-94993860D01*
X135921533Y-94993860D01*
X135701007Y-95085204D01*
X135532224Y-95253987D01*
X135440880Y-95474513D01*
X135440880Y-95713207D01*
X135532224Y-95933733D01*
X135701007Y-96102516D01*
X135921533Y-96193860D01*
X136160227Y-96193860D01*
X136380753Y-96102516D01*
X136398909Y-96084360D01*
X136510828Y-96084360D01*
X136519993Y-96090483D01*
X136436552Y-96173923D01*
X136390880Y-96284186D01*
X136390880Y-96418860D01*
X136465880Y-96493860D01*
X136815880Y-96493860D01*
X136815880Y-96469860D01*
X137065880Y-96469860D01*
X137065880Y-96493860D01*
X137715880Y-96493860D01*
X137715880Y-96469860D01*
X137965880Y-96469860D01*
X137965880Y-96493860D01*
X138014880Y-96493860D01*
X138014880Y-96793860D01*
X137965880Y-96793860D01*
X137965880Y-97168860D01*
X137990880Y-97193860D01*
X137965880Y-97218860D01*
X137965880Y-97593860D01*
X138615880Y-97593860D01*
X138615880Y-97569860D01*
X138865880Y-97569860D01*
X138865880Y-97593860D01*
X139215880Y-97593860D01*
X139290880Y-97518860D01*
X139290880Y-97384186D01*
X139245208Y-97273923D01*
X139244345Y-97273060D01*
X140449086Y-97273060D01*
X140435003Y-97343860D01*
X140435003Y-97943860D01*
X140458287Y-98060914D01*
X140524592Y-98160148D01*
X140575046Y-98193860D01*
X140524592Y-98227572D01*
X140458287Y-98326806D01*
X140435003Y-98443860D01*
X140435003Y-99043860D01*
X140458287Y-99160914D01*
X140524592Y-99260148D01*
X140540020Y-99270456D01*
X140536552Y-99273924D01*
X140490880Y-99384187D01*
X140490880Y-99493860D01*
X140565880Y-99568860D01*
X140940880Y-99568860D01*
X140940880Y-99519860D01*
X141240880Y-99519860D01*
X141240880Y-99568860D01*
X141264880Y-99568860D01*
X141264880Y-99818860D01*
X141240880Y-99818860D01*
X141240880Y-100168860D01*
X141315880Y-100243860D01*
X141450554Y-100243860D01*
X141560817Y-100198188D01*
X141644257Y-100114747D01*
X141674592Y-100160148D01*
X141773826Y-100226453D01*
X141890880Y-100249737D01*
X142113501Y-100249737D01*
X142067496Y-100280476D01*
X142045181Y-100313873D01*
X141700896Y-100658160D01*
X141667497Y-100680476D01*
X141579089Y-100812788D01*
X141564846Y-100884393D01*
X141563039Y-100893474D01*
X141474592Y-100952572D01*
X141408287Y-101051806D01*
X141389881Y-101144338D01*
X141355747Y-101110204D01*
X141135221Y-101018860D01*
X140896527Y-101018860D01*
X140676001Y-101110204D01*
X140507218Y-101278987D01*
X140415874Y-101499513D01*
X140415874Y-101738207D01*
X140507218Y-101958733D01*
X140629853Y-102081368D01*
X140507224Y-102203997D01*
X140415880Y-102424523D01*
X140415880Y-102663217D01*
X140507224Y-102883743D01*
X140676007Y-103052526D01*
X140896533Y-103143870D01*
X141135227Y-103143870D01*
X141195607Y-103118860D01*
X141540880Y-103118860D01*
X141540880Y-103069860D01*
X141840880Y-103069860D01*
X141840880Y-103118860D01*
X141864880Y-103118860D01*
X141864880Y-103368860D01*
X141840880Y-103368860D01*
X141840880Y-103718860D01*
X141915880Y-103793860D01*
X142050554Y-103793860D01*
X142160817Y-103748188D01*
X142244257Y-103664747D01*
X142274592Y-103710148D01*
X142373826Y-103776453D01*
X142490880Y-103799737D01*
X143090880Y-103799737D01*
X143207934Y-103776453D01*
X143307168Y-103710148D01*
X143373473Y-103610914D01*
X143396757Y-103493860D01*
X143396757Y-103143860D01*
X143510227Y-103143860D01*
X143730753Y-103052516D01*
X143899536Y-102883733D01*
X143910907Y-102856282D01*
X144099887Y-102934559D01*
X144338581Y-102934559D01*
X144559107Y-102843215D01*
X144640847Y-102761475D01*
X144640848Y-104328207D01*
X143060899Y-105908157D01*
X143027496Y-105930476D01*
X142954611Y-106039558D01*
X142939089Y-106062789D01*
X142908044Y-106218860D01*
X142915880Y-106258254D01*
X142915881Y-108297929D01*
X142848826Y-108311267D01*
X142749592Y-108377572D01*
X142683287Y-108476806D01*
X142660003Y-108593860D01*
X142660003Y-110293860D01*
X142683287Y-110410914D01*
X142749592Y-110510148D01*
X142762631Y-110518860D01*
X141369129Y-110518860D01*
X141382168Y-110510148D01*
X141448473Y-110410914D01*
X141471757Y-110293860D01*
X141471757Y-108593860D01*
X141448473Y-108476806D01*
X141382168Y-108377572D01*
X141282934Y-108311267D01*
X141165880Y-108287983D01*
X140425880Y-108287983D01*
X140308826Y-108311267D01*
X140209592Y-108377572D01*
X140143287Y-108476806D01*
X140120003Y-108593860D01*
X140120003Y-108953360D01*
X139548909Y-108953360D01*
X139480753Y-108885204D01*
X139260227Y-108793860D01*
X139021533Y-108793860D01*
X138801007Y-108885204D01*
X138632224Y-109053987D01*
X138540880Y-109274513D01*
X138540880Y-109513207D01*
X138632224Y-109733733D01*
X138801007Y-109902516D01*
X139021533Y-109993860D01*
X139260227Y-109993860D01*
X139403874Y-109934360D01*
X140120003Y-109934360D01*
X140120003Y-110293860D01*
X140143287Y-110410914D01*
X140209592Y-110510148D01*
X140222631Y-110518860D01*
X124536846Y-110518860D01*
X123896065Y-110446985D01*
X123307055Y-110241870D01*
X122778127Y-109911359D01*
X122335566Y-109471877D01*
X122148937Y-109177795D01*
X122202206Y-109199860D01*
X122532880Y-109199860D01*
X122607880Y-109124860D01*
X122607880Y-108253860D01*
X122036880Y-108253860D01*
X121961880Y-108328860D01*
X121961880Y-108834366D01*
X121792148Y-108357704D01*
X121718690Y-107741666D01*
X121723003Y-107719983D01*
X121758812Y-107712860D01*
X121961880Y-107712860D01*
X121961880Y-107870860D01*
X122036880Y-107945860D01*
X122607880Y-107945860D01*
X122607880Y-107925860D01*
X122915880Y-107925860D01*
X122915880Y-107945860D01*
X122935880Y-107945860D01*
X122935880Y-108253860D01*
X122915880Y-108253860D01*
X122915880Y-109124860D01*
X122990880Y-109199860D01*
X123321554Y-109199860D01*
X123431817Y-109154188D01*
X123516208Y-109069796D01*
X123561880Y-108959533D01*
X123561880Y-108328860D01*
X123486882Y-108253862D01*
X123561880Y-108253862D01*
X123561880Y-108122150D01*
X123732245Y-108292515D01*
X124075897Y-108434860D01*
X124447863Y-108434860D01*
X124791515Y-108292515D01*
X124961880Y-108122150D01*
X124961880Y-108253862D01*
X125036878Y-108253862D01*
X124961880Y-108328860D01*
X124961880Y-108959533D01*
X125007552Y-109069796D01*
X125091943Y-109154188D01*
X125202206Y-109199860D01*
X125532880Y-109199860D01*
X125607880Y-109124860D01*
X125607880Y-108253860D01*
X125915880Y-108253860D01*
X125915880Y-109124860D01*
X125990880Y-109199860D01*
X126321554Y-109199860D01*
X126431817Y-109154188D01*
X126516208Y-109069796D01*
X126561880Y-108959533D01*
X126561880Y-108328860D01*
X126486880Y-108253860D01*
X125915880Y-108253860D01*
X125607880Y-108253860D01*
X125587880Y-108253860D01*
X125587880Y-107945860D01*
X125607880Y-107945860D01*
X125607880Y-107925860D01*
X125915880Y-107925860D01*
X125915880Y-107945860D01*
X126486880Y-107945860D01*
X126561880Y-107870860D01*
X126561880Y-107720480D01*
X127229971Y-107720480D01*
X127266193Y-107713275D01*
X127266199Y-107713275D01*
X127460602Y-107674605D01*
X127460603Y-107674605D01*
X127595782Y-107618612D01*
X127760590Y-107508491D01*
X127829059Y-107440021D01*
X127864051Y-107405029D01*
X127974172Y-107240222D01*
X128008012Y-107158525D01*
X128030166Y-107105042D01*
X128056458Y-106972860D01*
X138855880Y-106972860D01*
X138855880Y-107653533D01*
X138901552Y-107763796D01*
X138985943Y-107848188D01*
X139096206Y-107893860D01*
X139296880Y-107893860D01*
X139371880Y-107818860D01*
X139371880Y-106897860D01*
X139679880Y-106897860D01*
X139679880Y-107818860D01*
X139754880Y-107893860D01*
X139955554Y-107893860D01*
X140065817Y-107848188D01*
X140150208Y-107763796D01*
X140195880Y-107653533D01*
X140195880Y-106972860D01*
X140120880Y-106897860D01*
X139679880Y-106897860D01*
X139371880Y-106897860D01*
X138930880Y-106897860D01*
X138855880Y-106972860D01*
X128056458Y-106972860D01*
X128068835Y-106910638D01*
X128068835Y-106910633D01*
X128076040Y-106874411D01*
X128076040Y-105834187D01*
X138855880Y-105834187D01*
X138855880Y-106514860D01*
X138930880Y-106589860D01*
X139371880Y-106589860D01*
X139371880Y-105668860D01*
X139679880Y-105668860D01*
X139679880Y-106589860D01*
X140120880Y-106589860D01*
X140195880Y-106514860D01*
X140195880Y-105834187D01*
X140150208Y-105723924D01*
X140065817Y-105639532D01*
X139955554Y-105593860D01*
X139754880Y-105593860D01*
X139679880Y-105668860D01*
X139371880Y-105668860D01*
X139296880Y-105593860D01*
X139096206Y-105593860D01*
X138985943Y-105639532D01*
X138901552Y-105723924D01*
X138855880Y-105834187D01*
X128076040Y-105834187D01*
X128076040Y-105324513D01*
X140740880Y-105324513D01*
X140740880Y-105563207D01*
X140832224Y-105783733D01*
X141001007Y-105952516D01*
X141221533Y-106043860D01*
X141375196Y-106043860D01*
X141390003Y-106058667D01*
X141390003Y-107593860D01*
X141413287Y-107710914D01*
X141479592Y-107810148D01*
X141578826Y-107876453D01*
X141695880Y-107899737D01*
X142435880Y-107899737D01*
X142552934Y-107876453D01*
X142652168Y-107810148D01*
X142718473Y-107710914D01*
X142741757Y-107593860D01*
X142741757Y-105893860D01*
X142718473Y-105776806D01*
X142652168Y-105677572D01*
X142552934Y-105611267D01*
X142435880Y-105587983D01*
X142050688Y-105587983D01*
X141940880Y-105478176D01*
X141940880Y-105324513D01*
X141849536Y-105103987D01*
X141680753Y-104935204D01*
X141460227Y-104843860D01*
X141221533Y-104843860D01*
X141001007Y-104935204D01*
X140832224Y-105103987D01*
X140740880Y-105324513D01*
X128076040Y-105324513D01*
X128076040Y-104268860D01*
X129465880Y-104268860D01*
X129465880Y-104378533D01*
X129511552Y-104488796D01*
X129595943Y-104573188D01*
X129706206Y-104618860D01*
X129840880Y-104618860D01*
X129915880Y-104543860D01*
X129915880Y-104193860D01*
X129540880Y-104193860D01*
X129465880Y-104268860D01*
X128076040Y-104268860D01*
X128076040Y-103867947D01*
X129465880Y-103864419D01*
X129465880Y-103868860D01*
X129540880Y-103943860D01*
X129915880Y-103943860D01*
X129915880Y-103894860D01*
X130215880Y-103894860D01*
X130215880Y-103943860D01*
X130239880Y-103943860D01*
X130239880Y-104193860D01*
X130215880Y-104193860D01*
X130215880Y-104543860D01*
X130290880Y-104618860D01*
X130425554Y-104618860D01*
X130535817Y-104573188D01*
X130619257Y-104489747D01*
X130649592Y-104535148D01*
X130748826Y-104601453D01*
X130865880Y-104624737D01*
X131072047Y-104624737D01*
X131087250Y-104647490D01*
X131249497Y-104755900D01*
X131392573Y-104784360D01*
X131392577Y-104784360D01*
X131440879Y-104793968D01*
X131489181Y-104784360D01*
X132982851Y-104784360D01*
X133001007Y-104802516D01*
X133221533Y-104893860D01*
X133460227Y-104893860D01*
X133680753Y-104802516D01*
X133849536Y-104633733D01*
X133940880Y-104413207D01*
X133940880Y-104174513D01*
X133849536Y-103953987D01*
X133680753Y-103785204D01*
X133460227Y-103693860D01*
X133221533Y-103693860D01*
X133001007Y-103785204D01*
X132982851Y-103803360D01*
X132800828Y-103803360D01*
X132853012Y-103768492D01*
X132918044Y-103671165D01*
X132940880Y-103556360D01*
X132940880Y-103327360D01*
X132961880Y-103306360D01*
X132961880Y-102335360D01*
X133269880Y-102335360D01*
X133269880Y-103306360D01*
X133344880Y-103381360D01*
X133775554Y-103381360D01*
X133885817Y-103335688D01*
X133970208Y-103251296D01*
X134015880Y-103141033D01*
X134015880Y-102410360D01*
X135815880Y-102410360D01*
X135815880Y-103141033D01*
X135861552Y-103251296D01*
X135945943Y-103335688D01*
X136056206Y-103381360D01*
X136486880Y-103381360D01*
X136561880Y-103306360D01*
X136561880Y-102335360D01*
X136869880Y-102335360D01*
X136869880Y-103306360D01*
X136944880Y-103381360D01*
X137375554Y-103381360D01*
X137485817Y-103335688D01*
X137570208Y-103251296D01*
X137615880Y-103141033D01*
X137615880Y-102868860D01*
X137940880Y-102868860D01*
X137940880Y-102978533D01*
X137986552Y-103088796D01*
X138070943Y-103173188D01*
X138181206Y-103218860D01*
X138315880Y-103218860D01*
X138390880Y-103143860D01*
X138390880Y-102793860D01*
X138015880Y-102793860D01*
X137940880Y-102868860D01*
X137615880Y-102868860D01*
X137615880Y-102410360D01*
X137540880Y-102335360D01*
X136869880Y-102335360D01*
X136561880Y-102335360D01*
X135890880Y-102335360D01*
X135815880Y-102410360D01*
X134015880Y-102410360D01*
X133940880Y-102335360D01*
X133269880Y-102335360D01*
X132961880Y-102335360D01*
X132941880Y-102335360D01*
X132941880Y-102027360D01*
X132961880Y-102027360D01*
X132961880Y-101056360D01*
X133269880Y-101056360D01*
X133269880Y-102027360D01*
X133940880Y-102027360D01*
X134015880Y-101952360D01*
X134015880Y-101221687D01*
X135815880Y-101221687D01*
X135815880Y-101952360D01*
X135890880Y-102027360D01*
X136561880Y-102027360D01*
X136561880Y-101056360D01*
X136869880Y-101056360D01*
X136869880Y-102027360D01*
X137540880Y-102027360D01*
X137615880Y-101952360D01*
X137615880Y-101221687D01*
X137570208Y-101111424D01*
X137485817Y-101027032D01*
X137375554Y-100981360D01*
X136944880Y-100981360D01*
X136869880Y-101056360D01*
X136561880Y-101056360D01*
X136486880Y-100981360D01*
X136056206Y-100981360D01*
X135945943Y-101027032D01*
X135861552Y-101111424D01*
X135815880Y-101221687D01*
X134015880Y-101221687D01*
X133970208Y-101111424D01*
X133885817Y-101027032D01*
X133775554Y-100981360D01*
X133344880Y-100981360D01*
X133269880Y-101056360D01*
X132961880Y-101056360D01*
X132940880Y-101035360D01*
X132940880Y-99231360D01*
X132917753Y-99115855D01*
X132852476Y-99018693D01*
X132754985Y-98953907D01*
X132640122Y-98931361D01*
X131671757Y-98933806D01*
X131671757Y-98796860D01*
X133810003Y-98796860D01*
X133810003Y-99081360D01*
X133833287Y-99198414D01*
X133899592Y-99297648D01*
X133998826Y-99363953D01*
X134115880Y-99387237D01*
X134715880Y-99387237D01*
X134832934Y-99363953D01*
X134917622Y-99307367D01*
X134945943Y-99335688D01*
X135056206Y-99381360D01*
X135190880Y-99381360D01*
X135265880Y-99306360D01*
X135265880Y-98460360D01*
X135565880Y-98460360D01*
X135565880Y-99306360D01*
X135640880Y-99381360D01*
X135775554Y-99381360D01*
X135792084Y-99374513D01*
X136340880Y-99374513D01*
X136340880Y-99613207D01*
X136432224Y-99833733D01*
X136601007Y-100002516D01*
X136821533Y-100093860D01*
X137060227Y-100093860D01*
X137082135Y-100084786D01*
X137478886Y-100481537D01*
X137506250Y-100522490D01*
X137668497Y-100630900D01*
X137811573Y-100659360D01*
X137811577Y-100659360D01*
X137859879Y-100668968D01*
X137908181Y-100659360D01*
X137950381Y-100659360D01*
X137950380Y-101154667D01*
X137978840Y-101297743D01*
X138087250Y-101459991D01*
X138150687Y-101502378D01*
X138130003Y-101606361D01*
X138130003Y-101856361D01*
X138153287Y-101973415D01*
X138219592Y-102072649D01*
X138288753Y-102118860D01*
X138181206Y-102118860D01*
X138070943Y-102164532D01*
X137986552Y-102248924D01*
X137940880Y-102359187D01*
X137940880Y-102468860D01*
X138015880Y-102543860D01*
X138390880Y-102543860D01*
X138390880Y-102494860D01*
X138690880Y-102494860D01*
X138690880Y-102543860D01*
X138714880Y-102543860D01*
X138714880Y-102793860D01*
X138690880Y-102793860D01*
X138690880Y-103120331D01*
X138557224Y-103253987D01*
X138465880Y-103474513D01*
X138465880Y-103713207D01*
X138557224Y-103933733D01*
X138726007Y-104102516D01*
X138946533Y-104193860D01*
X139185227Y-104193860D01*
X139405753Y-104102516D01*
X139431041Y-104077228D01*
X139538263Y-104055900D01*
X139700510Y-103947490D01*
X139727874Y-103906537D01*
X139953557Y-103680854D01*
X139994510Y-103653490D01*
X140034354Y-103593860D01*
X140061299Y-103553533D01*
X140102920Y-103491243D01*
X140112345Y-103443860D01*
X141090880Y-103443860D01*
X141090880Y-103553533D01*
X141136552Y-103663796D01*
X141220943Y-103748188D01*
X141331206Y-103793860D01*
X141465880Y-103793860D01*
X141540880Y-103718860D01*
X141540880Y-103368860D01*
X141165880Y-103368860D01*
X141090880Y-103443860D01*
X140112345Y-103443860D01*
X140131380Y-103348167D01*
X140131380Y-103348162D01*
X140140988Y-103299860D01*
X140131380Y-103251558D01*
X140131380Y-103152379D01*
X140157168Y-103135148D01*
X140223473Y-103035914D01*
X140246757Y-102918860D01*
X140246757Y-102418860D01*
X140223473Y-102301806D01*
X140157168Y-102202572D01*
X140131380Y-102185341D01*
X140131380Y-102029811D01*
X140202920Y-101922744D01*
X140231380Y-101779668D01*
X140231380Y-101779664D01*
X140240988Y-101731362D01*
X140231380Y-101683060D01*
X140231380Y-101058054D01*
X140202920Y-100914978D01*
X140094510Y-100752731D01*
X140027262Y-100707797D01*
X140110817Y-100673188D01*
X140195208Y-100588796D01*
X140240880Y-100478533D01*
X140240880Y-100368860D01*
X140165880Y-100293860D01*
X139790880Y-100293860D01*
X139790880Y-100342860D01*
X139490880Y-100342860D01*
X139490880Y-100293860D01*
X139466880Y-100293860D01*
X139466880Y-100043860D01*
X139490880Y-100043860D01*
X139490880Y-99693860D01*
X139790880Y-99693860D01*
X139790880Y-100043860D01*
X140165880Y-100043860D01*
X140240880Y-99968860D01*
X140240880Y-99893860D01*
X140490880Y-99893860D01*
X140490880Y-100003533D01*
X140536552Y-100113796D01*
X140620943Y-100198188D01*
X140731206Y-100243860D01*
X140865880Y-100243860D01*
X140940880Y-100168860D01*
X140940880Y-99818860D01*
X140565880Y-99818860D01*
X140490880Y-99893860D01*
X140240880Y-99893860D01*
X140240880Y-99859187D01*
X140195208Y-99748924D01*
X140110817Y-99664532D01*
X140000554Y-99618860D01*
X139865880Y-99618860D01*
X139790880Y-99693860D01*
X139490880Y-99693860D01*
X139415880Y-99618860D01*
X139281206Y-99618860D01*
X139170943Y-99664532D01*
X139087503Y-99747973D01*
X139057168Y-99702572D01*
X138957934Y-99636267D01*
X138840880Y-99612983D01*
X138678674Y-99612983D01*
X138653557Y-99587866D01*
X138532263Y-99506821D01*
X138340880Y-99468752D01*
X138149497Y-99506821D01*
X137994846Y-99610155D01*
X137834428Y-99449737D01*
X138090880Y-99449737D01*
X138207934Y-99426453D01*
X138290880Y-99371031D01*
X138373826Y-99426453D01*
X138490880Y-99449737D01*
X138990880Y-99449737D01*
X139107934Y-99426453D01*
X139207168Y-99360148D01*
X139273473Y-99260914D01*
X139296757Y-99143860D01*
X139296757Y-98543860D01*
X139273473Y-98426806D01*
X139207168Y-98327572D01*
X139161767Y-98297237D01*
X139245208Y-98213797D01*
X139290880Y-98103534D01*
X139290880Y-97968860D01*
X139215880Y-97893860D01*
X138865880Y-97893860D01*
X138865880Y-97917860D01*
X138615880Y-97917860D01*
X138615880Y-97893860D01*
X137965880Y-97893860D01*
X137965880Y-97917860D01*
X137715880Y-97917860D01*
X137715880Y-97893860D01*
X137365880Y-97893860D01*
X137290880Y-97968860D01*
X137290880Y-98103534D01*
X137336552Y-98213797D01*
X137419993Y-98297237D01*
X137374592Y-98327572D01*
X137308287Y-98426806D01*
X137304626Y-98445210D01*
X137278202Y-98462866D01*
X137278200Y-98462868D01*
X137237250Y-98490230D01*
X137209888Y-98531180D01*
X136847209Y-98893860D01*
X136821533Y-98893860D01*
X136601007Y-98985204D01*
X136432224Y-99153987D01*
X136340880Y-99374513D01*
X135792084Y-99374513D01*
X135885817Y-99335688D01*
X135970208Y-99251296D01*
X136015880Y-99141033D01*
X136015880Y-98535360D01*
X135940880Y-98460360D01*
X135565880Y-98460360D01*
X135265880Y-98460360D01*
X135241880Y-98460360D01*
X135241880Y-98152360D01*
X135265880Y-98152360D01*
X135265880Y-97306360D01*
X135565880Y-97306360D01*
X135565880Y-98152360D01*
X135940880Y-98152360D01*
X136015880Y-98077360D01*
X136015880Y-97471687D01*
X135970208Y-97361424D01*
X135885817Y-97277032D01*
X135775554Y-97231360D01*
X135640880Y-97231360D01*
X135565880Y-97306360D01*
X135265880Y-97306360D01*
X135190880Y-97231360D01*
X135056206Y-97231360D01*
X134945943Y-97277032D01*
X134917622Y-97305353D01*
X134906380Y-97297841D01*
X134906380Y-96868860D01*
X136390880Y-96868860D01*
X136390880Y-97003534D01*
X136436552Y-97113797D01*
X136520944Y-97198188D01*
X136631207Y-97243860D01*
X136740880Y-97243860D01*
X136815880Y-97168860D01*
X136815880Y-96793860D01*
X137065880Y-96793860D01*
X137065880Y-97168860D01*
X137140880Y-97243860D01*
X137250553Y-97243860D01*
X137360816Y-97198188D01*
X137390880Y-97168124D01*
X137416616Y-97193860D01*
X137336552Y-97273923D01*
X137290880Y-97384186D01*
X137290880Y-97518860D01*
X137365880Y-97593860D01*
X137715880Y-97593860D01*
X137715880Y-97218860D01*
X137690880Y-97193860D01*
X137715880Y-97168860D01*
X137715880Y-96793860D01*
X137065880Y-96793860D01*
X136815880Y-96793860D01*
X136465880Y-96793860D01*
X136390880Y-96868860D01*
X134906380Y-96868860D01*
X134906380Y-96649737D01*
X134915880Y-96649737D01*
X135032934Y-96626453D01*
X135132168Y-96560148D01*
X135198473Y-96460914D01*
X135221757Y-96343860D01*
X135221757Y-95843860D01*
X135198473Y-95726806D01*
X135132168Y-95627572D01*
X135106380Y-95610341D01*
X135106380Y-95178721D01*
X135146952Y-95170651D01*
X135279264Y-95082244D01*
X135301582Y-95048842D01*
X135556565Y-94793860D01*
X137290300Y-94793860D01*
X137334592Y-94860148D01*
X137334592Y-94860148D01*
G37*
X137334592Y-94860148D02*
X137433826Y-94926453D01*
X137541335Y-94947838D01*
X137473826Y-94961267D01*
X137390880Y-95016689D01*
X137307934Y-94961267D01*
X137190880Y-94937983D01*
X136690880Y-94937983D01*
X136573826Y-94961267D01*
X136474592Y-95027572D01*
X136423953Y-95103360D01*
X136398909Y-95103360D01*
X136380753Y-95085204D01*
X136160227Y-94993860D01*
X135921533Y-94993860D01*
X135701007Y-95085204D01*
X135532224Y-95253987D01*
X135440880Y-95474513D01*
X135440880Y-95713207D01*
X135532224Y-95933733D01*
X135701007Y-96102516D01*
X135921533Y-96193860D01*
X136160227Y-96193860D01*
X136380753Y-96102516D01*
X136398909Y-96084360D01*
X136510828Y-96084360D01*
X136519993Y-96090483D01*
X136436552Y-96173923D01*
X136390880Y-96284186D01*
X136390880Y-96418860D01*
X136465880Y-96493860D01*
X136815880Y-96493860D01*
X136815880Y-96469860D01*
X137065880Y-96469860D01*
X137065880Y-96493860D01*
X137715880Y-96493860D01*
X137715880Y-96469860D01*
X137965880Y-96469860D01*
X137965880Y-96493860D01*
X138014880Y-96493860D01*
X138014880Y-96793860D01*
X137965880Y-96793860D01*
X137965880Y-97168860D01*
X137990880Y-97193860D01*
X137965880Y-97218860D01*
X137965880Y-97593860D01*
X138615880Y-97593860D01*
X138615880Y-97569860D01*
X138865880Y-97569860D01*
X138865880Y-97593860D01*
X139215880Y-97593860D01*
X139290880Y-97518860D01*
X139290880Y-97384186D01*
X139245208Y-97273923D01*
X139244345Y-97273060D01*
X140449086Y-97273060D01*
X140435003Y-97343860D01*
X140435003Y-97943860D01*
X140458287Y-98060914D01*
X140524592Y-98160148D01*
X140575046Y-98193860D01*
X140524592Y-98227572D01*
X140458287Y-98326806D01*
X140435003Y-98443860D01*
X140435003Y-99043860D01*
X140458287Y-99160914D01*
X140524592Y-99260148D01*
X140540020Y-99270456D01*
X140536552Y-99273924D01*
X140490880Y-99384187D01*
X140490880Y-99493860D01*
X140565880Y-99568860D01*
X140940880Y-99568860D01*
X140940880Y-99519860D01*
X141240880Y-99519860D01*
X141240880Y-99568860D01*
X141264880Y-99568860D01*
X141264880Y-99818860D01*
X141240880Y-99818860D01*
X141240880Y-100168860D01*
X141315880Y-100243860D01*
X141450554Y-100243860D01*
X141560817Y-100198188D01*
X141644257Y-100114747D01*
X141674592Y-100160148D01*
X141773826Y-100226453D01*
X141890880Y-100249737D01*
X142113501Y-100249737D01*
X142067496Y-100280476D01*
X142045181Y-100313873D01*
X141700896Y-100658160D01*
X141667497Y-100680476D01*
X141579089Y-100812788D01*
X141564846Y-100884393D01*
X141563039Y-100893474D01*
X141474592Y-100952572D01*
X141408287Y-101051806D01*
X141389881Y-101144338D01*
X141355747Y-101110204D01*
X141135221Y-101018860D01*
X140896527Y-101018860D01*
X140676001Y-101110204D01*
X140507218Y-101278987D01*
X140415874Y-101499513D01*
X140415874Y-101738207D01*
X140507218Y-101958733D01*
X140629853Y-102081368D01*
X140507224Y-102203997D01*
X140415880Y-102424523D01*
X140415880Y-102663217D01*
X140507224Y-102883743D01*
X140676007Y-103052526D01*
X140896533Y-103143870D01*
X141135227Y-103143870D01*
X141195607Y-103118860D01*
X141540880Y-103118860D01*
X141540880Y-103069860D01*
X141840880Y-103069860D01*
X141840880Y-103118860D01*
X141864880Y-103118860D01*
X141864880Y-103368860D01*
X141840880Y-103368860D01*
X141840880Y-103718860D01*
X141915880Y-103793860D01*
X142050554Y-103793860D01*
X142160817Y-103748188D01*
X142244257Y-103664747D01*
X142274592Y-103710148D01*
X142373826Y-103776453D01*
X142490880Y-103799737D01*
X143090880Y-103799737D01*
X143207934Y-103776453D01*
X143307168Y-103710148D01*
X143373473Y-103610914D01*
X143396757Y-103493860D01*
X143396757Y-103143860D01*
X143510227Y-103143860D01*
X143730753Y-103052516D01*
X143899536Y-102883733D01*
X143910907Y-102856282D01*
X144099887Y-102934559D01*
X144338581Y-102934559D01*
X144559107Y-102843215D01*
X144640847Y-102761475D01*
X144640848Y-104328207D01*
X143060899Y-105908157D01*
X143027496Y-105930476D01*
X142954611Y-106039558D01*
X142939089Y-106062789D01*
X142908044Y-106218860D01*
X142915880Y-106258254D01*
X142915881Y-108297929D01*
X142848826Y-108311267D01*
X142749592Y-108377572D01*
X142683287Y-108476806D01*
X142660003Y-108593860D01*
X142660003Y-110293860D01*
X142683287Y-110410914D01*
X142749592Y-110510148D01*
X142762631Y-110518860D01*
X141369129Y-110518860D01*
X141382168Y-110510148D01*
X141448473Y-110410914D01*
X141471757Y-110293860D01*
X141471757Y-108593860D01*
X141448473Y-108476806D01*
X141382168Y-108377572D01*
X141282934Y-108311267D01*
X141165880Y-108287983D01*
X140425880Y-108287983D01*
X140308826Y-108311267D01*
X140209592Y-108377572D01*
X140143287Y-108476806D01*
X140120003Y-108593860D01*
X140120003Y-108953360D01*
X139548909Y-108953360D01*
X139480753Y-108885204D01*
X139260227Y-108793860D01*
X139021533Y-108793860D01*
X138801007Y-108885204D01*
X138632224Y-109053987D01*
X138540880Y-109274513D01*
X138540880Y-109513207D01*
X138632224Y-109733733D01*
X138801007Y-109902516D01*
X139021533Y-109993860D01*
X139260227Y-109993860D01*
X139403874Y-109934360D01*
X140120003Y-109934360D01*
X140120003Y-110293860D01*
X140143287Y-110410914D01*
X140209592Y-110510148D01*
X140222631Y-110518860D01*
X124536846Y-110518860D01*
X123896065Y-110446985D01*
X123307055Y-110241870D01*
X122778127Y-109911359D01*
X122335566Y-109471877D01*
X122148937Y-109177795D01*
X122202206Y-109199860D01*
X122532880Y-109199860D01*
X122607880Y-109124860D01*
X122607880Y-108253860D01*
X122036880Y-108253860D01*
X121961880Y-108328860D01*
X121961880Y-108834366D01*
X121792148Y-108357704D01*
X121718690Y-107741666D01*
X121723003Y-107719983D01*
X121758812Y-107712860D01*
X121961880Y-107712860D01*
X121961880Y-107870860D01*
X122036880Y-107945860D01*
X122607880Y-107945860D01*
X122607880Y-107925860D01*
X122915880Y-107925860D01*
X122915880Y-107945860D01*
X122935880Y-107945860D01*
X122935880Y-108253860D01*
X122915880Y-108253860D01*
X122915880Y-109124860D01*
X122990880Y-109199860D01*
X123321554Y-109199860D01*
X123431817Y-109154188D01*
X123516208Y-109069796D01*
X123561880Y-108959533D01*
X123561880Y-108328860D01*
X123486882Y-108253862D01*
X123561880Y-108253862D01*
X123561880Y-108122150D01*
X123732245Y-108292515D01*
X124075897Y-108434860D01*
X124447863Y-108434860D01*
X124791515Y-108292515D01*
X124961880Y-108122150D01*
X124961880Y-108253862D01*
X125036878Y-108253862D01*
X124961880Y-108328860D01*
X124961880Y-108959533D01*
X125007552Y-109069796D01*
X125091943Y-109154188D01*
X125202206Y-109199860D01*
X125532880Y-109199860D01*
X125607880Y-109124860D01*
X125607880Y-108253860D01*
X125915880Y-108253860D01*
X125915880Y-109124860D01*
X125990880Y-109199860D01*
X126321554Y-109199860D01*
X126431817Y-109154188D01*
X126516208Y-109069796D01*
X126561880Y-108959533D01*
X126561880Y-108328860D01*
X126486880Y-108253860D01*
X125915880Y-108253860D01*
X125607880Y-108253860D01*
X125587880Y-108253860D01*
X125587880Y-107945860D01*
X125607880Y-107945860D01*
X125607880Y-107925860D01*
X125915880Y-107925860D01*
X125915880Y-107945860D01*
X126486880Y-107945860D01*
X126561880Y-107870860D01*
X126561880Y-107720480D01*
X127229971Y-107720480D01*
X127266193Y-107713275D01*
X127266199Y-107713275D01*
X127460602Y-107674605D01*
X127460603Y-107674605D01*
X127595782Y-107618612D01*
X127760590Y-107508491D01*
X127829059Y-107440021D01*
X127864051Y-107405029D01*
X127974172Y-107240222D01*
X128008012Y-107158525D01*
X128030166Y-107105042D01*
X128056458Y-106972860D01*
X138855880Y-106972860D01*
X138855880Y-107653533D01*
X138901552Y-107763796D01*
X138985943Y-107848188D01*
X139096206Y-107893860D01*
X139296880Y-107893860D01*
X139371880Y-107818860D01*
X139371880Y-106897860D01*
X139679880Y-106897860D01*
X139679880Y-107818860D01*
X139754880Y-107893860D01*
X139955554Y-107893860D01*
X140065817Y-107848188D01*
X140150208Y-107763796D01*
X140195880Y-107653533D01*
X140195880Y-106972860D01*
X140120880Y-106897860D01*
X139679880Y-106897860D01*
X139371880Y-106897860D01*
X138930880Y-106897860D01*
X138855880Y-106972860D01*
X128056458Y-106972860D01*
X128068835Y-106910638D01*
X128068835Y-106910633D01*
X128076040Y-106874411D01*
X128076040Y-105834187D01*
X138855880Y-105834187D01*
X138855880Y-106514860D01*
X138930880Y-106589860D01*
X139371880Y-106589860D01*
X139371880Y-105668860D01*
X139679880Y-105668860D01*
X139679880Y-106589860D01*
X140120880Y-106589860D01*
X140195880Y-106514860D01*
X140195880Y-105834187D01*
X140150208Y-105723924D01*
X140065817Y-105639532D01*
X139955554Y-105593860D01*
X139754880Y-105593860D01*
X139679880Y-105668860D01*
X139371880Y-105668860D01*
X139296880Y-105593860D01*
X139096206Y-105593860D01*
X138985943Y-105639532D01*
X138901552Y-105723924D01*
X138855880Y-105834187D01*
X128076040Y-105834187D01*
X128076040Y-105324513D01*
X140740880Y-105324513D01*
X140740880Y-105563207D01*
X140832224Y-105783733D01*
X141001007Y-105952516D01*
X141221533Y-106043860D01*
X141375196Y-106043860D01*
X141390003Y-106058667D01*
X141390003Y-107593860D01*
X141413287Y-107710914D01*
X141479592Y-107810148D01*
X141578826Y-107876453D01*
X141695880Y-107899737D01*
X142435880Y-107899737D01*
X142552934Y-107876453D01*
X142652168Y-107810148D01*
X142718473Y-107710914D01*
X142741757Y-107593860D01*
X142741757Y-105893860D01*
X142718473Y-105776806D01*
X142652168Y-105677572D01*
X142552934Y-105611267D01*
X142435880Y-105587983D01*
X142050688Y-105587983D01*
X141940880Y-105478176D01*
X141940880Y-105324513D01*
X141849536Y-105103987D01*
X141680753Y-104935204D01*
X141460227Y-104843860D01*
X141221533Y-104843860D01*
X141001007Y-104935204D01*
X140832224Y-105103987D01*
X140740880Y-105324513D01*
X128076040Y-105324513D01*
X128076040Y-104268860D01*
X129465880Y-104268860D01*
X129465880Y-104378533D01*
X129511552Y-104488796D01*
X129595943Y-104573188D01*
X129706206Y-104618860D01*
X129840880Y-104618860D01*
X129915880Y-104543860D01*
X129915880Y-104193860D01*
X129540880Y-104193860D01*
X129465880Y-104268860D01*
X128076040Y-104268860D01*
X128076040Y-103867947D01*
X129465880Y-103864419D01*
X129465880Y-103868860D01*
X129540880Y-103943860D01*
X129915880Y-103943860D01*
X129915880Y-103894860D01*
X130215880Y-103894860D01*
X130215880Y-103943860D01*
X130239880Y-103943860D01*
X130239880Y-104193860D01*
X130215880Y-104193860D01*
X130215880Y-104543860D01*
X130290880Y-104618860D01*
X130425554Y-104618860D01*
X130535817Y-104573188D01*
X130619257Y-104489747D01*
X130649592Y-104535148D01*
X130748826Y-104601453D01*
X130865880Y-104624737D01*
X131072047Y-104624737D01*
X131087250Y-104647490D01*
X131249497Y-104755900D01*
X131392573Y-104784360D01*
X131392577Y-104784360D01*
X131440879Y-104793968D01*
X131489181Y-104784360D01*
X132982851Y-104784360D01*
X133001007Y-104802516D01*
X133221533Y-104893860D01*
X133460227Y-104893860D01*
X133680753Y-104802516D01*
X133849536Y-104633733D01*
X133940880Y-104413207D01*
X133940880Y-104174513D01*
X133849536Y-103953987D01*
X133680753Y-103785204D01*
X133460227Y-103693860D01*
X133221533Y-103693860D01*
X133001007Y-103785204D01*
X132982851Y-103803360D01*
X132800828Y-103803360D01*
X132853012Y-103768492D01*
X132918044Y-103671165D01*
X132940880Y-103556360D01*
X132940880Y-103327360D01*
X132961880Y-103306360D01*
X132961880Y-102335360D01*
X133269880Y-102335360D01*
X133269880Y-103306360D01*
X133344880Y-103381360D01*
X133775554Y-103381360D01*
X133885817Y-103335688D01*
X133970208Y-103251296D01*
X134015880Y-103141033D01*
X134015880Y-102410360D01*
X135815880Y-102410360D01*
X135815880Y-103141033D01*
X135861552Y-103251296D01*
X135945943Y-103335688D01*
X136056206Y-103381360D01*
X136486880Y-103381360D01*
X136561880Y-103306360D01*
X136561880Y-102335360D01*
X136869880Y-102335360D01*
X136869880Y-103306360D01*
X136944880Y-103381360D01*
X137375554Y-103381360D01*
X137485817Y-103335688D01*
X137570208Y-103251296D01*
X137615880Y-103141033D01*
X137615880Y-102868860D01*
X137940880Y-102868860D01*
X137940880Y-102978533D01*
X137986552Y-103088796D01*
X138070943Y-103173188D01*
X138181206Y-103218860D01*
X138315880Y-103218860D01*
X138390880Y-103143860D01*
X138390880Y-102793860D01*
X138015880Y-102793860D01*
X137940880Y-102868860D01*
X137615880Y-102868860D01*
X137615880Y-102410360D01*
X137540880Y-102335360D01*
X136869880Y-102335360D01*
X136561880Y-102335360D01*
X135890880Y-102335360D01*
X135815880Y-102410360D01*
X134015880Y-102410360D01*
X133940880Y-102335360D01*
X133269880Y-102335360D01*
X132961880Y-102335360D01*
X132941880Y-102335360D01*
X132941880Y-102027360D01*
X132961880Y-102027360D01*
X132961880Y-101056360D01*
X133269880Y-101056360D01*
X133269880Y-102027360D01*
X133940880Y-102027360D01*
X134015880Y-101952360D01*
X134015880Y-101221687D01*
X135815880Y-101221687D01*
X135815880Y-101952360D01*
X135890880Y-102027360D01*
X136561880Y-102027360D01*
X136561880Y-101056360D01*
X136869880Y-101056360D01*
X136869880Y-102027360D01*
X137540880Y-102027360D01*
X137615880Y-101952360D01*
X137615880Y-101221687D01*
X137570208Y-101111424D01*
X137485817Y-101027032D01*
X137375554Y-100981360D01*
X136944880Y-100981360D01*
X136869880Y-101056360D01*
X136561880Y-101056360D01*
X136486880Y-100981360D01*
X136056206Y-100981360D01*
X135945943Y-101027032D01*
X135861552Y-101111424D01*
X135815880Y-101221687D01*
X134015880Y-101221687D01*
X133970208Y-101111424D01*
X133885817Y-101027032D01*
X133775554Y-100981360D01*
X133344880Y-100981360D01*
X133269880Y-101056360D01*
X132961880Y-101056360D01*
X132940880Y-101035360D01*
X132940880Y-99231360D01*
X132917753Y-99115855D01*
X132852476Y-99018693D01*
X132754985Y-98953907D01*
X132640122Y-98931361D01*
X131671757Y-98933806D01*
X131671757Y-98796860D01*
X133810003Y-98796860D01*
X133810003Y-99081360D01*
X133833287Y-99198414D01*
X133899592Y-99297648D01*
X133998826Y-99363953D01*
X134115880Y-99387237D01*
X134715880Y-99387237D01*
X134832934Y-99363953D01*
X134917622Y-99307367D01*
X134945943Y-99335688D01*
X135056206Y-99381360D01*
X135190880Y-99381360D01*
X135265880Y-99306360D01*
X135265880Y-98460360D01*
X135565880Y-98460360D01*
X135565880Y-99306360D01*
X135640880Y-99381360D01*
X135775554Y-99381360D01*
X135792084Y-99374513D01*
X136340880Y-99374513D01*
X136340880Y-99613207D01*
X136432224Y-99833733D01*
X136601007Y-100002516D01*
X136821533Y-100093860D01*
X137060227Y-100093860D01*
X137082135Y-100084786D01*
X137478886Y-100481537D01*
X137506250Y-100522490D01*
X137668497Y-100630900D01*
X137811573Y-100659360D01*
X137811577Y-100659360D01*
X137859879Y-100668968D01*
X137908181Y-100659360D01*
X137950381Y-100659360D01*
X137950380Y-101154667D01*
X137978840Y-101297743D01*
X138087250Y-101459991D01*
X138150687Y-101502378D01*
X138130003Y-101606361D01*
X138130003Y-101856361D01*
X138153287Y-101973415D01*
X138219592Y-102072649D01*
X138288753Y-102118860D01*
X138181206Y-102118860D01*
X138070943Y-102164532D01*
X137986552Y-102248924D01*
X137940880Y-102359187D01*
X137940880Y-102468860D01*
X138015880Y-102543860D01*
X138390880Y-102543860D01*
X138390880Y-102494860D01*
X138690880Y-102494860D01*
X138690880Y-102543860D01*
X138714880Y-102543860D01*
X138714880Y-102793860D01*
X138690880Y-102793860D01*
X138690880Y-103120331D01*
X138557224Y-103253987D01*
X138465880Y-103474513D01*
X138465880Y-103713207D01*
X138557224Y-103933733D01*
X138726007Y-104102516D01*
X138946533Y-104193860D01*
X139185227Y-104193860D01*
X139405753Y-104102516D01*
X139431041Y-104077228D01*
X139538263Y-104055900D01*
X139700510Y-103947490D01*
X139727874Y-103906537D01*
X139953557Y-103680854D01*
X139994510Y-103653490D01*
X140034354Y-103593860D01*
X140061299Y-103553533D01*
X140102920Y-103491243D01*
X140112345Y-103443860D01*
X141090880Y-103443860D01*
X141090880Y-103553533D01*
X141136552Y-103663796D01*
X141220943Y-103748188D01*
X141331206Y-103793860D01*
X141465880Y-103793860D01*
X141540880Y-103718860D01*
X141540880Y-103368860D01*
X141165880Y-103368860D01*
X141090880Y-103443860D01*
X140112345Y-103443860D01*
X140131380Y-103348167D01*
X140131380Y-103348162D01*
X140140988Y-103299860D01*
X140131380Y-103251558D01*
X140131380Y-103152379D01*
X140157168Y-103135148D01*
X140223473Y-103035914D01*
X140246757Y-102918860D01*
X140246757Y-102418860D01*
X140223473Y-102301806D01*
X140157168Y-102202572D01*
X140131380Y-102185341D01*
X140131380Y-102029811D01*
X140202920Y-101922744D01*
X140231380Y-101779668D01*
X140231380Y-101779664D01*
X140240988Y-101731362D01*
X140231380Y-101683060D01*
X140231380Y-101058054D01*
X140202920Y-100914978D01*
X140094510Y-100752731D01*
X140027262Y-100707797D01*
X140110817Y-100673188D01*
X140195208Y-100588796D01*
X140240880Y-100478533D01*
X140240880Y-100368860D01*
X140165880Y-100293860D01*
X139790880Y-100293860D01*
X139790880Y-100342860D01*
X139490880Y-100342860D01*
X139490880Y-100293860D01*
X139466880Y-100293860D01*
X139466880Y-100043860D01*
X139490880Y-100043860D01*
X139490880Y-99693860D01*
X139790880Y-99693860D01*
X139790880Y-100043860D01*
X140165880Y-100043860D01*
X140240880Y-99968860D01*
X140240880Y-99893860D01*
X140490880Y-99893860D01*
X140490880Y-100003533D01*
X140536552Y-100113796D01*
X140620943Y-100198188D01*
X140731206Y-100243860D01*
X140865880Y-100243860D01*
X140940880Y-100168860D01*
X140940880Y-99818860D01*
X140565880Y-99818860D01*
X140490880Y-99893860D01*
X140240880Y-99893860D01*
X140240880Y-99859187D01*
X140195208Y-99748924D01*
X140110817Y-99664532D01*
X140000554Y-99618860D01*
X139865880Y-99618860D01*
X139790880Y-99693860D01*
X139490880Y-99693860D01*
X139415880Y-99618860D01*
X139281206Y-99618860D01*
X139170943Y-99664532D01*
X139087503Y-99747973D01*
X139057168Y-99702572D01*
X138957934Y-99636267D01*
X138840880Y-99612983D01*
X138678674Y-99612983D01*
X138653557Y-99587866D01*
X138532263Y-99506821D01*
X138340880Y-99468752D01*
X138149497Y-99506821D01*
X137994846Y-99610155D01*
X137834428Y-99449737D01*
X138090880Y-99449737D01*
X138207934Y-99426453D01*
X138290880Y-99371031D01*
X138373826Y-99426453D01*
X138490880Y-99449737D01*
X138990880Y-99449737D01*
X139107934Y-99426453D01*
X139207168Y-99360148D01*
X139273473Y-99260914D01*
X139296757Y-99143860D01*
X139296757Y-98543860D01*
X139273473Y-98426806D01*
X139207168Y-98327572D01*
X139161767Y-98297237D01*
X139245208Y-98213797D01*
X139290880Y-98103534D01*
X139290880Y-97968860D01*
X139215880Y-97893860D01*
X138865880Y-97893860D01*
X138865880Y-97917860D01*
X138615880Y-97917860D01*
X138615880Y-97893860D01*
X137965880Y-97893860D01*
X137965880Y-97917860D01*
X137715880Y-97917860D01*
X137715880Y-97893860D01*
X137365880Y-97893860D01*
X137290880Y-97968860D01*
X137290880Y-98103534D01*
X137336552Y-98213797D01*
X137419993Y-98297237D01*
X137374592Y-98327572D01*
X137308287Y-98426806D01*
X137304626Y-98445210D01*
X137278202Y-98462866D01*
X137278200Y-98462868D01*
X137237250Y-98490230D01*
X137209888Y-98531180D01*
X136847209Y-98893860D01*
X136821533Y-98893860D01*
X136601007Y-98985204D01*
X136432224Y-99153987D01*
X136340880Y-99374513D01*
X135792084Y-99374513D01*
X135885817Y-99335688D01*
X135970208Y-99251296D01*
X136015880Y-99141033D01*
X136015880Y-98535360D01*
X135940880Y-98460360D01*
X135565880Y-98460360D01*
X135265880Y-98460360D01*
X135241880Y-98460360D01*
X135241880Y-98152360D01*
X135265880Y-98152360D01*
X135265880Y-97306360D01*
X135565880Y-97306360D01*
X135565880Y-98152360D01*
X135940880Y-98152360D01*
X136015880Y-98077360D01*
X136015880Y-97471687D01*
X135970208Y-97361424D01*
X135885817Y-97277032D01*
X135775554Y-97231360D01*
X135640880Y-97231360D01*
X135565880Y-97306360D01*
X135265880Y-97306360D01*
X135190880Y-97231360D01*
X135056206Y-97231360D01*
X134945943Y-97277032D01*
X134917622Y-97305353D01*
X134906380Y-97297841D01*
X134906380Y-96868860D01*
X136390880Y-96868860D01*
X136390880Y-97003534D01*
X136436552Y-97113797D01*
X136520944Y-97198188D01*
X136631207Y-97243860D01*
X136740880Y-97243860D01*
X136815880Y-97168860D01*
X136815880Y-96793860D01*
X137065880Y-96793860D01*
X137065880Y-97168860D01*
X137140880Y-97243860D01*
X137250553Y-97243860D01*
X137360816Y-97198188D01*
X137390880Y-97168124D01*
X137416616Y-97193860D01*
X137336552Y-97273923D01*
X137290880Y-97384186D01*
X137290880Y-97518860D01*
X137365880Y-97593860D01*
X137715880Y-97593860D01*
X137715880Y-97218860D01*
X137690880Y-97193860D01*
X137715880Y-97168860D01*
X137715880Y-96793860D01*
X137065880Y-96793860D01*
X136815880Y-96793860D01*
X136465880Y-96793860D01*
X136390880Y-96868860D01*
X134906380Y-96868860D01*
X134906380Y-96649737D01*
X134915880Y-96649737D01*
X135032934Y-96626453D01*
X135132168Y-96560148D01*
X135198473Y-96460914D01*
X135221757Y-96343860D01*
X135221757Y-95843860D01*
X135198473Y-95726806D01*
X135132168Y-95627572D01*
X135106380Y-95610341D01*
X135106380Y-95178721D01*
X135146952Y-95170651D01*
X135279264Y-95082244D01*
X135301582Y-95048842D01*
X135556565Y-94793860D01*
X137290300Y-94793860D01*
X137334592Y-94860148D01*
G36*
X139250380Y-101384756D02*
X139250381Y-101452966D01*
X139115904Y-101613591D01*
X139090880Y-101588567D01*
X139065856Y-101613591D01*
X138911187Y-101428848D01*
X138921174Y-101418861D01*
X138911187Y-101408874D01*
X139065856Y-101224131D01*
X139090880Y-101249155D01*
X139115904Y-101224131D01*
X139250380Y-101384756D01*
X139250380Y-101384756D01*
G37*
X139250380Y-101384756D02*
X139250381Y-101452966D01*
X139115904Y-101613591D01*
X139090880Y-101588567D01*
X139065856Y-101613591D01*
X138911187Y-101428848D01*
X138921174Y-101418861D01*
X138911187Y-101408874D01*
X139065856Y-101224131D01*
X139090880Y-101249155D01*
X139115904Y-101224131D01*
X139250380Y-101384756D01*
G36*
X139170943Y-100673188D02*
X139229820Y-100697576D01*
X139223826Y-100698768D01*
X139124592Y-100765073D01*
X139114986Y-100779449D01*
X139066774Y-100779450D01*
X139057168Y-100765073D01*
X138959943Y-100700110D01*
X139057168Y-100635148D01*
X139087503Y-100589747D01*
X139170943Y-100673188D01*
X139170943Y-100673188D01*
G37*
X139170943Y-100673188D02*
X139229820Y-100697576D01*
X139223826Y-100698768D01*
X139124592Y-100765073D01*
X139114986Y-100779449D01*
X139066774Y-100779450D01*
X139057168Y-100765073D01*
X138959943Y-100700110D01*
X139057168Y-100635148D01*
X139087503Y-100589747D01*
X139170943Y-100673188D01*
G36*
X152726041Y-106874411D02*
X152733245Y-106910628D01*
X152733245Y-106910639D01*
X152771915Y-107105042D01*
X152771915Y-107105043D01*
X152827908Y-107240222D01*
X152938029Y-107405030D01*
X152973021Y-107440021D01*
X153041491Y-107508491D01*
X153206298Y-107618612D01*
X153244677Y-107634509D01*
X153341478Y-107674606D01*
X153535882Y-107713275D01*
X153682199Y-107713275D01*
X153683201Y-107712860D01*
X154219880Y-107712860D01*
X154219880Y-107870860D01*
X154294880Y-107945860D01*
X154865880Y-107945860D01*
X154865880Y-107925860D01*
X155173880Y-107925860D01*
X155173880Y-107945860D01*
X155193880Y-107945860D01*
X155193880Y-108253860D01*
X155173880Y-108253860D01*
X155173880Y-109124860D01*
X155248880Y-109199860D01*
X155579554Y-109199860D01*
X155689817Y-109154188D01*
X155774208Y-109069796D01*
X155819880Y-108959533D01*
X155819880Y-108328860D01*
X155744882Y-108253862D01*
X155819880Y-108253862D01*
X155819880Y-108122150D01*
X155990245Y-108292515D01*
X156333897Y-108434860D01*
X156705863Y-108434860D01*
X157049515Y-108292515D01*
X157219880Y-108122150D01*
X157219880Y-108253862D01*
X157294878Y-108253862D01*
X157219880Y-108328860D01*
X157219880Y-108959533D01*
X157265552Y-109069796D01*
X157349943Y-109154188D01*
X157460206Y-109199860D01*
X157790880Y-109199860D01*
X157865880Y-109124860D01*
X157865880Y-108253860D01*
X157845880Y-108253860D01*
X157845880Y-107945860D01*
X157865880Y-107945860D01*
X157865880Y-107925860D01*
X158173880Y-107925860D01*
X158173880Y-107945860D01*
X158744880Y-107945860D01*
X158819880Y-107870860D01*
X158819880Y-107712860D01*
X159022948Y-107712860D01*
X159058757Y-107719983D01*
X159061727Y-107734915D01*
X158994005Y-108338675D01*
X158819880Y-108838693D01*
X158819880Y-108328860D01*
X158744880Y-108253860D01*
X158173880Y-108253860D01*
X158173880Y-109124860D01*
X158248880Y-109199860D01*
X158579554Y-109199860D01*
X158632527Y-109177918D01*
X158458379Y-109456613D01*
X158018897Y-109899174D01*
X157492287Y-110233370D01*
X156904724Y-110442592D01*
X156265121Y-110518860D01*
X151529129Y-110518860D01*
X151542168Y-110510148D01*
X151608473Y-110410914D01*
X151631757Y-110293860D01*
X151631757Y-108593860D01*
X151608473Y-108476806D01*
X151542168Y-108377572D01*
X151469265Y-108328860D01*
X154219880Y-108328860D01*
X154219880Y-108959533D01*
X154265552Y-109069796D01*
X154349943Y-109154188D01*
X154460206Y-109199860D01*
X154790880Y-109199860D01*
X154865880Y-109124860D01*
X154865880Y-108253860D01*
X154294880Y-108253860D01*
X154219880Y-108328860D01*
X151469265Y-108328860D01*
X151442934Y-108311267D01*
X151355880Y-108293951D01*
X151355880Y-108127389D01*
X151449536Y-108033733D01*
X151540880Y-107813207D01*
X151540880Y-107574513D01*
X151449536Y-107353987D01*
X151280753Y-107185204D01*
X151060227Y-107093860D01*
X150821533Y-107093860D01*
X150601007Y-107185204D01*
X150432224Y-107353987D01*
X150361757Y-107524111D01*
X150361757Y-105893860D01*
X150338473Y-105776806D01*
X150272168Y-105677572D01*
X150172934Y-105611267D01*
X150055880Y-105587983D01*
X150040880Y-105587983D01*
X150040880Y-105542389D01*
X150149536Y-105433733D01*
X150240880Y-105213207D01*
X150240880Y-104974513D01*
X150149536Y-104753987D01*
X149995286Y-104599737D01*
X150065880Y-104599737D01*
X150182934Y-104576453D01*
X150190880Y-104571144D01*
X150198826Y-104576453D01*
X150303637Y-104597302D01*
X150440880Y-104734545D01*
X150440880Y-104913207D01*
X150532224Y-105133733D01*
X150701007Y-105302516D01*
X150921533Y-105393860D01*
X151160227Y-105393860D01*
X151380753Y-105302516D01*
X151549536Y-105133733D01*
X151640880Y-104913207D01*
X151640880Y-104674513D01*
X151549536Y-104453987D01*
X151380753Y-104285204D01*
X151160227Y-104193860D01*
X151031565Y-104193860D01*
X150871757Y-104034052D01*
X150871757Y-103624737D01*
X151040880Y-103624737D01*
X151083560Y-103616247D01*
X151132224Y-103733733D01*
X151301007Y-103902516D01*
X151521533Y-103993860D01*
X151760227Y-103993860D01*
X151980753Y-103902516D01*
X152149536Y-103733733D01*
X152240880Y-103513207D01*
X152240880Y-103274513D01*
X152149536Y-103053987D01*
X151980753Y-102885204D01*
X151760227Y-102793860D01*
X151521533Y-102793860D01*
X151510808Y-102798303D01*
X151480430Y-102792260D01*
X151480429Y-102792260D01*
X151440880Y-102784393D01*
X151401331Y-102792260D01*
X151301780Y-102792260D01*
X151265880Y-102756360D01*
X150857380Y-102756360D01*
X150857380Y-102762983D01*
X150549380Y-102762983D01*
X150549380Y-102756360D01*
X150140880Y-102756360D01*
X150065880Y-102831360D01*
X150065880Y-102878534D01*
X150091277Y-102939848D01*
X150083287Y-102951806D01*
X150060003Y-103068860D01*
X150060003Y-103312983D01*
X149815880Y-103312983D01*
X149698826Y-103336267D01*
X149690880Y-103341576D01*
X149682934Y-103336267D01*
X149565880Y-103312983D01*
X149321757Y-103312983D01*
X149321757Y-103068860D01*
X149298473Y-102951806D01*
X149293164Y-102943860D01*
X149298473Y-102935914D01*
X149321757Y-102818860D01*
X149321757Y-102568860D01*
X149298473Y-102451806D01*
X149293164Y-102443860D01*
X149298473Y-102435914D01*
X149319270Y-102331360D01*
X150065880Y-102331360D01*
X150065880Y-102378534D01*
X150092939Y-102443860D01*
X150065880Y-102509186D01*
X150065880Y-102556360D01*
X150140880Y-102631360D01*
X150549380Y-102631360D01*
X150549380Y-102256360D01*
X150857380Y-102256360D01*
X150857380Y-102631360D01*
X151265880Y-102631360D01*
X151340880Y-102556360D01*
X151340880Y-102509186D01*
X151313821Y-102443860D01*
X151340880Y-102378534D01*
X151340880Y-102331360D01*
X151265880Y-102256360D01*
X150857380Y-102256360D01*
X150549380Y-102256360D01*
X150140880Y-102256360D01*
X150065880Y-102331360D01*
X149319270Y-102331360D01*
X149321757Y-102318860D01*
X149321757Y-102074737D01*
X149565880Y-102074737D01*
X149682934Y-102051453D01*
X149690880Y-102046144D01*
X149698826Y-102051453D01*
X149815880Y-102074737D01*
X150065880Y-102074737D01*
X150081208Y-102071688D01*
X150140880Y-102131360D01*
X150549380Y-102131360D01*
X150549380Y-102074737D01*
X150565880Y-102074737D01*
X150595425Y-102068860D01*
X150857380Y-102068860D01*
X150857380Y-102131360D01*
X151265880Y-102131360D01*
X151340880Y-102056360D01*
X151340880Y-102009186D01*
X151295208Y-101898923D01*
X151210816Y-101814532D01*
X151100553Y-101768860D01*
X150932380Y-101768860D01*
X150857382Y-101843858D01*
X150857382Y-101841126D01*
X150871757Y-101768860D01*
X150871757Y-101430931D01*
X150996890Y-101305798D01*
X151030417Y-101283397D01*
X151053451Y-101248925D01*
X151096707Y-101184187D01*
X151119178Y-101150556D01*
X151142480Y-101033410D01*
X151142480Y-101033409D01*
X151150347Y-100993861D01*
X151142480Y-100954312D01*
X151142480Y-100340781D01*
X151249536Y-100233725D01*
X151340880Y-100013199D01*
X151340880Y-99774505D01*
X151249536Y-99553979D01*
X151151434Y-99455877D01*
X151250000Y-99455877D01*
X151367054Y-99432593D01*
X151466288Y-99366288D01*
X151532593Y-99267054D01*
X151555877Y-99150000D01*
X151555877Y-98350000D01*
X151532593Y-98232946D01*
X151510580Y-98200000D01*
X151532593Y-98167054D01*
X151555877Y-98050000D01*
X151555877Y-97250000D01*
X151532593Y-97132946D01*
X151466288Y-97033712D01*
X151367054Y-96967407D01*
X151250000Y-96944123D01*
X151150000Y-96944123D01*
X151150000Y-96937977D01*
X151207934Y-96926453D01*
X151307168Y-96860148D01*
X151373473Y-96760914D01*
X151396757Y-96643860D01*
X151396757Y-96043860D01*
X151373473Y-95926806D01*
X151307168Y-95827572D01*
X151256714Y-95793860D01*
X151307168Y-95760148D01*
X151373473Y-95660914D01*
X151396757Y-95543860D01*
X151396757Y-94943860D01*
X151373473Y-94826806D01*
X151307168Y-94727572D01*
X151240880Y-94683280D01*
X151240880Y-94633252D01*
X151248716Y-94593859D01*
X151238705Y-94543533D01*
X151217671Y-94437788D01*
X151129264Y-94305476D01*
X151095867Y-94283161D01*
X150681582Y-93868878D01*
X150659264Y-93835476D01*
X150526952Y-93747069D01*
X150410274Y-93723860D01*
X150370880Y-93716024D01*
X150331486Y-93723860D01*
X149653625Y-93723860D01*
X149740880Y-93513207D01*
X149740880Y-93274513D01*
X149649536Y-93053987D01*
X149619409Y-93023860D01*
X150922351Y-93023860D01*
X151001007Y-93102516D01*
X151221533Y-93193860D01*
X151460227Y-93193860D01*
X151680753Y-93102516D01*
X151849536Y-92933733D01*
X151940880Y-92713207D01*
X151940880Y-92474513D01*
X151849536Y-92253987D01*
X151680753Y-92085204D01*
X151460227Y-91993860D01*
X151221533Y-91993860D01*
X151001007Y-92085204D01*
X150862351Y-92223860D01*
X148759413Y-92223860D01*
X148849540Y-92133733D01*
X148940884Y-91913207D01*
X148940884Y-91674513D01*
X148878482Y-91523860D01*
X149390880Y-91523860D01*
X149390880Y-91613207D01*
X149482224Y-91833733D01*
X149651007Y-92002516D01*
X149871533Y-92093860D01*
X150110227Y-92093860D01*
X150330753Y-92002516D01*
X150499536Y-91833733D01*
X150590880Y-91613207D01*
X150590880Y-91374513D01*
X150499536Y-91153987D01*
X150369409Y-91023860D01*
X151258176Y-91023860D01*
X151400000Y-91165684D01*
X151400000Y-91319347D01*
X151491344Y-91539873D01*
X151660127Y-91708656D01*
X151880653Y-91800000D01*
X152119347Y-91800000D01*
X152339873Y-91708656D01*
X152508656Y-91539873D01*
X152600000Y-91319347D01*
X152600000Y-91080653D01*
X152536712Y-90927860D01*
X152726040Y-90927860D01*
X152726041Y-106874411D01*
X152726041Y-106874411D01*
G37*
X152726041Y-106874411D02*
X152733245Y-106910628D01*
X152733245Y-106910639D01*
X152771915Y-107105042D01*
X152771915Y-107105043D01*
X152827908Y-107240222D01*
X152938029Y-107405030D01*
X152973021Y-107440021D01*
X153041491Y-107508491D01*
X153206298Y-107618612D01*
X153244677Y-107634509D01*
X153341478Y-107674606D01*
X153535882Y-107713275D01*
X153682199Y-107713275D01*
X153683201Y-107712860D01*
X154219880Y-107712860D01*
X154219880Y-107870860D01*
X154294880Y-107945860D01*
X154865880Y-107945860D01*
X154865880Y-107925860D01*
X155173880Y-107925860D01*
X155173880Y-107945860D01*
X155193880Y-107945860D01*
X155193880Y-108253860D01*
X155173880Y-108253860D01*
X155173880Y-109124860D01*
X155248880Y-109199860D01*
X155579554Y-109199860D01*
X155689817Y-109154188D01*
X155774208Y-109069796D01*
X155819880Y-108959533D01*
X155819880Y-108328860D01*
X155744882Y-108253862D01*
X155819880Y-108253862D01*
X155819880Y-108122150D01*
X155990245Y-108292515D01*
X156333897Y-108434860D01*
X156705863Y-108434860D01*
X157049515Y-108292515D01*
X157219880Y-108122150D01*
X157219880Y-108253862D01*
X157294878Y-108253862D01*
X157219880Y-108328860D01*
X157219880Y-108959533D01*
X157265552Y-109069796D01*
X157349943Y-109154188D01*
X157460206Y-109199860D01*
X157790880Y-109199860D01*
X157865880Y-109124860D01*
X157865880Y-108253860D01*
X157845880Y-108253860D01*
X157845880Y-107945860D01*
X157865880Y-107945860D01*
X157865880Y-107925860D01*
X158173880Y-107925860D01*
X158173880Y-107945860D01*
X158744880Y-107945860D01*
X158819880Y-107870860D01*
X158819880Y-107712860D01*
X159022948Y-107712860D01*
X159058757Y-107719983D01*
X159061727Y-107734915D01*
X158994005Y-108338675D01*
X158819880Y-108838693D01*
X158819880Y-108328860D01*
X158744880Y-108253860D01*
X158173880Y-108253860D01*
X158173880Y-109124860D01*
X158248880Y-109199860D01*
X158579554Y-109199860D01*
X158632527Y-109177918D01*
X158458379Y-109456613D01*
X158018897Y-109899174D01*
X157492287Y-110233370D01*
X156904724Y-110442592D01*
X156265121Y-110518860D01*
X151529129Y-110518860D01*
X151542168Y-110510148D01*
X151608473Y-110410914D01*
X151631757Y-110293860D01*
X151631757Y-108593860D01*
X151608473Y-108476806D01*
X151542168Y-108377572D01*
X151469265Y-108328860D01*
X154219880Y-108328860D01*
X154219880Y-108959533D01*
X154265552Y-109069796D01*
X154349943Y-109154188D01*
X154460206Y-109199860D01*
X154790880Y-109199860D01*
X154865880Y-109124860D01*
X154865880Y-108253860D01*
X154294880Y-108253860D01*
X154219880Y-108328860D01*
X151469265Y-108328860D01*
X151442934Y-108311267D01*
X151355880Y-108293951D01*
X151355880Y-108127389D01*
X151449536Y-108033733D01*
X151540880Y-107813207D01*
X151540880Y-107574513D01*
X151449536Y-107353987D01*
X151280753Y-107185204D01*
X151060227Y-107093860D01*
X150821533Y-107093860D01*
X150601007Y-107185204D01*
X150432224Y-107353987D01*
X150361757Y-107524111D01*
X150361757Y-105893860D01*
X150338473Y-105776806D01*
X150272168Y-105677572D01*
X150172934Y-105611267D01*
X150055880Y-105587983D01*
X150040880Y-105587983D01*
X150040880Y-105542389D01*
X150149536Y-105433733D01*
X150240880Y-105213207D01*
X150240880Y-104974513D01*
X150149536Y-104753987D01*
X149995286Y-104599737D01*
X150065880Y-104599737D01*
X150182934Y-104576453D01*
X150190880Y-104571144D01*
X150198826Y-104576453D01*
X150303637Y-104597302D01*
X150440880Y-104734545D01*
X150440880Y-104913207D01*
X150532224Y-105133733D01*
X150701007Y-105302516D01*
X150921533Y-105393860D01*
X151160227Y-105393860D01*
X151380753Y-105302516D01*
X151549536Y-105133733D01*
X151640880Y-104913207D01*
X151640880Y-104674513D01*
X151549536Y-104453987D01*
X151380753Y-104285204D01*
X151160227Y-104193860D01*
X151031565Y-104193860D01*
X150871757Y-104034052D01*
X150871757Y-103624737D01*
X151040880Y-103624737D01*
X151083560Y-103616247D01*
X151132224Y-103733733D01*
X151301007Y-103902516D01*
X151521533Y-103993860D01*
X151760227Y-103993860D01*
X151980753Y-103902516D01*
X152149536Y-103733733D01*
X152240880Y-103513207D01*
X152240880Y-103274513D01*
X152149536Y-103053987D01*
X151980753Y-102885204D01*
X151760227Y-102793860D01*
X151521533Y-102793860D01*
X151510808Y-102798303D01*
X151480430Y-102792260D01*
X151480429Y-102792260D01*
X151440880Y-102784393D01*
X151401331Y-102792260D01*
X151301780Y-102792260D01*
X151265880Y-102756360D01*
X150857380Y-102756360D01*
X150857380Y-102762983D01*
X150549380Y-102762983D01*
X150549380Y-102756360D01*
X150140880Y-102756360D01*
X150065880Y-102831360D01*
X150065880Y-102878534D01*
X150091277Y-102939848D01*
X150083287Y-102951806D01*
X150060003Y-103068860D01*
X150060003Y-103312983D01*
X149815880Y-103312983D01*
X149698826Y-103336267D01*
X149690880Y-103341576D01*
X149682934Y-103336267D01*
X149565880Y-103312983D01*
X149321757Y-103312983D01*
X149321757Y-103068860D01*
X149298473Y-102951806D01*
X149293164Y-102943860D01*
X149298473Y-102935914D01*
X149321757Y-102818860D01*
X149321757Y-102568860D01*
X149298473Y-102451806D01*
X149293164Y-102443860D01*
X149298473Y-102435914D01*
X149319270Y-102331360D01*
X150065880Y-102331360D01*
X150065880Y-102378534D01*
X150092939Y-102443860D01*
X150065880Y-102509186D01*
X150065880Y-102556360D01*
X150140880Y-102631360D01*
X150549380Y-102631360D01*
X150549380Y-102256360D01*
X150857380Y-102256360D01*
X150857380Y-102631360D01*
X151265880Y-102631360D01*
X151340880Y-102556360D01*
X151340880Y-102509186D01*
X151313821Y-102443860D01*
X151340880Y-102378534D01*
X151340880Y-102331360D01*
X151265880Y-102256360D01*
X150857380Y-102256360D01*
X150549380Y-102256360D01*
X150140880Y-102256360D01*
X150065880Y-102331360D01*
X149319270Y-102331360D01*
X149321757Y-102318860D01*
X149321757Y-102074737D01*
X149565880Y-102074737D01*
X149682934Y-102051453D01*
X149690880Y-102046144D01*
X149698826Y-102051453D01*
X149815880Y-102074737D01*
X150065880Y-102074737D01*
X150081208Y-102071688D01*
X150140880Y-102131360D01*
X150549380Y-102131360D01*
X150549380Y-102074737D01*
X150565880Y-102074737D01*
X150595425Y-102068860D01*
X150857380Y-102068860D01*
X150857380Y-102131360D01*
X151265880Y-102131360D01*
X151340880Y-102056360D01*
X151340880Y-102009186D01*
X151295208Y-101898923D01*
X151210816Y-101814532D01*
X151100553Y-101768860D01*
X150932380Y-101768860D01*
X150857382Y-101843858D01*
X150857382Y-101841126D01*
X150871757Y-101768860D01*
X150871757Y-101430931D01*
X150996890Y-101305798D01*
X151030417Y-101283397D01*
X151053451Y-101248925D01*
X151096707Y-101184187D01*
X151119178Y-101150556D01*
X151142480Y-101033410D01*
X151142480Y-101033409D01*
X151150347Y-100993861D01*
X151142480Y-100954312D01*
X151142480Y-100340781D01*
X151249536Y-100233725D01*
X151340880Y-100013199D01*
X151340880Y-99774505D01*
X151249536Y-99553979D01*
X151151434Y-99455877D01*
X151250000Y-99455877D01*
X151367054Y-99432593D01*
X151466288Y-99366288D01*
X151532593Y-99267054D01*
X151555877Y-99150000D01*
X151555877Y-98350000D01*
X151532593Y-98232946D01*
X151510580Y-98200000D01*
X151532593Y-98167054D01*
X151555877Y-98050000D01*
X151555877Y-97250000D01*
X151532593Y-97132946D01*
X151466288Y-97033712D01*
X151367054Y-96967407D01*
X151250000Y-96944123D01*
X151150000Y-96944123D01*
X151150000Y-96937977D01*
X151207934Y-96926453D01*
X151307168Y-96860148D01*
X151373473Y-96760914D01*
X151396757Y-96643860D01*
X151396757Y-96043860D01*
X151373473Y-95926806D01*
X151307168Y-95827572D01*
X151256714Y-95793860D01*
X151307168Y-95760148D01*
X151373473Y-95660914D01*
X151396757Y-95543860D01*
X151396757Y-94943860D01*
X151373473Y-94826806D01*
X151307168Y-94727572D01*
X151240880Y-94683280D01*
X151240880Y-94633252D01*
X151248716Y-94593859D01*
X151238705Y-94543533D01*
X151217671Y-94437788D01*
X151129264Y-94305476D01*
X151095867Y-94283161D01*
X150681582Y-93868878D01*
X150659264Y-93835476D01*
X150526952Y-93747069D01*
X150410274Y-93723860D01*
X150370880Y-93716024D01*
X150331486Y-93723860D01*
X149653625Y-93723860D01*
X149740880Y-93513207D01*
X149740880Y-93274513D01*
X149649536Y-93053987D01*
X149619409Y-93023860D01*
X150922351Y-93023860D01*
X151001007Y-93102516D01*
X151221533Y-93193860D01*
X151460227Y-93193860D01*
X151680753Y-93102516D01*
X151849536Y-92933733D01*
X151940880Y-92713207D01*
X151940880Y-92474513D01*
X151849536Y-92253987D01*
X151680753Y-92085204D01*
X151460227Y-91993860D01*
X151221533Y-91993860D01*
X151001007Y-92085204D01*
X150862351Y-92223860D01*
X148759413Y-92223860D01*
X148849540Y-92133733D01*
X148940884Y-91913207D01*
X148940884Y-91674513D01*
X148878482Y-91523860D01*
X149390880Y-91523860D01*
X149390880Y-91613207D01*
X149482224Y-91833733D01*
X149651007Y-92002516D01*
X149871533Y-92093860D01*
X150110227Y-92093860D01*
X150330753Y-92002516D01*
X150499536Y-91833733D01*
X150590880Y-91613207D01*
X150590880Y-91374513D01*
X150499536Y-91153987D01*
X150369409Y-91023860D01*
X151258176Y-91023860D01*
X151400000Y-91165684D01*
X151400000Y-91319347D01*
X151491344Y-91539873D01*
X151660127Y-91708656D01*
X151880653Y-91800000D01*
X152119347Y-91800000D01*
X152339873Y-91708656D01*
X152508656Y-91539873D01*
X152600000Y-91319347D01*
X152600000Y-91080653D01*
X152536712Y-90927860D01*
X152726040Y-90927860D01*
X152726041Y-106874411D01*
G36*
X142055003Y-102418860D02*
X141823380Y-102418860D01*
X141823380Y-102374737D01*
X142055003Y-102374737D01*
X142055003Y-102418860D01*
X142055003Y-102418860D01*
G37*
X142055003Y-102418860D02*
X141823380Y-102418860D01*
X141823380Y-102374737D01*
X142055003Y-102374737D01*
X142055003Y-102418860D01*
G36*
X148385003Y-95543860D02*
X148408287Y-95660914D01*
X148474592Y-95760148D01*
X148525046Y-95793860D01*
X148474592Y-95827572D01*
X148408287Y-95926806D01*
X148385003Y-96043860D01*
X148385003Y-96384052D01*
X148085898Y-96683158D01*
X148052496Y-96705476D01*
X147981634Y-96811531D01*
X147964089Y-96837789D01*
X147933044Y-96993860D01*
X147940880Y-97033254D01*
X147940881Y-98054462D01*
X147933044Y-98093860D01*
X147964089Y-98249931D01*
X147976737Y-98268860D01*
X148052497Y-98382244D01*
X148085896Y-98404560D01*
X148444123Y-98762788D01*
X148444123Y-99150000D01*
X148467407Y-99267054D01*
X148533712Y-99366288D01*
X148632946Y-99432593D01*
X148750000Y-99455877D01*
X149750000Y-99455877D01*
X149867054Y-99432593D01*
X149966288Y-99366288D01*
X150000000Y-99315834D01*
X150033712Y-99366288D01*
X150132946Y-99432593D01*
X150250000Y-99455877D01*
X150330326Y-99455877D01*
X150232224Y-99553979D01*
X150160651Y-99726773D01*
X150082417Y-99694368D01*
X149843723Y-99694368D01*
X149623197Y-99785712D01*
X149454414Y-99954495D01*
X149363070Y-100175021D01*
X149363070Y-100413715D01*
X149454414Y-100634241D01*
X149540880Y-100720707D01*
X149540880Y-100787983D01*
X149315880Y-100787983D01*
X149198826Y-100811267D01*
X149190880Y-100816576D01*
X149182934Y-100811267D01*
X149065880Y-100787983D01*
X148815880Y-100787983D01*
X148698826Y-100811267D01*
X148599592Y-100877572D01*
X148533287Y-100976806D01*
X148510003Y-101093860D01*
X148510003Y-101672298D01*
X148140880Y-101303176D01*
X148140880Y-100842389D01*
X148249536Y-100733733D01*
X148340880Y-100513207D01*
X148340880Y-100274513D01*
X148249536Y-100053987D01*
X148080753Y-99885204D01*
X147860227Y-99793860D01*
X147834551Y-99793860D01*
X147744687Y-99703996D01*
X147773473Y-99660914D01*
X147796757Y-99543860D01*
X147796757Y-98943860D01*
X147773473Y-98826806D01*
X147707168Y-98727572D01*
X147661767Y-98697237D01*
X147745208Y-98613797D01*
X147790880Y-98503534D01*
X147790880Y-98368860D01*
X147715880Y-98293860D01*
X147365880Y-98293860D01*
X147365880Y-98317860D01*
X147115880Y-98317860D01*
X147115880Y-98293860D01*
X146765880Y-98293860D01*
X146690880Y-98368860D01*
X146690880Y-98503534D01*
X146736552Y-98613797D01*
X146819993Y-98697237D01*
X146774592Y-98727572D01*
X146708287Y-98826806D01*
X146685003Y-98943860D01*
X146685003Y-99543860D01*
X146708287Y-99660914D01*
X146750381Y-99723913D01*
X146750381Y-99845554D01*
X146740772Y-99893860D01*
X146778841Y-100085243D01*
X146859886Y-100206537D01*
X146859889Y-100206540D01*
X146887251Y-100247490D01*
X146928200Y-100274852D01*
X147140880Y-100487531D01*
X147140880Y-100513207D01*
X147232224Y-100733733D01*
X147340881Y-100842390D01*
X147340880Y-101429466D01*
X147333044Y-101468860D01*
X147347963Y-101543861D01*
X147364089Y-101624931D01*
X147452496Y-101757244D01*
X147485899Y-101779563D01*
X147650196Y-101943860D01*
X147389409Y-101943860D01*
X147280753Y-101835204D01*
X147060227Y-101743860D01*
X146821533Y-101743860D01*
X146640880Y-101818688D01*
X146640880Y-100033254D01*
X146648716Y-99993860D01*
X146627111Y-99885243D01*
X146617671Y-99837788D01*
X146529264Y-99705476D01*
X146495865Y-99683160D01*
X144875273Y-98062569D01*
X145071529Y-98143860D01*
X145310223Y-98143860D01*
X145530749Y-98052516D01*
X145699532Y-97883733D01*
X145740765Y-97784186D01*
X146690880Y-97784186D01*
X146690880Y-97918860D01*
X146765880Y-97993860D01*
X147115880Y-97993860D01*
X147115880Y-97618860D01*
X147365880Y-97618860D01*
X147365880Y-97993860D01*
X147715880Y-97993860D01*
X147790880Y-97918860D01*
X147790880Y-97784186D01*
X147745208Y-97673923D01*
X147660816Y-97589532D01*
X147550553Y-97543860D01*
X147440880Y-97543860D01*
X147365880Y-97618860D01*
X147115880Y-97618860D01*
X147040880Y-97543860D01*
X146931207Y-97543860D01*
X146820944Y-97589532D01*
X146736552Y-97673923D01*
X146690880Y-97784186D01*
X145740765Y-97784186D01*
X145790876Y-97663207D01*
X145790876Y-97569028D01*
X145971533Y-97643858D01*
X146210227Y-97643858D01*
X146430753Y-97552514D01*
X146599536Y-97383731D01*
X146690880Y-97163205D01*
X146690880Y-96924511D01*
X146599536Y-96703985D01*
X146529091Y-96633540D01*
X146534168Y-96630148D01*
X146600473Y-96530914D01*
X146623757Y-96413860D01*
X146623757Y-96024993D01*
X146686206Y-96050860D01*
X147016880Y-96050860D01*
X147091880Y-95975860D01*
X147091880Y-95687360D01*
X147399880Y-95687360D01*
X147399880Y-95975860D01*
X147474880Y-96050860D01*
X147805554Y-96050860D01*
X147915817Y-96005188D01*
X148000208Y-95920796D01*
X148045880Y-95810533D01*
X148045880Y-95762360D01*
X147970880Y-95687360D01*
X147399880Y-95687360D01*
X147091880Y-95687360D01*
X147071880Y-95687360D01*
X147071880Y-95560360D01*
X147091880Y-95560360D01*
X147091880Y-95556737D01*
X147399880Y-95556737D01*
X147399880Y-95560360D01*
X147970880Y-95560360D01*
X148007380Y-95523860D01*
X148385003Y-95523860D01*
X148385003Y-95543860D01*
X148385003Y-95543860D01*
G37*
X148385003Y-95543860D02*
X148408287Y-95660914D01*
X148474592Y-95760148D01*
X148525046Y-95793860D01*
X148474592Y-95827572D01*
X148408287Y-95926806D01*
X148385003Y-96043860D01*
X148385003Y-96384052D01*
X148085898Y-96683158D01*
X148052496Y-96705476D01*
X147981634Y-96811531D01*
X147964089Y-96837789D01*
X147933044Y-96993860D01*
X147940880Y-97033254D01*
X147940881Y-98054462D01*
X147933044Y-98093860D01*
X147964089Y-98249931D01*
X147976737Y-98268860D01*
X148052497Y-98382244D01*
X148085896Y-98404560D01*
X148444123Y-98762788D01*
X148444123Y-99150000D01*
X148467407Y-99267054D01*
X148533712Y-99366288D01*
X148632946Y-99432593D01*
X148750000Y-99455877D01*
X149750000Y-99455877D01*
X149867054Y-99432593D01*
X149966288Y-99366288D01*
X150000000Y-99315834D01*
X150033712Y-99366288D01*
X150132946Y-99432593D01*
X150250000Y-99455877D01*
X150330326Y-99455877D01*
X150232224Y-99553979D01*
X150160651Y-99726773D01*
X150082417Y-99694368D01*
X149843723Y-99694368D01*
X149623197Y-99785712D01*
X149454414Y-99954495D01*
X149363070Y-100175021D01*
X149363070Y-100413715D01*
X149454414Y-100634241D01*
X149540880Y-100720707D01*
X149540880Y-100787983D01*
X149315880Y-100787983D01*
X149198826Y-100811267D01*
X149190880Y-100816576D01*
X149182934Y-100811267D01*
X149065880Y-100787983D01*
X148815880Y-100787983D01*
X148698826Y-100811267D01*
X148599592Y-100877572D01*
X148533287Y-100976806D01*
X148510003Y-101093860D01*
X148510003Y-101672298D01*
X148140880Y-101303176D01*
X148140880Y-100842389D01*
X148249536Y-100733733D01*
X148340880Y-100513207D01*
X148340880Y-100274513D01*
X148249536Y-100053987D01*
X148080753Y-99885204D01*
X147860227Y-99793860D01*
X147834551Y-99793860D01*
X147744687Y-99703996D01*
X147773473Y-99660914D01*
X147796757Y-99543860D01*
X147796757Y-98943860D01*
X147773473Y-98826806D01*
X147707168Y-98727572D01*
X147661767Y-98697237D01*
X147745208Y-98613797D01*
X147790880Y-98503534D01*
X147790880Y-98368860D01*
X147715880Y-98293860D01*
X147365880Y-98293860D01*
X147365880Y-98317860D01*
X147115880Y-98317860D01*
X147115880Y-98293860D01*
X146765880Y-98293860D01*
X146690880Y-98368860D01*
X146690880Y-98503534D01*
X146736552Y-98613797D01*
X146819993Y-98697237D01*
X146774592Y-98727572D01*
X146708287Y-98826806D01*
X146685003Y-98943860D01*
X146685003Y-99543860D01*
X146708287Y-99660914D01*
X146750381Y-99723913D01*
X146750381Y-99845554D01*
X146740772Y-99893860D01*
X146778841Y-100085243D01*
X146859886Y-100206537D01*
X146859889Y-100206540D01*
X146887251Y-100247490D01*
X146928200Y-100274852D01*
X147140880Y-100487531D01*
X147140880Y-100513207D01*
X147232224Y-100733733D01*
X147340881Y-100842390D01*
X147340880Y-101429466D01*
X147333044Y-101468860D01*
X147347963Y-101543861D01*
X147364089Y-101624931D01*
X147452496Y-101757244D01*
X147485899Y-101779563D01*
X147650196Y-101943860D01*
X147389409Y-101943860D01*
X147280753Y-101835204D01*
X147060227Y-101743860D01*
X146821533Y-101743860D01*
X146640880Y-101818688D01*
X146640880Y-100033254D01*
X146648716Y-99993860D01*
X146627111Y-99885243D01*
X146617671Y-99837788D01*
X146529264Y-99705476D01*
X146495865Y-99683160D01*
X144875273Y-98062569D01*
X145071529Y-98143860D01*
X145310223Y-98143860D01*
X145530749Y-98052516D01*
X145699532Y-97883733D01*
X145740765Y-97784186D01*
X146690880Y-97784186D01*
X146690880Y-97918860D01*
X146765880Y-97993860D01*
X147115880Y-97993860D01*
X147115880Y-97618860D01*
X147365880Y-97618860D01*
X147365880Y-97993860D01*
X147715880Y-97993860D01*
X147790880Y-97918860D01*
X147790880Y-97784186D01*
X147745208Y-97673923D01*
X147660816Y-97589532D01*
X147550553Y-97543860D01*
X147440880Y-97543860D01*
X147365880Y-97618860D01*
X147115880Y-97618860D01*
X147040880Y-97543860D01*
X146931207Y-97543860D01*
X146820944Y-97589532D01*
X146736552Y-97673923D01*
X146690880Y-97784186D01*
X145740765Y-97784186D01*
X145790876Y-97663207D01*
X145790876Y-97569028D01*
X145971533Y-97643858D01*
X146210227Y-97643858D01*
X146430753Y-97552514D01*
X146599536Y-97383731D01*
X146690880Y-97163205D01*
X146690880Y-96924511D01*
X146599536Y-96703985D01*
X146529091Y-96633540D01*
X146534168Y-96630148D01*
X146600473Y-96530914D01*
X146623757Y-96413860D01*
X146623757Y-96024993D01*
X146686206Y-96050860D01*
X147016880Y-96050860D01*
X147091880Y-95975860D01*
X147091880Y-95687360D01*
X147399880Y-95687360D01*
X147399880Y-95975860D01*
X147474880Y-96050860D01*
X147805554Y-96050860D01*
X147915817Y-96005188D01*
X148000208Y-95920796D01*
X148045880Y-95810533D01*
X148045880Y-95762360D01*
X147970880Y-95687360D01*
X147399880Y-95687360D01*
X147091880Y-95687360D01*
X147071880Y-95687360D01*
X147071880Y-95560360D01*
X147091880Y-95560360D01*
X147091880Y-95556737D01*
X147399880Y-95556737D01*
X147399880Y-95560360D01*
X147970880Y-95560360D01*
X148007380Y-95523860D01*
X148385003Y-95523860D01*
X148385003Y-95543860D01*
G36*
X141234082Y-86212819D02*
X141195554Y-86196860D01*
X140864880Y-86196860D01*
X140789880Y-86271860D01*
X140789880Y-86560360D01*
X140809880Y-86560360D01*
X140809880Y-86687360D01*
X140789880Y-86687360D01*
X140789880Y-87060360D01*
X140809880Y-87060360D01*
X140809880Y-87187360D01*
X140789880Y-87187360D01*
X140789880Y-87190983D01*
X140481880Y-87190983D01*
X140481880Y-87187360D01*
X139910880Y-87187360D01*
X139835880Y-87262360D01*
X139835880Y-87310533D01*
X139860254Y-87369378D01*
X139853287Y-87379806D01*
X139830003Y-87496860D01*
X139830003Y-87750860D01*
X139853287Y-87867914D01*
X139860254Y-87878342D01*
X139835880Y-87937187D01*
X139835880Y-87985360D01*
X139910880Y-88060360D01*
X140481880Y-88060360D01*
X140481880Y-88056737D01*
X140789880Y-88056737D01*
X140789880Y-88060360D01*
X140809880Y-88060360D01*
X140809880Y-88187360D01*
X140789880Y-88187360D01*
X140789880Y-88190983D01*
X140481880Y-88190983D01*
X140481880Y-88187360D01*
X139910880Y-88187360D01*
X139835880Y-88262360D01*
X139835880Y-88310533D01*
X139860254Y-88369378D01*
X139853287Y-88379806D01*
X139830003Y-88496860D01*
X139830003Y-88750860D01*
X139853287Y-88867914D01*
X139860254Y-88878342D01*
X139835880Y-88937187D01*
X139835880Y-88985360D01*
X139910880Y-89060360D01*
X140481880Y-89060360D01*
X140481880Y-89056737D01*
X140789880Y-89056737D01*
X140789880Y-89060360D01*
X140809880Y-89060360D01*
X140809880Y-89187360D01*
X140789880Y-89187360D01*
X140789880Y-89190983D01*
X140481880Y-89190983D01*
X140481880Y-89187360D01*
X139982970Y-89187360D01*
X139979078Y-89183468D01*
X139758552Y-89092124D01*
X139519858Y-89092124D01*
X139496757Y-89101693D01*
X139496757Y-88643860D01*
X139473473Y-88526806D01*
X139418051Y-88443860D01*
X139473473Y-88360914D01*
X139496757Y-88243860D01*
X139496757Y-87743860D01*
X139473473Y-87626806D01*
X139407168Y-87527572D01*
X139307934Y-87461267D01*
X139190880Y-87437983D01*
X138590880Y-87437983D01*
X138473826Y-87461267D01*
X138374592Y-87527572D01*
X138344257Y-87572973D01*
X138260817Y-87489532D01*
X138150554Y-87443860D01*
X138015880Y-87443860D01*
X137940880Y-87518860D01*
X137940880Y-87868860D01*
X137964880Y-87868860D01*
X137964880Y-88118860D01*
X137940880Y-88118860D01*
X137940880Y-88768860D01*
X137964880Y-88768860D01*
X137964880Y-89018860D01*
X137940880Y-89018860D01*
X137940880Y-89067860D01*
X137640880Y-89067860D01*
X137640880Y-89018860D01*
X137265880Y-89018860D01*
X137190880Y-89093860D01*
X137190880Y-89203533D01*
X137236552Y-89313796D01*
X137264873Y-89342117D01*
X137208287Y-89426806D01*
X137185003Y-89543860D01*
X137185003Y-90043860D01*
X137208287Y-90160914D01*
X137263709Y-90243860D01*
X137208287Y-90326806D01*
X137185003Y-90443860D01*
X137185003Y-90943860D01*
X137208287Y-91060914D01*
X137274592Y-91160148D01*
X137373826Y-91226453D01*
X137390174Y-91229705D01*
X137414089Y-91349931D01*
X137417690Y-91355320D01*
X137502497Y-91482244D01*
X137535896Y-91504560D01*
X137590880Y-91559544D01*
X137590880Y-91713207D01*
X137682224Y-91933733D01*
X137792351Y-92043860D01*
X137706878Y-92043860D01*
X137706878Y-92114858D01*
X137635880Y-92043860D01*
X137501206Y-92043860D01*
X137390943Y-92089532D01*
X137306552Y-92173924D01*
X137260880Y-92284187D01*
X137260880Y-92393860D01*
X137335880Y-92468860D01*
X137710880Y-92468860D01*
X137710880Y-92419860D01*
X138010880Y-92419860D01*
X138010880Y-92468860D01*
X138034880Y-92468860D01*
X138034880Y-92718860D01*
X138010880Y-92718860D01*
X138010880Y-92998860D01*
X137990880Y-93018860D01*
X137990880Y-93368860D01*
X138014880Y-93368860D01*
X138014880Y-93618860D01*
X137990880Y-93618860D01*
X137990880Y-93667860D01*
X137690880Y-93667860D01*
X137690880Y-93618860D01*
X137315880Y-93618860D01*
X137240880Y-93693860D01*
X137240880Y-93803533D01*
X137286552Y-93913796D01*
X137320868Y-93948112D01*
X137290300Y-93993860D01*
X135430272Y-93993860D01*
X135390879Y-93986024D01*
X135351486Y-93993860D01*
X135234808Y-94017069D01*
X135102496Y-94105476D01*
X135080181Y-94138873D01*
X135072982Y-94146072D01*
X135007168Y-94047572D01*
X134907934Y-93981267D01*
X134790880Y-93957983D01*
X134140880Y-93957983D01*
X134023826Y-93981267D01*
X133992733Y-94002042D01*
X133900553Y-93963860D01*
X133744880Y-93963860D01*
X133669880Y-94038860D01*
X133669880Y-94639860D01*
X133689880Y-94639860D01*
X133689880Y-94947860D01*
X133669880Y-94947860D01*
X133669880Y-95548860D01*
X133702880Y-95581860D01*
X133665880Y-95618860D01*
X133665880Y-95968860D01*
X133689880Y-95968860D01*
X133689880Y-96218860D01*
X133665880Y-96218860D01*
X133665880Y-96568860D01*
X133740880Y-96643860D01*
X133875554Y-96643860D01*
X133925381Y-96623221D01*
X133925381Y-97297841D01*
X133899592Y-97315072D01*
X133833287Y-97414306D01*
X133810003Y-97531360D01*
X133810003Y-97815860D01*
X132942409Y-97815860D01*
X133049536Y-97708733D01*
X133140880Y-97488207D01*
X133140880Y-97249513D01*
X133049536Y-97028987D01*
X132880753Y-96860204D01*
X132660227Y-96768860D01*
X132421533Y-96768860D01*
X132201007Y-96860204D01*
X132067351Y-96993860D01*
X131876460Y-96993860D01*
X131832168Y-96927572D01*
X131732934Y-96861267D01*
X131615880Y-96837983D01*
X131546021Y-96837983D01*
X131595208Y-96788797D01*
X131640880Y-96678534D01*
X131640880Y-96447860D01*
X131565880Y-96372860D01*
X131169880Y-96372860D01*
X131169880Y-96392860D01*
X130861880Y-96392860D01*
X130861880Y-96372860D01*
X130841880Y-96372860D01*
X130841880Y-96293860D01*
X132915880Y-96293860D01*
X132915880Y-96403533D01*
X132961552Y-96513796D01*
X133045943Y-96598188D01*
X133156206Y-96643860D01*
X133290880Y-96643860D01*
X133365880Y-96568860D01*
X133365880Y-96218860D01*
X132990880Y-96218860D01*
X132915880Y-96293860D01*
X130841880Y-96293860D01*
X130841880Y-96064860D01*
X130861880Y-96064860D01*
X130861880Y-95593860D01*
X131169880Y-95593860D01*
X131169880Y-96064860D01*
X131565880Y-96064860D01*
X131640880Y-95989860D01*
X131640880Y-95759186D01*
X131595208Y-95648923D01*
X131510816Y-95564532D01*
X131400553Y-95518860D01*
X131244880Y-95518860D01*
X131169880Y-95593860D01*
X130861880Y-95593860D01*
X130786880Y-95518860D01*
X130631207Y-95518860D01*
X130595266Y-95533747D01*
X130490880Y-95512983D01*
X129840880Y-95512983D01*
X129723826Y-95536267D01*
X129624592Y-95602572D01*
X129558287Y-95701806D01*
X129535003Y-95818860D01*
X129535003Y-96618860D01*
X129558287Y-96735914D01*
X129624592Y-96835148D01*
X129723826Y-96901453D01*
X129735274Y-96903730D01*
X129699592Y-96927572D01*
X129633287Y-97026806D01*
X129610003Y-97143860D01*
X129610003Y-97643860D01*
X129633287Y-97760914D01*
X129699592Y-97860148D01*
X129798826Y-97926453D01*
X129915880Y-97949737D01*
X130515880Y-97949737D01*
X130632934Y-97926453D01*
X130732168Y-97860148D01*
X130765880Y-97809694D01*
X130799592Y-97860148D01*
X130898826Y-97926453D01*
X131015880Y-97949737D01*
X131054229Y-97949737D01*
X131049750Y-97952730D01*
X131022388Y-97993680D01*
X131003085Y-98012983D01*
X130615880Y-98012983D01*
X130498826Y-98036267D01*
X130399592Y-98102572D01*
X130333287Y-98201806D01*
X130310003Y-98318860D01*
X130310003Y-98937245D01*
X128076040Y-98942886D01*
X128076040Y-94624513D01*
X128715880Y-94624513D01*
X128715880Y-94863207D01*
X128807224Y-95083733D01*
X128976007Y-95252516D01*
X129196533Y-95343860D01*
X129435227Y-95343860D01*
X129588103Y-95280537D01*
X129624592Y-95335148D01*
X129723826Y-95401453D01*
X129840880Y-95424737D01*
X130490880Y-95424737D01*
X130590880Y-95404845D01*
X130690880Y-95424737D01*
X131340880Y-95424737D01*
X131457934Y-95401453D01*
X131557168Y-95335148D01*
X131623473Y-95235914D01*
X131646757Y-95118860D01*
X131646757Y-94318860D01*
X131623473Y-94201806D01*
X131557168Y-94102572D01*
X131530413Y-94084695D01*
X131576486Y-94093860D01*
X131576487Y-94093860D01*
X131615879Y-94101696D01*
X131655272Y-94093860D01*
X131993664Y-94093860D01*
X131958287Y-94146806D01*
X131935003Y-94263860D01*
X131935003Y-95323860D01*
X131958287Y-95440914D01*
X132024592Y-95540148D01*
X132123826Y-95606453D01*
X132240880Y-95629737D01*
X132890880Y-95629737D01*
X133007934Y-95606453D01*
X133039027Y-95585678D01*
X133047137Y-95589037D01*
X133045943Y-95589532D01*
X132961552Y-95673924D01*
X132915880Y-95784187D01*
X132915880Y-95893860D01*
X132990880Y-95968860D01*
X133365880Y-95968860D01*
X133365880Y-95618860D01*
X133328880Y-95581860D01*
X133361880Y-95548860D01*
X133361880Y-94947860D01*
X133341880Y-94947860D01*
X133341880Y-94639860D01*
X133361880Y-94639860D01*
X133361880Y-94038860D01*
X133286880Y-93963860D01*
X133131207Y-93963860D01*
X133067558Y-93990224D01*
X133140880Y-93813207D01*
X133140880Y-93574513D01*
X133057539Y-93373308D01*
X133107168Y-93340148D01*
X133173473Y-93240914D01*
X133196757Y-93123860D01*
X133196757Y-92063860D01*
X133173473Y-91946806D01*
X133107168Y-91847572D01*
X133007934Y-91781267D01*
X132890880Y-91757983D01*
X132240880Y-91757983D01*
X132123826Y-91781267D01*
X132024592Y-91847572D01*
X131958287Y-91946806D01*
X131935003Y-92063860D01*
X131935003Y-92093860D01*
X131876460Y-92093860D01*
X131832168Y-92027572D01*
X131732934Y-91961267D01*
X131615880Y-91937983D01*
X131015880Y-91937983D01*
X130898826Y-91961267D01*
X130799592Y-92027572D01*
X130769257Y-92072973D01*
X130685817Y-91989532D01*
X130575554Y-91943860D01*
X130440880Y-91943860D01*
X130365880Y-92018860D01*
X130365880Y-92368860D01*
X130389880Y-92368860D01*
X130389880Y-92618860D01*
X130365880Y-92618860D01*
X130365880Y-92667860D01*
X130065880Y-92667860D01*
X130065880Y-92618860D01*
X129690880Y-92618860D01*
X129615880Y-92693860D01*
X129615880Y-92803533D01*
X129661552Y-92913796D01*
X129689873Y-92942117D01*
X129633287Y-93026806D01*
X129610003Y-93143860D01*
X129610003Y-93643860D01*
X129633287Y-93760914D01*
X129699592Y-93860148D01*
X129798826Y-93926453D01*
X129915880Y-93949737D01*
X130206073Y-93949737D01*
X130269319Y-94012983D01*
X129840880Y-94012983D01*
X129723826Y-94036267D01*
X129624592Y-94102572D01*
X129561936Y-94196344D01*
X129435227Y-94143860D01*
X129196533Y-94143860D01*
X128976007Y-94235204D01*
X128807224Y-94403987D01*
X128715880Y-94624513D01*
X128076040Y-94624513D01*
X128076040Y-92184187D01*
X129615880Y-92184187D01*
X129615880Y-92293860D01*
X129690880Y-92368860D01*
X130065880Y-92368860D01*
X130065880Y-92018860D01*
X129990880Y-91943860D01*
X129856206Y-91943860D01*
X129745943Y-91989532D01*
X129661552Y-92073924D01*
X129615880Y-92184187D01*
X128076040Y-92184187D01*
X128076040Y-90624647D01*
X128384220Y-90624647D01*
X128384220Y-91155320D01*
X128429892Y-91265583D01*
X128514283Y-91349975D01*
X128624546Y-91395647D01*
X129255220Y-91395647D01*
X129330220Y-91320647D01*
X129330220Y-90549647D01*
X129638220Y-90549647D01*
X129638220Y-91320647D01*
X129713220Y-91395647D01*
X130343894Y-91395647D01*
X130454157Y-91349975D01*
X130538548Y-91265583D01*
X130584220Y-91155320D01*
X130584220Y-90849647D01*
X130884220Y-90849647D01*
X130884220Y-91355320D01*
X130929892Y-91465583D01*
X131014283Y-91549975D01*
X131124546Y-91595647D01*
X131209220Y-91595647D01*
X131284220Y-91520647D01*
X131284220Y-90774647D01*
X130959220Y-90774647D01*
X130884220Y-90849647D01*
X130584220Y-90849647D01*
X130584220Y-90624647D01*
X130509220Y-90549647D01*
X129638220Y-90549647D01*
X129330220Y-90549647D01*
X128459220Y-90549647D01*
X128384220Y-90624647D01*
X128076040Y-90624647D01*
X128076040Y-89635974D01*
X128384220Y-89635974D01*
X128384220Y-90166647D01*
X128459220Y-90241647D01*
X129330220Y-90241647D01*
X129330220Y-89470647D01*
X129638220Y-89470647D01*
X129638220Y-90241647D01*
X130509220Y-90241647D01*
X130584220Y-90166647D01*
X130584220Y-89885974D01*
X130884220Y-89885974D01*
X130884220Y-90391647D01*
X130959220Y-90466647D01*
X131284220Y-90466647D01*
X131284220Y-89720647D01*
X131484220Y-89720647D01*
X131484220Y-90466647D01*
X131528343Y-90466647D01*
X131528343Y-90774647D01*
X131484220Y-90774647D01*
X131484220Y-91520647D01*
X131559220Y-91595647D01*
X131643894Y-91595647D01*
X131705208Y-91570250D01*
X131717166Y-91578240D01*
X131834220Y-91601524D01*
X132234220Y-91601524D01*
X132351274Y-91578240D01*
X132359220Y-91572931D01*
X132367166Y-91578240D01*
X132484220Y-91601524D01*
X132884220Y-91601524D01*
X133001274Y-91578240D01*
X133009220Y-91572931D01*
X133017166Y-91578240D01*
X133134220Y-91601524D01*
X133493721Y-91601524D01*
X133493721Y-92040922D01*
X133484199Y-92084519D01*
X133493721Y-92137548D01*
X133493721Y-92142167D01*
X133502247Y-92185031D01*
X133518686Y-92276579D01*
X133521254Y-92280582D01*
X133522181Y-92285243D01*
X133573816Y-92362520D01*
X133597452Y-92399366D01*
X133600662Y-92402699D01*
X133630591Y-92447490D01*
X133667691Y-92472279D01*
X133835003Y-92645962D01*
X133835003Y-93123860D01*
X133858287Y-93240914D01*
X133924592Y-93340148D01*
X134023826Y-93406453D01*
X134140880Y-93429737D01*
X134790880Y-93429737D01*
X134907934Y-93406453D01*
X135007168Y-93340148D01*
X135073473Y-93240914D01*
X135096757Y-93123860D01*
X135096757Y-93023266D01*
X135176007Y-93102516D01*
X135396533Y-93193860D01*
X135635227Y-93193860D01*
X135658579Y-93184187D01*
X137240880Y-93184187D01*
X137240880Y-93293860D01*
X137315880Y-93368860D01*
X137690880Y-93368860D01*
X137690880Y-93088860D01*
X137710880Y-93068860D01*
X137710880Y-92718860D01*
X137335880Y-92718860D01*
X137260880Y-92793860D01*
X137260880Y-92903533D01*
X137306552Y-93013796D01*
X137326616Y-93033860D01*
X137286552Y-93073924D01*
X137240880Y-93184187D01*
X135658579Y-93184187D01*
X135855753Y-93102516D01*
X136024536Y-92933733D01*
X136115880Y-92713207D01*
X136115880Y-92474513D01*
X136024536Y-92253987D01*
X135855753Y-92085204D01*
X135635227Y-91993860D01*
X135396533Y-91993860D01*
X135176007Y-92085204D01*
X135096757Y-92164454D01*
X135096757Y-92063860D01*
X135073473Y-91946806D01*
X135007168Y-91847572D01*
X134907934Y-91781267D01*
X134790880Y-91757983D01*
X134474720Y-91757983D01*
X134474720Y-91372951D01*
X134490097Y-91295647D01*
X134490097Y-90624647D01*
X134784220Y-90624647D01*
X134784220Y-91155320D01*
X134829892Y-91265583D01*
X134914283Y-91349975D01*
X135024546Y-91395647D01*
X135655220Y-91395647D01*
X135730220Y-91320647D01*
X135730220Y-90549647D01*
X136038220Y-90549647D01*
X136038220Y-91320647D01*
X136113220Y-91395647D01*
X136743894Y-91395647D01*
X136854157Y-91349975D01*
X136938548Y-91265583D01*
X136984220Y-91155320D01*
X136984220Y-90624647D01*
X136909220Y-90549647D01*
X136038220Y-90549647D01*
X135730220Y-90549647D01*
X134859220Y-90549647D01*
X134784220Y-90624647D01*
X134490097Y-90624647D01*
X134490097Y-89945647D01*
X134466813Y-89828593D01*
X134400508Y-89729359D01*
X134301274Y-89663054D01*
X134184220Y-89639770D01*
X133784220Y-89639770D01*
X133667166Y-89663054D01*
X133659220Y-89668363D01*
X133651274Y-89663054D01*
X133534220Y-89639770D01*
X133134220Y-89639770D01*
X133017166Y-89663054D01*
X133009220Y-89668363D01*
X133001274Y-89663054D01*
X132884220Y-89639770D01*
X132484220Y-89639770D01*
X132367166Y-89663054D01*
X132359220Y-89668363D01*
X132351274Y-89663054D01*
X132234220Y-89639770D01*
X131834220Y-89639770D01*
X131717166Y-89663054D01*
X131705208Y-89671044D01*
X131643894Y-89645647D01*
X131559220Y-89645647D01*
X131484220Y-89720647D01*
X131284220Y-89720647D01*
X131209220Y-89645647D01*
X131124546Y-89645647D01*
X131014283Y-89691319D01*
X130929892Y-89775711D01*
X130884220Y-89885974D01*
X130584220Y-89885974D01*
X130584220Y-89635974D01*
X134784220Y-89635974D01*
X134784220Y-90166647D01*
X134859220Y-90241647D01*
X135730220Y-90241647D01*
X135730220Y-89470647D01*
X136038220Y-89470647D01*
X136038220Y-90241647D01*
X136909220Y-90241647D01*
X136984220Y-90166647D01*
X136984220Y-89635974D01*
X136938548Y-89525711D01*
X136854157Y-89441319D01*
X136743894Y-89395647D01*
X136113220Y-89395647D01*
X136038220Y-89470647D01*
X135730220Y-89470647D01*
X135655220Y-89395647D01*
X135024546Y-89395647D01*
X134914283Y-89441319D01*
X134829892Y-89525711D01*
X134784220Y-89635974D01*
X130584220Y-89635974D01*
X130538548Y-89525711D01*
X130454157Y-89441319D01*
X130343894Y-89395647D01*
X129713220Y-89395647D01*
X129638220Y-89470647D01*
X129330220Y-89470647D01*
X129255220Y-89395647D01*
X128624546Y-89395647D01*
X128514283Y-89441319D01*
X128429892Y-89525711D01*
X128384220Y-89635974D01*
X128076040Y-89635974D01*
X128076040Y-89528549D01*
X128068835Y-89492327D01*
X128068835Y-89492322D01*
X128030166Y-89297918D01*
X127991070Y-89203533D01*
X127974172Y-89162738D01*
X127864051Y-88997931D01*
X127799218Y-88933098D01*
X127760590Y-88894469D01*
X127595782Y-88784348D01*
X127460603Y-88728355D01*
X127460602Y-88728355D01*
X127266199Y-88689685D01*
X127266193Y-88689685D01*
X127229971Y-88682480D01*
X126561880Y-88682480D01*
X126561880Y-88516860D01*
X126486880Y-88441860D01*
X125915880Y-88441860D01*
X125915880Y-88461860D01*
X125607880Y-88461860D01*
X125607880Y-88441860D01*
X125036880Y-88441860D01*
X125024025Y-88454715D01*
X124821629Y-88252319D01*
X128432405Y-88252319D01*
X128494321Y-88401842D01*
X128736639Y-88707666D01*
X129077545Y-88897479D01*
X129230220Y-88858735D01*
X129230220Y-88099647D01*
X129538220Y-88099647D01*
X129538220Y-88858735D01*
X129690895Y-88897479D01*
X130031801Y-88707666D01*
X130234220Y-88452198D01*
X130234220Y-88955320D01*
X130279892Y-89065583D01*
X130364283Y-89149975D01*
X130474546Y-89195647D01*
X131255220Y-89195647D01*
X131330220Y-89120647D01*
X131330220Y-88099647D01*
X131638220Y-88099647D01*
X131638220Y-89120647D01*
X131713220Y-89195647D01*
X132493894Y-89195647D01*
X132604157Y-89149975D01*
X132684220Y-89069911D01*
X132764283Y-89149975D01*
X132874546Y-89195647D01*
X133655220Y-89195647D01*
X133730220Y-89120647D01*
X133730220Y-88099647D01*
X134038220Y-88099647D01*
X134038220Y-89120647D01*
X134113220Y-89195647D01*
X134893894Y-89195647D01*
X135004157Y-89149975D01*
X135088548Y-89065583D01*
X135134220Y-88955320D01*
X135134220Y-88452198D01*
X135336639Y-88707666D01*
X135677545Y-88897479D01*
X135830220Y-88858735D01*
X135830220Y-88099647D01*
X136138220Y-88099647D01*
X136138220Y-88858735D01*
X136290895Y-88897479D01*
X136631801Y-88707666D01*
X136874119Y-88401842D01*
X136936035Y-88252319D01*
X136920825Y-88193860D01*
X137190880Y-88193860D01*
X137190880Y-88303533D01*
X137236552Y-88413796D01*
X137266616Y-88443860D01*
X137236552Y-88473924D01*
X137190880Y-88584187D01*
X137190880Y-88693860D01*
X137265880Y-88768860D01*
X137640880Y-88768860D01*
X137640880Y-88118860D01*
X137265880Y-88118860D01*
X137190880Y-88193860D01*
X136920825Y-88193860D01*
X136896310Y-88099647D01*
X136138220Y-88099647D01*
X135830220Y-88099647D01*
X135072130Y-88099647D01*
X135069464Y-88109891D01*
X135059220Y-88099647D01*
X134038220Y-88099647D01*
X133730220Y-88099647D01*
X132709220Y-88099647D01*
X132684220Y-88124647D01*
X132659220Y-88099647D01*
X131638220Y-88099647D01*
X131330220Y-88099647D01*
X130309220Y-88099647D01*
X130298976Y-88109891D01*
X130296310Y-88099647D01*
X129538220Y-88099647D01*
X129230220Y-88099647D01*
X128472130Y-88099647D01*
X128432405Y-88252319D01*
X124821629Y-88252319D01*
X124791515Y-88222205D01*
X124447863Y-88079860D01*
X124075897Y-88079860D01*
X123732245Y-88222205D01*
X123499735Y-88454715D01*
X123486880Y-88441860D01*
X122915880Y-88441860D01*
X122915880Y-88461860D01*
X122607880Y-88461860D01*
X122607880Y-88441860D01*
X122036880Y-88441860D01*
X121961880Y-88516860D01*
X121961880Y-88674860D01*
X121758812Y-88674860D01*
X121723003Y-88667737D01*
X121720033Y-88652804D01*
X121787755Y-88049045D01*
X121961880Y-87549027D01*
X121961880Y-88058860D01*
X122036880Y-88133860D01*
X122607880Y-88133860D01*
X122607880Y-87262860D01*
X122915880Y-87262860D01*
X122915880Y-88133860D01*
X123486880Y-88133860D01*
X123561880Y-88058860D01*
X123561880Y-87428187D01*
X124961880Y-87428187D01*
X124961880Y-88058860D01*
X125036880Y-88133860D01*
X125607880Y-88133860D01*
X125607880Y-87262860D01*
X125915880Y-87262860D01*
X125915880Y-88133860D01*
X126486880Y-88133860D01*
X126561880Y-88058860D01*
X126561880Y-87638975D01*
X128432405Y-87638975D01*
X128472130Y-87791647D01*
X129230220Y-87791647D01*
X129230220Y-87032559D01*
X129538220Y-87032559D01*
X129538220Y-87791647D01*
X130296310Y-87791647D01*
X130298976Y-87781403D01*
X130309220Y-87791647D01*
X131330220Y-87791647D01*
X131330220Y-86770647D01*
X131638220Y-86770647D01*
X131638220Y-87791647D01*
X132659220Y-87791647D01*
X132684220Y-87766647D01*
X132709220Y-87791647D01*
X133730220Y-87791647D01*
X133730220Y-86770647D01*
X134038220Y-86770647D01*
X134038220Y-87791647D01*
X135059220Y-87791647D01*
X135069464Y-87781403D01*
X135072130Y-87791647D01*
X135830220Y-87791647D01*
X135830220Y-87032559D01*
X136138220Y-87032559D01*
X136138220Y-87791647D01*
X136896310Y-87791647D01*
X136924270Y-87684187D01*
X137190880Y-87684187D01*
X137190880Y-87793860D01*
X137265880Y-87868860D01*
X137640880Y-87868860D01*
X137640880Y-87518860D01*
X137565880Y-87443860D01*
X137431206Y-87443860D01*
X137320943Y-87489532D01*
X137236552Y-87573924D01*
X137190880Y-87684187D01*
X136924270Y-87684187D01*
X136936035Y-87638975D01*
X136874119Y-87489452D01*
X136631801Y-87183628D01*
X136290895Y-86993815D01*
X136138220Y-87032559D01*
X135830220Y-87032559D01*
X135677545Y-86993815D01*
X135336639Y-87183628D01*
X135134220Y-87439096D01*
X135134220Y-86935974D01*
X135088548Y-86825711D01*
X135025198Y-86762360D01*
X139835880Y-86762360D01*
X139835880Y-86810533D01*
X139862111Y-86873860D01*
X139835880Y-86937187D01*
X139835880Y-86985360D01*
X139910880Y-87060360D01*
X140481880Y-87060360D01*
X140481880Y-86687360D01*
X139910880Y-86687360D01*
X139835880Y-86762360D01*
X135025198Y-86762360D01*
X135004157Y-86741319D01*
X134893894Y-86695647D01*
X134113220Y-86695647D01*
X134038220Y-86770647D01*
X133730220Y-86770647D01*
X133655220Y-86695647D01*
X132874546Y-86695647D01*
X132764283Y-86741319D01*
X132684220Y-86821383D01*
X132604157Y-86741319D01*
X132493894Y-86695647D01*
X131713220Y-86695647D01*
X131638220Y-86770647D01*
X131330220Y-86770647D01*
X131255220Y-86695647D01*
X130474546Y-86695647D01*
X130364283Y-86741319D01*
X130279892Y-86825711D01*
X130234220Y-86935974D01*
X130234220Y-87439096D01*
X130031801Y-87183628D01*
X129690895Y-86993815D01*
X129538220Y-87032559D01*
X129230220Y-87032559D01*
X129077545Y-86993815D01*
X128736639Y-87183628D01*
X128494321Y-87489452D01*
X128432405Y-87638975D01*
X126561880Y-87638975D01*
X126561880Y-87428187D01*
X126516208Y-87317924D01*
X126431817Y-87233532D01*
X126321554Y-87187860D01*
X125990880Y-87187860D01*
X125915880Y-87262860D01*
X125607880Y-87262860D01*
X125532880Y-87187860D01*
X125202206Y-87187860D01*
X125091943Y-87233532D01*
X125007552Y-87317924D01*
X124961880Y-87428187D01*
X123561880Y-87428187D01*
X123516208Y-87317924D01*
X123431817Y-87233532D01*
X123321554Y-87187860D01*
X122990880Y-87187860D01*
X122915880Y-87262860D01*
X122607880Y-87262860D01*
X122532880Y-87187860D01*
X122202206Y-87187860D01*
X122149234Y-87209802D01*
X122323381Y-86931107D01*
X122762863Y-86488546D01*
X122843791Y-86437187D01*
X139835880Y-86437187D01*
X139835880Y-86485360D01*
X139910880Y-86560360D01*
X140481880Y-86560360D01*
X140481880Y-86271860D01*
X140406880Y-86196860D01*
X140076206Y-86196860D01*
X139965943Y-86242532D01*
X139881552Y-86326924D01*
X139835880Y-86437187D01*
X122843791Y-86437187D01*
X123289471Y-86154351D01*
X123877036Y-85945128D01*
X124516638Y-85868860D01*
X141237332Y-85868860D01*
X141234082Y-86212819D01*
X141234082Y-86212819D01*
G37*
X141234082Y-86212819D02*
X141195554Y-86196860D01*
X140864880Y-86196860D01*
X140789880Y-86271860D01*
X140789880Y-86560360D01*
X140809880Y-86560360D01*
X140809880Y-86687360D01*
X140789880Y-86687360D01*
X140789880Y-87060360D01*
X140809880Y-87060360D01*
X140809880Y-87187360D01*
X140789880Y-87187360D01*
X140789880Y-87190983D01*
X140481880Y-87190983D01*
X140481880Y-87187360D01*
X139910880Y-87187360D01*
X139835880Y-87262360D01*
X139835880Y-87310533D01*
X139860254Y-87369378D01*
X139853287Y-87379806D01*
X139830003Y-87496860D01*
X139830003Y-87750860D01*
X139853287Y-87867914D01*
X139860254Y-87878342D01*
X139835880Y-87937187D01*
X139835880Y-87985360D01*
X139910880Y-88060360D01*
X140481880Y-88060360D01*
X140481880Y-88056737D01*
X140789880Y-88056737D01*
X140789880Y-88060360D01*
X140809880Y-88060360D01*
X140809880Y-88187360D01*
X140789880Y-88187360D01*
X140789880Y-88190983D01*
X140481880Y-88190983D01*
X140481880Y-88187360D01*
X139910880Y-88187360D01*
X139835880Y-88262360D01*
X139835880Y-88310533D01*
X139860254Y-88369378D01*
X139853287Y-88379806D01*
X139830003Y-88496860D01*
X139830003Y-88750860D01*
X139853287Y-88867914D01*
X139860254Y-88878342D01*
X139835880Y-88937187D01*
X139835880Y-88985360D01*
X139910880Y-89060360D01*
X140481880Y-89060360D01*
X140481880Y-89056737D01*
X140789880Y-89056737D01*
X140789880Y-89060360D01*
X140809880Y-89060360D01*
X140809880Y-89187360D01*
X140789880Y-89187360D01*
X140789880Y-89190983D01*
X140481880Y-89190983D01*
X140481880Y-89187360D01*
X139982970Y-89187360D01*
X139979078Y-89183468D01*
X139758552Y-89092124D01*
X139519858Y-89092124D01*
X139496757Y-89101693D01*
X139496757Y-88643860D01*
X139473473Y-88526806D01*
X139418051Y-88443860D01*
X139473473Y-88360914D01*
X139496757Y-88243860D01*
X139496757Y-87743860D01*
X139473473Y-87626806D01*
X139407168Y-87527572D01*
X139307934Y-87461267D01*
X139190880Y-87437983D01*
X138590880Y-87437983D01*
X138473826Y-87461267D01*
X138374592Y-87527572D01*
X138344257Y-87572973D01*
X138260817Y-87489532D01*
X138150554Y-87443860D01*
X138015880Y-87443860D01*
X137940880Y-87518860D01*
X137940880Y-87868860D01*
X137964880Y-87868860D01*
X137964880Y-88118860D01*
X137940880Y-88118860D01*
X137940880Y-88768860D01*
X137964880Y-88768860D01*
X137964880Y-89018860D01*
X137940880Y-89018860D01*
X137940880Y-89067860D01*
X137640880Y-89067860D01*
X137640880Y-89018860D01*
X137265880Y-89018860D01*
X137190880Y-89093860D01*
X137190880Y-89203533D01*
X137236552Y-89313796D01*
X137264873Y-89342117D01*
X137208287Y-89426806D01*
X137185003Y-89543860D01*
X137185003Y-90043860D01*
X137208287Y-90160914D01*
X137263709Y-90243860D01*
X137208287Y-90326806D01*
X137185003Y-90443860D01*
X137185003Y-90943860D01*
X137208287Y-91060914D01*
X137274592Y-91160148D01*
X137373826Y-91226453D01*
X137390174Y-91229705D01*
X137414089Y-91349931D01*
X137417690Y-91355320D01*
X137502497Y-91482244D01*
X137535896Y-91504560D01*
X137590880Y-91559544D01*
X137590880Y-91713207D01*
X137682224Y-91933733D01*
X137792351Y-92043860D01*
X137706878Y-92043860D01*
X137706878Y-92114858D01*
X137635880Y-92043860D01*
X137501206Y-92043860D01*
X137390943Y-92089532D01*
X137306552Y-92173924D01*
X137260880Y-92284187D01*
X137260880Y-92393860D01*
X137335880Y-92468860D01*
X137710880Y-92468860D01*
X137710880Y-92419860D01*
X138010880Y-92419860D01*
X138010880Y-92468860D01*
X138034880Y-92468860D01*
X138034880Y-92718860D01*
X138010880Y-92718860D01*
X138010880Y-92998860D01*
X137990880Y-93018860D01*
X137990880Y-93368860D01*
X138014880Y-93368860D01*
X138014880Y-93618860D01*
X137990880Y-93618860D01*
X137990880Y-93667860D01*
X137690880Y-93667860D01*
X137690880Y-93618860D01*
X137315880Y-93618860D01*
X137240880Y-93693860D01*
X137240880Y-93803533D01*
X137286552Y-93913796D01*
X137320868Y-93948112D01*
X137290300Y-93993860D01*
X135430272Y-93993860D01*
X135390879Y-93986024D01*
X135351486Y-93993860D01*
X135234808Y-94017069D01*
X135102496Y-94105476D01*
X135080181Y-94138873D01*
X135072982Y-94146072D01*
X135007168Y-94047572D01*
X134907934Y-93981267D01*
X134790880Y-93957983D01*
X134140880Y-93957983D01*
X134023826Y-93981267D01*
X133992733Y-94002042D01*
X133900553Y-93963860D01*
X133744880Y-93963860D01*
X133669880Y-94038860D01*
X133669880Y-94639860D01*
X133689880Y-94639860D01*
X133689880Y-94947860D01*
X133669880Y-94947860D01*
X133669880Y-95548860D01*
X133702880Y-95581860D01*
X133665880Y-95618860D01*
X133665880Y-95968860D01*
X133689880Y-95968860D01*
X133689880Y-96218860D01*
X133665880Y-96218860D01*
X133665880Y-96568860D01*
X133740880Y-96643860D01*
X133875554Y-96643860D01*
X133925381Y-96623221D01*
X133925381Y-97297841D01*
X133899592Y-97315072D01*
X133833287Y-97414306D01*
X133810003Y-97531360D01*
X133810003Y-97815860D01*
X132942409Y-97815860D01*
X133049536Y-97708733D01*
X133140880Y-97488207D01*
X133140880Y-97249513D01*
X133049536Y-97028987D01*
X132880753Y-96860204D01*
X132660227Y-96768860D01*
X132421533Y-96768860D01*
X132201007Y-96860204D01*
X132067351Y-96993860D01*
X131876460Y-96993860D01*
X131832168Y-96927572D01*
X131732934Y-96861267D01*
X131615880Y-96837983D01*
X131546021Y-96837983D01*
X131595208Y-96788797D01*
X131640880Y-96678534D01*
X131640880Y-96447860D01*
X131565880Y-96372860D01*
X131169880Y-96372860D01*
X131169880Y-96392860D01*
X130861880Y-96392860D01*
X130861880Y-96372860D01*
X130841880Y-96372860D01*
X130841880Y-96293860D01*
X132915880Y-96293860D01*
X132915880Y-96403533D01*
X132961552Y-96513796D01*
X133045943Y-96598188D01*
X133156206Y-96643860D01*
X133290880Y-96643860D01*
X133365880Y-96568860D01*
X133365880Y-96218860D01*
X132990880Y-96218860D01*
X132915880Y-96293860D01*
X130841880Y-96293860D01*
X130841880Y-96064860D01*
X130861880Y-96064860D01*
X130861880Y-95593860D01*
X131169880Y-95593860D01*
X131169880Y-96064860D01*
X131565880Y-96064860D01*
X131640880Y-95989860D01*
X131640880Y-95759186D01*
X131595208Y-95648923D01*
X131510816Y-95564532D01*
X131400553Y-95518860D01*
X131244880Y-95518860D01*
X131169880Y-95593860D01*
X130861880Y-95593860D01*
X130786880Y-95518860D01*
X130631207Y-95518860D01*
X130595266Y-95533747D01*
X130490880Y-95512983D01*
X129840880Y-95512983D01*
X129723826Y-95536267D01*
X129624592Y-95602572D01*
X129558287Y-95701806D01*
X129535003Y-95818860D01*
X129535003Y-96618860D01*
X129558287Y-96735914D01*
X129624592Y-96835148D01*
X129723826Y-96901453D01*
X129735274Y-96903730D01*
X129699592Y-96927572D01*
X129633287Y-97026806D01*
X129610003Y-97143860D01*
X129610003Y-97643860D01*
X129633287Y-97760914D01*
X129699592Y-97860148D01*
X129798826Y-97926453D01*
X129915880Y-97949737D01*
X130515880Y-97949737D01*
X130632934Y-97926453D01*
X130732168Y-97860148D01*
X130765880Y-97809694D01*
X130799592Y-97860148D01*
X130898826Y-97926453D01*
X131015880Y-97949737D01*
X131054229Y-97949737D01*
X131049750Y-97952730D01*
X131022388Y-97993680D01*
X131003085Y-98012983D01*
X130615880Y-98012983D01*
X130498826Y-98036267D01*
X130399592Y-98102572D01*
X130333287Y-98201806D01*
X130310003Y-98318860D01*
X130310003Y-98937245D01*
X128076040Y-98942886D01*
X128076040Y-94624513D01*
X128715880Y-94624513D01*
X128715880Y-94863207D01*
X128807224Y-95083733D01*
X128976007Y-95252516D01*
X129196533Y-95343860D01*
X129435227Y-95343860D01*
X129588103Y-95280537D01*
X129624592Y-95335148D01*
X129723826Y-95401453D01*
X129840880Y-95424737D01*
X130490880Y-95424737D01*
X130590880Y-95404845D01*
X130690880Y-95424737D01*
X131340880Y-95424737D01*
X131457934Y-95401453D01*
X131557168Y-95335148D01*
X131623473Y-95235914D01*
X131646757Y-95118860D01*
X131646757Y-94318860D01*
X131623473Y-94201806D01*
X131557168Y-94102572D01*
X131530413Y-94084695D01*
X131576486Y-94093860D01*
X131576487Y-94093860D01*
X131615879Y-94101696D01*
X131655272Y-94093860D01*
X131993664Y-94093860D01*
X131958287Y-94146806D01*
X131935003Y-94263860D01*
X131935003Y-95323860D01*
X131958287Y-95440914D01*
X132024592Y-95540148D01*
X132123826Y-95606453D01*
X132240880Y-95629737D01*
X132890880Y-95629737D01*
X133007934Y-95606453D01*
X133039027Y-95585678D01*
X133047137Y-95589037D01*
X133045943Y-95589532D01*
X132961552Y-95673924D01*
X132915880Y-95784187D01*
X132915880Y-95893860D01*
X132990880Y-95968860D01*
X133365880Y-95968860D01*
X133365880Y-95618860D01*
X133328880Y-95581860D01*
X133361880Y-95548860D01*
X133361880Y-94947860D01*
X133341880Y-94947860D01*
X133341880Y-94639860D01*
X133361880Y-94639860D01*
X133361880Y-94038860D01*
X133286880Y-93963860D01*
X133131207Y-93963860D01*
X133067558Y-93990224D01*
X133140880Y-93813207D01*
X133140880Y-93574513D01*
X133057539Y-93373308D01*
X133107168Y-93340148D01*
X133173473Y-93240914D01*
X133196757Y-93123860D01*
X133196757Y-92063860D01*
X133173473Y-91946806D01*
X133107168Y-91847572D01*
X133007934Y-91781267D01*
X132890880Y-91757983D01*
X132240880Y-91757983D01*
X132123826Y-91781267D01*
X132024592Y-91847572D01*
X131958287Y-91946806D01*
X131935003Y-92063860D01*
X131935003Y-92093860D01*
X131876460Y-92093860D01*
X131832168Y-92027572D01*
X131732934Y-91961267D01*
X131615880Y-91937983D01*
X131015880Y-91937983D01*
X130898826Y-91961267D01*
X130799592Y-92027572D01*
X130769257Y-92072973D01*
X130685817Y-91989532D01*
X130575554Y-91943860D01*
X130440880Y-91943860D01*
X130365880Y-92018860D01*
X130365880Y-92368860D01*
X130389880Y-92368860D01*
X130389880Y-92618860D01*
X130365880Y-92618860D01*
X130365880Y-92667860D01*
X130065880Y-92667860D01*
X130065880Y-92618860D01*
X129690880Y-92618860D01*
X129615880Y-92693860D01*
X129615880Y-92803533D01*
X129661552Y-92913796D01*
X129689873Y-92942117D01*
X129633287Y-93026806D01*
X129610003Y-93143860D01*
X129610003Y-93643860D01*
X129633287Y-93760914D01*
X129699592Y-93860148D01*
X129798826Y-93926453D01*
X129915880Y-93949737D01*
X130206073Y-93949737D01*
X130269319Y-94012983D01*
X129840880Y-94012983D01*
X129723826Y-94036267D01*
X129624592Y-94102572D01*
X129561936Y-94196344D01*
X129435227Y-94143860D01*
X129196533Y-94143860D01*
X128976007Y-94235204D01*
X128807224Y-94403987D01*
X128715880Y-94624513D01*
X128076040Y-94624513D01*
X128076040Y-92184187D01*
X129615880Y-92184187D01*
X129615880Y-92293860D01*
X129690880Y-92368860D01*
X130065880Y-92368860D01*
X130065880Y-92018860D01*
X129990880Y-91943860D01*
X129856206Y-91943860D01*
X129745943Y-91989532D01*
X129661552Y-92073924D01*
X129615880Y-92184187D01*
X128076040Y-92184187D01*
X128076040Y-90624647D01*
X128384220Y-90624647D01*
X128384220Y-91155320D01*
X128429892Y-91265583D01*
X128514283Y-91349975D01*
X128624546Y-91395647D01*
X129255220Y-91395647D01*
X129330220Y-91320647D01*
X129330220Y-90549647D01*
X129638220Y-90549647D01*
X129638220Y-91320647D01*
X129713220Y-91395647D01*
X130343894Y-91395647D01*
X130454157Y-91349975D01*
X130538548Y-91265583D01*
X130584220Y-91155320D01*
X130584220Y-90849647D01*
X130884220Y-90849647D01*
X130884220Y-91355320D01*
X130929892Y-91465583D01*
X131014283Y-91549975D01*
X131124546Y-91595647D01*
X131209220Y-91595647D01*
X131284220Y-91520647D01*
X131284220Y-90774647D01*
X130959220Y-90774647D01*
X130884220Y-90849647D01*
X130584220Y-90849647D01*
X130584220Y-90624647D01*
X130509220Y-90549647D01*
X129638220Y-90549647D01*
X129330220Y-90549647D01*
X128459220Y-90549647D01*
X128384220Y-90624647D01*
X128076040Y-90624647D01*
X128076040Y-89635974D01*
X128384220Y-89635974D01*
X128384220Y-90166647D01*
X128459220Y-90241647D01*
X129330220Y-90241647D01*
X129330220Y-89470647D01*
X129638220Y-89470647D01*
X129638220Y-90241647D01*
X130509220Y-90241647D01*
X130584220Y-90166647D01*
X130584220Y-89885974D01*
X130884220Y-89885974D01*
X130884220Y-90391647D01*
X130959220Y-90466647D01*
X131284220Y-90466647D01*
X131284220Y-89720647D01*
X131484220Y-89720647D01*
X131484220Y-90466647D01*
X131528343Y-90466647D01*
X131528343Y-90774647D01*
X131484220Y-90774647D01*
X131484220Y-91520647D01*
X131559220Y-91595647D01*
X131643894Y-91595647D01*
X131705208Y-91570250D01*
X131717166Y-91578240D01*
X131834220Y-91601524D01*
X132234220Y-91601524D01*
X132351274Y-91578240D01*
X132359220Y-91572931D01*
X132367166Y-91578240D01*
X132484220Y-91601524D01*
X132884220Y-91601524D01*
X133001274Y-91578240D01*
X133009220Y-91572931D01*
X133017166Y-91578240D01*
X133134220Y-91601524D01*
X133493721Y-91601524D01*
X133493721Y-92040922D01*
X133484199Y-92084519D01*
X133493721Y-92137548D01*
X133493721Y-92142167D01*
X133502247Y-92185031D01*
X133518686Y-92276579D01*
X133521254Y-92280582D01*
X133522181Y-92285243D01*
X133573816Y-92362520D01*
X133597452Y-92399366D01*
X133600662Y-92402699D01*
X133630591Y-92447490D01*
X133667691Y-92472279D01*
X133835003Y-92645962D01*
X133835003Y-93123860D01*
X133858287Y-93240914D01*
X133924592Y-93340148D01*
X134023826Y-93406453D01*
X134140880Y-93429737D01*
X134790880Y-93429737D01*
X134907934Y-93406453D01*
X135007168Y-93340148D01*
X135073473Y-93240914D01*
X135096757Y-93123860D01*
X135096757Y-93023266D01*
X135176007Y-93102516D01*
X135396533Y-93193860D01*
X135635227Y-93193860D01*
X135658579Y-93184187D01*
X137240880Y-93184187D01*
X137240880Y-93293860D01*
X137315880Y-93368860D01*
X137690880Y-93368860D01*
X137690880Y-93088860D01*
X137710880Y-93068860D01*
X137710880Y-92718860D01*
X137335880Y-92718860D01*
X137260880Y-92793860D01*
X137260880Y-92903533D01*
X137306552Y-93013796D01*
X137326616Y-93033860D01*
X137286552Y-93073924D01*
X137240880Y-93184187D01*
X135658579Y-93184187D01*
X135855753Y-93102516D01*
X136024536Y-92933733D01*
X136115880Y-92713207D01*
X136115880Y-92474513D01*
X136024536Y-92253987D01*
X135855753Y-92085204D01*
X135635227Y-91993860D01*
X135396533Y-91993860D01*
X135176007Y-92085204D01*
X135096757Y-92164454D01*
X135096757Y-92063860D01*
X135073473Y-91946806D01*
X135007168Y-91847572D01*
X134907934Y-91781267D01*
X134790880Y-91757983D01*
X134474720Y-91757983D01*
X134474720Y-91372951D01*
X134490097Y-91295647D01*
X134490097Y-90624647D01*
X134784220Y-90624647D01*
X134784220Y-91155320D01*
X134829892Y-91265583D01*
X134914283Y-91349975D01*
X135024546Y-91395647D01*
X135655220Y-91395647D01*
X135730220Y-91320647D01*
X135730220Y-90549647D01*
X136038220Y-90549647D01*
X136038220Y-91320647D01*
X136113220Y-91395647D01*
X136743894Y-91395647D01*
X136854157Y-91349975D01*
X136938548Y-91265583D01*
X136984220Y-91155320D01*
X136984220Y-90624647D01*
X136909220Y-90549647D01*
X136038220Y-90549647D01*
X135730220Y-90549647D01*
X134859220Y-90549647D01*
X134784220Y-90624647D01*
X134490097Y-90624647D01*
X134490097Y-89945647D01*
X134466813Y-89828593D01*
X134400508Y-89729359D01*
X134301274Y-89663054D01*
X134184220Y-89639770D01*
X133784220Y-89639770D01*
X133667166Y-89663054D01*
X133659220Y-89668363D01*
X133651274Y-89663054D01*
X133534220Y-89639770D01*
X133134220Y-89639770D01*
X133017166Y-89663054D01*
X133009220Y-89668363D01*
X133001274Y-89663054D01*
X132884220Y-89639770D01*
X132484220Y-89639770D01*
X132367166Y-89663054D01*
X132359220Y-89668363D01*
X132351274Y-89663054D01*
X132234220Y-89639770D01*
X131834220Y-89639770D01*
X131717166Y-89663054D01*
X131705208Y-89671044D01*
X131643894Y-89645647D01*
X131559220Y-89645647D01*
X131484220Y-89720647D01*
X131284220Y-89720647D01*
X131209220Y-89645647D01*
X131124546Y-89645647D01*
X131014283Y-89691319D01*
X130929892Y-89775711D01*
X130884220Y-89885974D01*
X130584220Y-89885974D01*
X130584220Y-89635974D01*
X134784220Y-89635974D01*
X134784220Y-90166647D01*
X134859220Y-90241647D01*
X135730220Y-90241647D01*
X135730220Y-89470647D01*
X136038220Y-89470647D01*
X136038220Y-90241647D01*
X136909220Y-90241647D01*
X136984220Y-90166647D01*
X136984220Y-89635974D01*
X136938548Y-89525711D01*
X136854157Y-89441319D01*
X136743894Y-89395647D01*
X136113220Y-89395647D01*
X136038220Y-89470647D01*
X135730220Y-89470647D01*
X135655220Y-89395647D01*
X135024546Y-89395647D01*
X134914283Y-89441319D01*
X134829892Y-89525711D01*
X134784220Y-89635974D01*
X130584220Y-89635974D01*
X130538548Y-89525711D01*
X130454157Y-89441319D01*
X130343894Y-89395647D01*
X129713220Y-89395647D01*
X129638220Y-89470647D01*
X129330220Y-89470647D01*
X129255220Y-89395647D01*
X128624546Y-89395647D01*
X128514283Y-89441319D01*
X128429892Y-89525711D01*
X128384220Y-89635974D01*
X128076040Y-89635974D01*
X128076040Y-89528549D01*
X128068835Y-89492327D01*
X128068835Y-89492322D01*
X128030166Y-89297918D01*
X127991070Y-89203533D01*
X127974172Y-89162738D01*
X127864051Y-88997931D01*
X127799218Y-88933098D01*
X127760590Y-88894469D01*
X127595782Y-88784348D01*
X127460603Y-88728355D01*
X127460602Y-88728355D01*
X127266199Y-88689685D01*
X127266193Y-88689685D01*
X127229971Y-88682480D01*
X126561880Y-88682480D01*
X126561880Y-88516860D01*
X126486880Y-88441860D01*
X125915880Y-88441860D01*
X125915880Y-88461860D01*
X125607880Y-88461860D01*
X125607880Y-88441860D01*
X125036880Y-88441860D01*
X125024025Y-88454715D01*
X124821629Y-88252319D01*
X128432405Y-88252319D01*
X128494321Y-88401842D01*
X128736639Y-88707666D01*
X129077545Y-88897479D01*
X129230220Y-88858735D01*
X129230220Y-88099647D01*
X129538220Y-88099647D01*
X129538220Y-88858735D01*
X129690895Y-88897479D01*
X130031801Y-88707666D01*
X130234220Y-88452198D01*
X130234220Y-88955320D01*
X130279892Y-89065583D01*
X130364283Y-89149975D01*
X130474546Y-89195647D01*
X131255220Y-89195647D01*
X131330220Y-89120647D01*
X131330220Y-88099647D01*
X131638220Y-88099647D01*
X131638220Y-89120647D01*
X131713220Y-89195647D01*
X132493894Y-89195647D01*
X132604157Y-89149975D01*
X132684220Y-89069911D01*
X132764283Y-89149975D01*
X132874546Y-89195647D01*
X133655220Y-89195647D01*
X133730220Y-89120647D01*
X133730220Y-88099647D01*
X134038220Y-88099647D01*
X134038220Y-89120647D01*
X134113220Y-89195647D01*
X134893894Y-89195647D01*
X135004157Y-89149975D01*
X135088548Y-89065583D01*
X135134220Y-88955320D01*
X135134220Y-88452198D01*
X135336639Y-88707666D01*
X135677545Y-88897479D01*
X135830220Y-88858735D01*
X135830220Y-88099647D01*
X136138220Y-88099647D01*
X136138220Y-88858735D01*
X136290895Y-88897479D01*
X136631801Y-88707666D01*
X136874119Y-88401842D01*
X136936035Y-88252319D01*
X136920825Y-88193860D01*
X137190880Y-88193860D01*
X137190880Y-88303533D01*
X137236552Y-88413796D01*
X137266616Y-88443860D01*
X137236552Y-88473924D01*
X137190880Y-88584187D01*
X137190880Y-88693860D01*
X137265880Y-88768860D01*
X137640880Y-88768860D01*
X137640880Y-88118860D01*
X137265880Y-88118860D01*
X137190880Y-88193860D01*
X136920825Y-88193860D01*
X136896310Y-88099647D01*
X136138220Y-88099647D01*
X135830220Y-88099647D01*
X135072130Y-88099647D01*
X135069464Y-88109891D01*
X135059220Y-88099647D01*
X134038220Y-88099647D01*
X133730220Y-88099647D01*
X132709220Y-88099647D01*
X132684220Y-88124647D01*
X132659220Y-88099647D01*
X131638220Y-88099647D01*
X131330220Y-88099647D01*
X130309220Y-88099647D01*
X130298976Y-88109891D01*
X130296310Y-88099647D01*
X129538220Y-88099647D01*
X129230220Y-88099647D01*
X128472130Y-88099647D01*
X128432405Y-88252319D01*
X124821629Y-88252319D01*
X124791515Y-88222205D01*
X124447863Y-88079860D01*
X124075897Y-88079860D01*
X123732245Y-88222205D01*
X123499735Y-88454715D01*
X123486880Y-88441860D01*
X122915880Y-88441860D01*
X122915880Y-88461860D01*
X122607880Y-88461860D01*
X122607880Y-88441860D01*
X122036880Y-88441860D01*
X121961880Y-88516860D01*
X121961880Y-88674860D01*
X121758812Y-88674860D01*
X121723003Y-88667737D01*
X121720033Y-88652804D01*
X121787755Y-88049045D01*
X121961880Y-87549027D01*
X121961880Y-88058860D01*
X122036880Y-88133860D01*
X122607880Y-88133860D01*
X122607880Y-87262860D01*
X122915880Y-87262860D01*
X122915880Y-88133860D01*
X123486880Y-88133860D01*
X123561880Y-88058860D01*
X123561880Y-87428187D01*
X124961880Y-87428187D01*
X124961880Y-88058860D01*
X125036880Y-88133860D01*
X125607880Y-88133860D01*
X125607880Y-87262860D01*
X125915880Y-87262860D01*
X125915880Y-88133860D01*
X126486880Y-88133860D01*
X126561880Y-88058860D01*
X126561880Y-87638975D01*
X128432405Y-87638975D01*
X128472130Y-87791647D01*
X129230220Y-87791647D01*
X129230220Y-87032559D01*
X129538220Y-87032559D01*
X129538220Y-87791647D01*
X130296310Y-87791647D01*
X130298976Y-87781403D01*
X130309220Y-87791647D01*
X131330220Y-87791647D01*
X131330220Y-86770647D01*
X131638220Y-86770647D01*
X131638220Y-87791647D01*
X132659220Y-87791647D01*
X132684220Y-87766647D01*
X132709220Y-87791647D01*
X133730220Y-87791647D01*
X133730220Y-86770647D01*
X134038220Y-86770647D01*
X134038220Y-87791647D01*
X135059220Y-87791647D01*
X135069464Y-87781403D01*
X135072130Y-87791647D01*
X135830220Y-87791647D01*
X135830220Y-87032559D01*
X136138220Y-87032559D01*
X136138220Y-87791647D01*
X136896310Y-87791647D01*
X136924270Y-87684187D01*
X137190880Y-87684187D01*
X137190880Y-87793860D01*
X137265880Y-87868860D01*
X137640880Y-87868860D01*
X137640880Y-87518860D01*
X137565880Y-87443860D01*
X137431206Y-87443860D01*
X137320943Y-87489532D01*
X137236552Y-87573924D01*
X137190880Y-87684187D01*
X136924270Y-87684187D01*
X136936035Y-87638975D01*
X136874119Y-87489452D01*
X136631801Y-87183628D01*
X136290895Y-86993815D01*
X136138220Y-87032559D01*
X135830220Y-87032559D01*
X135677545Y-86993815D01*
X135336639Y-87183628D01*
X135134220Y-87439096D01*
X135134220Y-86935974D01*
X135088548Y-86825711D01*
X135025198Y-86762360D01*
X139835880Y-86762360D01*
X139835880Y-86810533D01*
X139862111Y-86873860D01*
X139835880Y-86937187D01*
X139835880Y-86985360D01*
X139910880Y-87060360D01*
X140481880Y-87060360D01*
X140481880Y-86687360D01*
X139910880Y-86687360D01*
X139835880Y-86762360D01*
X135025198Y-86762360D01*
X135004157Y-86741319D01*
X134893894Y-86695647D01*
X134113220Y-86695647D01*
X134038220Y-86770647D01*
X133730220Y-86770647D01*
X133655220Y-86695647D01*
X132874546Y-86695647D01*
X132764283Y-86741319D01*
X132684220Y-86821383D01*
X132604157Y-86741319D01*
X132493894Y-86695647D01*
X131713220Y-86695647D01*
X131638220Y-86770647D01*
X131330220Y-86770647D01*
X131255220Y-86695647D01*
X130474546Y-86695647D01*
X130364283Y-86741319D01*
X130279892Y-86825711D01*
X130234220Y-86935974D01*
X130234220Y-87439096D01*
X130031801Y-87183628D01*
X129690895Y-86993815D01*
X129538220Y-87032559D01*
X129230220Y-87032559D01*
X129077545Y-86993815D01*
X128736639Y-87183628D01*
X128494321Y-87489452D01*
X128432405Y-87638975D01*
X126561880Y-87638975D01*
X126561880Y-87428187D01*
X126516208Y-87317924D01*
X126431817Y-87233532D01*
X126321554Y-87187860D01*
X125990880Y-87187860D01*
X125915880Y-87262860D01*
X125607880Y-87262860D01*
X125532880Y-87187860D01*
X125202206Y-87187860D01*
X125091943Y-87233532D01*
X125007552Y-87317924D01*
X124961880Y-87428187D01*
X123561880Y-87428187D01*
X123516208Y-87317924D01*
X123431817Y-87233532D01*
X123321554Y-87187860D01*
X122990880Y-87187860D01*
X122915880Y-87262860D01*
X122607880Y-87262860D01*
X122532880Y-87187860D01*
X122202206Y-87187860D01*
X122149234Y-87209802D01*
X122323381Y-86931107D01*
X122762863Y-86488546D01*
X122843791Y-86437187D01*
X139835880Y-86437187D01*
X139835880Y-86485360D01*
X139910880Y-86560360D01*
X140481880Y-86560360D01*
X140481880Y-86271860D01*
X140406880Y-86196860D01*
X140076206Y-86196860D01*
X139965943Y-86242532D01*
X139881552Y-86326924D01*
X139835880Y-86437187D01*
X122843791Y-86437187D01*
X123289471Y-86154351D01*
X123877036Y-85945128D01*
X124516638Y-85868860D01*
X141237332Y-85868860D01*
X141234082Y-86212819D01*
G36*
X139830003Y-90996860D02*
X139830003Y-91250860D01*
X139853287Y-91367914D01*
X139857260Y-91373860D01*
X139853287Y-91379806D01*
X139830003Y-91496860D01*
X139830003Y-91750860D01*
X139853287Y-91867914D01*
X139857260Y-91873860D01*
X139853287Y-91879806D01*
X139830003Y-91996860D01*
X139830003Y-92250860D01*
X139853287Y-92367914D01*
X139857260Y-92373860D01*
X139853287Y-92379806D01*
X139830003Y-92496860D01*
X139830003Y-92750860D01*
X139853287Y-92867914D01*
X139857260Y-92873860D01*
X139853287Y-92879806D01*
X139830003Y-92996860D01*
X139830003Y-93250860D01*
X139853287Y-93367914D01*
X139857260Y-93373860D01*
X139853287Y-93379806D01*
X139830003Y-93496860D01*
X139830003Y-93750860D01*
X139853287Y-93867914D01*
X139857260Y-93873860D01*
X139853287Y-93879806D01*
X139830003Y-93996860D01*
X139830003Y-94250860D01*
X139853287Y-94367914D01*
X139857260Y-94373860D01*
X139853287Y-94379806D01*
X139830003Y-94496860D01*
X139830003Y-94750860D01*
X139853287Y-94867914D01*
X139857260Y-94873860D01*
X139853287Y-94879806D01*
X139830003Y-94996860D01*
X139830003Y-95250860D01*
X139853287Y-95367914D01*
X139860254Y-95378342D01*
X139835880Y-95437187D01*
X139835880Y-95485360D01*
X139910880Y-95560360D01*
X140481880Y-95560360D01*
X140481880Y-95556737D01*
X140789880Y-95556737D01*
X140789880Y-95560360D01*
X140809880Y-95560360D01*
X140809880Y-95687360D01*
X140789880Y-95687360D01*
X140789880Y-95975860D01*
X140864880Y-96050860D01*
X141195554Y-96050860D01*
X141258003Y-96024993D01*
X141258003Y-96413860D01*
X141269779Y-96473060D01*
X139083365Y-96473060D01*
X138940880Y-96330576D01*
X138940880Y-95762360D01*
X139835880Y-95762360D01*
X139835880Y-95810533D01*
X139881552Y-95920796D01*
X139965943Y-96005188D01*
X140076206Y-96050860D01*
X140406880Y-96050860D01*
X140481880Y-95975860D01*
X140481880Y-95687360D01*
X139910880Y-95687360D01*
X139835880Y-95762360D01*
X138940880Y-95762360D01*
X138940880Y-94969544D01*
X138960687Y-94949737D01*
X139250880Y-94949737D01*
X139367934Y-94926453D01*
X139467168Y-94860148D01*
X139533473Y-94760914D01*
X139556757Y-94643860D01*
X139556757Y-94143860D01*
X139533473Y-94026806D01*
X139473051Y-93936377D01*
X139523473Y-93860914D01*
X139546757Y-93743860D01*
X139546757Y-93243860D01*
X139523473Y-93126806D01*
X139478051Y-93058826D01*
X139543473Y-92960914D01*
X139566757Y-92843860D01*
X139566757Y-92343860D01*
X139543473Y-92226806D01*
X139477168Y-92127572D01*
X139377934Y-92061267D01*
X139260880Y-92037983D01*
X138660880Y-92037983D01*
X138578998Y-92054271D01*
X138699536Y-91933733D01*
X138790880Y-91713207D01*
X138790880Y-91474513D01*
X138699536Y-91253987D01*
X138695286Y-91249737D01*
X139190880Y-91249737D01*
X139307934Y-91226453D01*
X139407168Y-91160148D01*
X139450876Y-91094733D01*
X139485879Y-91101696D01*
X139525273Y-91093860D01*
X139641951Y-91070651D01*
X139774263Y-90982244D01*
X139796582Y-90948842D01*
X139850225Y-90895198D01*
X139830003Y-90996860D01*
X139830003Y-90996860D01*
G37*
X139830003Y-90996860D02*
X139830003Y-91250860D01*
X139853287Y-91367914D01*
X139857260Y-91373860D01*
X139853287Y-91379806D01*
X139830003Y-91496860D01*
X139830003Y-91750860D01*
X139853287Y-91867914D01*
X139857260Y-91873860D01*
X139853287Y-91879806D01*
X139830003Y-91996860D01*
X139830003Y-92250860D01*
X139853287Y-92367914D01*
X139857260Y-92373860D01*
X139853287Y-92379806D01*
X139830003Y-92496860D01*
X139830003Y-92750860D01*
X139853287Y-92867914D01*
X139857260Y-92873860D01*
X139853287Y-92879806D01*
X139830003Y-92996860D01*
X139830003Y-93250860D01*
X139853287Y-93367914D01*
X139857260Y-93373860D01*
X139853287Y-93379806D01*
X139830003Y-93496860D01*
X139830003Y-93750860D01*
X139853287Y-93867914D01*
X139857260Y-93873860D01*
X139853287Y-93879806D01*
X139830003Y-93996860D01*
X139830003Y-94250860D01*
X139853287Y-94367914D01*
X139857260Y-94373860D01*
X139853287Y-94379806D01*
X139830003Y-94496860D01*
X139830003Y-94750860D01*
X139853287Y-94867914D01*
X139857260Y-94873860D01*
X139853287Y-94879806D01*
X139830003Y-94996860D01*
X139830003Y-95250860D01*
X139853287Y-95367914D01*
X139860254Y-95378342D01*
X139835880Y-95437187D01*
X139835880Y-95485360D01*
X139910880Y-95560360D01*
X140481880Y-95560360D01*
X140481880Y-95556737D01*
X140789880Y-95556737D01*
X140789880Y-95560360D01*
X140809880Y-95560360D01*
X140809880Y-95687360D01*
X140789880Y-95687360D01*
X140789880Y-95975860D01*
X140864880Y-96050860D01*
X141195554Y-96050860D01*
X141258003Y-96024993D01*
X141258003Y-96413860D01*
X141269779Y-96473060D01*
X139083365Y-96473060D01*
X138940880Y-96330576D01*
X138940880Y-95762360D01*
X139835880Y-95762360D01*
X139835880Y-95810533D01*
X139881552Y-95920796D01*
X139965943Y-96005188D01*
X140076206Y-96050860D01*
X140406880Y-96050860D01*
X140481880Y-95975860D01*
X140481880Y-95687360D01*
X139910880Y-95687360D01*
X139835880Y-95762360D01*
X138940880Y-95762360D01*
X138940880Y-94969544D01*
X138960687Y-94949737D01*
X139250880Y-94949737D01*
X139367934Y-94926453D01*
X139467168Y-94860148D01*
X139533473Y-94760914D01*
X139556757Y-94643860D01*
X139556757Y-94143860D01*
X139533473Y-94026806D01*
X139473051Y-93936377D01*
X139523473Y-93860914D01*
X139546757Y-93743860D01*
X139546757Y-93243860D01*
X139523473Y-93126806D01*
X139478051Y-93058826D01*
X139543473Y-92960914D01*
X139566757Y-92843860D01*
X139566757Y-92343860D01*
X139543473Y-92226806D01*
X139477168Y-92127572D01*
X139377934Y-92061267D01*
X139260880Y-92037983D01*
X138660880Y-92037983D01*
X138578998Y-92054271D01*
X138699536Y-91933733D01*
X138790880Y-91713207D01*
X138790880Y-91474513D01*
X138699536Y-91253987D01*
X138695286Y-91249737D01*
X139190880Y-91249737D01*
X139307934Y-91226453D01*
X139407168Y-91160148D01*
X139450876Y-91094733D01*
X139485879Y-91101696D01*
X139525273Y-91093860D01*
X139641951Y-91070651D01*
X139774263Y-90982244D01*
X139796582Y-90948842D01*
X139850225Y-90895198D01*
X139830003Y-90996860D01*
G36*
X142483100Y-90623502D02*
X142439592Y-90652572D01*
X142142306Y-90949858D01*
X142120880Y-90949858D01*
X142120880Y-90971284D01*
X142105804Y-90986360D01*
X142120880Y-90986360D01*
X142120880Y-91028137D01*
X142020943Y-91069532D01*
X141936552Y-91153924D01*
X141908619Y-91221360D01*
X141903585Y-91221360D01*
X141903287Y-91221806D01*
X141898531Y-91245716D01*
X141890880Y-91264187D01*
X141890880Y-91284179D01*
X141880003Y-91338860D01*
X141890880Y-91393541D01*
X141890880Y-91599860D01*
X141965880Y-91674860D01*
X142786880Y-91674860D01*
X142786880Y-91658860D01*
X142951880Y-91658860D01*
X142966003Y-91644737D01*
X143026878Y-91644737D01*
X143026878Y-91658860D01*
X143094880Y-91658860D01*
X143094880Y-91674860D01*
X143114880Y-91674860D01*
X143114880Y-91982860D01*
X143094880Y-91982860D01*
X143094880Y-92558860D01*
X143169880Y-92633860D01*
X143750554Y-92633860D01*
X143860817Y-92588188D01*
X143930301Y-92518704D01*
X143936552Y-92533796D01*
X144020943Y-92618188D01*
X144131206Y-92663860D01*
X144711880Y-92663860D01*
X144786880Y-92588860D01*
X144786880Y-91767860D01*
X145094880Y-91767860D01*
X145094880Y-92588860D01*
X145169880Y-92663860D01*
X145750554Y-92663860D01*
X145860817Y-92618188D01*
X145945208Y-92533796D01*
X145990880Y-92423533D01*
X145990880Y-91842860D01*
X145915880Y-91767860D01*
X145094880Y-91767860D01*
X144786880Y-91767860D01*
X144766880Y-91767860D01*
X144766880Y-91459860D01*
X144786880Y-91459860D01*
X144786880Y-91439860D01*
X145094880Y-91439860D01*
X145094880Y-91459860D01*
X145915880Y-91459860D01*
X145990880Y-91384860D01*
X145990880Y-90927860D01*
X146453728Y-90927860D01*
X146440003Y-90996860D01*
X146440003Y-91250860D01*
X146463287Y-91367914D01*
X146467260Y-91373860D01*
X146463287Y-91379806D01*
X146440003Y-91496860D01*
X146440003Y-91750860D01*
X146463287Y-91867914D01*
X146467260Y-91873860D01*
X146463287Y-91879806D01*
X146440003Y-91996860D01*
X146440003Y-92250860D01*
X146463287Y-92367914D01*
X146467260Y-92373860D01*
X146463287Y-92379806D01*
X146440003Y-92496860D01*
X146440003Y-92750860D01*
X146463287Y-92867914D01*
X146467260Y-92873860D01*
X146463287Y-92879806D01*
X146440003Y-92996860D01*
X146440003Y-93250860D01*
X146463287Y-93367914D01*
X146467260Y-93373860D01*
X146463287Y-93379806D01*
X146440003Y-93496860D01*
X146440003Y-93750860D01*
X146463287Y-93867914D01*
X146467260Y-93873860D01*
X146463287Y-93879806D01*
X146440003Y-93996860D01*
X146440003Y-94250860D01*
X146463287Y-94367914D01*
X146467260Y-94373860D01*
X146463287Y-94379806D01*
X146440003Y-94496860D01*
X146440003Y-94750860D01*
X146463287Y-94867914D01*
X146467260Y-94873860D01*
X146463287Y-94879806D01*
X146440003Y-94996860D01*
X146440003Y-95134654D01*
X146434934Y-95131267D01*
X146317880Y-95107983D01*
X146063880Y-95107983D01*
X145946826Y-95131267D01*
X145940880Y-95135240D01*
X145934934Y-95131267D01*
X145817880Y-95107983D01*
X145563880Y-95107983D01*
X145446826Y-95131267D01*
X145440880Y-95135240D01*
X145434934Y-95131267D01*
X145317880Y-95107983D01*
X145063880Y-95107983D01*
X144946826Y-95131267D01*
X144940880Y-95135240D01*
X144934934Y-95131267D01*
X144817880Y-95107983D01*
X144563880Y-95107983D01*
X144446826Y-95131267D01*
X144440880Y-95135240D01*
X144434934Y-95131267D01*
X144317880Y-95107983D01*
X144063880Y-95107983D01*
X143946826Y-95131267D01*
X143940880Y-95135240D01*
X143934934Y-95131267D01*
X143817880Y-95107983D01*
X143563880Y-95107983D01*
X143446826Y-95131267D01*
X143440880Y-95135240D01*
X143434934Y-95131267D01*
X143317880Y-95107983D01*
X143063880Y-95107983D01*
X142946826Y-95131267D01*
X142940880Y-95135240D01*
X142934934Y-95131267D01*
X142817880Y-95107983D01*
X142563880Y-95107983D01*
X142446826Y-95131267D01*
X142440880Y-95135240D01*
X142434934Y-95131267D01*
X142317880Y-95107983D01*
X142063880Y-95107983D01*
X141946826Y-95131267D01*
X141940880Y-95135240D01*
X141934934Y-95131267D01*
X141817880Y-95107983D01*
X141563880Y-95107983D01*
X141446826Y-95131267D01*
X141441757Y-95134654D01*
X141441757Y-94996860D01*
X141418473Y-94879806D01*
X141414500Y-94873860D01*
X141418473Y-94867914D01*
X141441757Y-94750860D01*
X141441757Y-94496860D01*
X141418473Y-94379806D01*
X141414500Y-94373860D01*
X141418473Y-94367914D01*
X141441757Y-94250860D01*
X141441757Y-93996860D01*
X141434994Y-93962860D01*
X141890880Y-93962860D01*
X141890880Y-94543533D01*
X141936552Y-94653796D01*
X142020943Y-94738188D01*
X142131206Y-94783860D01*
X142711880Y-94783860D01*
X142786880Y-94708860D01*
X142786880Y-93887860D01*
X143094880Y-93887860D01*
X143094880Y-94708860D01*
X143169880Y-94783860D01*
X143750554Y-94783860D01*
X143860817Y-94738188D01*
X143940880Y-94658124D01*
X144020943Y-94738188D01*
X144131206Y-94783860D01*
X144711880Y-94783860D01*
X144786880Y-94708860D01*
X144786880Y-93887860D01*
X145094880Y-93887860D01*
X145094880Y-94708860D01*
X145169880Y-94783860D01*
X145750554Y-94783860D01*
X145860817Y-94738188D01*
X145945208Y-94653796D01*
X145990880Y-94543533D01*
X145990880Y-93962860D01*
X145915880Y-93887860D01*
X145094880Y-93887860D01*
X144786880Y-93887860D01*
X143965880Y-93887860D01*
X143940880Y-93912860D01*
X143915880Y-93887860D01*
X143094880Y-93887860D01*
X142786880Y-93887860D01*
X141965880Y-93887860D01*
X141890880Y-93962860D01*
X141434994Y-93962860D01*
X141418473Y-93879806D01*
X141414500Y-93873860D01*
X141418473Y-93867914D01*
X141441757Y-93750860D01*
X141441757Y-93496860D01*
X141418473Y-93379806D01*
X141414500Y-93373860D01*
X141418473Y-93367914D01*
X141441757Y-93250860D01*
X141441757Y-92996860D01*
X141427302Y-92924187D01*
X141890880Y-92924187D01*
X141890880Y-93504860D01*
X141965880Y-93579860D01*
X142786880Y-93579860D01*
X142786880Y-92758860D01*
X143094880Y-92758860D01*
X143094880Y-93579860D01*
X143915880Y-93579860D01*
X143940880Y-93554860D01*
X143965880Y-93579860D01*
X144786880Y-93579860D01*
X144786880Y-92758860D01*
X145094880Y-92758860D01*
X145094880Y-93579860D01*
X145915880Y-93579860D01*
X145990880Y-93504860D01*
X145990880Y-92924187D01*
X145945208Y-92813924D01*
X145860817Y-92729532D01*
X145750554Y-92683860D01*
X145169880Y-92683860D01*
X145094880Y-92758860D01*
X144786880Y-92758860D01*
X144711880Y-92683860D01*
X144131206Y-92683860D01*
X144020943Y-92729532D01*
X143940880Y-92809596D01*
X143860817Y-92729532D01*
X143750554Y-92683860D01*
X143169880Y-92683860D01*
X143094880Y-92758860D01*
X142786880Y-92758860D01*
X142711880Y-92683860D01*
X142131206Y-92683860D01*
X142020943Y-92729532D01*
X141936552Y-92813924D01*
X141890880Y-92924187D01*
X141427302Y-92924187D01*
X141418473Y-92879806D01*
X141414500Y-92873860D01*
X141418473Y-92867914D01*
X141441757Y-92750860D01*
X141441757Y-92496860D01*
X141418473Y-92379806D01*
X141414500Y-92373860D01*
X141418473Y-92367914D01*
X141441757Y-92250860D01*
X141441757Y-92057860D01*
X141890880Y-92057860D01*
X141890880Y-92393533D01*
X141936552Y-92503796D01*
X142020943Y-92588188D01*
X142131206Y-92633860D01*
X142711880Y-92633860D01*
X142786880Y-92558860D01*
X142786880Y-91982860D01*
X141965880Y-91982860D01*
X141890880Y-92057860D01*
X141441757Y-92057860D01*
X141441757Y-91996860D01*
X141418473Y-91879806D01*
X141414500Y-91873860D01*
X141418473Y-91867914D01*
X141441757Y-91750860D01*
X141441757Y-91496860D01*
X141418473Y-91379806D01*
X141414500Y-91373860D01*
X141418473Y-91367914D01*
X141441757Y-91250860D01*
X141441757Y-90996860D01*
X141418473Y-90879806D01*
X141414500Y-90873860D01*
X141418473Y-90867914D01*
X141441757Y-90750860D01*
X141441757Y-90496860D01*
X141418473Y-90379806D01*
X141414500Y-90373860D01*
X141418473Y-90367914D01*
X141441757Y-90250860D01*
X141441757Y-89996860D01*
X141418473Y-89879806D01*
X141414500Y-89873860D01*
X141418473Y-89867914D01*
X141441757Y-89750860D01*
X141441757Y-89582159D01*
X142483100Y-90623502D01*
X142483100Y-90623502D01*
G37*
X142483100Y-90623502D02*
X142439592Y-90652572D01*
X142142306Y-90949858D01*
X142120880Y-90949858D01*
X142120880Y-90971284D01*
X142105804Y-90986360D01*
X142120880Y-90986360D01*
X142120880Y-91028137D01*
X142020943Y-91069532D01*
X141936552Y-91153924D01*
X141908619Y-91221360D01*
X141903585Y-91221360D01*
X141903287Y-91221806D01*
X141898531Y-91245716D01*
X141890880Y-91264187D01*
X141890880Y-91284179D01*
X141880003Y-91338860D01*
X141890880Y-91393541D01*
X141890880Y-91599860D01*
X141965880Y-91674860D01*
X142786880Y-91674860D01*
X142786880Y-91658860D01*
X142951880Y-91658860D01*
X142966003Y-91644737D01*
X143026878Y-91644737D01*
X143026878Y-91658860D01*
X143094880Y-91658860D01*
X143094880Y-91674860D01*
X143114880Y-91674860D01*
X143114880Y-91982860D01*
X143094880Y-91982860D01*
X143094880Y-92558860D01*
X143169880Y-92633860D01*
X143750554Y-92633860D01*
X143860817Y-92588188D01*
X143930301Y-92518704D01*
X143936552Y-92533796D01*
X144020943Y-92618188D01*
X144131206Y-92663860D01*
X144711880Y-92663860D01*
X144786880Y-92588860D01*
X144786880Y-91767860D01*
X145094880Y-91767860D01*
X145094880Y-92588860D01*
X145169880Y-92663860D01*
X145750554Y-92663860D01*
X145860817Y-92618188D01*
X145945208Y-92533796D01*
X145990880Y-92423533D01*
X145990880Y-91842860D01*
X145915880Y-91767860D01*
X145094880Y-91767860D01*
X144786880Y-91767860D01*
X144766880Y-91767860D01*
X144766880Y-91459860D01*
X144786880Y-91459860D01*
X144786880Y-91439860D01*
X145094880Y-91439860D01*
X145094880Y-91459860D01*
X145915880Y-91459860D01*
X145990880Y-91384860D01*
X145990880Y-90927860D01*
X146453728Y-90927860D01*
X146440003Y-90996860D01*
X146440003Y-91250860D01*
X146463287Y-91367914D01*
X146467260Y-91373860D01*
X146463287Y-91379806D01*
X146440003Y-91496860D01*
X146440003Y-91750860D01*
X146463287Y-91867914D01*
X146467260Y-91873860D01*
X146463287Y-91879806D01*
X146440003Y-91996860D01*
X146440003Y-92250860D01*
X146463287Y-92367914D01*
X146467260Y-92373860D01*
X146463287Y-92379806D01*
X146440003Y-92496860D01*
X146440003Y-92750860D01*
X146463287Y-92867914D01*
X146467260Y-92873860D01*
X146463287Y-92879806D01*
X146440003Y-92996860D01*
X146440003Y-93250860D01*
X146463287Y-93367914D01*
X146467260Y-93373860D01*
X146463287Y-93379806D01*
X146440003Y-93496860D01*
X146440003Y-93750860D01*
X146463287Y-93867914D01*
X146467260Y-93873860D01*
X146463287Y-93879806D01*
X146440003Y-93996860D01*
X146440003Y-94250860D01*
X146463287Y-94367914D01*
X146467260Y-94373860D01*
X146463287Y-94379806D01*
X146440003Y-94496860D01*
X146440003Y-94750860D01*
X146463287Y-94867914D01*
X146467260Y-94873860D01*
X146463287Y-94879806D01*
X146440003Y-94996860D01*
X146440003Y-95134654D01*
X146434934Y-95131267D01*
X146317880Y-95107983D01*
X146063880Y-95107983D01*
X145946826Y-95131267D01*
X145940880Y-95135240D01*
X145934934Y-95131267D01*
X145817880Y-95107983D01*
X145563880Y-95107983D01*
X145446826Y-95131267D01*
X145440880Y-95135240D01*
X145434934Y-95131267D01*
X145317880Y-95107983D01*
X145063880Y-95107983D01*
X144946826Y-95131267D01*
X144940880Y-95135240D01*
X144934934Y-95131267D01*
X144817880Y-95107983D01*
X144563880Y-95107983D01*
X144446826Y-95131267D01*
X144440880Y-95135240D01*
X144434934Y-95131267D01*
X144317880Y-95107983D01*
X144063880Y-95107983D01*
X143946826Y-95131267D01*
X143940880Y-95135240D01*
X143934934Y-95131267D01*
X143817880Y-95107983D01*
X143563880Y-95107983D01*
X143446826Y-95131267D01*
X143440880Y-95135240D01*
X143434934Y-95131267D01*
X143317880Y-95107983D01*
X143063880Y-95107983D01*
X142946826Y-95131267D01*
X142940880Y-95135240D01*
X142934934Y-95131267D01*
X142817880Y-95107983D01*
X142563880Y-95107983D01*
X142446826Y-95131267D01*
X142440880Y-95135240D01*
X142434934Y-95131267D01*
X142317880Y-95107983D01*
X142063880Y-95107983D01*
X141946826Y-95131267D01*
X141940880Y-95135240D01*
X141934934Y-95131267D01*
X141817880Y-95107983D01*
X141563880Y-95107983D01*
X141446826Y-95131267D01*
X141441757Y-95134654D01*
X141441757Y-94996860D01*
X141418473Y-94879806D01*
X141414500Y-94873860D01*
X141418473Y-94867914D01*
X141441757Y-94750860D01*
X141441757Y-94496860D01*
X141418473Y-94379806D01*
X141414500Y-94373860D01*
X141418473Y-94367914D01*
X141441757Y-94250860D01*
X141441757Y-93996860D01*
X141434994Y-93962860D01*
X141890880Y-93962860D01*
X141890880Y-94543533D01*
X141936552Y-94653796D01*
X142020943Y-94738188D01*
X142131206Y-94783860D01*
X142711880Y-94783860D01*
X142786880Y-94708860D01*
X142786880Y-93887860D01*
X143094880Y-93887860D01*
X143094880Y-94708860D01*
X143169880Y-94783860D01*
X143750554Y-94783860D01*
X143860817Y-94738188D01*
X143940880Y-94658124D01*
X144020943Y-94738188D01*
X144131206Y-94783860D01*
X144711880Y-94783860D01*
X144786880Y-94708860D01*
X144786880Y-93887860D01*
X145094880Y-93887860D01*
X145094880Y-94708860D01*
X145169880Y-94783860D01*
X145750554Y-94783860D01*
X145860817Y-94738188D01*
X145945208Y-94653796D01*
X145990880Y-94543533D01*
X145990880Y-93962860D01*
X145915880Y-93887860D01*
X145094880Y-93887860D01*
X144786880Y-93887860D01*
X143965880Y-93887860D01*
X143940880Y-93912860D01*
X143915880Y-93887860D01*
X143094880Y-93887860D01*
X142786880Y-93887860D01*
X141965880Y-93887860D01*
X141890880Y-93962860D01*
X141434994Y-93962860D01*
X141418473Y-93879806D01*
X141414500Y-93873860D01*
X141418473Y-93867914D01*
X141441757Y-93750860D01*
X141441757Y-93496860D01*
X141418473Y-93379806D01*
X141414500Y-93373860D01*
X141418473Y-93367914D01*
X141441757Y-93250860D01*
X141441757Y-92996860D01*
X141427302Y-92924187D01*
X141890880Y-92924187D01*
X141890880Y-93504860D01*
X141965880Y-93579860D01*
X142786880Y-93579860D01*
X142786880Y-92758860D01*
X143094880Y-92758860D01*
X143094880Y-93579860D01*
X143915880Y-93579860D01*
X143940880Y-93554860D01*
X143965880Y-93579860D01*
X144786880Y-93579860D01*
X144786880Y-92758860D01*
X145094880Y-92758860D01*
X145094880Y-93579860D01*
X145915880Y-93579860D01*
X145990880Y-93504860D01*
X145990880Y-92924187D01*
X145945208Y-92813924D01*
X145860817Y-92729532D01*
X145750554Y-92683860D01*
X145169880Y-92683860D01*
X145094880Y-92758860D01*
X144786880Y-92758860D01*
X144711880Y-92683860D01*
X144131206Y-92683860D01*
X144020943Y-92729532D01*
X143940880Y-92809596D01*
X143860817Y-92729532D01*
X143750554Y-92683860D01*
X143169880Y-92683860D01*
X143094880Y-92758860D01*
X142786880Y-92758860D01*
X142711880Y-92683860D01*
X142131206Y-92683860D01*
X142020943Y-92729532D01*
X141936552Y-92813924D01*
X141890880Y-92924187D01*
X141427302Y-92924187D01*
X141418473Y-92879806D01*
X141414500Y-92873860D01*
X141418473Y-92867914D01*
X141441757Y-92750860D01*
X141441757Y-92496860D01*
X141418473Y-92379806D01*
X141414500Y-92373860D01*
X141418473Y-92367914D01*
X141441757Y-92250860D01*
X141441757Y-92057860D01*
X141890880Y-92057860D01*
X141890880Y-92393533D01*
X141936552Y-92503796D01*
X142020943Y-92588188D01*
X142131206Y-92633860D01*
X142711880Y-92633860D01*
X142786880Y-92558860D01*
X142786880Y-91982860D01*
X141965880Y-91982860D01*
X141890880Y-92057860D01*
X141441757Y-92057860D01*
X141441757Y-91996860D01*
X141418473Y-91879806D01*
X141414500Y-91873860D01*
X141418473Y-91867914D01*
X141441757Y-91750860D01*
X141441757Y-91496860D01*
X141418473Y-91379806D01*
X141414500Y-91373860D01*
X141418473Y-91367914D01*
X141441757Y-91250860D01*
X141441757Y-90996860D01*
X141418473Y-90879806D01*
X141414500Y-90873860D01*
X141418473Y-90867914D01*
X141441757Y-90750860D01*
X141441757Y-90496860D01*
X141418473Y-90379806D01*
X141414500Y-90373860D01*
X141418473Y-90367914D01*
X141441757Y-90250860D01*
X141441757Y-89996860D01*
X141418473Y-89879806D01*
X141414500Y-89873860D01*
X141418473Y-89867914D01*
X141441757Y-89750860D01*
X141441757Y-89582159D01*
X142483100Y-90623502D01*
G36*
X143334880Y-90991360D02*
X143354880Y-90991360D01*
X143354880Y-91023860D01*
X143200880Y-91023860D01*
X143200880Y-90986360D01*
X143215956Y-90986360D01*
X143200880Y-90971284D01*
X143200880Y-90949858D01*
X143179454Y-90949858D01*
X143169456Y-90939860D01*
X143334880Y-90939860D01*
X143334880Y-90991360D01*
X143334880Y-90991360D01*
G37*
X143334880Y-90991360D02*
X143354880Y-90991360D01*
X143354880Y-91023860D01*
X143200880Y-91023860D01*
X143200880Y-90986360D01*
X143215956Y-90986360D01*
X143200880Y-90971284D01*
X143200880Y-90949858D01*
X143179454Y-90949858D01*
X143169456Y-90939860D01*
X143334880Y-90939860D01*
X143334880Y-90991360D01*
G36*
X156885695Y-85940735D02*
X157474703Y-86145850D01*
X158003633Y-86476361D01*
X158446194Y-86915843D01*
X158780389Y-87442451D01*
X158989612Y-88030016D01*
X159063070Y-88646054D01*
X159058757Y-88667737D01*
X159022948Y-88674860D01*
X158692880Y-88674860D01*
X158692880Y-88516860D01*
X158617880Y-88441860D01*
X158046880Y-88441860D01*
X158046880Y-88461860D01*
X157738880Y-88461860D01*
X157738880Y-88441860D01*
X157167880Y-88441860D01*
X157155025Y-88454715D01*
X156922515Y-88222205D01*
X156578863Y-88079860D01*
X156206897Y-88079860D01*
X155863245Y-88222205D01*
X155630735Y-88454715D01*
X155617880Y-88441860D01*
X155046880Y-88441860D01*
X155046880Y-88461860D01*
X154738880Y-88461860D01*
X154738880Y-88441860D01*
X154167880Y-88441860D01*
X154092880Y-88516860D01*
X154092880Y-88674860D01*
X153561949Y-88674860D01*
X153452563Y-88696618D01*
X153432021Y-88710344D01*
X153341478Y-88728354D01*
X153299653Y-88745679D01*
X153206298Y-88784348D01*
X153190880Y-88794650D01*
X153190880Y-87428187D01*
X154092880Y-87428187D01*
X154092880Y-88058860D01*
X154167880Y-88133860D01*
X154738880Y-88133860D01*
X154738880Y-87262860D01*
X155046880Y-87262860D01*
X155046880Y-88133860D01*
X155617880Y-88133860D01*
X155692880Y-88058860D01*
X155692880Y-87428187D01*
X157092880Y-87428187D01*
X157092880Y-88058860D01*
X157167880Y-88133860D01*
X157738880Y-88133860D01*
X157738880Y-87262860D01*
X158046880Y-87262860D01*
X158046880Y-88133860D01*
X158617880Y-88133860D01*
X158692880Y-88058860D01*
X158692880Y-87428187D01*
X158647208Y-87317924D01*
X158562817Y-87233532D01*
X158452554Y-87187860D01*
X158121880Y-87187860D01*
X158046880Y-87262860D01*
X157738880Y-87262860D01*
X157663880Y-87187860D01*
X157333206Y-87187860D01*
X157222943Y-87233532D01*
X157138552Y-87317924D01*
X157092880Y-87428187D01*
X155692880Y-87428187D01*
X155647208Y-87317924D01*
X155562817Y-87233532D01*
X155452554Y-87187860D01*
X155121880Y-87187860D01*
X155046880Y-87262860D01*
X154738880Y-87262860D01*
X154663880Y-87187860D01*
X154333206Y-87187860D01*
X154222943Y-87233532D01*
X154138552Y-87317924D01*
X154092880Y-87428187D01*
X153190880Y-87428187D01*
X153190880Y-85868860D01*
X156244914Y-85868860D01*
X156885695Y-85940735D01*
X156885695Y-85940735D01*
G37*
X156885695Y-85940735D02*
X157474703Y-86145850D01*
X158003633Y-86476361D01*
X158446194Y-86915843D01*
X158780389Y-87442451D01*
X158989612Y-88030016D01*
X159063070Y-88646054D01*
X159058757Y-88667737D01*
X159022948Y-88674860D01*
X158692880Y-88674860D01*
X158692880Y-88516860D01*
X158617880Y-88441860D01*
X158046880Y-88441860D01*
X158046880Y-88461860D01*
X157738880Y-88461860D01*
X157738880Y-88441860D01*
X157167880Y-88441860D01*
X157155025Y-88454715D01*
X156922515Y-88222205D01*
X156578863Y-88079860D01*
X156206897Y-88079860D01*
X155863245Y-88222205D01*
X155630735Y-88454715D01*
X155617880Y-88441860D01*
X155046880Y-88441860D01*
X155046880Y-88461860D01*
X154738880Y-88461860D01*
X154738880Y-88441860D01*
X154167880Y-88441860D01*
X154092880Y-88516860D01*
X154092880Y-88674860D01*
X153561949Y-88674860D01*
X153452563Y-88696618D01*
X153432021Y-88710344D01*
X153341478Y-88728354D01*
X153299653Y-88745679D01*
X153206298Y-88784348D01*
X153190880Y-88794650D01*
X153190880Y-87428187D01*
X154092880Y-87428187D01*
X154092880Y-88058860D01*
X154167880Y-88133860D01*
X154738880Y-88133860D01*
X154738880Y-87262860D01*
X155046880Y-87262860D01*
X155046880Y-88133860D01*
X155617880Y-88133860D01*
X155692880Y-88058860D01*
X155692880Y-87428187D01*
X157092880Y-87428187D01*
X157092880Y-88058860D01*
X157167880Y-88133860D01*
X157738880Y-88133860D01*
X157738880Y-87262860D01*
X158046880Y-87262860D01*
X158046880Y-88133860D01*
X158617880Y-88133860D01*
X158692880Y-88058860D01*
X158692880Y-87428187D01*
X158647208Y-87317924D01*
X158562817Y-87233532D01*
X158452554Y-87187860D01*
X158121880Y-87187860D01*
X158046880Y-87262860D01*
X157738880Y-87262860D01*
X157663880Y-87187860D01*
X157333206Y-87187860D01*
X157222943Y-87233532D01*
X157138552Y-87317924D01*
X157092880Y-87428187D01*
X155692880Y-87428187D01*
X155647208Y-87317924D01*
X155562817Y-87233532D01*
X155452554Y-87187860D01*
X155121880Y-87187860D01*
X155046880Y-87262860D01*
X154738880Y-87262860D01*
X154663880Y-87187860D01*
X154333206Y-87187860D01*
X154222943Y-87233532D01*
X154138552Y-87317924D01*
X154092880Y-87428187D01*
X153190880Y-87428187D01*
X153190880Y-85868860D01*
X156244914Y-85868860D01*
X156885695Y-85940735D01*
D41*
G04 #@! TO.N,VPP*
G36*
X132513880Y-100948352D02*
X132388291Y-100973333D01*
X132386449Y-100974564D01*
X132377418Y-100976360D01*
X131905117Y-100976360D01*
X132000880Y-100745169D01*
X132000880Y-100504610D01*
X131842130Y-100345860D01*
X131117880Y-100345860D01*
X131117880Y-100365860D01*
X130863880Y-100365860D01*
X130863880Y-100345860D01*
X130139630Y-100345860D01*
X129980880Y-100504610D01*
X129980880Y-100659610D01*
X129930130Y-100608860D01*
X129789571Y-100608860D01*
X129556182Y-100705533D01*
X129377553Y-100884161D01*
X129280880Y-101117550D01*
X129280880Y-101210110D01*
X129439630Y-101368860D01*
X130088880Y-101368860D01*
X130088880Y-101346860D01*
X130342880Y-101346860D01*
X130342880Y-101368860D01*
X130362880Y-101368860D01*
X130362880Y-101618860D01*
X130342880Y-101618860D01*
X130342880Y-101640860D01*
X130088880Y-101640860D01*
X130088880Y-101618860D01*
X129439630Y-101618860D01*
X129280880Y-101777610D01*
X129280880Y-101870170D01*
X129377553Y-102103559D01*
X129556182Y-102282187D01*
X129592928Y-102297408D01*
X129592928Y-102506360D01*
X129630224Y-102693860D01*
X129592928Y-102881360D01*
X129592928Y-103131360D01*
X129632355Y-103329572D01*
X129704012Y-103436814D01*
X128103040Y-103440877D01*
X128103040Y-99369820D01*
X130172119Y-99364595D01*
X130077553Y-99459162D01*
X129980880Y-99692551D01*
X129980880Y-99933110D01*
X130139630Y-100091860D01*
X130863880Y-100091860D01*
X130863880Y-100071860D01*
X131117880Y-100071860D01*
X131117880Y-100091860D01*
X131842130Y-100091860D01*
X132000880Y-99933110D01*
X132000880Y-99692551D01*
X131904207Y-99459162D01*
X131805516Y-99360471D01*
X132513880Y-99358682D01*
X132513880Y-100948352D01*
X132513880Y-100948352D01*
G37*
X132513880Y-100948352D02*
X132388291Y-100973333D01*
X132386449Y-100974564D01*
X132377418Y-100976360D01*
X131905117Y-100976360D01*
X132000880Y-100745169D01*
X132000880Y-100504610D01*
X131842130Y-100345860D01*
X131117880Y-100345860D01*
X131117880Y-100365860D01*
X130863880Y-100365860D01*
X130863880Y-100345860D01*
X130139630Y-100345860D01*
X129980880Y-100504610D01*
X129980880Y-100659610D01*
X129930130Y-100608860D01*
X129789571Y-100608860D01*
X129556182Y-100705533D01*
X129377553Y-100884161D01*
X129280880Y-101117550D01*
X129280880Y-101210110D01*
X129439630Y-101368860D01*
X130088880Y-101368860D01*
X130088880Y-101346860D01*
X130342880Y-101346860D01*
X130342880Y-101368860D01*
X130362880Y-101368860D01*
X130362880Y-101618860D01*
X130342880Y-101618860D01*
X130342880Y-101640860D01*
X130088880Y-101640860D01*
X130088880Y-101618860D01*
X129439630Y-101618860D01*
X129280880Y-101777610D01*
X129280880Y-101870170D01*
X129377553Y-102103559D01*
X129556182Y-102282187D01*
X129592928Y-102297408D01*
X129592928Y-102506360D01*
X129630224Y-102693860D01*
X129592928Y-102881360D01*
X129592928Y-103131360D01*
X129632355Y-103329572D01*
X129704012Y-103436814D01*
X128103040Y-103440877D01*
X128103040Y-99369820D01*
X130172119Y-99364595D01*
X130077553Y-99459162D01*
X129980880Y-99692551D01*
X129980880Y-99933110D01*
X130139630Y-100091860D01*
X130863880Y-100091860D01*
X130863880Y-100071860D01*
X131117880Y-100071860D01*
X131117880Y-100091860D01*
X131842130Y-100091860D01*
X132000880Y-99933110D01*
X132000880Y-99692551D01*
X131904207Y-99459162D01*
X131805516Y-99360471D01*
X132513880Y-99358682D01*
X132513880Y-100948352D01*
G04 #@! TD*
M02*
