G04 #@! TF.GenerationSoftware,KiCad,Pcbnew,(5.0.1-3-g963ef8bb5)*
G04 #@! TF.CreationDate,2019-06-17T11:31:16-10:00*
G04 #@! TF.ProjectId,OpenHAK_03,4F70656E48414B5F30332E6B69636164,rev?*
G04 #@! TF.SameCoordinates,Original*
G04 #@! TF.FileFunction,Copper,L3,Inr,Signal*
G04 #@! TF.FilePolarity,Positive*
%FSLAX46Y46*%
G04 Gerber Fmt 4.6, Leading zero omitted, Abs format (unit mm)*
G04 Created by KiCad (PCBNEW (5.0.1-3-g963ef8bb5)) date Monday, June 17, 2019 at 11:31:16 AM*
%MOMM*%
%LPD*%
G01*
G04 APERTURE LIST*
G04 #@! TA.AperFunction,ViaPad*
%ADD10O,1.400000X1.400000*%
G04 #@! TD*
G04 #@! TA.AperFunction,ViaPad*
%ADD11C,0.600000*%
G04 #@! TD*
G04 #@! TA.AperFunction,Conductor*
%ADD12C,0.200000*%
G04 #@! TD*
G04 #@! TA.AperFunction,Conductor*
%ADD13C,0.180000*%
G04 #@! TD*
G04 APERTURE END LIST*
D10*
G04 #@! TO.N,GND*
G04 #@! TO.C,P2*
X135984220Y-87945647D03*
X129384220Y-87945647D03*
G04 #@! TD*
D11*
G04 #@! TO.N,GND*
X125740880Y-88293860D03*
X122740880Y-88293860D03*
X122740880Y-108093860D03*
X125740880Y-108093860D03*
X155040880Y-108093860D03*
X158040880Y-108093860D03*
X157940880Y-88293860D03*
X154940880Y-88293860D03*
X143962120Y-92710000D03*
X147245879Y-96616061D03*
X139324100Y-95603060D03*
X135415880Y-99543860D03*
X136965880Y-100518860D03*
X151593860Y-102193860D03*
G04 #@! TO.N,VDD*
X139639205Y-89692124D03*
X143640872Y-100768860D03*
X139065880Y-103593860D03*
X147740880Y-100393860D03*
X151640880Y-103393860D03*
X139140880Y-109393860D03*
X150740880Y-99893852D03*
X133340880Y-104293860D03*
G04 #@! TO.N,VPP*
X136040880Y-95593860D03*
X132040880Y-100193860D03*
G04 #@! TO.N,/MAX_INT*
X146143980Y-90228420D03*
X141990880Y-98093860D03*
G04 #@! TO.N,/BMI_INT2*
X149990880Y-91493860D03*
X149963070Y-100294368D03*
G04 #@! TO.N,/BMI_INT1*
X152000000Y-91200000D03*
X151040880Y-104793860D03*
G04 #@! TO.N,Net-(D3-Pad3)*
X135515880Y-92593860D03*
X129315880Y-94743860D03*
G04 #@! TO.N,Net-(R13-Pad1)*
X132540880Y-93693860D03*
X132540880Y-97368860D03*
G04 #@! TO.N,+1V8*
X143390880Y-102543860D03*
X142665880Y-100568860D03*
X136940880Y-99493860D03*
G04 #@! TO.N,/1V8_SCL*
X141015880Y-102543870D03*
G04 #@! TO.N,/3V3_SCL*
X144219234Y-102334559D03*
X146090880Y-97043858D03*
X146940880Y-102343860D03*
G04 #@! TO.N,/1V8_SDA*
X141015874Y-101618860D03*
G04 #@! TO.N,/3V3_SDA*
X144340880Y-101543860D03*
X145190876Y-97543860D03*
X147740880Y-103193860D03*
G04 #@! TO.N,/PIN_25*
X148340880Y-107693862D03*
X148340884Y-91793860D03*
G04 #@! TO.N,Net-(C10-Pad1)*
X138190880Y-91593860D03*
X141340880Y-105443860D03*
G04 #@! TO.N,/PIN_24*
X149140880Y-93393860D03*
X149640880Y-105093860D03*
G04 #@! TO.N,/PIN_21*
X151340880Y-92593860D03*
X150940880Y-107693860D03*
G04 #@! TD*
D12*
G04 #@! TO.N,/BMI_INT2*
X149940880Y-91543860D02*
X149940880Y-100343860D01*
X149940880Y-100343860D02*
X149990880Y-100293860D01*
X149990880Y-91493860D02*
X149940880Y-91543860D01*
G04 #@! TO.N,/BMI_INT1*
X150880000Y-104632980D02*
X150880000Y-101654740D01*
X152000000Y-100534740D02*
X152000000Y-91200000D01*
X150880000Y-101654740D02*
X152000000Y-100534740D01*
X151040880Y-104793860D02*
X150880000Y-104632980D01*
G04 #@! TO.N,Net-(R13-Pad1)*
X132540880Y-97368860D02*
X132540880Y-93693860D01*
D13*
G04 #@! TO.N,/3V3_SCL*
X146090880Y-100462913D02*
X146090880Y-97043858D01*
X144219234Y-102334559D02*
X146090880Y-100462913D01*
D12*
G04 #@! TO.N,/3V3_SDA*
X144340880Y-101543860D02*
X145190876Y-100693864D01*
X145190876Y-100693864D02*
X145190876Y-97543860D01*
G04 #@! TO.N,/PIN_25*
X148340880Y-107693862D02*
X148340880Y-91793864D01*
X148340880Y-91793864D02*
X148340884Y-91793860D01*
G04 #@! TO.N,Net-(C10-Pad1)*
X140390881Y-104493861D02*
X141340880Y-105443860D01*
X140390881Y-93793861D02*
X140390881Y-104493861D01*
X138190880Y-91593860D02*
X140390881Y-93793861D01*
G04 #@! TO.N,/PIN_24*
X149140880Y-104593860D02*
X149640880Y-105093860D01*
X149140880Y-93393860D02*
X149140880Y-104593860D01*
G04 #@! TO.N,/PIN_21*
X150340880Y-107093860D02*
X150940880Y-107693860D01*
X150340880Y-101393860D02*
X150340880Y-107093860D01*
X151440880Y-100293860D02*
X150340880Y-101393860D01*
X151440880Y-92693860D02*
X151440880Y-100293860D01*
X151340880Y-92593860D02*
X151440880Y-92693860D01*
G04 #@! TD*
G04 #@! TO.N,GND*
G36*
X141204884Y-89302915D02*
X141212492Y-89342128D01*
X141234169Y-89374571D01*
X142758169Y-90898571D01*
X142790612Y-90920248D01*
X142828880Y-90927860D01*
X149789449Y-90927860D01*
X149651007Y-90985204D01*
X149482224Y-91153987D01*
X149390880Y-91374513D01*
X149390880Y-91613207D01*
X149482224Y-91833733D01*
X149540880Y-91892389D01*
X149540880Y-92945331D01*
X149480753Y-92885204D01*
X149260227Y-92793860D01*
X149021533Y-92793860D01*
X148801007Y-92885204D01*
X148740880Y-92945331D01*
X148740880Y-92242393D01*
X148849540Y-92133733D01*
X148940884Y-91913207D01*
X148940884Y-91674513D01*
X148849540Y-91453987D01*
X148680757Y-91285204D01*
X148460231Y-91193860D01*
X148221537Y-91193860D01*
X148001011Y-91285204D01*
X147832228Y-91453987D01*
X147740884Y-91674513D01*
X147740884Y-91913207D01*
X147832228Y-92133733D01*
X147940881Y-92242386D01*
X147940880Y-99827267D01*
X147860227Y-99793860D01*
X147621533Y-99793860D01*
X147401007Y-99885204D01*
X147232224Y-100053987D01*
X147140880Y-100274513D01*
X147140880Y-100513207D01*
X147232224Y-100733733D01*
X147401007Y-100902516D01*
X147621533Y-100993860D01*
X147860227Y-100993860D01*
X147940880Y-100960453D01*
X147940880Y-102627267D01*
X147860227Y-102593860D01*
X147621533Y-102593860D01*
X147458851Y-102661244D01*
X147540880Y-102463207D01*
X147540880Y-102224513D01*
X147449536Y-102003987D01*
X147280753Y-101835204D01*
X147060227Y-101743860D01*
X146821533Y-101743860D01*
X146601007Y-101835204D01*
X146432224Y-102003987D01*
X146340880Y-102224513D01*
X146340880Y-102463207D01*
X146432224Y-102683733D01*
X146601007Y-102852516D01*
X146821533Y-102943860D01*
X147060227Y-102943860D01*
X147222909Y-102876476D01*
X147140880Y-103074513D01*
X147140880Y-103313207D01*
X147232224Y-103533733D01*
X147401007Y-103702516D01*
X147621533Y-103793860D01*
X147860227Y-103793860D01*
X147940880Y-103760453D01*
X147940880Y-107245333D01*
X147832224Y-107353989D01*
X147740880Y-107574515D01*
X147740880Y-107813209D01*
X147832224Y-108033735D01*
X148001007Y-108202518D01*
X148221533Y-108293862D01*
X148460227Y-108293862D01*
X148680753Y-108202518D01*
X148849536Y-108033735D01*
X148940880Y-107813209D01*
X148940880Y-107574515D01*
X148849536Y-107353989D01*
X148740880Y-107245333D01*
X148740880Y-104633254D01*
X148764089Y-104749931D01*
X148764090Y-104749932D01*
X148852497Y-104882244D01*
X148885896Y-104904560D01*
X149040880Y-105059544D01*
X149040880Y-105213207D01*
X149132224Y-105433733D01*
X149301007Y-105602516D01*
X149521533Y-105693860D01*
X149760227Y-105693860D01*
X149940881Y-105619031D01*
X149940881Y-107054462D01*
X149933044Y-107093860D01*
X149964089Y-107249931D01*
X149964090Y-107249932D01*
X150052497Y-107382244D01*
X150085896Y-107404560D01*
X150340880Y-107659545D01*
X150340880Y-107813207D01*
X150432224Y-108033733D01*
X150601007Y-108202516D01*
X150821533Y-108293860D01*
X151060227Y-108293860D01*
X151280753Y-108202516D01*
X151449536Y-108033733D01*
X151540880Y-107813207D01*
X151540880Y-107574513D01*
X151449536Y-107353987D01*
X151280753Y-107185204D01*
X151060227Y-107093860D01*
X150906565Y-107093860D01*
X150740880Y-106928176D01*
X150740880Y-105319032D01*
X150921533Y-105393860D01*
X151160227Y-105393860D01*
X151380753Y-105302516D01*
X151549536Y-105133733D01*
X151640880Y-104913207D01*
X151640880Y-104674513D01*
X151549536Y-104453987D01*
X151380753Y-104285204D01*
X151280000Y-104243471D01*
X151280000Y-103881509D01*
X151301007Y-103902516D01*
X151521533Y-103993860D01*
X151760227Y-103993860D01*
X151980753Y-103902516D01*
X152149536Y-103733733D01*
X152240880Y-103513207D01*
X152240880Y-103274513D01*
X152149536Y-103053987D01*
X151980753Y-102885204D01*
X151760227Y-102793860D01*
X151521533Y-102793860D01*
X151301007Y-102885204D01*
X151280000Y-102906211D01*
X151280000Y-101820424D01*
X152254988Y-100845438D01*
X152288384Y-100823124D01*
X152376791Y-100690812D01*
X152400000Y-100574134D01*
X152400000Y-100574133D01*
X152407836Y-100534741D01*
X152400000Y-100495348D01*
X152400000Y-91648529D01*
X152508656Y-91539873D01*
X152600000Y-91319347D01*
X152600000Y-91080653D01*
X152536712Y-90927860D01*
X152726040Y-90927860D01*
X152726041Y-106874411D01*
X152733245Y-106910628D01*
X152733245Y-106910639D01*
X152771915Y-107105042D01*
X152771915Y-107105043D01*
X152827908Y-107240222D01*
X152938029Y-107405030D01*
X152971872Y-107438872D01*
X153041491Y-107508491D01*
X153206298Y-107618612D01*
X153244677Y-107634509D01*
X153341478Y-107674606D01*
X153535882Y-107713275D01*
X153682199Y-107713275D01*
X153683201Y-107712860D01*
X155596071Y-107712860D01*
X155727225Y-108029495D01*
X155990245Y-108292515D01*
X156333897Y-108434860D01*
X156705863Y-108434860D01*
X157049515Y-108292515D01*
X157312535Y-108029495D01*
X157443689Y-107712860D01*
X159022948Y-107712860D01*
X159058757Y-107719983D01*
X159061727Y-107734915D01*
X158994005Y-108338675D01*
X158788890Y-108927685D01*
X158458379Y-109456613D01*
X158018897Y-109899174D01*
X157492287Y-110233370D01*
X156904724Y-110442592D01*
X156265121Y-110518860D01*
X124536846Y-110518860D01*
X123896065Y-110446985D01*
X123307055Y-110241870D01*
X122778127Y-109911359D01*
X122335566Y-109471877D01*
X122210316Y-109274513D01*
X138540880Y-109274513D01*
X138540880Y-109513207D01*
X138632224Y-109733733D01*
X138801007Y-109902516D01*
X139021533Y-109993860D01*
X139260227Y-109993860D01*
X139480753Y-109902516D01*
X139649536Y-109733733D01*
X139740880Y-109513207D01*
X139740880Y-109274513D01*
X139649536Y-109053987D01*
X139480753Y-108885204D01*
X139260227Y-108793860D01*
X139021533Y-108793860D01*
X138801007Y-108885204D01*
X138632224Y-109053987D01*
X138540880Y-109274513D01*
X122210316Y-109274513D01*
X122001370Y-108945267D01*
X121792148Y-108357704D01*
X121718690Y-107741666D01*
X121723003Y-107719983D01*
X121758812Y-107712860D01*
X123338071Y-107712860D01*
X123469225Y-108029495D01*
X123732245Y-108292515D01*
X124075897Y-108434860D01*
X124447863Y-108434860D01*
X124791515Y-108292515D01*
X125054535Y-108029495D01*
X125182533Y-107720480D01*
X127229971Y-107720480D01*
X127266193Y-107713275D01*
X127266199Y-107713275D01*
X127460602Y-107674605D01*
X127460603Y-107674605D01*
X127595782Y-107618612D01*
X127760590Y-107508491D01*
X127830208Y-107438872D01*
X127864051Y-107405029D01*
X127974172Y-107240222D01*
X128008012Y-107158525D01*
X128030166Y-107105042D01*
X128068835Y-106910638D01*
X128068835Y-106910633D01*
X128076040Y-106874411D01*
X128076040Y-104174513D01*
X132740880Y-104174513D01*
X132740880Y-104413207D01*
X132832224Y-104633733D01*
X133001007Y-104802516D01*
X133221533Y-104893860D01*
X133460227Y-104893860D01*
X133680753Y-104802516D01*
X133849536Y-104633733D01*
X133940880Y-104413207D01*
X133940880Y-104174513D01*
X133849536Y-103953987D01*
X133680753Y-103785204D01*
X133460227Y-103693860D01*
X133221533Y-103693860D01*
X133001007Y-103785204D01*
X132832224Y-103953987D01*
X132740880Y-104174513D01*
X128076040Y-104174513D01*
X128076040Y-103474513D01*
X138465880Y-103474513D01*
X138465880Y-103713207D01*
X138557224Y-103933733D01*
X138726007Y-104102516D01*
X138946533Y-104193860D01*
X139185227Y-104193860D01*
X139405753Y-104102516D01*
X139574536Y-103933733D01*
X139665880Y-103713207D01*
X139665880Y-103474513D01*
X139574536Y-103253987D01*
X139405753Y-103085204D01*
X139185227Y-102993860D01*
X138946533Y-102993860D01*
X138726007Y-103085204D01*
X138557224Y-103253987D01*
X138465880Y-103474513D01*
X128076040Y-103474513D01*
X128076040Y-100074513D01*
X131440880Y-100074513D01*
X131440880Y-100313207D01*
X131532224Y-100533733D01*
X131701007Y-100702516D01*
X131921533Y-100793860D01*
X132160227Y-100793860D01*
X132380753Y-100702516D01*
X132549536Y-100533733D01*
X132640880Y-100313207D01*
X132640880Y-100074513D01*
X132549536Y-99853987D01*
X132380753Y-99685204D01*
X132160227Y-99593860D01*
X131921533Y-99593860D01*
X131701007Y-99685204D01*
X131532224Y-99853987D01*
X131440880Y-100074513D01*
X128076040Y-100074513D01*
X128076040Y-99374513D01*
X136340880Y-99374513D01*
X136340880Y-99613207D01*
X136432224Y-99833733D01*
X136601007Y-100002516D01*
X136821533Y-100093860D01*
X137060227Y-100093860D01*
X137280753Y-100002516D01*
X137449536Y-99833733D01*
X137540880Y-99613207D01*
X137540880Y-99374513D01*
X137449536Y-99153987D01*
X137280753Y-98985204D01*
X137060227Y-98893860D01*
X136821533Y-98893860D01*
X136601007Y-98985204D01*
X136432224Y-99153987D01*
X136340880Y-99374513D01*
X128076040Y-99374513D01*
X128076040Y-94624513D01*
X128715880Y-94624513D01*
X128715880Y-94863207D01*
X128807224Y-95083733D01*
X128976007Y-95252516D01*
X129196533Y-95343860D01*
X129435227Y-95343860D01*
X129655753Y-95252516D01*
X129824536Y-95083733D01*
X129915880Y-94863207D01*
X129915880Y-94624513D01*
X129824536Y-94403987D01*
X129655753Y-94235204D01*
X129435227Y-94143860D01*
X129196533Y-94143860D01*
X128976007Y-94235204D01*
X128807224Y-94403987D01*
X128715880Y-94624513D01*
X128076040Y-94624513D01*
X128076040Y-93574513D01*
X131940880Y-93574513D01*
X131940880Y-93813207D01*
X132032224Y-94033733D01*
X132140881Y-94142390D01*
X132140880Y-96920331D01*
X132032224Y-97028987D01*
X131940880Y-97249513D01*
X131940880Y-97488207D01*
X132032224Y-97708733D01*
X132201007Y-97877516D01*
X132421533Y-97968860D01*
X132660227Y-97968860D01*
X132880753Y-97877516D01*
X133049536Y-97708733D01*
X133140880Y-97488207D01*
X133140880Y-97249513D01*
X133049536Y-97028987D01*
X132940880Y-96920331D01*
X132940880Y-95474513D01*
X135440880Y-95474513D01*
X135440880Y-95713207D01*
X135532224Y-95933733D01*
X135701007Y-96102516D01*
X135921533Y-96193860D01*
X136160227Y-96193860D01*
X136380753Y-96102516D01*
X136549536Y-95933733D01*
X136640880Y-95713207D01*
X136640880Y-95474513D01*
X136549536Y-95253987D01*
X136380753Y-95085204D01*
X136160227Y-94993860D01*
X135921533Y-94993860D01*
X135701007Y-95085204D01*
X135532224Y-95253987D01*
X135440880Y-95474513D01*
X132940880Y-95474513D01*
X132940880Y-94142389D01*
X133049536Y-94033733D01*
X133140880Y-93813207D01*
X133140880Y-93574513D01*
X133049536Y-93353987D01*
X132880753Y-93185204D01*
X132660227Y-93093860D01*
X132421533Y-93093860D01*
X132201007Y-93185204D01*
X132032224Y-93353987D01*
X131940880Y-93574513D01*
X128076040Y-93574513D01*
X128076040Y-92474513D01*
X134915880Y-92474513D01*
X134915880Y-92713207D01*
X135007224Y-92933733D01*
X135176007Y-93102516D01*
X135396533Y-93193860D01*
X135635227Y-93193860D01*
X135855753Y-93102516D01*
X136024536Y-92933733D01*
X136115880Y-92713207D01*
X136115880Y-92474513D01*
X136024536Y-92253987D01*
X135855753Y-92085204D01*
X135635227Y-91993860D01*
X135396533Y-91993860D01*
X135176007Y-92085204D01*
X135007224Y-92253987D01*
X134915880Y-92474513D01*
X128076040Y-92474513D01*
X128076040Y-91474513D01*
X137590880Y-91474513D01*
X137590880Y-91713207D01*
X137682224Y-91933733D01*
X137851007Y-92102516D01*
X138071533Y-92193860D01*
X138225196Y-92193860D01*
X139990881Y-93959547D01*
X139990882Y-104454462D01*
X139983045Y-104493861D01*
X140014090Y-104649932D01*
X140014091Y-104649933D01*
X140102498Y-104782245D01*
X140135897Y-104804561D01*
X140740880Y-105409545D01*
X140740880Y-105563207D01*
X140832224Y-105783733D01*
X141001007Y-105952516D01*
X141221533Y-106043860D01*
X141460227Y-106043860D01*
X141680753Y-105952516D01*
X141849536Y-105783733D01*
X141940880Y-105563207D01*
X141940880Y-105324513D01*
X141849536Y-105103987D01*
X141680753Y-104935204D01*
X141460227Y-104843860D01*
X141306565Y-104843860D01*
X140790881Y-104328177D01*
X140790881Y-103100108D01*
X140896533Y-103143870D01*
X141135227Y-103143870D01*
X141355753Y-103052526D01*
X141524536Y-102883743D01*
X141615880Y-102663217D01*
X141615880Y-102424523D01*
X141524536Y-102203997D01*
X141401901Y-102081362D01*
X141524530Y-101958733D01*
X141615874Y-101738207D01*
X141615874Y-101499513D01*
X141524530Y-101278987D01*
X141355747Y-101110204D01*
X141135221Y-101018860D01*
X140896527Y-101018860D01*
X140790881Y-101062620D01*
X140790881Y-100449513D01*
X142065880Y-100449513D01*
X142065880Y-100688207D01*
X142157224Y-100908733D01*
X142326007Y-101077516D01*
X142546533Y-101168860D01*
X142785227Y-101168860D01*
X143005753Y-101077516D01*
X143086033Y-100997236D01*
X143132216Y-101108733D01*
X143300999Y-101277516D01*
X143521525Y-101368860D01*
X143760219Y-101368860D01*
X143764701Y-101367004D01*
X143740880Y-101424513D01*
X143740880Y-101663207D01*
X143829092Y-101876172D01*
X143710578Y-101994686D01*
X143699207Y-102022137D01*
X143510227Y-101943860D01*
X143271533Y-101943860D01*
X143051007Y-102035204D01*
X142882224Y-102203987D01*
X142790880Y-102424513D01*
X142790880Y-102663207D01*
X142882224Y-102883733D01*
X143051007Y-103052516D01*
X143271533Y-103143860D01*
X143510227Y-103143860D01*
X143730753Y-103052516D01*
X143899536Y-102883733D01*
X143910907Y-102856282D01*
X144099887Y-102934559D01*
X144338581Y-102934559D01*
X144559107Y-102843215D01*
X144727890Y-102674432D01*
X144819234Y-102453906D01*
X144819234Y-102286102D01*
X146339495Y-100765842D01*
X146372054Y-100744087D01*
X146458251Y-100615083D01*
X146480880Y-100501321D01*
X146480880Y-100501317D01*
X146488519Y-100462914D01*
X146480880Y-100424511D01*
X146480880Y-97502387D01*
X146599536Y-97383731D01*
X146690880Y-97163205D01*
X146690880Y-96924511D01*
X146599536Y-96703985D01*
X146430753Y-96535202D01*
X146210227Y-96443858D01*
X145971533Y-96443858D01*
X145751007Y-96535202D01*
X145582224Y-96703985D01*
X145490880Y-96924511D01*
X145490880Y-97018690D01*
X145310223Y-96943860D01*
X145071529Y-96943860D01*
X144851003Y-97035204D01*
X144682220Y-97203987D01*
X144590876Y-97424513D01*
X144590876Y-97663207D01*
X144682220Y-97883733D01*
X144790877Y-97992390D01*
X144790876Y-100528179D01*
X144375196Y-100943860D01*
X144221533Y-100943860D01*
X144217051Y-100945716D01*
X144240872Y-100888207D01*
X144240872Y-100649513D01*
X144149528Y-100428987D01*
X143980745Y-100260204D01*
X143760219Y-100168860D01*
X143521525Y-100168860D01*
X143300999Y-100260204D01*
X143220719Y-100340484D01*
X143174536Y-100228987D01*
X143005753Y-100060204D01*
X142785227Y-99968860D01*
X142546533Y-99968860D01*
X142326007Y-100060204D01*
X142157224Y-100228987D01*
X142065880Y-100449513D01*
X140790881Y-100449513D01*
X140790881Y-97974513D01*
X141390880Y-97974513D01*
X141390880Y-98213207D01*
X141482224Y-98433733D01*
X141651007Y-98602516D01*
X141871533Y-98693860D01*
X142110227Y-98693860D01*
X142330753Y-98602516D01*
X142499536Y-98433733D01*
X142590880Y-98213207D01*
X142590880Y-97974513D01*
X142499536Y-97753987D01*
X142330753Y-97585204D01*
X142110227Y-97493860D01*
X141871533Y-97493860D01*
X141651007Y-97585204D01*
X141482224Y-97753987D01*
X141390880Y-97974513D01*
X140790881Y-97974513D01*
X140790881Y-93833253D01*
X140798717Y-93793860D01*
X140790881Y-93754467D01*
X140767672Y-93637789D01*
X140679265Y-93505477D01*
X140645869Y-93483163D01*
X138790880Y-91628176D01*
X138790880Y-91474513D01*
X138699536Y-91253987D01*
X138530753Y-91085204D01*
X138310227Y-90993860D01*
X138071533Y-90993860D01*
X137851007Y-91085204D01*
X137682224Y-91253987D01*
X137590880Y-91474513D01*
X128076040Y-91474513D01*
X128076040Y-89572777D01*
X139039205Y-89572777D01*
X139039205Y-89811471D01*
X139130549Y-90031997D01*
X139299332Y-90200780D01*
X139519858Y-90292124D01*
X139758552Y-90292124D01*
X139979078Y-90200780D01*
X140147861Y-90031997D01*
X140239205Y-89811471D01*
X140239205Y-89572777D01*
X140147861Y-89352251D01*
X139979078Y-89183468D01*
X139758552Y-89092124D01*
X139519858Y-89092124D01*
X139299332Y-89183468D01*
X139130549Y-89352251D01*
X139039205Y-89572777D01*
X128076040Y-89572777D01*
X128076040Y-89528549D01*
X128068835Y-89492327D01*
X128068835Y-89492322D01*
X128030166Y-89297918D01*
X127991179Y-89203797D01*
X127974172Y-89162738D01*
X127864051Y-88997931D01*
X127799218Y-88933098D01*
X127760590Y-88894469D01*
X127595782Y-88784348D01*
X127460603Y-88728355D01*
X127460602Y-88728355D01*
X127266199Y-88689685D01*
X127266193Y-88689685D01*
X127229971Y-88682480D01*
X125136241Y-88682480D01*
X125054535Y-88485225D01*
X124821629Y-88252319D01*
X128432405Y-88252319D01*
X128494321Y-88401842D01*
X128736639Y-88707666D01*
X129077545Y-88897479D01*
X129230220Y-88858735D01*
X129230220Y-88099647D01*
X129538220Y-88099647D01*
X129538220Y-88858735D01*
X129690895Y-88897479D01*
X130031801Y-88707666D01*
X130274119Y-88401842D01*
X130336035Y-88252319D01*
X135032405Y-88252319D01*
X135094321Y-88401842D01*
X135336639Y-88707666D01*
X135677545Y-88897479D01*
X135830220Y-88858735D01*
X135830220Y-88099647D01*
X136138220Y-88099647D01*
X136138220Y-88858735D01*
X136290895Y-88897479D01*
X136631801Y-88707666D01*
X136874119Y-88401842D01*
X136936035Y-88252319D01*
X136896310Y-88099647D01*
X136138220Y-88099647D01*
X135830220Y-88099647D01*
X135072130Y-88099647D01*
X135032405Y-88252319D01*
X130336035Y-88252319D01*
X130296310Y-88099647D01*
X129538220Y-88099647D01*
X129230220Y-88099647D01*
X128472130Y-88099647D01*
X128432405Y-88252319D01*
X124821629Y-88252319D01*
X124791515Y-88222205D01*
X124447863Y-88079860D01*
X124075897Y-88079860D01*
X123732245Y-88222205D01*
X123469225Y-88485225D01*
X123390676Y-88674860D01*
X121758812Y-88674860D01*
X121723003Y-88667737D01*
X121720033Y-88652804D01*
X121787755Y-88049045D01*
X121930556Y-87638975D01*
X128432405Y-87638975D01*
X128472130Y-87791647D01*
X129230220Y-87791647D01*
X129230220Y-87032559D01*
X129538220Y-87032559D01*
X129538220Y-87791647D01*
X130296310Y-87791647D01*
X130336035Y-87638975D01*
X135032405Y-87638975D01*
X135072130Y-87791647D01*
X135830220Y-87791647D01*
X135830220Y-87032559D01*
X136138220Y-87032559D01*
X136138220Y-87791647D01*
X136896310Y-87791647D01*
X136936035Y-87638975D01*
X136874119Y-87489452D01*
X136631801Y-87183628D01*
X136290895Y-86993815D01*
X136138220Y-87032559D01*
X135830220Y-87032559D01*
X135677545Y-86993815D01*
X135336639Y-87183628D01*
X135094321Y-87489452D01*
X135032405Y-87638975D01*
X130336035Y-87638975D01*
X130274119Y-87489452D01*
X130031801Y-87183628D01*
X129690895Y-86993815D01*
X129538220Y-87032559D01*
X129230220Y-87032559D01*
X129077545Y-86993815D01*
X128736639Y-87183628D01*
X128494321Y-87489452D01*
X128432405Y-87638975D01*
X121930556Y-87638975D01*
X121992870Y-87460037D01*
X122323381Y-86931107D01*
X122762863Y-86488546D01*
X123289471Y-86154351D01*
X123877036Y-85945128D01*
X124516638Y-85868860D01*
X141237332Y-85868860D01*
X141204884Y-89302915D01*
X141204884Y-89302915D01*
G37*
X141204884Y-89302915D02*
X141212492Y-89342128D01*
X141234169Y-89374571D01*
X142758169Y-90898571D01*
X142790612Y-90920248D01*
X142828880Y-90927860D01*
X149789449Y-90927860D01*
X149651007Y-90985204D01*
X149482224Y-91153987D01*
X149390880Y-91374513D01*
X149390880Y-91613207D01*
X149482224Y-91833733D01*
X149540880Y-91892389D01*
X149540880Y-92945331D01*
X149480753Y-92885204D01*
X149260227Y-92793860D01*
X149021533Y-92793860D01*
X148801007Y-92885204D01*
X148740880Y-92945331D01*
X148740880Y-92242393D01*
X148849540Y-92133733D01*
X148940884Y-91913207D01*
X148940884Y-91674513D01*
X148849540Y-91453987D01*
X148680757Y-91285204D01*
X148460231Y-91193860D01*
X148221537Y-91193860D01*
X148001011Y-91285204D01*
X147832228Y-91453987D01*
X147740884Y-91674513D01*
X147740884Y-91913207D01*
X147832228Y-92133733D01*
X147940881Y-92242386D01*
X147940880Y-99827267D01*
X147860227Y-99793860D01*
X147621533Y-99793860D01*
X147401007Y-99885204D01*
X147232224Y-100053987D01*
X147140880Y-100274513D01*
X147140880Y-100513207D01*
X147232224Y-100733733D01*
X147401007Y-100902516D01*
X147621533Y-100993860D01*
X147860227Y-100993860D01*
X147940880Y-100960453D01*
X147940880Y-102627267D01*
X147860227Y-102593860D01*
X147621533Y-102593860D01*
X147458851Y-102661244D01*
X147540880Y-102463207D01*
X147540880Y-102224513D01*
X147449536Y-102003987D01*
X147280753Y-101835204D01*
X147060227Y-101743860D01*
X146821533Y-101743860D01*
X146601007Y-101835204D01*
X146432224Y-102003987D01*
X146340880Y-102224513D01*
X146340880Y-102463207D01*
X146432224Y-102683733D01*
X146601007Y-102852516D01*
X146821533Y-102943860D01*
X147060227Y-102943860D01*
X147222909Y-102876476D01*
X147140880Y-103074513D01*
X147140880Y-103313207D01*
X147232224Y-103533733D01*
X147401007Y-103702516D01*
X147621533Y-103793860D01*
X147860227Y-103793860D01*
X147940880Y-103760453D01*
X147940880Y-107245333D01*
X147832224Y-107353989D01*
X147740880Y-107574515D01*
X147740880Y-107813209D01*
X147832224Y-108033735D01*
X148001007Y-108202518D01*
X148221533Y-108293862D01*
X148460227Y-108293862D01*
X148680753Y-108202518D01*
X148849536Y-108033735D01*
X148940880Y-107813209D01*
X148940880Y-107574515D01*
X148849536Y-107353989D01*
X148740880Y-107245333D01*
X148740880Y-104633254D01*
X148764089Y-104749931D01*
X148764090Y-104749932D01*
X148852497Y-104882244D01*
X148885896Y-104904560D01*
X149040880Y-105059544D01*
X149040880Y-105213207D01*
X149132224Y-105433733D01*
X149301007Y-105602516D01*
X149521533Y-105693860D01*
X149760227Y-105693860D01*
X149940881Y-105619031D01*
X149940881Y-107054462D01*
X149933044Y-107093860D01*
X149964089Y-107249931D01*
X149964090Y-107249932D01*
X150052497Y-107382244D01*
X150085896Y-107404560D01*
X150340880Y-107659545D01*
X150340880Y-107813207D01*
X150432224Y-108033733D01*
X150601007Y-108202516D01*
X150821533Y-108293860D01*
X151060227Y-108293860D01*
X151280753Y-108202516D01*
X151449536Y-108033733D01*
X151540880Y-107813207D01*
X151540880Y-107574513D01*
X151449536Y-107353987D01*
X151280753Y-107185204D01*
X151060227Y-107093860D01*
X150906565Y-107093860D01*
X150740880Y-106928176D01*
X150740880Y-105319032D01*
X150921533Y-105393860D01*
X151160227Y-105393860D01*
X151380753Y-105302516D01*
X151549536Y-105133733D01*
X151640880Y-104913207D01*
X151640880Y-104674513D01*
X151549536Y-104453987D01*
X151380753Y-104285204D01*
X151280000Y-104243471D01*
X151280000Y-103881509D01*
X151301007Y-103902516D01*
X151521533Y-103993860D01*
X151760227Y-103993860D01*
X151980753Y-103902516D01*
X152149536Y-103733733D01*
X152240880Y-103513207D01*
X152240880Y-103274513D01*
X152149536Y-103053987D01*
X151980753Y-102885204D01*
X151760227Y-102793860D01*
X151521533Y-102793860D01*
X151301007Y-102885204D01*
X151280000Y-102906211D01*
X151280000Y-101820424D01*
X152254988Y-100845438D01*
X152288384Y-100823124D01*
X152376791Y-100690812D01*
X152400000Y-100574134D01*
X152400000Y-100574133D01*
X152407836Y-100534741D01*
X152400000Y-100495348D01*
X152400000Y-91648529D01*
X152508656Y-91539873D01*
X152600000Y-91319347D01*
X152600000Y-91080653D01*
X152536712Y-90927860D01*
X152726040Y-90927860D01*
X152726041Y-106874411D01*
X152733245Y-106910628D01*
X152733245Y-106910639D01*
X152771915Y-107105042D01*
X152771915Y-107105043D01*
X152827908Y-107240222D01*
X152938029Y-107405030D01*
X152971872Y-107438872D01*
X153041491Y-107508491D01*
X153206298Y-107618612D01*
X153244677Y-107634509D01*
X153341478Y-107674606D01*
X153535882Y-107713275D01*
X153682199Y-107713275D01*
X153683201Y-107712860D01*
X155596071Y-107712860D01*
X155727225Y-108029495D01*
X155990245Y-108292515D01*
X156333897Y-108434860D01*
X156705863Y-108434860D01*
X157049515Y-108292515D01*
X157312535Y-108029495D01*
X157443689Y-107712860D01*
X159022948Y-107712860D01*
X159058757Y-107719983D01*
X159061727Y-107734915D01*
X158994005Y-108338675D01*
X158788890Y-108927685D01*
X158458379Y-109456613D01*
X158018897Y-109899174D01*
X157492287Y-110233370D01*
X156904724Y-110442592D01*
X156265121Y-110518860D01*
X124536846Y-110518860D01*
X123896065Y-110446985D01*
X123307055Y-110241870D01*
X122778127Y-109911359D01*
X122335566Y-109471877D01*
X122210316Y-109274513D01*
X138540880Y-109274513D01*
X138540880Y-109513207D01*
X138632224Y-109733733D01*
X138801007Y-109902516D01*
X139021533Y-109993860D01*
X139260227Y-109993860D01*
X139480753Y-109902516D01*
X139649536Y-109733733D01*
X139740880Y-109513207D01*
X139740880Y-109274513D01*
X139649536Y-109053987D01*
X139480753Y-108885204D01*
X139260227Y-108793860D01*
X139021533Y-108793860D01*
X138801007Y-108885204D01*
X138632224Y-109053987D01*
X138540880Y-109274513D01*
X122210316Y-109274513D01*
X122001370Y-108945267D01*
X121792148Y-108357704D01*
X121718690Y-107741666D01*
X121723003Y-107719983D01*
X121758812Y-107712860D01*
X123338071Y-107712860D01*
X123469225Y-108029495D01*
X123732245Y-108292515D01*
X124075897Y-108434860D01*
X124447863Y-108434860D01*
X124791515Y-108292515D01*
X125054535Y-108029495D01*
X125182533Y-107720480D01*
X127229971Y-107720480D01*
X127266193Y-107713275D01*
X127266199Y-107713275D01*
X127460602Y-107674605D01*
X127460603Y-107674605D01*
X127595782Y-107618612D01*
X127760590Y-107508491D01*
X127830208Y-107438872D01*
X127864051Y-107405029D01*
X127974172Y-107240222D01*
X128008012Y-107158525D01*
X128030166Y-107105042D01*
X128068835Y-106910638D01*
X128068835Y-106910633D01*
X128076040Y-106874411D01*
X128076040Y-104174513D01*
X132740880Y-104174513D01*
X132740880Y-104413207D01*
X132832224Y-104633733D01*
X133001007Y-104802516D01*
X133221533Y-104893860D01*
X133460227Y-104893860D01*
X133680753Y-104802516D01*
X133849536Y-104633733D01*
X133940880Y-104413207D01*
X133940880Y-104174513D01*
X133849536Y-103953987D01*
X133680753Y-103785204D01*
X133460227Y-103693860D01*
X133221533Y-103693860D01*
X133001007Y-103785204D01*
X132832224Y-103953987D01*
X132740880Y-104174513D01*
X128076040Y-104174513D01*
X128076040Y-103474513D01*
X138465880Y-103474513D01*
X138465880Y-103713207D01*
X138557224Y-103933733D01*
X138726007Y-104102516D01*
X138946533Y-104193860D01*
X139185227Y-104193860D01*
X139405753Y-104102516D01*
X139574536Y-103933733D01*
X139665880Y-103713207D01*
X139665880Y-103474513D01*
X139574536Y-103253987D01*
X139405753Y-103085204D01*
X139185227Y-102993860D01*
X138946533Y-102993860D01*
X138726007Y-103085204D01*
X138557224Y-103253987D01*
X138465880Y-103474513D01*
X128076040Y-103474513D01*
X128076040Y-100074513D01*
X131440880Y-100074513D01*
X131440880Y-100313207D01*
X131532224Y-100533733D01*
X131701007Y-100702516D01*
X131921533Y-100793860D01*
X132160227Y-100793860D01*
X132380753Y-100702516D01*
X132549536Y-100533733D01*
X132640880Y-100313207D01*
X132640880Y-100074513D01*
X132549536Y-99853987D01*
X132380753Y-99685204D01*
X132160227Y-99593860D01*
X131921533Y-99593860D01*
X131701007Y-99685204D01*
X131532224Y-99853987D01*
X131440880Y-100074513D01*
X128076040Y-100074513D01*
X128076040Y-99374513D01*
X136340880Y-99374513D01*
X136340880Y-99613207D01*
X136432224Y-99833733D01*
X136601007Y-100002516D01*
X136821533Y-100093860D01*
X137060227Y-100093860D01*
X137280753Y-100002516D01*
X137449536Y-99833733D01*
X137540880Y-99613207D01*
X137540880Y-99374513D01*
X137449536Y-99153987D01*
X137280753Y-98985204D01*
X137060227Y-98893860D01*
X136821533Y-98893860D01*
X136601007Y-98985204D01*
X136432224Y-99153987D01*
X136340880Y-99374513D01*
X128076040Y-99374513D01*
X128076040Y-94624513D01*
X128715880Y-94624513D01*
X128715880Y-94863207D01*
X128807224Y-95083733D01*
X128976007Y-95252516D01*
X129196533Y-95343860D01*
X129435227Y-95343860D01*
X129655753Y-95252516D01*
X129824536Y-95083733D01*
X129915880Y-94863207D01*
X129915880Y-94624513D01*
X129824536Y-94403987D01*
X129655753Y-94235204D01*
X129435227Y-94143860D01*
X129196533Y-94143860D01*
X128976007Y-94235204D01*
X128807224Y-94403987D01*
X128715880Y-94624513D01*
X128076040Y-94624513D01*
X128076040Y-93574513D01*
X131940880Y-93574513D01*
X131940880Y-93813207D01*
X132032224Y-94033733D01*
X132140881Y-94142390D01*
X132140880Y-96920331D01*
X132032224Y-97028987D01*
X131940880Y-97249513D01*
X131940880Y-97488207D01*
X132032224Y-97708733D01*
X132201007Y-97877516D01*
X132421533Y-97968860D01*
X132660227Y-97968860D01*
X132880753Y-97877516D01*
X133049536Y-97708733D01*
X133140880Y-97488207D01*
X133140880Y-97249513D01*
X133049536Y-97028987D01*
X132940880Y-96920331D01*
X132940880Y-95474513D01*
X135440880Y-95474513D01*
X135440880Y-95713207D01*
X135532224Y-95933733D01*
X135701007Y-96102516D01*
X135921533Y-96193860D01*
X136160227Y-96193860D01*
X136380753Y-96102516D01*
X136549536Y-95933733D01*
X136640880Y-95713207D01*
X136640880Y-95474513D01*
X136549536Y-95253987D01*
X136380753Y-95085204D01*
X136160227Y-94993860D01*
X135921533Y-94993860D01*
X135701007Y-95085204D01*
X135532224Y-95253987D01*
X135440880Y-95474513D01*
X132940880Y-95474513D01*
X132940880Y-94142389D01*
X133049536Y-94033733D01*
X133140880Y-93813207D01*
X133140880Y-93574513D01*
X133049536Y-93353987D01*
X132880753Y-93185204D01*
X132660227Y-93093860D01*
X132421533Y-93093860D01*
X132201007Y-93185204D01*
X132032224Y-93353987D01*
X131940880Y-93574513D01*
X128076040Y-93574513D01*
X128076040Y-92474513D01*
X134915880Y-92474513D01*
X134915880Y-92713207D01*
X135007224Y-92933733D01*
X135176007Y-93102516D01*
X135396533Y-93193860D01*
X135635227Y-93193860D01*
X135855753Y-93102516D01*
X136024536Y-92933733D01*
X136115880Y-92713207D01*
X136115880Y-92474513D01*
X136024536Y-92253987D01*
X135855753Y-92085204D01*
X135635227Y-91993860D01*
X135396533Y-91993860D01*
X135176007Y-92085204D01*
X135007224Y-92253987D01*
X134915880Y-92474513D01*
X128076040Y-92474513D01*
X128076040Y-91474513D01*
X137590880Y-91474513D01*
X137590880Y-91713207D01*
X137682224Y-91933733D01*
X137851007Y-92102516D01*
X138071533Y-92193860D01*
X138225196Y-92193860D01*
X139990881Y-93959547D01*
X139990882Y-104454462D01*
X139983045Y-104493861D01*
X140014090Y-104649932D01*
X140014091Y-104649933D01*
X140102498Y-104782245D01*
X140135897Y-104804561D01*
X140740880Y-105409545D01*
X140740880Y-105563207D01*
X140832224Y-105783733D01*
X141001007Y-105952516D01*
X141221533Y-106043860D01*
X141460227Y-106043860D01*
X141680753Y-105952516D01*
X141849536Y-105783733D01*
X141940880Y-105563207D01*
X141940880Y-105324513D01*
X141849536Y-105103987D01*
X141680753Y-104935204D01*
X141460227Y-104843860D01*
X141306565Y-104843860D01*
X140790881Y-104328177D01*
X140790881Y-103100108D01*
X140896533Y-103143870D01*
X141135227Y-103143870D01*
X141355753Y-103052526D01*
X141524536Y-102883743D01*
X141615880Y-102663217D01*
X141615880Y-102424523D01*
X141524536Y-102203997D01*
X141401901Y-102081362D01*
X141524530Y-101958733D01*
X141615874Y-101738207D01*
X141615874Y-101499513D01*
X141524530Y-101278987D01*
X141355747Y-101110204D01*
X141135221Y-101018860D01*
X140896527Y-101018860D01*
X140790881Y-101062620D01*
X140790881Y-100449513D01*
X142065880Y-100449513D01*
X142065880Y-100688207D01*
X142157224Y-100908733D01*
X142326007Y-101077516D01*
X142546533Y-101168860D01*
X142785227Y-101168860D01*
X143005753Y-101077516D01*
X143086033Y-100997236D01*
X143132216Y-101108733D01*
X143300999Y-101277516D01*
X143521525Y-101368860D01*
X143760219Y-101368860D01*
X143764701Y-101367004D01*
X143740880Y-101424513D01*
X143740880Y-101663207D01*
X143829092Y-101876172D01*
X143710578Y-101994686D01*
X143699207Y-102022137D01*
X143510227Y-101943860D01*
X143271533Y-101943860D01*
X143051007Y-102035204D01*
X142882224Y-102203987D01*
X142790880Y-102424513D01*
X142790880Y-102663207D01*
X142882224Y-102883733D01*
X143051007Y-103052516D01*
X143271533Y-103143860D01*
X143510227Y-103143860D01*
X143730753Y-103052516D01*
X143899536Y-102883733D01*
X143910907Y-102856282D01*
X144099887Y-102934559D01*
X144338581Y-102934559D01*
X144559107Y-102843215D01*
X144727890Y-102674432D01*
X144819234Y-102453906D01*
X144819234Y-102286102D01*
X146339495Y-100765842D01*
X146372054Y-100744087D01*
X146458251Y-100615083D01*
X146480880Y-100501321D01*
X146480880Y-100501317D01*
X146488519Y-100462914D01*
X146480880Y-100424511D01*
X146480880Y-97502387D01*
X146599536Y-97383731D01*
X146690880Y-97163205D01*
X146690880Y-96924511D01*
X146599536Y-96703985D01*
X146430753Y-96535202D01*
X146210227Y-96443858D01*
X145971533Y-96443858D01*
X145751007Y-96535202D01*
X145582224Y-96703985D01*
X145490880Y-96924511D01*
X145490880Y-97018690D01*
X145310223Y-96943860D01*
X145071529Y-96943860D01*
X144851003Y-97035204D01*
X144682220Y-97203987D01*
X144590876Y-97424513D01*
X144590876Y-97663207D01*
X144682220Y-97883733D01*
X144790877Y-97992390D01*
X144790876Y-100528179D01*
X144375196Y-100943860D01*
X144221533Y-100943860D01*
X144217051Y-100945716D01*
X144240872Y-100888207D01*
X144240872Y-100649513D01*
X144149528Y-100428987D01*
X143980745Y-100260204D01*
X143760219Y-100168860D01*
X143521525Y-100168860D01*
X143300999Y-100260204D01*
X143220719Y-100340484D01*
X143174536Y-100228987D01*
X143005753Y-100060204D01*
X142785227Y-99968860D01*
X142546533Y-99968860D01*
X142326007Y-100060204D01*
X142157224Y-100228987D01*
X142065880Y-100449513D01*
X140790881Y-100449513D01*
X140790881Y-97974513D01*
X141390880Y-97974513D01*
X141390880Y-98213207D01*
X141482224Y-98433733D01*
X141651007Y-98602516D01*
X141871533Y-98693860D01*
X142110227Y-98693860D01*
X142330753Y-98602516D01*
X142499536Y-98433733D01*
X142590880Y-98213207D01*
X142590880Y-97974513D01*
X142499536Y-97753987D01*
X142330753Y-97585204D01*
X142110227Y-97493860D01*
X141871533Y-97493860D01*
X141651007Y-97585204D01*
X141482224Y-97753987D01*
X141390880Y-97974513D01*
X140790881Y-97974513D01*
X140790881Y-93833253D01*
X140798717Y-93793860D01*
X140790881Y-93754467D01*
X140767672Y-93637789D01*
X140679265Y-93505477D01*
X140645869Y-93483163D01*
X138790880Y-91628176D01*
X138790880Y-91474513D01*
X138699536Y-91253987D01*
X138530753Y-91085204D01*
X138310227Y-90993860D01*
X138071533Y-90993860D01*
X137851007Y-91085204D01*
X137682224Y-91253987D01*
X137590880Y-91474513D01*
X128076040Y-91474513D01*
X128076040Y-89572777D01*
X139039205Y-89572777D01*
X139039205Y-89811471D01*
X139130549Y-90031997D01*
X139299332Y-90200780D01*
X139519858Y-90292124D01*
X139758552Y-90292124D01*
X139979078Y-90200780D01*
X140147861Y-90031997D01*
X140239205Y-89811471D01*
X140239205Y-89572777D01*
X140147861Y-89352251D01*
X139979078Y-89183468D01*
X139758552Y-89092124D01*
X139519858Y-89092124D01*
X139299332Y-89183468D01*
X139130549Y-89352251D01*
X139039205Y-89572777D01*
X128076040Y-89572777D01*
X128076040Y-89528549D01*
X128068835Y-89492327D01*
X128068835Y-89492322D01*
X128030166Y-89297918D01*
X127991179Y-89203797D01*
X127974172Y-89162738D01*
X127864051Y-88997931D01*
X127799218Y-88933098D01*
X127760590Y-88894469D01*
X127595782Y-88784348D01*
X127460603Y-88728355D01*
X127460602Y-88728355D01*
X127266199Y-88689685D01*
X127266193Y-88689685D01*
X127229971Y-88682480D01*
X125136241Y-88682480D01*
X125054535Y-88485225D01*
X124821629Y-88252319D01*
X128432405Y-88252319D01*
X128494321Y-88401842D01*
X128736639Y-88707666D01*
X129077545Y-88897479D01*
X129230220Y-88858735D01*
X129230220Y-88099647D01*
X129538220Y-88099647D01*
X129538220Y-88858735D01*
X129690895Y-88897479D01*
X130031801Y-88707666D01*
X130274119Y-88401842D01*
X130336035Y-88252319D01*
X135032405Y-88252319D01*
X135094321Y-88401842D01*
X135336639Y-88707666D01*
X135677545Y-88897479D01*
X135830220Y-88858735D01*
X135830220Y-88099647D01*
X136138220Y-88099647D01*
X136138220Y-88858735D01*
X136290895Y-88897479D01*
X136631801Y-88707666D01*
X136874119Y-88401842D01*
X136936035Y-88252319D01*
X136896310Y-88099647D01*
X136138220Y-88099647D01*
X135830220Y-88099647D01*
X135072130Y-88099647D01*
X135032405Y-88252319D01*
X130336035Y-88252319D01*
X130296310Y-88099647D01*
X129538220Y-88099647D01*
X129230220Y-88099647D01*
X128472130Y-88099647D01*
X128432405Y-88252319D01*
X124821629Y-88252319D01*
X124791515Y-88222205D01*
X124447863Y-88079860D01*
X124075897Y-88079860D01*
X123732245Y-88222205D01*
X123469225Y-88485225D01*
X123390676Y-88674860D01*
X121758812Y-88674860D01*
X121723003Y-88667737D01*
X121720033Y-88652804D01*
X121787755Y-88049045D01*
X121930556Y-87638975D01*
X128432405Y-87638975D01*
X128472130Y-87791647D01*
X129230220Y-87791647D01*
X129230220Y-87032559D01*
X129538220Y-87032559D01*
X129538220Y-87791647D01*
X130296310Y-87791647D01*
X130336035Y-87638975D01*
X135032405Y-87638975D01*
X135072130Y-87791647D01*
X135830220Y-87791647D01*
X135830220Y-87032559D01*
X136138220Y-87032559D01*
X136138220Y-87791647D01*
X136896310Y-87791647D01*
X136936035Y-87638975D01*
X136874119Y-87489452D01*
X136631801Y-87183628D01*
X136290895Y-86993815D01*
X136138220Y-87032559D01*
X135830220Y-87032559D01*
X135677545Y-86993815D01*
X135336639Y-87183628D01*
X135094321Y-87489452D01*
X135032405Y-87638975D01*
X130336035Y-87638975D01*
X130274119Y-87489452D01*
X130031801Y-87183628D01*
X129690895Y-86993815D01*
X129538220Y-87032559D01*
X129230220Y-87032559D01*
X129077545Y-86993815D01*
X128736639Y-87183628D01*
X128494321Y-87489452D01*
X128432405Y-87638975D01*
X121930556Y-87638975D01*
X121992870Y-87460037D01*
X122323381Y-86931107D01*
X122762863Y-86488546D01*
X123289471Y-86154351D01*
X123877036Y-85945128D01*
X124516638Y-85868860D01*
X141237332Y-85868860D01*
X141204884Y-89302915D01*
G36*
X156885695Y-85940735D02*
X157474703Y-86145850D01*
X158003633Y-86476361D01*
X158446194Y-86915843D01*
X158780389Y-87442451D01*
X158989612Y-88030016D01*
X159063070Y-88646054D01*
X159058757Y-88667737D01*
X159022948Y-88674860D01*
X157264084Y-88674860D01*
X157185535Y-88485225D01*
X156922515Y-88222205D01*
X156578863Y-88079860D01*
X156206897Y-88079860D01*
X155863245Y-88222205D01*
X155600225Y-88485225D01*
X155521676Y-88674860D01*
X153561949Y-88674860D01*
X153452563Y-88696618D01*
X153432021Y-88710344D01*
X153341478Y-88728354D01*
X153299653Y-88745679D01*
X153206298Y-88784348D01*
X153190880Y-88794650D01*
X153190880Y-85868860D01*
X156244914Y-85868860D01*
X156885695Y-85940735D01*
X156885695Y-85940735D01*
G37*
X156885695Y-85940735D02*
X157474703Y-86145850D01*
X158003633Y-86476361D01*
X158446194Y-86915843D01*
X158780389Y-87442451D01*
X158989612Y-88030016D01*
X159063070Y-88646054D01*
X159058757Y-88667737D01*
X159022948Y-88674860D01*
X157264084Y-88674860D01*
X157185535Y-88485225D01*
X156922515Y-88222205D01*
X156578863Y-88079860D01*
X156206897Y-88079860D01*
X155863245Y-88222205D01*
X155600225Y-88485225D01*
X155521676Y-88674860D01*
X153561949Y-88674860D01*
X153452563Y-88696618D01*
X153432021Y-88710344D01*
X153341478Y-88728354D01*
X153299653Y-88745679D01*
X153206298Y-88784348D01*
X153190880Y-88794650D01*
X153190880Y-85868860D01*
X156244914Y-85868860D01*
X156885695Y-85940735D01*
G04 #@! TD*
M02*
