G04 #@! TF.GenerationSoftware,KiCad,Pcbnew,(5.0.1-3-g963ef8bb5)*
G04 #@! TF.CreationDate,2019-06-17T11:31:16-10:00*
G04 #@! TF.ProjectId,OpenHAK_03,4F70656E48414B5F30332E6B69636164,rev?*
G04 #@! TF.SameCoordinates,Original*
G04 #@! TF.FileFunction,Soldermask,Bot*
G04 #@! TF.FilePolarity,Negative*
%FSLAX46Y46*%
G04 Gerber Fmt 4.6, Leading zero omitted, Abs format (unit mm)*
G04 Created by KiCad (PCBNEW (5.0.1-3-g963ef8bb5)) date Monday, June 17, 2019 at 11:31:16 AM*
%MOMM*%
%LPD*%
G01*
G04 APERTURE LIST*
%ADD10C,0.100000*%
G04 APERTURE END LIST*
D10*
G36*
X158549880Y-108929860D02*
X157489880Y-108929860D01*
X157489880Y-107269860D01*
X158549880Y-107269860D01*
X158549880Y-108929860D01*
X158549880Y-108929860D01*
G37*
G36*
X155549880Y-108929860D02*
X154489880Y-108929860D01*
X154489880Y-107269860D01*
X155549880Y-107269860D01*
X155549880Y-108929860D01*
X155549880Y-108929860D01*
G37*
G36*
X126291880Y-108929860D02*
X125231880Y-108929860D01*
X125231880Y-107269860D01*
X126291880Y-107269860D01*
X126291880Y-108929860D01*
X126291880Y-108929860D01*
G37*
G36*
X123291880Y-108929860D02*
X122231880Y-108929860D01*
X122231880Y-107269860D01*
X123291880Y-107269860D01*
X123291880Y-108929860D01*
X123291880Y-108929860D01*
G37*
G36*
X143008880Y-99916860D02*
X142598880Y-99916860D01*
X142598880Y-99056860D01*
X143008880Y-99056860D01*
X143008880Y-99916860D01*
X143008880Y-99916860D01*
G37*
G36*
X142208880Y-99916860D02*
X141798880Y-99916860D01*
X141798880Y-99056860D01*
X142208880Y-99056860D01*
X142208880Y-99916860D01*
X142208880Y-99916860D01*
G37*
G36*
X141408880Y-99916860D02*
X140998880Y-99916860D01*
X140998880Y-99056860D01*
X141408880Y-99056860D01*
X141408880Y-99916860D01*
X141408880Y-99916860D01*
G37*
G36*
X140608880Y-99916860D02*
X140198880Y-99916860D01*
X140198880Y-99056860D01*
X140608880Y-99056860D01*
X140608880Y-99916860D01*
X140608880Y-99916860D01*
G37*
G36*
X139808880Y-99916860D02*
X139398880Y-99916860D01*
X139398880Y-99056860D01*
X139808880Y-99056860D01*
X139808880Y-99916860D01*
X139808880Y-99916860D01*
G37*
G36*
X139008880Y-99916860D02*
X138598880Y-99916860D01*
X138598880Y-99056860D01*
X139008880Y-99056860D01*
X139008880Y-99916860D01*
X139008880Y-99916860D01*
G37*
G36*
X138208880Y-99916860D02*
X137798880Y-99916860D01*
X137798880Y-99056860D01*
X138208880Y-99056860D01*
X138208880Y-99916860D01*
X138208880Y-99916860D01*
G37*
G36*
X143008880Y-97466860D02*
X142598880Y-97466860D01*
X142598880Y-96606860D01*
X143008880Y-96606860D01*
X143008880Y-97466860D01*
X143008880Y-97466860D01*
G37*
G36*
X142208880Y-97466860D02*
X141798880Y-97466860D01*
X141798880Y-96606860D01*
X142208880Y-96606860D01*
X142208880Y-97466860D01*
X142208880Y-97466860D01*
G37*
G36*
X141408880Y-97466860D02*
X140998880Y-97466860D01*
X140998880Y-96606860D01*
X141408880Y-96606860D01*
X141408880Y-97466860D01*
X141408880Y-97466860D01*
G37*
G36*
X140608880Y-97466860D02*
X140198880Y-97466860D01*
X140198880Y-96606860D01*
X140608880Y-96606860D01*
X140608880Y-97466860D01*
X140608880Y-97466860D01*
G37*
G36*
X139808880Y-97466860D02*
X139398880Y-97466860D01*
X139398880Y-96606860D01*
X139808880Y-96606860D01*
X139808880Y-97466860D01*
X139808880Y-97466860D01*
G37*
G36*
X139008880Y-97466860D02*
X138598880Y-97466860D01*
X138598880Y-96606860D01*
X139008880Y-96606860D01*
X139008880Y-97466860D01*
X139008880Y-97466860D01*
G37*
G36*
X138208880Y-97466860D02*
X137798880Y-97466860D01*
X137798880Y-96606860D01*
X138208880Y-96606860D01*
X138208880Y-97466860D01*
X138208880Y-97466860D01*
G37*
G36*
X123291880Y-89117860D02*
X122231880Y-89117860D01*
X122231880Y-87457860D01*
X123291880Y-87457860D01*
X123291880Y-89117860D01*
X123291880Y-89117860D01*
G37*
G36*
X126291880Y-89117860D02*
X125231880Y-89117860D01*
X125231880Y-87457860D01*
X126291880Y-87457860D01*
X126291880Y-89117860D01*
X126291880Y-89117860D01*
G37*
G36*
X155422880Y-89117860D02*
X154362880Y-89117860D01*
X154362880Y-87457860D01*
X155422880Y-87457860D01*
X155422880Y-89117860D01*
X155422880Y-89117860D01*
G37*
G36*
X158422880Y-89117860D02*
X157362880Y-89117860D01*
X157362880Y-87457860D01*
X158422880Y-87457860D01*
X158422880Y-89117860D01*
X158422880Y-89117860D01*
G37*
G36*
X129512004Y-87224701D02*
X129527326Y-87226210D01*
X129561726Y-87236645D01*
X129664931Y-87267952D01*
X129791749Y-87335737D01*
X129902905Y-87426962D01*
X129994130Y-87538118D01*
X130061915Y-87664936D01*
X130103657Y-87802542D01*
X130117752Y-87945647D01*
X130103657Y-88088752D01*
X130061915Y-88226358D01*
X129994130Y-88353176D01*
X129902905Y-88464332D01*
X129791749Y-88555557D01*
X129664931Y-88623342D01*
X129561727Y-88654648D01*
X129527326Y-88665084D01*
X129512004Y-88666593D01*
X129420080Y-88675647D01*
X129348360Y-88675647D01*
X129256436Y-88666593D01*
X129241114Y-88665084D01*
X129206713Y-88654648D01*
X129103509Y-88623342D01*
X128976691Y-88555557D01*
X128865535Y-88464332D01*
X128774310Y-88353176D01*
X128706525Y-88226358D01*
X128664783Y-88088752D01*
X128650688Y-87945647D01*
X128664783Y-87802542D01*
X128706525Y-87664936D01*
X128774310Y-87538118D01*
X128865535Y-87426962D01*
X128976691Y-87335737D01*
X129103509Y-87267952D01*
X129206714Y-87236645D01*
X129241114Y-87226210D01*
X129256436Y-87224701D01*
X129348360Y-87215647D01*
X129420080Y-87215647D01*
X129512004Y-87224701D01*
X129512004Y-87224701D01*
G37*
G36*
X136112004Y-87224701D02*
X136127326Y-87226210D01*
X136161726Y-87236645D01*
X136264931Y-87267952D01*
X136391749Y-87335737D01*
X136502905Y-87426962D01*
X136594130Y-87538118D01*
X136661915Y-87664936D01*
X136703657Y-87802542D01*
X136717752Y-87945647D01*
X136703657Y-88088752D01*
X136661915Y-88226358D01*
X136594130Y-88353176D01*
X136502905Y-88464332D01*
X136391749Y-88555557D01*
X136264931Y-88623342D01*
X136161727Y-88654648D01*
X136127326Y-88665084D01*
X136112004Y-88666593D01*
X136020080Y-88675647D01*
X135948360Y-88675647D01*
X135856436Y-88666593D01*
X135841114Y-88665084D01*
X135806713Y-88654648D01*
X135703509Y-88623342D01*
X135576691Y-88555557D01*
X135465535Y-88464332D01*
X135374310Y-88353176D01*
X135306525Y-88226358D01*
X135264783Y-88088752D01*
X135250688Y-87945647D01*
X135264783Y-87802542D01*
X135306525Y-87664936D01*
X135374310Y-87538118D01*
X135465535Y-87426962D01*
X135576691Y-87335737D01*
X135703509Y-87267952D01*
X135806714Y-87236645D01*
X135841114Y-87226210D01*
X135856436Y-87224701D01*
X135948360Y-87215647D01*
X136020080Y-87215647D01*
X136112004Y-87224701D01*
X136112004Y-87224701D01*
G37*
M02*
