G04 #@! TF.GenerationSoftware,KiCad,Pcbnew,(5.0.1-3-g963ef8bb5)*
G04 #@! TF.CreationDate,2019-06-21T09:31:58-10:00*
G04 #@! TF.ProjectId,OpenHAK_03,4F70656E48414B5F30332E6B69636164,rev?*
G04 #@! TF.SameCoordinates,Original*
G04 #@! TF.FileFunction,Legend,Top*
G04 #@! TF.FilePolarity,Positive*
%FSLAX46Y46*%
G04 Gerber Fmt 4.6, Leading zero omitted, Abs format (unit mm)*
G04 Created by KiCad (PCBNEW (5.0.1-3-g963ef8bb5)) date Friday, June 21, 2019 at 09:31:58 AM*
%MOMM*%
%LPD*%
G01*
G04 APERTURE LIST*
%ADD10C,0.100000*%
%ADD11C,0.120000*%
%ADD12C,0.200000*%
%ADD13C,0.150000*%
%ADD14C,0.127000*%
%ADD15R,0.570000X0.240000*%
%ADD16R,0.715000X0.290000*%
%ADD17R,0.290000X0.715000*%
%ADD18R,0.640000X0.540000*%
%ADD19C,0.010000*%
%ADD20C,0.520000*%
%ADD21R,0.490000X0.740000*%
%ADD22R,0.540000X0.640000*%
%ADD23R,1.050000X0.530000*%
%ADD24C,0.379410*%
%ADD25R,1.540000X1.540000*%
%ADD26R,1.540000X1.050000*%
%ADD27R,1.040000X0.294000*%
%ADD28R,0.294000X1.040000*%
%ADD29R,1.040000X1.640000*%
%ADD30R,0.790000X0.840000*%
%ADD31R,0.690000X0.840000*%
%ADD32R,0.690000X1.100000*%
%ADD33O,1.440000X1.440000*%
%ADD34R,1.940000X1.940000*%
%ADD35R,1.640000X1.440000*%
%ADD36R,0.440000X1.390000*%
%ADD37R,1.040000X0.840000*%
%ADD38R,0.640000X1.590000*%
%ADD39R,1.240000X1.840000*%
%ADD40R,0.780000X1.740000*%
G04 APERTURE END LIST*
D10*
G04 #@! TO.C,U7*
X142790880Y-101093860D02*
X141790880Y-101093860D01*
X142790880Y-102493860D02*
X141790880Y-102493860D01*
X141690880Y-101093860D02*
G75*
G03X141690880Y-101093860I-100000J0D01*
G01*
G04 #@! TO.C,U4*
X150940880Y-103393860D02*
X148440880Y-103393860D01*
X150940880Y-100393860D02*
X150940880Y-103393860D01*
X148440880Y-100393860D02*
X150940880Y-100393860D01*
X148440880Y-103393860D02*
X148440880Y-100393860D01*
D11*
G04 #@! TO.C,C12*
X131015880Y-101023860D02*
X130515880Y-101023860D01*
X130515880Y-101963860D02*
X131015880Y-101963860D01*
D12*
G04 #@! TO.C,U6*
X131165880Y-103293860D02*
X131565880Y-103293860D01*
X131565880Y-103293860D02*
X131565880Y-102893860D01*
X129965880Y-103193860D02*
X129965880Y-102093860D01*
X129965880Y-102093860D02*
X131465880Y-102093860D01*
D11*
G04 #@! TO.C,U8*
X129455880Y-105713860D02*
X129455880Y-107123860D01*
X131775880Y-107123860D02*
X131775880Y-105093860D01*
X131775880Y-107123860D02*
X131115880Y-107123860D01*
X130115880Y-107123860D02*
X129455880Y-107123860D01*
G04 #@! TO.C,C7*
X139620880Y-97943860D02*
X139620880Y-98443860D01*
X140560880Y-98443860D02*
X140560880Y-97943860D01*
G04 #@! TO.C,C8*
X138840880Y-103138860D02*
X139340880Y-103138860D01*
X139340880Y-102198860D02*
X138840880Y-102198860D01*
D13*
G04 #@! TO.C,U1*
X139940880Y-85693860D02*
X147940880Y-85693860D01*
X139940880Y-96193860D02*
X139940880Y-85693860D01*
X147940880Y-96693860D02*
X147940880Y-85693860D01*
X139940880Y-96693860D02*
X147940880Y-96693860D01*
X139940880Y-96193860D02*
X139940880Y-96693860D01*
D11*
G04 #@! TO.C,S3*
X157392880Y-87267860D02*
X155392880Y-87267860D01*
X155392880Y-89307860D02*
X157392880Y-89307860D01*
X157519880Y-107079860D02*
X155519880Y-107079860D01*
X155519880Y-109119860D02*
X157519880Y-109119860D01*
X125261880Y-107079860D02*
X123261880Y-107079860D01*
X123261880Y-109119860D02*
X125261880Y-109119860D01*
D13*
G04 #@! TO.C,D2*
X130390880Y-99818860D02*
X130390880Y-99118860D01*
X131590880Y-99118860D02*
X131590880Y-99818860D01*
G04 #@! TO.C,D3*
X131615880Y-95118860D02*
X131615880Y-95818860D01*
X129615880Y-95818860D02*
X129615880Y-95118860D01*
G04 #@! TO.C,U5*
X131915880Y-93993860D02*
G75*
G03X131915880Y-93993860I-100000J0D01*
G01*
X132065880Y-93443860D02*
X132065880Y-93943860D01*
X134965880Y-93443860D02*
X132065880Y-93443860D01*
X134965880Y-93943860D02*
X134965880Y-93443860D01*
X132065880Y-93943860D02*
X134965880Y-93943860D01*
D10*
G04 #@! TO.C,P2*
X136984220Y-90845647D02*
X136984220Y-86495647D01*
X136984220Y-86495647D02*
X128384220Y-86495647D01*
X128384220Y-86495647D02*
X128384220Y-90845647D01*
G04 #@! TO.C,D1*
X151390880Y-98643861D02*
G75*
G03X151390880Y-98643861I-200000J0D01*
G01*
X151190880Y-96443861D02*
X151190880Y-98443861D01*
X150990880Y-98643861D02*
X148990880Y-98643861D01*
X148790880Y-98443861D02*
X148790880Y-96443861D01*
X148990880Y-96243861D02*
X150990880Y-96243861D01*
D11*
G04 #@! TO.C,S2*
X125261880Y-87267860D02*
X123261880Y-87267860D01*
X123261880Y-89307860D02*
X125261880Y-89307860D01*
D14*
G04 #@! TO.C,W3*
X154492880Y-89014860D02*
X156392880Y-89014860D01*
X156392880Y-89014860D02*
X158292880Y-89014860D01*
D11*
X156892880Y-87564860D02*
X155892880Y-87564860D01*
D14*
G04 #@! TO.C,W4*
X158419880Y-107499860D02*
X156519880Y-107499860D01*
X156519880Y-107499860D02*
X154619880Y-107499860D01*
D11*
X156019880Y-108949860D02*
X157019880Y-108949860D01*
D14*
G04 #@! TO.C,W2*
X126161880Y-107499860D02*
X124261880Y-107499860D01*
X124261880Y-107499860D02*
X122361880Y-107499860D01*
D11*
X123761880Y-108949860D02*
X124761880Y-108949860D01*
D14*
G04 #@! TO.C,W1*
X122361880Y-89014860D02*
X124261880Y-89014860D01*
X124261880Y-89014860D02*
X126161880Y-89014860D01*
D11*
X124761880Y-87564860D02*
X123761880Y-87564860D01*
G04 #@! TO.C,BT1*
X133665880Y-98056360D02*
G75*
G03X133665880Y-98056360I-250000J0D01*
G01*
X134015880Y-102881360D02*
X135815880Y-102881360D01*
X132915880Y-100981360D02*
X132915880Y-98631360D01*
X132915880Y-98631360D02*
X133815880Y-98631360D01*
X133415880Y-98631360D02*
X133415880Y-99831360D01*
X133415880Y-99831360D02*
X133415880Y-99831360D01*
X133415880Y-99831360D02*
X133415880Y-98631360D01*
X133415880Y-98631360D02*
X133415880Y-98631360D01*
X133415880Y-99131360D02*
X133415880Y-99131360D01*
X133415880Y-99131360D02*
X132915880Y-99131360D01*
X132915880Y-99131360D02*
X132915880Y-99131360D01*
X132915880Y-99131360D02*
X133415880Y-99131360D01*
X133415880Y-99831360D02*
X133415880Y-99831360D01*
X133415880Y-99831360D02*
X132915880Y-99831360D01*
X132915880Y-99831360D02*
X132915880Y-99831360D01*
X132915880Y-99831360D02*
X133415880Y-99831360D01*
X136915880Y-100981360D02*
X136915880Y-98631360D01*
X136915880Y-98631360D02*
X136015880Y-98631360D01*
X136415880Y-98631360D02*
X136415880Y-99831360D01*
X136415880Y-99831360D02*
X136415880Y-99831360D01*
X136415880Y-99831360D02*
X136415880Y-98631360D01*
X136415880Y-98631360D02*
X136415880Y-98631360D01*
X136415880Y-99131360D02*
X136415880Y-99131360D01*
X136415880Y-99131360D02*
X136915880Y-99131360D01*
X136915880Y-99131360D02*
X136915880Y-99131360D01*
X136915880Y-99131360D02*
X136415880Y-99131360D01*
X136415880Y-99831360D02*
X136415880Y-99831360D01*
X136415880Y-99831360D02*
X136915880Y-99831360D01*
X136915880Y-99831360D02*
X136915880Y-99831360D01*
X136915880Y-99831360D02*
X136415880Y-99831360D01*
G04 #@! TO.C,C1*
X138090880Y-88463860D02*
X138590880Y-88463860D01*
X138590880Y-87523860D02*
X138090880Y-87523860D01*
G04 #@! TO.C,C2*
X138590880Y-88423860D02*
X138090880Y-88423860D01*
X138090880Y-89363860D02*
X138590880Y-89363860D01*
G04 #@! TO.C,C3*
X146770880Y-97893860D02*
X146770880Y-98393860D01*
X147710880Y-98393860D02*
X147710880Y-97893860D01*
G04 #@! TO.C,C4*
X137370880Y-95843860D02*
X137370880Y-96343860D01*
X138310880Y-96343860D02*
X138310880Y-95843860D01*
G04 #@! TO.C,C5*
X137410880Y-96343860D02*
X137410880Y-95843860D01*
X136470880Y-95843860D02*
X136470880Y-96343860D01*
G04 #@! TO.C,C6*
X138720880Y-97943860D02*
X138720880Y-98443860D01*
X139660880Y-98443860D02*
X139660880Y-97943860D01*
G04 #@! TO.C,C9*
X138840880Y-100638860D02*
X139340880Y-100638860D01*
X139340880Y-99698860D02*
X138840880Y-99698860D01*
G04 #@! TO.C,C10*
X138590880Y-90223860D02*
X138090880Y-90223860D01*
X138090880Y-91163860D02*
X138590880Y-91163860D01*
G04 #@! TO.C,C11*
X134315880Y-95623860D02*
X133815880Y-95623860D01*
X133815880Y-96563860D02*
X134315880Y-96563860D01*
G04 #@! TO.C,C13*
X130865880Y-103598860D02*
X130365880Y-103598860D01*
X130365880Y-104538860D02*
X130865880Y-104538860D01*
G04 #@! TO.C,C14*
X138660880Y-92123860D02*
X138160880Y-92123860D01*
X138160880Y-93063860D02*
X138660880Y-93063860D01*
G04 #@! TO.C,C15*
X142490880Y-102773860D02*
X141990880Y-102773860D01*
X141990880Y-103713860D02*
X142490880Y-103713860D01*
G04 #@! TO.C,C16*
X142140880Y-100063860D02*
X142640880Y-100063860D01*
X142640880Y-99123860D02*
X142140880Y-99123860D01*
G04 #@! TO.C,R1*
X138590880Y-89323860D02*
X138090880Y-89323860D01*
X138090880Y-90263860D02*
X138590880Y-90263860D01*
G04 #@! TO.C,R2*
X141460880Y-98443860D02*
X141460880Y-97943860D01*
X140520880Y-97943860D02*
X140520880Y-98443860D01*
G04 #@! TO.C,R5*
X150370880Y-94743860D02*
X150370880Y-95243860D01*
X151310880Y-95243860D02*
X151310880Y-94743860D01*
G04 #@! TO.C,R7*
X138650880Y-93923860D02*
X138150880Y-93923860D01*
X138150880Y-94863860D02*
X138650880Y-94863860D01*
G04 #@! TO.C,R8*
X138640880Y-93023860D02*
X138140880Y-93023860D01*
X138140880Y-93963860D02*
X138640880Y-93963860D01*
G04 #@! TO.C,R12*
X150360880Y-95243860D02*
X150360880Y-94743860D01*
X149420880Y-94743860D02*
X149420880Y-95243860D01*
G04 #@! TO.C,R13*
X131015880Y-92923860D02*
X130515880Y-92923860D01*
X130515880Y-93863860D02*
X131015880Y-93863860D01*
G04 #@! TO.C,R14*
X131015880Y-92023860D02*
X130515880Y-92023860D01*
X130515880Y-92963860D02*
X131015880Y-92963860D01*
G04 #@! TO.C,R15*
X130515880Y-97863860D02*
X131015880Y-97863860D01*
X131015880Y-96923860D02*
X130515880Y-96923860D01*
G04 #@! TO.C,R17*
X148470880Y-94743860D02*
X148470880Y-95243860D01*
X149410880Y-95243860D02*
X149410880Y-94743860D01*
D12*
G04 #@! TO.C,U3*
X139890880Y-102018861D02*
X138390880Y-102018861D01*
X139890880Y-100918861D02*
X139890880Y-102018861D01*
X138290880Y-100818861D02*
X138290880Y-101218861D01*
X138690880Y-100818861D02*
X138290880Y-100818861D01*
G04 #@! TO.C,P1*
X141210880Y-107193860D02*
X151770880Y-107193860D01*
X151770880Y-107193860D02*
X151770880Y-108993860D01*
X151770880Y-108993860D02*
X141210880Y-108993860D01*
X141210880Y-108993860D02*
X141210880Y-107193860D01*
G04 #@! TO.C,U7*
D13*
X141719451Y-100133145D02*
X141719451Y-100740288D01*
X141755165Y-100811717D01*
X141790880Y-100847431D01*
X141862308Y-100883145D01*
X142005165Y-100883145D01*
X142076594Y-100847431D01*
X142112308Y-100811717D01*
X142148022Y-100740288D01*
X142148022Y-100133145D01*
X142433737Y-100133145D02*
X142933737Y-100133145D01*
X142612308Y-100883145D01*
G04 #@! TO.C,U4*
X147430165Y-103415288D02*
X148037308Y-103415288D01*
X148108737Y-103379574D01*
X148144451Y-103343860D01*
X148180165Y-103272431D01*
X148180165Y-103129574D01*
X148144451Y-103058145D01*
X148108737Y-103022431D01*
X148037308Y-102986717D01*
X147430165Y-102986717D01*
X147680165Y-102308145D02*
X148180165Y-102308145D01*
X147394451Y-102486717D02*
X147930165Y-102665288D01*
X147930165Y-102201002D01*
G04 #@! TO.C,C12*
X129533737Y-102276002D02*
X129569451Y-102311717D01*
X129605165Y-102418860D01*
X129605165Y-102490288D01*
X129569451Y-102597431D01*
X129498022Y-102668860D01*
X129426594Y-102704574D01*
X129283737Y-102740288D01*
X129176594Y-102740288D01*
X129033737Y-102704574D01*
X128962308Y-102668860D01*
X128890880Y-102597431D01*
X128855165Y-102490288D01*
X128855165Y-102418860D01*
X128890880Y-102311717D01*
X128926594Y-102276002D01*
X129605165Y-101561717D02*
X129605165Y-101990288D01*
X129605165Y-101776002D02*
X128855165Y-101776002D01*
X128962308Y-101847431D01*
X129033737Y-101918860D01*
X129069451Y-101990288D01*
X128926594Y-101276002D02*
X128890880Y-101240288D01*
X128855165Y-101168860D01*
X128855165Y-100990288D01*
X128890880Y-100918860D01*
X128926594Y-100883145D01*
X128998022Y-100847431D01*
X129069451Y-100847431D01*
X129176594Y-100883145D01*
X129605165Y-101311717D01*
X129605165Y-100847431D01*
G04 #@! TO.C,U6*
X128905165Y-104215288D02*
X129512308Y-104215288D01*
X129583737Y-104179574D01*
X129619451Y-104143860D01*
X129655165Y-104072431D01*
X129655165Y-103929574D01*
X129619451Y-103858145D01*
X129583737Y-103822431D01*
X129512308Y-103786717D01*
X128905165Y-103786717D01*
X128905165Y-103108145D02*
X128905165Y-103251002D01*
X128940880Y-103322431D01*
X128976594Y-103358145D01*
X129083737Y-103429574D01*
X129226594Y-103465288D01*
X129512308Y-103465288D01*
X129583737Y-103429574D01*
X129619451Y-103393860D01*
X129655165Y-103322431D01*
X129655165Y-103179574D01*
X129619451Y-103108145D01*
X129583737Y-103072431D01*
X129512308Y-103036717D01*
X129333737Y-103036717D01*
X129262308Y-103072431D01*
X129226594Y-103108145D01*
X129190880Y-103179574D01*
X129190880Y-103322431D01*
X129226594Y-103393860D01*
X129262308Y-103429574D01*
X129333737Y-103465288D01*
G04 #@! TO.C,U8*
X132144451Y-104983145D02*
X132144451Y-105590288D01*
X132180165Y-105661717D01*
X132215880Y-105697431D01*
X132287308Y-105733145D01*
X132430165Y-105733145D01*
X132501594Y-105697431D01*
X132537308Y-105661717D01*
X132573022Y-105590288D01*
X132573022Y-104983145D01*
X133037308Y-105304574D02*
X132965880Y-105268860D01*
X132930165Y-105233145D01*
X132894451Y-105161717D01*
X132894451Y-105126002D01*
X132930165Y-105054574D01*
X132965880Y-105018860D01*
X133037308Y-104983145D01*
X133180165Y-104983145D01*
X133251594Y-105018860D01*
X133287308Y-105054574D01*
X133323022Y-105126002D01*
X133323022Y-105161717D01*
X133287308Y-105233145D01*
X133251594Y-105268860D01*
X133180165Y-105304574D01*
X133037308Y-105304574D01*
X132965880Y-105340288D01*
X132930165Y-105376002D01*
X132894451Y-105447431D01*
X132894451Y-105590288D01*
X132930165Y-105661717D01*
X132965880Y-105697431D01*
X133037308Y-105733145D01*
X133180165Y-105733145D01*
X133251594Y-105697431D01*
X133287308Y-105661717D01*
X133323022Y-105590288D01*
X133323022Y-105447431D01*
X133287308Y-105376002D01*
X133251594Y-105340288D01*
X133180165Y-105304574D01*
G04 #@! TO.C,C7*
X142558737Y-98318860D02*
X142594451Y-98354574D01*
X142630165Y-98461717D01*
X142630165Y-98533145D01*
X142594451Y-98640288D01*
X142523022Y-98711717D01*
X142451594Y-98747431D01*
X142308737Y-98783145D01*
X142201594Y-98783145D01*
X142058737Y-98747431D01*
X141987308Y-98711717D01*
X141915880Y-98640288D01*
X141880165Y-98533145D01*
X141880165Y-98461717D01*
X141915880Y-98354574D01*
X141951594Y-98318860D01*
X141880165Y-98068860D02*
X141880165Y-97568860D01*
X142630165Y-97890288D01*
G04 #@! TO.C,C8*
X140965880Y-102886717D02*
X140930165Y-102922431D01*
X140823022Y-102958145D01*
X140751594Y-102958145D01*
X140644451Y-102922431D01*
X140573022Y-102851002D01*
X140537308Y-102779574D01*
X140501594Y-102636717D01*
X140501594Y-102529574D01*
X140537308Y-102386717D01*
X140573022Y-102315288D01*
X140644451Y-102243860D01*
X140751594Y-102208145D01*
X140823022Y-102208145D01*
X140930165Y-102243860D01*
X140965880Y-102279574D01*
X141394451Y-102529574D02*
X141323022Y-102493860D01*
X141287308Y-102458145D01*
X141251594Y-102386717D01*
X141251594Y-102351002D01*
X141287308Y-102279574D01*
X141323022Y-102243860D01*
X141394451Y-102208145D01*
X141537308Y-102208145D01*
X141608737Y-102243860D01*
X141644451Y-102279574D01*
X141680165Y-102351002D01*
X141680165Y-102386717D01*
X141644451Y-102458145D01*
X141608737Y-102493860D01*
X141537308Y-102529574D01*
X141394451Y-102529574D01*
X141323022Y-102565288D01*
X141287308Y-102601002D01*
X141251594Y-102672431D01*
X141251594Y-102815288D01*
X141287308Y-102886717D01*
X141323022Y-102922431D01*
X141394451Y-102958145D01*
X141537308Y-102958145D01*
X141608737Y-102922431D01*
X141644451Y-102886717D01*
X141680165Y-102815288D01*
X141680165Y-102672431D01*
X141644451Y-102601002D01*
X141608737Y-102565288D01*
X141537308Y-102529574D01*
G04 #@! TO.C,U1*
X138619451Y-86008145D02*
X138619451Y-86615288D01*
X138655165Y-86686717D01*
X138690880Y-86722431D01*
X138762308Y-86758145D01*
X138905165Y-86758145D01*
X138976594Y-86722431D01*
X139012308Y-86686717D01*
X139048022Y-86615288D01*
X139048022Y-86008145D01*
X139798022Y-86758145D02*
X139369451Y-86758145D01*
X139583737Y-86758145D02*
X139583737Y-86008145D01*
X139512308Y-86115288D01*
X139440880Y-86186717D01*
X139369451Y-86222431D01*
G04 #@! TO.C,S3*
X154294451Y-90597431D02*
X154401594Y-90633145D01*
X154580165Y-90633145D01*
X154651594Y-90597431D01*
X154687308Y-90561717D01*
X154723022Y-90490288D01*
X154723022Y-90418860D01*
X154687308Y-90347431D01*
X154651594Y-90311717D01*
X154580165Y-90276002D01*
X154437308Y-90240288D01*
X154365880Y-90204574D01*
X154330165Y-90168860D01*
X154294451Y-90097431D01*
X154294451Y-90026002D01*
X154330165Y-89954574D01*
X154365880Y-89918860D01*
X154437308Y-89883145D01*
X154615880Y-89883145D01*
X154723022Y-89918860D01*
X154973022Y-89883145D02*
X155437308Y-89883145D01*
X155187308Y-90168860D01*
X155294451Y-90168860D01*
X155365880Y-90204574D01*
X155401594Y-90240288D01*
X155437308Y-90311717D01*
X155437308Y-90490288D01*
X155401594Y-90561717D01*
X155365880Y-90597431D01*
X155294451Y-90633145D01*
X155080165Y-90633145D01*
X155008737Y-90597431D01*
X154973022Y-90561717D01*
X157494451Y-106722431D02*
X157601594Y-106758145D01*
X157780165Y-106758145D01*
X157851594Y-106722431D01*
X157887308Y-106686717D01*
X157923022Y-106615288D01*
X157923022Y-106543860D01*
X157887308Y-106472431D01*
X157851594Y-106436717D01*
X157780165Y-106401002D01*
X157637308Y-106365288D01*
X157565880Y-106329574D01*
X157530165Y-106293860D01*
X157494451Y-106222431D01*
X157494451Y-106151002D01*
X157530165Y-106079574D01*
X157565880Y-106043860D01*
X157637308Y-106008145D01*
X157815880Y-106008145D01*
X157923022Y-106043860D01*
X158173022Y-106008145D02*
X158637308Y-106008145D01*
X158387308Y-106293860D01*
X158494451Y-106293860D01*
X158565880Y-106329574D01*
X158601594Y-106365288D01*
X158637308Y-106436717D01*
X158637308Y-106615288D01*
X158601594Y-106686717D01*
X158565880Y-106722431D01*
X158494451Y-106758145D01*
X158280165Y-106758145D01*
X158208737Y-106722431D01*
X158173022Y-106686717D01*
X122019451Y-106597431D02*
X122126594Y-106633145D01*
X122305165Y-106633145D01*
X122376594Y-106597431D01*
X122412308Y-106561717D01*
X122448022Y-106490288D01*
X122448022Y-106418860D01*
X122412308Y-106347431D01*
X122376594Y-106311717D01*
X122305165Y-106276002D01*
X122162308Y-106240288D01*
X122090880Y-106204574D01*
X122055165Y-106168860D01*
X122019451Y-106097431D01*
X122019451Y-106026002D01*
X122055165Y-105954574D01*
X122090880Y-105918860D01*
X122162308Y-105883145D01*
X122340880Y-105883145D01*
X122448022Y-105918860D01*
X122698022Y-105883145D02*
X123162308Y-105883145D01*
X122912308Y-106168860D01*
X123019451Y-106168860D01*
X123090880Y-106204574D01*
X123126594Y-106240288D01*
X123162308Y-106311717D01*
X123162308Y-106490288D01*
X123126594Y-106561717D01*
X123090880Y-106597431D01*
X123019451Y-106633145D01*
X122805165Y-106633145D01*
X122733737Y-106597431D01*
X122698022Y-106561717D01*
G04 #@! TO.C,D2*
X129980165Y-100572431D02*
X129230165Y-100572431D01*
X129230165Y-100393860D01*
X129265880Y-100286717D01*
X129337308Y-100215288D01*
X129408737Y-100179574D01*
X129551594Y-100143860D01*
X129658737Y-100143860D01*
X129801594Y-100179574D01*
X129873022Y-100215288D01*
X129944451Y-100286717D01*
X129980165Y-100393860D01*
X129980165Y-100572431D01*
X129301594Y-99858145D02*
X129265880Y-99822431D01*
X129230165Y-99751002D01*
X129230165Y-99572431D01*
X129265880Y-99501002D01*
X129301594Y-99465288D01*
X129373022Y-99429574D01*
X129444451Y-99429574D01*
X129551594Y-99465288D01*
X129980165Y-99893860D01*
X129980165Y-99429574D01*
G04 #@! TO.C,D3*
X129280165Y-96272431D02*
X128530165Y-96272431D01*
X128530165Y-96093860D01*
X128565880Y-95986717D01*
X128637308Y-95915288D01*
X128708737Y-95879574D01*
X128851594Y-95843860D01*
X128958737Y-95843860D01*
X129101594Y-95879574D01*
X129173022Y-95915288D01*
X129244451Y-95986717D01*
X129280165Y-96093860D01*
X129280165Y-96272431D01*
X128530165Y-95593860D02*
X128530165Y-95129574D01*
X128815880Y-95379574D01*
X128815880Y-95272431D01*
X128851594Y-95201002D01*
X128887308Y-95165288D01*
X128958737Y-95129574D01*
X129137308Y-95129574D01*
X129208737Y-95165288D01*
X129244451Y-95201002D01*
X129280165Y-95272431D01*
X129280165Y-95486717D01*
X129244451Y-95558145D01*
X129208737Y-95593860D01*
G04 #@! TO.C,U5*
X132135165Y-96875288D02*
X132742308Y-96875288D01*
X132813737Y-96839574D01*
X132849451Y-96803860D01*
X132885165Y-96732431D01*
X132885165Y-96589574D01*
X132849451Y-96518145D01*
X132813737Y-96482431D01*
X132742308Y-96446717D01*
X132135165Y-96446717D01*
X132135165Y-95732431D02*
X132135165Y-96089574D01*
X132492308Y-96125288D01*
X132456594Y-96089574D01*
X132420880Y-96018145D01*
X132420880Y-95839574D01*
X132456594Y-95768145D01*
X132492308Y-95732431D01*
X132563737Y-95696717D01*
X132742308Y-95696717D01*
X132813737Y-95732431D01*
X132849451Y-95768145D01*
X132885165Y-95839574D01*
X132885165Y-96018145D01*
X132849451Y-96089574D01*
X132813737Y-96125288D01*
G04 #@! TO.C,P2*
X126934108Y-88322345D02*
X126934108Y-87572345D01*
X127219822Y-87572345D01*
X127291251Y-87608060D01*
X127326965Y-87643774D01*
X127362680Y-87715202D01*
X127362680Y-87822345D01*
X127326965Y-87893774D01*
X127291251Y-87929488D01*
X127219822Y-87965202D01*
X126934108Y-87965202D01*
X127648394Y-87643774D02*
X127684108Y-87608060D01*
X127755537Y-87572345D01*
X127934108Y-87572345D01*
X128005537Y-87608060D01*
X128041251Y-87643774D01*
X128076965Y-87715202D01*
X128076965Y-87786631D01*
X128041251Y-87893774D01*
X127612680Y-88322345D01*
X128076965Y-88322345D01*
G04 #@! TO.C,D1*
X151737308Y-98483146D02*
X151737308Y-97733146D01*
X151915880Y-97733146D01*
X152023022Y-97768861D01*
X152094451Y-97840289D01*
X152130165Y-97911718D01*
X152165880Y-98054575D01*
X152165880Y-98161718D01*
X152130165Y-98304575D01*
X152094451Y-98376003D01*
X152023022Y-98447432D01*
X151915880Y-98483146D01*
X151737308Y-98483146D01*
X152880165Y-98483146D02*
X152451594Y-98483146D01*
X152665880Y-98483146D02*
X152665880Y-97733146D01*
X152594451Y-97840289D01*
X152523022Y-97911718D01*
X152451594Y-97947432D01*
G04 #@! TO.C,S2*
X125194451Y-90572431D02*
X125301594Y-90608145D01*
X125480165Y-90608145D01*
X125551594Y-90572431D01*
X125587308Y-90536717D01*
X125623022Y-90465288D01*
X125623022Y-90393860D01*
X125587308Y-90322431D01*
X125551594Y-90286717D01*
X125480165Y-90251002D01*
X125337308Y-90215288D01*
X125265880Y-90179574D01*
X125230165Y-90143860D01*
X125194451Y-90072431D01*
X125194451Y-90001002D01*
X125230165Y-89929574D01*
X125265880Y-89893860D01*
X125337308Y-89858145D01*
X125515880Y-89858145D01*
X125623022Y-89893860D01*
X125908737Y-89929574D02*
X125944451Y-89893860D01*
X126015880Y-89858145D01*
X126194451Y-89858145D01*
X126265880Y-89893860D01*
X126301594Y-89929574D01*
X126337308Y-90001002D01*
X126337308Y-90072431D01*
X126301594Y-90179574D01*
X125873022Y-90608145D01*
X126337308Y-90608145D01*
G04 #@! TO.C,W3*
X155712308Y-90033145D02*
X155890880Y-90783145D01*
X156033737Y-90247431D01*
X156176594Y-90783145D01*
X156355165Y-90033145D01*
X156569451Y-90033145D02*
X157033737Y-90033145D01*
X156783737Y-90318860D01*
X156890880Y-90318860D01*
X156962308Y-90354574D01*
X156998022Y-90390288D01*
X157033737Y-90461717D01*
X157033737Y-90640288D01*
X156998022Y-90711717D01*
X156962308Y-90747431D01*
X156890880Y-90783145D01*
X156676594Y-90783145D01*
X156605165Y-90747431D01*
X156569451Y-90711717D01*
G04 #@! TO.C,W4*
X155841308Y-105933145D02*
X156019880Y-106683145D01*
X156162737Y-106147431D01*
X156305594Y-106683145D01*
X156484165Y-105933145D01*
X157091308Y-106183145D02*
X157091308Y-106683145D01*
X156912737Y-105897431D02*
X156734165Y-106433145D01*
X157198451Y-106433145D01*
G04 #@! TO.C,W2*
X123562308Y-105733145D02*
X123740880Y-106483145D01*
X123883737Y-105947431D01*
X124026594Y-106483145D01*
X124205165Y-105733145D01*
X124455165Y-105804574D02*
X124490880Y-105768860D01*
X124562308Y-105733145D01*
X124740880Y-105733145D01*
X124812308Y-105768860D01*
X124848022Y-105804574D01*
X124883737Y-105876002D01*
X124883737Y-105947431D01*
X124848022Y-106054574D01*
X124419451Y-106483145D01*
X124883737Y-106483145D01*
G04 #@! TO.C,W1*
X123662308Y-90133145D02*
X123840880Y-90883145D01*
X123983737Y-90347431D01*
X124126594Y-90883145D01*
X124305165Y-90133145D01*
X124983737Y-90883145D02*
X124555165Y-90883145D01*
X124769451Y-90883145D02*
X124769451Y-90133145D01*
X124698022Y-90240288D01*
X124626594Y-90311717D01*
X124555165Y-90347431D01*
G04 #@! TO.C,BT1*
X132262308Y-99783145D02*
X132298022Y-99676002D01*
X132333737Y-99640288D01*
X132405165Y-99604574D01*
X132512308Y-99604574D01*
X132583737Y-99640288D01*
X132619451Y-99676002D01*
X132655165Y-99747431D01*
X132655165Y-100033145D01*
X131905165Y-100033145D01*
X131905165Y-99783145D01*
X131940880Y-99711717D01*
X131976594Y-99676002D01*
X132048022Y-99640288D01*
X132119451Y-99640288D01*
X132190880Y-99676002D01*
X132226594Y-99711717D01*
X132262308Y-99783145D01*
X132262308Y-100033145D01*
X131905165Y-99390288D02*
X131905165Y-98961717D01*
X132655165Y-99176002D02*
X131905165Y-99176002D01*
X132655165Y-98318860D02*
X132655165Y-98747431D01*
X132655165Y-98533145D02*
X131905165Y-98533145D01*
X132012308Y-98604574D01*
X132083737Y-98676002D01*
X132119451Y-98747431D01*
G04 #@! TO.C,C1*
X137665880Y-86461717D02*
X137630165Y-86497431D01*
X137523022Y-86533145D01*
X137451594Y-86533145D01*
X137344451Y-86497431D01*
X137273022Y-86426002D01*
X137237308Y-86354574D01*
X137201594Y-86211717D01*
X137201594Y-86104574D01*
X137237308Y-85961717D01*
X137273022Y-85890288D01*
X137344451Y-85818860D01*
X137451594Y-85783145D01*
X137523022Y-85783145D01*
X137630165Y-85818860D01*
X137665880Y-85854574D01*
X138380165Y-86533145D02*
X137951594Y-86533145D01*
X138165880Y-86533145D02*
X138165880Y-85783145D01*
X138094451Y-85890288D01*
X138023022Y-85961717D01*
X137951594Y-85997431D01*
G04 #@! TO.C,C2*
X137640880Y-87386717D02*
X137605165Y-87422431D01*
X137498022Y-87458145D01*
X137426594Y-87458145D01*
X137319451Y-87422431D01*
X137248022Y-87351002D01*
X137212308Y-87279574D01*
X137176594Y-87136717D01*
X137176594Y-87029574D01*
X137212308Y-86886717D01*
X137248022Y-86815288D01*
X137319451Y-86743860D01*
X137426594Y-86708145D01*
X137498022Y-86708145D01*
X137605165Y-86743860D01*
X137640880Y-86779574D01*
X137926594Y-86779574D02*
X137962308Y-86743860D01*
X138033737Y-86708145D01*
X138212308Y-86708145D01*
X138283737Y-86743860D01*
X138319451Y-86779574D01*
X138355165Y-86851002D01*
X138355165Y-86922431D01*
X138319451Y-87029574D01*
X137890880Y-87458145D01*
X138355165Y-87458145D01*
G04 #@! TO.C,C3*
X148778737Y-98268860D02*
X148814451Y-98304574D01*
X148850165Y-98411717D01*
X148850165Y-98483145D01*
X148814451Y-98590288D01*
X148743022Y-98661717D01*
X148671594Y-98697431D01*
X148528737Y-98733145D01*
X148421594Y-98733145D01*
X148278737Y-98697431D01*
X148207308Y-98661717D01*
X148135880Y-98590288D01*
X148100165Y-98483145D01*
X148100165Y-98411717D01*
X148135880Y-98304574D01*
X148171594Y-98268860D01*
X148100165Y-98018860D02*
X148100165Y-97554574D01*
X148385880Y-97804574D01*
X148385880Y-97697431D01*
X148421594Y-97626002D01*
X148457308Y-97590288D01*
X148528737Y-97554574D01*
X148707308Y-97554574D01*
X148778737Y-97590288D01*
X148814451Y-97626002D01*
X148850165Y-97697431D01*
X148850165Y-97911717D01*
X148814451Y-97983145D01*
X148778737Y-98018860D01*
G04 #@! TO.C,C4*
X139208737Y-96218860D02*
X139244451Y-96254574D01*
X139280165Y-96361717D01*
X139280165Y-96433145D01*
X139244451Y-96540288D01*
X139173022Y-96611717D01*
X139101594Y-96647431D01*
X138958737Y-96683145D01*
X138851594Y-96683145D01*
X138708737Y-96647431D01*
X138637308Y-96611717D01*
X138565880Y-96540288D01*
X138530165Y-96433145D01*
X138530165Y-96361717D01*
X138565880Y-96254574D01*
X138601594Y-96218860D01*
X138780165Y-95576002D02*
X139280165Y-95576002D01*
X138494451Y-95754574D02*
X139030165Y-95933145D01*
X139030165Y-95468860D01*
G04 #@! TO.C,C5*
X137258737Y-98018860D02*
X137294451Y-98054574D01*
X137330165Y-98161717D01*
X137330165Y-98233145D01*
X137294451Y-98340288D01*
X137223022Y-98411717D01*
X137151594Y-98447431D01*
X137008737Y-98483145D01*
X136901594Y-98483145D01*
X136758737Y-98447431D01*
X136687308Y-98411717D01*
X136615880Y-98340288D01*
X136580165Y-98233145D01*
X136580165Y-98161717D01*
X136615880Y-98054574D01*
X136651594Y-98018860D01*
X136580165Y-97340288D02*
X136580165Y-97697431D01*
X136937308Y-97733145D01*
X136901594Y-97697431D01*
X136865880Y-97626002D01*
X136865880Y-97447431D01*
X136901594Y-97376002D01*
X136937308Y-97340288D01*
X137008737Y-97304574D01*
X137187308Y-97304574D01*
X137258737Y-97340288D01*
X137294451Y-97376002D01*
X137330165Y-97447431D01*
X137330165Y-97626002D01*
X137294451Y-97697431D01*
X137258737Y-97733145D01*
G04 #@! TO.C,C6*
X143658737Y-98318860D02*
X143694451Y-98354574D01*
X143730165Y-98461717D01*
X143730165Y-98533145D01*
X143694451Y-98640288D01*
X143623022Y-98711717D01*
X143551594Y-98747431D01*
X143408737Y-98783145D01*
X143301594Y-98783145D01*
X143158737Y-98747431D01*
X143087308Y-98711717D01*
X143015880Y-98640288D01*
X142980165Y-98533145D01*
X142980165Y-98461717D01*
X143015880Y-98354574D01*
X143051594Y-98318860D01*
X142980165Y-97676002D02*
X142980165Y-97818860D01*
X143015880Y-97890288D01*
X143051594Y-97926002D01*
X143158737Y-97997431D01*
X143301594Y-98033145D01*
X143587308Y-98033145D01*
X143658737Y-97997431D01*
X143694451Y-97961717D01*
X143730165Y-97890288D01*
X143730165Y-97747431D01*
X143694451Y-97676002D01*
X143658737Y-97640288D01*
X143587308Y-97604574D01*
X143408737Y-97604574D01*
X143337308Y-97640288D01*
X143301594Y-97676002D01*
X143265880Y-97747431D01*
X143265880Y-97890288D01*
X143301594Y-97961717D01*
X143337308Y-97997431D01*
X143408737Y-98033145D01*
G04 #@! TO.C,C9*
X140815880Y-100436717D02*
X140780165Y-100472431D01*
X140673022Y-100508145D01*
X140601594Y-100508145D01*
X140494451Y-100472431D01*
X140423022Y-100401002D01*
X140387308Y-100329574D01*
X140351594Y-100186717D01*
X140351594Y-100079574D01*
X140387308Y-99936717D01*
X140423022Y-99865288D01*
X140494451Y-99793860D01*
X140601594Y-99758145D01*
X140673022Y-99758145D01*
X140780165Y-99793860D01*
X140815880Y-99829574D01*
X141173022Y-100508145D02*
X141315880Y-100508145D01*
X141387308Y-100472431D01*
X141423022Y-100436717D01*
X141494451Y-100329574D01*
X141530165Y-100186717D01*
X141530165Y-99901002D01*
X141494451Y-99829574D01*
X141458737Y-99793860D01*
X141387308Y-99758145D01*
X141244451Y-99758145D01*
X141173022Y-99793860D01*
X141137308Y-99829574D01*
X141101594Y-99901002D01*
X141101594Y-100079574D01*
X141137308Y-100151002D01*
X141173022Y-100186717D01*
X141244451Y-100222431D01*
X141387308Y-100222431D01*
X141458737Y-100186717D01*
X141494451Y-100151002D01*
X141530165Y-100079574D01*
G04 #@! TO.C,C10*
X137908737Y-91961717D02*
X137873022Y-91997431D01*
X137765880Y-92033145D01*
X137694451Y-92033145D01*
X137587308Y-91997431D01*
X137515880Y-91926002D01*
X137480165Y-91854574D01*
X137444451Y-91711717D01*
X137444451Y-91604574D01*
X137480165Y-91461717D01*
X137515880Y-91390288D01*
X137587308Y-91318860D01*
X137694451Y-91283145D01*
X137765880Y-91283145D01*
X137873022Y-91318860D01*
X137908737Y-91354574D01*
X138623022Y-92033145D02*
X138194451Y-92033145D01*
X138408737Y-92033145D02*
X138408737Y-91283145D01*
X138337308Y-91390288D01*
X138265880Y-91461717D01*
X138194451Y-91497431D01*
X139087308Y-91283145D02*
X139158737Y-91283145D01*
X139230165Y-91318860D01*
X139265880Y-91354574D01*
X139301594Y-91426002D01*
X139337308Y-91568860D01*
X139337308Y-91747431D01*
X139301594Y-91890288D01*
X139265880Y-91961717D01*
X139230165Y-91997431D01*
X139158737Y-92033145D01*
X139087308Y-92033145D01*
X139015880Y-91997431D01*
X138980165Y-91961717D01*
X138944451Y-91890288D01*
X138908737Y-91747431D01*
X138908737Y-91568860D01*
X138944451Y-91426002D01*
X138980165Y-91354574D01*
X139015880Y-91318860D01*
X139087308Y-91283145D01*
G04 #@! TO.C,C11*
X135682137Y-96384917D02*
X135646422Y-96420631D01*
X135539280Y-96456345D01*
X135467851Y-96456345D01*
X135360708Y-96420631D01*
X135289280Y-96349202D01*
X135253565Y-96277774D01*
X135217851Y-96134917D01*
X135217851Y-96027774D01*
X135253565Y-95884917D01*
X135289280Y-95813488D01*
X135360708Y-95742060D01*
X135467851Y-95706345D01*
X135539280Y-95706345D01*
X135646422Y-95742060D01*
X135682137Y-95777774D01*
X136396422Y-96456345D02*
X135967851Y-96456345D01*
X136182137Y-96456345D02*
X136182137Y-95706345D01*
X136110708Y-95813488D01*
X136039280Y-95884917D01*
X135967851Y-95920631D01*
X137110708Y-96456345D02*
X136682137Y-96456345D01*
X136896422Y-96456345D02*
X136896422Y-95706345D01*
X136824994Y-95813488D01*
X136753565Y-95884917D01*
X136682137Y-95920631D01*
G04 #@! TO.C,C13*
X132333737Y-104436717D02*
X132298022Y-104472431D01*
X132190880Y-104508145D01*
X132119451Y-104508145D01*
X132012308Y-104472431D01*
X131940880Y-104401002D01*
X131905165Y-104329574D01*
X131869451Y-104186717D01*
X131869451Y-104079574D01*
X131905165Y-103936717D01*
X131940880Y-103865288D01*
X132012308Y-103793860D01*
X132119451Y-103758145D01*
X132190880Y-103758145D01*
X132298022Y-103793860D01*
X132333737Y-103829574D01*
X133048022Y-104508145D02*
X132619451Y-104508145D01*
X132833737Y-104508145D02*
X132833737Y-103758145D01*
X132762308Y-103865288D01*
X132690880Y-103936717D01*
X132619451Y-103972431D01*
X133298022Y-103758145D02*
X133762308Y-103758145D01*
X133512308Y-104043860D01*
X133619451Y-104043860D01*
X133690880Y-104079574D01*
X133726594Y-104115288D01*
X133762308Y-104186717D01*
X133762308Y-104365288D01*
X133726594Y-104436717D01*
X133690880Y-104472431D01*
X133619451Y-104508145D01*
X133405165Y-104508145D01*
X133333737Y-104472431D01*
X133298022Y-104436717D01*
G04 #@! TO.C,C14*
X135798737Y-92821717D02*
X135763022Y-92857431D01*
X135655880Y-92893145D01*
X135584451Y-92893145D01*
X135477308Y-92857431D01*
X135405880Y-92786002D01*
X135370165Y-92714574D01*
X135334451Y-92571717D01*
X135334451Y-92464574D01*
X135370165Y-92321717D01*
X135405880Y-92250288D01*
X135477308Y-92178860D01*
X135584451Y-92143145D01*
X135655880Y-92143145D01*
X135763022Y-92178860D01*
X135798737Y-92214574D01*
X136513022Y-92893145D02*
X136084451Y-92893145D01*
X136298737Y-92893145D02*
X136298737Y-92143145D01*
X136227308Y-92250288D01*
X136155880Y-92321717D01*
X136084451Y-92357431D01*
X137155880Y-92393145D02*
X137155880Y-92893145D01*
X136977308Y-92107431D02*
X136798737Y-92643145D01*
X137263022Y-92643145D01*
G04 #@! TO.C,C15*
X144008737Y-103461717D02*
X143973022Y-103497431D01*
X143865880Y-103533145D01*
X143794451Y-103533145D01*
X143687308Y-103497431D01*
X143615880Y-103426002D01*
X143580165Y-103354574D01*
X143544451Y-103211717D01*
X143544451Y-103104574D01*
X143580165Y-102961717D01*
X143615880Y-102890288D01*
X143687308Y-102818860D01*
X143794451Y-102783145D01*
X143865880Y-102783145D01*
X143973022Y-102818860D01*
X144008737Y-102854574D01*
X144723022Y-103533145D02*
X144294451Y-103533145D01*
X144508737Y-103533145D02*
X144508737Y-102783145D01*
X144437308Y-102890288D01*
X144365880Y-102961717D01*
X144294451Y-102997431D01*
X145401594Y-102783145D02*
X145044451Y-102783145D01*
X145008737Y-103140288D01*
X145044451Y-103104574D01*
X145115880Y-103068860D01*
X145294451Y-103068860D01*
X145365880Y-103104574D01*
X145401594Y-103140288D01*
X145437308Y-103211717D01*
X145437308Y-103390288D01*
X145401594Y-103461717D01*
X145365880Y-103497431D01*
X145294451Y-103533145D01*
X145115880Y-103533145D01*
X145044451Y-103497431D01*
X145008737Y-103461717D01*
G04 #@! TO.C,C16*
X144108737Y-100011717D02*
X144073022Y-100047431D01*
X143965880Y-100083145D01*
X143894451Y-100083145D01*
X143787308Y-100047431D01*
X143715880Y-99976002D01*
X143680165Y-99904574D01*
X143644451Y-99761717D01*
X143644451Y-99654574D01*
X143680165Y-99511717D01*
X143715880Y-99440288D01*
X143787308Y-99368860D01*
X143894451Y-99333145D01*
X143965880Y-99333145D01*
X144073022Y-99368860D01*
X144108737Y-99404574D01*
X144823022Y-100083145D02*
X144394451Y-100083145D01*
X144608737Y-100083145D02*
X144608737Y-99333145D01*
X144537308Y-99440288D01*
X144465880Y-99511717D01*
X144394451Y-99547431D01*
X145465880Y-99333145D02*
X145323022Y-99333145D01*
X145251594Y-99368860D01*
X145215880Y-99404574D01*
X145144451Y-99511717D01*
X145108737Y-99654574D01*
X145108737Y-99940288D01*
X145144451Y-100011717D01*
X145180165Y-100047431D01*
X145251594Y-100083145D01*
X145394451Y-100083145D01*
X145465880Y-100047431D01*
X145501594Y-100011717D01*
X145537308Y-99940288D01*
X145537308Y-99761717D01*
X145501594Y-99690288D01*
X145465880Y-99654574D01*
X145394451Y-99618860D01*
X145251594Y-99618860D01*
X145180165Y-99654574D01*
X145144451Y-99690288D01*
X145108737Y-99761717D01*
G04 #@! TO.C,R1*
X136415880Y-91983145D02*
X136165880Y-91626002D01*
X135987308Y-91983145D02*
X135987308Y-91233145D01*
X136273022Y-91233145D01*
X136344451Y-91268860D01*
X136380165Y-91304574D01*
X136415880Y-91376002D01*
X136415880Y-91483145D01*
X136380165Y-91554574D01*
X136344451Y-91590288D01*
X136273022Y-91626002D01*
X135987308Y-91626002D01*
X137130165Y-91983145D02*
X136701594Y-91983145D01*
X136915880Y-91983145D02*
X136915880Y-91233145D01*
X136844451Y-91340288D01*
X136773022Y-91411717D01*
X136701594Y-91447431D01*
G04 #@! TO.C,R2*
X145030165Y-98318860D02*
X144673022Y-98568860D01*
X145030165Y-98747431D02*
X144280165Y-98747431D01*
X144280165Y-98461717D01*
X144315880Y-98390288D01*
X144351594Y-98354574D01*
X144423022Y-98318860D01*
X144530165Y-98318860D01*
X144601594Y-98354574D01*
X144637308Y-98390288D01*
X144673022Y-98461717D01*
X144673022Y-98747431D01*
X144351594Y-98033145D02*
X144315880Y-97997431D01*
X144280165Y-97926002D01*
X144280165Y-97747431D01*
X144315880Y-97676002D01*
X144351594Y-97640288D01*
X144423022Y-97604574D01*
X144494451Y-97604574D01*
X144601594Y-97640288D01*
X145030165Y-98068860D01*
X145030165Y-97604574D01*
G04 #@! TO.C,R5*
X151230165Y-93368860D02*
X150873022Y-93618860D01*
X151230165Y-93797431D02*
X150480165Y-93797431D01*
X150480165Y-93511717D01*
X150515880Y-93440288D01*
X150551594Y-93404574D01*
X150623022Y-93368860D01*
X150730165Y-93368860D01*
X150801594Y-93404574D01*
X150837308Y-93440288D01*
X150873022Y-93511717D01*
X150873022Y-93797431D01*
X150480165Y-92690288D02*
X150480165Y-93047431D01*
X150837308Y-93083145D01*
X150801594Y-93047431D01*
X150765880Y-92976002D01*
X150765880Y-92797431D01*
X150801594Y-92726002D01*
X150837308Y-92690288D01*
X150908737Y-92654574D01*
X151087308Y-92654574D01*
X151158737Y-92690288D01*
X151194451Y-92726002D01*
X151230165Y-92797431D01*
X151230165Y-92976002D01*
X151194451Y-93047431D01*
X151158737Y-93083145D01*
G04 #@! TO.C,R7*
X136469080Y-94778345D02*
X136219080Y-94421202D01*
X136040508Y-94778345D02*
X136040508Y-94028345D01*
X136326222Y-94028345D01*
X136397651Y-94064060D01*
X136433365Y-94099774D01*
X136469080Y-94171202D01*
X136469080Y-94278345D01*
X136433365Y-94349774D01*
X136397651Y-94385488D01*
X136326222Y-94421202D01*
X136040508Y-94421202D01*
X136719080Y-94028345D02*
X137219080Y-94028345D01*
X136897651Y-94778345D01*
G04 #@! TO.C,R8*
X136445880Y-93823145D02*
X136195880Y-93466002D01*
X136017308Y-93823145D02*
X136017308Y-93073145D01*
X136303022Y-93073145D01*
X136374451Y-93108860D01*
X136410165Y-93144574D01*
X136445880Y-93216002D01*
X136445880Y-93323145D01*
X136410165Y-93394574D01*
X136374451Y-93430288D01*
X136303022Y-93466002D01*
X136017308Y-93466002D01*
X136874451Y-93394574D02*
X136803022Y-93358860D01*
X136767308Y-93323145D01*
X136731594Y-93251717D01*
X136731594Y-93216002D01*
X136767308Y-93144574D01*
X136803022Y-93108860D01*
X136874451Y-93073145D01*
X137017308Y-93073145D01*
X137088737Y-93108860D01*
X137124451Y-93144574D01*
X137160165Y-93216002D01*
X137160165Y-93251717D01*
X137124451Y-93323145D01*
X137088737Y-93358860D01*
X137017308Y-93394574D01*
X136874451Y-93394574D01*
X136803022Y-93430288D01*
X136767308Y-93466002D01*
X136731594Y-93537431D01*
X136731594Y-93680288D01*
X136767308Y-93751717D01*
X136803022Y-93787431D01*
X136874451Y-93823145D01*
X137017308Y-93823145D01*
X137088737Y-93787431D01*
X137124451Y-93751717D01*
X137160165Y-93680288D01*
X137160165Y-93537431D01*
X137124451Y-93466002D01*
X137088737Y-93430288D01*
X137017308Y-93394574D01*
G04 #@! TO.C,R12*
X150280165Y-93376002D02*
X149923022Y-93626002D01*
X150280165Y-93804574D02*
X149530165Y-93804574D01*
X149530165Y-93518860D01*
X149565880Y-93447431D01*
X149601594Y-93411717D01*
X149673022Y-93376002D01*
X149780165Y-93376002D01*
X149851594Y-93411717D01*
X149887308Y-93447431D01*
X149923022Y-93518860D01*
X149923022Y-93804574D01*
X150280165Y-92661717D02*
X150280165Y-93090288D01*
X150280165Y-92876002D02*
X149530165Y-92876002D01*
X149637308Y-92947431D01*
X149708737Y-93018860D01*
X149744451Y-93090288D01*
X149601594Y-92376002D02*
X149565880Y-92340288D01*
X149530165Y-92268860D01*
X149530165Y-92090288D01*
X149565880Y-92018860D01*
X149601594Y-91983145D01*
X149673022Y-91947431D01*
X149744451Y-91947431D01*
X149851594Y-91983145D01*
X150280165Y-92411717D01*
X150280165Y-91947431D01*
G04 #@! TO.C,R13*
X128258737Y-93758145D02*
X128008737Y-93401002D01*
X127830165Y-93758145D02*
X127830165Y-93008145D01*
X128115880Y-93008145D01*
X128187308Y-93043860D01*
X128223022Y-93079574D01*
X128258737Y-93151002D01*
X128258737Y-93258145D01*
X128223022Y-93329574D01*
X128187308Y-93365288D01*
X128115880Y-93401002D01*
X127830165Y-93401002D01*
X128973022Y-93758145D02*
X128544451Y-93758145D01*
X128758737Y-93758145D02*
X128758737Y-93008145D01*
X128687308Y-93115288D01*
X128615880Y-93186717D01*
X128544451Y-93222431D01*
X129223022Y-93008145D02*
X129687308Y-93008145D01*
X129437308Y-93293860D01*
X129544451Y-93293860D01*
X129615880Y-93329574D01*
X129651594Y-93365288D01*
X129687308Y-93436717D01*
X129687308Y-93615288D01*
X129651594Y-93686717D01*
X129615880Y-93722431D01*
X129544451Y-93758145D01*
X129330165Y-93758145D01*
X129258737Y-93722431D01*
X129223022Y-93686717D01*
G04 #@! TO.C,R14*
X128208737Y-92758145D02*
X127958737Y-92401002D01*
X127780165Y-92758145D02*
X127780165Y-92008145D01*
X128065880Y-92008145D01*
X128137308Y-92043860D01*
X128173022Y-92079574D01*
X128208737Y-92151002D01*
X128208737Y-92258145D01*
X128173022Y-92329574D01*
X128137308Y-92365288D01*
X128065880Y-92401002D01*
X127780165Y-92401002D01*
X128923022Y-92758145D02*
X128494451Y-92758145D01*
X128708737Y-92758145D02*
X128708737Y-92008145D01*
X128637308Y-92115288D01*
X128565880Y-92186717D01*
X128494451Y-92222431D01*
X129565880Y-92258145D02*
X129565880Y-92758145D01*
X129387308Y-91972431D02*
X129208737Y-92508145D01*
X129673022Y-92508145D01*
G04 #@! TO.C,R15*
X129405165Y-98376002D02*
X129048022Y-98626002D01*
X129405165Y-98804574D02*
X128655165Y-98804574D01*
X128655165Y-98518860D01*
X128690880Y-98447431D01*
X128726594Y-98411717D01*
X128798022Y-98376002D01*
X128905165Y-98376002D01*
X128976594Y-98411717D01*
X129012308Y-98447431D01*
X129048022Y-98518860D01*
X129048022Y-98804574D01*
X129405165Y-97661717D02*
X129405165Y-98090288D01*
X129405165Y-97876002D02*
X128655165Y-97876002D01*
X128762308Y-97947431D01*
X128833737Y-98018860D01*
X128869451Y-98090288D01*
X128655165Y-96983145D02*
X128655165Y-97340288D01*
X129012308Y-97376002D01*
X128976594Y-97340288D01*
X128940880Y-97268860D01*
X128940880Y-97090288D01*
X128976594Y-97018860D01*
X129012308Y-96983145D01*
X129083737Y-96947431D01*
X129262308Y-96947431D01*
X129333737Y-96983145D01*
X129369451Y-97018860D01*
X129405165Y-97090288D01*
X129405165Y-97268860D01*
X129369451Y-97340288D01*
X129333737Y-97376002D01*
G04 #@! TO.C,R17*
X149280165Y-93376002D02*
X148923022Y-93626002D01*
X149280165Y-93804574D02*
X148530165Y-93804574D01*
X148530165Y-93518860D01*
X148565880Y-93447431D01*
X148601594Y-93411717D01*
X148673022Y-93376002D01*
X148780165Y-93376002D01*
X148851594Y-93411717D01*
X148887308Y-93447431D01*
X148923022Y-93518860D01*
X148923022Y-93804574D01*
X149280165Y-92661717D02*
X149280165Y-93090288D01*
X149280165Y-92876002D02*
X148530165Y-92876002D01*
X148637308Y-92947431D01*
X148708737Y-93018860D01*
X148744451Y-93090288D01*
X148530165Y-92411717D02*
X148530165Y-91911717D01*
X149280165Y-92233145D01*
G04 #@! TO.C,U3*
X140319451Y-100958146D02*
X140319451Y-101565289D01*
X140355165Y-101636718D01*
X140390880Y-101672432D01*
X140462308Y-101708146D01*
X140605165Y-101708146D01*
X140676594Y-101672432D01*
X140712308Y-101636718D01*
X140748022Y-101565289D01*
X140748022Y-100958146D01*
X141033737Y-100958146D02*
X141498022Y-100958146D01*
X141248022Y-101243861D01*
X141355165Y-101243861D01*
X141426594Y-101279575D01*
X141462308Y-101315289D01*
X141498022Y-101386718D01*
X141498022Y-101565289D01*
X141462308Y-101636718D01*
X141426594Y-101672432D01*
X141355165Y-101708146D01*
X141140880Y-101708146D01*
X141069451Y-101672432D01*
X141033737Y-101636718D01*
G04 #@! TO.C,P1*
X152302784Y-108496240D02*
X152302784Y-107496240D01*
X152683737Y-107496240D01*
X152778975Y-107543860D01*
X152826594Y-107591479D01*
X152874213Y-107686717D01*
X152874213Y-107829574D01*
X152826594Y-107924812D01*
X152778975Y-107972431D01*
X152683737Y-108020050D01*
X152302784Y-108020050D01*
X153826594Y-108496240D02*
X153255165Y-108496240D01*
X153540880Y-108496240D02*
X153540880Y-107496240D01*
X153445641Y-107639098D01*
X153350403Y-107734336D01*
X153255165Y-107781955D01*
G04 #@! TD*
%LPC*%
D15*
G04 #@! TO.C,U7*
X141955880Y-101268860D03*
X141955880Y-101618860D03*
X141955880Y-101968860D03*
X141955880Y-102318860D03*
X142625880Y-102318860D03*
X142625880Y-101968860D03*
X142625880Y-101618860D03*
X142625880Y-101268860D03*
G04 #@! TD*
D16*
G04 #@! TO.C,U4*
X148678380Y-101893860D03*
D17*
X148940880Y-103156360D03*
X149440880Y-103156360D03*
X149940880Y-103156360D03*
X150440880Y-103156360D03*
X150440880Y-100631360D03*
X149940880Y-100631360D03*
X149440880Y-100631360D03*
X148940880Y-100631360D03*
D16*
X148678380Y-102393860D03*
X148678380Y-101393860D03*
X150703380Y-101393860D03*
X150703380Y-101893860D03*
X150703380Y-102393860D03*
G04 #@! TD*
D18*
G04 #@! TO.C,C12*
X130215880Y-101493860D03*
X131315880Y-101493860D03*
G04 #@! TD*
D19*
G04 #@! TO.C,U6*
X131415880Y-103006360D03*
D10*
G36*
X130996264Y-103092458D02*
X130997402Y-103088706D01*
X130999251Y-103085249D01*
X131000545Y-103083521D01*
X131180545Y-102868521D01*
X131183344Y-102865776D01*
X131186625Y-102863630D01*
X131190262Y-102862165D01*
X131195880Y-102861360D01*
X131420880Y-102861360D01*
X131424782Y-102861744D01*
X131428534Y-102862882D01*
X131431991Y-102864731D01*
X131435022Y-102867218D01*
X131437509Y-102870249D01*
X131439358Y-102873706D01*
X131440496Y-102877458D01*
X131440880Y-102881360D01*
X131440880Y-103131360D01*
X131440496Y-103135262D01*
X131439358Y-103139014D01*
X131437509Y-103142471D01*
X131435022Y-103145502D01*
X131431991Y-103147989D01*
X131428534Y-103149838D01*
X131424782Y-103150976D01*
X131420880Y-103151360D01*
X131015880Y-103151360D01*
X131011978Y-103150976D01*
X131008226Y-103149838D01*
X131004769Y-103147989D01*
X131001738Y-103145502D01*
X130999251Y-103142471D01*
X130997402Y-103139014D01*
X130996264Y-103135262D01*
X130995880Y-103131360D01*
X130995880Y-103096360D01*
X130996264Y-103092458D01*
X130996264Y-103092458D01*
G37*
D19*
X130115880Y-102381360D03*
D10*
G36*
X130535496Y-102295262D02*
X130534358Y-102299014D01*
X130532509Y-102302471D01*
X130531215Y-102304199D01*
X130351215Y-102519199D01*
X130348416Y-102521944D01*
X130345135Y-102524090D01*
X130341498Y-102525555D01*
X130335880Y-102526360D01*
X130110880Y-102526360D01*
X130106978Y-102525976D01*
X130103226Y-102524838D01*
X130099769Y-102522989D01*
X130096738Y-102520502D01*
X130094251Y-102517471D01*
X130092402Y-102514014D01*
X130091264Y-102510262D01*
X130090880Y-102506360D01*
X130090880Y-102256360D01*
X130091264Y-102252458D01*
X130092402Y-102248706D01*
X130094251Y-102245249D01*
X130096738Y-102242218D01*
X130099769Y-102239731D01*
X130103226Y-102237882D01*
X130106978Y-102236744D01*
X130110880Y-102236360D01*
X130515880Y-102236360D01*
X130519782Y-102236744D01*
X130523534Y-102237882D01*
X130526991Y-102239731D01*
X130530022Y-102242218D01*
X130532509Y-102245249D01*
X130534358Y-102248706D01*
X130535496Y-102252458D01*
X130535880Y-102256360D01*
X130535880Y-102291360D01*
X130535496Y-102295262D01*
X130535496Y-102295262D01*
G37*
D19*
X131415880Y-102381360D03*
D10*
G36*
X130996264Y-102252458D02*
X130997402Y-102248706D01*
X130999251Y-102245249D01*
X131001738Y-102242218D01*
X131004769Y-102239731D01*
X131008226Y-102237882D01*
X131011978Y-102236744D01*
X131015880Y-102236360D01*
X131420880Y-102236360D01*
X131424782Y-102236744D01*
X131428534Y-102237882D01*
X131431991Y-102239731D01*
X131435022Y-102242218D01*
X131437509Y-102245249D01*
X131439358Y-102248706D01*
X131440496Y-102252458D01*
X131440880Y-102256360D01*
X131440880Y-102506360D01*
X131440496Y-102510262D01*
X131439358Y-102514014D01*
X131437509Y-102517471D01*
X131435022Y-102520502D01*
X131431991Y-102522989D01*
X131428534Y-102524838D01*
X131424782Y-102525976D01*
X131420880Y-102526360D01*
X131195880Y-102526360D01*
X131191978Y-102525976D01*
X131188226Y-102524838D01*
X131184769Y-102522989D01*
X131180545Y-102519199D01*
X131000545Y-102304199D01*
X130998335Y-102300960D01*
X130996799Y-102297353D01*
X130995996Y-102293515D01*
X130995880Y-102291360D01*
X130995880Y-102256360D01*
X130996264Y-102252458D01*
X130996264Y-102252458D01*
G37*
D19*
X130115880Y-103006360D03*
D10*
G36*
X130535496Y-103135262D02*
X130534358Y-103139014D01*
X130532509Y-103142471D01*
X130530022Y-103145502D01*
X130526991Y-103147989D01*
X130523534Y-103149838D01*
X130519782Y-103150976D01*
X130515880Y-103151360D01*
X130110880Y-103151360D01*
X130106978Y-103150976D01*
X130103226Y-103149838D01*
X130099769Y-103147989D01*
X130096738Y-103145502D01*
X130094251Y-103142471D01*
X130092402Y-103139014D01*
X130091264Y-103135262D01*
X130090880Y-103131360D01*
X130090880Y-102881360D01*
X130091264Y-102877458D01*
X130092402Y-102873706D01*
X130094251Y-102870249D01*
X130096738Y-102867218D01*
X130099769Y-102864731D01*
X130103226Y-102862882D01*
X130106978Y-102861744D01*
X130110880Y-102861360D01*
X130335880Y-102861360D01*
X130339782Y-102861744D01*
X130343534Y-102862882D01*
X130346991Y-102864731D01*
X130351215Y-102868521D01*
X130531215Y-103083521D01*
X130533425Y-103086760D01*
X130534961Y-103090367D01*
X130535764Y-103094205D01*
X130535880Y-103096360D01*
X130535880Y-103131360D01*
X130535496Y-103135262D01*
X130535496Y-103135262D01*
G37*
D20*
X130765880Y-102693860D03*
D10*
G36*
X131133576Y-102693860D02*
X130765880Y-103061556D01*
X130398184Y-102693860D01*
X130765880Y-102326164D01*
X131133576Y-102693860D01*
X131133576Y-102693860D01*
G37*
G04 #@! TD*
D21*
G04 #@! TO.C,U8*
X130615880Y-107393860D03*
X129965880Y-105393860D03*
X131265880Y-105393860D03*
G04 #@! TD*
D22*
G04 #@! TO.C,C7*
X140090880Y-98743860D03*
X140090880Y-97643860D03*
G04 #@! TD*
D18*
G04 #@! TO.C,C8*
X139640880Y-102668860D03*
X138540880Y-102668860D03*
G04 #@! TD*
D23*
G04 #@! TO.C,U1*
X143180880Y-91113860D03*
D24*
X142660880Y-91103860D03*
D10*
G36*
X142137596Y-91358860D02*
X142647596Y-90848860D01*
X142674164Y-90848860D01*
X143184164Y-91358860D01*
X142137596Y-91358860D01*
X142137596Y-91358860D01*
G37*
D25*
X144940880Y-91613860D03*
X144940880Y-93733860D03*
X142940880Y-93733860D03*
D26*
X142940880Y-91828860D03*
D27*
X147245880Y-90123860D03*
X147245880Y-90623860D03*
X147245880Y-91123860D03*
X147245880Y-91623860D03*
X147245880Y-92123860D03*
X147245880Y-92623860D03*
X147245880Y-93123860D03*
X147245880Y-93623860D03*
X147245880Y-94123860D03*
X147245880Y-94623860D03*
X147245880Y-95123860D03*
X147245880Y-95623860D03*
D28*
X146190880Y-95913860D03*
X145690880Y-95913860D03*
X145190880Y-95913860D03*
X144690880Y-95913860D03*
X144190880Y-95913860D03*
X143690880Y-95913860D03*
X143190880Y-95913860D03*
X142690880Y-95913860D03*
X142190880Y-95913860D03*
X141690880Y-95913860D03*
D27*
X140635880Y-95623860D03*
X140635880Y-95123860D03*
X140635880Y-94623860D03*
X140635880Y-94123860D03*
X140635880Y-93623860D03*
X140635880Y-93123860D03*
X140635880Y-92623860D03*
X140635880Y-92123860D03*
X140635880Y-91623860D03*
X140635880Y-91123860D03*
X140635880Y-90623860D03*
X140635880Y-90123860D03*
X140635880Y-89623860D03*
X140635880Y-89123860D03*
X140635880Y-88623860D03*
X140635880Y-88123860D03*
X140635880Y-87623860D03*
X140635880Y-87123860D03*
X140635880Y-86623860D03*
G04 #@! TD*
D29*
G04 #@! TO.C,S3*
X154892880Y-88287860D03*
X157892880Y-88287860D03*
G04 #@! TD*
G04 #@! TO.C,S3*
X155019880Y-108099860D03*
X158019880Y-108099860D03*
G04 #@! TD*
G04 #@! TO.C,S3*
X122761880Y-108099860D03*
X125761880Y-108099860D03*
G04 #@! TD*
D30*
G04 #@! TO.C,D2*
X130990880Y-100218860D03*
X130990880Y-98718860D03*
G04 #@! TD*
D31*
G04 #@! TO.C,D3*
X130165880Y-96218860D03*
X130165880Y-94718860D03*
X131015880Y-94718860D03*
X131015880Y-96218860D03*
G04 #@! TD*
D32*
G04 #@! TO.C,U5*
X132565880Y-94793860D03*
X133515880Y-94793860D03*
X134465880Y-94793860D03*
X134465880Y-92593860D03*
X132565880Y-92593860D03*
G04 #@! TD*
D33*
G04 #@! TO.C,P2*
X135984220Y-87945647D03*
D34*
X131484220Y-87945647D03*
D35*
X129484220Y-90395647D03*
D36*
X133984220Y-90620647D03*
X133334220Y-90620647D03*
X131384220Y-90620647D03*
X132034220Y-90620647D03*
X132684220Y-90620647D03*
D35*
X135884220Y-90395647D03*
D34*
X133884220Y-87945647D03*
D33*
X129384220Y-87945647D03*
G04 #@! TD*
D37*
G04 #@! TO.C,D1*
X150740880Y-97993861D03*
X149240880Y-97993861D03*
X149240880Y-96893861D03*
X150740880Y-96893861D03*
G04 #@! TD*
D29*
G04 #@! TO.C,S2*
X122761880Y-88287860D03*
X125761880Y-88287860D03*
G04 #@! TD*
D38*
G04 #@! TO.C,BT1*
X134415880Y-98306360D03*
X135415880Y-98306360D03*
D39*
X133115880Y-102181360D03*
X136715880Y-102181360D03*
G04 #@! TD*
D18*
G04 #@! TO.C,C1*
X138890880Y-87993860D03*
X137790880Y-87993860D03*
G04 #@! TD*
G04 #@! TO.C,C2*
X137790880Y-88893860D03*
X138890880Y-88893860D03*
G04 #@! TD*
D22*
G04 #@! TO.C,C3*
X147240880Y-98693860D03*
X147240880Y-97593860D03*
G04 #@! TD*
G04 #@! TO.C,C4*
X137840880Y-96643860D03*
X137840880Y-95543860D03*
G04 #@! TD*
G04 #@! TO.C,C5*
X136940880Y-95543860D03*
X136940880Y-96643860D03*
G04 #@! TD*
G04 #@! TO.C,C6*
X139190880Y-98743860D03*
X139190880Y-97643860D03*
G04 #@! TD*
D18*
G04 #@! TO.C,C9*
X139640880Y-100168860D03*
X138540880Y-100168860D03*
G04 #@! TD*
G04 #@! TO.C,C10*
X137790880Y-90693860D03*
X138890880Y-90693860D03*
G04 #@! TD*
G04 #@! TO.C,C11*
X133515880Y-96093860D03*
X134615880Y-96093860D03*
G04 #@! TD*
G04 #@! TO.C,C13*
X130065880Y-104068860D03*
X131165880Y-104068860D03*
G04 #@! TD*
G04 #@! TO.C,C14*
X137860880Y-92593860D03*
X138960880Y-92593860D03*
G04 #@! TD*
G04 #@! TO.C,C15*
X141690880Y-103243860D03*
X142790880Y-103243860D03*
G04 #@! TD*
G04 #@! TO.C,C16*
X142940880Y-99593860D03*
X141840880Y-99593860D03*
G04 #@! TD*
G04 #@! TO.C,R1*
X137790880Y-89793860D03*
X138890880Y-89793860D03*
G04 #@! TD*
D22*
G04 #@! TO.C,R2*
X140990880Y-97643860D03*
X140990880Y-98743860D03*
G04 #@! TD*
G04 #@! TO.C,R5*
X150840880Y-95543860D03*
X150840880Y-94443860D03*
G04 #@! TD*
D18*
G04 #@! TO.C,R7*
X137850880Y-94393860D03*
X138950880Y-94393860D03*
G04 #@! TD*
G04 #@! TO.C,R8*
X137840880Y-93493860D03*
X138940880Y-93493860D03*
G04 #@! TD*
D22*
G04 #@! TO.C,R12*
X149890880Y-94443860D03*
X149890880Y-95543860D03*
G04 #@! TD*
D18*
G04 #@! TO.C,R13*
X130215880Y-93393860D03*
X131315880Y-93393860D03*
G04 #@! TD*
G04 #@! TO.C,R14*
X130215880Y-92493860D03*
X131315880Y-92493860D03*
G04 #@! TD*
G04 #@! TO.C,R15*
X131315880Y-97393860D03*
X130215880Y-97393860D03*
G04 #@! TD*
D22*
G04 #@! TO.C,R17*
X148940880Y-95543860D03*
X148940880Y-94443860D03*
G04 #@! TD*
D20*
G04 #@! TO.C,U3*
X139090880Y-101418861D03*
D10*
G36*
X138723184Y-101418861D02*
X139090880Y-101051165D01*
X139458576Y-101418861D01*
X139090880Y-101786557D01*
X138723184Y-101418861D01*
X138723184Y-101418861D01*
G37*
D19*
X139740880Y-101106361D03*
D10*
G36*
X139321264Y-100977459D02*
X139322402Y-100973707D01*
X139324251Y-100970250D01*
X139326738Y-100967219D01*
X139329769Y-100964732D01*
X139333226Y-100962883D01*
X139336978Y-100961745D01*
X139340880Y-100961361D01*
X139745880Y-100961361D01*
X139749782Y-100961745D01*
X139753534Y-100962883D01*
X139756991Y-100964732D01*
X139760022Y-100967219D01*
X139762509Y-100970250D01*
X139764358Y-100973707D01*
X139765496Y-100977459D01*
X139765880Y-100981361D01*
X139765880Y-101231361D01*
X139765496Y-101235263D01*
X139764358Y-101239015D01*
X139762509Y-101242472D01*
X139760022Y-101245503D01*
X139756991Y-101247990D01*
X139753534Y-101249839D01*
X139749782Y-101250977D01*
X139745880Y-101251361D01*
X139520880Y-101251361D01*
X139516978Y-101250977D01*
X139513226Y-101249839D01*
X139509769Y-101247990D01*
X139505545Y-101244200D01*
X139325545Y-101029200D01*
X139323335Y-101025961D01*
X139321799Y-101022354D01*
X139320996Y-101018516D01*
X139320880Y-101016361D01*
X139320880Y-100981361D01*
X139321264Y-100977459D01*
X139321264Y-100977459D01*
G37*
D19*
X138440880Y-101731361D03*
D10*
G36*
X138860496Y-101860263D02*
X138859358Y-101864015D01*
X138857509Y-101867472D01*
X138855022Y-101870503D01*
X138851991Y-101872990D01*
X138848534Y-101874839D01*
X138844782Y-101875977D01*
X138840880Y-101876361D01*
X138435880Y-101876361D01*
X138431978Y-101875977D01*
X138428226Y-101874839D01*
X138424769Y-101872990D01*
X138421738Y-101870503D01*
X138419251Y-101867472D01*
X138417402Y-101864015D01*
X138416264Y-101860263D01*
X138415880Y-101856361D01*
X138415880Y-101606361D01*
X138416264Y-101602459D01*
X138417402Y-101598707D01*
X138419251Y-101595250D01*
X138421738Y-101592219D01*
X138424769Y-101589732D01*
X138428226Y-101587883D01*
X138431978Y-101586745D01*
X138435880Y-101586361D01*
X138660880Y-101586361D01*
X138664782Y-101586745D01*
X138668534Y-101587883D01*
X138671991Y-101589732D01*
X138676215Y-101593522D01*
X138856215Y-101808522D01*
X138858425Y-101811761D01*
X138859961Y-101815368D01*
X138860764Y-101819206D01*
X138860880Y-101821361D01*
X138860880Y-101856361D01*
X138860496Y-101860263D01*
X138860496Y-101860263D01*
G37*
D19*
X139740880Y-101731361D03*
D10*
G36*
X139321264Y-101817459D02*
X139322402Y-101813707D01*
X139324251Y-101810250D01*
X139325545Y-101808522D01*
X139505545Y-101593522D01*
X139508344Y-101590777D01*
X139511625Y-101588631D01*
X139515262Y-101587166D01*
X139520880Y-101586361D01*
X139745880Y-101586361D01*
X139749782Y-101586745D01*
X139753534Y-101587883D01*
X139756991Y-101589732D01*
X139760022Y-101592219D01*
X139762509Y-101595250D01*
X139764358Y-101598707D01*
X139765496Y-101602459D01*
X139765880Y-101606361D01*
X139765880Y-101856361D01*
X139765496Y-101860263D01*
X139764358Y-101864015D01*
X139762509Y-101867472D01*
X139760022Y-101870503D01*
X139756991Y-101872990D01*
X139753534Y-101874839D01*
X139749782Y-101875977D01*
X139745880Y-101876361D01*
X139340880Y-101876361D01*
X139336978Y-101875977D01*
X139333226Y-101874839D01*
X139329769Y-101872990D01*
X139326738Y-101870503D01*
X139324251Y-101867472D01*
X139322402Y-101864015D01*
X139321264Y-101860263D01*
X139320880Y-101856361D01*
X139320880Y-101821361D01*
X139321264Y-101817459D01*
X139321264Y-101817459D01*
G37*
D19*
X138440880Y-101106361D03*
D10*
G36*
X138860496Y-101020263D02*
X138859358Y-101024015D01*
X138857509Y-101027472D01*
X138856215Y-101029200D01*
X138676215Y-101244200D01*
X138673416Y-101246945D01*
X138670135Y-101249091D01*
X138666498Y-101250556D01*
X138660880Y-101251361D01*
X138435880Y-101251361D01*
X138431978Y-101250977D01*
X138428226Y-101249839D01*
X138424769Y-101247990D01*
X138421738Y-101245503D01*
X138419251Y-101242472D01*
X138417402Y-101239015D01*
X138416264Y-101235263D01*
X138415880Y-101231361D01*
X138415880Y-100981361D01*
X138416264Y-100977459D01*
X138417402Y-100973707D01*
X138419251Y-100970250D01*
X138421738Y-100967219D01*
X138424769Y-100964732D01*
X138428226Y-100962883D01*
X138431978Y-100961745D01*
X138435880Y-100961361D01*
X138840880Y-100961361D01*
X138844782Y-100961745D01*
X138848534Y-100962883D01*
X138851991Y-100964732D01*
X138855022Y-100967219D01*
X138857509Y-100970250D01*
X138859358Y-100973707D01*
X138860496Y-100977459D01*
X138860880Y-100981361D01*
X138860880Y-101016361D01*
X138860496Y-101020263D01*
X138860496Y-101020263D01*
G37*
G04 #@! TD*
D40*
G04 #@! TO.C,P1*
X142045880Y-106743860D03*
X143315880Y-109443860D03*
X144585880Y-106743860D03*
X145855880Y-109443860D03*
X147125880Y-106743860D03*
X148395880Y-109443860D03*
X149665880Y-106743860D03*
X150935880Y-109443860D03*
G04 #@! TD*
M02*
