G04 #@! TF.GenerationSoftware,KiCad,Pcbnew,(5.0.1-3-g963ef8bb5)*
G04 #@! TF.CreationDate,2019-06-21T09:44:15-10:00*
G04 #@! TF.ProjectId,OpenHAK_03,4F70656E48414B5F30332E6B69636164,rev?*
G04 #@! TF.SameCoordinates,Original*
G04 #@! TF.FileFunction,Soldermask,Top*
G04 #@! TF.FilePolarity,Negative*
%FSLAX46Y46*%
G04 Gerber Fmt 4.6, Leading zero omitted, Abs format (unit mm)*
G04 Created by KiCad (PCBNEW (5.0.1-3-g963ef8bb5)) date Friday, June 21, 2019 at 09:44:15 AM*
%MOMM*%
%LPD*%
G01*
G04 APERTURE LIST*
%ADD10C,0.100000*%
G04 APERTURE END LIST*
D10*
G36*
X151345880Y-110313860D02*
X150565880Y-110313860D01*
X150565880Y-108573860D01*
X151345880Y-108573860D01*
X151345880Y-110313860D01*
X151345880Y-110313860D01*
G37*
G36*
X148805880Y-110313860D02*
X148025880Y-110313860D01*
X148025880Y-108573860D01*
X148805880Y-108573860D01*
X148805880Y-110313860D01*
X148805880Y-110313860D01*
G37*
G36*
X146265880Y-110313860D02*
X145485880Y-110313860D01*
X145485880Y-108573860D01*
X146265880Y-108573860D01*
X146265880Y-110313860D01*
X146265880Y-110313860D01*
G37*
G36*
X143725880Y-110313860D02*
X142945880Y-110313860D01*
X142945880Y-108573860D01*
X143725880Y-108573860D01*
X143725880Y-110313860D01*
X143725880Y-110313860D01*
G37*
G36*
X141185880Y-110313860D02*
X140405880Y-110313860D01*
X140405880Y-108573860D01*
X141185880Y-108573860D01*
X141185880Y-110313860D01*
X141185880Y-110313860D01*
G37*
G36*
X126281880Y-108919860D02*
X125241880Y-108919860D01*
X125241880Y-107279860D01*
X126281880Y-107279860D01*
X126281880Y-108919860D01*
X126281880Y-108919860D01*
G37*
G36*
X155539880Y-108919860D02*
X154499880Y-108919860D01*
X154499880Y-107279860D01*
X155539880Y-107279860D01*
X155539880Y-108919860D01*
X155539880Y-108919860D01*
G37*
G36*
X158539880Y-108919860D02*
X157499880Y-108919860D01*
X157499880Y-107279860D01*
X158539880Y-107279860D01*
X158539880Y-108919860D01*
X158539880Y-108919860D01*
G37*
G36*
X123281880Y-108919860D02*
X122241880Y-108919860D01*
X122241880Y-107279860D01*
X123281880Y-107279860D01*
X123281880Y-108919860D01*
X123281880Y-108919860D01*
G37*
G36*
X147535880Y-107613860D02*
X146755880Y-107613860D01*
X146755880Y-105873860D01*
X147535880Y-105873860D01*
X147535880Y-107613860D01*
X147535880Y-107613860D01*
G37*
G36*
X150075880Y-107613860D02*
X149295880Y-107613860D01*
X149295880Y-105873860D01*
X150075880Y-105873860D01*
X150075880Y-107613860D01*
X150075880Y-107613860D01*
G37*
G36*
X144995880Y-107613860D02*
X144215880Y-107613860D01*
X144215880Y-105873860D01*
X144995880Y-105873860D01*
X144995880Y-107613860D01*
X144995880Y-107613860D01*
G37*
G36*
X142455880Y-107613860D02*
X141675880Y-107613860D01*
X141675880Y-105873860D01*
X142455880Y-105873860D01*
X142455880Y-107613860D01*
X142455880Y-107613860D01*
G37*
G36*
X139915880Y-107613860D02*
X139135880Y-107613860D01*
X139135880Y-105873860D01*
X139915880Y-105873860D01*
X139915880Y-107613860D01*
X139915880Y-107613860D01*
G37*
G36*
X131485880Y-104338860D02*
X130845880Y-104338860D01*
X130845880Y-103798860D01*
X131485880Y-103798860D01*
X131485880Y-104338860D01*
X131485880Y-104338860D01*
G37*
G36*
X130385880Y-104338860D02*
X129745880Y-104338860D01*
X129745880Y-103798860D01*
X130385880Y-103798860D01*
X130385880Y-104338860D01*
X130385880Y-104338860D01*
G37*
G36*
X149085880Y-104313860D02*
X148795880Y-104313860D01*
X148795880Y-103598860D01*
X149085880Y-103598860D01*
X149085880Y-104313860D01*
X149085880Y-104313860D01*
G37*
G36*
X149585880Y-104313860D02*
X149295880Y-104313860D01*
X149295880Y-103598860D01*
X149585880Y-103598860D01*
X149585880Y-104313860D01*
X149585880Y-104313860D01*
G37*
G36*
X150085880Y-104313860D02*
X149795880Y-104313860D01*
X149795880Y-103598860D01*
X150085880Y-103598860D01*
X150085880Y-104313860D01*
X150085880Y-104313860D01*
G37*
G36*
X150585880Y-104313860D02*
X150295880Y-104313860D01*
X150295880Y-103598860D01*
X150585880Y-103598860D01*
X150585880Y-104313860D01*
X150585880Y-104313860D01*
G37*
G36*
X142010880Y-103513860D02*
X141370880Y-103513860D01*
X141370880Y-102973860D01*
X142010880Y-102973860D01*
X142010880Y-103513860D01*
X142010880Y-103513860D01*
G37*
G36*
X143110880Y-103513860D02*
X142470880Y-103513860D01*
X142470880Y-102973860D01*
X143110880Y-102973860D01*
X143110880Y-103513860D01*
X143110880Y-103513860D01*
G37*
G36*
X151060880Y-103338860D02*
X150345880Y-103338860D01*
X150345880Y-103048860D01*
X151060880Y-103048860D01*
X151060880Y-103338860D01*
X151060880Y-103338860D01*
G37*
G36*
X149035880Y-103338860D02*
X148320880Y-103338860D01*
X148320880Y-103048860D01*
X149035880Y-103048860D01*
X149035880Y-103338860D01*
X149035880Y-103338860D01*
G37*
G36*
X131420876Y-102861263D02*
X131420880Y-102861263D01*
X131424801Y-102861649D01*
X131424803Y-102861650D01*
X131424806Y-102861650D01*
X131428568Y-102862791D01*
X131432045Y-102864650D01*
X131435091Y-102867149D01*
X131437590Y-102870195D01*
X131439449Y-102873672D01*
X131440590Y-102877434D01*
X131440590Y-102877437D01*
X131440591Y-102877439D01*
X131440977Y-102881360D01*
X131441098Y-102882593D01*
X131441098Y-103130127D01*
X131440977Y-103131356D01*
X131440977Y-103131360D01*
X131440591Y-103135281D01*
X131440590Y-103135283D01*
X131440590Y-103135286D01*
X131439449Y-103139048D01*
X131437590Y-103142525D01*
X131435091Y-103145571D01*
X131432045Y-103148070D01*
X131428568Y-103149929D01*
X131424806Y-103151070D01*
X131424803Y-103151070D01*
X131424801Y-103151071D01*
X131420880Y-103151457D01*
X131420876Y-103151457D01*
X131419647Y-103151578D01*
X131017113Y-103151578D01*
X131015884Y-103151457D01*
X131015880Y-103151457D01*
X131011959Y-103151071D01*
X131011957Y-103151070D01*
X131011954Y-103151070D01*
X131008192Y-103149929D01*
X131004715Y-103148070D01*
X131001669Y-103145571D01*
X130999170Y-103142525D01*
X130997311Y-103139048D01*
X130996170Y-103135286D01*
X130996170Y-103135283D01*
X130996169Y-103135281D01*
X130995783Y-103131360D01*
X130995783Y-103131356D01*
X130995662Y-103130127D01*
X130995662Y-103097593D01*
X130995943Y-103094735D01*
X130996169Y-103092439D01*
X130996170Y-103092437D01*
X130996170Y-103092434D01*
X130997311Y-103088672D01*
X130999432Y-103084705D01*
X131000816Y-103082858D01*
X131179591Y-102869321D01*
X131183281Y-102865703D01*
X131183283Y-102865701D01*
X131186580Y-102863544D01*
X131190235Y-102862072D01*
X131195880Y-102861263D01*
X131196819Y-102861263D01*
X131197663Y-102861142D01*
X131419647Y-102861142D01*
X131420876Y-102861263D01*
X131420876Y-102861263D01*
G37*
G36*
X130335876Y-102861263D02*
X130335880Y-102861263D01*
X130339801Y-102861649D01*
X130339803Y-102861650D01*
X130339806Y-102861650D01*
X130343568Y-102862791D01*
X130346552Y-102864386D01*
X130346553Y-102864387D01*
X130347045Y-102864650D01*
X130351290Y-102868459D01*
X130351896Y-102869182D01*
X130352528Y-102869750D01*
X130530593Y-103082439D01*
X130531285Y-103083453D01*
X130531290Y-103083459D01*
X130532474Y-103085195D01*
X130533511Y-103086715D01*
X130535054Y-103090338D01*
X130535974Y-103094735D01*
X130536098Y-103097040D01*
X130536098Y-103130127D01*
X130535977Y-103131356D01*
X130535977Y-103131360D01*
X130535591Y-103135281D01*
X130535590Y-103135283D01*
X130535590Y-103135286D01*
X130534449Y-103139048D01*
X130532590Y-103142525D01*
X130530091Y-103145571D01*
X130527045Y-103148070D01*
X130523568Y-103149929D01*
X130519806Y-103151070D01*
X130519803Y-103151070D01*
X130519801Y-103151071D01*
X130515880Y-103151457D01*
X130515876Y-103151457D01*
X130514647Y-103151578D01*
X130112113Y-103151578D01*
X130110884Y-103151457D01*
X130110880Y-103151457D01*
X130106959Y-103151071D01*
X130106957Y-103151070D01*
X130106954Y-103151070D01*
X130103192Y-103149929D01*
X130099715Y-103148070D01*
X130096669Y-103145571D01*
X130094170Y-103142525D01*
X130092311Y-103139048D01*
X130091170Y-103135286D01*
X130091170Y-103135283D01*
X130091169Y-103135281D01*
X130090783Y-103131360D01*
X130090783Y-103131356D01*
X130090662Y-103130127D01*
X130090662Y-102882593D01*
X130090783Y-102881360D01*
X130091169Y-102877439D01*
X130091170Y-102877437D01*
X130091170Y-102877434D01*
X130092311Y-102873672D01*
X130094170Y-102870195D01*
X130096669Y-102867149D01*
X130099715Y-102864650D01*
X130103192Y-102862791D01*
X130106954Y-102861650D01*
X130106957Y-102861650D01*
X130106959Y-102861649D01*
X130110880Y-102861263D01*
X130110884Y-102861263D01*
X130112113Y-102861142D01*
X130334647Y-102861142D01*
X130335876Y-102861263D01*
X130335876Y-102861263D01*
G37*
G36*
X133735880Y-103101360D02*
X132495880Y-103101360D01*
X132495880Y-101261360D01*
X133735880Y-101261360D01*
X133735880Y-103101360D01*
X133735880Y-103101360D01*
G37*
G36*
X137335880Y-103101360D02*
X136095880Y-103101360D01*
X136095880Y-101261360D01*
X137335880Y-101261360D01*
X137335880Y-103101360D01*
X137335880Y-103101360D01*
G37*
G36*
X131133576Y-102693860D02*
X130765880Y-103061556D01*
X130398184Y-102693860D01*
X130765880Y-102326164D01*
X131133576Y-102693860D01*
X131133576Y-102693860D01*
G37*
G36*
X138860880Y-102938860D02*
X138220880Y-102938860D01*
X138220880Y-102398860D01*
X138860880Y-102398860D01*
X138860880Y-102938860D01*
X138860880Y-102938860D01*
G37*
G36*
X139960880Y-102938860D02*
X139320880Y-102938860D01*
X139320880Y-102398860D01*
X139960880Y-102398860D01*
X139960880Y-102938860D01*
X139960880Y-102938860D01*
G37*
G36*
X151060880Y-102838860D02*
X150345880Y-102838860D01*
X150345880Y-102548860D01*
X151060880Y-102548860D01*
X151060880Y-102838860D01*
X151060880Y-102838860D01*
G37*
G36*
X149035880Y-102838860D02*
X148320880Y-102838860D01*
X148320880Y-102548860D01*
X149035880Y-102548860D01*
X149035880Y-102838860D01*
X149035880Y-102838860D01*
G37*
G36*
X131420876Y-102236263D02*
X131420880Y-102236263D01*
X131424801Y-102236649D01*
X131424803Y-102236650D01*
X131424806Y-102236650D01*
X131428568Y-102237791D01*
X131432045Y-102239650D01*
X131435091Y-102242149D01*
X131437590Y-102245195D01*
X131439449Y-102248672D01*
X131440590Y-102252434D01*
X131440590Y-102252437D01*
X131440591Y-102252439D01*
X131440977Y-102256360D01*
X131441098Y-102257593D01*
X131441098Y-102505127D01*
X131440977Y-102506356D01*
X131440977Y-102506360D01*
X131440591Y-102510281D01*
X131440590Y-102510283D01*
X131440590Y-102510286D01*
X131439449Y-102514048D01*
X131437590Y-102517525D01*
X131435091Y-102520571D01*
X131432045Y-102523070D01*
X131428568Y-102524929D01*
X131424806Y-102526070D01*
X131424803Y-102526070D01*
X131424801Y-102526071D01*
X131420880Y-102526457D01*
X131420876Y-102526457D01*
X131419647Y-102526578D01*
X131197113Y-102526578D01*
X131195884Y-102526457D01*
X131195880Y-102526457D01*
X131191959Y-102526071D01*
X131191957Y-102526070D01*
X131191954Y-102526070D01*
X131188192Y-102524929D01*
X131185208Y-102523334D01*
X131185207Y-102523333D01*
X131184715Y-102523070D01*
X131180470Y-102519261D01*
X131179864Y-102518538D01*
X131179232Y-102517970D01*
X131001167Y-102305281D01*
X131000475Y-102304267D01*
X131000470Y-102304261D01*
X130998250Y-102301007D01*
X130996706Y-102297382D01*
X130995786Y-102292985D01*
X130995662Y-102290680D01*
X130995662Y-102257593D01*
X130995783Y-102256360D01*
X130996169Y-102252439D01*
X130996170Y-102252437D01*
X130996170Y-102252434D01*
X130997311Y-102248672D01*
X130999170Y-102245195D01*
X131001669Y-102242149D01*
X131004715Y-102239650D01*
X131008192Y-102237791D01*
X131011954Y-102236650D01*
X131011957Y-102236650D01*
X131011959Y-102236649D01*
X131015880Y-102236263D01*
X131015884Y-102236263D01*
X131017113Y-102236142D01*
X131419647Y-102236142D01*
X131420876Y-102236263D01*
X131420876Y-102236263D01*
G37*
G36*
X130515876Y-102236263D02*
X130515880Y-102236263D01*
X130519801Y-102236649D01*
X130519803Y-102236650D01*
X130519806Y-102236650D01*
X130523568Y-102237791D01*
X130527045Y-102239650D01*
X130530091Y-102242149D01*
X130532590Y-102245195D01*
X130534449Y-102248672D01*
X130535590Y-102252434D01*
X130535590Y-102252437D01*
X130535591Y-102252439D01*
X130535977Y-102256360D01*
X130536098Y-102257593D01*
X130536098Y-102290127D01*
X130535977Y-102291356D01*
X130535977Y-102291360D01*
X130535591Y-102295281D01*
X130535590Y-102295283D01*
X130535590Y-102295286D01*
X130534449Y-102299048D01*
X130532328Y-102303015D01*
X130530944Y-102304862D01*
X130352169Y-102518399D01*
X130351291Y-102519260D01*
X130351290Y-102519261D01*
X130348477Y-102522019D01*
X130345180Y-102524176D01*
X130341525Y-102525648D01*
X130335880Y-102526457D01*
X130334941Y-102526457D01*
X130334097Y-102526578D01*
X130112113Y-102526578D01*
X130110884Y-102526457D01*
X130110880Y-102526457D01*
X130106959Y-102526071D01*
X130106957Y-102526070D01*
X130106954Y-102526070D01*
X130103192Y-102524929D01*
X130099715Y-102523070D01*
X130096669Y-102520571D01*
X130094170Y-102517525D01*
X130092311Y-102514048D01*
X130091170Y-102510286D01*
X130091170Y-102510283D01*
X130091169Y-102510281D01*
X130090783Y-102506360D01*
X130090783Y-102506356D01*
X130090662Y-102505127D01*
X130090662Y-102257593D01*
X130090783Y-102256360D01*
X130091169Y-102252439D01*
X130091170Y-102252437D01*
X130091170Y-102252434D01*
X130092311Y-102248672D01*
X130094170Y-102245195D01*
X130096669Y-102242149D01*
X130099715Y-102239650D01*
X130103192Y-102237791D01*
X130106954Y-102236650D01*
X130106957Y-102236650D01*
X130106959Y-102236649D01*
X130110880Y-102236263D01*
X130110884Y-102236263D01*
X130112113Y-102236142D01*
X130514647Y-102236142D01*
X130515876Y-102236263D01*
X130515876Y-102236263D01*
G37*
G36*
X142240880Y-102438860D02*
X141670880Y-102438860D01*
X141670880Y-102198860D01*
X142240880Y-102198860D01*
X142240880Y-102438860D01*
X142240880Y-102438860D01*
G37*
G36*
X142910880Y-102438860D02*
X142340880Y-102438860D01*
X142340880Y-102198860D01*
X142910880Y-102198860D01*
X142910880Y-102438860D01*
X142910880Y-102438860D01*
G37*
G36*
X151060880Y-102338860D02*
X150345880Y-102338860D01*
X150345880Y-102048860D01*
X151060880Y-102048860D01*
X151060880Y-102338860D01*
X151060880Y-102338860D01*
G37*
G36*
X149035880Y-102338860D02*
X148320880Y-102338860D01*
X148320880Y-102048860D01*
X149035880Y-102048860D01*
X149035880Y-102338860D01*
X149035880Y-102338860D01*
G37*
G36*
X142240880Y-102088860D02*
X141670880Y-102088860D01*
X141670880Y-101848860D01*
X142240880Y-101848860D01*
X142240880Y-102088860D01*
X142240880Y-102088860D01*
G37*
G36*
X142910880Y-102088860D02*
X142340880Y-102088860D01*
X142340880Y-101848860D01*
X142910880Y-101848860D01*
X142910880Y-102088860D01*
X142910880Y-102088860D01*
G37*
G36*
X138660876Y-101586264D02*
X138660880Y-101586264D01*
X138664801Y-101586650D01*
X138664803Y-101586651D01*
X138664806Y-101586651D01*
X138668568Y-101587792D01*
X138671552Y-101589387D01*
X138671553Y-101589388D01*
X138672045Y-101589651D01*
X138676290Y-101593460D01*
X138676896Y-101594183D01*
X138677528Y-101594751D01*
X138855593Y-101807440D01*
X138856285Y-101808454D01*
X138856290Y-101808460D01*
X138857474Y-101810196D01*
X138858511Y-101811716D01*
X138860054Y-101815339D01*
X138860974Y-101819736D01*
X138861098Y-101822041D01*
X138861098Y-101855128D01*
X138860977Y-101856357D01*
X138860977Y-101856361D01*
X138860591Y-101860282D01*
X138860590Y-101860284D01*
X138860590Y-101860287D01*
X138859449Y-101864049D01*
X138857590Y-101867526D01*
X138855091Y-101870572D01*
X138852045Y-101873071D01*
X138848568Y-101874930D01*
X138844806Y-101876071D01*
X138844803Y-101876071D01*
X138844801Y-101876072D01*
X138840880Y-101876458D01*
X138840876Y-101876458D01*
X138839647Y-101876579D01*
X138437113Y-101876579D01*
X138435884Y-101876458D01*
X138435880Y-101876458D01*
X138431959Y-101876072D01*
X138431957Y-101876071D01*
X138431954Y-101876071D01*
X138428192Y-101874930D01*
X138424715Y-101873071D01*
X138421669Y-101870572D01*
X138419170Y-101867526D01*
X138417311Y-101864049D01*
X138416170Y-101860287D01*
X138416170Y-101860284D01*
X138416169Y-101860282D01*
X138415783Y-101856361D01*
X138415783Y-101856357D01*
X138415662Y-101855128D01*
X138415662Y-101607594D01*
X138415783Y-101606361D01*
X138416169Y-101602440D01*
X138416170Y-101602438D01*
X138416170Y-101602435D01*
X138417311Y-101598673D01*
X138419170Y-101595196D01*
X138421669Y-101592150D01*
X138424715Y-101589651D01*
X138428192Y-101587792D01*
X138431954Y-101586651D01*
X138431957Y-101586651D01*
X138431959Y-101586650D01*
X138435880Y-101586264D01*
X138435884Y-101586264D01*
X138437113Y-101586143D01*
X138659647Y-101586143D01*
X138660876Y-101586264D01*
X138660876Y-101586264D01*
G37*
G36*
X139745876Y-101586264D02*
X139745880Y-101586264D01*
X139749801Y-101586650D01*
X139749803Y-101586651D01*
X139749806Y-101586651D01*
X139753568Y-101587792D01*
X139757045Y-101589651D01*
X139760091Y-101592150D01*
X139762590Y-101595196D01*
X139764449Y-101598673D01*
X139765590Y-101602435D01*
X139765590Y-101602438D01*
X139765591Y-101602440D01*
X139765977Y-101606361D01*
X139766098Y-101607594D01*
X139766098Y-101855128D01*
X139765977Y-101856357D01*
X139765977Y-101856361D01*
X139765591Y-101860282D01*
X139765590Y-101860284D01*
X139765590Y-101860287D01*
X139764449Y-101864049D01*
X139762590Y-101867526D01*
X139760091Y-101870572D01*
X139757045Y-101873071D01*
X139753568Y-101874930D01*
X139749806Y-101876071D01*
X139749803Y-101876071D01*
X139749801Y-101876072D01*
X139745880Y-101876458D01*
X139745876Y-101876458D01*
X139744647Y-101876579D01*
X139342113Y-101876579D01*
X139340884Y-101876458D01*
X139340880Y-101876458D01*
X139336959Y-101876072D01*
X139336957Y-101876071D01*
X139336954Y-101876071D01*
X139333192Y-101874930D01*
X139329715Y-101873071D01*
X139326669Y-101870572D01*
X139324170Y-101867526D01*
X139322311Y-101864049D01*
X139321170Y-101860287D01*
X139321170Y-101860284D01*
X139321169Y-101860282D01*
X139320783Y-101856361D01*
X139320783Y-101856357D01*
X139320662Y-101855128D01*
X139320662Y-101822594D01*
X139320943Y-101819736D01*
X139321169Y-101817440D01*
X139321170Y-101817438D01*
X139321170Y-101817435D01*
X139322311Y-101813673D01*
X139324432Y-101809706D01*
X139325816Y-101807859D01*
X139504591Y-101594322D01*
X139508281Y-101590704D01*
X139508283Y-101590702D01*
X139511580Y-101588545D01*
X139515235Y-101587073D01*
X139520880Y-101586264D01*
X139521819Y-101586264D01*
X139522663Y-101586143D01*
X139744647Y-101586143D01*
X139745876Y-101586264D01*
X139745876Y-101586264D01*
G37*
G36*
X149085880Y-101788860D02*
X148795880Y-101788860D01*
X148795880Y-101073860D01*
X149085880Y-101073860D01*
X149085880Y-101788860D01*
X149085880Y-101788860D01*
G37*
G36*
X149585880Y-101788860D02*
X149295880Y-101788860D01*
X149295880Y-101073860D01*
X149585880Y-101073860D01*
X149585880Y-101788860D01*
X149585880Y-101788860D01*
G37*
G36*
X150085880Y-101788860D02*
X149795880Y-101788860D01*
X149795880Y-101073860D01*
X150085880Y-101073860D01*
X150085880Y-101788860D01*
X150085880Y-101788860D01*
G37*
G36*
X150585880Y-101788860D02*
X150295880Y-101788860D01*
X150295880Y-101073860D01*
X150585880Y-101073860D01*
X150585880Y-101788860D01*
X150585880Y-101788860D01*
G37*
G36*
X139458576Y-101418861D02*
X139090880Y-101786557D01*
X138723184Y-101418861D01*
X139090880Y-101051165D01*
X139458576Y-101418861D01*
X139458576Y-101418861D01*
G37*
G36*
X130535880Y-101763860D02*
X129895880Y-101763860D01*
X129895880Y-101223860D01*
X130535880Y-101223860D01*
X130535880Y-101763860D01*
X130535880Y-101763860D01*
G37*
G36*
X131635880Y-101763860D02*
X130995880Y-101763860D01*
X130995880Y-101223860D01*
X131635880Y-101223860D01*
X131635880Y-101763860D01*
X131635880Y-101763860D01*
G37*
G36*
X142910880Y-101738860D02*
X142340880Y-101738860D01*
X142340880Y-101498860D01*
X142910880Y-101498860D01*
X142910880Y-101738860D01*
X142910880Y-101738860D01*
G37*
G36*
X142240880Y-101738860D02*
X141670880Y-101738860D01*
X141670880Y-101498860D01*
X142240880Y-101498860D01*
X142240880Y-101738860D01*
X142240880Y-101738860D01*
G37*
G36*
X142910880Y-101388860D02*
X142340880Y-101388860D01*
X142340880Y-101148860D01*
X142910880Y-101148860D01*
X142910880Y-101388860D01*
X142910880Y-101388860D01*
G37*
G36*
X142240880Y-101388860D02*
X141670880Y-101388860D01*
X141670880Y-101148860D01*
X142240880Y-101148860D01*
X142240880Y-101388860D01*
X142240880Y-101388860D01*
G37*
G36*
X139745876Y-100961264D02*
X139745880Y-100961264D01*
X139749801Y-100961650D01*
X139749803Y-100961651D01*
X139749806Y-100961651D01*
X139753568Y-100962792D01*
X139757045Y-100964651D01*
X139760091Y-100967150D01*
X139762590Y-100970196D01*
X139764449Y-100973673D01*
X139765590Y-100977435D01*
X139765590Y-100977438D01*
X139765591Y-100977440D01*
X139765977Y-100981361D01*
X139766098Y-100982594D01*
X139766098Y-101230128D01*
X139765977Y-101231357D01*
X139765977Y-101231361D01*
X139765591Y-101235282D01*
X139765590Y-101235284D01*
X139765590Y-101235287D01*
X139764449Y-101239049D01*
X139762590Y-101242526D01*
X139760091Y-101245572D01*
X139757045Y-101248071D01*
X139753568Y-101249930D01*
X139749806Y-101251071D01*
X139749803Y-101251071D01*
X139749801Y-101251072D01*
X139745880Y-101251458D01*
X139745876Y-101251458D01*
X139744647Y-101251579D01*
X139522113Y-101251579D01*
X139520884Y-101251458D01*
X139520880Y-101251458D01*
X139516959Y-101251072D01*
X139516957Y-101251071D01*
X139516954Y-101251071D01*
X139513192Y-101249930D01*
X139510208Y-101248335D01*
X139510207Y-101248334D01*
X139509715Y-101248071D01*
X139505470Y-101244262D01*
X139504864Y-101243539D01*
X139504232Y-101242971D01*
X139326167Y-101030282D01*
X139325475Y-101029268D01*
X139325470Y-101029262D01*
X139323250Y-101026008D01*
X139321706Y-101022383D01*
X139320786Y-101017986D01*
X139320662Y-101015681D01*
X139320662Y-100982594D01*
X139320783Y-100981361D01*
X139321169Y-100977440D01*
X139321170Y-100977438D01*
X139321170Y-100977435D01*
X139322311Y-100973673D01*
X139324170Y-100970196D01*
X139326669Y-100967150D01*
X139329715Y-100964651D01*
X139333192Y-100962792D01*
X139336954Y-100961651D01*
X139336957Y-100961651D01*
X139336959Y-100961650D01*
X139340880Y-100961264D01*
X139340884Y-100961264D01*
X139342113Y-100961143D01*
X139744647Y-100961143D01*
X139745876Y-100961264D01*
X139745876Y-100961264D01*
G37*
G36*
X138840876Y-100961264D02*
X138840880Y-100961264D01*
X138844801Y-100961650D01*
X138844803Y-100961651D01*
X138844806Y-100961651D01*
X138848568Y-100962792D01*
X138852045Y-100964651D01*
X138855091Y-100967150D01*
X138857590Y-100970196D01*
X138859449Y-100973673D01*
X138860590Y-100977435D01*
X138860590Y-100977438D01*
X138860591Y-100977440D01*
X138860977Y-100981361D01*
X138861098Y-100982594D01*
X138861098Y-101015128D01*
X138860977Y-101016357D01*
X138860977Y-101016361D01*
X138860591Y-101020282D01*
X138860590Y-101020284D01*
X138860590Y-101020287D01*
X138859449Y-101024049D01*
X138857328Y-101028016D01*
X138855944Y-101029863D01*
X138677169Y-101243400D01*
X138676291Y-101244261D01*
X138676290Y-101244262D01*
X138673477Y-101247020D01*
X138670180Y-101249177D01*
X138666525Y-101250649D01*
X138660880Y-101251458D01*
X138659941Y-101251458D01*
X138659097Y-101251579D01*
X138437113Y-101251579D01*
X138435884Y-101251458D01*
X138435880Y-101251458D01*
X138431959Y-101251072D01*
X138431957Y-101251071D01*
X138431954Y-101251071D01*
X138428192Y-101249930D01*
X138424715Y-101248071D01*
X138421669Y-101245572D01*
X138419170Y-101242526D01*
X138417311Y-101239049D01*
X138416170Y-101235287D01*
X138416170Y-101235284D01*
X138416169Y-101235282D01*
X138415783Y-101231361D01*
X138415783Y-101231357D01*
X138415662Y-101230128D01*
X138415662Y-100982594D01*
X138415783Y-100981361D01*
X138416169Y-100977440D01*
X138416170Y-100977438D01*
X138416170Y-100977435D01*
X138417311Y-100973673D01*
X138419170Y-100970196D01*
X138421669Y-100967150D01*
X138424715Y-100964651D01*
X138428192Y-100962792D01*
X138431954Y-100961651D01*
X138431957Y-100961651D01*
X138431959Y-100961650D01*
X138435880Y-100961264D01*
X138435884Y-100961264D01*
X138437113Y-100961143D01*
X138839647Y-100961143D01*
X138840876Y-100961264D01*
X138840876Y-100961264D01*
G37*
G36*
X131385880Y-100638860D02*
X130595880Y-100638860D01*
X130595880Y-99798860D01*
X131385880Y-99798860D01*
X131385880Y-100638860D01*
X131385880Y-100638860D01*
G37*
G36*
X139960880Y-100438860D02*
X139320880Y-100438860D01*
X139320880Y-99898860D01*
X139960880Y-99898860D01*
X139960880Y-100438860D01*
X139960880Y-100438860D01*
G37*
G36*
X138860880Y-100438860D02*
X138220880Y-100438860D01*
X138220880Y-99898860D01*
X138860880Y-99898860D01*
X138860880Y-100438860D01*
X138860880Y-100438860D01*
G37*
G36*
X142510880Y-99963860D02*
X141870880Y-99963860D01*
X141870880Y-99423860D01*
X142510880Y-99423860D01*
X142510880Y-99963860D01*
X142510880Y-99963860D01*
G37*
G36*
X141410880Y-99963860D02*
X140770880Y-99963860D01*
X140770880Y-99423860D01*
X141410880Y-99423860D01*
X141410880Y-99963860D01*
X141410880Y-99963860D01*
G37*
G36*
X147510880Y-99563860D02*
X146970880Y-99563860D01*
X146970880Y-98923860D01*
X147510880Y-98923860D01*
X147510880Y-99563860D01*
X147510880Y-99563860D01*
G37*
G36*
X151270000Y-99170000D02*
X150230000Y-99170000D01*
X150230000Y-98330000D01*
X151270000Y-98330000D01*
X151270000Y-99170000D01*
X151270000Y-99170000D01*
G37*
G36*
X149770000Y-99170000D02*
X148730000Y-99170000D01*
X148730000Y-98330000D01*
X149770000Y-98330000D01*
X149770000Y-99170000D01*
X149770000Y-99170000D01*
G37*
G36*
X138110880Y-99163860D02*
X137570880Y-99163860D01*
X137570880Y-98523860D01*
X138110880Y-98523860D01*
X138110880Y-99163860D01*
X138110880Y-99163860D01*
G37*
G36*
X139010880Y-99163860D02*
X138470880Y-99163860D01*
X138470880Y-98523860D01*
X139010880Y-98523860D01*
X139010880Y-99163860D01*
X139010880Y-99163860D01*
G37*
G36*
X131385880Y-99138860D02*
X130595880Y-99138860D01*
X130595880Y-98298860D01*
X131385880Y-98298860D01*
X131385880Y-99138860D01*
X131385880Y-99138860D01*
G37*
G36*
X134735880Y-99101360D02*
X134095880Y-99101360D01*
X134095880Y-97511360D01*
X134735880Y-97511360D01*
X134735880Y-99101360D01*
X134735880Y-99101360D01*
G37*
G36*
X135735880Y-99101360D02*
X135095880Y-99101360D01*
X135095880Y-97511360D01*
X135735880Y-97511360D01*
X135735880Y-99101360D01*
X135735880Y-99101360D01*
G37*
G36*
X141260880Y-99063860D02*
X140720880Y-99063860D01*
X140720880Y-98423860D01*
X141260880Y-98423860D01*
X141260880Y-99063860D01*
X141260880Y-99063860D01*
G37*
G36*
X147510880Y-98463860D02*
X146970880Y-98463860D01*
X146970880Y-97823860D01*
X147510880Y-97823860D01*
X147510880Y-98463860D01*
X147510880Y-98463860D01*
G37*
G36*
X151270000Y-98070000D02*
X150230000Y-98070000D01*
X150230000Y-97230000D01*
X151270000Y-97230000D01*
X151270000Y-98070000D01*
X151270000Y-98070000D01*
G37*
G36*
X149770000Y-98070000D02*
X148730000Y-98070000D01*
X148730000Y-97230000D01*
X149770000Y-97230000D01*
X149770000Y-98070000D01*
X149770000Y-98070000D01*
G37*
G36*
X139010880Y-98063860D02*
X138470880Y-98063860D01*
X138470880Y-97423860D01*
X139010880Y-97423860D01*
X139010880Y-98063860D01*
X139010880Y-98063860D01*
G37*
G36*
X138110880Y-98063860D02*
X137570880Y-98063860D01*
X137570880Y-97423860D01*
X138110880Y-97423860D01*
X138110880Y-98063860D01*
X138110880Y-98063860D01*
G37*
G36*
X141260880Y-97963860D02*
X140720880Y-97963860D01*
X140720880Y-97323860D01*
X141260880Y-97323860D01*
X141260880Y-97963860D01*
X141260880Y-97963860D01*
G37*
G36*
X130535880Y-97663860D02*
X129895880Y-97663860D01*
X129895880Y-97123860D01*
X130535880Y-97123860D01*
X130535880Y-97663860D01*
X130535880Y-97663860D01*
G37*
G36*
X131635880Y-97663860D02*
X130995880Y-97663860D01*
X130995880Y-97123860D01*
X131635880Y-97123860D01*
X131635880Y-97663860D01*
X131635880Y-97663860D01*
G37*
G36*
X138110880Y-96963860D02*
X137570880Y-96963860D01*
X137570880Y-96323860D01*
X138110880Y-96323860D01*
X138110880Y-96963860D01*
X138110880Y-96963860D01*
G37*
G36*
X137210880Y-96963860D02*
X136670880Y-96963860D01*
X136670880Y-96323860D01*
X137210880Y-96323860D01*
X137210880Y-96963860D01*
X137210880Y-96963860D01*
G37*
G36*
X151110880Y-96663860D02*
X150570880Y-96663860D01*
X150570880Y-96023860D01*
X151110880Y-96023860D01*
X151110880Y-96663860D01*
X151110880Y-96663860D01*
G37*
G36*
X150160880Y-96663860D02*
X149620880Y-96663860D01*
X149620880Y-96023860D01*
X150160880Y-96023860D01*
X150160880Y-96663860D01*
X150160880Y-96663860D01*
G37*
G36*
X149210880Y-96663860D02*
X148670880Y-96663860D01*
X148670880Y-96023860D01*
X149210880Y-96023860D01*
X149210880Y-96663860D01*
X149210880Y-96663860D01*
G37*
G36*
X131360880Y-96638860D02*
X130670880Y-96638860D01*
X130670880Y-95798860D01*
X131360880Y-95798860D01*
X131360880Y-96638860D01*
X131360880Y-96638860D01*
G37*
G36*
X130510880Y-96638860D02*
X129820880Y-96638860D01*
X129820880Y-95798860D01*
X130510880Y-95798860D01*
X130510880Y-96638860D01*
X130510880Y-96638860D01*
G37*
G36*
X144337880Y-96433860D02*
X144043880Y-96433860D01*
X144043880Y-95393860D01*
X144337880Y-95393860D01*
X144337880Y-96433860D01*
X144337880Y-96433860D01*
G37*
G36*
X144837880Y-96433860D02*
X144543880Y-96433860D01*
X144543880Y-95393860D01*
X144837880Y-95393860D01*
X144837880Y-96433860D01*
X144837880Y-96433860D01*
G37*
G36*
X145337880Y-96433860D02*
X145043880Y-96433860D01*
X145043880Y-95393860D01*
X145337880Y-95393860D01*
X145337880Y-96433860D01*
X145337880Y-96433860D01*
G37*
G36*
X145837880Y-96433860D02*
X145543880Y-96433860D01*
X145543880Y-95393860D01*
X145837880Y-95393860D01*
X145837880Y-96433860D01*
X145837880Y-96433860D01*
G37*
G36*
X146337880Y-96433860D02*
X146043880Y-96433860D01*
X146043880Y-95393860D01*
X146337880Y-95393860D01*
X146337880Y-96433860D01*
X146337880Y-96433860D01*
G37*
G36*
X143337880Y-96433860D02*
X143043880Y-96433860D01*
X143043880Y-95393860D01*
X143337880Y-95393860D01*
X143337880Y-96433860D01*
X143337880Y-96433860D01*
G37*
G36*
X143837880Y-96433860D02*
X143543880Y-96433860D01*
X143543880Y-95393860D01*
X143837880Y-95393860D01*
X143837880Y-96433860D01*
X143837880Y-96433860D01*
G37*
G36*
X142837880Y-96433860D02*
X142543880Y-96433860D01*
X142543880Y-95393860D01*
X142837880Y-95393860D01*
X142837880Y-96433860D01*
X142837880Y-96433860D01*
G37*
G36*
X142337880Y-96433860D02*
X142043880Y-96433860D01*
X142043880Y-95393860D01*
X142337880Y-95393860D01*
X142337880Y-96433860D01*
X142337880Y-96433860D01*
G37*
G36*
X141837880Y-96433860D02*
X141543880Y-96433860D01*
X141543880Y-95393860D01*
X141837880Y-95393860D01*
X141837880Y-96433860D01*
X141837880Y-96433860D01*
G37*
G36*
X133835880Y-96363860D02*
X133195880Y-96363860D01*
X133195880Y-95823860D01*
X133835880Y-95823860D01*
X133835880Y-96363860D01*
X133835880Y-96363860D01*
G37*
G36*
X134935880Y-96363860D02*
X134295880Y-96363860D01*
X134295880Y-95823860D01*
X134935880Y-95823860D01*
X134935880Y-96363860D01*
X134935880Y-96363860D01*
G37*
G36*
X138110880Y-95863860D02*
X137570880Y-95863860D01*
X137570880Y-95223860D01*
X138110880Y-95223860D01*
X138110880Y-95863860D01*
X138110880Y-95863860D01*
G37*
G36*
X137210880Y-95863860D02*
X136670880Y-95863860D01*
X136670880Y-95223860D01*
X137210880Y-95223860D01*
X137210880Y-95863860D01*
X137210880Y-95863860D01*
G37*
G36*
X141155880Y-95770860D02*
X140115880Y-95770860D01*
X140115880Y-95476860D01*
X141155880Y-95476860D01*
X141155880Y-95770860D01*
X141155880Y-95770860D01*
G37*
G36*
X147765880Y-95770860D02*
X146725880Y-95770860D01*
X146725880Y-95476860D01*
X147765880Y-95476860D01*
X147765880Y-95770860D01*
X147765880Y-95770860D01*
G37*
G36*
X151110880Y-95563860D02*
X150570880Y-95563860D01*
X150570880Y-94923860D01*
X151110880Y-94923860D01*
X151110880Y-95563860D01*
X151110880Y-95563860D01*
G37*
G36*
X150160880Y-95563860D02*
X149620880Y-95563860D01*
X149620880Y-94923860D01*
X150160880Y-94923860D01*
X150160880Y-95563860D01*
X150160880Y-95563860D01*
G37*
G36*
X149210880Y-95563860D02*
X148670880Y-95563860D01*
X148670880Y-94923860D01*
X149210880Y-94923860D01*
X149210880Y-95563860D01*
X149210880Y-95563860D01*
G37*
G36*
X134810880Y-95343860D02*
X134120880Y-95343860D01*
X134120880Y-94243860D01*
X134810880Y-94243860D01*
X134810880Y-95343860D01*
X134810880Y-95343860D01*
G37*
G36*
X133860880Y-95343860D02*
X133170880Y-95343860D01*
X133170880Y-94243860D01*
X133860880Y-94243860D01*
X133860880Y-95343860D01*
X133860880Y-95343860D01*
G37*
G36*
X132910880Y-95343860D02*
X132220880Y-95343860D01*
X132220880Y-94243860D01*
X132910880Y-94243860D01*
X132910880Y-95343860D01*
X132910880Y-95343860D01*
G37*
G36*
X147765880Y-95270860D02*
X146725880Y-95270860D01*
X146725880Y-94976860D01*
X147765880Y-94976860D01*
X147765880Y-95270860D01*
X147765880Y-95270860D01*
G37*
G36*
X141155880Y-95270860D02*
X140115880Y-95270860D01*
X140115880Y-94976860D01*
X141155880Y-94976860D01*
X141155880Y-95270860D01*
X141155880Y-95270860D01*
G37*
G36*
X131360880Y-95138860D02*
X130670880Y-95138860D01*
X130670880Y-94298860D01*
X131360880Y-94298860D01*
X131360880Y-95138860D01*
X131360880Y-95138860D01*
G37*
G36*
X130510880Y-95138860D02*
X129820880Y-95138860D01*
X129820880Y-94298860D01*
X130510880Y-94298860D01*
X130510880Y-95138860D01*
X130510880Y-95138860D01*
G37*
G36*
X147765880Y-94770860D02*
X146725880Y-94770860D01*
X146725880Y-94476860D01*
X147765880Y-94476860D01*
X147765880Y-94770860D01*
X147765880Y-94770860D01*
G37*
G36*
X141155880Y-94770860D02*
X140115880Y-94770860D01*
X140115880Y-94476860D01*
X141155880Y-94476860D01*
X141155880Y-94770860D01*
X141155880Y-94770860D01*
G37*
G36*
X138170880Y-94663860D02*
X137530880Y-94663860D01*
X137530880Y-94123860D01*
X138170880Y-94123860D01*
X138170880Y-94663860D01*
X138170880Y-94663860D01*
G37*
G36*
X139270880Y-94663860D02*
X138630880Y-94663860D01*
X138630880Y-94123860D01*
X139270880Y-94123860D01*
X139270880Y-94663860D01*
X139270880Y-94663860D01*
G37*
G36*
X145710880Y-94503860D02*
X144170880Y-94503860D01*
X144170880Y-92963860D01*
X145710880Y-92963860D01*
X145710880Y-94503860D01*
X145710880Y-94503860D01*
G37*
G36*
X143710880Y-94503860D02*
X142170880Y-94503860D01*
X142170880Y-92963860D01*
X143710880Y-92963860D01*
X143710880Y-94503860D01*
X143710880Y-94503860D01*
G37*
G36*
X141155880Y-94270860D02*
X140115880Y-94270860D01*
X140115880Y-93976860D01*
X141155880Y-93976860D01*
X141155880Y-94270860D01*
X141155880Y-94270860D01*
G37*
G36*
X147765880Y-94270860D02*
X146725880Y-94270860D01*
X146725880Y-93976860D01*
X147765880Y-93976860D01*
X147765880Y-94270860D01*
X147765880Y-94270860D01*
G37*
G36*
X147765880Y-93770860D02*
X146725880Y-93770860D01*
X146725880Y-93476860D01*
X147765880Y-93476860D01*
X147765880Y-93770860D01*
X147765880Y-93770860D01*
G37*
G36*
X141155880Y-93770860D02*
X140115880Y-93770860D01*
X140115880Y-93476860D01*
X141155880Y-93476860D01*
X141155880Y-93770860D01*
X141155880Y-93770860D01*
G37*
G36*
X138160880Y-93763860D02*
X137520880Y-93763860D01*
X137520880Y-93223860D01*
X138160880Y-93223860D01*
X138160880Y-93763860D01*
X138160880Y-93763860D01*
G37*
G36*
X139260880Y-93763860D02*
X138620880Y-93763860D01*
X138620880Y-93223860D01*
X139260880Y-93223860D01*
X139260880Y-93763860D01*
X139260880Y-93763860D01*
G37*
G36*
X130535880Y-93663860D02*
X129895880Y-93663860D01*
X129895880Y-93123860D01*
X130535880Y-93123860D01*
X130535880Y-93663860D01*
X130535880Y-93663860D01*
G37*
G36*
X131635880Y-93663860D02*
X130995880Y-93663860D01*
X130995880Y-93123860D01*
X131635880Y-93123860D01*
X131635880Y-93663860D01*
X131635880Y-93663860D01*
G37*
G36*
X147765880Y-93270860D02*
X146725880Y-93270860D01*
X146725880Y-92976860D01*
X147765880Y-92976860D01*
X147765880Y-93270860D01*
X147765880Y-93270860D01*
G37*
G36*
X141155880Y-93270860D02*
X140115880Y-93270860D01*
X140115880Y-92976860D01*
X141155880Y-92976860D01*
X141155880Y-93270860D01*
X141155880Y-93270860D01*
G37*
G36*
X134810880Y-93143860D02*
X134120880Y-93143860D01*
X134120880Y-92043860D01*
X134810880Y-92043860D01*
X134810880Y-93143860D01*
X134810880Y-93143860D01*
G37*
G36*
X132910880Y-93143860D02*
X132220880Y-93143860D01*
X132220880Y-92043860D01*
X132910880Y-92043860D01*
X132910880Y-93143860D01*
X132910880Y-93143860D01*
G37*
G36*
X138180880Y-92863860D02*
X137540880Y-92863860D01*
X137540880Y-92323860D01*
X138180880Y-92323860D01*
X138180880Y-92863860D01*
X138180880Y-92863860D01*
G37*
G36*
X139280880Y-92863860D02*
X138640880Y-92863860D01*
X138640880Y-92323860D01*
X139280880Y-92323860D01*
X139280880Y-92863860D01*
X139280880Y-92863860D01*
G37*
G36*
X147765880Y-92770860D02*
X146725880Y-92770860D01*
X146725880Y-92476860D01*
X147765880Y-92476860D01*
X147765880Y-92770860D01*
X147765880Y-92770860D01*
G37*
G36*
X141155880Y-92770860D02*
X140115880Y-92770860D01*
X140115880Y-92476860D01*
X141155880Y-92476860D01*
X141155880Y-92770860D01*
X141155880Y-92770860D01*
G37*
G36*
X131635880Y-92763860D02*
X130995880Y-92763860D01*
X130995880Y-92223860D01*
X131635880Y-92223860D01*
X131635880Y-92763860D01*
X131635880Y-92763860D01*
G37*
G36*
X130535880Y-92763860D02*
X129895880Y-92763860D01*
X129895880Y-92223860D01*
X130535880Y-92223860D01*
X130535880Y-92763860D01*
X130535880Y-92763860D01*
G37*
G36*
X145710880Y-92383860D02*
X144170880Y-92383860D01*
X144170880Y-90843860D01*
X145710880Y-90843860D01*
X145710880Y-92383860D01*
X145710880Y-92383860D01*
G37*
G36*
X143705880Y-91278860D02*
X143706360Y-91283737D01*
X143707783Y-91288427D01*
X143710093Y-91292749D01*
X143710880Y-91293708D01*
X143710880Y-92353860D01*
X142170880Y-92353860D01*
X142170880Y-91383860D01*
X142170400Y-91378983D01*
X142168977Y-91374293D01*
X142166667Y-91369971D01*
X142163558Y-91366182D01*
X142159769Y-91363073D01*
X142155447Y-91360763D01*
X142150757Y-91359340D01*
X142145880Y-91358860D01*
X142137596Y-91358860D01*
X142163558Y-91332898D01*
X142166667Y-91329109D01*
X142168977Y-91324787D01*
X142170400Y-91320097D01*
X142170880Y-91315220D01*
X142170880Y-91303860D01*
X142182240Y-91303860D01*
X142187117Y-91303380D01*
X142191807Y-91301957D01*
X142196129Y-91299647D01*
X142199918Y-91296538D01*
X142647596Y-90848860D01*
X143705880Y-90848860D01*
X143705880Y-91278860D01*
X143705880Y-91278860D01*
G37*
G36*
X147765880Y-92270860D02*
X146725880Y-92270860D01*
X146725880Y-91976860D01*
X147765880Y-91976860D01*
X147765880Y-92270860D01*
X147765880Y-92270860D01*
G37*
G36*
X141155880Y-92270860D02*
X140115880Y-92270860D01*
X140115880Y-91976860D01*
X141155880Y-91976860D01*
X141155880Y-92270860D01*
X141155880Y-92270860D01*
G37*
G36*
X147765880Y-91770860D02*
X146725880Y-91770860D01*
X146725880Y-91476860D01*
X147765880Y-91476860D01*
X147765880Y-91770860D01*
X147765880Y-91770860D01*
G37*
G36*
X141155880Y-91770860D02*
X140115880Y-91770860D01*
X140115880Y-91476860D01*
X141155880Y-91476860D01*
X141155880Y-91770860D01*
X141155880Y-91770860D01*
G37*
G36*
X134204220Y-91315647D02*
X133764220Y-91315647D01*
X133764220Y-89925647D01*
X134204220Y-89925647D01*
X134204220Y-91315647D01*
X134204220Y-91315647D01*
G37*
G36*
X131604220Y-91315647D02*
X131164220Y-91315647D01*
X131164220Y-89925647D01*
X131604220Y-89925647D01*
X131604220Y-91315647D01*
X131604220Y-91315647D01*
G37*
G36*
X132254220Y-91315647D02*
X131814220Y-91315647D01*
X131814220Y-89925647D01*
X132254220Y-89925647D01*
X132254220Y-91315647D01*
X132254220Y-91315647D01*
G37*
G36*
X132904220Y-91315647D02*
X132464220Y-91315647D01*
X132464220Y-89925647D01*
X132904220Y-89925647D01*
X132904220Y-91315647D01*
X132904220Y-91315647D01*
G37*
G36*
X133554220Y-91315647D02*
X133114220Y-91315647D01*
X133114220Y-89925647D01*
X133554220Y-89925647D01*
X133554220Y-91315647D01*
X133554220Y-91315647D01*
G37*
G36*
X147765880Y-91270860D02*
X146725880Y-91270860D01*
X146725880Y-90976860D01*
X147765880Y-90976860D01*
X147765880Y-91270860D01*
X147765880Y-91270860D01*
G37*
G36*
X141155880Y-91270860D02*
X140115880Y-91270860D01*
X140115880Y-90976860D01*
X141155880Y-90976860D01*
X141155880Y-91270860D01*
X141155880Y-91270860D01*
G37*
G36*
X136704220Y-91115647D02*
X135064220Y-91115647D01*
X135064220Y-89675647D01*
X136704220Y-89675647D01*
X136704220Y-91115647D01*
X136704220Y-91115647D01*
G37*
G36*
X130304220Y-91115647D02*
X128664220Y-91115647D01*
X128664220Y-89675647D01*
X130304220Y-89675647D01*
X130304220Y-91115647D01*
X130304220Y-91115647D01*
G37*
G36*
X139210880Y-90963860D02*
X138570880Y-90963860D01*
X138570880Y-90423860D01*
X139210880Y-90423860D01*
X139210880Y-90963860D01*
X139210880Y-90963860D01*
G37*
G36*
X138110880Y-90963860D02*
X137470880Y-90963860D01*
X137470880Y-90423860D01*
X138110880Y-90423860D01*
X138110880Y-90963860D01*
X138110880Y-90963860D01*
G37*
G36*
X147765880Y-90770860D02*
X146725880Y-90770860D01*
X146725880Y-90476860D01*
X147765880Y-90476860D01*
X147765880Y-90770860D01*
X147765880Y-90770860D01*
G37*
G36*
X141155880Y-90770860D02*
X140115880Y-90770860D01*
X140115880Y-90476860D01*
X141155880Y-90476860D01*
X141155880Y-90770860D01*
X141155880Y-90770860D01*
G37*
G36*
X147765880Y-90270860D02*
X146725880Y-90270860D01*
X146725880Y-89976860D01*
X147765880Y-89976860D01*
X147765880Y-90270860D01*
X147765880Y-90270860D01*
G37*
G36*
X141155880Y-90270860D02*
X140115880Y-90270860D01*
X140115880Y-89976860D01*
X141155880Y-89976860D01*
X141155880Y-90270860D01*
X141155880Y-90270860D01*
G37*
G36*
X138110880Y-90063860D02*
X137470880Y-90063860D01*
X137470880Y-89523860D01*
X138110880Y-89523860D01*
X138110880Y-90063860D01*
X138110880Y-90063860D01*
G37*
G36*
X139210880Y-90063860D02*
X138570880Y-90063860D01*
X138570880Y-89523860D01*
X139210880Y-89523860D01*
X139210880Y-90063860D01*
X139210880Y-90063860D01*
G37*
G36*
X141155880Y-89770860D02*
X140115880Y-89770860D01*
X140115880Y-89476860D01*
X141155880Y-89476860D01*
X141155880Y-89770860D01*
X141155880Y-89770860D01*
G37*
G36*
X141155880Y-89270860D02*
X140115880Y-89270860D01*
X140115880Y-88976860D01*
X141155880Y-88976860D01*
X141155880Y-89270860D01*
X141155880Y-89270860D01*
G37*
G36*
X138110880Y-89163860D02*
X137470880Y-89163860D01*
X137470880Y-88623860D01*
X138110880Y-88623860D01*
X138110880Y-89163860D01*
X138110880Y-89163860D01*
G37*
G36*
X139210880Y-89163860D02*
X138570880Y-89163860D01*
X138570880Y-88623860D01*
X139210880Y-88623860D01*
X139210880Y-89163860D01*
X139210880Y-89163860D01*
G37*
G36*
X126281880Y-89107860D02*
X125241880Y-89107860D01*
X125241880Y-87467860D01*
X126281880Y-87467860D01*
X126281880Y-89107860D01*
X126281880Y-89107860D01*
G37*
G36*
X123281880Y-89107860D02*
X122241880Y-89107860D01*
X122241880Y-87467860D01*
X123281880Y-87467860D01*
X123281880Y-89107860D01*
X123281880Y-89107860D01*
G37*
G36*
X158412880Y-89107860D02*
X157372880Y-89107860D01*
X157372880Y-87467860D01*
X158412880Y-87467860D01*
X158412880Y-89107860D01*
X158412880Y-89107860D01*
G37*
G36*
X155412880Y-89107860D02*
X154372880Y-89107860D01*
X154372880Y-87467860D01*
X155412880Y-87467860D01*
X155412880Y-89107860D01*
X155412880Y-89107860D01*
G37*
G36*
X134854220Y-88915647D02*
X132914220Y-88915647D01*
X132914220Y-86975647D01*
X134854220Y-86975647D01*
X134854220Y-88915647D01*
X134854220Y-88915647D01*
G37*
G36*
X132454220Y-88915647D02*
X130514220Y-88915647D01*
X130514220Y-86975647D01*
X132454220Y-86975647D01*
X132454220Y-88915647D01*
X132454220Y-88915647D01*
G37*
G36*
X141155880Y-88770860D02*
X140115880Y-88770860D01*
X140115880Y-88476860D01*
X141155880Y-88476860D01*
X141155880Y-88770860D01*
X141155880Y-88770860D01*
G37*
G36*
X136125365Y-87236066D02*
X136261085Y-87277236D01*
X136386166Y-87344093D01*
X136495800Y-87434067D01*
X136585774Y-87543701D01*
X136652631Y-87668782D01*
X136693801Y-87804502D01*
X136707703Y-87945647D01*
X136693801Y-88086792D01*
X136652631Y-88222512D01*
X136585774Y-88347593D01*
X136495800Y-88457227D01*
X136386166Y-88547201D01*
X136261085Y-88614058D01*
X136125365Y-88655228D01*
X136019582Y-88665647D01*
X135948858Y-88665647D01*
X135843075Y-88655228D01*
X135707355Y-88614058D01*
X135582274Y-88547201D01*
X135472640Y-88457227D01*
X135382666Y-88347593D01*
X135315809Y-88222512D01*
X135274639Y-88086792D01*
X135260737Y-87945647D01*
X135274639Y-87804502D01*
X135315809Y-87668782D01*
X135382666Y-87543701D01*
X135472640Y-87434067D01*
X135582274Y-87344093D01*
X135707355Y-87277236D01*
X135843075Y-87236066D01*
X135948858Y-87225647D01*
X136019582Y-87225647D01*
X136125365Y-87236066D01*
X136125365Y-87236066D01*
G37*
G36*
X129525365Y-87236066D02*
X129661085Y-87277236D01*
X129786166Y-87344093D01*
X129895800Y-87434067D01*
X129985774Y-87543701D01*
X130052631Y-87668782D01*
X130093801Y-87804502D01*
X130107703Y-87945647D01*
X130093801Y-88086792D01*
X130052631Y-88222512D01*
X129985774Y-88347593D01*
X129895800Y-88457227D01*
X129786166Y-88547201D01*
X129661085Y-88614058D01*
X129525365Y-88655228D01*
X129419582Y-88665647D01*
X129348858Y-88665647D01*
X129243075Y-88655228D01*
X129107355Y-88614058D01*
X128982274Y-88547201D01*
X128872640Y-88457227D01*
X128782666Y-88347593D01*
X128715809Y-88222512D01*
X128674639Y-88086792D01*
X128660737Y-87945647D01*
X128674639Y-87804502D01*
X128715809Y-87668782D01*
X128782666Y-87543701D01*
X128872640Y-87434067D01*
X128982274Y-87344093D01*
X129107355Y-87277236D01*
X129243075Y-87236066D01*
X129348858Y-87225647D01*
X129419582Y-87225647D01*
X129525365Y-87236066D01*
X129525365Y-87236066D01*
G37*
G36*
X141155880Y-88270860D02*
X140115880Y-88270860D01*
X140115880Y-87976860D01*
X141155880Y-87976860D01*
X141155880Y-88270860D01*
X141155880Y-88270860D01*
G37*
G36*
X138110880Y-88263860D02*
X137470880Y-88263860D01*
X137470880Y-87723860D01*
X138110880Y-87723860D01*
X138110880Y-88263860D01*
X138110880Y-88263860D01*
G37*
G36*
X139210880Y-88263860D02*
X138570880Y-88263860D01*
X138570880Y-87723860D01*
X139210880Y-87723860D01*
X139210880Y-88263860D01*
X139210880Y-88263860D01*
G37*
G36*
X141155880Y-87770860D02*
X140115880Y-87770860D01*
X140115880Y-87476860D01*
X141155880Y-87476860D01*
X141155880Y-87770860D01*
X141155880Y-87770860D01*
G37*
G36*
X141155880Y-87270860D02*
X140115880Y-87270860D01*
X140115880Y-86976860D01*
X141155880Y-86976860D01*
X141155880Y-87270860D01*
X141155880Y-87270860D01*
G37*
G36*
X141155880Y-86770860D02*
X140115880Y-86770860D01*
X140115880Y-86476860D01*
X141155880Y-86476860D01*
X141155880Y-86770860D01*
X141155880Y-86770860D01*
G37*
M02*
