M48
;DRILL file {KiCad (5.0.1-3-g963ef8bb5)} date Monday, June 17, 2019 at 11:31:25 AM
;FORMAT={-:-/ absolute / inch / decimal}
FMAT,2
INCH,TZ
T1C0.0157
T2C0.0394
%
G90
G05
M72
T1
X4.8323Y-3.4761
X4.8323Y-4.2557
X4.9504Y-3.4761
X4.9504Y-4.2557
X5.0912Y-3.7301
X5.1985Y-3.9446
X5.2181Y-3.6887
X5.2181Y-3.8334
X5.2496Y-4.1061
X5.3313Y-3.919
X5.3353Y-3.6454
X5.3559Y-3.7635
X5.3914Y-3.9171
X5.3924Y-3.9574
X5.4406Y-3.6061
X5.475Y-4.0785
X5.478Y-4.3068
X5.4852Y-3.7639
X5.4976Y-3.5312
X5.5518Y-4.0007
X5.5518Y-4.0372
X5.5646Y-4.1513
X5.5902Y-3.862
X5.6168Y-3.9594
X5.6453Y-4.0372
X5.6552Y-3.9673
X5.6678Y-3.65
X5.6779Y-4.0289
X5.6827Y-3.9978
X5.7162Y-3.8403
X5.7516Y-3.8206
X5.7537Y-3.5523
X5.7851Y-4.0293
X5.7971Y-3.8038
X5.8166Y-3.9525
X5.8166Y-4.0628
X5.8402Y-4.2399
X5.8402Y-3.6139
X5.8717Y-3.6769
X5.8914Y-4.1376
X5.9041Y-3.9486
X5.9052Y-3.6021
X5.9347Y-3.9328
X5.9426Y-4.2399
X5.9465Y-4.1257
X5.9583Y-3.6454
X5.9683Y-4.0234
X5.9701Y-4.0706
X5.9843Y-3.5906
X6.1Y-3.4761
X6.104Y-4.2557
X6.2181Y-3.4761
X6.2221Y-4.2557
T2
X5.0939Y-3.4624
X5.3537Y-3.4624
T0
M30
