G04 #@! TF.GenerationSoftware,KiCad,Pcbnew,(5.0.1-3-g963ef8bb5)*
G04 #@! TF.CreationDate,2019-06-21T09:31:58-10:00*
G04 #@! TF.ProjectId,OpenHAK_03,4F70656E48414B5F30332E6B69636164,rev?*
G04 #@! TF.SameCoordinates,Original*
G04 #@! TF.FileFunction,Copper,L1,Top,Signal*
G04 #@! TF.FilePolarity,Positive*
%FSLAX46Y46*%
G04 Gerber Fmt 4.6, Leading zero omitted, Abs format (unit mm)*
G04 Created by KiCad (PCBNEW (5.0.1-3-g963ef8bb5)) date Friday, June 21, 2019 at 09:31:58 AM*
%MOMM*%
%LPD*%
G01*
G04 APERTURE LIST*
G04 #@! TA.AperFunction,SMDPad,CuDef*
%ADD10R,0.530000X0.200000*%
G04 #@! TD*
G04 #@! TA.AperFunction,SMDPad,CuDef*
%ADD11R,0.675000X0.250000*%
G04 #@! TD*
G04 #@! TA.AperFunction,SMDPad,CuDef*
%ADD12R,0.250000X0.675000*%
G04 #@! TD*
G04 #@! TA.AperFunction,SMDPad,CuDef*
%ADD13R,0.600000X0.500000*%
G04 #@! TD*
G04 #@! TA.AperFunction,SMDPad,CuDef*
%ADD14C,0.010000*%
G04 #@! TD*
G04 #@! TA.AperFunction,Conductor*
%ADD15C,0.100000*%
G04 #@! TD*
G04 #@! TA.AperFunction,SMDPad,CuDef*
%ADD16C,0.480000*%
G04 #@! TD*
G04 #@! TA.AperFunction,SMDPad,CuDef*
%ADD17R,0.450000X0.700000*%
G04 #@! TD*
G04 #@! TA.AperFunction,SMDPad,CuDef*
%ADD18R,0.500000X0.600000*%
G04 #@! TD*
G04 #@! TA.AperFunction,SMDPad,CuDef*
%ADD19R,1.010000X0.490000*%
G04 #@! TD*
G04 #@! TA.AperFunction,SMDPad,CuDef*
%ADD20C,0.339410*%
G04 #@! TD*
G04 #@! TA.AperFunction,SMDPad,CuDef*
%ADD21R,1.500000X1.500000*%
G04 #@! TD*
G04 #@! TA.AperFunction,SMDPad,CuDef*
%ADD22R,1.500000X1.010000*%
G04 #@! TD*
G04 #@! TA.AperFunction,SMDPad,CuDef*
%ADD23R,1.000000X0.254000*%
G04 #@! TD*
G04 #@! TA.AperFunction,SMDPad,CuDef*
%ADD24R,0.254000X1.000000*%
G04 #@! TD*
G04 #@! TA.AperFunction,SMDPad,CuDef*
%ADD25R,1.000000X1.600000*%
G04 #@! TD*
G04 #@! TA.AperFunction,SMDPad,CuDef*
%ADD26R,0.750000X0.800000*%
G04 #@! TD*
G04 #@! TA.AperFunction,SMDPad,CuDef*
%ADD27R,0.650000X0.800000*%
G04 #@! TD*
G04 #@! TA.AperFunction,SMDPad,CuDef*
%ADD28R,0.650000X1.060000*%
G04 #@! TD*
G04 #@! TA.AperFunction,ComponentPad*
%ADD29O,1.400000X1.400000*%
G04 #@! TD*
G04 #@! TA.AperFunction,SMDPad,CuDef*
%ADD30R,1.900000X1.900000*%
G04 #@! TD*
G04 #@! TA.AperFunction,SMDPad,CuDef*
%ADD31R,1.600000X1.400000*%
G04 #@! TD*
G04 #@! TA.AperFunction,SMDPad,CuDef*
%ADD32R,0.400000X1.350000*%
G04 #@! TD*
G04 #@! TA.AperFunction,SMDPad,CuDef*
%ADD33R,1.000000X0.800000*%
G04 #@! TD*
G04 #@! TA.AperFunction,SMDPad,CuDef*
%ADD34R,0.600000X1.550000*%
G04 #@! TD*
G04 #@! TA.AperFunction,SMDPad,CuDef*
%ADD35R,1.200000X1.800000*%
G04 #@! TD*
G04 #@! TA.AperFunction,SMDPad,CuDef*
%ADD36R,0.740000X1.700000*%
G04 #@! TD*
G04 #@! TA.AperFunction,ViaPad*
%ADD37C,0.600000*%
G04 #@! TD*
G04 #@! TA.AperFunction,Conductor*
%ADD38C,0.203200*%
G04 #@! TD*
G04 #@! TA.AperFunction,Conductor*
%ADD39C,0.381000*%
G04 #@! TD*
G04 #@! TA.AperFunction,Conductor*
%ADD40C,0.250000*%
G04 #@! TD*
G04 #@! TA.AperFunction,Conductor*
%ADD41C,0.200000*%
G04 #@! TD*
G04 #@! TA.AperFunction,Conductor*
%ADD42C,0.254000*%
G04 #@! TD*
G04 APERTURE END LIST*
D10*
G04 #@! TO.P,U7,1*
G04 #@! TO.N,+1V8*
X141955880Y-101268860D03*
G04 #@! TO.P,U7,2*
G04 #@! TO.N,/1V8_SDA*
X141955880Y-101618860D03*
G04 #@! TO.P,U7,3*
G04 #@! TO.N,/1V8_SCL*
X141955880Y-101968860D03*
G04 #@! TO.P,U7,4*
G04 #@! TO.N,GND*
X141955880Y-102318860D03*
G04 #@! TO.P,U7,5*
G04 #@! TO.N,+1V8*
X142625880Y-102318860D03*
G04 #@! TO.P,U7,6*
G04 #@! TO.N,/3V3_SCL*
X142625880Y-101968860D03*
G04 #@! TO.P,U7,7*
G04 #@! TO.N,/3V3_SDA*
X142625880Y-101618860D03*
G04 #@! TO.P,U7,8*
G04 #@! TO.N,VDD*
X142625880Y-101268860D03*
G04 #@! TD*
D11*
G04 #@! TO.P,U4,13*
G04 #@! TO.N,/3V3_SCL*
X148678380Y-101893860D03*
D12*
G04 #@! TO.P,U4,1*
G04 #@! TO.N,GND*
X148940880Y-103156360D03*
G04 #@! TO.P,U4,2*
G04 #@! TO.N,Net-(U4-Pad2)*
X149440880Y-103156360D03*
G04 #@! TO.P,U4,3*
G04 #@! TO.N,Net-(U4-Pad3)*
X149940880Y-103156360D03*
G04 #@! TO.P,U4,4*
G04 #@! TO.N,/BMI_INT1*
X150440880Y-103156360D03*
G04 #@! TO.P,U4,8*
G04 #@! TO.N,VDD*
X150440880Y-100631360D03*
G04 #@! TO.P,U4,9*
G04 #@! TO.N,/BMI_INT2*
X149940880Y-100631360D03*
G04 #@! TO.P,U4,10*
G04 #@! TO.N,Net-(U4-Pad10)*
X149440880Y-100631360D03*
G04 #@! TO.P,U4,11*
G04 #@! TO.N,Net-(U4-Pad11)*
X148940880Y-100631360D03*
D11*
G04 #@! TO.P,U4,14*
G04 #@! TO.N,/3V3_SDA*
X148678380Y-102393860D03*
G04 #@! TO.P,U4,12*
G04 #@! TO.N,VDD*
X148678380Y-101393860D03*
G04 #@! TO.P,U4,7*
G04 #@! TO.N,GND*
X150703380Y-101393860D03*
G04 #@! TO.P,U4,6*
X150703380Y-101893860D03*
G04 #@! TO.P,U4,5*
G04 #@! TO.N,VDD*
X150703380Y-102393860D03*
G04 #@! TD*
D13*
G04 #@! TO.P,C12,2*
G04 #@! TO.N,VPP*
X130215880Y-101493860D03*
G04 #@! TO.P,C12,1*
G04 #@! TO.N,GND*
X131315880Y-101493860D03*
G04 #@! TD*
D14*
G04 #@! TO.P,U6,1*
G04 #@! TO.N,VDD*
X131415880Y-103006360D03*
D15*
G04 #@! TD*
G04 #@! TO.N,VDD*
G04 #@! TO.C,U6*
G36*
X131195880Y-102881360D02*
X131420880Y-102881360D01*
X131420880Y-103131360D01*
X131015880Y-103131360D01*
X131015880Y-103096360D01*
X131195880Y-102881360D01*
X131195880Y-102881360D01*
G37*
D14*
G04 #@! TO.P,U6,3*
G04 #@! TO.N,/EN*
X130115880Y-102381360D03*
D15*
G04 #@! TD*
G04 #@! TO.N,/EN*
G04 #@! TO.C,U6*
G36*
X130335880Y-102506360D02*
X130110880Y-102506360D01*
X130110880Y-102256360D01*
X130515880Y-102256360D01*
X130515880Y-102291360D01*
X130335880Y-102506360D01*
X130335880Y-102506360D01*
G37*
D14*
G04 #@! TO.P,U6,2*
G04 #@! TO.N,GND*
X131415880Y-102381360D03*
D15*
G04 #@! TD*
G04 #@! TO.N,GND*
G04 #@! TO.C,U6*
G36*
X131420880Y-102256360D02*
X131420880Y-102506360D01*
X131195880Y-102506360D01*
X131015880Y-102291360D01*
X131015880Y-102256360D01*
X131420880Y-102256360D01*
X131420880Y-102256360D01*
G37*
D14*
G04 #@! TO.P,U6,4*
G04 #@! TO.N,VPP*
X130115880Y-103006360D03*
D15*
G04 #@! TD*
G04 #@! TO.N,VPP*
G04 #@! TO.C,U6*
G36*
X130110880Y-103131360D02*
X130110880Y-102881360D01*
X130335880Y-102881360D01*
X130515880Y-103096360D01*
X130515880Y-103131360D01*
X130110880Y-103131360D01*
X130110880Y-103131360D01*
G37*
D16*
G04 #@! TO.P,U6,5*
G04 #@! TO.N,GND*
X130765880Y-102693860D03*
D15*
G04 #@! TD*
G04 #@! TO.N,GND*
G04 #@! TO.C,U6*
G36*
X131105291Y-102693860D02*
X130765880Y-103033271D01*
X130426469Y-102693860D01*
X130765880Y-102354449D01*
X131105291Y-102693860D01*
X131105291Y-102693860D01*
G37*
D17*
G04 #@! TO.P,U8,3*
G04 #@! TO.N,VPP*
X130615880Y-107393860D03*
G04 #@! TO.P,U8,2*
G04 #@! TO.N,/EN*
X129965880Y-105393860D03*
G04 #@! TO.P,U8,1*
G04 #@! TO.N,GND*
X131265880Y-105393860D03*
G04 #@! TD*
D18*
G04 #@! TO.P,C7,1*
G04 #@! TO.N,GND*
X140090880Y-98743860D03*
G04 #@! TO.P,C7,2*
G04 #@! TO.N,+1V8*
X140090880Y-97643860D03*
G04 #@! TD*
D13*
G04 #@! TO.P,C8,2*
G04 #@! TO.N,VDD*
X139640880Y-102668860D03*
G04 #@! TO.P,C8,1*
G04 #@! TO.N,GND*
X138540880Y-102668860D03*
G04 #@! TD*
D19*
G04 #@! TO.P,U1,42*
G04 #@! TO.N,GND*
X143180880Y-91113860D03*
D20*
X142660880Y-91103860D03*
D15*
G04 #@! TD*
G04 #@! TO.N,GND*
G04 #@! TO.C,U1*
G36*
X142185880Y-91338860D02*
X142655880Y-90868860D01*
X142665880Y-90868860D01*
X143135880Y-91338860D01*
X142185880Y-91338860D01*
X142185880Y-91338860D01*
G37*
D21*
G04 #@! TO.P,U1,45*
G04 #@! TO.N,GND*
X144940880Y-91613860D03*
G04 #@! TO.P,U1,44*
X144940880Y-93733860D03*
G04 #@! TO.P,U1,43*
X142940880Y-93733860D03*
D22*
G04 #@! TO.P,U1,42*
X142940880Y-91828860D03*
D23*
G04 #@! TO.P,U1,41*
G04 #@! TO.N,/MAX_INT*
X147245880Y-90123860D03*
G04 #@! TO.P,U1,40*
G04 #@! TO.N,/BMI_INT1*
X147245880Y-90623860D03*
G04 #@! TO.P,U1,39*
G04 #@! TO.N,/BMI_INT2*
X147245880Y-91123860D03*
G04 #@! TO.P,U1,38*
G04 #@! TO.N,/PIN_25*
X147245880Y-91623860D03*
G04 #@! TO.P,U1,37*
G04 #@! TO.N,Net-(U1-Pad37)*
X147245880Y-92123860D03*
G04 #@! TO.P,U1,36*
G04 #@! TO.N,Net-(U1-Pad36)*
X147245880Y-92623860D03*
G04 #@! TO.P,U1,35*
G04 #@! TO.N,/R_LED*
X147245880Y-93123860D03*
G04 #@! TO.P,U1,34*
G04 #@! TO.N,/G_LED*
X147245880Y-93623860D03*
G04 #@! TO.P,U1,33*
G04 #@! TO.N,/B_LED*
X147245880Y-94123860D03*
G04 #@! TO.P,U1,32*
G04 #@! TO.N,Net-(U1-Pad32)*
X147245880Y-94623860D03*
G04 #@! TO.P,U1,31*
G04 #@! TO.N,Net-(U1-Pad31)*
X147245880Y-95123860D03*
G04 #@! TO.P,U1,30*
G04 #@! TO.N,GND*
X147245880Y-95623860D03*
D24*
G04 #@! TO.P,U1,29*
G04 #@! TO.N,Net-(U1-Pad29)*
X146190880Y-95913860D03*
G04 #@! TO.P,U1,28*
G04 #@! TO.N,/3V3_SCL*
X145690880Y-95913860D03*
G04 #@! TO.P,U1,27*
G04 #@! TO.N,/3V3_SDA*
X145190880Y-95913860D03*
G04 #@! TO.P,U1,26*
G04 #@! TO.N,Net-(U1-Pad26)*
X144690880Y-95913860D03*
G04 #@! TO.P,U1,25*
G04 #@! TO.N,/SIM_RX*
X144190880Y-95913860D03*
G04 #@! TO.P,U1,24*
G04 #@! TO.N,/PIN_2*
X143690880Y-95913860D03*
G04 #@! TO.P,U1,23*
G04 #@! TO.N,/SIM_TX*
X143190880Y-95913860D03*
G04 #@! TO.P,U1,22*
G04 #@! TO.N,/PIN_3*
X142690880Y-95913860D03*
G04 #@! TO.P,U1,21*
G04 #@! TO.N,/V_SENSE*
X142190880Y-95913860D03*
G04 #@! TO.P,U1,20*
G04 #@! TO.N,Net-(U1-Pad20)*
X141690880Y-95913860D03*
D23*
G04 #@! TO.P,U1,19*
G04 #@! TO.N,GND*
X140635880Y-95623860D03*
G04 #@! TO.P,U1,18*
G04 #@! TO.N,Net-(U1-Pad18)*
X140635880Y-95123860D03*
G04 #@! TO.P,U1,17*
G04 #@! TO.N,Net-(U1-Pad17)*
X140635880Y-94623860D03*
G04 #@! TO.P,U1,16*
G04 #@! TO.N,Net-(U1-Pad16)*
X140635880Y-94123860D03*
G04 #@! TO.P,U1,15*
G04 #@! TO.N,Net-(U1-Pad15)*
X140635880Y-93623860D03*
G04 #@! TO.P,U1,14*
G04 #@! TO.N,Net-(U1-Pad14)*
X140635880Y-93123860D03*
G04 #@! TO.P,U1,13*
G04 #@! TO.N,Net-(U1-Pad13)*
X140635880Y-92623860D03*
G04 #@! TO.P,U1,12*
G04 #@! TO.N,Net-(U1-Pad12)*
X140635880Y-92123860D03*
G04 #@! TO.P,U1,11*
G04 #@! TO.N,Net-(U1-Pad11)*
X140635880Y-91623860D03*
G04 #@! TO.P,U1,10*
G04 #@! TO.N,Net-(U1-Pad10)*
X140635880Y-91123860D03*
G04 #@! TO.P,U1,9*
G04 #@! TO.N,Net-(U1-Pad9)*
X140635880Y-90623860D03*
G04 #@! TO.P,U1,8*
G04 #@! TO.N,/SIM_RST*
X140635880Y-90123860D03*
G04 #@! TO.P,U1,7*
G04 #@! TO.N,VDD*
X140635880Y-89623860D03*
G04 #@! TO.P,U1,6*
G04 #@! TO.N,GND*
X140635880Y-89123860D03*
G04 #@! TO.P,U1,5*
G04 #@! TO.N,Net-(U1-Pad5)*
X140635880Y-88623860D03*
G04 #@! TO.P,U1,4*
G04 #@! TO.N,GND*
X140635880Y-88123860D03*
G04 #@! TO.P,U1,3*
G04 #@! TO.N,Net-(U1-Pad3)*
X140635880Y-87623860D03*
G04 #@! TO.P,U1,2*
G04 #@! TO.N,GND*
X140635880Y-87123860D03*
G04 #@! TO.P,U1,1*
X140635880Y-86623860D03*
G04 #@! TD*
D25*
G04 #@! TO.P,S3,1*
G04 #@! TO.N,GND*
X154892880Y-88287860D03*
G04 #@! TO.P,S3,2*
X157892880Y-88287860D03*
G04 #@! TD*
G04 #@! TO.P,S3,1*
G04 #@! TO.N,GND*
X155019880Y-108099860D03*
G04 #@! TO.P,S3,2*
X158019880Y-108099860D03*
G04 #@! TD*
G04 #@! TO.P,S3,1*
G04 #@! TO.N,GND*
X122761880Y-108099860D03*
G04 #@! TO.P,S3,2*
X125761880Y-108099860D03*
G04 #@! TD*
D26*
G04 #@! TO.P,D2,1*
G04 #@! TO.N,VPP*
X130990880Y-100218860D03*
G04 #@! TO.P,D2,2*
G04 #@! TO.N,Net-(BT1-Pad1)*
X130990880Y-98718860D03*
G04 #@! TD*
D27*
G04 #@! TO.P,D3,4*
G04 #@! TO.N,Net-(D3-Pad4)*
X130165880Y-96218860D03*
G04 #@! TO.P,D3,3*
G04 #@! TO.N,Net-(D3-Pad3)*
X130165880Y-94718860D03*
G04 #@! TO.P,D3,1*
G04 #@! TO.N,Net-(D3-Pad1)*
X131015880Y-94718860D03*
G04 #@! TO.P,D3,2*
G04 #@! TO.N,GND*
X131015880Y-96218860D03*
G04 #@! TD*
D28*
G04 #@! TO.P,U5,1*
G04 #@! TO.N,Net-(R13-Pad1)*
X132565880Y-94793860D03*
G04 #@! TO.P,U5,2*
G04 #@! TO.N,GND*
X133515880Y-94793860D03*
G04 #@! TO.P,U5,3*
G04 #@! TO.N,Net-(BT1-Pad1)*
X134465880Y-94793860D03*
G04 #@! TO.P,U5,4*
G04 #@! TO.N,Net-(D3-Pad3)*
X134465880Y-92593860D03*
G04 #@! TO.P,U5,5*
G04 #@! TO.N,Net-(R14-Pad1)*
X132565880Y-92593860D03*
G04 #@! TD*
D29*
G04 #@! TO.P,P2,10*
G04 #@! TO.N,GND*
X135984220Y-87945647D03*
D30*
G04 #@! TO.P,P2,9*
X131484220Y-87945647D03*
D31*
G04 #@! TO.P,P2,7*
X129484220Y-90395647D03*
D32*
G04 #@! TO.P,P2,1*
G04 #@! TO.N,Net-(D3-Pad3)*
X133984220Y-90620647D03*
G04 #@! TO.P,P2,2*
G04 #@! TO.N,Net-(P2-Pad2)*
X133334220Y-90620647D03*
G04 #@! TO.P,P2,5*
G04 #@! TO.N,GND*
X131384220Y-90620647D03*
G04 #@! TO.P,P2,4*
G04 #@! TO.N,Net-(P2-Pad4)*
X132034220Y-90620647D03*
G04 #@! TO.P,P2,3*
G04 #@! TO.N,Net-(P2-Pad3)*
X132684220Y-90620647D03*
D31*
G04 #@! TO.P,P2,6*
G04 #@! TO.N,GND*
X135884220Y-90395647D03*
D30*
G04 #@! TO.P,P2,8*
X133884220Y-87945647D03*
D29*
G04 #@! TO.P,P2,11*
X129384220Y-87945647D03*
G04 #@! TD*
D33*
G04 #@! TO.P,D1,1*
G04 #@! TO.N,VDD*
X150740880Y-97993861D03*
G04 #@! TO.P,D1,2*
G04 #@! TO.N,Net-(D1-Pad2)*
X149240880Y-97993861D03*
G04 #@! TO.P,D1,3*
G04 #@! TO.N,Net-(D1-Pad3)*
X149240880Y-96893861D03*
G04 #@! TO.P,D1,4*
G04 #@! TO.N,Net-(D1-Pad4)*
X150740880Y-96893861D03*
G04 #@! TD*
D25*
G04 #@! TO.P,S2,1*
G04 #@! TO.N,GND*
X122761880Y-88287860D03*
G04 #@! TO.P,S2,2*
X125761880Y-88287860D03*
G04 #@! TD*
D34*
G04 #@! TO.P,BT1,1*
G04 #@! TO.N,Net-(BT1-Pad1)*
X134415880Y-98306360D03*
G04 #@! TO.P,BT1,2*
G04 #@! TO.N,GND*
X135415880Y-98306360D03*
D35*
G04 #@! TO.P,BT1,*
X133115880Y-102181360D03*
X136715880Y-102181360D03*
G04 #@! TD*
D13*
G04 #@! TO.P,C1,2*
G04 #@! TO.N,VDD*
X138890880Y-87993860D03*
G04 #@! TO.P,C1,1*
G04 #@! TO.N,GND*
X137790880Y-87993860D03*
G04 #@! TD*
G04 #@! TO.P,C2,1*
G04 #@! TO.N,GND*
X137790880Y-88893860D03*
G04 #@! TO.P,C2,2*
G04 #@! TO.N,VDD*
X138890880Y-88893860D03*
G04 #@! TD*
D18*
G04 #@! TO.P,C3,2*
G04 #@! TO.N,VDD*
X147240880Y-98693860D03*
G04 #@! TO.P,C3,1*
G04 #@! TO.N,GND*
X147240880Y-97593860D03*
G04 #@! TD*
G04 #@! TO.P,C4,2*
G04 #@! TO.N,GND*
X137840880Y-96643860D03*
G04 #@! TO.P,C4,1*
G04 #@! TO.N,VPP*
X137840880Y-95543860D03*
G04 #@! TD*
G04 #@! TO.P,C5,1*
G04 #@! TO.N,VPP*
X136940880Y-95543860D03*
G04 #@! TO.P,C5,2*
G04 #@! TO.N,GND*
X136940880Y-96643860D03*
G04 #@! TD*
G04 #@! TO.P,C6,2*
G04 #@! TO.N,GND*
X139190880Y-98743860D03*
G04 #@! TO.P,C6,1*
G04 #@! TO.N,+1V8*
X139190880Y-97643860D03*
G04 #@! TD*
D13*
G04 #@! TO.P,C9,1*
G04 #@! TO.N,GND*
X139640880Y-100168860D03*
G04 #@! TO.P,C9,2*
G04 #@! TO.N,+1V8*
X138540880Y-100168860D03*
G04 #@! TD*
G04 #@! TO.P,C10,2*
G04 #@! TO.N,Net-(C10-Pad2)*
X137790880Y-90693860D03*
G04 #@! TO.P,C10,1*
G04 #@! TO.N,/SIM_RST*
X138890880Y-90693860D03*
G04 #@! TD*
G04 #@! TO.P,C11,1*
G04 #@! TO.N,GND*
X133515880Y-96093860D03*
G04 #@! TO.P,C11,2*
G04 #@! TO.N,Net-(BT1-Pad1)*
X134615880Y-96093860D03*
G04 #@! TD*
G04 #@! TO.P,C13,1*
G04 #@! TO.N,GND*
X130065880Y-104068860D03*
G04 #@! TO.P,C13,2*
G04 #@! TO.N,VDD*
X131165880Y-104068860D03*
G04 #@! TD*
G04 #@! TO.P,C14,1*
G04 #@! TO.N,GND*
X137860880Y-92593860D03*
G04 #@! TO.P,C14,2*
G04 #@! TO.N,/V_SENSE*
X138960880Y-92593860D03*
G04 #@! TD*
G04 #@! TO.P,C15,1*
G04 #@! TO.N,GND*
X141690880Y-103243860D03*
G04 #@! TO.P,C15,2*
G04 #@! TO.N,+1V8*
X142790880Y-103243860D03*
G04 #@! TD*
G04 #@! TO.P,C16,2*
G04 #@! TO.N,VDD*
X142940880Y-99593860D03*
G04 #@! TO.P,C16,1*
G04 #@! TO.N,GND*
X141840880Y-99593860D03*
G04 #@! TD*
G04 #@! TO.P,R1,2*
G04 #@! TO.N,/SIM_RST*
X137790880Y-89793860D03*
G04 #@! TO.P,R1,1*
G04 #@! TO.N,VDD*
X138890880Y-89793860D03*
G04 #@! TD*
D18*
G04 #@! TO.P,R2,1*
G04 #@! TO.N,+1V8*
X140990880Y-97643860D03*
G04 #@! TO.P,R2,2*
G04 #@! TO.N,/MAX_INT*
X140990880Y-98743860D03*
G04 #@! TD*
G04 #@! TO.P,R5,1*
G04 #@! TO.N,Net-(D1-Pad4)*
X150840880Y-95543860D03*
G04 #@! TO.P,R5,2*
G04 #@! TO.N,/R_LED*
X150840880Y-94443860D03*
G04 #@! TD*
D13*
G04 #@! TO.P,R7,2*
G04 #@! TO.N,VPP*
X137850880Y-94393860D03*
G04 #@! TO.P,R7,1*
G04 #@! TO.N,/V_SENSE*
X138950880Y-94393860D03*
G04 #@! TD*
G04 #@! TO.P,R8,1*
G04 #@! TO.N,GND*
X137840880Y-93493860D03*
G04 #@! TO.P,R8,2*
G04 #@! TO.N,/V_SENSE*
X138940880Y-93493860D03*
G04 #@! TD*
D18*
G04 #@! TO.P,R12,2*
G04 #@! TO.N,/G_LED*
X149890880Y-94443860D03*
G04 #@! TO.P,R12,1*
G04 #@! TO.N,Net-(D1-Pad3)*
X149890880Y-95543860D03*
G04 #@! TD*
D13*
G04 #@! TO.P,R13,2*
G04 #@! TO.N,Net-(D3-Pad1)*
X130215880Y-93393860D03*
G04 #@! TO.P,R13,1*
G04 #@! TO.N,Net-(R13-Pad1)*
X131315880Y-93393860D03*
G04 #@! TD*
G04 #@! TO.P,R14,2*
G04 #@! TO.N,GND*
X130215880Y-92493860D03*
G04 #@! TO.P,R14,1*
G04 #@! TO.N,Net-(R14-Pad1)*
X131315880Y-92493860D03*
G04 #@! TD*
G04 #@! TO.P,R15,1*
G04 #@! TO.N,Net-(R13-Pad1)*
X131315880Y-97393860D03*
G04 #@! TO.P,R15,2*
G04 #@! TO.N,Net-(D3-Pad4)*
X130215880Y-97393860D03*
G04 #@! TD*
D18*
G04 #@! TO.P,R17,1*
G04 #@! TO.N,Net-(D1-Pad2)*
X148940880Y-95543860D03*
G04 #@! TO.P,R17,2*
G04 #@! TO.N,/B_LED*
X148940880Y-94443860D03*
G04 #@! TD*
D16*
G04 #@! TO.P,U3,5*
G04 #@! TO.N,GND*
X139090880Y-101418861D03*
D15*
G04 #@! TD*
G04 #@! TO.N,GND*
G04 #@! TO.C,U3*
G36*
X138751469Y-101418861D02*
X139090880Y-101079450D01*
X139430291Y-101418861D01*
X139090880Y-101758272D01*
X138751469Y-101418861D01*
X138751469Y-101418861D01*
G37*
D14*
G04 #@! TO.P,U3,4*
G04 #@! TO.N,VDD*
X139740880Y-101106361D03*
D15*
G04 #@! TD*
G04 #@! TO.N,VDD*
G04 #@! TO.C,U3*
G36*
X139745880Y-100981361D02*
X139745880Y-101231361D01*
X139520880Y-101231361D01*
X139340880Y-101016361D01*
X139340880Y-100981361D01*
X139745880Y-100981361D01*
X139745880Y-100981361D01*
G37*
D14*
G04 #@! TO.P,U3,2*
G04 #@! TO.N,GND*
X138440880Y-101731361D03*
D15*
G04 #@! TD*
G04 #@! TO.N,GND*
G04 #@! TO.C,U3*
G36*
X138435880Y-101856361D02*
X138435880Y-101606361D01*
X138660880Y-101606361D01*
X138840880Y-101821361D01*
X138840880Y-101856361D01*
X138435880Y-101856361D01*
X138435880Y-101856361D01*
G37*
D14*
G04 #@! TO.P,U3,3*
G04 #@! TO.N,VDD*
X139740880Y-101731361D03*
D15*
G04 #@! TD*
G04 #@! TO.N,VDD*
G04 #@! TO.C,U3*
G36*
X139520880Y-101606361D02*
X139745880Y-101606361D01*
X139745880Y-101856361D01*
X139340880Y-101856361D01*
X139340880Y-101821361D01*
X139520880Y-101606361D01*
X139520880Y-101606361D01*
G37*
D14*
G04 #@! TO.P,U3,1*
G04 #@! TO.N,+1V8*
X138440880Y-101106361D03*
D15*
G04 #@! TD*
G04 #@! TO.N,+1V8*
G04 #@! TO.C,U3*
G36*
X138660880Y-101231361D02*
X138435880Y-101231361D01*
X138435880Y-100981361D01*
X138840880Y-100981361D01*
X138840880Y-101016361D01*
X138660880Y-101231361D01*
X138660880Y-101231361D01*
G37*
D36*
G04 #@! TO.P,P1,1*
G04 #@! TO.N,Net-(C10-Pad2)*
X142045880Y-106743860D03*
G04 #@! TO.P,P1,2*
G04 #@! TO.N,/PIN_3*
X143315880Y-109443860D03*
G04 #@! TO.P,P1,3*
G04 #@! TO.N,/SIM_TX*
X144585880Y-106743860D03*
G04 #@! TO.P,P1,4*
G04 #@! TO.N,/PIN_2*
X145855880Y-109443860D03*
G04 #@! TO.P,P1,5*
G04 #@! TO.N,/SIM_RX*
X147125880Y-106743860D03*
G04 #@! TO.P,P1,6*
G04 #@! TO.N,/PIN_25*
X148395880Y-109443860D03*
G04 #@! TO.P,P1,7*
G04 #@! TO.N,VDD*
X149665880Y-106743860D03*
G04 #@! TO.P,P1,8*
G04 #@! TO.N,GND*
X150935880Y-109443860D03*
G04 #@! TD*
D37*
G04 #@! TO.N,GND*
X143962120Y-92710000D03*
X147245879Y-96616061D03*
X139324100Y-95603060D03*
X135415880Y-99543860D03*
X136965880Y-100518860D03*
X150940880Y-107918860D03*
G04 #@! TO.N,VDD*
X139639205Y-89692124D03*
X151640880Y-97993860D03*
X150840880Y-99993860D03*
X151290880Y-102743860D03*
X148040880Y-100943860D03*
X149690880Y-105487860D03*
X143640872Y-100768860D03*
X132165880Y-104118860D03*
X139065880Y-103593860D03*
G04 #@! TO.N,VPP*
X136915880Y-94618860D03*
X129565880Y-100193860D03*
X130615872Y-106343860D03*
G04 #@! TO.N,/MAX_INT*
X146143980Y-90228420D03*
X141990880Y-98093860D03*
G04 #@! TO.N,/BMI_INT2*
X149990880Y-91493860D03*
X149940880Y-99543860D03*
G04 #@! TO.N,/BMI_INT1*
X152090880Y-91193860D03*
X151115879Y-103818860D03*
G04 #@! TO.N,Net-(D3-Pad3)*
X135515880Y-92593860D03*
X129315880Y-94743860D03*
G04 #@! TO.N,Net-(R13-Pad1)*
X132540880Y-93693860D03*
X132540880Y-97368860D03*
G04 #@! TO.N,+1V8*
X143390880Y-102543860D03*
X142665880Y-100568860D03*
X138340880Y-98093860D03*
G04 #@! TO.N,/1V8_SCL*
X141015880Y-102543870D03*
G04 #@! TO.N,/3V3_SCL*
X144219234Y-102334559D03*
X146090880Y-97043858D03*
X146940880Y-102343860D03*
G04 #@! TO.N,/1V8_SDA*
X141015874Y-101618860D03*
G04 #@! TO.N,/3V3_SDA*
X144340880Y-101543860D03*
X145190876Y-97543860D03*
X147740880Y-102543860D03*
G04 #@! TO.N,Net-(C10-Pad2)*
X138190880Y-91593860D03*
X139990880Y-106743860D03*
G04 #@! TO.N,/EN*
X129215880Y-105393860D03*
X129490880Y-102404760D03*
G04 #@! TO.N,/PIN_25*
X148690880Y-91943860D03*
X148440880Y-104793860D03*
G04 #@! TD*
D38*
G04 #@! TO.N,GND*
X142940880Y-91693860D02*
X142940880Y-91828860D01*
X142940880Y-91828860D02*
X142940880Y-91353860D01*
X142940880Y-91353860D02*
X143180880Y-91113860D01*
D39*
X142940880Y-91693860D02*
X142940880Y-91828860D01*
X144940880Y-91613860D02*
X144940880Y-91731240D01*
X144940880Y-91731240D02*
X143962120Y-92710000D01*
X142940880Y-91828860D02*
X144725880Y-91828860D01*
X144725880Y-91828860D02*
X144940880Y-91613860D01*
X142940880Y-91828860D02*
X142940880Y-93733860D01*
X142940880Y-93733860D02*
X144940880Y-93733860D01*
X144940880Y-93733860D02*
X144940880Y-91613860D01*
D40*
X140635880Y-87123860D02*
X140635880Y-86623860D01*
X139870880Y-88123860D02*
X140635880Y-88123860D01*
X139740880Y-87993860D02*
X139870880Y-88123860D01*
X139810879Y-88063859D02*
X139740880Y-87993860D01*
X139810879Y-88963859D02*
X139810879Y-88063859D01*
X139970880Y-89123860D02*
X139810879Y-88963859D01*
X140635880Y-89123860D02*
X139970880Y-89123860D01*
X139740880Y-87268860D02*
X139740880Y-87993860D01*
X139885880Y-87123860D02*
X139740880Y-87268860D01*
X140635880Y-87123860D02*
X139885880Y-87123860D01*
X137790880Y-88893860D02*
X137790880Y-87993860D01*
D39*
X138778380Y-101731361D02*
X138440880Y-101731361D01*
X139090880Y-101418861D02*
X138778380Y-101731361D01*
X138540880Y-101831361D02*
X138440880Y-101731361D01*
X138540880Y-102668860D02*
X138540880Y-101831361D01*
D41*
X139590880Y-100168860D02*
X139640880Y-100168860D01*
X139140880Y-101175641D02*
X139140880Y-100618860D01*
X139140880Y-100618860D02*
X139590880Y-100168860D01*
X139090880Y-101225641D02*
X139140880Y-101175641D01*
X139090880Y-101418861D02*
X139090880Y-101225641D01*
D38*
X147245879Y-96191797D02*
X147245879Y-96616061D01*
X147245880Y-95623860D02*
X147245879Y-96191797D01*
D41*
X142660880Y-91548860D02*
X142940880Y-91828860D01*
X142660880Y-91103860D02*
X142660880Y-91548860D01*
D38*
X141955880Y-102978860D02*
X141690880Y-103243860D01*
X141955880Y-102318860D02*
X141955880Y-102978860D01*
D40*
X139324080Y-95603060D02*
X139324100Y-95603060D01*
X139344880Y-95623860D02*
X139324080Y-95603060D01*
D38*
X139344900Y-95623860D02*
X139324100Y-95603060D01*
X140635880Y-95623860D02*
X139344900Y-95623860D01*
D39*
X130765880Y-102693860D02*
X131078380Y-102381360D01*
D40*
X131078380Y-102381360D02*
X131415880Y-102381360D01*
X131315880Y-102281360D02*
X131415880Y-102381360D01*
D41*
X130765880Y-102693860D02*
X130765880Y-102887080D01*
X130765880Y-102887080D02*
X130815890Y-102937090D01*
D38*
X131315880Y-101493860D02*
X131315880Y-102281360D01*
D39*
X132428380Y-101493860D02*
X133115880Y-102181360D01*
X131315880Y-101493860D02*
X132428380Y-101493860D01*
D41*
X130815890Y-102743870D02*
X130765880Y-102693860D01*
X130815890Y-103343850D02*
X130815890Y-102743870D01*
X130090880Y-104068860D02*
X130815890Y-103343850D01*
X130065880Y-104068860D02*
X130090880Y-104068860D01*
D39*
X133515880Y-94793860D02*
X133515880Y-96093860D01*
X133390880Y-96218860D02*
X133515880Y-96093860D01*
X131015880Y-96218860D02*
X133390880Y-96218860D01*
D38*
X138440880Y-101731361D02*
X138303381Y-101731361D01*
X138303381Y-101731361D02*
X138265880Y-101768862D01*
X138265880Y-101768862D02*
X138265880Y-101943860D01*
X138265880Y-101943860D02*
X138240880Y-101918860D01*
X138240880Y-101918860D02*
X138240880Y-101568860D01*
D39*
X135415880Y-99543860D02*
X135415880Y-98306360D01*
X150935880Y-107923860D02*
X150940880Y-107918860D01*
X150935880Y-109443860D02*
X150935880Y-107923860D01*
D40*
G04 #@! TO.N,VDD*
X138890880Y-87993860D02*
X138890880Y-88893860D01*
X138890880Y-89793860D02*
X138890880Y-88893860D01*
X140635880Y-89623860D02*
X139707469Y-89623860D01*
X139707469Y-89623860D02*
X139639205Y-89692124D01*
X138890880Y-89793860D02*
X139537469Y-89793860D01*
X139537469Y-89793860D02*
X139639205Y-89692124D01*
D39*
X139640880Y-101831361D02*
X139740880Y-101731361D01*
X139640880Y-102668860D02*
X139640880Y-101831361D01*
X139740880Y-101106361D02*
X139740880Y-101731361D01*
X151621881Y-97993860D02*
X151640880Y-97993860D01*
X150740880Y-97993861D02*
X151621881Y-97993860D01*
D38*
X150440880Y-100631360D02*
X150440880Y-100393860D01*
X150440880Y-100393860D02*
X150840880Y-99993860D01*
X150703380Y-102393860D02*
X150940880Y-102393860D01*
X150940880Y-102393860D02*
X151290880Y-102743860D01*
X148490880Y-101393860D02*
X148040880Y-100943860D01*
X148678380Y-101393860D02*
X148490880Y-101393860D01*
D39*
X149665880Y-105512860D02*
X149690880Y-105487860D01*
X149665880Y-106743860D02*
X149665880Y-105512860D01*
X147290880Y-100193860D02*
X148040880Y-100943860D01*
X147290880Y-98743860D02*
X147290880Y-100193860D01*
X147240880Y-98693860D02*
X147290880Y-98743860D01*
D41*
X142625880Y-101268860D02*
X143140872Y-101268860D01*
X143140872Y-101268860D02*
X143340873Y-101068859D01*
X143340873Y-101068859D02*
X143640872Y-100768860D01*
D39*
X142940880Y-99593860D02*
X142990880Y-99593860D01*
X142990880Y-99593860D02*
X143640872Y-100243852D01*
X143640872Y-100243852D02*
X143640872Y-100344596D01*
X143640872Y-100344596D02*
X143640872Y-100768860D01*
X131265880Y-104118860D02*
X132165880Y-104118860D01*
D38*
X131165880Y-103168860D02*
X131165880Y-103618860D01*
D41*
X131253380Y-103168860D02*
X131165880Y-103168860D01*
X131415880Y-103006360D02*
X131253380Y-103168860D01*
D39*
X131165880Y-103543860D02*
X131165880Y-104068860D01*
X131415880Y-103293860D02*
X131165880Y-103543860D01*
X139346880Y-103593860D02*
X139065880Y-103593860D01*
X139640880Y-103299860D02*
X139346880Y-103593860D01*
X139640880Y-102668860D02*
X139640880Y-103299860D01*
D41*
G04 #@! TO.N,/SIM_RX*
X146240880Y-104843860D02*
X147125880Y-105728860D01*
X146240880Y-99776660D02*
X146240880Y-104843860D01*
X144190880Y-97726660D02*
X146240880Y-99776660D01*
X147125880Y-105728860D02*
X147125880Y-106743860D01*
X144190880Y-95913860D02*
X144190880Y-97726660D01*
G04 #@! TO.N,/SIM_TX*
X143190880Y-98070288D02*
X145440858Y-100320266D01*
X143190880Y-95913860D02*
X143190880Y-98070288D01*
X145440858Y-104838882D02*
X144585880Y-105693860D01*
X144585880Y-105693860D02*
X144585880Y-106743860D01*
X145440858Y-100320266D02*
X145440858Y-104838882D01*
G04 #@! TO.N,/SIM_RST*
X138790879Y-90693860D02*
X138890880Y-90693860D01*
X137890879Y-89793860D02*
X138790879Y-90693860D01*
X137790880Y-89793860D02*
X137890879Y-89793860D01*
X140055879Y-90123860D02*
X140635880Y-90123860D01*
X139485879Y-90693860D02*
X140055879Y-90123860D01*
X138890880Y-90693860D02*
X139485879Y-90693860D01*
D39*
G04 #@! TO.N,Net-(BT1-Pad1)*
X134615880Y-94943860D02*
X134615880Y-96093860D01*
X134465880Y-94793860D02*
X134615880Y-94943860D01*
X134415880Y-96293860D02*
X134615880Y-96093860D01*
X134415880Y-98306360D02*
X134415880Y-96293860D01*
X131403380Y-98306360D02*
X130990880Y-98718860D01*
X134415880Y-98306360D02*
X131403380Y-98306360D01*
G04 #@! TO.N,VPP*
X137850880Y-95533860D02*
X137840880Y-95543860D01*
X137850880Y-94393860D02*
X137850880Y-95533860D01*
X136940880Y-95543860D02*
X137840880Y-95543860D01*
X136940880Y-95543860D02*
X136940880Y-94643860D01*
X136940880Y-94643860D02*
X136915880Y-94618860D01*
X137140880Y-94393860D02*
X136915880Y-94618860D01*
X137850880Y-94393860D02*
X137140880Y-94393860D01*
X129590880Y-100218860D02*
X129565880Y-100193860D01*
X130990880Y-100218860D02*
X129590880Y-100218860D01*
D41*
X130615880Y-107393860D02*
X130615880Y-106343868D01*
D38*
X128853380Y-103006360D02*
X130115880Y-103006360D01*
X128590880Y-102743860D02*
X128853380Y-103006360D01*
X128590880Y-101793860D02*
X128590880Y-102743860D01*
X128890880Y-101493860D02*
X128590880Y-101793860D01*
X130215880Y-101493860D02*
X128890880Y-101493860D01*
D39*
X130615880Y-106343868D02*
X130615872Y-106343860D01*
D40*
G04 #@! TO.N,/MAX_INT*
X146143980Y-90228420D02*
X146248540Y-90123860D01*
D41*
X146248540Y-90123860D02*
X147245880Y-90123860D01*
X141440880Y-98743860D02*
X140990880Y-98743860D01*
X141990880Y-98193860D02*
X141440880Y-98743860D01*
X141990880Y-98093860D02*
X141990880Y-98193860D01*
D40*
G04 #@! TO.N,/BMI_INT2*
X147254680Y-91132660D02*
X147245880Y-91123860D01*
D41*
X149620880Y-91123860D02*
X149990880Y-91493860D01*
X147245880Y-91123860D02*
X149620880Y-91123860D01*
X149940880Y-99543860D02*
X149940880Y-100631360D01*
G04 #@! TO.N,/BMI_INT1*
X151520880Y-90623860D02*
X152090880Y-91193860D01*
X147245880Y-90623860D02*
X151520880Y-90623860D01*
X150440880Y-103156360D02*
X150440880Y-103368860D01*
X150440880Y-103368860D02*
X150890880Y-103818860D01*
X150890880Y-103818860D02*
X151115879Y-103818860D01*
G04 #@! TO.N,/B_LED*
X148620880Y-94123860D02*
X148940880Y-94443860D01*
X147245880Y-94123860D02*
X148620880Y-94123860D01*
G04 #@! TO.N,/G_LED*
X147245880Y-93623860D02*
X149620880Y-93623860D01*
X149890880Y-93893860D02*
X149890880Y-94443860D01*
X149620880Y-93623860D02*
X149890880Y-93893860D01*
G04 #@! TO.N,/R_LED*
X147245880Y-93123860D02*
X150320880Y-93123860D01*
X150840880Y-93643860D02*
X150840880Y-94443860D01*
X150320880Y-93123860D02*
X150840880Y-93643860D01*
G04 #@! TO.N,Net-(D1-Pad4)*
X150840880Y-96793861D02*
X150740880Y-96893861D01*
X150840880Y-95543860D02*
X150840880Y-96793861D01*
G04 #@! TO.N,Net-(D1-Pad2)*
X148440879Y-97493859D02*
X148940881Y-97993861D01*
X148940881Y-97993861D02*
X149240880Y-97993861D01*
X148440879Y-96043861D02*
X148440879Y-97493859D01*
X148940880Y-95543860D02*
X148440879Y-96043861D01*
D39*
G04 #@! TO.N,Net-(D3-Pad3)*
X133984220Y-92093860D02*
X134465880Y-92593860D01*
X133984220Y-90620647D02*
X133984220Y-92093860D01*
D41*
X134465880Y-92593860D02*
X135515880Y-92593860D01*
X129340880Y-94718860D02*
X129315880Y-94743860D01*
X130165880Y-94718860D02*
X129340880Y-94718860D01*
G04 #@! TO.N,Net-(D3-Pad1)*
X131015880Y-94268860D02*
X131015880Y-94718860D01*
X131015880Y-94193860D02*
X131015880Y-94268860D01*
X130215880Y-93393860D02*
X131015880Y-94193860D01*
G04 #@! TO.N,Net-(R13-Pad1)*
X132540880Y-94243860D02*
X132565880Y-94793860D01*
X132540880Y-93693860D02*
X132540880Y-94243860D01*
X131615880Y-93693860D02*
X132540880Y-93693860D01*
X131315880Y-93393860D02*
X131615880Y-93693860D01*
X132515880Y-97393860D02*
X132540880Y-97368860D01*
X131315880Y-97393860D02*
X132515880Y-97393860D01*
G04 #@! TO.N,Net-(R14-Pad1)*
X132465880Y-92493860D02*
X132565880Y-92593860D01*
X131315880Y-92493860D02*
X132465880Y-92493860D01*
D39*
G04 #@! TO.N,+1V8*
X138440880Y-100268860D02*
X138540880Y-100168860D01*
X138440880Y-101106361D02*
X138440880Y-100268860D01*
D41*
X140990880Y-97643860D02*
X140090880Y-97643860D01*
D39*
X140090880Y-97643860D02*
X139190880Y-97643860D01*
D41*
X142625880Y-102318860D02*
X143165880Y-102318860D01*
X143165880Y-102318860D02*
X143390880Y-102543860D01*
X142790880Y-103143860D02*
X143390880Y-102543860D01*
X142790880Y-103243860D02*
X142790880Y-103143860D01*
X141955880Y-100968860D02*
X142355880Y-100568860D01*
X141955880Y-101268860D02*
X141955880Y-100968860D01*
X142355880Y-100568860D02*
X142665880Y-100568860D01*
D39*
X138340880Y-98093860D02*
X138790880Y-97643860D01*
X138790880Y-97643860D02*
X139190880Y-97643860D01*
X138340880Y-99968860D02*
X138340880Y-98093860D01*
X138540880Y-100168860D02*
X138340880Y-99968860D01*
D41*
G04 #@! TO.N,Net-(D1-Pad3)*
X149890880Y-96243861D02*
X149240880Y-96893861D01*
X149890880Y-95543860D02*
X149890880Y-96243861D01*
G04 #@! TO.N,Net-(D3-Pad4)*
X130165880Y-97343860D02*
X130215880Y-97393860D01*
X130165880Y-96218860D02*
X130165880Y-97343860D01*
G04 #@! TO.N,/1V8_SCL*
X141490880Y-101968860D02*
X141955880Y-101968860D01*
X141015880Y-102543870D02*
X141015880Y-102443860D01*
X141015880Y-102443860D02*
X141490880Y-101968860D01*
G04 #@! TO.N,/3V3_SCL*
X143853535Y-101968860D02*
X142625880Y-101968860D01*
X144219234Y-102334559D02*
X143853535Y-101968860D01*
D38*
X145690880Y-95913860D02*
X145690880Y-96643858D01*
X145690880Y-96643858D02*
X145790881Y-96743859D01*
X145790881Y-96743859D02*
X146090880Y-97043858D01*
D41*
X147390880Y-101893860D02*
X146940880Y-102343860D01*
X148678380Y-101893860D02*
X147390880Y-101893860D01*
G04 #@! TO.N,/1V8_SDA*
X141955880Y-101618860D02*
X141015874Y-101618860D01*
G04 #@! TO.N,/3V3_SDA*
X144265880Y-101618860D02*
X142625880Y-101618860D01*
X144340880Y-101543860D02*
X144265880Y-101618860D01*
D38*
X145190880Y-95913860D02*
X145190880Y-97543856D01*
X145190880Y-97543856D02*
X145190876Y-97543860D01*
D41*
X147890880Y-102393860D02*
X147740880Y-102543860D01*
X148678380Y-102393860D02*
X147890880Y-102393860D01*
G04 #@! TO.N,/V_SENSE*
X138960880Y-93473860D02*
X138940880Y-93493860D01*
X138960880Y-92593860D02*
X138960880Y-93473860D01*
X138950880Y-93503860D02*
X138940880Y-93493860D01*
X138950880Y-94393860D02*
X138950880Y-93503860D01*
X142190880Y-96698660D02*
X142190880Y-95913860D01*
X138540880Y-96496260D02*
X138917680Y-96873060D01*
X142016480Y-96873060D02*
X142190880Y-96698660D01*
X138917680Y-96873060D02*
X142016480Y-96873060D01*
X138540880Y-94803860D02*
X138540880Y-96496260D01*
X138950880Y-94393860D02*
X138540880Y-94803860D01*
G04 #@! TO.N,Net-(C10-Pad2)*
X137790880Y-91193860D02*
X138190880Y-91593860D01*
X137790880Y-90693860D02*
X137790880Y-91193860D01*
X139990880Y-106743860D02*
X142045880Y-106743860D01*
G04 #@! TO.N,/PIN_3*
X143315880Y-106218860D02*
X143315880Y-108393860D01*
X142690880Y-98191302D02*
X145040847Y-100541269D01*
X142690880Y-95913860D02*
X142690880Y-98191302D01*
X145040847Y-100541269D02*
X145040847Y-104493893D01*
X145040847Y-104493893D02*
X143315880Y-106218860D01*
X143315880Y-108393860D02*
X143315880Y-109443860D01*
G04 #@! TO.N,/PIN_2*
X145840869Y-109428849D02*
X145855880Y-109443860D01*
X145840869Y-100048463D02*
X145840869Y-109428849D01*
X143690880Y-97898474D02*
X145840869Y-100048463D01*
X143690880Y-95913860D02*
X143690880Y-97898474D01*
D38*
G04 #@! TO.N,/EN*
X129965880Y-105393860D02*
X129215880Y-105393860D01*
X130092480Y-102404760D02*
X130115880Y-102381360D01*
X129490880Y-102404760D02*
X130092480Y-102404760D01*
D41*
G04 #@! TO.N,/PIN_25*
X148370880Y-91623860D02*
X148690880Y-91943860D01*
X147245880Y-91623860D02*
X148370880Y-91623860D01*
X148440880Y-109398860D02*
X148395880Y-109443860D01*
X148440880Y-104793860D02*
X148440880Y-109398860D01*
G04 #@! TD*
G04 #@! TO.N,GND*
G36*
X152726041Y-106874411D02*
X152733245Y-106910628D01*
X152733245Y-106910639D01*
X152771915Y-107105042D01*
X152771915Y-107105043D01*
X152827908Y-107240222D01*
X152938029Y-107405030D01*
X152966253Y-107433253D01*
X153041491Y-107508491D01*
X153206298Y-107618612D01*
X153244677Y-107634509D01*
X153341478Y-107674606D01*
X153535882Y-107713275D01*
X153682199Y-107713275D01*
X153683201Y-107712860D01*
X154219880Y-107712860D01*
X154219880Y-107870860D01*
X154294880Y-107945860D01*
X154865880Y-107945860D01*
X154865880Y-107925860D01*
X155173880Y-107925860D01*
X155173880Y-107945860D01*
X155193880Y-107945860D01*
X155193880Y-108253860D01*
X155173880Y-108253860D01*
X155173880Y-109124860D01*
X155248880Y-109199860D01*
X155579554Y-109199860D01*
X155689817Y-109154188D01*
X155774208Y-109069796D01*
X155819880Y-108959533D01*
X155819880Y-108328860D01*
X155744882Y-108253862D01*
X155819880Y-108253862D01*
X155819880Y-108122150D01*
X155990245Y-108292515D01*
X156333897Y-108434860D01*
X156705863Y-108434860D01*
X157049515Y-108292515D01*
X157219880Y-108122150D01*
X157219880Y-108253862D01*
X157294878Y-108253862D01*
X157219880Y-108328860D01*
X157219880Y-108959533D01*
X157265552Y-109069796D01*
X157349943Y-109154188D01*
X157460206Y-109199860D01*
X157790880Y-109199860D01*
X157865880Y-109124860D01*
X157865880Y-108253860D01*
X157845880Y-108253860D01*
X157845880Y-107945860D01*
X157865880Y-107945860D01*
X157865880Y-107925860D01*
X158173880Y-107925860D01*
X158173880Y-107945860D01*
X158744880Y-107945860D01*
X158819880Y-107870860D01*
X158819880Y-107712860D01*
X159022948Y-107712860D01*
X159058757Y-107719983D01*
X159061727Y-107734915D01*
X158994005Y-108338675D01*
X158819880Y-108838693D01*
X158819880Y-108328860D01*
X158744880Y-108253860D01*
X158173880Y-108253860D01*
X158173880Y-109124860D01*
X158248880Y-109199860D01*
X158579554Y-109199860D01*
X158632527Y-109177918D01*
X158458379Y-109456613D01*
X158018897Y-109899174D01*
X157492287Y-110233370D01*
X156904724Y-110442592D01*
X156265121Y-110518860D01*
X151505145Y-110518860D01*
X151560208Y-110463796D01*
X151605880Y-110353533D01*
X151605880Y-109672860D01*
X151530880Y-109597860D01*
X151089880Y-109597860D01*
X151089880Y-109617860D01*
X150781880Y-109617860D01*
X150781880Y-109597860D01*
X150340880Y-109597860D01*
X150265880Y-109672860D01*
X150265880Y-110353533D01*
X150311552Y-110463796D01*
X150366615Y-110518860D01*
X148969129Y-110518860D01*
X148982168Y-110510148D01*
X149048473Y-110410914D01*
X149071757Y-110293860D01*
X149071757Y-108593860D01*
X149059888Y-108534187D01*
X150265880Y-108534187D01*
X150265880Y-109214860D01*
X150340880Y-109289860D01*
X150781880Y-109289860D01*
X150781880Y-108368860D01*
X151089880Y-108368860D01*
X151089880Y-109289860D01*
X151530880Y-109289860D01*
X151605880Y-109214860D01*
X151605880Y-108534187D01*
X151560208Y-108423924D01*
X151475817Y-108339532D01*
X151450053Y-108328860D01*
X154219880Y-108328860D01*
X154219880Y-108959533D01*
X154265552Y-109069796D01*
X154349943Y-109154188D01*
X154460206Y-109199860D01*
X154790880Y-109199860D01*
X154865880Y-109124860D01*
X154865880Y-108253860D01*
X154294880Y-108253860D01*
X154219880Y-108328860D01*
X151450053Y-108328860D01*
X151365554Y-108293860D01*
X151164880Y-108293860D01*
X151089880Y-108368860D01*
X150781880Y-108368860D01*
X150706880Y-108293860D01*
X150506206Y-108293860D01*
X150395943Y-108339532D01*
X150311552Y-108423924D01*
X150265880Y-108534187D01*
X149059888Y-108534187D01*
X149048473Y-108476806D01*
X148982168Y-108377572D01*
X148882934Y-108311267D01*
X148840880Y-108302902D01*
X148840880Y-105893860D01*
X148990003Y-105893860D01*
X148990003Y-107593860D01*
X149013287Y-107710914D01*
X149079592Y-107810148D01*
X149178826Y-107876453D01*
X149295880Y-107899737D01*
X150035880Y-107899737D01*
X150152934Y-107876453D01*
X150252168Y-107810148D01*
X150318473Y-107710914D01*
X150341757Y-107593860D01*
X150341757Y-105893860D01*
X150318473Y-105776806D01*
X150258073Y-105686410D01*
X150290880Y-105607207D01*
X150290880Y-105368513D01*
X150199536Y-105147987D01*
X150030753Y-104979204D01*
X149810227Y-104887860D01*
X149571533Y-104887860D01*
X149351007Y-104979204D01*
X149182224Y-105147987D01*
X149090880Y-105368513D01*
X149090880Y-105607207D01*
X149111261Y-105656412D01*
X149079592Y-105677572D01*
X149013287Y-105776806D01*
X148990003Y-105893860D01*
X148840880Y-105893860D01*
X148840880Y-105242389D01*
X148949536Y-105133733D01*
X149040880Y-104913207D01*
X149040880Y-104674513D01*
X148949536Y-104453987D01*
X148780753Y-104285204D01*
X148560227Y-104193860D01*
X148321533Y-104193860D01*
X148101007Y-104285204D01*
X147932224Y-104453987D01*
X147840880Y-104674513D01*
X147840880Y-104913207D01*
X147932224Y-105133733D01*
X148040880Y-105242389D01*
X148040881Y-108287983D01*
X148025880Y-108287983D01*
X147908826Y-108311267D01*
X147809592Y-108377572D01*
X147743287Y-108476806D01*
X147720003Y-108593860D01*
X147720003Y-110293860D01*
X147743287Y-110410914D01*
X147809592Y-110510148D01*
X147822631Y-110518860D01*
X146429129Y-110518860D01*
X146442168Y-110510148D01*
X146508473Y-110410914D01*
X146531757Y-110293860D01*
X146531757Y-108593860D01*
X146508473Y-108476806D01*
X146442168Y-108377572D01*
X146342934Y-108311267D01*
X146240869Y-108290965D01*
X146240869Y-105409533D01*
X146527302Y-105695966D01*
X146473287Y-105776806D01*
X146450003Y-105893860D01*
X146450003Y-107593860D01*
X146473287Y-107710914D01*
X146539592Y-107810148D01*
X146638826Y-107876453D01*
X146755880Y-107899737D01*
X147495880Y-107899737D01*
X147612934Y-107876453D01*
X147712168Y-107810148D01*
X147778473Y-107710914D01*
X147801757Y-107593860D01*
X147801757Y-105893860D01*
X147778473Y-105776806D01*
X147712168Y-105677572D01*
X147612934Y-105611267D01*
X147506098Y-105590015D01*
X147502671Y-105572788D01*
X147486015Y-105547860D01*
X147414264Y-105440476D01*
X147380865Y-105418160D01*
X146640880Y-104678176D01*
X146640880Y-103385360D01*
X148515880Y-103385360D01*
X148515880Y-103553534D01*
X148561552Y-103663797D01*
X148645944Y-103748188D01*
X148756207Y-103793860D01*
X148803380Y-103793860D01*
X148878380Y-103718860D01*
X148878380Y-103310360D01*
X148590880Y-103310360D01*
X148515880Y-103385360D01*
X146640880Y-103385360D01*
X146640880Y-102869032D01*
X146821533Y-102943860D01*
X147060227Y-102943860D01*
X147228294Y-102874245D01*
X147232224Y-102883733D01*
X147401007Y-103052516D01*
X147621533Y-103143860D01*
X147860227Y-103143860D01*
X148080753Y-103052516D01*
X148249536Y-102883733D01*
X148279066Y-102812441D01*
X148340880Y-102824737D01*
X148515880Y-102824737D01*
X148515880Y-102927360D01*
X148590880Y-103002360D01*
X148878380Y-103002360D01*
X148878380Y-102982360D01*
X149003380Y-102982360D01*
X149003380Y-103002360D01*
X149010003Y-103002360D01*
X149010003Y-103310360D01*
X149003380Y-103310360D01*
X149003380Y-103718860D01*
X149078380Y-103793860D01*
X149125553Y-103793860D01*
X149186868Y-103768463D01*
X149198826Y-103776453D01*
X149315880Y-103799737D01*
X149565880Y-103799737D01*
X149682934Y-103776453D01*
X149690880Y-103771144D01*
X149698826Y-103776453D01*
X149815880Y-103799737D01*
X150065880Y-103799737D01*
X150182934Y-103776453D01*
X150190880Y-103771144D01*
X150198826Y-103776453D01*
X150303637Y-103797302D01*
X150566322Y-104059987D01*
X150607223Y-104158733D01*
X150776006Y-104327516D01*
X150996532Y-104418860D01*
X151235226Y-104418860D01*
X151455752Y-104327516D01*
X151624535Y-104158733D01*
X151715879Y-103938207D01*
X151715879Y-103699513D01*
X151624535Y-103478987D01*
X151466217Y-103320669D01*
X151630753Y-103252516D01*
X151799536Y-103083733D01*
X151890880Y-102863207D01*
X151890880Y-102624513D01*
X151799536Y-102403987D01*
X151630753Y-102235204D01*
X151410227Y-102143860D01*
X151318164Y-102143860D01*
X151315483Y-102139848D01*
X151340880Y-102078534D01*
X151340880Y-102031360D01*
X151265880Y-101956360D01*
X150857380Y-101956360D01*
X150857380Y-101962983D01*
X150549380Y-101962983D01*
X150549380Y-101956360D01*
X150140880Y-101956360D01*
X150065880Y-102031360D01*
X150065880Y-102078534D01*
X150091277Y-102139848D01*
X150083287Y-102151806D01*
X150060003Y-102268860D01*
X150060003Y-102512983D01*
X149815880Y-102512983D01*
X149698826Y-102536267D01*
X149690880Y-102541576D01*
X149682934Y-102536267D01*
X149565880Y-102512983D01*
X149321757Y-102512983D01*
X149321757Y-102268860D01*
X149298473Y-102151806D01*
X149293164Y-102143860D01*
X149298473Y-102135914D01*
X149321757Y-102018860D01*
X149321757Y-101768860D01*
X149298473Y-101651806D01*
X149293164Y-101643860D01*
X149298473Y-101635914D01*
X149319270Y-101531360D01*
X150065880Y-101531360D01*
X150065880Y-101578534D01*
X150092939Y-101643860D01*
X150065880Y-101709186D01*
X150065880Y-101756360D01*
X150140880Y-101831360D01*
X150549380Y-101831360D01*
X150549380Y-101456360D01*
X150857380Y-101456360D01*
X150857380Y-101831360D01*
X151265880Y-101831360D01*
X151340880Y-101756360D01*
X151340880Y-101709186D01*
X151313821Y-101643860D01*
X151340880Y-101578534D01*
X151340880Y-101531360D01*
X151265880Y-101456360D01*
X150857380Y-101456360D01*
X150549380Y-101456360D01*
X150140880Y-101456360D01*
X150065880Y-101531360D01*
X149319270Y-101531360D01*
X149321757Y-101518860D01*
X149321757Y-101274737D01*
X149565880Y-101274737D01*
X149682934Y-101251453D01*
X149690880Y-101246144D01*
X149698826Y-101251453D01*
X149815880Y-101274737D01*
X150065880Y-101274737D01*
X150081208Y-101271688D01*
X150140880Y-101331360D01*
X150549380Y-101331360D01*
X150549380Y-101274737D01*
X150565880Y-101274737D01*
X150595425Y-101268860D01*
X150857380Y-101268860D01*
X150857380Y-101331360D01*
X151265880Y-101331360D01*
X151340880Y-101256360D01*
X151340880Y-101209186D01*
X151295208Y-101098923D01*
X151210816Y-101014532D01*
X151100553Y-100968860D01*
X150932380Y-100968860D01*
X150857382Y-101043858D01*
X150857382Y-101041126D01*
X150871757Y-100968860D01*
X150871757Y-100593860D01*
X150960227Y-100593860D01*
X151180753Y-100502516D01*
X151349536Y-100333733D01*
X151440880Y-100113207D01*
X151440880Y-99874513D01*
X151349536Y-99653987D01*
X151180753Y-99485204D01*
X150960227Y-99393860D01*
X150721533Y-99393860D01*
X150540880Y-99468688D01*
X150540880Y-99424513D01*
X150449536Y-99203987D01*
X150280753Y-99035204D01*
X150060227Y-98943860D01*
X149821533Y-98943860D01*
X149601007Y-99035204D01*
X149432224Y-99203987D01*
X149340880Y-99424513D01*
X149340880Y-99663207D01*
X149432224Y-99883733D01*
X149536474Y-99987983D01*
X149315880Y-99987983D01*
X149198826Y-100011267D01*
X149190880Y-100016576D01*
X149182934Y-100011267D01*
X149065880Y-99987983D01*
X148815880Y-99987983D01*
X148698826Y-100011267D01*
X148599592Y-100077572D01*
X148533287Y-100176806D01*
X148510003Y-100293860D01*
X148510003Y-100564454D01*
X148380753Y-100435204D01*
X148160227Y-100343860D01*
X148134551Y-100343860D01*
X147781380Y-99990689D01*
X147781380Y-99071164D01*
X147796757Y-98993860D01*
X147796757Y-98393860D01*
X147773473Y-98276806D01*
X147707168Y-98177572D01*
X147661767Y-98147237D01*
X147745208Y-98063797D01*
X147790880Y-97953534D01*
X147790880Y-97818860D01*
X147715880Y-97743860D01*
X147365880Y-97743860D01*
X147365880Y-97767860D01*
X147115880Y-97767860D01*
X147115880Y-97743860D01*
X146765880Y-97743860D01*
X146690880Y-97818860D01*
X146690880Y-97953534D01*
X146736552Y-98063797D01*
X146819993Y-98147237D01*
X146774592Y-98177572D01*
X146708287Y-98276806D01*
X146685003Y-98393860D01*
X146685003Y-98993860D01*
X146708287Y-99110914D01*
X146774592Y-99210148D01*
X146800380Y-99227379D01*
X146800381Y-100145553D01*
X146790772Y-100193860D01*
X146828841Y-100385243D01*
X146909886Y-100506537D01*
X146909889Y-100506540D01*
X146937251Y-100547490D01*
X146978201Y-100574852D01*
X147440880Y-101037531D01*
X147440880Y-101063207D01*
X147532224Y-101283733D01*
X147701007Y-101452516D01*
X147800821Y-101493860D01*
X147430272Y-101493860D01*
X147390879Y-101486024D01*
X147351487Y-101493860D01*
X147351486Y-101493860D01*
X147234808Y-101517069D01*
X147102496Y-101605476D01*
X147080181Y-101638873D01*
X146975195Y-101743860D01*
X146821533Y-101743860D01*
X146640880Y-101818688D01*
X146640880Y-99816054D01*
X146648716Y-99776660D01*
X146617671Y-99620588D01*
X146614091Y-99615230D01*
X146529264Y-99488276D01*
X146495865Y-99465960D01*
X145173764Y-98143860D01*
X145310223Y-98143860D01*
X145530749Y-98052516D01*
X145699532Y-97883733D01*
X145790876Y-97663207D01*
X145790876Y-97569028D01*
X145971533Y-97643858D01*
X146210227Y-97643858D01*
X146430753Y-97552514D01*
X146599536Y-97383731D01*
X146661478Y-97234186D01*
X146690880Y-97234186D01*
X146690880Y-97368860D01*
X146765880Y-97443860D01*
X147115880Y-97443860D01*
X147115880Y-97068860D01*
X147365880Y-97068860D01*
X147365880Y-97443860D01*
X147715880Y-97443860D01*
X147790880Y-97368860D01*
X147790880Y-97234186D01*
X147745208Y-97123923D01*
X147660816Y-97039532D01*
X147550553Y-96993860D01*
X147440880Y-96993860D01*
X147365880Y-97068860D01*
X147115880Y-97068860D01*
X147040880Y-96993860D01*
X146931207Y-96993860D01*
X146820944Y-97039532D01*
X146736552Y-97123923D01*
X146690880Y-97234186D01*
X146661478Y-97234186D01*
X146690880Y-97163205D01*
X146690880Y-96924511D01*
X146599536Y-96703985D01*
X146529091Y-96633540D01*
X146534168Y-96630148D01*
X146600473Y-96530914D01*
X146623757Y-96413860D01*
X146623757Y-96024993D01*
X146686206Y-96050860D01*
X147016880Y-96050860D01*
X147091880Y-95975860D01*
X147091880Y-95687360D01*
X147399880Y-95687360D01*
X147399880Y-95975860D01*
X147474880Y-96050860D01*
X147805554Y-96050860D01*
X147915817Y-96005188D01*
X148000208Y-95920796D01*
X148045880Y-95810533D01*
X148045880Y-95762360D01*
X147970880Y-95687360D01*
X147399880Y-95687360D01*
X147091880Y-95687360D01*
X147071880Y-95687360D01*
X147071880Y-95560360D01*
X147091880Y-95560360D01*
X147091880Y-95556737D01*
X147399880Y-95556737D01*
X147399880Y-95560360D01*
X147970880Y-95560360D01*
X148045880Y-95485360D01*
X148045880Y-95437187D01*
X148021506Y-95378342D01*
X148028473Y-95367914D01*
X148051757Y-95250860D01*
X148051757Y-94996860D01*
X148028473Y-94879806D01*
X148024500Y-94873860D01*
X148028473Y-94867914D01*
X148051757Y-94750860D01*
X148051757Y-94523860D01*
X148385003Y-94523860D01*
X148385003Y-94743860D01*
X148408287Y-94860914D01*
X148474592Y-94960148D01*
X148525046Y-94993860D01*
X148474592Y-95027572D01*
X148408287Y-95126806D01*
X148385003Y-95243860D01*
X148385003Y-95534052D01*
X148185897Y-95733159D01*
X148152495Y-95755477D01*
X148073095Y-95874310D01*
X148064088Y-95887790D01*
X148033043Y-96043861D01*
X148040879Y-96083255D01*
X148040880Y-97454461D01*
X148033043Y-97493859D01*
X148064088Y-97649930D01*
X148085679Y-97682243D01*
X148152496Y-97782243D01*
X148185895Y-97804559D01*
X148435003Y-98053668D01*
X148435003Y-98393861D01*
X148458287Y-98510915D01*
X148524592Y-98610149D01*
X148623826Y-98676454D01*
X148740880Y-98699738D01*
X149740880Y-98699738D01*
X149857934Y-98676454D01*
X149957168Y-98610149D01*
X149990880Y-98559695D01*
X150024592Y-98610149D01*
X150123826Y-98676454D01*
X150240880Y-98699738D01*
X151240880Y-98699738D01*
X151357934Y-98676454D01*
X151457168Y-98610149D01*
X151479645Y-98576510D01*
X151521533Y-98593860D01*
X151760227Y-98593860D01*
X151980753Y-98502516D01*
X152149536Y-98333733D01*
X152240880Y-98113207D01*
X152240880Y-97874513D01*
X152149536Y-97653987D01*
X151980753Y-97485204D01*
X151760227Y-97393860D01*
X151526866Y-97393860D01*
X151546757Y-97293861D01*
X151546757Y-96493861D01*
X151523473Y-96376807D01*
X151457168Y-96277573D01*
X151357934Y-96211268D01*
X151240880Y-96187984D01*
X151240880Y-96104440D01*
X151307168Y-96060148D01*
X151373473Y-95960914D01*
X151396757Y-95843860D01*
X151396757Y-95243860D01*
X151373473Y-95126806D01*
X151307168Y-95027572D01*
X151256714Y-94993860D01*
X151307168Y-94960148D01*
X151373473Y-94860914D01*
X151396757Y-94743860D01*
X151396757Y-94143860D01*
X151373473Y-94026806D01*
X151307168Y-93927572D01*
X151240880Y-93883280D01*
X151240880Y-93683253D01*
X151248716Y-93643859D01*
X151217671Y-93487788D01*
X151204308Y-93467789D01*
X151129264Y-93355476D01*
X151095865Y-93333160D01*
X150631583Y-92868878D01*
X150609264Y-92835476D01*
X150476952Y-92747069D01*
X150360274Y-92723860D01*
X150320880Y-92716024D01*
X150281486Y-92723860D01*
X148051757Y-92723860D01*
X148051757Y-92496860D01*
X148028473Y-92379806D01*
X148024500Y-92373860D01*
X148028473Y-92367914D01*
X148051757Y-92250860D01*
X148051757Y-92023860D01*
X148090880Y-92023860D01*
X148090880Y-92063207D01*
X148182224Y-92283733D01*
X148351007Y-92452516D01*
X148571533Y-92543860D01*
X148810227Y-92543860D01*
X149030753Y-92452516D01*
X149199536Y-92283733D01*
X149290880Y-92063207D01*
X149290880Y-91824513D01*
X149199536Y-91603987D01*
X149119409Y-91523860D01*
X149390880Y-91523860D01*
X149390880Y-91613207D01*
X149482224Y-91833733D01*
X149651007Y-92002516D01*
X149871533Y-92093860D01*
X150110227Y-92093860D01*
X150330753Y-92002516D01*
X150499536Y-91833733D01*
X150590880Y-91613207D01*
X150590880Y-91374513D01*
X150499536Y-91153987D01*
X150369409Y-91023860D01*
X151355196Y-91023860D01*
X151490880Y-91159544D01*
X151490880Y-91313207D01*
X151582224Y-91533733D01*
X151751007Y-91702516D01*
X151971533Y-91793860D01*
X152210227Y-91793860D01*
X152430753Y-91702516D01*
X152599536Y-91533733D01*
X152690880Y-91313207D01*
X152690880Y-91074513D01*
X152630135Y-90927860D01*
X152726040Y-90927860D01*
X152726041Y-106874411D01*
X152726041Y-106874411D01*
G37*
X152726041Y-106874411D02*
X152733245Y-106910628D01*
X152733245Y-106910639D01*
X152771915Y-107105042D01*
X152771915Y-107105043D01*
X152827908Y-107240222D01*
X152938029Y-107405030D01*
X152966253Y-107433253D01*
X153041491Y-107508491D01*
X153206298Y-107618612D01*
X153244677Y-107634509D01*
X153341478Y-107674606D01*
X153535882Y-107713275D01*
X153682199Y-107713275D01*
X153683201Y-107712860D01*
X154219880Y-107712860D01*
X154219880Y-107870860D01*
X154294880Y-107945860D01*
X154865880Y-107945860D01*
X154865880Y-107925860D01*
X155173880Y-107925860D01*
X155173880Y-107945860D01*
X155193880Y-107945860D01*
X155193880Y-108253860D01*
X155173880Y-108253860D01*
X155173880Y-109124860D01*
X155248880Y-109199860D01*
X155579554Y-109199860D01*
X155689817Y-109154188D01*
X155774208Y-109069796D01*
X155819880Y-108959533D01*
X155819880Y-108328860D01*
X155744882Y-108253862D01*
X155819880Y-108253862D01*
X155819880Y-108122150D01*
X155990245Y-108292515D01*
X156333897Y-108434860D01*
X156705863Y-108434860D01*
X157049515Y-108292515D01*
X157219880Y-108122150D01*
X157219880Y-108253862D01*
X157294878Y-108253862D01*
X157219880Y-108328860D01*
X157219880Y-108959533D01*
X157265552Y-109069796D01*
X157349943Y-109154188D01*
X157460206Y-109199860D01*
X157790880Y-109199860D01*
X157865880Y-109124860D01*
X157865880Y-108253860D01*
X157845880Y-108253860D01*
X157845880Y-107945860D01*
X157865880Y-107945860D01*
X157865880Y-107925860D01*
X158173880Y-107925860D01*
X158173880Y-107945860D01*
X158744880Y-107945860D01*
X158819880Y-107870860D01*
X158819880Y-107712860D01*
X159022948Y-107712860D01*
X159058757Y-107719983D01*
X159061727Y-107734915D01*
X158994005Y-108338675D01*
X158819880Y-108838693D01*
X158819880Y-108328860D01*
X158744880Y-108253860D01*
X158173880Y-108253860D01*
X158173880Y-109124860D01*
X158248880Y-109199860D01*
X158579554Y-109199860D01*
X158632527Y-109177918D01*
X158458379Y-109456613D01*
X158018897Y-109899174D01*
X157492287Y-110233370D01*
X156904724Y-110442592D01*
X156265121Y-110518860D01*
X151505145Y-110518860D01*
X151560208Y-110463796D01*
X151605880Y-110353533D01*
X151605880Y-109672860D01*
X151530880Y-109597860D01*
X151089880Y-109597860D01*
X151089880Y-109617860D01*
X150781880Y-109617860D01*
X150781880Y-109597860D01*
X150340880Y-109597860D01*
X150265880Y-109672860D01*
X150265880Y-110353533D01*
X150311552Y-110463796D01*
X150366615Y-110518860D01*
X148969129Y-110518860D01*
X148982168Y-110510148D01*
X149048473Y-110410914D01*
X149071757Y-110293860D01*
X149071757Y-108593860D01*
X149059888Y-108534187D01*
X150265880Y-108534187D01*
X150265880Y-109214860D01*
X150340880Y-109289860D01*
X150781880Y-109289860D01*
X150781880Y-108368860D01*
X151089880Y-108368860D01*
X151089880Y-109289860D01*
X151530880Y-109289860D01*
X151605880Y-109214860D01*
X151605880Y-108534187D01*
X151560208Y-108423924D01*
X151475817Y-108339532D01*
X151450053Y-108328860D01*
X154219880Y-108328860D01*
X154219880Y-108959533D01*
X154265552Y-109069796D01*
X154349943Y-109154188D01*
X154460206Y-109199860D01*
X154790880Y-109199860D01*
X154865880Y-109124860D01*
X154865880Y-108253860D01*
X154294880Y-108253860D01*
X154219880Y-108328860D01*
X151450053Y-108328860D01*
X151365554Y-108293860D01*
X151164880Y-108293860D01*
X151089880Y-108368860D01*
X150781880Y-108368860D01*
X150706880Y-108293860D01*
X150506206Y-108293860D01*
X150395943Y-108339532D01*
X150311552Y-108423924D01*
X150265880Y-108534187D01*
X149059888Y-108534187D01*
X149048473Y-108476806D01*
X148982168Y-108377572D01*
X148882934Y-108311267D01*
X148840880Y-108302902D01*
X148840880Y-105893860D01*
X148990003Y-105893860D01*
X148990003Y-107593860D01*
X149013287Y-107710914D01*
X149079592Y-107810148D01*
X149178826Y-107876453D01*
X149295880Y-107899737D01*
X150035880Y-107899737D01*
X150152934Y-107876453D01*
X150252168Y-107810148D01*
X150318473Y-107710914D01*
X150341757Y-107593860D01*
X150341757Y-105893860D01*
X150318473Y-105776806D01*
X150258073Y-105686410D01*
X150290880Y-105607207D01*
X150290880Y-105368513D01*
X150199536Y-105147987D01*
X150030753Y-104979204D01*
X149810227Y-104887860D01*
X149571533Y-104887860D01*
X149351007Y-104979204D01*
X149182224Y-105147987D01*
X149090880Y-105368513D01*
X149090880Y-105607207D01*
X149111261Y-105656412D01*
X149079592Y-105677572D01*
X149013287Y-105776806D01*
X148990003Y-105893860D01*
X148840880Y-105893860D01*
X148840880Y-105242389D01*
X148949536Y-105133733D01*
X149040880Y-104913207D01*
X149040880Y-104674513D01*
X148949536Y-104453987D01*
X148780753Y-104285204D01*
X148560227Y-104193860D01*
X148321533Y-104193860D01*
X148101007Y-104285204D01*
X147932224Y-104453987D01*
X147840880Y-104674513D01*
X147840880Y-104913207D01*
X147932224Y-105133733D01*
X148040880Y-105242389D01*
X148040881Y-108287983D01*
X148025880Y-108287983D01*
X147908826Y-108311267D01*
X147809592Y-108377572D01*
X147743287Y-108476806D01*
X147720003Y-108593860D01*
X147720003Y-110293860D01*
X147743287Y-110410914D01*
X147809592Y-110510148D01*
X147822631Y-110518860D01*
X146429129Y-110518860D01*
X146442168Y-110510148D01*
X146508473Y-110410914D01*
X146531757Y-110293860D01*
X146531757Y-108593860D01*
X146508473Y-108476806D01*
X146442168Y-108377572D01*
X146342934Y-108311267D01*
X146240869Y-108290965D01*
X146240869Y-105409533D01*
X146527302Y-105695966D01*
X146473287Y-105776806D01*
X146450003Y-105893860D01*
X146450003Y-107593860D01*
X146473287Y-107710914D01*
X146539592Y-107810148D01*
X146638826Y-107876453D01*
X146755880Y-107899737D01*
X147495880Y-107899737D01*
X147612934Y-107876453D01*
X147712168Y-107810148D01*
X147778473Y-107710914D01*
X147801757Y-107593860D01*
X147801757Y-105893860D01*
X147778473Y-105776806D01*
X147712168Y-105677572D01*
X147612934Y-105611267D01*
X147506098Y-105590015D01*
X147502671Y-105572788D01*
X147486015Y-105547860D01*
X147414264Y-105440476D01*
X147380865Y-105418160D01*
X146640880Y-104678176D01*
X146640880Y-103385360D01*
X148515880Y-103385360D01*
X148515880Y-103553534D01*
X148561552Y-103663797D01*
X148645944Y-103748188D01*
X148756207Y-103793860D01*
X148803380Y-103793860D01*
X148878380Y-103718860D01*
X148878380Y-103310360D01*
X148590880Y-103310360D01*
X148515880Y-103385360D01*
X146640880Y-103385360D01*
X146640880Y-102869032D01*
X146821533Y-102943860D01*
X147060227Y-102943860D01*
X147228294Y-102874245D01*
X147232224Y-102883733D01*
X147401007Y-103052516D01*
X147621533Y-103143860D01*
X147860227Y-103143860D01*
X148080753Y-103052516D01*
X148249536Y-102883733D01*
X148279066Y-102812441D01*
X148340880Y-102824737D01*
X148515880Y-102824737D01*
X148515880Y-102927360D01*
X148590880Y-103002360D01*
X148878380Y-103002360D01*
X148878380Y-102982360D01*
X149003380Y-102982360D01*
X149003380Y-103002360D01*
X149010003Y-103002360D01*
X149010003Y-103310360D01*
X149003380Y-103310360D01*
X149003380Y-103718860D01*
X149078380Y-103793860D01*
X149125553Y-103793860D01*
X149186868Y-103768463D01*
X149198826Y-103776453D01*
X149315880Y-103799737D01*
X149565880Y-103799737D01*
X149682934Y-103776453D01*
X149690880Y-103771144D01*
X149698826Y-103776453D01*
X149815880Y-103799737D01*
X150065880Y-103799737D01*
X150182934Y-103776453D01*
X150190880Y-103771144D01*
X150198826Y-103776453D01*
X150303637Y-103797302D01*
X150566322Y-104059987D01*
X150607223Y-104158733D01*
X150776006Y-104327516D01*
X150996532Y-104418860D01*
X151235226Y-104418860D01*
X151455752Y-104327516D01*
X151624535Y-104158733D01*
X151715879Y-103938207D01*
X151715879Y-103699513D01*
X151624535Y-103478987D01*
X151466217Y-103320669D01*
X151630753Y-103252516D01*
X151799536Y-103083733D01*
X151890880Y-102863207D01*
X151890880Y-102624513D01*
X151799536Y-102403987D01*
X151630753Y-102235204D01*
X151410227Y-102143860D01*
X151318164Y-102143860D01*
X151315483Y-102139848D01*
X151340880Y-102078534D01*
X151340880Y-102031360D01*
X151265880Y-101956360D01*
X150857380Y-101956360D01*
X150857380Y-101962983D01*
X150549380Y-101962983D01*
X150549380Y-101956360D01*
X150140880Y-101956360D01*
X150065880Y-102031360D01*
X150065880Y-102078534D01*
X150091277Y-102139848D01*
X150083287Y-102151806D01*
X150060003Y-102268860D01*
X150060003Y-102512983D01*
X149815880Y-102512983D01*
X149698826Y-102536267D01*
X149690880Y-102541576D01*
X149682934Y-102536267D01*
X149565880Y-102512983D01*
X149321757Y-102512983D01*
X149321757Y-102268860D01*
X149298473Y-102151806D01*
X149293164Y-102143860D01*
X149298473Y-102135914D01*
X149321757Y-102018860D01*
X149321757Y-101768860D01*
X149298473Y-101651806D01*
X149293164Y-101643860D01*
X149298473Y-101635914D01*
X149319270Y-101531360D01*
X150065880Y-101531360D01*
X150065880Y-101578534D01*
X150092939Y-101643860D01*
X150065880Y-101709186D01*
X150065880Y-101756360D01*
X150140880Y-101831360D01*
X150549380Y-101831360D01*
X150549380Y-101456360D01*
X150857380Y-101456360D01*
X150857380Y-101831360D01*
X151265880Y-101831360D01*
X151340880Y-101756360D01*
X151340880Y-101709186D01*
X151313821Y-101643860D01*
X151340880Y-101578534D01*
X151340880Y-101531360D01*
X151265880Y-101456360D01*
X150857380Y-101456360D01*
X150549380Y-101456360D01*
X150140880Y-101456360D01*
X150065880Y-101531360D01*
X149319270Y-101531360D01*
X149321757Y-101518860D01*
X149321757Y-101274737D01*
X149565880Y-101274737D01*
X149682934Y-101251453D01*
X149690880Y-101246144D01*
X149698826Y-101251453D01*
X149815880Y-101274737D01*
X150065880Y-101274737D01*
X150081208Y-101271688D01*
X150140880Y-101331360D01*
X150549380Y-101331360D01*
X150549380Y-101274737D01*
X150565880Y-101274737D01*
X150595425Y-101268860D01*
X150857380Y-101268860D01*
X150857380Y-101331360D01*
X151265880Y-101331360D01*
X151340880Y-101256360D01*
X151340880Y-101209186D01*
X151295208Y-101098923D01*
X151210816Y-101014532D01*
X151100553Y-100968860D01*
X150932380Y-100968860D01*
X150857382Y-101043858D01*
X150857382Y-101041126D01*
X150871757Y-100968860D01*
X150871757Y-100593860D01*
X150960227Y-100593860D01*
X151180753Y-100502516D01*
X151349536Y-100333733D01*
X151440880Y-100113207D01*
X151440880Y-99874513D01*
X151349536Y-99653987D01*
X151180753Y-99485204D01*
X150960227Y-99393860D01*
X150721533Y-99393860D01*
X150540880Y-99468688D01*
X150540880Y-99424513D01*
X150449536Y-99203987D01*
X150280753Y-99035204D01*
X150060227Y-98943860D01*
X149821533Y-98943860D01*
X149601007Y-99035204D01*
X149432224Y-99203987D01*
X149340880Y-99424513D01*
X149340880Y-99663207D01*
X149432224Y-99883733D01*
X149536474Y-99987983D01*
X149315880Y-99987983D01*
X149198826Y-100011267D01*
X149190880Y-100016576D01*
X149182934Y-100011267D01*
X149065880Y-99987983D01*
X148815880Y-99987983D01*
X148698826Y-100011267D01*
X148599592Y-100077572D01*
X148533287Y-100176806D01*
X148510003Y-100293860D01*
X148510003Y-100564454D01*
X148380753Y-100435204D01*
X148160227Y-100343860D01*
X148134551Y-100343860D01*
X147781380Y-99990689D01*
X147781380Y-99071164D01*
X147796757Y-98993860D01*
X147796757Y-98393860D01*
X147773473Y-98276806D01*
X147707168Y-98177572D01*
X147661767Y-98147237D01*
X147745208Y-98063797D01*
X147790880Y-97953534D01*
X147790880Y-97818860D01*
X147715880Y-97743860D01*
X147365880Y-97743860D01*
X147365880Y-97767860D01*
X147115880Y-97767860D01*
X147115880Y-97743860D01*
X146765880Y-97743860D01*
X146690880Y-97818860D01*
X146690880Y-97953534D01*
X146736552Y-98063797D01*
X146819993Y-98147237D01*
X146774592Y-98177572D01*
X146708287Y-98276806D01*
X146685003Y-98393860D01*
X146685003Y-98993860D01*
X146708287Y-99110914D01*
X146774592Y-99210148D01*
X146800380Y-99227379D01*
X146800381Y-100145553D01*
X146790772Y-100193860D01*
X146828841Y-100385243D01*
X146909886Y-100506537D01*
X146909889Y-100506540D01*
X146937251Y-100547490D01*
X146978201Y-100574852D01*
X147440880Y-101037531D01*
X147440880Y-101063207D01*
X147532224Y-101283733D01*
X147701007Y-101452516D01*
X147800821Y-101493860D01*
X147430272Y-101493860D01*
X147390879Y-101486024D01*
X147351487Y-101493860D01*
X147351486Y-101493860D01*
X147234808Y-101517069D01*
X147102496Y-101605476D01*
X147080181Y-101638873D01*
X146975195Y-101743860D01*
X146821533Y-101743860D01*
X146640880Y-101818688D01*
X146640880Y-99816054D01*
X146648716Y-99776660D01*
X146617671Y-99620588D01*
X146614091Y-99615230D01*
X146529264Y-99488276D01*
X146495865Y-99465960D01*
X145173764Y-98143860D01*
X145310223Y-98143860D01*
X145530749Y-98052516D01*
X145699532Y-97883733D01*
X145790876Y-97663207D01*
X145790876Y-97569028D01*
X145971533Y-97643858D01*
X146210227Y-97643858D01*
X146430753Y-97552514D01*
X146599536Y-97383731D01*
X146661478Y-97234186D01*
X146690880Y-97234186D01*
X146690880Y-97368860D01*
X146765880Y-97443860D01*
X147115880Y-97443860D01*
X147115880Y-97068860D01*
X147365880Y-97068860D01*
X147365880Y-97443860D01*
X147715880Y-97443860D01*
X147790880Y-97368860D01*
X147790880Y-97234186D01*
X147745208Y-97123923D01*
X147660816Y-97039532D01*
X147550553Y-96993860D01*
X147440880Y-96993860D01*
X147365880Y-97068860D01*
X147115880Y-97068860D01*
X147040880Y-96993860D01*
X146931207Y-96993860D01*
X146820944Y-97039532D01*
X146736552Y-97123923D01*
X146690880Y-97234186D01*
X146661478Y-97234186D01*
X146690880Y-97163205D01*
X146690880Y-96924511D01*
X146599536Y-96703985D01*
X146529091Y-96633540D01*
X146534168Y-96630148D01*
X146600473Y-96530914D01*
X146623757Y-96413860D01*
X146623757Y-96024993D01*
X146686206Y-96050860D01*
X147016880Y-96050860D01*
X147091880Y-95975860D01*
X147091880Y-95687360D01*
X147399880Y-95687360D01*
X147399880Y-95975860D01*
X147474880Y-96050860D01*
X147805554Y-96050860D01*
X147915817Y-96005188D01*
X148000208Y-95920796D01*
X148045880Y-95810533D01*
X148045880Y-95762360D01*
X147970880Y-95687360D01*
X147399880Y-95687360D01*
X147091880Y-95687360D01*
X147071880Y-95687360D01*
X147071880Y-95560360D01*
X147091880Y-95560360D01*
X147091880Y-95556737D01*
X147399880Y-95556737D01*
X147399880Y-95560360D01*
X147970880Y-95560360D01*
X148045880Y-95485360D01*
X148045880Y-95437187D01*
X148021506Y-95378342D01*
X148028473Y-95367914D01*
X148051757Y-95250860D01*
X148051757Y-94996860D01*
X148028473Y-94879806D01*
X148024500Y-94873860D01*
X148028473Y-94867914D01*
X148051757Y-94750860D01*
X148051757Y-94523860D01*
X148385003Y-94523860D01*
X148385003Y-94743860D01*
X148408287Y-94860914D01*
X148474592Y-94960148D01*
X148525046Y-94993860D01*
X148474592Y-95027572D01*
X148408287Y-95126806D01*
X148385003Y-95243860D01*
X148385003Y-95534052D01*
X148185897Y-95733159D01*
X148152495Y-95755477D01*
X148073095Y-95874310D01*
X148064088Y-95887790D01*
X148033043Y-96043861D01*
X148040879Y-96083255D01*
X148040880Y-97454461D01*
X148033043Y-97493859D01*
X148064088Y-97649930D01*
X148085679Y-97682243D01*
X148152496Y-97782243D01*
X148185895Y-97804559D01*
X148435003Y-98053668D01*
X148435003Y-98393861D01*
X148458287Y-98510915D01*
X148524592Y-98610149D01*
X148623826Y-98676454D01*
X148740880Y-98699738D01*
X149740880Y-98699738D01*
X149857934Y-98676454D01*
X149957168Y-98610149D01*
X149990880Y-98559695D01*
X150024592Y-98610149D01*
X150123826Y-98676454D01*
X150240880Y-98699738D01*
X151240880Y-98699738D01*
X151357934Y-98676454D01*
X151457168Y-98610149D01*
X151479645Y-98576510D01*
X151521533Y-98593860D01*
X151760227Y-98593860D01*
X151980753Y-98502516D01*
X152149536Y-98333733D01*
X152240880Y-98113207D01*
X152240880Y-97874513D01*
X152149536Y-97653987D01*
X151980753Y-97485204D01*
X151760227Y-97393860D01*
X151526866Y-97393860D01*
X151546757Y-97293861D01*
X151546757Y-96493861D01*
X151523473Y-96376807D01*
X151457168Y-96277573D01*
X151357934Y-96211268D01*
X151240880Y-96187984D01*
X151240880Y-96104440D01*
X151307168Y-96060148D01*
X151373473Y-95960914D01*
X151396757Y-95843860D01*
X151396757Y-95243860D01*
X151373473Y-95126806D01*
X151307168Y-95027572D01*
X151256714Y-94993860D01*
X151307168Y-94960148D01*
X151373473Y-94860914D01*
X151396757Y-94743860D01*
X151396757Y-94143860D01*
X151373473Y-94026806D01*
X151307168Y-93927572D01*
X151240880Y-93883280D01*
X151240880Y-93683253D01*
X151248716Y-93643859D01*
X151217671Y-93487788D01*
X151204308Y-93467789D01*
X151129264Y-93355476D01*
X151095865Y-93333160D01*
X150631583Y-92868878D01*
X150609264Y-92835476D01*
X150476952Y-92747069D01*
X150360274Y-92723860D01*
X150320880Y-92716024D01*
X150281486Y-92723860D01*
X148051757Y-92723860D01*
X148051757Y-92496860D01*
X148028473Y-92379806D01*
X148024500Y-92373860D01*
X148028473Y-92367914D01*
X148051757Y-92250860D01*
X148051757Y-92023860D01*
X148090880Y-92023860D01*
X148090880Y-92063207D01*
X148182224Y-92283733D01*
X148351007Y-92452516D01*
X148571533Y-92543860D01*
X148810227Y-92543860D01*
X149030753Y-92452516D01*
X149199536Y-92283733D01*
X149290880Y-92063207D01*
X149290880Y-91824513D01*
X149199536Y-91603987D01*
X149119409Y-91523860D01*
X149390880Y-91523860D01*
X149390880Y-91613207D01*
X149482224Y-91833733D01*
X149651007Y-92002516D01*
X149871533Y-92093860D01*
X150110227Y-92093860D01*
X150330753Y-92002516D01*
X150499536Y-91833733D01*
X150590880Y-91613207D01*
X150590880Y-91374513D01*
X150499536Y-91153987D01*
X150369409Y-91023860D01*
X151355196Y-91023860D01*
X151490880Y-91159544D01*
X151490880Y-91313207D01*
X151582224Y-91533733D01*
X151751007Y-91702516D01*
X151971533Y-91793860D01*
X152210227Y-91793860D01*
X152430753Y-91702516D01*
X152599536Y-91533733D01*
X152690880Y-91313207D01*
X152690880Y-91074513D01*
X152630135Y-90927860D01*
X152726040Y-90927860D01*
X152726041Y-106874411D01*
G36*
X141234082Y-86212819D02*
X141195554Y-86196860D01*
X140864880Y-86196860D01*
X140789880Y-86271860D01*
X140789880Y-86560360D01*
X140809880Y-86560360D01*
X140809880Y-86687360D01*
X140789880Y-86687360D01*
X140789880Y-87060360D01*
X140809880Y-87060360D01*
X140809880Y-87187360D01*
X140789880Y-87187360D01*
X140789880Y-87190983D01*
X140481880Y-87190983D01*
X140481880Y-87187360D01*
X139910880Y-87187360D01*
X139835880Y-87262360D01*
X139835880Y-87310533D01*
X139860254Y-87369378D01*
X139853287Y-87379806D01*
X139830003Y-87496860D01*
X139830003Y-87750860D01*
X139853287Y-87867914D01*
X139860254Y-87878342D01*
X139835880Y-87937187D01*
X139835880Y-87985360D01*
X139910880Y-88060360D01*
X140481880Y-88060360D01*
X140481880Y-88056737D01*
X140789880Y-88056737D01*
X140789880Y-88060360D01*
X140809880Y-88060360D01*
X140809880Y-88187360D01*
X140789880Y-88187360D01*
X140789880Y-88190983D01*
X140481880Y-88190983D01*
X140481880Y-88187360D01*
X139910880Y-88187360D01*
X139835880Y-88262360D01*
X139835880Y-88310533D01*
X139860254Y-88369378D01*
X139853287Y-88379806D01*
X139830003Y-88496860D01*
X139830003Y-88750860D01*
X139853287Y-88867914D01*
X139860254Y-88878342D01*
X139835880Y-88937187D01*
X139835880Y-88985360D01*
X139910880Y-89060360D01*
X140481880Y-89060360D01*
X140481880Y-89056737D01*
X140789880Y-89056737D01*
X140789880Y-89060360D01*
X140809880Y-89060360D01*
X140809880Y-89187360D01*
X140789880Y-89187360D01*
X140789880Y-89190983D01*
X140481880Y-89190983D01*
X140481880Y-89187360D01*
X139982970Y-89187360D01*
X139979078Y-89183468D01*
X139758552Y-89092124D01*
X139519858Y-89092124D01*
X139496757Y-89101693D01*
X139496757Y-88643860D01*
X139473473Y-88526806D01*
X139418051Y-88443860D01*
X139473473Y-88360914D01*
X139496757Y-88243860D01*
X139496757Y-87743860D01*
X139473473Y-87626806D01*
X139407168Y-87527572D01*
X139307934Y-87461267D01*
X139190880Y-87437983D01*
X138590880Y-87437983D01*
X138473826Y-87461267D01*
X138374592Y-87527572D01*
X138344257Y-87572973D01*
X138260817Y-87489532D01*
X138150554Y-87443860D01*
X138015880Y-87443860D01*
X137940880Y-87518860D01*
X137940880Y-87868860D01*
X137964880Y-87868860D01*
X137964880Y-88118860D01*
X137940880Y-88118860D01*
X137940880Y-88768860D01*
X137964880Y-88768860D01*
X137964880Y-89018860D01*
X137940880Y-89018860D01*
X137940880Y-89067860D01*
X137640880Y-89067860D01*
X137640880Y-89018860D01*
X137265880Y-89018860D01*
X137190880Y-89093860D01*
X137190880Y-89203533D01*
X137236552Y-89313796D01*
X137264873Y-89342117D01*
X137208287Y-89426806D01*
X137185003Y-89543860D01*
X137185003Y-90043860D01*
X137208287Y-90160914D01*
X137263709Y-90243860D01*
X137208287Y-90326806D01*
X137185003Y-90443860D01*
X137185003Y-90943860D01*
X137208287Y-91060914D01*
X137274592Y-91160148D01*
X137373826Y-91226453D01*
X137390174Y-91229705D01*
X137414089Y-91349931D01*
X137417690Y-91355320D01*
X137502497Y-91482244D01*
X137535896Y-91504560D01*
X137590880Y-91559544D01*
X137590880Y-91713207D01*
X137682224Y-91933733D01*
X137792351Y-92043860D01*
X137706878Y-92043860D01*
X137706878Y-92114858D01*
X137635880Y-92043860D01*
X137501206Y-92043860D01*
X137390943Y-92089532D01*
X137306552Y-92173924D01*
X137260880Y-92284187D01*
X137260880Y-92393860D01*
X137335880Y-92468860D01*
X137710880Y-92468860D01*
X137710880Y-92419860D01*
X138010880Y-92419860D01*
X138010880Y-92468860D01*
X138034880Y-92468860D01*
X138034880Y-92718860D01*
X138010880Y-92718860D01*
X138010880Y-92998860D01*
X137990880Y-93018860D01*
X137990880Y-93368860D01*
X138014880Y-93368860D01*
X138014880Y-93618860D01*
X137990880Y-93618860D01*
X137990880Y-93667860D01*
X137690880Y-93667860D01*
X137690880Y-93618860D01*
X137315880Y-93618860D01*
X137240880Y-93693860D01*
X137240880Y-93803533D01*
X137282229Y-93903360D01*
X137189181Y-93903360D01*
X137140879Y-93893752D01*
X137092577Y-93903360D01*
X137092573Y-93903360D01*
X136949497Y-93931820D01*
X136819232Y-94018860D01*
X136796533Y-94018860D01*
X136576007Y-94110204D01*
X136407224Y-94278987D01*
X136315880Y-94499513D01*
X136315880Y-94738207D01*
X136407224Y-94958733D01*
X136450381Y-95001890D01*
X136450381Y-95063808D01*
X136408287Y-95126806D01*
X136385003Y-95243860D01*
X136385003Y-95843860D01*
X136408287Y-95960914D01*
X136474592Y-96060148D01*
X136519993Y-96090483D01*
X136436552Y-96173923D01*
X136390880Y-96284186D01*
X136390880Y-96418860D01*
X136465880Y-96493860D01*
X136815880Y-96493860D01*
X136815880Y-96469860D01*
X137065880Y-96469860D01*
X137065880Y-96493860D01*
X137715880Y-96493860D01*
X137715880Y-96469860D01*
X137965880Y-96469860D01*
X137965880Y-96493860D01*
X138014880Y-96493860D01*
X138014880Y-96793860D01*
X137965880Y-96793860D01*
X137965880Y-97168860D01*
X138040880Y-97243860D01*
X138150553Y-97243860D01*
X138260816Y-97198188D01*
X138345208Y-97113797D01*
X138390880Y-97003534D01*
X138390880Y-96911944D01*
X138606979Y-97128044D01*
X138629296Y-97161444D01*
X138645959Y-97172578D01*
X138599497Y-97181820D01*
X138596597Y-97183758D01*
X138478202Y-97262866D01*
X138478200Y-97262868D01*
X138437250Y-97290230D01*
X138409888Y-97331180D01*
X138247208Y-97493860D01*
X138221533Y-97493860D01*
X138001007Y-97585204D01*
X137832224Y-97753987D01*
X137740880Y-97974513D01*
X137740880Y-98213207D01*
X137832224Y-98433733D01*
X137850381Y-98451890D01*
X137850380Y-99920558D01*
X137840772Y-99968860D01*
X137850380Y-100017162D01*
X137850380Y-100017166D01*
X137878840Y-100160242D01*
X137918006Y-100218859D01*
X137935003Y-100244296D01*
X137935003Y-100418860D01*
X137950381Y-100496167D01*
X137950380Y-101154667D01*
X137978840Y-101297743D01*
X138087250Y-101459991D01*
X138150687Y-101502378D01*
X138130003Y-101606361D01*
X138130003Y-101856361D01*
X138153287Y-101973415D01*
X138219592Y-102072649D01*
X138288753Y-102118860D01*
X138181206Y-102118860D01*
X138070943Y-102164532D01*
X137986552Y-102248924D01*
X137940880Y-102359187D01*
X137940880Y-102468860D01*
X138015880Y-102543860D01*
X138390880Y-102543860D01*
X138390880Y-102494860D01*
X138690880Y-102494860D01*
X138690880Y-102543860D01*
X138714880Y-102543860D01*
X138714880Y-102793860D01*
X138690880Y-102793860D01*
X138690880Y-103120331D01*
X138557224Y-103253987D01*
X138465880Y-103474513D01*
X138465880Y-103713207D01*
X138557224Y-103933733D01*
X138726007Y-104102516D01*
X138946533Y-104193860D01*
X139185227Y-104193860D01*
X139405753Y-104102516D01*
X139431041Y-104077228D01*
X139538263Y-104055900D01*
X139700510Y-103947490D01*
X139727874Y-103906537D01*
X139953557Y-103680854D01*
X139994510Y-103653490D01*
X140034354Y-103593860D01*
X140061299Y-103553533D01*
X140102920Y-103491243D01*
X140112345Y-103443860D01*
X141090880Y-103443860D01*
X141090880Y-103553533D01*
X141136552Y-103663796D01*
X141220943Y-103748188D01*
X141331206Y-103793860D01*
X141465880Y-103793860D01*
X141540880Y-103718860D01*
X141540880Y-103368860D01*
X141165880Y-103368860D01*
X141090880Y-103443860D01*
X140112345Y-103443860D01*
X140131380Y-103348167D01*
X140131380Y-103348162D01*
X140140988Y-103299860D01*
X140131380Y-103251558D01*
X140131380Y-103152379D01*
X140157168Y-103135148D01*
X140223473Y-103035914D01*
X140246757Y-102918860D01*
X140246757Y-102418860D01*
X140223473Y-102301806D01*
X140157168Y-102202572D01*
X140131380Y-102185341D01*
X140131380Y-102029811D01*
X140202920Y-101922744D01*
X140231380Y-101779668D01*
X140231380Y-101779664D01*
X140240988Y-101731362D01*
X140231380Y-101683060D01*
X140231380Y-101058054D01*
X140202920Y-100914978D01*
X140094510Y-100752731D01*
X140027262Y-100707797D01*
X140110817Y-100673188D01*
X140195208Y-100588796D01*
X140240880Y-100478533D01*
X140240880Y-100368860D01*
X140165880Y-100293860D01*
X139790880Y-100293860D01*
X139790880Y-100342860D01*
X139490880Y-100342860D01*
X139490880Y-100293860D01*
X139466880Y-100293860D01*
X139466880Y-100043860D01*
X139490880Y-100043860D01*
X139490880Y-99693860D01*
X139790880Y-99693860D01*
X139790880Y-100043860D01*
X140165880Y-100043860D01*
X140240880Y-99968860D01*
X140240880Y-99859187D01*
X140213821Y-99793860D01*
X141240880Y-99793860D01*
X141240880Y-99903533D01*
X141286552Y-100013796D01*
X141370943Y-100098188D01*
X141481206Y-100143860D01*
X141615880Y-100143860D01*
X141690880Y-100068860D01*
X141690880Y-99718860D01*
X141315880Y-99718860D01*
X141240880Y-99793860D01*
X140213821Y-99793860D01*
X140195208Y-99748924D01*
X140110817Y-99664532D01*
X140000554Y-99618860D01*
X139865880Y-99618860D01*
X139790880Y-99693860D01*
X139490880Y-99693860D01*
X139415880Y-99618860D01*
X139281206Y-99618860D01*
X139170943Y-99664532D01*
X139087503Y-99747973D01*
X139057168Y-99702572D01*
X138957934Y-99636267D01*
X138840880Y-99612983D01*
X138831380Y-99612983D01*
X138831380Y-99323221D01*
X138881207Y-99343860D01*
X138990880Y-99343860D01*
X139065880Y-99268860D01*
X139065880Y-98893860D01*
X139315880Y-98893860D01*
X139315880Y-99268860D01*
X139390880Y-99343860D01*
X139500553Y-99343860D01*
X139610816Y-99298188D01*
X139640880Y-99268124D01*
X139670944Y-99298188D01*
X139781207Y-99343860D01*
X139890880Y-99343860D01*
X139965880Y-99268860D01*
X139965880Y-98893860D01*
X139315880Y-98893860D01*
X139065880Y-98893860D01*
X139016880Y-98893860D01*
X139016880Y-98593860D01*
X139065880Y-98593860D01*
X139065880Y-98569860D01*
X139315880Y-98569860D01*
X139315880Y-98593860D01*
X139965880Y-98593860D01*
X139965880Y-98569860D01*
X140215880Y-98569860D01*
X140215880Y-98593860D01*
X140264880Y-98593860D01*
X140264880Y-98893860D01*
X140215880Y-98893860D01*
X140215880Y-99268860D01*
X140290880Y-99343860D01*
X140400553Y-99343860D01*
X140510816Y-99298188D01*
X140539137Y-99269867D01*
X140623826Y-99326453D01*
X140740880Y-99349737D01*
X141240880Y-99349737D01*
X141240880Y-99393860D01*
X141315880Y-99468860D01*
X141690880Y-99468860D01*
X141690880Y-99118860D01*
X141654332Y-99082312D01*
X141729264Y-99032244D01*
X141751582Y-98998842D01*
X142056565Y-98693860D01*
X142110227Y-98693860D01*
X142330753Y-98602516D01*
X142433121Y-98500148D01*
X142435897Y-98502003D01*
X142971877Y-99037983D01*
X142640880Y-99037983D01*
X142523826Y-99061267D01*
X142424592Y-99127572D01*
X142394257Y-99172973D01*
X142310817Y-99089532D01*
X142200554Y-99043860D01*
X142065880Y-99043860D01*
X141990880Y-99118860D01*
X141990880Y-99468860D01*
X142014880Y-99468860D01*
X142014880Y-99718860D01*
X141990880Y-99718860D01*
X141990880Y-100068860D01*
X142065880Y-100143860D01*
X142200554Y-100143860D01*
X142271905Y-100114306D01*
X142182733Y-100203478D01*
X142067496Y-100280476D01*
X142045181Y-100313873D01*
X141700896Y-100658160D01*
X141667497Y-100680476D01*
X141579089Y-100812788D01*
X141564473Y-100886267D01*
X141563039Y-100893474D01*
X141474592Y-100952572D01*
X141408287Y-101051806D01*
X141389881Y-101144338D01*
X141355747Y-101110204D01*
X141135221Y-101018860D01*
X140896527Y-101018860D01*
X140676001Y-101110204D01*
X140507218Y-101278987D01*
X140415874Y-101499513D01*
X140415874Y-101738207D01*
X140507218Y-101958733D01*
X140629853Y-102081368D01*
X140507224Y-102203997D01*
X140415880Y-102424523D01*
X140415880Y-102663217D01*
X140507224Y-102883743D01*
X140676007Y-103052526D01*
X140896533Y-103143870D01*
X141135227Y-103143870D01*
X141195607Y-103118860D01*
X141540880Y-103118860D01*
X141540880Y-103069860D01*
X141840880Y-103069860D01*
X141840880Y-103118860D01*
X141864880Y-103118860D01*
X141864880Y-103368860D01*
X141840880Y-103368860D01*
X141840880Y-103718860D01*
X141915880Y-103793860D01*
X142050554Y-103793860D01*
X142160817Y-103748188D01*
X142244257Y-103664747D01*
X142274592Y-103710148D01*
X142373826Y-103776453D01*
X142490880Y-103799737D01*
X143090880Y-103799737D01*
X143207934Y-103776453D01*
X143307168Y-103710148D01*
X143373473Y-103610914D01*
X143396757Y-103493860D01*
X143396757Y-103143860D01*
X143510227Y-103143860D01*
X143730753Y-103052516D01*
X143899536Y-102883733D01*
X143910907Y-102856282D01*
X144099887Y-102934559D01*
X144338581Y-102934559D01*
X144559107Y-102843215D01*
X144640848Y-102761474D01*
X144640848Y-104328207D01*
X143060899Y-105908157D01*
X143027496Y-105930476D01*
X142960202Y-106031191D01*
X142939089Y-106062789D01*
X142908044Y-106218860D01*
X142915880Y-106258254D01*
X142915881Y-108293950D01*
X142828826Y-108311267D01*
X142729592Y-108377572D01*
X142663287Y-108476806D01*
X142640003Y-108593860D01*
X142640003Y-110293860D01*
X142663287Y-110410914D01*
X142729592Y-110510148D01*
X142742631Y-110518860D01*
X124536846Y-110518860D01*
X123896065Y-110446985D01*
X123307055Y-110241870D01*
X122778127Y-109911359D01*
X122335566Y-109471877D01*
X122148937Y-109177795D01*
X122202206Y-109199860D01*
X122532880Y-109199860D01*
X122607880Y-109124860D01*
X122607880Y-108253860D01*
X122036880Y-108253860D01*
X121961880Y-108328860D01*
X121961880Y-108834366D01*
X121792148Y-108357704D01*
X121718690Y-107741666D01*
X121723003Y-107719983D01*
X121758812Y-107712860D01*
X121961880Y-107712860D01*
X121961880Y-107870860D01*
X122036880Y-107945860D01*
X122607880Y-107945860D01*
X122607880Y-107925860D01*
X122915880Y-107925860D01*
X122915880Y-107945860D01*
X122935880Y-107945860D01*
X122935880Y-108253860D01*
X122915880Y-108253860D01*
X122915880Y-109124860D01*
X122990880Y-109199860D01*
X123321554Y-109199860D01*
X123431817Y-109154188D01*
X123516208Y-109069796D01*
X123561880Y-108959533D01*
X123561880Y-108328860D01*
X123486882Y-108253862D01*
X123561880Y-108253862D01*
X123561880Y-108122150D01*
X123732245Y-108292515D01*
X124075897Y-108434860D01*
X124447863Y-108434860D01*
X124791515Y-108292515D01*
X124961880Y-108122150D01*
X124961880Y-108253862D01*
X125036878Y-108253862D01*
X124961880Y-108328860D01*
X124961880Y-108959533D01*
X125007552Y-109069796D01*
X125091943Y-109154188D01*
X125202206Y-109199860D01*
X125532880Y-109199860D01*
X125607880Y-109124860D01*
X125607880Y-108253860D01*
X125915880Y-108253860D01*
X125915880Y-109124860D01*
X125990880Y-109199860D01*
X126321554Y-109199860D01*
X126431817Y-109154188D01*
X126516208Y-109069796D01*
X126561880Y-108959533D01*
X126561880Y-108328860D01*
X126486880Y-108253860D01*
X125915880Y-108253860D01*
X125607880Y-108253860D01*
X125587880Y-108253860D01*
X125587880Y-107945860D01*
X125607880Y-107945860D01*
X125607880Y-107925860D01*
X125915880Y-107925860D01*
X125915880Y-107945860D01*
X126486880Y-107945860D01*
X126561880Y-107870860D01*
X126561880Y-107720480D01*
X127229971Y-107720480D01*
X127266193Y-107713275D01*
X127266199Y-107713275D01*
X127460602Y-107674605D01*
X127460603Y-107674605D01*
X127595782Y-107618612D01*
X127760590Y-107508491D01*
X127835827Y-107433253D01*
X127864051Y-107405029D01*
X127974172Y-107240222D01*
X128008012Y-107158525D01*
X128030166Y-107105042D01*
X128068835Y-106910638D01*
X128068835Y-106910633D01*
X128076040Y-106874411D01*
X128076040Y-105274513D01*
X128615880Y-105274513D01*
X128615880Y-105513207D01*
X128707224Y-105733733D01*
X128876007Y-105902516D01*
X129096533Y-105993860D01*
X129335227Y-105993860D01*
X129501186Y-105925118D01*
X129524592Y-105960148D01*
X129623826Y-106026453D01*
X129740880Y-106049737D01*
X130088266Y-106049737D01*
X130015872Y-106224513D01*
X130015872Y-106463207D01*
X130107216Y-106683733D01*
X130215881Y-106792398D01*
X130215881Y-106799984D01*
X130174592Y-106827572D01*
X130108287Y-106926806D01*
X130085003Y-107043860D01*
X130085003Y-107743860D01*
X130108287Y-107860914D01*
X130174592Y-107960148D01*
X130273826Y-108026453D01*
X130390880Y-108049737D01*
X130840880Y-108049737D01*
X130957934Y-108026453D01*
X131057168Y-107960148D01*
X131123473Y-107860914D01*
X131146757Y-107743860D01*
X131146757Y-107043860D01*
X131123473Y-106926806D01*
X131057168Y-106827572D01*
X131015880Y-106799985D01*
X131015880Y-106792381D01*
X131124528Y-106683733D01*
X131149057Y-106624513D01*
X139390880Y-106624513D01*
X139390880Y-106863207D01*
X139482224Y-107083733D01*
X139651007Y-107252516D01*
X139871533Y-107343860D01*
X140110227Y-107343860D01*
X140330753Y-107252516D01*
X140439409Y-107143860D01*
X141370003Y-107143860D01*
X141370003Y-107593860D01*
X141393287Y-107710914D01*
X141459592Y-107810148D01*
X141558826Y-107876453D01*
X141675880Y-107899737D01*
X142415880Y-107899737D01*
X142532934Y-107876453D01*
X142632168Y-107810148D01*
X142698473Y-107710914D01*
X142721757Y-107593860D01*
X142721757Y-105893860D01*
X142698473Y-105776806D01*
X142632168Y-105677572D01*
X142532934Y-105611267D01*
X142415880Y-105587983D01*
X141675880Y-105587983D01*
X141558826Y-105611267D01*
X141459592Y-105677572D01*
X141393287Y-105776806D01*
X141370003Y-105893860D01*
X141370003Y-106343860D01*
X140439409Y-106343860D01*
X140330753Y-106235204D01*
X140110227Y-106143860D01*
X139871533Y-106143860D01*
X139651007Y-106235204D01*
X139482224Y-106403987D01*
X139390880Y-106624513D01*
X131149057Y-106624513D01*
X131215872Y-106463207D01*
X131215872Y-106224513D01*
X131124528Y-106003987D01*
X131121391Y-106000850D01*
X131153380Y-105968860D01*
X131153380Y-105547860D01*
X131378380Y-105547860D01*
X131378380Y-105968860D01*
X131453380Y-106043860D01*
X131550554Y-106043860D01*
X131660817Y-105998188D01*
X131745208Y-105913796D01*
X131790880Y-105803533D01*
X131790880Y-105622860D01*
X131715880Y-105547860D01*
X131378380Y-105547860D01*
X131153380Y-105547860D01*
X130815880Y-105547860D01*
X130740880Y-105622860D01*
X130740880Y-105746205D01*
X130735219Y-105743860D01*
X130496757Y-105743860D01*
X130496757Y-105043860D01*
X130484888Y-104984187D01*
X130740880Y-104984187D01*
X130740880Y-105164860D01*
X130815880Y-105239860D01*
X131153380Y-105239860D01*
X131153380Y-104818860D01*
X131378380Y-104818860D01*
X131378380Y-105239860D01*
X131715880Y-105239860D01*
X131790880Y-105164860D01*
X131790880Y-104984187D01*
X131745208Y-104873924D01*
X131660817Y-104789532D01*
X131550554Y-104743860D01*
X131453380Y-104743860D01*
X131378380Y-104818860D01*
X131153380Y-104818860D01*
X131078380Y-104743860D01*
X130981206Y-104743860D01*
X130870943Y-104789532D01*
X130786552Y-104873924D01*
X130740880Y-104984187D01*
X130484888Y-104984187D01*
X130473473Y-104926806D01*
X130407168Y-104827572D01*
X130307934Y-104761267D01*
X130190880Y-104737983D01*
X129740880Y-104737983D01*
X129623826Y-104761267D01*
X129524592Y-104827572D01*
X129501186Y-104862602D01*
X129335227Y-104793860D01*
X129096533Y-104793860D01*
X128876007Y-104885204D01*
X128707224Y-105053987D01*
X128615880Y-105274513D01*
X128076040Y-105274513D01*
X128076040Y-104268860D01*
X129465880Y-104268860D01*
X129465880Y-104378533D01*
X129511552Y-104488796D01*
X129595943Y-104573188D01*
X129706206Y-104618860D01*
X129840880Y-104618860D01*
X129915880Y-104543860D01*
X129915880Y-104193860D01*
X129540880Y-104193860D01*
X129465880Y-104268860D01*
X128076040Y-104268860D01*
X128076040Y-103868860D01*
X129465880Y-103868860D01*
X129540880Y-103943860D01*
X129915880Y-103943860D01*
X129915880Y-103894860D01*
X130215880Y-103894860D01*
X130215880Y-103943860D01*
X130239880Y-103943860D01*
X130239880Y-104193860D01*
X130215880Y-104193860D01*
X130215880Y-104543860D01*
X130290880Y-104618860D01*
X130425554Y-104618860D01*
X130535817Y-104573188D01*
X130619257Y-104489747D01*
X130649592Y-104535148D01*
X130748826Y-104601453D01*
X130865880Y-104624737D01*
X131465880Y-104624737D01*
X131543184Y-104609360D01*
X131807851Y-104609360D01*
X131826007Y-104627516D01*
X132046533Y-104718860D01*
X132285227Y-104718860D01*
X132505753Y-104627516D01*
X132674536Y-104458733D01*
X132765880Y-104238207D01*
X132765880Y-103999513D01*
X132674536Y-103778987D01*
X132505753Y-103610204D01*
X132285227Y-103518860D01*
X132190880Y-103518860D01*
X132190880Y-102410360D01*
X132215880Y-102410360D01*
X132215880Y-103141033D01*
X132261552Y-103251296D01*
X132345943Y-103335688D01*
X132456206Y-103381360D01*
X132886880Y-103381360D01*
X132961880Y-103306360D01*
X132961880Y-102335360D01*
X133269880Y-102335360D01*
X133269880Y-103306360D01*
X133344880Y-103381360D01*
X133775554Y-103381360D01*
X133885817Y-103335688D01*
X133970208Y-103251296D01*
X134015880Y-103141033D01*
X134015880Y-102410360D01*
X135815880Y-102410360D01*
X135815880Y-103141033D01*
X135861552Y-103251296D01*
X135945943Y-103335688D01*
X136056206Y-103381360D01*
X136486880Y-103381360D01*
X136561880Y-103306360D01*
X136561880Y-102335360D01*
X136869880Y-102335360D01*
X136869880Y-103306360D01*
X136944880Y-103381360D01*
X137375554Y-103381360D01*
X137485817Y-103335688D01*
X137570208Y-103251296D01*
X137615880Y-103141033D01*
X137615880Y-102868860D01*
X137940880Y-102868860D01*
X137940880Y-102978533D01*
X137986552Y-103088796D01*
X138070943Y-103173188D01*
X138181206Y-103218860D01*
X138315880Y-103218860D01*
X138390880Y-103143860D01*
X138390880Y-102793860D01*
X138015880Y-102793860D01*
X137940880Y-102868860D01*
X137615880Y-102868860D01*
X137615880Y-102410360D01*
X137540880Y-102335360D01*
X136869880Y-102335360D01*
X136561880Y-102335360D01*
X135890880Y-102335360D01*
X135815880Y-102410360D01*
X134015880Y-102410360D01*
X133940880Y-102335360D01*
X133269880Y-102335360D01*
X132961880Y-102335360D01*
X132290880Y-102335360D01*
X132215880Y-102410360D01*
X132190880Y-102410360D01*
X132190880Y-101221687D01*
X132215880Y-101221687D01*
X132215880Y-101952360D01*
X132290880Y-102027360D01*
X132961880Y-102027360D01*
X132961880Y-101056360D01*
X133269880Y-101056360D01*
X133269880Y-102027360D01*
X133940880Y-102027360D01*
X134015880Y-101952360D01*
X134015880Y-101221687D01*
X135815880Y-101221687D01*
X135815880Y-101952360D01*
X135890880Y-102027360D01*
X136561880Y-102027360D01*
X136561880Y-101056360D01*
X136869880Y-101056360D01*
X136869880Y-102027360D01*
X137540880Y-102027360D01*
X137615880Y-101952360D01*
X137615880Y-101221687D01*
X137570208Y-101111424D01*
X137485817Y-101027032D01*
X137375554Y-100981360D01*
X136944880Y-100981360D01*
X136869880Y-101056360D01*
X136561880Y-101056360D01*
X136486880Y-100981360D01*
X136056206Y-100981360D01*
X135945943Y-101027032D01*
X135861552Y-101111424D01*
X135815880Y-101221687D01*
X134015880Y-101221687D01*
X133970208Y-101111424D01*
X133885817Y-101027032D01*
X133775554Y-100981360D01*
X133344880Y-100981360D01*
X133269880Y-101056360D01*
X132961880Y-101056360D01*
X132886880Y-100981360D01*
X132456206Y-100981360D01*
X132345943Y-101027032D01*
X132261552Y-101111424D01*
X132215880Y-101221687D01*
X132190880Y-101221687D01*
X132190880Y-99243860D01*
X132168044Y-99129055D01*
X132103012Y-99031728D01*
X132005685Y-98966696D01*
X131890880Y-98943860D01*
X131671757Y-98943860D01*
X131671757Y-98796860D01*
X133810003Y-98796860D01*
X133810003Y-99081360D01*
X133833287Y-99198414D01*
X133899592Y-99297648D01*
X133998826Y-99363953D01*
X134115880Y-99387237D01*
X134715880Y-99387237D01*
X134832934Y-99363953D01*
X134917622Y-99307367D01*
X134945943Y-99335688D01*
X135056206Y-99381360D01*
X135190880Y-99381360D01*
X135265880Y-99306360D01*
X135265880Y-98460360D01*
X135565880Y-98460360D01*
X135565880Y-99306360D01*
X135640880Y-99381360D01*
X135775554Y-99381360D01*
X135885817Y-99335688D01*
X135970208Y-99251296D01*
X136015880Y-99141033D01*
X136015880Y-98535360D01*
X135940880Y-98460360D01*
X135565880Y-98460360D01*
X135265880Y-98460360D01*
X135241880Y-98460360D01*
X135241880Y-98152360D01*
X135265880Y-98152360D01*
X135265880Y-97306360D01*
X135565880Y-97306360D01*
X135565880Y-98152360D01*
X135940880Y-98152360D01*
X136015880Y-98077360D01*
X136015880Y-97471687D01*
X135970208Y-97361424D01*
X135885817Y-97277032D01*
X135775554Y-97231360D01*
X135640880Y-97231360D01*
X135565880Y-97306360D01*
X135265880Y-97306360D01*
X135190880Y-97231360D01*
X135056206Y-97231360D01*
X134945943Y-97277032D01*
X134917622Y-97305353D01*
X134906380Y-97297841D01*
X134906380Y-96868860D01*
X136390880Y-96868860D01*
X136390880Y-97003534D01*
X136436552Y-97113797D01*
X136520944Y-97198188D01*
X136631207Y-97243860D01*
X136740880Y-97243860D01*
X136815880Y-97168860D01*
X136815880Y-96793860D01*
X137065880Y-96793860D01*
X137065880Y-97168860D01*
X137140880Y-97243860D01*
X137250553Y-97243860D01*
X137360816Y-97198188D01*
X137390880Y-97168124D01*
X137420944Y-97198188D01*
X137531207Y-97243860D01*
X137640880Y-97243860D01*
X137715880Y-97168860D01*
X137715880Y-96793860D01*
X137065880Y-96793860D01*
X136815880Y-96793860D01*
X136465880Y-96793860D01*
X136390880Y-96868860D01*
X134906380Y-96868860D01*
X134906380Y-96649737D01*
X134915880Y-96649737D01*
X135032934Y-96626453D01*
X135132168Y-96560148D01*
X135198473Y-96460914D01*
X135221757Y-96343860D01*
X135221757Y-95843860D01*
X135198473Y-95726806D01*
X135132168Y-95627572D01*
X135106380Y-95610341D01*
X135106380Y-94992161D01*
X135115988Y-94943859D01*
X135106380Y-94895557D01*
X135106380Y-94895553D01*
X135096757Y-94847176D01*
X135096757Y-94263860D01*
X135073473Y-94146806D01*
X135007168Y-94047572D01*
X134907934Y-93981267D01*
X134790880Y-93957983D01*
X134140880Y-93957983D01*
X134023826Y-93981267D01*
X133992733Y-94002042D01*
X133900553Y-93963860D01*
X133744880Y-93963860D01*
X133669880Y-94038860D01*
X133669880Y-94639860D01*
X133689880Y-94639860D01*
X133689880Y-94947860D01*
X133669880Y-94947860D01*
X133669880Y-95548860D01*
X133702880Y-95581860D01*
X133665880Y-95618860D01*
X133665880Y-95968860D01*
X133689880Y-95968860D01*
X133689880Y-96218860D01*
X133665880Y-96218860D01*
X133665880Y-96568860D01*
X133740880Y-96643860D01*
X133875554Y-96643860D01*
X133925381Y-96623221D01*
X133925381Y-97297841D01*
X133899592Y-97315072D01*
X133833287Y-97414306D01*
X133810003Y-97531360D01*
X133810003Y-97815860D01*
X132942409Y-97815860D01*
X133049536Y-97708733D01*
X133140880Y-97488207D01*
X133140880Y-97249513D01*
X133049536Y-97028987D01*
X132880753Y-96860204D01*
X132660227Y-96768860D01*
X132421533Y-96768860D01*
X132201007Y-96860204D01*
X132067351Y-96993860D01*
X131876460Y-96993860D01*
X131832168Y-96927572D01*
X131732934Y-96861267D01*
X131615880Y-96837983D01*
X131546021Y-96837983D01*
X131595208Y-96788797D01*
X131640880Y-96678534D01*
X131640880Y-96447860D01*
X131565880Y-96372860D01*
X131169880Y-96372860D01*
X131169880Y-96392860D01*
X130861880Y-96392860D01*
X130861880Y-96372860D01*
X130841880Y-96372860D01*
X130841880Y-96293860D01*
X132915880Y-96293860D01*
X132915880Y-96403533D01*
X132961552Y-96513796D01*
X133045943Y-96598188D01*
X133156206Y-96643860D01*
X133290880Y-96643860D01*
X133365880Y-96568860D01*
X133365880Y-96218860D01*
X132990880Y-96218860D01*
X132915880Y-96293860D01*
X130841880Y-96293860D01*
X130841880Y-96064860D01*
X130861880Y-96064860D01*
X130861880Y-95593860D01*
X131169880Y-95593860D01*
X131169880Y-96064860D01*
X131565880Y-96064860D01*
X131640880Y-95989860D01*
X131640880Y-95759186D01*
X131595208Y-95648923D01*
X131510816Y-95564532D01*
X131400553Y-95518860D01*
X131244880Y-95518860D01*
X131169880Y-95593860D01*
X130861880Y-95593860D01*
X130786880Y-95518860D01*
X130631207Y-95518860D01*
X130595266Y-95533747D01*
X130490880Y-95512983D01*
X129840880Y-95512983D01*
X129723826Y-95536267D01*
X129624592Y-95602572D01*
X129558287Y-95701806D01*
X129535003Y-95818860D01*
X129535003Y-96618860D01*
X129558287Y-96735914D01*
X129624592Y-96835148D01*
X129723826Y-96901453D01*
X129735274Y-96903730D01*
X129699592Y-96927572D01*
X129633287Y-97026806D01*
X129610003Y-97143860D01*
X129610003Y-97643860D01*
X129633287Y-97760914D01*
X129699592Y-97860148D01*
X129798826Y-97926453D01*
X129915880Y-97949737D01*
X130515880Y-97949737D01*
X130632934Y-97926453D01*
X130732168Y-97860148D01*
X130765880Y-97809694D01*
X130799592Y-97860148D01*
X130898826Y-97926453D01*
X131015880Y-97949737D01*
X131054229Y-97949737D01*
X131049750Y-97952730D01*
X131022388Y-97993680D01*
X131003085Y-98012983D01*
X130615880Y-98012983D01*
X130498826Y-98036267D01*
X130399592Y-98102572D01*
X130333287Y-98201806D01*
X130310003Y-98318860D01*
X130310003Y-98943860D01*
X128076040Y-98943860D01*
X128076040Y-94624513D01*
X128715880Y-94624513D01*
X128715880Y-94863207D01*
X128807224Y-95083733D01*
X128976007Y-95252516D01*
X129196533Y-95343860D01*
X129435227Y-95343860D01*
X129588103Y-95280537D01*
X129624592Y-95335148D01*
X129723826Y-95401453D01*
X129840880Y-95424737D01*
X130490880Y-95424737D01*
X130590880Y-95404845D01*
X130690880Y-95424737D01*
X131340880Y-95424737D01*
X131457934Y-95401453D01*
X131557168Y-95335148D01*
X131623473Y-95235914D01*
X131646757Y-95118860D01*
X131646757Y-94318860D01*
X131623473Y-94201806D01*
X131557168Y-94102572D01*
X131530413Y-94084695D01*
X131576486Y-94093860D01*
X131576487Y-94093860D01*
X131615879Y-94101696D01*
X131655272Y-94093860D01*
X131993664Y-94093860D01*
X131958287Y-94146806D01*
X131935003Y-94263860D01*
X131935003Y-95323860D01*
X131958287Y-95440914D01*
X132024592Y-95540148D01*
X132123826Y-95606453D01*
X132240880Y-95629737D01*
X132890880Y-95629737D01*
X133007934Y-95606453D01*
X133039027Y-95585678D01*
X133047137Y-95589037D01*
X133045943Y-95589532D01*
X132961552Y-95673924D01*
X132915880Y-95784187D01*
X132915880Y-95893860D01*
X132990880Y-95968860D01*
X133365880Y-95968860D01*
X133365880Y-95618860D01*
X133328880Y-95581860D01*
X133361880Y-95548860D01*
X133361880Y-94947860D01*
X133341880Y-94947860D01*
X133341880Y-94639860D01*
X133361880Y-94639860D01*
X133361880Y-94038860D01*
X133286880Y-93963860D01*
X133131207Y-93963860D01*
X133067558Y-93990224D01*
X133140880Y-93813207D01*
X133140880Y-93574513D01*
X133057539Y-93373308D01*
X133107168Y-93340148D01*
X133173473Y-93240914D01*
X133196757Y-93123860D01*
X133196757Y-92063860D01*
X133173473Y-91946806D01*
X133107168Y-91847572D01*
X133007934Y-91781267D01*
X132890880Y-91757983D01*
X132240880Y-91757983D01*
X132123826Y-91781267D01*
X132024592Y-91847572D01*
X131958287Y-91946806D01*
X131935003Y-92063860D01*
X131935003Y-92093860D01*
X131876460Y-92093860D01*
X131832168Y-92027572D01*
X131732934Y-91961267D01*
X131615880Y-91937983D01*
X131015880Y-91937983D01*
X130898826Y-91961267D01*
X130799592Y-92027572D01*
X130769257Y-92072973D01*
X130685817Y-91989532D01*
X130575554Y-91943860D01*
X130440880Y-91943860D01*
X130365880Y-92018860D01*
X130365880Y-92368860D01*
X130389880Y-92368860D01*
X130389880Y-92618860D01*
X130365880Y-92618860D01*
X130365880Y-92667860D01*
X130065880Y-92667860D01*
X130065880Y-92618860D01*
X129690880Y-92618860D01*
X129615880Y-92693860D01*
X129615880Y-92803533D01*
X129661552Y-92913796D01*
X129689873Y-92942117D01*
X129633287Y-93026806D01*
X129610003Y-93143860D01*
X129610003Y-93643860D01*
X129633287Y-93760914D01*
X129699592Y-93860148D01*
X129798826Y-93926453D01*
X129915880Y-93949737D01*
X130206073Y-93949737D01*
X130269319Y-94012983D01*
X129840880Y-94012983D01*
X129723826Y-94036267D01*
X129624592Y-94102572D01*
X129561936Y-94196344D01*
X129435227Y-94143860D01*
X129196533Y-94143860D01*
X128976007Y-94235204D01*
X128807224Y-94403987D01*
X128715880Y-94624513D01*
X128076040Y-94624513D01*
X128076040Y-92184187D01*
X129615880Y-92184187D01*
X129615880Y-92293860D01*
X129690880Y-92368860D01*
X130065880Y-92368860D01*
X130065880Y-92018860D01*
X129990880Y-91943860D01*
X129856206Y-91943860D01*
X129745943Y-91989532D01*
X129661552Y-92073924D01*
X129615880Y-92184187D01*
X128076040Y-92184187D01*
X128076040Y-90624647D01*
X128384220Y-90624647D01*
X128384220Y-91155320D01*
X128429892Y-91265583D01*
X128514283Y-91349975D01*
X128624546Y-91395647D01*
X129255220Y-91395647D01*
X129330220Y-91320647D01*
X129330220Y-90549647D01*
X129638220Y-90549647D01*
X129638220Y-91320647D01*
X129713220Y-91395647D01*
X130343894Y-91395647D01*
X130454157Y-91349975D01*
X130538548Y-91265583D01*
X130584220Y-91155320D01*
X130584220Y-90849647D01*
X130884220Y-90849647D01*
X130884220Y-91355320D01*
X130929892Y-91465583D01*
X131014283Y-91549975D01*
X131124546Y-91595647D01*
X131209220Y-91595647D01*
X131284220Y-91520647D01*
X131284220Y-90774647D01*
X130959220Y-90774647D01*
X130884220Y-90849647D01*
X130584220Y-90849647D01*
X130584220Y-90624647D01*
X130509220Y-90549647D01*
X129638220Y-90549647D01*
X129330220Y-90549647D01*
X128459220Y-90549647D01*
X128384220Y-90624647D01*
X128076040Y-90624647D01*
X128076040Y-89635974D01*
X128384220Y-89635974D01*
X128384220Y-90166647D01*
X128459220Y-90241647D01*
X129330220Y-90241647D01*
X129330220Y-89470647D01*
X129638220Y-89470647D01*
X129638220Y-90241647D01*
X130509220Y-90241647D01*
X130584220Y-90166647D01*
X130584220Y-89885974D01*
X130884220Y-89885974D01*
X130884220Y-90391647D01*
X130959220Y-90466647D01*
X131284220Y-90466647D01*
X131284220Y-89720647D01*
X131484220Y-89720647D01*
X131484220Y-90466647D01*
X131528343Y-90466647D01*
X131528343Y-90774647D01*
X131484220Y-90774647D01*
X131484220Y-91520647D01*
X131559220Y-91595647D01*
X131643894Y-91595647D01*
X131705208Y-91570250D01*
X131717166Y-91578240D01*
X131834220Y-91601524D01*
X132234220Y-91601524D01*
X132351274Y-91578240D01*
X132359220Y-91572931D01*
X132367166Y-91578240D01*
X132484220Y-91601524D01*
X132884220Y-91601524D01*
X133001274Y-91578240D01*
X133009220Y-91572931D01*
X133017166Y-91578240D01*
X133134220Y-91601524D01*
X133493721Y-91601524D01*
X133493721Y-92040922D01*
X133484199Y-92084519D01*
X133493721Y-92137548D01*
X133493721Y-92142167D01*
X133502247Y-92185031D01*
X133518686Y-92276579D01*
X133521254Y-92280582D01*
X133522181Y-92285243D01*
X133573816Y-92362520D01*
X133597452Y-92399366D01*
X133600662Y-92402699D01*
X133630591Y-92447490D01*
X133667691Y-92472279D01*
X133835003Y-92645962D01*
X133835003Y-93123860D01*
X133858287Y-93240914D01*
X133924592Y-93340148D01*
X134023826Y-93406453D01*
X134140880Y-93429737D01*
X134790880Y-93429737D01*
X134907934Y-93406453D01*
X135007168Y-93340148D01*
X135073473Y-93240914D01*
X135096757Y-93123860D01*
X135096757Y-93023266D01*
X135176007Y-93102516D01*
X135396533Y-93193860D01*
X135635227Y-93193860D01*
X135658579Y-93184187D01*
X137240880Y-93184187D01*
X137240880Y-93293860D01*
X137315880Y-93368860D01*
X137690880Y-93368860D01*
X137690880Y-93088860D01*
X137710880Y-93068860D01*
X137710880Y-92718860D01*
X137335880Y-92718860D01*
X137260880Y-92793860D01*
X137260880Y-92903533D01*
X137306552Y-93013796D01*
X137326616Y-93033860D01*
X137286552Y-93073924D01*
X137240880Y-93184187D01*
X135658579Y-93184187D01*
X135855753Y-93102516D01*
X136024536Y-92933733D01*
X136115880Y-92713207D01*
X136115880Y-92474513D01*
X136024536Y-92253987D01*
X135855753Y-92085204D01*
X135635227Y-91993860D01*
X135396533Y-91993860D01*
X135176007Y-92085204D01*
X135096757Y-92164454D01*
X135096757Y-92063860D01*
X135073473Y-91946806D01*
X135007168Y-91847572D01*
X134907934Y-91781267D01*
X134790880Y-91757983D01*
X134474720Y-91757983D01*
X134474720Y-91372951D01*
X134490097Y-91295647D01*
X134490097Y-90624647D01*
X134784220Y-90624647D01*
X134784220Y-91155320D01*
X134829892Y-91265583D01*
X134914283Y-91349975D01*
X135024546Y-91395647D01*
X135655220Y-91395647D01*
X135730220Y-91320647D01*
X135730220Y-90549647D01*
X136038220Y-90549647D01*
X136038220Y-91320647D01*
X136113220Y-91395647D01*
X136743894Y-91395647D01*
X136854157Y-91349975D01*
X136938548Y-91265583D01*
X136984220Y-91155320D01*
X136984220Y-90624647D01*
X136909220Y-90549647D01*
X136038220Y-90549647D01*
X135730220Y-90549647D01*
X134859220Y-90549647D01*
X134784220Y-90624647D01*
X134490097Y-90624647D01*
X134490097Y-89945647D01*
X134466813Y-89828593D01*
X134400508Y-89729359D01*
X134301274Y-89663054D01*
X134184220Y-89639770D01*
X133784220Y-89639770D01*
X133667166Y-89663054D01*
X133659220Y-89668363D01*
X133651274Y-89663054D01*
X133534220Y-89639770D01*
X133134220Y-89639770D01*
X133017166Y-89663054D01*
X133009220Y-89668363D01*
X133001274Y-89663054D01*
X132884220Y-89639770D01*
X132484220Y-89639770D01*
X132367166Y-89663054D01*
X132359220Y-89668363D01*
X132351274Y-89663054D01*
X132234220Y-89639770D01*
X131834220Y-89639770D01*
X131717166Y-89663054D01*
X131705208Y-89671044D01*
X131643894Y-89645647D01*
X131559220Y-89645647D01*
X131484220Y-89720647D01*
X131284220Y-89720647D01*
X131209220Y-89645647D01*
X131124546Y-89645647D01*
X131014283Y-89691319D01*
X130929892Y-89775711D01*
X130884220Y-89885974D01*
X130584220Y-89885974D01*
X130584220Y-89635974D01*
X134784220Y-89635974D01*
X134784220Y-90166647D01*
X134859220Y-90241647D01*
X135730220Y-90241647D01*
X135730220Y-89470647D01*
X136038220Y-89470647D01*
X136038220Y-90241647D01*
X136909220Y-90241647D01*
X136984220Y-90166647D01*
X136984220Y-89635974D01*
X136938548Y-89525711D01*
X136854157Y-89441319D01*
X136743894Y-89395647D01*
X136113220Y-89395647D01*
X136038220Y-89470647D01*
X135730220Y-89470647D01*
X135655220Y-89395647D01*
X135024546Y-89395647D01*
X134914283Y-89441319D01*
X134829892Y-89525711D01*
X134784220Y-89635974D01*
X130584220Y-89635974D01*
X130538548Y-89525711D01*
X130454157Y-89441319D01*
X130343894Y-89395647D01*
X129713220Y-89395647D01*
X129638220Y-89470647D01*
X129330220Y-89470647D01*
X129255220Y-89395647D01*
X128624546Y-89395647D01*
X128514283Y-89441319D01*
X128429892Y-89525711D01*
X128384220Y-89635974D01*
X128076040Y-89635974D01*
X128076040Y-89528549D01*
X128068835Y-89492327D01*
X128068835Y-89492322D01*
X128030166Y-89297918D01*
X127991070Y-89203533D01*
X127974172Y-89162738D01*
X127864051Y-88997931D01*
X127799218Y-88933098D01*
X127760590Y-88894469D01*
X127595782Y-88784348D01*
X127460603Y-88728355D01*
X127460602Y-88728355D01*
X127266199Y-88689685D01*
X127266193Y-88689685D01*
X127229971Y-88682480D01*
X126561880Y-88682480D01*
X126561880Y-88516860D01*
X126486880Y-88441860D01*
X125915880Y-88441860D01*
X125915880Y-88461860D01*
X125607880Y-88461860D01*
X125607880Y-88441860D01*
X125036880Y-88441860D01*
X125024025Y-88454715D01*
X124821629Y-88252319D01*
X128432405Y-88252319D01*
X128494321Y-88401842D01*
X128736639Y-88707666D01*
X129077545Y-88897479D01*
X129230220Y-88858735D01*
X129230220Y-88099647D01*
X129538220Y-88099647D01*
X129538220Y-88858735D01*
X129690895Y-88897479D01*
X130031801Y-88707666D01*
X130234220Y-88452198D01*
X130234220Y-88955320D01*
X130279892Y-89065583D01*
X130364283Y-89149975D01*
X130474546Y-89195647D01*
X131255220Y-89195647D01*
X131330220Y-89120647D01*
X131330220Y-88099647D01*
X131638220Y-88099647D01*
X131638220Y-89120647D01*
X131713220Y-89195647D01*
X132493894Y-89195647D01*
X132604157Y-89149975D01*
X132684220Y-89069911D01*
X132764283Y-89149975D01*
X132874546Y-89195647D01*
X133655220Y-89195647D01*
X133730220Y-89120647D01*
X133730220Y-88099647D01*
X134038220Y-88099647D01*
X134038220Y-89120647D01*
X134113220Y-89195647D01*
X134893894Y-89195647D01*
X135004157Y-89149975D01*
X135088548Y-89065583D01*
X135134220Y-88955320D01*
X135134220Y-88452198D01*
X135336639Y-88707666D01*
X135677545Y-88897479D01*
X135830220Y-88858735D01*
X135830220Y-88099647D01*
X136138220Y-88099647D01*
X136138220Y-88858735D01*
X136290895Y-88897479D01*
X136631801Y-88707666D01*
X136874119Y-88401842D01*
X136936035Y-88252319D01*
X136920825Y-88193860D01*
X137190880Y-88193860D01*
X137190880Y-88303533D01*
X137236552Y-88413796D01*
X137266616Y-88443860D01*
X137236552Y-88473924D01*
X137190880Y-88584187D01*
X137190880Y-88693860D01*
X137265880Y-88768860D01*
X137640880Y-88768860D01*
X137640880Y-88118860D01*
X137265880Y-88118860D01*
X137190880Y-88193860D01*
X136920825Y-88193860D01*
X136896310Y-88099647D01*
X136138220Y-88099647D01*
X135830220Y-88099647D01*
X135072130Y-88099647D01*
X135069464Y-88109891D01*
X135059220Y-88099647D01*
X134038220Y-88099647D01*
X133730220Y-88099647D01*
X132709220Y-88099647D01*
X132684220Y-88124647D01*
X132659220Y-88099647D01*
X131638220Y-88099647D01*
X131330220Y-88099647D01*
X130309220Y-88099647D01*
X130298976Y-88109891D01*
X130296310Y-88099647D01*
X129538220Y-88099647D01*
X129230220Y-88099647D01*
X128472130Y-88099647D01*
X128432405Y-88252319D01*
X124821629Y-88252319D01*
X124791515Y-88222205D01*
X124447863Y-88079860D01*
X124075897Y-88079860D01*
X123732245Y-88222205D01*
X123499735Y-88454715D01*
X123486880Y-88441860D01*
X122915880Y-88441860D01*
X122915880Y-88461860D01*
X122607880Y-88461860D01*
X122607880Y-88441860D01*
X122036880Y-88441860D01*
X121961880Y-88516860D01*
X121961880Y-88674860D01*
X121758812Y-88674860D01*
X121723003Y-88667737D01*
X121720033Y-88652804D01*
X121787755Y-88049045D01*
X121961880Y-87549027D01*
X121961880Y-88058860D01*
X122036880Y-88133860D01*
X122607880Y-88133860D01*
X122607880Y-87262860D01*
X122915880Y-87262860D01*
X122915880Y-88133860D01*
X123486880Y-88133860D01*
X123561880Y-88058860D01*
X123561880Y-87428187D01*
X124961880Y-87428187D01*
X124961880Y-88058860D01*
X125036880Y-88133860D01*
X125607880Y-88133860D01*
X125607880Y-87262860D01*
X125915880Y-87262860D01*
X125915880Y-88133860D01*
X126486880Y-88133860D01*
X126561880Y-88058860D01*
X126561880Y-87638975D01*
X128432405Y-87638975D01*
X128472130Y-87791647D01*
X129230220Y-87791647D01*
X129230220Y-87032559D01*
X129538220Y-87032559D01*
X129538220Y-87791647D01*
X130296310Y-87791647D01*
X130298976Y-87781403D01*
X130309220Y-87791647D01*
X131330220Y-87791647D01*
X131330220Y-86770647D01*
X131638220Y-86770647D01*
X131638220Y-87791647D01*
X132659220Y-87791647D01*
X132684220Y-87766647D01*
X132709220Y-87791647D01*
X133730220Y-87791647D01*
X133730220Y-86770647D01*
X134038220Y-86770647D01*
X134038220Y-87791647D01*
X135059220Y-87791647D01*
X135069464Y-87781403D01*
X135072130Y-87791647D01*
X135830220Y-87791647D01*
X135830220Y-87032559D01*
X136138220Y-87032559D01*
X136138220Y-87791647D01*
X136896310Y-87791647D01*
X136924270Y-87684187D01*
X137190880Y-87684187D01*
X137190880Y-87793860D01*
X137265880Y-87868860D01*
X137640880Y-87868860D01*
X137640880Y-87518860D01*
X137565880Y-87443860D01*
X137431206Y-87443860D01*
X137320943Y-87489532D01*
X137236552Y-87573924D01*
X137190880Y-87684187D01*
X136924270Y-87684187D01*
X136936035Y-87638975D01*
X136874119Y-87489452D01*
X136631801Y-87183628D01*
X136290895Y-86993815D01*
X136138220Y-87032559D01*
X135830220Y-87032559D01*
X135677545Y-86993815D01*
X135336639Y-87183628D01*
X135134220Y-87439096D01*
X135134220Y-86935974D01*
X135088548Y-86825711D01*
X135025198Y-86762360D01*
X139835880Y-86762360D01*
X139835880Y-86810533D01*
X139862111Y-86873860D01*
X139835880Y-86937187D01*
X139835880Y-86985360D01*
X139910880Y-87060360D01*
X140481880Y-87060360D01*
X140481880Y-86687360D01*
X139910880Y-86687360D01*
X139835880Y-86762360D01*
X135025198Y-86762360D01*
X135004157Y-86741319D01*
X134893894Y-86695647D01*
X134113220Y-86695647D01*
X134038220Y-86770647D01*
X133730220Y-86770647D01*
X133655220Y-86695647D01*
X132874546Y-86695647D01*
X132764283Y-86741319D01*
X132684220Y-86821383D01*
X132604157Y-86741319D01*
X132493894Y-86695647D01*
X131713220Y-86695647D01*
X131638220Y-86770647D01*
X131330220Y-86770647D01*
X131255220Y-86695647D01*
X130474546Y-86695647D01*
X130364283Y-86741319D01*
X130279892Y-86825711D01*
X130234220Y-86935974D01*
X130234220Y-87439096D01*
X130031801Y-87183628D01*
X129690895Y-86993815D01*
X129538220Y-87032559D01*
X129230220Y-87032559D01*
X129077545Y-86993815D01*
X128736639Y-87183628D01*
X128494321Y-87489452D01*
X128432405Y-87638975D01*
X126561880Y-87638975D01*
X126561880Y-87428187D01*
X126516208Y-87317924D01*
X126431817Y-87233532D01*
X126321554Y-87187860D01*
X125990880Y-87187860D01*
X125915880Y-87262860D01*
X125607880Y-87262860D01*
X125532880Y-87187860D01*
X125202206Y-87187860D01*
X125091943Y-87233532D01*
X125007552Y-87317924D01*
X124961880Y-87428187D01*
X123561880Y-87428187D01*
X123516208Y-87317924D01*
X123431817Y-87233532D01*
X123321554Y-87187860D01*
X122990880Y-87187860D01*
X122915880Y-87262860D01*
X122607880Y-87262860D01*
X122532880Y-87187860D01*
X122202206Y-87187860D01*
X122149234Y-87209802D01*
X122323381Y-86931107D01*
X122762863Y-86488546D01*
X122843791Y-86437187D01*
X139835880Y-86437187D01*
X139835880Y-86485360D01*
X139910880Y-86560360D01*
X140481880Y-86560360D01*
X140481880Y-86271860D01*
X140406880Y-86196860D01*
X140076206Y-86196860D01*
X139965943Y-86242532D01*
X139881552Y-86326924D01*
X139835880Y-86437187D01*
X122843791Y-86437187D01*
X123289471Y-86154351D01*
X123877036Y-85945128D01*
X124516638Y-85868860D01*
X141237332Y-85868860D01*
X141234082Y-86212819D01*
X141234082Y-86212819D01*
G37*
X141234082Y-86212819D02*
X141195554Y-86196860D01*
X140864880Y-86196860D01*
X140789880Y-86271860D01*
X140789880Y-86560360D01*
X140809880Y-86560360D01*
X140809880Y-86687360D01*
X140789880Y-86687360D01*
X140789880Y-87060360D01*
X140809880Y-87060360D01*
X140809880Y-87187360D01*
X140789880Y-87187360D01*
X140789880Y-87190983D01*
X140481880Y-87190983D01*
X140481880Y-87187360D01*
X139910880Y-87187360D01*
X139835880Y-87262360D01*
X139835880Y-87310533D01*
X139860254Y-87369378D01*
X139853287Y-87379806D01*
X139830003Y-87496860D01*
X139830003Y-87750860D01*
X139853287Y-87867914D01*
X139860254Y-87878342D01*
X139835880Y-87937187D01*
X139835880Y-87985360D01*
X139910880Y-88060360D01*
X140481880Y-88060360D01*
X140481880Y-88056737D01*
X140789880Y-88056737D01*
X140789880Y-88060360D01*
X140809880Y-88060360D01*
X140809880Y-88187360D01*
X140789880Y-88187360D01*
X140789880Y-88190983D01*
X140481880Y-88190983D01*
X140481880Y-88187360D01*
X139910880Y-88187360D01*
X139835880Y-88262360D01*
X139835880Y-88310533D01*
X139860254Y-88369378D01*
X139853287Y-88379806D01*
X139830003Y-88496860D01*
X139830003Y-88750860D01*
X139853287Y-88867914D01*
X139860254Y-88878342D01*
X139835880Y-88937187D01*
X139835880Y-88985360D01*
X139910880Y-89060360D01*
X140481880Y-89060360D01*
X140481880Y-89056737D01*
X140789880Y-89056737D01*
X140789880Y-89060360D01*
X140809880Y-89060360D01*
X140809880Y-89187360D01*
X140789880Y-89187360D01*
X140789880Y-89190983D01*
X140481880Y-89190983D01*
X140481880Y-89187360D01*
X139982970Y-89187360D01*
X139979078Y-89183468D01*
X139758552Y-89092124D01*
X139519858Y-89092124D01*
X139496757Y-89101693D01*
X139496757Y-88643860D01*
X139473473Y-88526806D01*
X139418051Y-88443860D01*
X139473473Y-88360914D01*
X139496757Y-88243860D01*
X139496757Y-87743860D01*
X139473473Y-87626806D01*
X139407168Y-87527572D01*
X139307934Y-87461267D01*
X139190880Y-87437983D01*
X138590880Y-87437983D01*
X138473826Y-87461267D01*
X138374592Y-87527572D01*
X138344257Y-87572973D01*
X138260817Y-87489532D01*
X138150554Y-87443860D01*
X138015880Y-87443860D01*
X137940880Y-87518860D01*
X137940880Y-87868860D01*
X137964880Y-87868860D01*
X137964880Y-88118860D01*
X137940880Y-88118860D01*
X137940880Y-88768860D01*
X137964880Y-88768860D01*
X137964880Y-89018860D01*
X137940880Y-89018860D01*
X137940880Y-89067860D01*
X137640880Y-89067860D01*
X137640880Y-89018860D01*
X137265880Y-89018860D01*
X137190880Y-89093860D01*
X137190880Y-89203533D01*
X137236552Y-89313796D01*
X137264873Y-89342117D01*
X137208287Y-89426806D01*
X137185003Y-89543860D01*
X137185003Y-90043860D01*
X137208287Y-90160914D01*
X137263709Y-90243860D01*
X137208287Y-90326806D01*
X137185003Y-90443860D01*
X137185003Y-90943860D01*
X137208287Y-91060914D01*
X137274592Y-91160148D01*
X137373826Y-91226453D01*
X137390174Y-91229705D01*
X137414089Y-91349931D01*
X137417690Y-91355320D01*
X137502497Y-91482244D01*
X137535896Y-91504560D01*
X137590880Y-91559544D01*
X137590880Y-91713207D01*
X137682224Y-91933733D01*
X137792351Y-92043860D01*
X137706878Y-92043860D01*
X137706878Y-92114858D01*
X137635880Y-92043860D01*
X137501206Y-92043860D01*
X137390943Y-92089532D01*
X137306552Y-92173924D01*
X137260880Y-92284187D01*
X137260880Y-92393860D01*
X137335880Y-92468860D01*
X137710880Y-92468860D01*
X137710880Y-92419860D01*
X138010880Y-92419860D01*
X138010880Y-92468860D01*
X138034880Y-92468860D01*
X138034880Y-92718860D01*
X138010880Y-92718860D01*
X138010880Y-92998860D01*
X137990880Y-93018860D01*
X137990880Y-93368860D01*
X138014880Y-93368860D01*
X138014880Y-93618860D01*
X137990880Y-93618860D01*
X137990880Y-93667860D01*
X137690880Y-93667860D01*
X137690880Y-93618860D01*
X137315880Y-93618860D01*
X137240880Y-93693860D01*
X137240880Y-93803533D01*
X137282229Y-93903360D01*
X137189181Y-93903360D01*
X137140879Y-93893752D01*
X137092577Y-93903360D01*
X137092573Y-93903360D01*
X136949497Y-93931820D01*
X136819232Y-94018860D01*
X136796533Y-94018860D01*
X136576007Y-94110204D01*
X136407224Y-94278987D01*
X136315880Y-94499513D01*
X136315880Y-94738207D01*
X136407224Y-94958733D01*
X136450381Y-95001890D01*
X136450381Y-95063808D01*
X136408287Y-95126806D01*
X136385003Y-95243860D01*
X136385003Y-95843860D01*
X136408287Y-95960914D01*
X136474592Y-96060148D01*
X136519993Y-96090483D01*
X136436552Y-96173923D01*
X136390880Y-96284186D01*
X136390880Y-96418860D01*
X136465880Y-96493860D01*
X136815880Y-96493860D01*
X136815880Y-96469860D01*
X137065880Y-96469860D01*
X137065880Y-96493860D01*
X137715880Y-96493860D01*
X137715880Y-96469860D01*
X137965880Y-96469860D01*
X137965880Y-96493860D01*
X138014880Y-96493860D01*
X138014880Y-96793860D01*
X137965880Y-96793860D01*
X137965880Y-97168860D01*
X138040880Y-97243860D01*
X138150553Y-97243860D01*
X138260816Y-97198188D01*
X138345208Y-97113797D01*
X138390880Y-97003534D01*
X138390880Y-96911944D01*
X138606979Y-97128044D01*
X138629296Y-97161444D01*
X138645959Y-97172578D01*
X138599497Y-97181820D01*
X138596597Y-97183758D01*
X138478202Y-97262866D01*
X138478200Y-97262868D01*
X138437250Y-97290230D01*
X138409888Y-97331180D01*
X138247208Y-97493860D01*
X138221533Y-97493860D01*
X138001007Y-97585204D01*
X137832224Y-97753987D01*
X137740880Y-97974513D01*
X137740880Y-98213207D01*
X137832224Y-98433733D01*
X137850381Y-98451890D01*
X137850380Y-99920558D01*
X137840772Y-99968860D01*
X137850380Y-100017162D01*
X137850380Y-100017166D01*
X137878840Y-100160242D01*
X137918006Y-100218859D01*
X137935003Y-100244296D01*
X137935003Y-100418860D01*
X137950381Y-100496167D01*
X137950380Y-101154667D01*
X137978840Y-101297743D01*
X138087250Y-101459991D01*
X138150687Y-101502378D01*
X138130003Y-101606361D01*
X138130003Y-101856361D01*
X138153287Y-101973415D01*
X138219592Y-102072649D01*
X138288753Y-102118860D01*
X138181206Y-102118860D01*
X138070943Y-102164532D01*
X137986552Y-102248924D01*
X137940880Y-102359187D01*
X137940880Y-102468860D01*
X138015880Y-102543860D01*
X138390880Y-102543860D01*
X138390880Y-102494860D01*
X138690880Y-102494860D01*
X138690880Y-102543860D01*
X138714880Y-102543860D01*
X138714880Y-102793860D01*
X138690880Y-102793860D01*
X138690880Y-103120331D01*
X138557224Y-103253987D01*
X138465880Y-103474513D01*
X138465880Y-103713207D01*
X138557224Y-103933733D01*
X138726007Y-104102516D01*
X138946533Y-104193860D01*
X139185227Y-104193860D01*
X139405753Y-104102516D01*
X139431041Y-104077228D01*
X139538263Y-104055900D01*
X139700510Y-103947490D01*
X139727874Y-103906537D01*
X139953557Y-103680854D01*
X139994510Y-103653490D01*
X140034354Y-103593860D01*
X140061299Y-103553533D01*
X140102920Y-103491243D01*
X140112345Y-103443860D01*
X141090880Y-103443860D01*
X141090880Y-103553533D01*
X141136552Y-103663796D01*
X141220943Y-103748188D01*
X141331206Y-103793860D01*
X141465880Y-103793860D01*
X141540880Y-103718860D01*
X141540880Y-103368860D01*
X141165880Y-103368860D01*
X141090880Y-103443860D01*
X140112345Y-103443860D01*
X140131380Y-103348167D01*
X140131380Y-103348162D01*
X140140988Y-103299860D01*
X140131380Y-103251558D01*
X140131380Y-103152379D01*
X140157168Y-103135148D01*
X140223473Y-103035914D01*
X140246757Y-102918860D01*
X140246757Y-102418860D01*
X140223473Y-102301806D01*
X140157168Y-102202572D01*
X140131380Y-102185341D01*
X140131380Y-102029811D01*
X140202920Y-101922744D01*
X140231380Y-101779668D01*
X140231380Y-101779664D01*
X140240988Y-101731362D01*
X140231380Y-101683060D01*
X140231380Y-101058054D01*
X140202920Y-100914978D01*
X140094510Y-100752731D01*
X140027262Y-100707797D01*
X140110817Y-100673188D01*
X140195208Y-100588796D01*
X140240880Y-100478533D01*
X140240880Y-100368860D01*
X140165880Y-100293860D01*
X139790880Y-100293860D01*
X139790880Y-100342860D01*
X139490880Y-100342860D01*
X139490880Y-100293860D01*
X139466880Y-100293860D01*
X139466880Y-100043860D01*
X139490880Y-100043860D01*
X139490880Y-99693860D01*
X139790880Y-99693860D01*
X139790880Y-100043860D01*
X140165880Y-100043860D01*
X140240880Y-99968860D01*
X140240880Y-99859187D01*
X140213821Y-99793860D01*
X141240880Y-99793860D01*
X141240880Y-99903533D01*
X141286552Y-100013796D01*
X141370943Y-100098188D01*
X141481206Y-100143860D01*
X141615880Y-100143860D01*
X141690880Y-100068860D01*
X141690880Y-99718860D01*
X141315880Y-99718860D01*
X141240880Y-99793860D01*
X140213821Y-99793860D01*
X140195208Y-99748924D01*
X140110817Y-99664532D01*
X140000554Y-99618860D01*
X139865880Y-99618860D01*
X139790880Y-99693860D01*
X139490880Y-99693860D01*
X139415880Y-99618860D01*
X139281206Y-99618860D01*
X139170943Y-99664532D01*
X139087503Y-99747973D01*
X139057168Y-99702572D01*
X138957934Y-99636267D01*
X138840880Y-99612983D01*
X138831380Y-99612983D01*
X138831380Y-99323221D01*
X138881207Y-99343860D01*
X138990880Y-99343860D01*
X139065880Y-99268860D01*
X139065880Y-98893860D01*
X139315880Y-98893860D01*
X139315880Y-99268860D01*
X139390880Y-99343860D01*
X139500553Y-99343860D01*
X139610816Y-99298188D01*
X139640880Y-99268124D01*
X139670944Y-99298188D01*
X139781207Y-99343860D01*
X139890880Y-99343860D01*
X139965880Y-99268860D01*
X139965880Y-98893860D01*
X139315880Y-98893860D01*
X139065880Y-98893860D01*
X139016880Y-98893860D01*
X139016880Y-98593860D01*
X139065880Y-98593860D01*
X139065880Y-98569860D01*
X139315880Y-98569860D01*
X139315880Y-98593860D01*
X139965880Y-98593860D01*
X139965880Y-98569860D01*
X140215880Y-98569860D01*
X140215880Y-98593860D01*
X140264880Y-98593860D01*
X140264880Y-98893860D01*
X140215880Y-98893860D01*
X140215880Y-99268860D01*
X140290880Y-99343860D01*
X140400553Y-99343860D01*
X140510816Y-99298188D01*
X140539137Y-99269867D01*
X140623826Y-99326453D01*
X140740880Y-99349737D01*
X141240880Y-99349737D01*
X141240880Y-99393860D01*
X141315880Y-99468860D01*
X141690880Y-99468860D01*
X141690880Y-99118860D01*
X141654332Y-99082312D01*
X141729264Y-99032244D01*
X141751582Y-98998842D01*
X142056565Y-98693860D01*
X142110227Y-98693860D01*
X142330753Y-98602516D01*
X142433121Y-98500148D01*
X142435897Y-98502003D01*
X142971877Y-99037983D01*
X142640880Y-99037983D01*
X142523826Y-99061267D01*
X142424592Y-99127572D01*
X142394257Y-99172973D01*
X142310817Y-99089532D01*
X142200554Y-99043860D01*
X142065880Y-99043860D01*
X141990880Y-99118860D01*
X141990880Y-99468860D01*
X142014880Y-99468860D01*
X142014880Y-99718860D01*
X141990880Y-99718860D01*
X141990880Y-100068860D01*
X142065880Y-100143860D01*
X142200554Y-100143860D01*
X142271905Y-100114306D01*
X142182733Y-100203478D01*
X142067496Y-100280476D01*
X142045181Y-100313873D01*
X141700896Y-100658160D01*
X141667497Y-100680476D01*
X141579089Y-100812788D01*
X141564473Y-100886267D01*
X141563039Y-100893474D01*
X141474592Y-100952572D01*
X141408287Y-101051806D01*
X141389881Y-101144338D01*
X141355747Y-101110204D01*
X141135221Y-101018860D01*
X140896527Y-101018860D01*
X140676001Y-101110204D01*
X140507218Y-101278987D01*
X140415874Y-101499513D01*
X140415874Y-101738207D01*
X140507218Y-101958733D01*
X140629853Y-102081368D01*
X140507224Y-102203997D01*
X140415880Y-102424523D01*
X140415880Y-102663217D01*
X140507224Y-102883743D01*
X140676007Y-103052526D01*
X140896533Y-103143870D01*
X141135227Y-103143870D01*
X141195607Y-103118860D01*
X141540880Y-103118860D01*
X141540880Y-103069860D01*
X141840880Y-103069860D01*
X141840880Y-103118860D01*
X141864880Y-103118860D01*
X141864880Y-103368860D01*
X141840880Y-103368860D01*
X141840880Y-103718860D01*
X141915880Y-103793860D01*
X142050554Y-103793860D01*
X142160817Y-103748188D01*
X142244257Y-103664747D01*
X142274592Y-103710148D01*
X142373826Y-103776453D01*
X142490880Y-103799737D01*
X143090880Y-103799737D01*
X143207934Y-103776453D01*
X143307168Y-103710148D01*
X143373473Y-103610914D01*
X143396757Y-103493860D01*
X143396757Y-103143860D01*
X143510227Y-103143860D01*
X143730753Y-103052516D01*
X143899536Y-102883733D01*
X143910907Y-102856282D01*
X144099887Y-102934559D01*
X144338581Y-102934559D01*
X144559107Y-102843215D01*
X144640848Y-102761474D01*
X144640848Y-104328207D01*
X143060899Y-105908157D01*
X143027496Y-105930476D01*
X142960202Y-106031191D01*
X142939089Y-106062789D01*
X142908044Y-106218860D01*
X142915880Y-106258254D01*
X142915881Y-108293950D01*
X142828826Y-108311267D01*
X142729592Y-108377572D01*
X142663287Y-108476806D01*
X142640003Y-108593860D01*
X142640003Y-110293860D01*
X142663287Y-110410914D01*
X142729592Y-110510148D01*
X142742631Y-110518860D01*
X124536846Y-110518860D01*
X123896065Y-110446985D01*
X123307055Y-110241870D01*
X122778127Y-109911359D01*
X122335566Y-109471877D01*
X122148937Y-109177795D01*
X122202206Y-109199860D01*
X122532880Y-109199860D01*
X122607880Y-109124860D01*
X122607880Y-108253860D01*
X122036880Y-108253860D01*
X121961880Y-108328860D01*
X121961880Y-108834366D01*
X121792148Y-108357704D01*
X121718690Y-107741666D01*
X121723003Y-107719983D01*
X121758812Y-107712860D01*
X121961880Y-107712860D01*
X121961880Y-107870860D01*
X122036880Y-107945860D01*
X122607880Y-107945860D01*
X122607880Y-107925860D01*
X122915880Y-107925860D01*
X122915880Y-107945860D01*
X122935880Y-107945860D01*
X122935880Y-108253860D01*
X122915880Y-108253860D01*
X122915880Y-109124860D01*
X122990880Y-109199860D01*
X123321554Y-109199860D01*
X123431817Y-109154188D01*
X123516208Y-109069796D01*
X123561880Y-108959533D01*
X123561880Y-108328860D01*
X123486882Y-108253862D01*
X123561880Y-108253862D01*
X123561880Y-108122150D01*
X123732245Y-108292515D01*
X124075897Y-108434860D01*
X124447863Y-108434860D01*
X124791515Y-108292515D01*
X124961880Y-108122150D01*
X124961880Y-108253862D01*
X125036878Y-108253862D01*
X124961880Y-108328860D01*
X124961880Y-108959533D01*
X125007552Y-109069796D01*
X125091943Y-109154188D01*
X125202206Y-109199860D01*
X125532880Y-109199860D01*
X125607880Y-109124860D01*
X125607880Y-108253860D01*
X125915880Y-108253860D01*
X125915880Y-109124860D01*
X125990880Y-109199860D01*
X126321554Y-109199860D01*
X126431817Y-109154188D01*
X126516208Y-109069796D01*
X126561880Y-108959533D01*
X126561880Y-108328860D01*
X126486880Y-108253860D01*
X125915880Y-108253860D01*
X125607880Y-108253860D01*
X125587880Y-108253860D01*
X125587880Y-107945860D01*
X125607880Y-107945860D01*
X125607880Y-107925860D01*
X125915880Y-107925860D01*
X125915880Y-107945860D01*
X126486880Y-107945860D01*
X126561880Y-107870860D01*
X126561880Y-107720480D01*
X127229971Y-107720480D01*
X127266193Y-107713275D01*
X127266199Y-107713275D01*
X127460602Y-107674605D01*
X127460603Y-107674605D01*
X127595782Y-107618612D01*
X127760590Y-107508491D01*
X127835827Y-107433253D01*
X127864051Y-107405029D01*
X127974172Y-107240222D01*
X128008012Y-107158525D01*
X128030166Y-107105042D01*
X128068835Y-106910638D01*
X128068835Y-106910633D01*
X128076040Y-106874411D01*
X128076040Y-105274513D01*
X128615880Y-105274513D01*
X128615880Y-105513207D01*
X128707224Y-105733733D01*
X128876007Y-105902516D01*
X129096533Y-105993860D01*
X129335227Y-105993860D01*
X129501186Y-105925118D01*
X129524592Y-105960148D01*
X129623826Y-106026453D01*
X129740880Y-106049737D01*
X130088266Y-106049737D01*
X130015872Y-106224513D01*
X130015872Y-106463207D01*
X130107216Y-106683733D01*
X130215881Y-106792398D01*
X130215881Y-106799984D01*
X130174592Y-106827572D01*
X130108287Y-106926806D01*
X130085003Y-107043860D01*
X130085003Y-107743860D01*
X130108287Y-107860914D01*
X130174592Y-107960148D01*
X130273826Y-108026453D01*
X130390880Y-108049737D01*
X130840880Y-108049737D01*
X130957934Y-108026453D01*
X131057168Y-107960148D01*
X131123473Y-107860914D01*
X131146757Y-107743860D01*
X131146757Y-107043860D01*
X131123473Y-106926806D01*
X131057168Y-106827572D01*
X131015880Y-106799985D01*
X131015880Y-106792381D01*
X131124528Y-106683733D01*
X131149057Y-106624513D01*
X139390880Y-106624513D01*
X139390880Y-106863207D01*
X139482224Y-107083733D01*
X139651007Y-107252516D01*
X139871533Y-107343860D01*
X140110227Y-107343860D01*
X140330753Y-107252516D01*
X140439409Y-107143860D01*
X141370003Y-107143860D01*
X141370003Y-107593860D01*
X141393287Y-107710914D01*
X141459592Y-107810148D01*
X141558826Y-107876453D01*
X141675880Y-107899737D01*
X142415880Y-107899737D01*
X142532934Y-107876453D01*
X142632168Y-107810148D01*
X142698473Y-107710914D01*
X142721757Y-107593860D01*
X142721757Y-105893860D01*
X142698473Y-105776806D01*
X142632168Y-105677572D01*
X142532934Y-105611267D01*
X142415880Y-105587983D01*
X141675880Y-105587983D01*
X141558826Y-105611267D01*
X141459592Y-105677572D01*
X141393287Y-105776806D01*
X141370003Y-105893860D01*
X141370003Y-106343860D01*
X140439409Y-106343860D01*
X140330753Y-106235204D01*
X140110227Y-106143860D01*
X139871533Y-106143860D01*
X139651007Y-106235204D01*
X139482224Y-106403987D01*
X139390880Y-106624513D01*
X131149057Y-106624513D01*
X131215872Y-106463207D01*
X131215872Y-106224513D01*
X131124528Y-106003987D01*
X131121391Y-106000850D01*
X131153380Y-105968860D01*
X131153380Y-105547860D01*
X131378380Y-105547860D01*
X131378380Y-105968860D01*
X131453380Y-106043860D01*
X131550554Y-106043860D01*
X131660817Y-105998188D01*
X131745208Y-105913796D01*
X131790880Y-105803533D01*
X131790880Y-105622860D01*
X131715880Y-105547860D01*
X131378380Y-105547860D01*
X131153380Y-105547860D01*
X130815880Y-105547860D01*
X130740880Y-105622860D01*
X130740880Y-105746205D01*
X130735219Y-105743860D01*
X130496757Y-105743860D01*
X130496757Y-105043860D01*
X130484888Y-104984187D01*
X130740880Y-104984187D01*
X130740880Y-105164860D01*
X130815880Y-105239860D01*
X131153380Y-105239860D01*
X131153380Y-104818860D01*
X131378380Y-104818860D01*
X131378380Y-105239860D01*
X131715880Y-105239860D01*
X131790880Y-105164860D01*
X131790880Y-104984187D01*
X131745208Y-104873924D01*
X131660817Y-104789532D01*
X131550554Y-104743860D01*
X131453380Y-104743860D01*
X131378380Y-104818860D01*
X131153380Y-104818860D01*
X131078380Y-104743860D01*
X130981206Y-104743860D01*
X130870943Y-104789532D01*
X130786552Y-104873924D01*
X130740880Y-104984187D01*
X130484888Y-104984187D01*
X130473473Y-104926806D01*
X130407168Y-104827572D01*
X130307934Y-104761267D01*
X130190880Y-104737983D01*
X129740880Y-104737983D01*
X129623826Y-104761267D01*
X129524592Y-104827572D01*
X129501186Y-104862602D01*
X129335227Y-104793860D01*
X129096533Y-104793860D01*
X128876007Y-104885204D01*
X128707224Y-105053987D01*
X128615880Y-105274513D01*
X128076040Y-105274513D01*
X128076040Y-104268860D01*
X129465880Y-104268860D01*
X129465880Y-104378533D01*
X129511552Y-104488796D01*
X129595943Y-104573188D01*
X129706206Y-104618860D01*
X129840880Y-104618860D01*
X129915880Y-104543860D01*
X129915880Y-104193860D01*
X129540880Y-104193860D01*
X129465880Y-104268860D01*
X128076040Y-104268860D01*
X128076040Y-103868860D01*
X129465880Y-103868860D01*
X129540880Y-103943860D01*
X129915880Y-103943860D01*
X129915880Y-103894860D01*
X130215880Y-103894860D01*
X130215880Y-103943860D01*
X130239880Y-103943860D01*
X130239880Y-104193860D01*
X130215880Y-104193860D01*
X130215880Y-104543860D01*
X130290880Y-104618860D01*
X130425554Y-104618860D01*
X130535817Y-104573188D01*
X130619257Y-104489747D01*
X130649592Y-104535148D01*
X130748826Y-104601453D01*
X130865880Y-104624737D01*
X131465880Y-104624737D01*
X131543184Y-104609360D01*
X131807851Y-104609360D01*
X131826007Y-104627516D01*
X132046533Y-104718860D01*
X132285227Y-104718860D01*
X132505753Y-104627516D01*
X132674536Y-104458733D01*
X132765880Y-104238207D01*
X132765880Y-103999513D01*
X132674536Y-103778987D01*
X132505753Y-103610204D01*
X132285227Y-103518860D01*
X132190880Y-103518860D01*
X132190880Y-102410360D01*
X132215880Y-102410360D01*
X132215880Y-103141033D01*
X132261552Y-103251296D01*
X132345943Y-103335688D01*
X132456206Y-103381360D01*
X132886880Y-103381360D01*
X132961880Y-103306360D01*
X132961880Y-102335360D01*
X133269880Y-102335360D01*
X133269880Y-103306360D01*
X133344880Y-103381360D01*
X133775554Y-103381360D01*
X133885817Y-103335688D01*
X133970208Y-103251296D01*
X134015880Y-103141033D01*
X134015880Y-102410360D01*
X135815880Y-102410360D01*
X135815880Y-103141033D01*
X135861552Y-103251296D01*
X135945943Y-103335688D01*
X136056206Y-103381360D01*
X136486880Y-103381360D01*
X136561880Y-103306360D01*
X136561880Y-102335360D01*
X136869880Y-102335360D01*
X136869880Y-103306360D01*
X136944880Y-103381360D01*
X137375554Y-103381360D01*
X137485817Y-103335688D01*
X137570208Y-103251296D01*
X137615880Y-103141033D01*
X137615880Y-102868860D01*
X137940880Y-102868860D01*
X137940880Y-102978533D01*
X137986552Y-103088796D01*
X138070943Y-103173188D01*
X138181206Y-103218860D01*
X138315880Y-103218860D01*
X138390880Y-103143860D01*
X138390880Y-102793860D01*
X138015880Y-102793860D01*
X137940880Y-102868860D01*
X137615880Y-102868860D01*
X137615880Y-102410360D01*
X137540880Y-102335360D01*
X136869880Y-102335360D01*
X136561880Y-102335360D01*
X135890880Y-102335360D01*
X135815880Y-102410360D01*
X134015880Y-102410360D01*
X133940880Y-102335360D01*
X133269880Y-102335360D01*
X132961880Y-102335360D01*
X132290880Y-102335360D01*
X132215880Y-102410360D01*
X132190880Y-102410360D01*
X132190880Y-101221687D01*
X132215880Y-101221687D01*
X132215880Y-101952360D01*
X132290880Y-102027360D01*
X132961880Y-102027360D01*
X132961880Y-101056360D01*
X133269880Y-101056360D01*
X133269880Y-102027360D01*
X133940880Y-102027360D01*
X134015880Y-101952360D01*
X134015880Y-101221687D01*
X135815880Y-101221687D01*
X135815880Y-101952360D01*
X135890880Y-102027360D01*
X136561880Y-102027360D01*
X136561880Y-101056360D01*
X136869880Y-101056360D01*
X136869880Y-102027360D01*
X137540880Y-102027360D01*
X137615880Y-101952360D01*
X137615880Y-101221687D01*
X137570208Y-101111424D01*
X137485817Y-101027032D01*
X137375554Y-100981360D01*
X136944880Y-100981360D01*
X136869880Y-101056360D01*
X136561880Y-101056360D01*
X136486880Y-100981360D01*
X136056206Y-100981360D01*
X135945943Y-101027032D01*
X135861552Y-101111424D01*
X135815880Y-101221687D01*
X134015880Y-101221687D01*
X133970208Y-101111424D01*
X133885817Y-101027032D01*
X133775554Y-100981360D01*
X133344880Y-100981360D01*
X133269880Y-101056360D01*
X132961880Y-101056360D01*
X132886880Y-100981360D01*
X132456206Y-100981360D01*
X132345943Y-101027032D01*
X132261552Y-101111424D01*
X132215880Y-101221687D01*
X132190880Y-101221687D01*
X132190880Y-99243860D01*
X132168044Y-99129055D01*
X132103012Y-99031728D01*
X132005685Y-98966696D01*
X131890880Y-98943860D01*
X131671757Y-98943860D01*
X131671757Y-98796860D01*
X133810003Y-98796860D01*
X133810003Y-99081360D01*
X133833287Y-99198414D01*
X133899592Y-99297648D01*
X133998826Y-99363953D01*
X134115880Y-99387237D01*
X134715880Y-99387237D01*
X134832934Y-99363953D01*
X134917622Y-99307367D01*
X134945943Y-99335688D01*
X135056206Y-99381360D01*
X135190880Y-99381360D01*
X135265880Y-99306360D01*
X135265880Y-98460360D01*
X135565880Y-98460360D01*
X135565880Y-99306360D01*
X135640880Y-99381360D01*
X135775554Y-99381360D01*
X135885817Y-99335688D01*
X135970208Y-99251296D01*
X136015880Y-99141033D01*
X136015880Y-98535360D01*
X135940880Y-98460360D01*
X135565880Y-98460360D01*
X135265880Y-98460360D01*
X135241880Y-98460360D01*
X135241880Y-98152360D01*
X135265880Y-98152360D01*
X135265880Y-97306360D01*
X135565880Y-97306360D01*
X135565880Y-98152360D01*
X135940880Y-98152360D01*
X136015880Y-98077360D01*
X136015880Y-97471687D01*
X135970208Y-97361424D01*
X135885817Y-97277032D01*
X135775554Y-97231360D01*
X135640880Y-97231360D01*
X135565880Y-97306360D01*
X135265880Y-97306360D01*
X135190880Y-97231360D01*
X135056206Y-97231360D01*
X134945943Y-97277032D01*
X134917622Y-97305353D01*
X134906380Y-97297841D01*
X134906380Y-96868860D01*
X136390880Y-96868860D01*
X136390880Y-97003534D01*
X136436552Y-97113797D01*
X136520944Y-97198188D01*
X136631207Y-97243860D01*
X136740880Y-97243860D01*
X136815880Y-97168860D01*
X136815880Y-96793860D01*
X137065880Y-96793860D01*
X137065880Y-97168860D01*
X137140880Y-97243860D01*
X137250553Y-97243860D01*
X137360816Y-97198188D01*
X137390880Y-97168124D01*
X137420944Y-97198188D01*
X137531207Y-97243860D01*
X137640880Y-97243860D01*
X137715880Y-97168860D01*
X137715880Y-96793860D01*
X137065880Y-96793860D01*
X136815880Y-96793860D01*
X136465880Y-96793860D01*
X136390880Y-96868860D01*
X134906380Y-96868860D01*
X134906380Y-96649737D01*
X134915880Y-96649737D01*
X135032934Y-96626453D01*
X135132168Y-96560148D01*
X135198473Y-96460914D01*
X135221757Y-96343860D01*
X135221757Y-95843860D01*
X135198473Y-95726806D01*
X135132168Y-95627572D01*
X135106380Y-95610341D01*
X135106380Y-94992161D01*
X135115988Y-94943859D01*
X135106380Y-94895557D01*
X135106380Y-94895553D01*
X135096757Y-94847176D01*
X135096757Y-94263860D01*
X135073473Y-94146806D01*
X135007168Y-94047572D01*
X134907934Y-93981267D01*
X134790880Y-93957983D01*
X134140880Y-93957983D01*
X134023826Y-93981267D01*
X133992733Y-94002042D01*
X133900553Y-93963860D01*
X133744880Y-93963860D01*
X133669880Y-94038860D01*
X133669880Y-94639860D01*
X133689880Y-94639860D01*
X133689880Y-94947860D01*
X133669880Y-94947860D01*
X133669880Y-95548860D01*
X133702880Y-95581860D01*
X133665880Y-95618860D01*
X133665880Y-95968860D01*
X133689880Y-95968860D01*
X133689880Y-96218860D01*
X133665880Y-96218860D01*
X133665880Y-96568860D01*
X133740880Y-96643860D01*
X133875554Y-96643860D01*
X133925381Y-96623221D01*
X133925381Y-97297841D01*
X133899592Y-97315072D01*
X133833287Y-97414306D01*
X133810003Y-97531360D01*
X133810003Y-97815860D01*
X132942409Y-97815860D01*
X133049536Y-97708733D01*
X133140880Y-97488207D01*
X133140880Y-97249513D01*
X133049536Y-97028987D01*
X132880753Y-96860204D01*
X132660227Y-96768860D01*
X132421533Y-96768860D01*
X132201007Y-96860204D01*
X132067351Y-96993860D01*
X131876460Y-96993860D01*
X131832168Y-96927572D01*
X131732934Y-96861267D01*
X131615880Y-96837983D01*
X131546021Y-96837983D01*
X131595208Y-96788797D01*
X131640880Y-96678534D01*
X131640880Y-96447860D01*
X131565880Y-96372860D01*
X131169880Y-96372860D01*
X131169880Y-96392860D01*
X130861880Y-96392860D01*
X130861880Y-96372860D01*
X130841880Y-96372860D01*
X130841880Y-96293860D01*
X132915880Y-96293860D01*
X132915880Y-96403533D01*
X132961552Y-96513796D01*
X133045943Y-96598188D01*
X133156206Y-96643860D01*
X133290880Y-96643860D01*
X133365880Y-96568860D01*
X133365880Y-96218860D01*
X132990880Y-96218860D01*
X132915880Y-96293860D01*
X130841880Y-96293860D01*
X130841880Y-96064860D01*
X130861880Y-96064860D01*
X130861880Y-95593860D01*
X131169880Y-95593860D01*
X131169880Y-96064860D01*
X131565880Y-96064860D01*
X131640880Y-95989860D01*
X131640880Y-95759186D01*
X131595208Y-95648923D01*
X131510816Y-95564532D01*
X131400553Y-95518860D01*
X131244880Y-95518860D01*
X131169880Y-95593860D01*
X130861880Y-95593860D01*
X130786880Y-95518860D01*
X130631207Y-95518860D01*
X130595266Y-95533747D01*
X130490880Y-95512983D01*
X129840880Y-95512983D01*
X129723826Y-95536267D01*
X129624592Y-95602572D01*
X129558287Y-95701806D01*
X129535003Y-95818860D01*
X129535003Y-96618860D01*
X129558287Y-96735914D01*
X129624592Y-96835148D01*
X129723826Y-96901453D01*
X129735274Y-96903730D01*
X129699592Y-96927572D01*
X129633287Y-97026806D01*
X129610003Y-97143860D01*
X129610003Y-97643860D01*
X129633287Y-97760914D01*
X129699592Y-97860148D01*
X129798826Y-97926453D01*
X129915880Y-97949737D01*
X130515880Y-97949737D01*
X130632934Y-97926453D01*
X130732168Y-97860148D01*
X130765880Y-97809694D01*
X130799592Y-97860148D01*
X130898826Y-97926453D01*
X131015880Y-97949737D01*
X131054229Y-97949737D01*
X131049750Y-97952730D01*
X131022388Y-97993680D01*
X131003085Y-98012983D01*
X130615880Y-98012983D01*
X130498826Y-98036267D01*
X130399592Y-98102572D01*
X130333287Y-98201806D01*
X130310003Y-98318860D01*
X130310003Y-98943860D01*
X128076040Y-98943860D01*
X128076040Y-94624513D01*
X128715880Y-94624513D01*
X128715880Y-94863207D01*
X128807224Y-95083733D01*
X128976007Y-95252516D01*
X129196533Y-95343860D01*
X129435227Y-95343860D01*
X129588103Y-95280537D01*
X129624592Y-95335148D01*
X129723826Y-95401453D01*
X129840880Y-95424737D01*
X130490880Y-95424737D01*
X130590880Y-95404845D01*
X130690880Y-95424737D01*
X131340880Y-95424737D01*
X131457934Y-95401453D01*
X131557168Y-95335148D01*
X131623473Y-95235914D01*
X131646757Y-95118860D01*
X131646757Y-94318860D01*
X131623473Y-94201806D01*
X131557168Y-94102572D01*
X131530413Y-94084695D01*
X131576486Y-94093860D01*
X131576487Y-94093860D01*
X131615879Y-94101696D01*
X131655272Y-94093860D01*
X131993664Y-94093860D01*
X131958287Y-94146806D01*
X131935003Y-94263860D01*
X131935003Y-95323860D01*
X131958287Y-95440914D01*
X132024592Y-95540148D01*
X132123826Y-95606453D01*
X132240880Y-95629737D01*
X132890880Y-95629737D01*
X133007934Y-95606453D01*
X133039027Y-95585678D01*
X133047137Y-95589037D01*
X133045943Y-95589532D01*
X132961552Y-95673924D01*
X132915880Y-95784187D01*
X132915880Y-95893860D01*
X132990880Y-95968860D01*
X133365880Y-95968860D01*
X133365880Y-95618860D01*
X133328880Y-95581860D01*
X133361880Y-95548860D01*
X133361880Y-94947860D01*
X133341880Y-94947860D01*
X133341880Y-94639860D01*
X133361880Y-94639860D01*
X133361880Y-94038860D01*
X133286880Y-93963860D01*
X133131207Y-93963860D01*
X133067558Y-93990224D01*
X133140880Y-93813207D01*
X133140880Y-93574513D01*
X133057539Y-93373308D01*
X133107168Y-93340148D01*
X133173473Y-93240914D01*
X133196757Y-93123860D01*
X133196757Y-92063860D01*
X133173473Y-91946806D01*
X133107168Y-91847572D01*
X133007934Y-91781267D01*
X132890880Y-91757983D01*
X132240880Y-91757983D01*
X132123826Y-91781267D01*
X132024592Y-91847572D01*
X131958287Y-91946806D01*
X131935003Y-92063860D01*
X131935003Y-92093860D01*
X131876460Y-92093860D01*
X131832168Y-92027572D01*
X131732934Y-91961267D01*
X131615880Y-91937983D01*
X131015880Y-91937983D01*
X130898826Y-91961267D01*
X130799592Y-92027572D01*
X130769257Y-92072973D01*
X130685817Y-91989532D01*
X130575554Y-91943860D01*
X130440880Y-91943860D01*
X130365880Y-92018860D01*
X130365880Y-92368860D01*
X130389880Y-92368860D01*
X130389880Y-92618860D01*
X130365880Y-92618860D01*
X130365880Y-92667860D01*
X130065880Y-92667860D01*
X130065880Y-92618860D01*
X129690880Y-92618860D01*
X129615880Y-92693860D01*
X129615880Y-92803533D01*
X129661552Y-92913796D01*
X129689873Y-92942117D01*
X129633287Y-93026806D01*
X129610003Y-93143860D01*
X129610003Y-93643860D01*
X129633287Y-93760914D01*
X129699592Y-93860148D01*
X129798826Y-93926453D01*
X129915880Y-93949737D01*
X130206073Y-93949737D01*
X130269319Y-94012983D01*
X129840880Y-94012983D01*
X129723826Y-94036267D01*
X129624592Y-94102572D01*
X129561936Y-94196344D01*
X129435227Y-94143860D01*
X129196533Y-94143860D01*
X128976007Y-94235204D01*
X128807224Y-94403987D01*
X128715880Y-94624513D01*
X128076040Y-94624513D01*
X128076040Y-92184187D01*
X129615880Y-92184187D01*
X129615880Y-92293860D01*
X129690880Y-92368860D01*
X130065880Y-92368860D01*
X130065880Y-92018860D01*
X129990880Y-91943860D01*
X129856206Y-91943860D01*
X129745943Y-91989532D01*
X129661552Y-92073924D01*
X129615880Y-92184187D01*
X128076040Y-92184187D01*
X128076040Y-90624647D01*
X128384220Y-90624647D01*
X128384220Y-91155320D01*
X128429892Y-91265583D01*
X128514283Y-91349975D01*
X128624546Y-91395647D01*
X129255220Y-91395647D01*
X129330220Y-91320647D01*
X129330220Y-90549647D01*
X129638220Y-90549647D01*
X129638220Y-91320647D01*
X129713220Y-91395647D01*
X130343894Y-91395647D01*
X130454157Y-91349975D01*
X130538548Y-91265583D01*
X130584220Y-91155320D01*
X130584220Y-90849647D01*
X130884220Y-90849647D01*
X130884220Y-91355320D01*
X130929892Y-91465583D01*
X131014283Y-91549975D01*
X131124546Y-91595647D01*
X131209220Y-91595647D01*
X131284220Y-91520647D01*
X131284220Y-90774647D01*
X130959220Y-90774647D01*
X130884220Y-90849647D01*
X130584220Y-90849647D01*
X130584220Y-90624647D01*
X130509220Y-90549647D01*
X129638220Y-90549647D01*
X129330220Y-90549647D01*
X128459220Y-90549647D01*
X128384220Y-90624647D01*
X128076040Y-90624647D01*
X128076040Y-89635974D01*
X128384220Y-89635974D01*
X128384220Y-90166647D01*
X128459220Y-90241647D01*
X129330220Y-90241647D01*
X129330220Y-89470647D01*
X129638220Y-89470647D01*
X129638220Y-90241647D01*
X130509220Y-90241647D01*
X130584220Y-90166647D01*
X130584220Y-89885974D01*
X130884220Y-89885974D01*
X130884220Y-90391647D01*
X130959220Y-90466647D01*
X131284220Y-90466647D01*
X131284220Y-89720647D01*
X131484220Y-89720647D01*
X131484220Y-90466647D01*
X131528343Y-90466647D01*
X131528343Y-90774647D01*
X131484220Y-90774647D01*
X131484220Y-91520647D01*
X131559220Y-91595647D01*
X131643894Y-91595647D01*
X131705208Y-91570250D01*
X131717166Y-91578240D01*
X131834220Y-91601524D01*
X132234220Y-91601524D01*
X132351274Y-91578240D01*
X132359220Y-91572931D01*
X132367166Y-91578240D01*
X132484220Y-91601524D01*
X132884220Y-91601524D01*
X133001274Y-91578240D01*
X133009220Y-91572931D01*
X133017166Y-91578240D01*
X133134220Y-91601524D01*
X133493721Y-91601524D01*
X133493721Y-92040922D01*
X133484199Y-92084519D01*
X133493721Y-92137548D01*
X133493721Y-92142167D01*
X133502247Y-92185031D01*
X133518686Y-92276579D01*
X133521254Y-92280582D01*
X133522181Y-92285243D01*
X133573816Y-92362520D01*
X133597452Y-92399366D01*
X133600662Y-92402699D01*
X133630591Y-92447490D01*
X133667691Y-92472279D01*
X133835003Y-92645962D01*
X133835003Y-93123860D01*
X133858287Y-93240914D01*
X133924592Y-93340148D01*
X134023826Y-93406453D01*
X134140880Y-93429737D01*
X134790880Y-93429737D01*
X134907934Y-93406453D01*
X135007168Y-93340148D01*
X135073473Y-93240914D01*
X135096757Y-93123860D01*
X135096757Y-93023266D01*
X135176007Y-93102516D01*
X135396533Y-93193860D01*
X135635227Y-93193860D01*
X135658579Y-93184187D01*
X137240880Y-93184187D01*
X137240880Y-93293860D01*
X137315880Y-93368860D01*
X137690880Y-93368860D01*
X137690880Y-93088860D01*
X137710880Y-93068860D01*
X137710880Y-92718860D01*
X137335880Y-92718860D01*
X137260880Y-92793860D01*
X137260880Y-92903533D01*
X137306552Y-93013796D01*
X137326616Y-93033860D01*
X137286552Y-93073924D01*
X137240880Y-93184187D01*
X135658579Y-93184187D01*
X135855753Y-93102516D01*
X136024536Y-92933733D01*
X136115880Y-92713207D01*
X136115880Y-92474513D01*
X136024536Y-92253987D01*
X135855753Y-92085204D01*
X135635227Y-91993860D01*
X135396533Y-91993860D01*
X135176007Y-92085204D01*
X135096757Y-92164454D01*
X135096757Y-92063860D01*
X135073473Y-91946806D01*
X135007168Y-91847572D01*
X134907934Y-91781267D01*
X134790880Y-91757983D01*
X134474720Y-91757983D01*
X134474720Y-91372951D01*
X134490097Y-91295647D01*
X134490097Y-90624647D01*
X134784220Y-90624647D01*
X134784220Y-91155320D01*
X134829892Y-91265583D01*
X134914283Y-91349975D01*
X135024546Y-91395647D01*
X135655220Y-91395647D01*
X135730220Y-91320647D01*
X135730220Y-90549647D01*
X136038220Y-90549647D01*
X136038220Y-91320647D01*
X136113220Y-91395647D01*
X136743894Y-91395647D01*
X136854157Y-91349975D01*
X136938548Y-91265583D01*
X136984220Y-91155320D01*
X136984220Y-90624647D01*
X136909220Y-90549647D01*
X136038220Y-90549647D01*
X135730220Y-90549647D01*
X134859220Y-90549647D01*
X134784220Y-90624647D01*
X134490097Y-90624647D01*
X134490097Y-89945647D01*
X134466813Y-89828593D01*
X134400508Y-89729359D01*
X134301274Y-89663054D01*
X134184220Y-89639770D01*
X133784220Y-89639770D01*
X133667166Y-89663054D01*
X133659220Y-89668363D01*
X133651274Y-89663054D01*
X133534220Y-89639770D01*
X133134220Y-89639770D01*
X133017166Y-89663054D01*
X133009220Y-89668363D01*
X133001274Y-89663054D01*
X132884220Y-89639770D01*
X132484220Y-89639770D01*
X132367166Y-89663054D01*
X132359220Y-89668363D01*
X132351274Y-89663054D01*
X132234220Y-89639770D01*
X131834220Y-89639770D01*
X131717166Y-89663054D01*
X131705208Y-89671044D01*
X131643894Y-89645647D01*
X131559220Y-89645647D01*
X131484220Y-89720647D01*
X131284220Y-89720647D01*
X131209220Y-89645647D01*
X131124546Y-89645647D01*
X131014283Y-89691319D01*
X130929892Y-89775711D01*
X130884220Y-89885974D01*
X130584220Y-89885974D01*
X130584220Y-89635974D01*
X134784220Y-89635974D01*
X134784220Y-90166647D01*
X134859220Y-90241647D01*
X135730220Y-90241647D01*
X135730220Y-89470647D01*
X136038220Y-89470647D01*
X136038220Y-90241647D01*
X136909220Y-90241647D01*
X136984220Y-90166647D01*
X136984220Y-89635974D01*
X136938548Y-89525711D01*
X136854157Y-89441319D01*
X136743894Y-89395647D01*
X136113220Y-89395647D01*
X136038220Y-89470647D01*
X135730220Y-89470647D01*
X135655220Y-89395647D01*
X135024546Y-89395647D01*
X134914283Y-89441319D01*
X134829892Y-89525711D01*
X134784220Y-89635974D01*
X130584220Y-89635974D01*
X130538548Y-89525711D01*
X130454157Y-89441319D01*
X130343894Y-89395647D01*
X129713220Y-89395647D01*
X129638220Y-89470647D01*
X129330220Y-89470647D01*
X129255220Y-89395647D01*
X128624546Y-89395647D01*
X128514283Y-89441319D01*
X128429892Y-89525711D01*
X128384220Y-89635974D01*
X128076040Y-89635974D01*
X128076040Y-89528549D01*
X128068835Y-89492327D01*
X128068835Y-89492322D01*
X128030166Y-89297918D01*
X127991070Y-89203533D01*
X127974172Y-89162738D01*
X127864051Y-88997931D01*
X127799218Y-88933098D01*
X127760590Y-88894469D01*
X127595782Y-88784348D01*
X127460603Y-88728355D01*
X127460602Y-88728355D01*
X127266199Y-88689685D01*
X127266193Y-88689685D01*
X127229971Y-88682480D01*
X126561880Y-88682480D01*
X126561880Y-88516860D01*
X126486880Y-88441860D01*
X125915880Y-88441860D01*
X125915880Y-88461860D01*
X125607880Y-88461860D01*
X125607880Y-88441860D01*
X125036880Y-88441860D01*
X125024025Y-88454715D01*
X124821629Y-88252319D01*
X128432405Y-88252319D01*
X128494321Y-88401842D01*
X128736639Y-88707666D01*
X129077545Y-88897479D01*
X129230220Y-88858735D01*
X129230220Y-88099647D01*
X129538220Y-88099647D01*
X129538220Y-88858735D01*
X129690895Y-88897479D01*
X130031801Y-88707666D01*
X130234220Y-88452198D01*
X130234220Y-88955320D01*
X130279892Y-89065583D01*
X130364283Y-89149975D01*
X130474546Y-89195647D01*
X131255220Y-89195647D01*
X131330220Y-89120647D01*
X131330220Y-88099647D01*
X131638220Y-88099647D01*
X131638220Y-89120647D01*
X131713220Y-89195647D01*
X132493894Y-89195647D01*
X132604157Y-89149975D01*
X132684220Y-89069911D01*
X132764283Y-89149975D01*
X132874546Y-89195647D01*
X133655220Y-89195647D01*
X133730220Y-89120647D01*
X133730220Y-88099647D01*
X134038220Y-88099647D01*
X134038220Y-89120647D01*
X134113220Y-89195647D01*
X134893894Y-89195647D01*
X135004157Y-89149975D01*
X135088548Y-89065583D01*
X135134220Y-88955320D01*
X135134220Y-88452198D01*
X135336639Y-88707666D01*
X135677545Y-88897479D01*
X135830220Y-88858735D01*
X135830220Y-88099647D01*
X136138220Y-88099647D01*
X136138220Y-88858735D01*
X136290895Y-88897479D01*
X136631801Y-88707666D01*
X136874119Y-88401842D01*
X136936035Y-88252319D01*
X136920825Y-88193860D01*
X137190880Y-88193860D01*
X137190880Y-88303533D01*
X137236552Y-88413796D01*
X137266616Y-88443860D01*
X137236552Y-88473924D01*
X137190880Y-88584187D01*
X137190880Y-88693860D01*
X137265880Y-88768860D01*
X137640880Y-88768860D01*
X137640880Y-88118860D01*
X137265880Y-88118860D01*
X137190880Y-88193860D01*
X136920825Y-88193860D01*
X136896310Y-88099647D01*
X136138220Y-88099647D01*
X135830220Y-88099647D01*
X135072130Y-88099647D01*
X135069464Y-88109891D01*
X135059220Y-88099647D01*
X134038220Y-88099647D01*
X133730220Y-88099647D01*
X132709220Y-88099647D01*
X132684220Y-88124647D01*
X132659220Y-88099647D01*
X131638220Y-88099647D01*
X131330220Y-88099647D01*
X130309220Y-88099647D01*
X130298976Y-88109891D01*
X130296310Y-88099647D01*
X129538220Y-88099647D01*
X129230220Y-88099647D01*
X128472130Y-88099647D01*
X128432405Y-88252319D01*
X124821629Y-88252319D01*
X124791515Y-88222205D01*
X124447863Y-88079860D01*
X124075897Y-88079860D01*
X123732245Y-88222205D01*
X123499735Y-88454715D01*
X123486880Y-88441860D01*
X122915880Y-88441860D01*
X122915880Y-88461860D01*
X122607880Y-88461860D01*
X122607880Y-88441860D01*
X122036880Y-88441860D01*
X121961880Y-88516860D01*
X121961880Y-88674860D01*
X121758812Y-88674860D01*
X121723003Y-88667737D01*
X121720033Y-88652804D01*
X121787755Y-88049045D01*
X121961880Y-87549027D01*
X121961880Y-88058860D01*
X122036880Y-88133860D01*
X122607880Y-88133860D01*
X122607880Y-87262860D01*
X122915880Y-87262860D01*
X122915880Y-88133860D01*
X123486880Y-88133860D01*
X123561880Y-88058860D01*
X123561880Y-87428187D01*
X124961880Y-87428187D01*
X124961880Y-88058860D01*
X125036880Y-88133860D01*
X125607880Y-88133860D01*
X125607880Y-87262860D01*
X125915880Y-87262860D01*
X125915880Y-88133860D01*
X126486880Y-88133860D01*
X126561880Y-88058860D01*
X126561880Y-87638975D01*
X128432405Y-87638975D01*
X128472130Y-87791647D01*
X129230220Y-87791647D01*
X129230220Y-87032559D01*
X129538220Y-87032559D01*
X129538220Y-87791647D01*
X130296310Y-87791647D01*
X130298976Y-87781403D01*
X130309220Y-87791647D01*
X131330220Y-87791647D01*
X131330220Y-86770647D01*
X131638220Y-86770647D01*
X131638220Y-87791647D01*
X132659220Y-87791647D01*
X132684220Y-87766647D01*
X132709220Y-87791647D01*
X133730220Y-87791647D01*
X133730220Y-86770647D01*
X134038220Y-86770647D01*
X134038220Y-87791647D01*
X135059220Y-87791647D01*
X135069464Y-87781403D01*
X135072130Y-87791647D01*
X135830220Y-87791647D01*
X135830220Y-87032559D01*
X136138220Y-87032559D01*
X136138220Y-87791647D01*
X136896310Y-87791647D01*
X136924270Y-87684187D01*
X137190880Y-87684187D01*
X137190880Y-87793860D01*
X137265880Y-87868860D01*
X137640880Y-87868860D01*
X137640880Y-87518860D01*
X137565880Y-87443860D01*
X137431206Y-87443860D01*
X137320943Y-87489532D01*
X137236552Y-87573924D01*
X137190880Y-87684187D01*
X136924270Y-87684187D01*
X136936035Y-87638975D01*
X136874119Y-87489452D01*
X136631801Y-87183628D01*
X136290895Y-86993815D01*
X136138220Y-87032559D01*
X135830220Y-87032559D01*
X135677545Y-86993815D01*
X135336639Y-87183628D01*
X135134220Y-87439096D01*
X135134220Y-86935974D01*
X135088548Y-86825711D01*
X135025198Y-86762360D01*
X139835880Y-86762360D01*
X139835880Y-86810533D01*
X139862111Y-86873860D01*
X139835880Y-86937187D01*
X139835880Y-86985360D01*
X139910880Y-87060360D01*
X140481880Y-87060360D01*
X140481880Y-86687360D01*
X139910880Y-86687360D01*
X139835880Y-86762360D01*
X135025198Y-86762360D01*
X135004157Y-86741319D01*
X134893894Y-86695647D01*
X134113220Y-86695647D01*
X134038220Y-86770647D01*
X133730220Y-86770647D01*
X133655220Y-86695647D01*
X132874546Y-86695647D01*
X132764283Y-86741319D01*
X132684220Y-86821383D01*
X132604157Y-86741319D01*
X132493894Y-86695647D01*
X131713220Y-86695647D01*
X131638220Y-86770647D01*
X131330220Y-86770647D01*
X131255220Y-86695647D01*
X130474546Y-86695647D01*
X130364283Y-86741319D01*
X130279892Y-86825711D01*
X130234220Y-86935974D01*
X130234220Y-87439096D01*
X130031801Y-87183628D01*
X129690895Y-86993815D01*
X129538220Y-87032559D01*
X129230220Y-87032559D01*
X129077545Y-86993815D01*
X128736639Y-87183628D01*
X128494321Y-87489452D01*
X128432405Y-87638975D01*
X126561880Y-87638975D01*
X126561880Y-87428187D01*
X126516208Y-87317924D01*
X126431817Y-87233532D01*
X126321554Y-87187860D01*
X125990880Y-87187860D01*
X125915880Y-87262860D01*
X125607880Y-87262860D01*
X125532880Y-87187860D01*
X125202206Y-87187860D01*
X125091943Y-87233532D01*
X125007552Y-87317924D01*
X124961880Y-87428187D01*
X123561880Y-87428187D01*
X123516208Y-87317924D01*
X123431817Y-87233532D01*
X123321554Y-87187860D01*
X122990880Y-87187860D01*
X122915880Y-87262860D01*
X122607880Y-87262860D01*
X122532880Y-87187860D01*
X122202206Y-87187860D01*
X122149234Y-87209802D01*
X122323381Y-86931107D01*
X122762863Y-86488546D01*
X122843791Y-86437187D01*
X139835880Y-86437187D01*
X139835880Y-86485360D01*
X139910880Y-86560360D01*
X140481880Y-86560360D01*
X140481880Y-86271860D01*
X140406880Y-86196860D01*
X140076206Y-86196860D01*
X139965943Y-86242532D01*
X139881552Y-86326924D01*
X139835880Y-86437187D01*
X122843791Y-86437187D01*
X123289471Y-86154351D01*
X123877036Y-85945128D01*
X124516638Y-85868860D01*
X141237332Y-85868860D01*
X141234082Y-86212819D01*
G36*
X142055003Y-102418860D02*
X141823380Y-102418860D01*
X141823380Y-102374737D01*
X142055003Y-102374737D01*
X142055003Y-102418860D01*
X142055003Y-102418860D01*
G37*
X142055003Y-102418860D02*
X141823380Y-102418860D01*
X141823380Y-102374737D01*
X142055003Y-102374737D01*
X142055003Y-102418860D01*
G36*
X139250380Y-101384756D02*
X139250381Y-101452966D01*
X139115904Y-101613591D01*
X139090880Y-101588567D01*
X139065856Y-101613591D01*
X138911187Y-101428848D01*
X138921174Y-101418861D01*
X138911187Y-101408874D01*
X139065856Y-101224131D01*
X139090880Y-101249155D01*
X139115904Y-101224131D01*
X139250380Y-101384756D01*
X139250380Y-101384756D01*
G37*
X139250380Y-101384756D02*
X139250381Y-101452966D01*
X139115904Y-101613591D01*
X139090880Y-101588567D01*
X139065856Y-101613591D01*
X138911187Y-101428848D01*
X138921174Y-101418861D01*
X138911187Y-101408874D01*
X139065856Y-101224131D01*
X139090880Y-101249155D01*
X139115904Y-101224131D01*
X139250380Y-101384756D01*
G36*
X139170943Y-100673188D02*
X139229820Y-100697576D01*
X139223826Y-100698768D01*
X139124592Y-100765073D01*
X139114986Y-100779449D01*
X139066774Y-100779450D01*
X139057168Y-100765073D01*
X138959943Y-100700110D01*
X139057168Y-100635148D01*
X139087503Y-100589747D01*
X139170943Y-100673188D01*
X139170943Y-100673188D01*
G37*
X139170943Y-100673188D02*
X139229820Y-100697576D01*
X139223826Y-100698768D01*
X139124592Y-100765073D01*
X139114986Y-100779449D01*
X139066774Y-100779450D01*
X139057168Y-100765073D01*
X138959943Y-100700110D01*
X139057168Y-100635148D01*
X139087503Y-100589747D01*
X139170943Y-100673188D01*
G36*
X139830003Y-90996860D02*
X139830003Y-91250860D01*
X139853287Y-91367914D01*
X139857260Y-91373860D01*
X139853287Y-91379806D01*
X139830003Y-91496860D01*
X139830003Y-91750860D01*
X139853287Y-91867914D01*
X139857260Y-91873860D01*
X139853287Y-91879806D01*
X139830003Y-91996860D01*
X139830003Y-92250860D01*
X139853287Y-92367914D01*
X139857260Y-92373860D01*
X139853287Y-92379806D01*
X139830003Y-92496860D01*
X139830003Y-92750860D01*
X139853287Y-92867914D01*
X139857260Y-92873860D01*
X139853287Y-92879806D01*
X139830003Y-92996860D01*
X139830003Y-93250860D01*
X139853287Y-93367914D01*
X139857260Y-93373860D01*
X139853287Y-93379806D01*
X139830003Y-93496860D01*
X139830003Y-93750860D01*
X139853287Y-93867914D01*
X139857260Y-93873860D01*
X139853287Y-93879806D01*
X139830003Y-93996860D01*
X139830003Y-94250860D01*
X139853287Y-94367914D01*
X139857260Y-94373860D01*
X139853287Y-94379806D01*
X139830003Y-94496860D01*
X139830003Y-94750860D01*
X139853287Y-94867914D01*
X139857260Y-94873860D01*
X139853287Y-94879806D01*
X139830003Y-94996860D01*
X139830003Y-95250860D01*
X139853287Y-95367914D01*
X139860254Y-95378342D01*
X139835880Y-95437187D01*
X139835880Y-95485360D01*
X139910880Y-95560360D01*
X140481880Y-95560360D01*
X140481880Y-95556737D01*
X140789880Y-95556737D01*
X140789880Y-95560360D01*
X140809880Y-95560360D01*
X140809880Y-95687360D01*
X140789880Y-95687360D01*
X140789880Y-95975860D01*
X140864880Y-96050860D01*
X141195554Y-96050860D01*
X141258003Y-96024993D01*
X141258003Y-96413860D01*
X141269779Y-96473060D01*
X139083365Y-96473060D01*
X138940880Y-96330576D01*
X138940880Y-95762360D01*
X139835880Y-95762360D01*
X139835880Y-95810533D01*
X139881552Y-95920796D01*
X139965943Y-96005188D01*
X140076206Y-96050860D01*
X140406880Y-96050860D01*
X140481880Y-95975860D01*
X140481880Y-95687360D01*
X139910880Y-95687360D01*
X139835880Y-95762360D01*
X138940880Y-95762360D01*
X138940880Y-94969544D01*
X138960687Y-94949737D01*
X139250880Y-94949737D01*
X139367934Y-94926453D01*
X139467168Y-94860148D01*
X139533473Y-94760914D01*
X139556757Y-94643860D01*
X139556757Y-94143860D01*
X139533473Y-94026806D01*
X139473051Y-93936377D01*
X139523473Y-93860914D01*
X139546757Y-93743860D01*
X139546757Y-93243860D01*
X139523473Y-93126806D01*
X139478051Y-93058826D01*
X139543473Y-92960914D01*
X139566757Y-92843860D01*
X139566757Y-92343860D01*
X139543473Y-92226806D01*
X139477168Y-92127572D01*
X139377934Y-92061267D01*
X139260880Y-92037983D01*
X138660880Y-92037983D01*
X138578998Y-92054271D01*
X138699536Y-91933733D01*
X138790880Y-91713207D01*
X138790880Y-91474513D01*
X138699536Y-91253987D01*
X138695286Y-91249737D01*
X139190880Y-91249737D01*
X139307934Y-91226453D01*
X139407168Y-91160148D01*
X139450876Y-91094733D01*
X139485879Y-91101696D01*
X139525273Y-91093860D01*
X139641951Y-91070651D01*
X139774263Y-90982244D01*
X139796582Y-90948842D01*
X139850225Y-90895198D01*
X139830003Y-90996860D01*
X139830003Y-90996860D01*
G37*
X139830003Y-90996860D02*
X139830003Y-91250860D01*
X139853287Y-91367914D01*
X139857260Y-91373860D01*
X139853287Y-91379806D01*
X139830003Y-91496860D01*
X139830003Y-91750860D01*
X139853287Y-91867914D01*
X139857260Y-91873860D01*
X139853287Y-91879806D01*
X139830003Y-91996860D01*
X139830003Y-92250860D01*
X139853287Y-92367914D01*
X139857260Y-92373860D01*
X139853287Y-92379806D01*
X139830003Y-92496860D01*
X139830003Y-92750860D01*
X139853287Y-92867914D01*
X139857260Y-92873860D01*
X139853287Y-92879806D01*
X139830003Y-92996860D01*
X139830003Y-93250860D01*
X139853287Y-93367914D01*
X139857260Y-93373860D01*
X139853287Y-93379806D01*
X139830003Y-93496860D01*
X139830003Y-93750860D01*
X139853287Y-93867914D01*
X139857260Y-93873860D01*
X139853287Y-93879806D01*
X139830003Y-93996860D01*
X139830003Y-94250860D01*
X139853287Y-94367914D01*
X139857260Y-94373860D01*
X139853287Y-94379806D01*
X139830003Y-94496860D01*
X139830003Y-94750860D01*
X139853287Y-94867914D01*
X139857260Y-94873860D01*
X139853287Y-94879806D01*
X139830003Y-94996860D01*
X139830003Y-95250860D01*
X139853287Y-95367914D01*
X139860254Y-95378342D01*
X139835880Y-95437187D01*
X139835880Y-95485360D01*
X139910880Y-95560360D01*
X140481880Y-95560360D01*
X140481880Y-95556737D01*
X140789880Y-95556737D01*
X140789880Y-95560360D01*
X140809880Y-95560360D01*
X140809880Y-95687360D01*
X140789880Y-95687360D01*
X140789880Y-95975860D01*
X140864880Y-96050860D01*
X141195554Y-96050860D01*
X141258003Y-96024993D01*
X141258003Y-96413860D01*
X141269779Y-96473060D01*
X139083365Y-96473060D01*
X138940880Y-96330576D01*
X138940880Y-95762360D01*
X139835880Y-95762360D01*
X139835880Y-95810533D01*
X139881552Y-95920796D01*
X139965943Y-96005188D01*
X140076206Y-96050860D01*
X140406880Y-96050860D01*
X140481880Y-95975860D01*
X140481880Y-95687360D01*
X139910880Y-95687360D01*
X139835880Y-95762360D01*
X138940880Y-95762360D01*
X138940880Y-94969544D01*
X138960687Y-94949737D01*
X139250880Y-94949737D01*
X139367934Y-94926453D01*
X139467168Y-94860148D01*
X139533473Y-94760914D01*
X139556757Y-94643860D01*
X139556757Y-94143860D01*
X139533473Y-94026806D01*
X139473051Y-93936377D01*
X139523473Y-93860914D01*
X139546757Y-93743860D01*
X139546757Y-93243860D01*
X139523473Y-93126806D01*
X139478051Y-93058826D01*
X139543473Y-92960914D01*
X139566757Y-92843860D01*
X139566757Y-92343860D01*
X139543473Y-92226806D01*
X139477168Y-92127572D01*
X139377934Y-92061267D01*
X139260880Y-92037983D01*
X138660880Y-92037983D01*
X138578998Y-92054271D01*
X138699536Y-91933733D01*
X138790880Y-91713207D01*
X138790880Y-91474513D01*
X138699536Y-91253987D01*
X138695286Y-91249737D01*
X139190880Y-91249737D01*
X139307934Y-91226453D01*
X139407168Y-91160148D01*
X139450876Y-91094733D01*
X139485879Y-91101696D01*
X139525273Y-91093860D01*
X139641951Y-91070651D01*
X139774263Y-90982244D01*
X139796582Y-90948842D01*
X139850225Y-90895198D01*
X139830003Y-90996860D01*
G36*
X142483100Y-90623502D02*
X142439592Y-90652572D01*
X142142306Y-90949858D01*
X142120880Y-90949858D01*
X142120880Y-90971284D01*
X142105804Y-90986360D01*
X142120880Y-90986360D01*
X142120880Y-91028137D01*
X142020943Y-91069532D01*
X141936552Y-91153924D01*
X141908619Y-91221360D01*
X141903585Y-91221360D01*
X141903287Y-91221806D01*
X141898531Y-91245716D01*
X141890880Y-91264187D01*
X141890880Y-91284179D01*
X141880003Y-91338860D01*
X141890880Y-91393541D01*
X141890880Y-91599860D01*
X141965880Y-91674860D01*
X142786880Y-91674860D01*
X142786880Y-91658860D01*
X142951880Y-91658860D01*
X142966003Y-91644737D01*
X143026878Y-91644737D01*
X143026878Y-91658860D01*
X143094880Y-91658860D01*
X143094880Y-91674860D01*
X143114880Y-91674860D01*
X143114880Y-91982860D01*
X143094880Y-91982860D01*
X143094880Y-92558860D01*
X143169880Y-92633860D01*
X143750554Y-92633860D01*
X143860817Y-92588188D01*
X143930301Y-92518704D01*
X143936552Y-92533796D01*
X144020943Y-92618188D01*
X144131206Y-92663860D01*
X144711880Y-92663860D01*
X144786880Y-92588860D01*
X144786880Y-91767860D01*
X145094880Y-91767860D01*
X145094880Y-92588860D01*
X145169880Y-92663860D01*
X145750554Y-92663860D01*
X145860817Y-92618188D01*
X145945208Y-92533796D01*
X145990880Y-92423533D01*
X145990880Y-91842860D01*
X145915880Y-91767860D01*
X145094880Y-91767860D01*
X144786880Y-91767860D01*
X144766880Y-91767860D01*
X144766880Y-91459860D01*
X144786880Y-91459860D01*
X144786880Y-91439860D01*
X145094880Y-91439860D01*
X145094880Y-91459860D01*
X145915880Y-91459860D01*
X145990880Y-91384860D01*
X145990880Y-90927860D01*
X146453728Y-90927860D01*
X146440003Y-90996860D01*
X146440003Y-91250860D01*
X146463287Y-91367914D01*
X146467260Y-91373860D01*
X146463287Y-91379806D01*
X146440003Y-91496860D01*
X146440003Y-91750860D01*
X146463287Y-91867914D01*
X146467260Y-91873860D01*
X146463287Y-91879806D01*
X146440003Y-91996860D01*
X146440003Y-92250860D01*
X146463287Y-92367914D01*
X146467260Y-92373860D01*
X146463287Y-92379806D01*
X146440003Y-92496860D01*
X146440003Y-92750860D01*
X146463287Y-92867914D01*
X146467260Y-92873860D01*
X146463287Y-92879806D01*
X146440003Y-92996860D01*
X146440003Y-93250860D01*
X146463287Y-93367914D01*
X146467260Y-93373860D01*
X146463287Y-93379806D01*
X146440003Y-93496860D01*
X146440003Y-93750860D01*
X146463287Y-93867914D01*
X146467260Y-93873860D01*
X146463287Y-93879806D01*
X146440003Y-93996860D01*
X146440003Y-94250860D01*
X146463287Y-94367914D01*
X146467260Y-94373860D01*
X146463287Y-94379806D01*
X146440003Y-94496860D01*
X146440003Y-94750860D01*
X146463287Y-94867914D01*
X146467260Y-94873860D01*
X146463287Y-94879806D01*
X146440003Y-94996860D01*
X146440003Y-95134654D01*
X146434934Y-95131267D01*
X146317880Y-95107983D01*
X146063880Y-95107983D01*
X145946826Y-95131267D01*
X145940880Y-95135240D01*
X145934934Y-95131267D01*
X145817880Y-95107983D01*
X145563880Y-95107983D01*
X145446826Y-95131267D01*
X145440880Y-95135240D01*
X145434934Y-95131267D01*
X145317880Y-95107983D01*
X145063880Y-95107983D01*
X144946826Y-95131267D01*
X144940880Y-95135240D01*
X144934934Y-95131267D01*
X144817880Y-95107983D01*
X144563880Y-95107983D01*
X144446826Y-95131267D01*
X144440880Y-95135240D01*
X144434934Y-95131267D01*
X144317880Y-95107983D01*
X144063880Y-95107983D01*
X143946826Y-95131267D01*
X143940880Y-95135240D01*
X143934934Y-95131267D01*
X143817880Y-95107983D01*
X143563880Y-95107983D01*
X143446826Y-95131267D01*
X143440880Y-95135240D01*
X143434934Y-95131267D01*
X143317880Y-95107983D01*
X143063880Y-95107983D01*
X142946826Y-95131267D01*
X142940880Y-95135240D01*
X142934934Y-95131267D01*
X142817880Y-95107983D01*
X142563880Y-95107983D01*
X142446826Y-95131267D01*
X142440880Y-95135240D01*
X142434934Y-95131267D01*
X142317880Y-95107983D01*
X142063880Y-95107983D01*
X141946826Y-95131267D01*
X141940880Y-95135240D01*
X141934934Y-95131267D01*
X141817880Y-95107983D01*
X141563880Y-95107983D01*
X141446826Y-95131267D01*
X141441757Y-95134654D01*
X141441757Y-94996860D01*
X141418473Y-94879806D01*
X141414500Y-94873860D01*
X141418473Y-94867914D01*
X141441757Y-94750860D01*
X141441757Y-94496860D01*
X141418473Y-94379806D01*
X141414500Y-94373860D01*
X141418473Y-94367914D01*
X141441757Y-94250860D01*
X141441757Y-93996860D01*
X141434994Y-93962860D01*
X141890880Y-93962860D01*
X141890880Y-94543533D01*
X141936552Y-94653796D01*
X142020943Y-94738188D01*
X142131206Y-94783860D01*
X142711880Y-94783860D01*
X142786880Y-94708860D01*
X142786880Y-93887860D01*
X143094880Y-93887860D01*
X143094880Y-94708860D01*
X143169880Y-94783860D01*
X143750554Y-94783860D01*
X143860817Y-94738188D01*
X143940880Y-94658124D01*
X144020943Y-94738188D01*
X144131206Y-94783860D01*
X144711880Y-94783860D01*
X144786880Y-94708860D01*
X144786880Y-93887860D01*
X145094880Y-93887860D01*
X145094880Y-94708860D01*
X145169880Y-94783860D01*
X145750554Y-94783860D01*
X145860817Y-94738188D01*
X145945208Y-94653796D01*
X145990880Y-94543533D01*
X145990880Y-93962860D01*
X145915880Y-93887860D01*
X145094880Y-93887860D01*
X144786880Y-93887860D01*
X143965880Y-93887860D01*
X143940880Y-93912860D01*
X143915880Y-93887860D01*
X143094880Y-93887860D01*
X142786880Y-93887860D01*
X141965880Y-93887860D01*
X141890880Y-93962860D01*
X141434994Y-93962860D01*
X141418473Y-93879806D01*
X141414500Y-93873860D01*
X141418473Y-93867914D01*
X141441757Y-93750860D01*
X141441757Y-93496860D01*
X141418473Y-93379806D01*
X141414500Y-93373860D01*
X141418473Y-93367914D01*
X141441757Y-93250860D01*
X141441757Y-92996860D01*
X141427302Y-92924187D01*
X141890880Y-92924187D01*
X141890880Y-93504860D01*
X141965880Y-93579860D01*
X142786880Y-93579860D01*
X142786880Y-92758860D01*
X143094880Y-92758860D01*
X143094880Y-93579860D01*
X143915880Y-93579860D01*
X143940880Y-93554860D01*
X143965880Y-93579860D01*
X144786880Y-93579860D01*
X144786880Y-92758860D01*
X145094880Y-92758860D01*
X145094880Y-93579860D01*
X145915880Y-93579860D01*
X145990880Y-93504860D01*
X145990880Y-92924187D01*
X145945208Y-92813924D01*
X145860817Y-92729532D01*
X145750554Y-92683860D01*
X145169880Y-92683860D01*
X145094880Y-92758860D01*
X144786880Y-92758860D01*
X144711880Y-92683860D01*
X144131206Y-92683860D01*
X144020943Y-92729532D01*
X143940880Y-92809596D01*
X143860817Y-92729532D01*
X143750554Y-92683860D01*
X143169880Y-92683860D01*
X143094880Y-92758860D01*
X142786880Y-92758860D01*
X142711880Y-92683860D01*
X142131206Y-92683860D01*
X142020943Y-92729532D01*
X141936552Y-92813924D01*
X141890880Y-92924187D01*
X141427302Y-92924187D01*
X141418473Y-92879806D01*
X141414500Y-92873860D01*
X141418473Y-92867914D01*
X141441757Y-92750860D01*
X141441757Y-92496860D01*
X141418473Y-92379806D01*
X141414500Y-92373860D01*
X141418473Y-92367914D01*
X141441757Y-92250860D01*
X141441757Y-92057860D01*
X141890880Y-92057860D01*
X141890880Y-92393533D01*
X141936552Y-92503796D01*
X142020943Y-92588188D01*
X142131206Y-92633860D01*
X142711880Y-92633860D01*
X142786880Y-92558860D01*
X142786880Y-91982860D01*
X141965880Y-91982860D01*
X141890880Y-92057860D01*
X141441757Y-92057860D01*
X141441757Y-91996860D01*
X141418473Y-91879806D01*
X141414500Y-91873860D01*
X141418473Y-91867914D01*
X141441757Y-91750860D01*
X141441757Y-91496860D01*
X141418473Y-91379806D01*
X141414500Y-91373860D01*
X141418473Y-91367914D01*
X141441757Y-91250860D01*
X141441757Y-90996860D01*
X141418473Y-90879806D01*
X141414500Y-90873860D01*
X141418473Y-90867914D01*
X141441757Y-90750860D01*
X141441757Y-90496860D01*
X141418473Y-90379806D01*
X141414500Y-90373860D01*
X141418473Y-90367914D01*
X141441757Y-90250860D01*
X141441757Y-89996860D01*
X141418473Y-89879806D01*
X141414500Y-89873860D01*
X141418473Y-89867914D01*
X141441757Y-89750860D01*
X141441757Y-89582159D01*
X142483100Y-90623502D01*
X142483100Y-90623502D01*
G37*
X142483100Y-90623502D02*
X142439592Y-90652572D01*
X142142306Y-90949858D01*
X142120880Y-90949858D01*
X142120880Y-90971284D01*
X142105804Y-90986360D01*
X142120880Y-90986360D01*
X142120880Y-91028137D01*
X142020943Y-91069532D01*
X141936552Y-91153924D01*
X141908619Y-91221360D01*
X141903585Y-91221360D01*
X141903287Y-91221806D01*
X141898531Y-91245716D01*
X141890880Y-91264187D01*
X141890880Y-91284179D01*
X141880003Y-91338860D01*
X141890880Y-91393541D01*
X141890880Y-91599860D01*
X141965880Y-91674860D01*
X142786880Y-91674860D01*
X142786880Y-91658860D01*
X142951880Y-91658860D01*
X142966003Y-91644737D01*
X143026878Y-91644737D01*
X143026878Y-91658860D01*
X143094880Y-91658860D01*
X143094880Y-91674860D01*
X143114880Y-91674860D01*
X143114880Y-91982860D01*
X143094880Y-91982860D01*
X143094880Y-92558860D01*
X143169880Y-92633860D01*
X143750554Y-92633860D01*
X143860817Y-92588188D01*
X143930301Y-92518704D01*
X143936552Y-92533796D01*
X144020943Y-92618188D01*
X144131206Y-92663860D01*
X144711880Y-92663860D01*
X144786880Y-92588860D01*
X144786880Y-91767860D01*
X145094880Y-91767860D01*
X145094880Y-92588860D01*
X145169880Y-92663860D01*
X145750554Y-92663860D01*
X145860817Y-92618188D01*
X145945208Y-92533796D01*
X145990880Y-92423533D01*
X145990880Y-91842860D01*
X145915880Y-91767860D01*
X145094880Y-91767860D01*
X144786880Y-91767860D01*
X144766880Y-91767860D01*
X144766880Y-91459860D01*
X144786880Y-91459860D01*
X144786880Y-91439860D01*
X145094880Y-91439860D01*
X145094880Y-91459860D01*
X145915880Y-91459860D01*
X145990880Y-91384860D01*
X145990880Y-90927860D01*
X146453728Y-90927860D01*
X146440003Y-90996860D01*
X146440003Y-91250860D01*
X146463287Y-91367914D01*
X146467260Y-91373860D01*
X146463287Y-91379806D01*
X146440003Y-91496860D01*
X146440003Y-91750860D01*
X146463287Y-91867914D01*
X146467260Y-91873860D01*
X146463287Y-91879806D01*
X146440003Y-91996860D01*
X146440003Y-92250860D01*
X146463287Y-92367914D01*
X146467260Y-92373860D01*
X146463287Y-92379806D01*
X146440003Y-92496860D01*
X146440003Y-92750860D01*
X146463287Y-92867914D01*
X146467260Y-92873860D01*
X146463287Y-92879806D01*
X146440003Y-92996860D01*
X146440003Y-93250860D01*
X146463287Y-93367914D01*
X146467260Y-93373860D01*
X146463287Y-93379806D01*
X146440003Y-93496860D01*
X146440003Y-93750860D01*
X146463287Y-93867914D01*
X146467260Y-93873860D01*
X146463287Y-93879806D01*
X146440003Y-93996860D01*
X146440003Y-94250860D01*
X146463287Y-94367914D01*
X146467260Y-94373860D01*
X146463287Y-94379806D01*
X146440003Y-94496860D01*
X146440003Y-94750860D01*
X146463287Y-94867914D01*
X146467260Y-94873860D01*
X146463287Y-94879806D01*
X146440003Y-94996860D01*
X146440003Y-95134654D01*
X146434934Y-95131267D01*
X146317880Y-95107983D01*
X146063880Y-95107983D01*
X145946826Y-95131267D01*
X145940880Y-95135240D01*
X145934934Y-95131267D01*
X145817880Y-95107983D01*
X145563880Y-95107983D01*
X145446826Y-95131267D01*
X145440880Y-95135240D01*
X145434934Y-95131267D01*
X145317880Y-95107983D01*
X145063880Y-95107983D01*
X144946826Y-95131267D01*
X144940880Y-95135240D01*
X144934934Y-95131267D01*
X144817880Y-95107983D01*
X144563880Y-95107983D01*
X144446826Y-95131267D01*
X144440880Y-95135240D01*
X144434934Y-95131267D01*
X144317880Y-95107983D01*
X144063880Y-95107983D01*
X143946826Y-95131267D01*
X143940880Y-95135240D01*
X143934934Y-95131267D01*
X143817880Y-95107983D01*
X143563880Y-95107983D01*
X143446826Y-95131267D01*
X143440880Y-95135240D01*
X143434934Y-95131267D01*
X143317880Y-95107983D01*
X143063880Y-95107983D01*
X142946826Y-95131267D01*
X142940880Y-95135240D01*
X142934934Y-95131267D01*
X142817880Y-95107983D01*
X142563880Y-95107983D01*
X142446826Y-95131267D01*
X142440880Y-95135240D01*
X142434934Y-95131267D01*
X142317880Y-95107983D01*
X142063880Y-95107983D01*
X141946826Y-95131267D01*
X141940880Y-95135240D01*
X141934934Y-95131267D01*
X141817880Y-95107983D01*
X141563880Y-95107983D01*
X141446826Y-95131267D01*
X141441757Y-95134654D01*
X141441757Y-94996860D01*
X141418473Y-94879806D01*
X141414500Y-94873860D01*
X141418473Y-94867914D01*
X141441757Y-94750860D01*
X141441757Y-94496860D01*
X141418473Y-94379806D01*
X141414500Y-94373860D01*
X141418473Y-94367914D01*
X141441757Y-94250860D01*
X141441757Y-93996860D01*
X141434994Y-93962860D01*
X141890880Y-93962860D01*
X141890880Y-94543533D01*
X141936552Y-94653796D01*
X142020943Y-94738188D01*
X142131206Y-94783860D01*
X142711880Y-94783860D01*
X142786880Y-94708860D01*
X142786880Y-93887860D01*
X143094880Y-93887860D01*
X143094880Y-94708860D01*
X143169880Y-94783860D01*
X143750554Y-94783860D01*
X143860817Y-94738188D01*
X143940880Y-94658124D01*
X144020943Y-94738188D01*
X144131206Y-94783860D01*
X144711880Y-94783860D01*
X144786880Y-94708860D01*
X144786880Y-93887860D01*
X145094880Y-93887860D01*
X145094880Y-94708860D01*
X145169880Y-94783860D01*
X145750554Y-94783860D01*
X145860817Y-94738188D01*
X145945208Y-94653796D01*
X145990880Y-94543533D01*
X145990880Y-93962860D01*
X145915880Y-93887860D01*
X145094880Y-93887860D01*
X144786880Y-93887860D01*
X143965880Y-93887860D01*
X143940880Y-93912860D01*
X143915880Y-93887860D01*
X143094880Y-93887860D01*
X142786880Y-93887860D01*
X141965880Y-93887860D01*
X141890880Y-93962860D01*
X141434994Y-93962860D01*
X141418473Y-93879806D01*
X141414500Y-93873860D01*
X141418473Y-93867914D01*
X141441757Y-93750860D01*
X141441757Y-93496860D01*
X141418473Y-93379806D01*
X141414500Y-93373860D01*
X141418473Y-93367914D01*
X141441757Y-93250860D01*
X141441757Y-92996860D01*
X141427302Y-92924187D01*
X141890880Y-92924187D01*
X141890880Y-93504860D01*
X141965880Y-93579860D01*
X142786880Y-93579860D01*
X142786880Y-92758860D01*
X143094880Y-92758860D01*
X143094880Y-93579860D01*
X143915880Y-93579860D01*
X143940880Y-93554860D01*
X143965880Y-93579860D01*
X144786880Y-93579860D01*
X144786880Y-92758860D01*
X145094880Y-92758860D01*
X145094880Y-93579860D01*
X145915880Y-93579860D01*
X145990880Y-93504860D01*
X145990880Y-92924187D01*
X145945208Y-92813924D01*
X145860817Y-92729532D01*
X145750554Y-92683860D01*
X145169880Y-92683860D01*
X145094880Y-92758860D01*
X144786880Y-92758860D01*
X144711880Y-92683860D01*
X144131206Y-92683860D01*
X144020943Y-92729532D01*
X143940880Y-92809596D01*
X143860817Y-92729532D01*
X143750554Y-92683860D01*
X143169880Y-92683860D01*
X143094880Y-92758860D01*
X142786880Y-92758860D01*
X142711880Y-92683860D01*
X142131206Y-92683860D01*
X142020943Y-92729532D01*
X141936552Y-92813924D01*
X141890880Y-92924187D01*
X141427302Y-92924187D01*
X141418473Y-92879806D01*
X141414500Y-92873860D01*
X141418473Y-92867914D01*
X141441757Y-92750860D01*
X141441757Y-92496860D01*
X141418473Y-92379806D01*
X141414500Y-92373860D01*
X141418473Y-92367914D01*
X141441757Y-92250860D01*
X141441757Y-92057860D01*
X141890880Y-92057860D01*
X141890880Y-92393533D01*
X141936552Y-92503796D01*
X142020943Y-92588188D01*
X142131206Y-92633860D01*
X142711880Y-92633860D01*
X142786880Y-92558860D01*
X142786880Y-91982860D01*
X141965880Y-91982860D01*
X141890880Y-92057860D01*
X141441757Y-92057860D01*
X141441757Y-91996860D01*
X141418473Y-91879806D01*
X141414500Y-91873860D01*
X141418473Y-91867914D01*
X141441757Y-91750860D01*
X141441757Y-91496860D01*
X141418473Y-91379806D01*
X141414500Y-91373860D01*
X141418473Y-91367914D01*
X141441757Y-91250860D01*
X141441757Y-90996860D01*
X141418473Y-90879806D01*
X141414500Y-90873860D01*
X141418473Y-90867914D01*
X141441757Y-90750860D01*
X141441757Y-90496860D01*
X141418473Y-90379806D01*
X141414500Y-90373860D01*
X141418473Y-90367914D01*
X141441757Y-90250860D01*
X141441757Y-89996860D01*
X141418473Y-89879806D01*
X141414500Y-89873860D01*
X141418473Y-89867914D01*
X141441757Y-89750860D01*
X141441757Y-89582159D01*
X142483100Y-90623502D01*
G36*
X143334880Y-90991360D02*
X143354880Y-90991360D01*
X143354880Y-91023860D01*
X143200880Y-91023860D01*
X143200880Y-90986360D01*
X143215956Y-90986360D01*
X143200880Y-90971284D01*
X143200880Y-90949858D01*
X143179454Y-90949858D01*
X143169456Y-90939860D01*
X143334880Y-90939860D01*
X143334880Y-90991360D01*
X143334880Y-90991360D01*
G37*
X143334880Y-90991360D02*
X143354880Y-90991360D01*
X143354880Y-91023860D01*
X143200880Y-91023860D01*
X143200880Y-90986360D01*
X143215956Y-90986360D01*
X143200880Y-90971284D01*
X143200880Y-90949858D01*
X143179454Y-90949858D01*
X143169456Y-90939860D01*
X143334880Y-90939860D01*
X143334880Y-90991360D01*
D42*
G04 #@! TO.N,VPP*
G36*
X130077553Y-99459162D02*
X129980880Y-99692551D01*
X129980880Y-99933110D01*
X130139630Y-100091860D01*
X130863880Y-100091860D01*
X130863880Y-100071860D01*
X131117880Y-100071860D01*
X131117880Y-100091860D01*
X131137880Y-100091860D01*
X131137880Y-100345860D01*
X131117880Y-100345860D01*
X131117880Y-100365860D01*
X130863880Y-100365860D01*
X130863880Y-100345860D01*
X130139630Y-100345860D01*
X129980880Y-100504610D01*
X129980880Y-100659610D01*
X129930130Y-100608860D01*
X129789571Y-100608860D01*
X129556182Y-100705533D01*
X129377553Y-100884161D01*
X129280880Y-101117550D01*
X129280880Y-101210110D01*
X129439630Y-101368860D01*
X130088880Y-101368860D01*
X130088880Y-101346860D01*
X130342880Y-101346860D01*
X130342880Y-101368860D01*
X130362880Y-101368860D01*
X130362880Y-101618860D01*
X130342880Y-101618860D01*
X130342880Y-101640860D01*
X130088880Y-101640860D01*
X130088880Y-101618860D01*
X129439630Y-101618860D01*
X129280880Y-101777610D01*
X129280880Y-101813085D01*
X129135713Y-101873215D01*
X128959335Y-102049593D01*
X128863880Y-102280042D01*
X128863880Y-102529478D01*
X128959335Y-102759927D01*
X129135713Y-102936305D01*
X129366162Y-103031760D01*
X129592928Y-103031760D01*
X129592928Y-103131360D01*
X129632355Y-103329572D01*
X129707384Y-103441860D01*
X128103040Y-103441860D01*
X128103040Y-99370860D01*
X130165855Y-99370860D01*
X130077553Y-99459162D01*
X130077553Y-99459162D01*
G37*
X130077553Y-99459162D02*
X129980880Y-99692551D01*
X129980880Y-99933110D01*
X130139630Y-100091860D01*
X130863880Y-100091860D01*
X130863880Y-100071860D01*
X131117880Y-100071860D01*
X131117880Y-100091860D01*
X131137880Y-100091860D01*
X131137880Y-100345860D01*
X131117880Y-100345860D01*
X131117880Y-100365860D01*
X130863880Y-100365860D01*
X130863880Y-100345860D01*
X130139630Y-100345860D01*
X129980880Y-100504610D01*
X129980880Y-100659610D01*
X129930130Y-100608860D01*
X129789571Y-100608860D01*
X129556182Y-100705533D01*
X129377553Y-100884161D01*
X129280880Y-101117550D01*
X129280880Y-101210110D01*
X129439630Y-101368860D01*
X130088880Y-101368860D01*
X130088880Y-101346860D01*
X130342880Y-101346860D01*
X130342880Y-101368860D01*
X130362880Y-101368860D01*
X130362880Y-101618860D01*
X130342880Y-101618860D01*
X130342880Y-101640860D01*
X130088880Y-101640860D01*
X130088880Y-101618860D01*
X129439630Y-101618860D01*
X129280880Y-101777610D01*
X129280880Y-101813085D01*
X129135713Y-101873215D01*
X128959335Y-102049593D01*
X128863880Y-102280042D01*
X128863880Y-102529478D01*
X128959335Y-102759927D01*
X129135713Y-102936305D01*
X129366162Y-103031760D01*
X129592928Y-103031760D01*
X129592928Y-103131360D01*
X129632355Y-103329572D01*
X129707384Y-103441860D01*
X128103040Y-103441860D01*
X128103040Y-99370860D01*
X130165855Y-99370860D01*
X130077553Y-99459162D01*
G04 #@! TD*
M02*
