G04 #@! TF.GenerationSoftware,KiCad,Pcbnew,(5.0.1-3-g963ef8bb5)*
G04 #@! TF.CreationDate,2019-06-17T11:31:16-10:00*
G04 #@! TF.ProjectId,OpenHAK_03,4F70656E48414B5F30332E6B69636164,rev?*
G04 #@! TF.SameCoordinates,Original*
G04 #@! TF.FileFunction,Legend,Top*
G04 #@! TF.FilePolarity,Positive*
%FSLAX46Y46*%
G04 Gerber Fmt 4.6, Leading zero omitted, Abs format (unit mm)*
G04 Created by KiCad (PCBNEW (5.0.1-3-g963ef8bb5)) date Monday, June 17, 2019 at 11:31:16 AM*
%MOMM*%
%LPD*%
G01*
G04 APERTURE LIST*
%ADD10C,0.200000*%
%ADD11C,0.300000*%
%ADD12C,0.120000*%
%ADD13C,0.100000*%
%ADD14C,0.150000*%
%ADD15C,0.127000*%
G04 APERTURE END LIST*
D10*
X132812857Y-105238571D02*
X132949761Y-105286190D01*
X132991428Y-105333809D01*
X133027142Y-105429047D01*
X133009285Y-105571904D01*
X132949761Y-105667142D01*
X132896190Y-105714761D01*
X132795000Y-105762380D01*
X132414047Y-105762380D01*
X132539047Y-104762380D01*
X132872380Y-104762380D01*
X132961666Y-104810000D01*
X133003333Y-104857619D01*
X133039047Y-104952857D01*
X133027142Y-105048095D01*
X132967619Y-105143333D01*
X132914047Y-105190952D01*
X132812857Y-105238571D01*
X132479523Y-105238571D01*
X133414047Y-105762380D02*
X133539047Y-104762380D01*
X134205714Y-104762380D02*
X134396190Y-104762380D01*
X134485476Y-104810000D01*
X134568809Y-104905238D01*
X134592619Y-105095714D01*
X134550952Y-105429047D01*
X134479523Y-105619523D01*
X134372380Y-105714761D01*
X134271190Y-105762380D01*
X134080714Y-105762380D01*
X133991428Y-105714761D01*
X133908095Y-105619523D01*
X133884285Y-105429047D01*
X133925952Y-105095714D01*
X133997380Y-104905238D01*
X134104523Y-104810000D01*
X134205714Y-104762380D01*
X134937857Y-105762380D02*
X135062857Y-104762380D01*
X135003333Y-105238571D02*
X135574761Y-105238571D01*
X135509285Y-105762380D02*
X135634285Y-104762380D01*
X135973571Y-105476666D02*
X136449761Y-105476666D01*
X135842619Y-105762380D02*
X136300952Y-104762380D01*
X136509285Y-105762380D01*
X137425952Y-105667142D02*
X137372380Y-105714761D01*
X137223571Y-105762380D01*
X137128333Y-105762380D01*
X136991428Y-105714761D01*
X136908095Y-105619523D01*
X136872380Y-105524285D01*
X136848571Y-105333809D01*
X136866428Y-105190952D01*
X136937857Y-105000476D01*
X136997380Y-104905238D01*
X137104523Y-104810000D01*
X137253333Y-104762380D01*
X137348571Y-104762380D01*
X137485476Y-104810000D01*
X137527142Y-104857619D01*
X137842619Y-105762380D02*
X137967619Y-104762380D01*
X138414047Y-105762380D02*
X138056904Y-105190952D01*
X138539047Y-104762380D02*
X137896190Y-105333809D01*
X132396190Y-106462380D02*
X132604523Y-107462380D01*
X133062857Y-106462380D01*
X133271190Y-107462380D02*
X133396190Y-106462380D01*
X134223571Y-107462380D02*
X133747380Y-107462380D01*
X133872380Y-106462380D01*
X135033095Y-107462380D02*
X134556904Y-107462380D01*
X134681904Y-106462380D01*
X135354523Y-107176666D02*
X135830714Y-107176666D01*
X135223571Y-107462380D02*
X135681904Y-106462380D01*
X135890238Y-107462380D01*
X136866428Y-106510000D02*
X136777142Y-106462380D01*
X136634285Y-106462380D01*
X136485476Y-106510000D01*
X136378333Y-106605238D01*
X136318809Y-106700476D01*
X136247380Y-106890952D01*
X136229523Y-107033809D01*
X136253333Y-107224285D01*
X136289047Y-107319523D01*
X136372380Y-107414761D01*
X136509285Y-107462380D01*
X136604523Y-107462380D01*
X136753333Y-107414761D01*
X136806904Y-107367142D01*
X136848571Y-107033809D01*
X136658095Y-107033809D01*
X137289047Y-106938571D02*
X137622380Y-106938571D01*
X137699761Y-107462380D02*
X137223571Y-107462380D01*
X137348571Y-106462380D01*
X137824761Y-106462380D01*
D11*
X126820522Y-109672431D02*
X127008022Y-108172431D01*
X127365165Y-108172431D01*
X127570522Y-108243860D01*
X127695522Y-108386717D01*
X127749094Y-108529574D01*
X127784808Y-108815288D01*
X127758022Y-109029574D01*
X127650880Y-109315288D01*
X127561594Y-109458145D01*
X127400880Y-109601002D01*
X127177665Y-109672431D01*
X126820522Y-109672431D01*
X128418737Y-108886717D02*
X128918737Y-108886717D01*
X129034808Y-109672431D02*
X128320522Y-109672431D01*
X128508022Y-108172431D01*
X129222308Y-108172431D01*
X130275880Y-108886717D02*
X129775880Y-108886717D01*
X129677665Y-109672431D02*
X129865165Y-108172431D01*
X130579451Y-108172431D01*
X131838380Y-109529574D02*
X131758022Y-109601002D01*
X131534808Y-109672431D01*
X131391951Y-109672431D01*
X131186594Y-109601002D01*
X131061594Y-109458145D01*
X131008022Y-109315288D01*
X130972308Y-109029574D01*
X130999094Y-108815288D01*
X131106237Y-108529574D01*
X131195522Y-108386717D01*
X131356237Y-108243860D01*
X131579451Y-108172431D01*
X131722308Y-108172431D01*
X131927665Y-108243860D01*
X131990165Y-108315288D01*
X132936594Y-108172431D02*
X133222308Y-108172431D01*
X133356237Y-108243860D01*
X133481237Y-108386717D01*
X133516951Y-108672431D01*
X133454451Y-109172431D01*
X133347308Y-109458145D01*
X133186594Y-109601002D01*
X133034808Y-109672431D01*
X132749094Y-109672431D01*
X132615165Y-109601002D01*
X132490165Y-109458145D01*
X132454451Y-109172431D01*
X132516951Y-108672431D01*
X132624094Y-108386717D01*
X132784808Y-108243860D01*
X132936594Y-108172431D01*
X134034808Y-109672431D02*
X134222308Y-108172431D01*
X134891951Y-109672431D01*
X135079451Y-108172431D01*
X135704451Y-108315288D02*
X135784808Y-108243860D01*
X135936594Y-108172431D01*
X136293737Y-108172431D01*
X136427665Y-108243860D01*
X136490165Y-108315288D01*
X136543737Y-108458145D01*
X136525880Y-108601002D01*
X136427665Y-108815288D01*
X135463380Y-109672431D01*
X136391951Y-109672431D01*
X137079451Y-108172431D02*
X138079451Y-108172431D01*
X137249094Y-109672431D01*
D10*
X150972380Y-92490000D02*
X150972380Y-92299523D01*
X151020000Y-92210238D01*
X151115238Y-92126904D01*
X151305714Y-92103095D01*
X151639047Y-92144761D01*
X151829523Y-92216190D01*
X151924761Y-92323333D01*
X151972380Y-92424523D01*
X151972380Y-92615000D01*
X151924761Y-92704285D01*
X151829523Y-92787619D01*
X151639047Y-92811428D01*
X151305714Y-92769761D01*
X151115238Y-92698333D01*
X151020000Y-92591190D01*
X150972380Y-92490000D01*
X151305714Y-91674523D02*
X152305714Y-91799523D01*
X151353333Y-91680476D02*
X151305714Y-91579285D01*
X151305714Y-91388809D01*
X151353333Y-91299523D01*
X151400952Y-91257857D01*
X151496190Y-91222142D01*
X151781904Y-91257857D01*
X151877142Y-91317380D01*
X151924761Y-91370952D01*
X151972380Y-91472142D01*
X151972380Y-91662619D01*
X151924761Y-91751904D01*
X151924761Y-90466190D02*
X151972380Y-90567380D01*
X151972380Y-90757857D01*
X151924761Y-90847142D01*
X151829523Y-90882857D01*
X151448571Y-90835238D01*
X151353333Y-90775714D01*
X151305714Y-90674523D01*
X151305714Y-90484047D01*
X151353333Y-90394761D01*
X151448571Y-90359047D01*
X151543809Y-90370952D01*
X151639047Y-90859047D01*
X151305714Y-89912619D02*
X151972380Y-89995952D01*
X151400952Y-89924523D02*
X151353333Y-89870952D01*
X151305714Y-89769761D01*
X151305714Y-89626904D01*
X151353333Y-89537619D01*
X151448571Y-89501904D01*
X151972380Y-89567380D01*
X151972380Y-89091190D02*
X150972380Y-88966190D01*
X151448571Y-89025714D02*
X151448571Y-88454285D01*
X151972380Y-88519761D02*
X150972380Y-88394761D01*
X151686666Y-88055476D02*
X151686666Y-87579285D01*
X151972380Y-88186428D02*
X150972380Y-87728095D01*
X151972380Y-87519761D01*
X151972380Y-87186428D02*
X150972380Y-87061428D01*
X151972380Y-86615000D02*
X151400952Y-86972142D01*
X150972380Y-86490000D02*
X151543809Y-87132857D01*
D12*
G04 #@! TO.C,C6*
X138310880Y-98543860D02*
X138310880Y-98043860D01*
X137370880Y-98043860D02*
X137370880Y-98543860D01*
D13*
G04 #@! TO.C,U4*
X150940880Y-104193860D02*
X148440880Y-104193860D01*
X150940880Y-101193860D02*
X150940880Y-104193860D01*
X148440880Y-101193860D02*
X150940880Y-101193860D01*
X148440880Y-104193860D02*
X148440880Y-101193860D01*
D12*
G04 #@! TO.C,C12*
X131015880Y-101023860D02*
X130515880Y-101023860D01*
X130515880Y-101963860D02*
X131015880Y-101963860D01*
D10*
G04 #@! TO.C,U6*
X131165880Y-103293860D02*
X131565880Y-103293860D01*
X131565880Y-103293860D02*
X131565880Y-102893860D01*
X129965880Y-103193860D02*
X129965880Y-102093860D01*
X129965880Y-102093860D02*
X131465880Y-102093860D01*
D13*
G04 #@! TO.C,U7*
X141690880Y-101093860D02*
G75*
G03X141690880Y-101093860I-100000J0D01*
G01*
X142790880Y-102493860D02*
X141790880Y-102493860D01*
X142790880Y-101093860D02*
X141790880Y-101093860D01*
D12*
G04 #@! TO.C,C7*
X139210880Y-98543860D02*
X139210880Y-98043860D01*
X138270880Y-98043860D02*
X138270880Y-98543860D01*
G04 #@! TO.C,C8*
X138840880Y-103138860D02*
X139340880Y-103138860D01*
X139340880Y-102198860D02*
X138840880Y-102198860D01*
D14*
G04 #@! TO.C,U1*
X139940880Y-85693860D02*
X147940880Y-85693860D01*
X139940880Y-96193860D02*
X139940880Y-85693860D01*
X147940880Y-96693860D02*
X147940880Y-85693860D01*
X139940880Y-96693860D02*
X147940880Y-96693860D01*
X139940880Y-96193860D02*
X139940880Y-96693860D01*
D12*
G04 #@! TO.C,S3*
X157392880Y-87267860D02*
X155392880Y-87267860D01*
X155392880Y-89307860D02*
X157392880Y-89307860D01*
X157519880Y-107079860D02*
X155519880Y-107079860D01*
X155519880Y-109119860D02*
X157519880Y-109119860D01*
X125261880Y-107079860D02*
X123261880Y-107079860D01*
X123261880Y-109119860D02*
X125261880Y-109119860D01*
D14*
G04 #@! TO.C,D2*
X130390880Y-99818860D02*
X130390880Y-99118860D01*
X131590880Y-99118860D02*
X131590880Y-99818860D01*
G04 #@! TO.C,D3*
X131615880Y-95118860D02*
X131615880Y-95818860D01*
X129615880Y-95818860D02*
X129615880Y-95118860D01*
G04 #@! TO.C,U5*
X131915880Y-93993860D02*
G75*
G03X131915880Y-93993860I-100000J0D01*
G01*
X132065880Y-93443860D02*
X132065880Y-93943860D01*
X134965880Y-93443860D02*
X132065880Y-93443860D01*
X134965880Y-93943860D02*
X134965880Y-93443860D01*
X132065880Y-93943860D02*
X134965880Y-93943860D01*
D13*
G04 #@! TO.C,P2*
X136984220Y-90845647D02*
X136984220Y-86495647D01*
X136984220Y-86495647D02*
X128384220Y-86495647D01*
X128384220Y-86495647D02*
X128384220Y-90845647D01*
G04 #@! TO.C,D1*
X151400000Y-99400000D02*
G75*
G03X151400000Y-99400000I-200000J0D01*
G01*
X151200000Y-97200000D02*
X151200000Y-99200000D01*
X151000000Y-99400000D02*
X149000000Y-99400000D01*
X148800000Y-99200000D02*
X148800000Y-97200000D01*
X149000000Y-97000000D02*
X151000000Y-97000000D01*
D12*
G04 #@! TO.C,S2*
X125261880Y-87267860D02*
X123261880Y-87267860D01*
X123261880Y-89307860D02*
X125261880Y-89307860D01*
D15*
G04 #@! TO.C,W3*
X154492880Y-89014860D02*
X156392880Y-89014860D01*
X156392880Y-89014860D02*
X158292880Y-89014860D01*
D12*
X156892880Y-87564860D02*
X155892880Y-87564860D01*
D15*
G04 #@! TO.C,W4*
X158419880Y-107499860D02*
X156519880Y-107499860D01*
X156519880Y-107499860D02*
X154619880Y-107499860D01*
D12*
X156019880Y-108949860D02*
X157019880Y-108949860D01*
D15*
G04 #@! TO.C,W2*
X126161880Y-107499860D02*
X124261880Y-107499860D01*
X124261880Y-107499860D02*
X122361880Y-107499860D01*
D12*
X123761880Y-108949860D02*
X124761880Y-108949860D01*
D15*
G04 #@! TO.C,W1*
X122361880Y-89014860D02*
X124261880Y-89014860D01*
X124261880Y-89014860D02*
X126161880Y-89014860D01*
D12*
X124761880Y-87564860D02*
X123761880Y-87564860D01*
G04 #@! TO.C,BT1*
X133665880Y-98056360D02*
G75*
G03X133665880Y-98056360I-250000J0D01*
G01*
X134015880Y-102881360D02*
X135815880Y-102881360D01*
X132915880Y-100981360D02*
X132915880Y-98631360D01*
X132915880Y-98631360D02*
X133815880Y-98631360D01*
X133415880Y-98631360D02*
X133415880Y-99831360D01*
X133415880Y-99831360D02*
X133415880Y-99831360D01*
X133415880Y-99831360D02*
X133415880Y-98631360D01*
X133415880Y-98631360D02*
X133415880Y-98631360D01*
X133415880Y-99131360D02*
X133415880Y-99131360D01*
X133415880Y-99131360D02*
X132915880Y-99131360D01*
X132915880Y-99131360D02*
X132915880Y-99131360D01*
X132915880Y-99131360D02*
X133415880Y-99131360D01*
X133415880Y-99831360D02*
X133415880Y-99831360D01*
X133415880Y-99831360D02*
X132915880Y-99831360D01*
X132915880Y-99831360D02*
X132915880Y-99831360D01*
X132915880Y-99831360D02*
X133415880Y-99831360D01*
X136915880Y-100981360D02*
X136915880Y-98631360D01*
X136915880Y-98631360D02*
X136015880Y-98631360D01*
X136415880Y-98631360D02*
X136415880Y-99831360D01*
X136415880Y-99831360D02*
X136415880Y-99831360D01*
X136415880Y-99831360D02*
X136415880Y-98631360D01*
X136415880Y-98631360D02*
X136415880Y-98631360D01*
X136415880Y-99131360D02*
X136415880Y-99131360D01*
X136415880Y-99131360D02*
X136915880Y-99131360D01*
X136915880Y-99131360D02*
X136915880Y-99131360D01*
X136915880Y-99131360D02*
X136415880Y-99131360D01*
X136415880Y-99831360D02*
X136415880Y-99831360D01*
X136415880Y-99831360D02*
X136915880Y-99831360D01*
X136915880Y-99831360D02*
X136915880Y-99831360D01*
X136915880Y-99831360D02*
X136415880Y-99831360D01*
G04 #@! TO.C,C1*
X138090880Y-88463860D02*
X138590880Y-88463860D01*
X138590880Y-87523860D02*
X138090880Y-87523860D01*
G04 #@! TO.C,C2*
X138590880Y-88423860D02*
X138090880Y-88423860D01*
X138090880Y-89363860D02*
X138590880Y-89363860D01*
G04 #@! TO.C,C3*
X146770880Y-98443860D02*
X146770880Y-98943860D01*
X147710880Y-98943860D02*
X147710880Y-98443860D01*
G04 #@! TO.C,C4*
X137370880Y-95843860D02*
X137370880Y-96343860D01*
X138310880Y-96343860D02*
X138310880Y-95843860D01*
G04 #@! TO.C,C5*
X137410880Y-96343860D02*
X137410880Y-95843860D01*
X136470880Y-95843860D02*
X136470880Y-96343860D01*
G04 #@! TO.C,C9*
X138840880Y-100638860D02*
X139340880Y-100638860D01*
X139340880Y-99698860D02*
X138840880Y-99698860D01*
G04 #@! TO.C,C10*
X138090880Y-91163860D02*
X138590880Y-91163860D01*
X138590880Y-90223860D02*
X138090880Y-90223860D01*
G04 #@! TO.C,C11*
X134315880Y-95623860D02*
X133815880Y-95623860D01*
X133815880Y-96563860D02*
X134315880Y-96563860D01*
G04 #@! TO.C,C13*
X130865880Y-103598860D02*
X130365880Y-103598860D01*
X130365880Y-104538860D02*
X130865880Y-104538860D01*
G04 #@! TO.C,C14*
X138660880Y-92123860D02*
X138160880Y-92123860D01*
X138160880Y-93063860D02*
X138660880Y-93063860D01*
G04 #@! TO.C,C15*
X142490880Y-102773860D02*
X141990880Y-102773860D01*
X141990880Y-103713860D02*
X142490880Y-103713860D01*
G04 #@! TO.C,C16*
X141390880Y-100163860D02*
X141890880Y-100163860D01*
X141890880Y-99223860D02*
X141390880Y-99223860D01*
G04 #@! TO.C,R1*
X138590880Y-89323860D02*
X138090880Y-89323860D01*
X138090880Y-90263860D02*
X138590880Y-90263860D01*
G04 #@! TO.C,R2*
X140520880Y-97943860D02*
X140520880Y-98443860D01*
X141460880Y-98443860D02*
X141460880Y-97943860D01*
G04 #@! TO.C,R5*
X150370880Y-95543860D02*
X150370880Y-96043860D01*
X151310880Y-96043860D02*
X151310880Y-95543860D01*
G04 #@! TO.C,R7*
X138650880Y-93923860D02*
X138150880Y-93923860D01*
X138150880Y-94863860D02*
X138650880Y-94863860D01*
G04 #@! TO.C,R8*
X138640880Y-93023860D02*
X138140880Y-93023860D01*
X138140880Y-93963860D02*
X138640880Y-93963860D01*
G04 #@! TO.C,R12*
X150360880Y-96043860D02*
X150360880Y-95543860D01*
X149420880Y-95543860D02*
X149420880Y-96043860D01*
G04 #@! TO.C,R13*
X131015880Y-92923860D02*
X130515880Y-92923860D01*
X130515880Y-93863860D02*
X131015880Y-93863860D01*
G04 #@! TO.C,R14*
X131015880Y-92023860D02*
X130515880Y-92023860D01*
X130515880Y-92963860D02*
X131015880Y-92963860D01*
G04 #@! TO.C,R15*
X130515880Y-97863860D02*
X131015880Y-97863860D01*
X131015880Y-96923860D02*
X130515880Y-96923860D01*
G04 #@! TO.C,R17*
X148470880Y-95543860D02*
X148470880Y-96043860D01*
X149410880Y-96043860D02*
X149410880Y-95543860D01*
D10*
G04 #@! TO.C,U3*
X139890880Y-102018861D02*
X138390880Y-102018861D01*
X139890880Y-100918861D02*
X139890880Y-102018861D01*
X138290880Y-100818861D02*
X138290880Y-101218861D01*
X138690880Y-100818861D02*
X138290880Y-100818861D01*
G04 #@! TO.C,P1*
X138690880Y-107193860D02*
X151790880Y-107193860D01*
X151790880Y-107193860D02*
X151790880Y-108993860D01*
X151790880Y-108993860D02*
X138690880Y-108993860D01*
X138690880Y-108993860D02*
X138690880Y-107193860D01*
G04 #@! TO.C,C6*
D14*
X136515880Y-98161717D02*
X136480165Y-98197431D01*
X136373022Y-98233145D01*
X136301594Y-98233145D01*
X136194451Y-98197431D01*
X136123022Y-98126002D01*
X136087308Y-98054574D01*
X136051594Y-97911717D01*
X136051594Y-97804574D01*
X136087308Y-97661717D01*
X136123022Y-97590288D01*
X136194451Y-97518860D01*
X136301594Y-97483145D01*
X136373022Y-97483145D01*
X136480165Y-97518860D01*
X136515880Y-97554574D01*
X137158737Y-97483145D02*
X137015880Y-97483145D01*
X136944451Y-97518860D01*
X136908737Y-97554574D01*
X136837308Y-97661717D01*
X136801594Y-97804574D01*
X136801594Y-98090288D01*
X136837308Y-98161717D01*
X136873022Y-98197431D01*
X136944451Y-98233145D01*
X137087308Y-98233145D01*
X137158737Y-98197431D01*
X137194451Y-98161717D01*
X137230165Y-98090288D01*
X137230165Y-97911717D01*
X137194451Y-97840288D01*
X137158737Y-97804574D01*
X137087308Y-97768860D01*
X136944451Y-97768860D01*
X136873022Y-97804574D01*
X136837308Y-97840288D01*
X136801594Y-97911717D01*
G04 #@! TO.C,U4*
X147430165Y-104215288D02*
X148037308Y-104215288D01*
X148108737Y-104179574D01*
X148144451Y-104143860D01*
X148180165Y-104072431D01*
X148180165Y-103929574D01*
X148144451Y-103858145D01*
X148108737Y-103822431D01*
X148037308Y-103786717D01*
X147430165Y-103786717D01*
X147680165Y-103108145D02*
X148180165Y-103108145D01*
X147394451Y-103286717D02*
X147930165Y-103465288D01*
X147930165Y-103001002D01*
G04 #@! TO.C,C12*
X128158737Y-101761717D02*
X128123022Y-101797431D01*
X128015880Y-101833145D01*
X127944451Y-101833145D01*
X127837308Y-101797431D01*
X127765880Y-101726002D01*
X127730165Y-101654574D01*
X127694451Y-101511717D01*
X127694451Y-101404574D01*
X127730165Y-101261717D01*
X127765880Y-101190288D01*
X127837308Y-101118860D01*
X127944451Y-101083145D01*
X128015880Y-101083145D01*
X128123022Y-101118860D01*
X128158737Y-101154574D01*
X128873022Y-101833145D02*
X128444451Y-101833145D01*
X128658737Y-101833145D02*
X128658737Y-101083145D01*
X128587308Y-101190288D01*
X128515880Y-101261717D01*
X128444451Y-101297431D01*
X129158737Y-101154574D02*
X129194451Y-101118860D01*
X129265880Y-101083145D01*
X129444451Y-101083145D01*
X129515880Y-101118860D01*
X129551594Y-101154574D01*
X129587308Y-101226002D01*
X129587308Y-101297431D01*
X129551594Y-101404574D01*
X129123022Y-101833145D01*
X129587308Y-101833145D01*
G04 #@! TO.C,U6*
X131869451Y-103483145D02*
X131869451Y-104090288D01*
X131905165Y-104161717D01*
X131940880Y-104197431D01*
X132012308Y-104233145D01*
X132155165Y-104233145D01*
X132226594Y-104197431D01*
X132262308Y-104161717D01*
X132298022Y-104090288D01*
X132298022Y-103483145D01*
X132976594Y-103483145D02*
X132833737Y-103483145D01*
X132762308Y-103518860D01*
X132726594Y-103554574D01*
X132655165Y-103661717D01*
X132619451Y-103804574D01*
X132619451Y-104090288D01*
X132655165Y-104161717D01*
X132690880Y-104197431D01*
X132762308Y-104233145D01*
X132905165Y-104233145D01*
X132976594Y-104197431D01*
X133012308Y-104161717D01*
X133048022Y-104090288D01*
X133048022Y-103911717D01*
X133012308Y-103840288D01*
X132976594Y-103804574D01*
X132905165Y-103768860D01*
X132762308Y-103768860D01*
X132690880Y-103804574D01*
X132655165Y-103840288D01*
X132619451Y-103911717D01*
G04 #@! TO.C,U7*
X141719451Y-100133145D02*
X141719451Y-100740288D01*
X141755165Y-100811717D01*
X141790880Y-100847431D01*
X141862308Y-100883145D01*
X142005165Y-100883145D01*
X142076594Y-100847431D01*
X142112308Y-100811717D01*
X142148022Y-100740288D01*
X142148022Y-100133145D01*
X142433737Y-100133145D02*
X142933737Y-100133145D01*
X142612308Y-100883145D01*
G04 #@! TO.C,C7*
X140108737Y-97918860D02*
X140144451Y-97954574D01*
X140180165Y-98061717D01*
X140180165Y-98133145D01*
X140144451Y-98240288D01*
X140073022Y-98311717D01*
X140001594Y-98347431D01*
X139858737Y-98383145D01*
X139751594Y-98383145D01*
X139608737Y-98347431D01*
X139537308Y-98311717D01*
X139465880Y-98240288D01*
X139430165Y-98133145D01*
X139430165Y-98061717D01*
X139465880Y-97954574D01*
X139501594Y-97918860D01*
X139430165Y-97668860D02*
X139430165Y-97168860D01*
X140180165Y-97490288D01*
G04 #@! TO.C,C8*
X139215880Y-103861717D02*
X139180165Y-103897431D01*
X139073022Y-103933145D01*
X139001594Y-103933145D01*
X138894451Y-103897431D01*
X138823022Y-103826002D01*
X138787308Y-103754574D01*
X138751594Y-103611717D01*
X138751594Y-103504574D01*
X138787308Y-103361717D01*
X138823022Y-103290288D01*
X138894451Y-103218860D01*
X139001594Y-103183145D01*
X139073022Y-103183145D01*
X139180165Y-103218860D01*
X139215880Y-103254574D01*
X139644451Y-103504574D02*
X139573022Y-103468860D01*
X139537308Y-103433145D01*
X139501594Y-103361717D01*
X139501594Y-103326002D01*
X139537308Y-103254574D01*
X139573022Y-103218860D01*
X139644451Y-103183145D01*
X139787308Y-103183145D01*
X139858737Y-103218860D01*
X139894451Y-103254574D01*
X139930165Y-103326002D01*
X139930165Y-103361717D01*
X139894451Y-103433145D01*
X139858737Y-103468860D01*
X139787308Y-103504574D01*
X139644451Y-103504574D01*
X139573022Y-103540288D01*
X139537308Y-103576002D01*
X139501594Y-103647431D01*
X139501594Y-103790288D01*
X139537308Y-103861717D01*
X139573022Y-103897431D01*
X139644451Y-103933145D01*
X139787308Y-103933145D01*
X139858737Y-103897431D01*
X139894451Y-103861717D01*
X139930165Y-103790288D01*
X139930165Y-103647431D01*
X139894451Y-103576002D01*
X139858737Y-103540288D01*
X139787308Y-103504574D01*
G04 #@! TO.C,U1*
X138619451Y-86008145D02*
X138619451Y-86615288D01*
X138655165Y-86686717D01*
X138690880Y-86722431D01*
X138762308Y-86758145D01*
X138905165Y-86758145D01*
X138976594Y-86722431D01*
X139012308Y-86686717D01*
X139048022Y-86615288D01*
X139048022Y-86008145D01*
X139798022Y-86758145D02*
X139369451Y-86758145D01*
X139583737Y-86758145D02*
X139583737Y-86008145D01*
X139512308Y-86115288D01*
X139440880Y-86186717D01*
X139369451Y-86222431D01*
G04 #@! TO.C,S3*
X154294451Y-90597431D02*
X154401594Y-90633145D01*
X154580165Y-90633145D01*
X154651594Y-90597431D01*
X154687308Y-90561717D01*
X154723022Y-90490288D01*
X154723022Y-90418860D01*
X154687308Y-90347431D01*
X154651594Y-90311717D01*
X154580165Y-90276002D01*
X154437308Y-90240288D01*
X154365880Y-90204574D01*
X154330165Y-90168860D01*
X154294451Y-90097431D01*
X154294451Y-90026002D01*
X154330165Y-89954574D01*
X154365880Y-89918860D01*
X154437308Y-89883145D01*
X154615880Y-89883145D01*
X154723022Y-89918860D01*
X154973022Y-89883145D02*
X155437308Y-89883145D01*
X155187308Y-90168860D01*
X155294451Y-90168860D01*
X155365880Y-90204574D01*
X155401594Y-90240288D01*
X155437308Y-90311717D01*
X155437308Y-90490288D01*
X155401594Y-90561717D01*
X155365880Y-90597431D01*
X155294451Y-90633145D01*
X155080165Y-90633145D01*
X155008737Y-90597431D01*
X154973022Y-90561717D01*
X157494451Y-106722431D02*
X157601594Y-106758145D01*
X157780165Y-106758145D01*
X157851594Y-106722431D01*
X157887308Y-106686717D01*
X157923022Y-106615288D01*
X157923022Y-106543860D01*
X157887308Y-106472431D01*
X157851594Y-106436717D01*
X157780165Y-106401002D01*
X157637308Y-106365288D01*
X157565880Y-106329574D01*
X157530165Y-106293860D01*
X157494451Y-106222431D01*
X157494451Y-106151002D01*
X157530165Y-106079574D01*
X157565880Y-106043860D01*
X157637308Y-106008145D01*
X157815880Y-106008145D01*
X157923022Y-106043860D01*
X158173022Y-106008145D02*
X158637308Y-106008145D01*
X158387308Y-106293860D01*
X158494451Y-106293860D01*
X158565880Y-106329574D01*
X158601594Y-106365288D01*
X158637308Y-106436717D01*
X158637308Y-106615288D01*
X158601594Y-106686717D01*
X158565880Y-106722431D01*
X158494451Y-106758145D01*
X158280165Y-106758145D01*
X158208737Y-106722431D01*
X158173022Y-106686717D01*
X122019451Y-106597431D02*
X122126594Y-106633145D01*
X122305165Y-106633145D01*
X122376594Y-106597431D01*
X122412308Y-106561717D01*
X122448022Y-106490288D01*
X122448022Y-106418860D01*
X122412308Y-106347431D01*
X122376594Y-106311717D01*
X122305165Y-106276002D01*
X122162308Y-106240288D01*
X122090880Y-106204574D01*
X122055165Y-106168860D01*
X122019451Y-106097431D01*
X122019451Y-106026002D01*
X122055165Y-105954574D01*
X122090880Y-105918860D01*
X122162308Y-105883145D01*
X122340880Y-105883145D01*
X122448022Y-105918860D01*
X122698022Y-105883145D02*
X123162308Y-105883145D01*
X122912308Y-106168860D01*
X123019451Y-106168860D01*
X123090880Y-106204574D01*
X123126594Y-106240288D01*
X123162308Y-106311717D01*
X123162308Y-106490288D01*
X123126594Y-106561717D01*
X123090880Y-106597431D01*
X123019451Y-106633145D01*
X122805165Y-106633145D01*
X122733737Y-106597431D01*
X122698022Y-106561717D01*
G04 #@! TO.C,D2*
X130080165Y-100647431D02*
X129330165Y-100647431D01*
X129330165Y-100468860D01*
X129365880Y-100361717D01*
X129437308Y-100290288D01*
X129508737Y-100254574D01*
X129651594Y-100218860D01*
X129758737Y-100218860D01*
X129901594Y-100254574D01*
X129973022Y-100290288D01*
X130044451Y-100361717D01*
X130080165Y-100468860D01*
X130080165Y-100647431D01*
X129401594Y-99933145D02*
X129365880Y-99897431D01*
X129330165Y-99826002D01*
X129330165Y-99647431D01*
X129365880Y-99576002D01*
X129401594Y-99540288D01*
X129473022Y-99504574D01*
X129544451Y-99504574D01*
X129651594Y-99540288D01*
X130080165Y-99968860D01*
X130080165Y-99504574D01*
G04 #@! TO.C,D3*
X128187308Y-96233145D02*
X128187308Y-95483145D01*
X128365880Y-95483145D01*
X128473022Y-95518860D01*
X128544451Y-95590288D01*
X128580165Y-95661717D01*
X128615880Y-95804574D01*
X128615880Y-95911717D01*
X128580165Y-96054574D01*
X128544451Y-96126002D01*
X128473022Y-96197431D01*
X128365880Y-96233145D01*
X128187308Y-96233145D01*
X128865880Y-95483145D02*
X129330165Y-95483145D01*
X129080165Y-95768860D01*
X129187308Y-95768860D01*
X129258737Y-95804574D01*
X129294451Y-95840288D01*
X129330165Y-95911717D01*
X129330165Y-96090288D01*
X129294451Y-96161717D01*
X129258737Y-96197431D01*
X129187308Y-96233145D01*
X128973022Y-96233145D01*
X128901594Y-96197431D01*
X128865880Y-96161717D01*
G04 #@! TO.C,U5*
X132135165Y-96875288D02*
X132742308Y-96875288D01*
X132813737Y-96839574D01*
X132849451Y-96803860D01*
X132885165Y-96732431D01*
X132885165Y-96589574D01*
X132849451Y-96518145D01*
X132813737Y-96482431D01*
X132742308Y-96446717D01*
X132135165Y-96446717D01*
X132135165Y-95732431D02*
X132135165Y-96089574D01*
X132492308Y-96125288D01*
X132456594Y-96089574D01*
X132420880Y-96018145D01*
X132420880Y-95839574D01*
X132456594Y-95768145D01*
X132492308Y-95732431D01*
X132563737Y-95696717D01*
X132742308Y-95696717D01*
X132813737Y-95732431D01*
X132849451Y-95768145D01*
X132885165Y-95839574D01*
X132885165Y-96018145D01*
X132849451Y-96089574D01*
X132813737Y-96125288D01*
G04 #@! TO.C,P2*
X126934108Y-88322345D02*
X126934108Y-87572345D01*
X127219822Y-87572345D01*
X127291251Y-87608060D01*
X127326965Y-87643774D01*
X127362680Y-87715202D01*
X127362680Y-87822345D01*
X127326965Y-87893774D01*
X127291251Y-87929488D01*
X127219822Y-87965202D01*
X126934108Y-87965202D01*
X127648394Y-87643774D02*
X127684108Y-87608060D01*
X127755537Y-87572345D01*
X127934108Y-87572345D01*
X128005537Y-87608060D01*
X128041251Y-87643774D01*
X128076965Y-87715202D01*
X128076965Y-87786631D01*
X128041251Y-87893774D01*
X127612680Y-88322345D01*
X128076965Y-88322345D01*
G04 #@! TO.C,D1*
X151746428Y-99239285D02*
X151746428Y-98489285D01*
X151925000Y-98489285D01*
X152032142Y-98525000D01*
X152103571Y-98596428D01*
X152139285Y-98667857D01*
X152175000Y-98810714D01*
X152175000Y-98917857D01*
X152139285Y-99060714D01*
X152103571Y-99132142D01*
X152032142Y-99203571D01*
X151925000Y-99239285D01*
X151746428Y-99239285D01*
X152889285Y-99239285D02*
X152460714Y-99239285D01*
X152675000Y-99239285D02*
X152675000Y-98489285D01*
X152603571Y-98596428D01*
X152532142Y-98667857D01*
X152460714Y-98703571D01*
G04 #@! TO.C,S2*
X125194451Y-90572431D02*
X125301594Y-90608145D01*
X125480165Y-90608145D01*
X125551594Y-90572431D01*
X125587308Y-90536717D01*
X125623022Y-90465288D01*
X125623022Y-90393860D01*
X125587308Y-90322431D01*
X125551594Y-90286717D01*
X125480165Y-90251002D01*
X125337308Y-90215288D01*
X125265880Y-90179574D01*
X125230165Y-90143860D01*
X125194451Y-90072431D01*
X125194451Y-90001002D01*
X125230165Y-89929574D01*
X125265880Y-89893860D01*
X125337308Y-89858145D01*
X125515880Y-89858145D01*
X125623022Y-89893860D01*
X125908737Y-89929574D02*
X125944451Y-89893860D01*
X126015880Y-89858145D01*
X126194451Y-89858145D01*
X126265880Y-89893860D01*
X126301594Y-89929574D01*
X126337308Y-90001002D01*
X126337308Y-90072431D01*
X126301594Y-90179574D01*
X125873022Y-90608145D01*
X126337308Y-90608145D01*
G04 #@! TO.C,W3*
X155712308Y-90033145D02*
X155890880Y-90783145D01*
X156033737Y-90247431D01*
X156176594Y-90783145D01*
X156355165Y-90033145D01*
X156569451Y-90033145D02*
X157033737Y-90033145D01*
X156783737Y-90318860D01*
X156890880Y-90318860D01*
X156962308Y-90354574D01*
X156998022Y-90390288D01*
X157033737Y-90461717D01*
X157033737Y-90640288D01*
X156998022Y-90711717D01*
X156962308Y-90747431D01*
X156890880Y-90783145D01*
X156676594Y-90783145D01*
X156605165Y-90747431D01*
X156569451Y-90711717D01*
G04 #@! TO.C,W4*
X155841308Y-105933145D02*
X156019880Y-106683145D01*
X156162737Y-106147431D01*
X156305594Y-106683145D01*
X156484165Y-105933145D01*
X157091308Y-106183145D02*
X157091308Y-106683145D01*
X156912737Y-105897431D02*
X156734165Y-106433145D01*
X157198451Y-106433145D01*
G04 #@! TO.C,W2*
X123562308Y-105733145D02*
X123740880Y-106483145D01*
X123883737Y-105947431D01*
X124026594Y-106483145D01*
X124205165Y-105733145D01*
X124455165Y-105804574D02*
X124490880Y-105768860D01*
X124562308Y-105733145D01*
X124740880Y-105733145D01*
X124812308Y-105768860D01*
X124848022Y-105804574D01*
X124883737Y-105876002D01*
X124883737Y-105947431D01*
X124848022Y-106054574D01*
X124419451Y-106483145D01*
X124883737Y-106483145D01*
G04 #@! TO.C,W1*
X123662308Y-90133145D02*
X123840880Y-90883145D01*
X123983737Y-90347431D01*
X124126594Y-90883145D01*
X124305165Y-90133145D01*
X124983737Y-90883145D02*
X124555165Y-90883145D01*
X124769451Y-90883145D02*
X124769451Y-90133145D01*
X124698022Y-90240288D01*
X124626594Y-90311717D01*
X124555165Y-90347431D01*
G04 #@! TO.C,BT1*
X132262308Y-99783145D02*
X132298022Y-99676002D01*
X132333737Y-99640288D01*
X132405165Y-99604574D01*
X132512308Y-99604574D01*
X132583737Y-99640288D01*
X132619451Y-99676002D01*
X132655165Y-99747431D01*
X132655165Y-100033145D01*
X131905165Y-100033145D01*
X131905165Y-99783145D01*
X131940880Y-99711717D01*
X131976594Y-99676002D01*
X132048022Y-99640288D01*
X132119451Y-99640288D01*
X132190880Y-99676002D01*
X132226594Y-99711717D01*
X132262308Y-99783145D01*
X132262308Y-100033145D01*
X131905165Y-99390288D02*
X131905165Y-98961717D01*
X132655165Y-99176002D02*
X131905165Y-99176002D01*
X132655165Y-98318860D02*
X132655165Y-98747431D01*
X132655165Y-98533145D02*
X131905165Y-98533145D01*
X132012308Y-98604574D01*
X132083737Y-98676002D01*
X132119451Y-98747431D01*
G04 #@! TO.C,C1*
X137665880Y-86461717D02*
X137630165Y-86497431D01*
X137523022Y-86533145D01*
X137451594Y-86533145D01*
X137344451Y-86497431D01*
X137273022Y-86426002D01*
X137237308Y-86354574D01*
X137201594Y-86211717D01*
X137201594Y-86104574D01*
X137237308Y-85961717D01*
X137273022Y-85890288D01*
X137344451Y-85818860D01*
X137451594Y-85783145D01*
X137523022Y-85783145D01*
X137630165Y-85818860D01*
X137665880Y-85854574D01*
X138380165Y-86533145D02*
X137951594Y-86533145D01*
X138165880Y-86533145D02*
X138165880Y-85783145D01*
X138094451Y-85890288D01*
X138023022Y-85961717D01*
X137951594Y-85997431D01*
G04 #@! TO.C,C2*
X137640880Y-87386717D02*
X137605165Y-87422431D01*
X137498022Y-87458145D01*
X137426594Y-87458145D01*
X137319451Y-87422431D01*
X137248022Y-87351002D01*
X137212308Y-87279574D01*
X137176594Y-87136717D01*
X137176594Y-87029574D01*
X137212308Y-86886717D01*
X137248022Y-86815288D01*
X137319451Y-86743860D01*
X137426594Y-86708145D01*
X137498022Y-86708145D01*
X137605165Y-86743860D01*
X137640880Y-86779574D01*
X137926594Y-86779574D02*
X137962308Y-86743860D01*
X138033737Y-86708145D01*
X138212308Y-86708145D01*
X138283737Y-86743860D01*
X138319451Y-86779574D01*
X138355165Y-86851002D01*
X138355165Y-86922431D01*
X138319451Y-87029574D01*
X137890880Y-87458145D01*
X138355165Y-87458145D01*
G04 #@! TO.C,C3*
X146508737Y-98818860D02*
X146544451Y-98854574D01*
X146580165Y-98961717D01*
X146580165Y-99033145D01*
X146544451Y-99140288D01*
X146473022Y-99211717D01*
X146401594Y-99247431D01*
X146258737Y-99283145D01*
X146151594Y-99283145D01*
X146008737Y-99247431D01*
X145937308Y-99211717D01*
X145865880Y-99140288D01*
X145830165Y-99033145D01*
X145830165Y-98961717D01*
X145865880Y-98854574D01*
X145901594Y-98818860D01*
X145830165Y-98568860D02*
X145830165Y-98104574D01*
X146115880Y-98354574D01*
X146115880Y-98247431D01*
X146151594Y-98176002D01*
X146187308Y-98140288D01*
X146258737Y-98104574D01*
X146437308Y-98104574D01*
X146508737Y-98140288D01*
X146544451Y-98176002D01*
X146580165Y-98247431D01*
X146580165Y-98461717D01*
X146544451Y-98533145D01*
X146508737Y-98568860D01*
G04 #@! TO.C,C4*
X139208737Y-96218860D02*
X139244451Y-96254574D01*
X139280165Y-96361717D01*
X139280165Y-96433145D01*
X139244451Y-96540288D01*
X139173022Y-96611717D01*
X139101594Y-96647431D01*
X138958737Y-96683145D01*
X138851594Y-96683145D01*
X138708737Y-96647431D01*
X138637308Y-96611717D01*
X138565880Y-96540288D01*
X138530165Y-96433145D01*
X138530165Y-96361717D01*
X138565880Y-96254574D01*
X138601594Y-96218860D01*
X138780165Y-95576002D02*
X139280165Y-95576002D01*
X138494451Y-95754574D02*
X139030165Y-95933145D01*
X139030165Y-95468860D01*
G04 #@! TO.C,C5*
X135615880Y-97161717D02*
X135580165Y-97197431D01*
X135473022Y-97233145D01*
X135401594Y-97233145D01*
X135294451Y-97197431D01*
X135223022Y-97126002D01*
X135187308Y-97054574D01*
X135151594Y-96911717D01*
X135151594Y-96804574D01*
X135187308Y-96661717D01*
X135223022Y-96590288D01*
X135294451Y-96518860D01*
X135401594Y-96483145D01*
X135473022Y-96483145D01*
X135580165Y-96518860D01*
X135615880Y-96554574D01*
X136294451Y-96483145D02*
X135937308Y-96483145D01*
X135901594Y-96840288D01*
X135937308Y-96804574D01*
X136008737Y-96768860D01*
X136187308Y-96768860D01*
X136258737Y-96804574D01*
X136294451Y-96840288D01*
X136330165Y-96911717D01*
X136330165Y-97090288D01*
X136294451Y-97161717D01*
X136258737Y-97197431D01*
X136187308Y-97233145D01*
X136008737Y-97233145D01*
X135937308Y-97197431D01*
X135901594Y-97161717D01*
G04 #@! TO.C,C9*
X139715880Y-99361717D02*
X139680165Y-99397431D01*
X139573022Y-99433145D01*
X139501594Y-99433145D01*
X139394451Y-99397431D01*
X139323022Y-99326002D01*
X139287308Y-99254574D01*
X139251594Y-99111717D01*
X139251594Y-99004574D01*
X139287308Y-98861717D01*
X139323022Y-98790288D01*
X139394451Y-98718860D01*
X139501594Y-98683145D01*
X139573022Y-98683145D01*
X139680165Y-98718860D01*
X139715880Y-98754574D01*
X140073022Y-99433145D02*
X140215880Y-99433145D01*
X140287308Y-99397431D01*
X140323022Y-99361717D01*
X140394451Y-99254574D01*
X140430165Y-99111717D01*
X140430165Y-98826002D01*
X140394451Y-98754574D01*
X140358737Y-98718860D01*
X140287308Y-98683145D01*
X140144451Y-98683145D01*
X140073022Y-98718860D01*
X140037308Y-98754574D01*
X140001594Y-98826002D01*
X140001594Y-99004574D01*
X140037308Y-99076002D01*
X140073022Y-99111717D01*
X140144451Y-99147431D01*
X140287308Y-99147431D01*
X140358737Y-99111717D01*
X140394451Y-99076002D01*
X140430165Y-99004574D01*
G04 #@! TO.C,C10*
X138058737Y-91961717D02*
X138023022Y-91997431D01*
X137915880Y-92033145D01*
X137844451Y-92033145D01*
X137737308Y-91997431D01*
X137665880Y-91926002D01*
X137630165Y-91854574D01*
X137594451Y-91711717D01*
X137594451Y-91604574D01*
X137630165Y-91461717D01*
X137665880Y-91390288D01*
X137737308Y-91318860D01*
X137844451Y-91283145D01*
X137915880Y-91283145D01*
X138023022Y-91318860D01*
X138058737Y-91354574D01*
X138773022Y-92033145D02*
X138344451Y-92033145D01*
X138558737Y-92033145D02*
X138558737Y-91283145D01*
X138487308Y-91390288D01*
X138415880Y-91461717D01*
X138344451Y-91497431D01*
X139237308Y-91283145D02*
X139308737Y-91283145D01*
X139380165Y-91318860D01*
X139415880Y-91354574D01*
X139451594Y-91426002D01*
X139487308Y-91568860D01*
X139487308Y-91747431D01*
X139451594Y-91890288D01*
X139415880Y-91961717D01*
X139380165Y-91997431D01*
X139308737Y-92033145D01*
X139237308Y-92033145D01*
X139165880Y-91997431D01*
X139130165Y-91961717D01*
X139094451Y-91890288D01*
X139058737Y-91747431D01*
X139058737Y-91568860D01*
X139094451Y-91426002D01*
X139130165Y-91354574D01*
X139165880Y-91318860D01*
X139237308Y-91283145D01*
G04 #@! TO.C,C11*
X133558737Y-97261717D02*
X133523022Y-97297431D01*
X133415880Y-97333145D01*
X133344451Y-97333145D01*
X133237308Y-97297431D01*
X133165880Y-97226002D01*
X133130165Y-97154574D01*
X133094451Y-97011717D01*
X133094451Y-96904574D01*
X133130165Y-96761717D01*
X133165880Y-96690288D01*
X133237308Y-96618860D01*
X133344451Y-96583145D01*
X133415880Y-96583145D01*
X133523022Y-96618860D01*
X133558737Y-96654574D01*
X134273022Y-97333145D02*
X133844451Y-97333145D01*
X134058737Y-97333145D02*
X134058737Y-96583145D01*
X133987308Y-96690288D01*
X133915880Y-96761717D01*
X133844451Y-96797431D01*
X134987308Y-97333145D02*
X134558737Y-97333145D01*
X134773022Y-97333145D02*
X134773022Y-96583145D01*
X134701594Y-96690288D01*
X134630165Y-96761717D01*
X134558737Y-96797431D01*
G04 #@! TO.C,C13*
X128158737Y-104361717D02*
X128123022Y-104397431D01*
X128015880Y-104433145D01*
X127944451Y-104433145D01*
X127837308Y-104397431D01*
X127765880Y-104326002D01*
X127730165Y-104254574D01*
X127694451Y-104111717D01*
X127694451Y-104004574D01*
X127730165Y-103861717D01*
X127765880Y-103790288D01*
X127837308Y-103718860D01*
X127944451Y-103683145D01*
X128015880Y-103683145D01*
X128123022Y-103718860D01*
X128158737Y-103754574D01*
X128873022Y-104433145D02*
X128444451Y-104433145D01*
X128658737Y-104433145D02*
X128658737Y-103683145D01*
X128587308Y-103790288D01*
X128515880Y-103861717D01*
X128444451Y-103897431D01*
X129123022Y-103683145D02*
X129587308Y-103683145D01*
X129337308Y-103968860D01*
X129444451Y-103968860D01*
X129515880Y-104004574D01*
X129551594Y-104040288D01*
X129587308Y-104111717D01*
X129587308Y-104290288D01*
X129551594Y-104361717D01*
X129515880Y-104397431D01*
X129444451Y-104433145D01*
X129230165Y-104433145D01*
X129158737Y-104397431D01*
X129123022Y-104361717D01*
G04 #@! TO.C,C14*
X135798737Y-92821717D02*
X135763022Y-92857431D01*
X135655880Y-92893145D01*
X135584451Y-92893145D01*
X135477308Y-92857431D01*
X135405880Y-92786002D01*
X135370165Y-92714574D01*
X135334451Y-92571717D01*
X135334451Y-92464574D01*
X135370165Y-92321717D01*
X135405880Y-92250288D01*
X135477308Y-92178860D01*
X135584451Y-92143145D01*
X135655880Y-92143145D01*
X135763022Y-92178860D01*
X135798737Y-92214574D01*
X136513022Y-92893145D02*
X136084451Y-92893145D01*
X136298737Y-92893145D02*
X136298737Y-92143145D01*
X136227308Y-92250288D01*
X136155880Y-92321717D01*
X136084451Y-92357431D01*
X137155880Y-92393145D02*
X137155880Y-92893145D01*
X136977308Y-92107431D02*
X136798737Y-92643145D01*
X137263022Y-92643145D01*
G04 #@! TO.C,C15*
X144008737Y-103461717D02*
X143973022Y-103497431D01*
X143865880Y-103533145D01*
X143794451Y-103533145D01*
X143687308Y-103497431D01*
X143615880Y-103426002D01*
X143580165Y-103354574D01*
X143544451Y-103211717D01*
X143544451Y-103104574D01*
X143580165Y-102961717D01*
X143615880Y-102890288D01*
X143687308Y-102818860D01*
X143794451Y-102783145D01*
X143865880Y-102783145D01*
X143973022Y-102818860D01*
X144008737Y-102854574D01*
X144723022Y-103533145D02*
X144294451Y-103533145D01*
X144508737Y-103533145D02*
X144508737Y-102783145D01*
X144437308Y-102890288D01*
X144365880Y-102961717D01*
X144294451Y-102997431D01*
X145401594Y-102783145D02*
X145044451Y-102783145D01*
X145008737Y-103140288D01*
X145044451Y-103104574D01*
X145115880Y-103068860D01*
X145294451Y-103068860D01*
X145365880Y-103104574D01*
X145401594Y-103140288D01*
X145437308Y-103211717D01*
X145437308Y-103390288D01*
X145401594Y-103461717D01*
X145365880Y-103497431D01*
X145294451Y-103533145D01*
X145115880Y-103533145D01*
X145044451Y-103497431D01*
X145008737Y-103461717D01*
G04 #@! TO.C,C16*
X143458737Y-99961717D02*
X143423022Y-99997431D01*
X143315880Y-100033145D01*
X143244451Y-100033145D01*
X143137308Y-99997431D01*
X143065880Y-99926002D01*
X143030165Y-99854574D01*
X142994451Y-99711717D01*
X142994451Y-99604574D01*
X143030165Y-99461717D01*
X143065880Y-99390288D01*
X143137308Y-99318860D01*
X143244451Y-99283145D01*
X143315880Y-99283145D01*
X143423022Y-99318860D01*
X143458737Y-99354574D01*
X144173022Y-100033145D02*
X143744451Y-100033145D01*
X143958737Y-100033145D02*
X143958737Y-99283145D01*
X143887308Y-99390288D01*
X143815880Y-99461717D01*
X143744451Y-99497431D01*
X144815880Y-99283145D02*
X144673022Y-99283145D01*
X144601594Y-99318860D01*
X144565880Y-99354574D01*
X144494451Y-99461717D01*
X144458737Y-99604574D01*
X144458737Y-99890288D01*
X144494451Y-99961717D01*
X144530165Y-99997431D01*
X144601594Y-100033145D01*
X144744451Y-100033145D01*
X144815880Y-99997431D01*
X144851594Y-99961717D01*
X144887308Y-99890288D01*
X144887308Y-99711717D01*
X144851594Y-99640288D01*
X144815880Y-99604574D01*
X144744451Y-99568860D01*
X144601594Y-99568860D01*
X144530165Y-99604574D01*
X144494451Y-99640288D01*
X144458737Y-99711717D01*
G04 #@! TO.C,R1*
X136415880Y-91983145D02*
X136165880Y-91626002D01*
X135987308Y-91983145D02*
X135987308Y-91233145D01*
X136273022Y-91233145D01*
X136344451Y-91268860D01*
X136380165Y-91304574D01*
X136415880Y-91376002D01*
X136415880Y-91483145D01*
X136380165Y-91554574D01*
X136344451Y-91590288D01*
X136273022Y-91626002D01*
X135987308Y-91626002D01*
X137130165Y-91983145D02*
X136701594Y-91983145D01*
X136915880Y-91983145D02*
X136915880Y-91233145D01*
X136844451Y-91340288D01*
X136773022Y-91411717D01*
X136701594Y-91447431D01*
G04 #@! TO.C,R2*
X142480165Y-98418860D02*
X142123022Y-98668860D01*
X142480165Y-98847431D02*
X141730165Y-98847431D01*
X141730165Y-98561717D01*
X141765880Y-98490288D01*
X141801594Y-98454574D01*
X141873022Y-98418860D01*
X141980165Y-98418860D01*
X142051594Y-98454574D01*
X142087308Y-98490288D01*
X142123022Y-98561717D01*
X142123022Y-98847431D01*
X141801594Y-98133145D02*
X141765880Y-98097431D01*
X141730165Y-98026002D01*
X141730165Y-97847431D01*
X141765880Y-97776002D01*
X141801594Y-97740288D01*
X141873022Y-97704574D01*
X141944451Y-97704574D01*
X142051594Y-97740288D01*
X142480165Y-98168860D01*
X142480165Y-97704574D01*
G04 #@! TO.C,R5*
X151230165Y-94168860D02*
X150873022Y-94418860D01*
X151230165Y-94597431D02*
X150480165Y-94597431D01*
X150480165Y-94311717D01*
X150515880Y-94240288D01*
X150551594Y-94204574D01*
X150623022Y-94168860D01*
X150730165Y-94168860D01*
X150801594Y-94204574D01*
X150837308Y-94240288D01*
X150873022Y-94311717D01*
X150873022Y-94597431D01*
X150480165Y-93490288D02*
X150480165Y-93847431D01*
X150837308Y-93883145D01*
X150801594Y-93847431D01*
X150765880Y-93776002D01*
X150765880Y-93597431D01*
X150801594Y-93526002D01*
X150837308Y-93490288D01*
X150908737Y-93454574D01*
X151087308Y-93454574D01*
X151158737Y-93490288D01*
X151194451Y-93526002D01*
X151230165Y-93597431D01*
X151230165Y-93776002D01*
X151194451Y-93847431D01*
X151158737Y-93883145D01*
G04 #@! TO.C,R7*
X136469080Y-94778345D02*
X136219080Y-94421202D01*
X136040508Y-94778345D02*
X136040508Y-94028345D01*
X136326222Y-94028345D01*
X136397651Y-94064060D01*
X136433365Y-94099774D01*
X136469080Y-94171202D01*
X136469080Y-94278345D01*
X136433365Y-94349774D01*
X136397651Y-94385488D01*
X136326222Y-94421202D01*
X136040508Y-94421202D01*
X136719080Y-94028345D02*
X137219080Y-94028345D01*
X136897651Y-94778345D01*
G04 #@! TO.C,R8*
X136445880Y-93823145D02*
X136195880Y-93466002D01*
X136017308Y-93823145D02*
X136017308Y-93073145D01*
X136303022Y-93073145D01*
X136374451Y-93108860D01*
X136410165Y-93144574D01*
X136445880Y-93216002D01*
X136445880Y-93323145D01*
X136410165Y-93394574D01*
X136374451Y-93430288D01*
X136303022Y-93466002D01*
X136017308Y-93466002D01*
X136874451Y-93394574D02*
X136803022Y-93358860D01*
X136767308Y-93323145D01*
X136731594Y-93251717D01*
X136731594Y-93216002D01*
X136767308Y-93144574D01*
X136803022Y-93108860D01*
X136874451Y-93073145D01*
X137017308Y-93073145D01*
X137088737Y-93108860D01*
X137124451Y-93144574D01*
X137160165Y-93216002D01*
X137160165Y-93251717D01*
X137124451Y-93323145D01*
X137088737Y-93358860D01*
X137017308Y-93394574D01*
X136874451Y-93394574D01*
X136803022Y-93430288D01*
X136767308Y-93466002D01*
X136731594Y-93537431D01*
X136731594Y-93680288D01*
X136767308Y-93751717D01*
X136803022Y-93787431D01*
X136874451Y-93823145D01*
X137017308Y-93823145D01*
X137088737Y-93787431D01*
X137124451Y-93751717D01*
X137160165Y-93680288D01*
X137160165Y-93537431D01*
X137124451Y-93466002D01*
X137088737Y-93430288D01*
X137017308Y-93394574D01*
G04 #@! TO.C,R12*
X150280165Y-94176002D02*
X149923022Y-94426002D01*
X150280165Y-94604574D02*
X149530165Y-94604574D01*
X149530165Y-94318860D01*
X149565880Y-94247431D01*
X149601594Y-94211717D01*
X149673022Y-94176002D01*
X149780165Y-94176002D01*
X149851594Y-94211717D01*
X149887308Y-94247431D01*
X149923022Y-94318860D01*
X149923022Y-94604574D01*
X150280165Y-93461717D02*
X150280165Y-93890288D01*
X150280165Y-93676002D02*
X149530165Y-93676002D01*
X149637308Y-93747431D01*
X149708737Y-93818860D01*
X149744451Y-93890288D01*
X149601594Y-93176002D02*
X149565880Y-93140288D01*
X149530165Y-93068860D01*
X149530165Y-92890288D01*
X149565880Y-92818860D01*
X149601594Y-92783145D01*
X149673022Y-92747431D01*
X149744451Y-92747431D01*
X149851594Y-92783145D01*
X150280165Y-93211717D01*
X150280165Y-92747431D01*
G04 #@! TO.C,R13*
X128258737Y-93758145D02*
X128008737Y-93401002D01*
X127830165Y-93758145D02*
X127830165Y-93008145D01*
X128115880Y-93008145D01*
X128187308Y-93043860D01*
X128223022Y-93079574D01*
X128258737Y-93151002D01*
X128258737Y-93258145D01*
X128223022Y-93329574D01*
X128187308Y-93365288D01*
X128115880Y-93401002D01*
X127830165Y-93401002D01*
X128973022Y-93758145D02*
X128544451Y-93758145D01*
X128758737Y-93758145D02*
X128758737Y-93008145D01*
X128687308Y-93115288D01*
X128615880Y-93186717D01*
X128544451Y-93222431D01*
X129223022Y-93008145D02*
X129687308Y-93008145D01*
X129437308Y-93293860D01*
X129544451Y-93293860D01*
X129615880Y-93329574D01*
X129651594Y-93365288D01*
X129687308Y-93436717D01*
X129687308Y-93615288D01*
X129651594Y-93686717D01*
X129615880Y-93722431D01*
X129544451Y-93758145D01*
X129330165Y-93758145D01*
X129258737Y-93722431D01*
X129223022Y-93686717D01*
G04 #@! TO.C,R14*
X128258737Y-92758145D02*
X128008737Y-92401002D01*
X127830165Y-92758145D02*
X127830165Y-92008145D01*
X128115880Y-92008145D01*
X128187308Y-92043860D01*
X128223022Y-92079574D01*
X128258737Y-92151002D01*
X128258737Y-92258145D01*
X128223022Y-92329574D01*
X128187308Y-92365288D01*
X128115880Y-92401002D01*
X127830165Y-92401002D01*
X128973022Y-92758145D02*
X128544451Y-92758145D01*
X128758737Y-92758145D02*
X128758737Y-92008145D01*
X128687308Y-92115288D01*
X128615880Y-92186717D01*
X128544451Y-92222431D01*
X129615880Y-92258145D02*
X129615880Y-92758145D01*
X129437308Y-91972431D02*
X129258737Y-92508145D01*
X129723022Y-92508145D01*
G04 #@! TO.C,R15*
X128158737Y-97733145D02*
X127908737Y-97376002D01*
X127730165Y-97733145D02*
X127730165Y-96983145D01*
X128015880Y-96983145D01*
X128087308Y-97018860D01*
X128123022Y-97054574D01*
X128158737Y-97126002D01*
X128158737Y-97233145D01*
X128123022Y-97304574D01*
X128087308Y-97340288D01*
X128015880Y-97376002D01*
X127730165Y-97376002D01*
X128873022Y-97733145D02*
X128444451Y-97733145D01*
X128658737Y-97733145D02*
X128658737Y-96983145D01*
X128587308Y-97090288D01*
X128515880Y-97161717D01*
X128444451Y-97197431D01*
X129551594Y-96983145D02*
X129194451Y-96983145D01*
X129158737Y-97340288D01*
X129194451Y-97304574D01*
X129265880Y-97268860D01*
X129444451Y-97268860D01*
X129515880Y-97304574D01*
X129551594Y-97340288D01*
X129587308Y-97411717D01*
X129587308Y-97590288D01*
X129551594Y-97661717D01*
X129515880Y-97697431D01*
X129444451Y-97733145D01*
X129265880Y-97733145D01*
X129194451Y-97697431D01*
X129158737Y-97661717D01*
G04 #@! TO.C,R17*
X149280165Y-94176002D02*
X148923022Y-94426002D01*
X149280165Y-94604574D02*
X148530165Y-94604574D01*
X148530165Y-94318860D01*
X148565880Y-94247431D01*
X148601594Y-94211717D01*
X148673022Y-94176002D01*
X148780165Y-94176002D01*
X148851594Y-94211717D01*
X148887308Y-94247431D01*
X148923022Y-94318860D01*
X148923022Y-94604574D01*
X149280165Y-93461717D02*
X149280165Y-93890288D01*
X149280165Y-93676002D02*
X148530165Y-93676002D01*
X148637308Y-93747431D01*
X148708737Y-93818860D01*
X148744451Y-93890288D01*
X148530165Y-93211717D02*
X148530165Y-92711717D01*
X149280165Y-93033145D01*
G04 #@! TO.C,U3*
X140069451Y-100483145D02*
X140069451Y-101090288D01*
X140105165Y-101161717D01*
X140140880Y-101197431D01*
X140212308Y-101233145D01*
X140355165Y-101233145D01*
X140426594Y-101197431D01*
X140462308Y-101161717D01*
X140498022Y-101090288D01*
X140498022Y-100483145D01*
X140783737Y-100483145D02*
X141248022Y-100483145D01*
X140998022Y-100768860D01*
X141105165Y-100768860D01*
X141176594Y-100804574D01*
X141212308Y-100840288D01*
X141248022Y-100911717D01*
X141248022Y-101090288D01*
X141212308Y-101161717D01*
X141176594Y-101197431D01*
X141105165Y-101233145D01*
X140890880Y-101233145D01*
X140819451Y-101197431D01*
X140783737Y-101161717D01*
G04 #@! TO.C,P1*
X152980165Y-108647431D02*
X152230165Y-108647431D01*
X152230165Y-108361717D01*
X152265880Y-108290288D01*
X152301594Y-108254574D01*
X152373022Y-108218860D01*
X152480165Y-108218860D01*
X152551594Y-108254574D01*
X152587308Y-108290288D01*
X152623022Y-108361717D01*
X152623022Y-108647431D01*
X152980165Y-107504574D02*
X152980165Y-107933145D01*
X152980165Y-107718860D02*
X152230165Y-107718860D01*
X152337308Y-107790288D01*
X152408737Y-107861717D01*
X152444451Y-107933145D01*
G04 #@! TD*
M02*
