G04 #@! TF.GenerationSoftware,KiCad,Pcbnew,(5.0.1-3-g963ef8bb5)*
G04 #@! TF.CreationDate,2019-06-21T09:31:58-10:00*
G04 #@! TF.ProjectId,OpenHAK_03,4F70656E48414B5F30332E6B69636164,rev?*
G04 #@! TF.SameCoordinates,Original*
G04 #@! TF.FileFunction,Soldermask,Top*
G04 #@! TF.FilePolarity,Negative*
%FSLAX46Y46*%
G04 Gerber Fmt 4.6, Leading zero omitted, Abs format (unit mm)*
G04 Created by KiCad (PCBNEW (5.0.1-3-g963ef8bb5)) date Friday, June 21, 2019 at 09:31:58 AM*
%MOMM*%
%LPD*%
G01*
G04 APERTURE LIST*
%ADD10C,0.100000*%
G04 APERTURE END LIST*
D10*
G36*
X151325880Y-110313860D02*
X150545880Y-110313860D01*
X150545880Y-108573860D01*
X151325880Y-108573860D01*
X151325880Y-110313860D01*
X151325880Y-110313860D01*
G37*
G36*
X148785880Y-110313860D02*
X148005880Y-110313860D01*
X148005880Y-108573860D01*
X148785880Y-108573860D01*
X148785880Y-110313860D01*
X148785880Y-110313860D01*
G37*
G36*
X146245880Y-110313860D02*
X145465880Y-110313860D01*
X145465880Y-108573860D01*
X146245880Y-108573860D01*
X146245880Y-110313860D01*
X146245880Y-110313860D01*
G37*
G36*
X143705880Y-110313860D02*
X142925880Y-110313860D01*
X142925880Y-108573860D01*
X143705880Y-108573860D01*
X143705880Y-110313860D01*
X143705880Y-110313860D01*
G37*
G36*
X123281880Y-108919860D02*
X122241880Y-108919860D01*
X122241880Y-107279860D01*
X123281880Y-107279860D01*
X123281880Y-108919860D01*
X123281880Y-108919860D01*
G37*
G36*
X155539880Y-108919860D02*
X154499880Y-108919860D01*
X154499880Y-107279860D01*
X155539880Y-107279860D01*
X155539880Y-108919860D01*
X155539880Y-108919860D01*
G37*
G36*
X158539880Y-108919860D02*
X157499880Y-108919860D01*
X157499880Y-107279860D01*
X158539880Y-107279860D01*
X158539880Y-108919860D01*
X158539880Y-108919860D01*
G37*
G36*
X126281880Y-108919860D02*
X125241880Y-108919860D01*
X125241880Y-107279860D01*
X126281880Y-107279860D01*
X126281880Y-108919860D01*
X126281880Y-108919860D01*
G37*
G36*
X130860880Y-107763860D02*
X130370880Y-107763860D01*
X130370880Y-107023860D01*
X130860880Y-107023860D01*
X130860880Y-107763860D01*
X130860880Y-107763860D01*
G37*
G36*
X144975880Y-107613860D02*
X144195880Y-107613860D01*
X144195880Y-105873860D01*
X144975880Y-105873860D01*
X144975880Y-107613860D01*
X144975880Y-107613860D01*
G37*
G36*
X150055880Y-107613860D02*
X149275880Y-107613860D01*
X149275880Y-105873860D01*
X150055880Y-105873860D01*
X150055880Y-107613860D01*
X150055880Y-107613860D01*
G37*
G36*
X147515880Y-107613860D02*
X146735880Y-107613860D01*
X146735880Y-105873860D01*
X147515880Y-105873860D01*
X147515880Y-107613860D01*
X147515880Y-107613860D01*
G37*
G36*
X142435880Y-107613860D02*
X141655880Y-107613860D01*
X141655880Y-105873860D01*
X142435880Y-105873860D01*
X142435880Y-107613860D01*
X142435880Y-107613860D01*
G37*
G36*
X130210880Y-105763860D02*
X129720880Y-105763860D01*
X129720880Y-105023860D01*
X130210880Y-105023860D01*
X130210880Y-105763860D01*
X130210880Y-105763860D01*
G37*
G36*
X131510880Y-105763860D02*
X131020880Y-105763860D01*
X131020880Y-105023860D01*
X131510880Y-105023860D01*
X131510880Y-105763860D01*
X131510880Y-105763860D01*
G37*
G36*
X130385880Y-104338860D02*
X129745880Y-104338860D01*
X129745880Y-103798860D01*
X130385880Y-103798860D01*
X130385880Y-104338860D01*
X130385880Y-104338860D01*
G37*
G36*
X131485880Y-104338860D02*
X130845880Y-104338860D01*
X130845880Y-103798860D01*
X131485880Y-103798860D01*
X131485880Y-104338860D01*
X131485880Y-104338860D01*
G37*
G36*
X150585880Y-103513860D02*
X150295880Y-103513860D01*
X150295880Y-102798860D01*
X150585880Y-102798860D01*
X150585880Y-103513860D01*
X150585880Y-103513860D01*
G37*
G36*
X142010880Y-103513860D02*
X141370880Y-103513860D01*
X141370880Y-102973860D01*
X142010880Y-102973860D01*
X142010880Y-103513860D01*
X142010880Y-103513860D01*
G37*
G36*
X149085880Y-103513860D02*
X148795880Y-103513860D01*
X148795880Y-102798860D01*
X149085880Y-102798860D01*
X149085880Y-103513860D01*
X149085880Y-103513860D01*
G37*
G36*
X149585880Y-103513860D02*
X149295880Y-103513860D01*
X149295880Y-102798860D01*
X149585880Y-102798860D01*
X149585880Y-103513860D01*
X149585880Y-103513860D01*
G37*
G36*
X150085880Y-103513860D02*
X149795880Y-103513860D01*
X149795880Y-102798860D01*
X150085880Y-102798860D01*
X150085880Y-103513860D01*
X150085880Y-103513860D01*
G37*
G36*
X143110880Y-103513860D02*
X142470880Y-103513860D01*
X142470880Y-102973860D01*
X143110880Y-102973860D01*
X143110880Y-103513860D01*
X143110880Y-103513860D01*
G37*
G36*
X130339801Y-102861649D02*
X130343570Y-102862792D01*
X130346062Y-102864124D01*
X130346064Y-102864125D01*
X130347045Y-102864650D01*
X130351290Y-102868459D01*
X130352496Y-102869899D01*
X130353760Y-102871034D01*
X130529902Y-103081425D01*
X130532475Y-103085195D01*
X130533510Y-103086713D01*
X130535054Y-103090338D01*
X130535493Y-103092439D01*
X130536088Y-103095286D01*
X130536219Y-103097711D01*
X130536219Y-103128903D01*
X130535591Y-103135281D01*
X130534448Y-103139050D01*
X130532589Y-103142527D01*
X130530091Y-103145571D01*
X130527047Y-103148069D01*
X130523570Y-103149928D01*
X130519801Y-103151071D01*
X130513423Y-103151699D01*
X130113337Y-103151699D01*
X130106959Y-103151071D01*
X130103190Y-103149928D01*
X130099713Y-103148069D01*
X130096669Y-103145571D01*
X130094171Y-103142527D01*
X130092312Y-103139050D01*
X130091169Y-103135281D01*
X130090541Y-103128903D01*
X130090541Y-102883817D01*
X130091169Y-102877439D01*
X130092312Y-102873670D01*
X130094171Y-102870193D01*
X130096669Y-102867149D01*
X130099713Y-102864651D01*
X130103190Y-102862792D01*
X130106959Y-102861649D01*
X130113337Y-102861021D01*
X130333423Y-102861021D01*
X130339801Y-102861649D01*
X130339801Y-102861649D01*
G37*
G36*
X131424801Y-102861649D02*
X131428570Y-102862792D01*
X131432047Y-102864651D01*
X131435091Y-102867149D01*
X131437589Y-102870193D01*
X131439448Y-102873670D01*
X131440591Y-102877439D01*
X131441219Y-102883817D01*
X131441219Y-103128903D01*
X131440591Y-103135281D01*
X131439448Y-103139050D01*
X131437589Y-103142527D01*
X131435091Y-103145571D01*
X131432047Y-103148069D01*
X131428570Y-103149928D01*
X131424801Y-103151071D01*
X131418423Y-103151699D01*
X131018337Y-103151699D01*
X131011959Y-103151071D01*
X131008190Y-103149928D01*
X131004713Y-103148069D01*
X131001669Y-103145571D01*
X130999171Y-103142527D01*
X130997312Y-103139050D01*
X130996169Y-103135281D01*
X130995541Y-103128903D01*
X130995541Y-103098817D01*
X130996169Y-103092439D01*
X130997312Y-103088670D01*
X130999697Y-103084209D01*
X131001144Y-103082278D01*
X131178711Y-102870184D01*
X131183283Y-102865701D01*
X131184888Y-102864651D01*
X131186580Y-102863544D01*
X131190235Y-102862072D01*
X131195880Y-102861263D01*
X131197755Y-102861263D01*
X131199444Y-102861021D01*
X131418423Y-102861021D01*
X131424801Y-102861649D01*
X131424801Y-102861649D01*
G37*
G36*
X133735880Y-103101360D02*
X132495880Y-103101360D01*
X132495880Y-101261360D01*
X133735880Y-101261360D01*
X133735880Y-103101360D01*
X133735880Y-103101360D01*
G37*
G36*
X137335880Y-103101360D02*
X136095880Y-103101360D01*
X136095880Y-101261360D01*
X137335880Y-101261360D01*
X137335880Y-103101360D01*
X137335880Y-103101360D01*
G37*
G36*
X131133576Y-102693860D02*
X130765880Y-103061556D01*
X130398184Y-102693860D01*
X130765880Y-102326164D01*
X131133576Y-102693860D01*
X131133576Y-102693860D01*
G37*
G36*
X139960880Y-102938860D02*
X139320880Y-102938860D01*
X139320880Y-102398860D01*
X139960880Y-102398860D01*
X139960880Y-102938860D01*
X139960880Y-102938860D01*
G37*
G36*
X138860880Y-102938860D02*
X138220880Y-102938860D01*
X138220880Y-102398860D01*
X138860880Y-102398860D01*
X138860880Y-102938860D01*
X138860880Y-102938860D01*
G37*
G36*
X151060880Y-102538860D02*
X150345880Y-102538860D01*
X150345880Y-102248860D01*
X151060880Y-102248860D01*
X151060880Y-102538860D01*
X151060880Y-102538860D01*
G37*
G36*
X149035880Y-102538860D02*
X148320880Y-102538860D01*
X148320880Y-102248860D01*
X149035880Y-102248860D01*
X149035880Y-102538860D01*
X149035880Y-102538860D01*
G37*
G36*
X130519801Y-102236649D02*
X130523570Y-102237792D01*
X130527047Y-102239651D01*
X130530091Y-102242149D01*
X130532589Y-102245193D01*
X130534448Y-102248670D01*
X130535591Y-102252439D01*
X130536219Y-102258817D01*
X130536219Y-102288903D01*
X130535591Y-102295281D01*
X130534448Y-102299050D01*
X130532063Y-102303511D01*
X130530616Y-102305442D01*
X130353049Y-102517536D01*
X130351291Y-102519260D01*
X130351290Y-102519261D01*
X130348477Y-102522019D01*
X130345180Y-102524176D01*
X130341525Y-102525648D01*
X130335880Y-102526457D01*
X130334005Y-102526457D01*
X130332316Y-102526699D01*
X130113337Y-102526699D01*
X130106959Y-102526071D01*
X130103190Y-102524928D01*
X130099713Y-102523069D01*
X130096669Y-102520571D01*
X130094171Y-102517527D01*
X130092312Y-102514050D01*
X130091169Y-102510281D01*
X130090541Y-102503903D01*
X130090541Y-102258817D01*
X130091169Y-102252439D01*
X130092312Y-102248670D01*
X130094171Y-102245193D01*
X130096669Y-102242149D01*
X130099713Y-102239651D01*
X130103190Y-102237792D01*
X130106959Y-102236649D01*
X130113337Y-102236021D01*
X130513423Y-102236021D01*
X130519801Y-102236649D01*
X130519801Y-102236649D01*
G37*
G36*
X131424801Y-102236649D02*
X131428570Y-102237792D01*
X131432047Y-102239651D01*
X131435091Y-102242149D01*
X131437589Y-102245193D01*
X131439448Y-102248670D01*
X131440591Y-102252439D01*
X131441219Y-102258817D01*
X131441219Y-102503903D01*
X131440591Y-102510281D01*
X131439448Y-102514050D01*
X131437589Y-102517527D01*
X131435091Y-102520571D01*
X131432047Y-102523069D01*
X131428570Y-102524928D01*
X131424801Y-102526071D01*
X131418423Y-102526699D01*
X131198337Y-102526699D01*
X131191959Y-102526071D01*
X131188190Y-102524928D01*
X131185698Y-102523596D01*
X131185696Y-102523595D01*
X131184715Y-102523070D01*
X131180470Y-102519261D01*
X131179264Y-102517821D01*
X131178000Y-102516686D01*
X131001858Y-102306295D01*
X130998251Y-102301009D01*
X130997417Y-102299051D01*
X130996706Y-102297382D01*
X130995900Y-102293526D01*
X130995900Y-102293524D01*
X130995672Y-102292434D01*
X130995541Y-102290009D01*
X130995541Y-102258817D01*
X130996169Y-102252439D01*
X130997312Y-102248670D01*
X130999171Y-102245193D01*
X131001669Y-102242149D01*
X131004713Y-102239651D01*
X131008190Y-102237792D01*
X131011959Y-102236649D01*
X131018337Y-102236021D01*
X131418423Y-102236021D01*
X131424801Y-102236649D01*
X131424801Y-102236649D01*
G37*
G36*
X142910880Y-102438860D02*
X141670880Y-102438860D01*
X141670880Y-102198860D01*
X142910880Y-102198860D01*
X142910880Y-102438860D01*
X142910880Y-102438860D01*
G37*
G36*
X142910880Y-102088860D02*
X141670880Y-102088860D01*
X141670880Y-101848860D01*
X142910880Y-101848860D01*
X142910880Y-102088860D01*
X142910880Y-102088860D01*
G37*
G36*
X151060880Y-102038860D02*
X150345880Y-102038860D01*
X150345880Y-101748860D01*
X151060880Y-101748860D01*
X151060880Y-102038860D01*
X151060880Y-102038860D01*
G37*
G36*
X149035880Y-102038860D02*
X148320880Y-102038860D01*
X148320880Y-101748860D01*
X149035880Y-101748860D01*
X149035880Y-102038860D01*
X149035880Y-102038860D01*
G37*
G36*
X139749801Y-101586650D02*
X139753570Y-101587793D01*
X139757047Y-101589652D01*
X139760091Y-101592150D01*
X139762589Y-101595194D01*
X139764448Y-101598671D01*
X139765591Y-101602440D01*
X139766219Y-101608818D01*
X139766219Y-101853904D01*
X139765591Y-101860282D01*
X139764448Y-101864051D01*
X139762589Y-101867528D01*
X139760091Y-101870572D01*
X139757047Y-101873070D01*
X139753570Y-101874929D01*
X139749801Y-101876072D01*
X139743423Y-101876700D01*
X139343337Y-101876700D01*
X139336959Y-101876072D01*
X139333190Y-101874929D01*
X139329713Y-101873070D01*
X139326669Y-101870572D01*
X139324171Y-101867528D01*
X139322312Y-101864051D01*
X139321169Y-101860282D01*
X139320541Y-101853904D01*
X139320541Y-101823818D01*
X139321169Y-101817440D01*
X139322312Y-101813671D01*
X139324697Y-101809210D01*
X139326144Y-101807279D01*
X139503711Y-101595185D01*
X139508283Y-101590702D01*
X139509888Y-101589652D01*
X139511580Y-101588545D01*
X139515235Y-101587073D01*
X139520880Y-101586264D01*
X139522755Y-101586264D01*
X139524444Y-101586022D01*
X139743423Y-101586022D01*
X139749801Y-101586650D01*
X139749801Y-101586650D01*
G37*
G36*
X138664801Y-101586650D02*
X138668570Y-101587793D01*
X138671062Y-101589125D01*
X138671064Y-101589126D01*
X138672045Y-101589651D01*
X138676290Y-101593460D01*
X138677496Y-101594900D01*
X138678760Y-101596035D01*
X138854902Y-101806426D01*
X138857475Y-101810196D01*
X138858510Y-101811714D01*
X138860054Y-101815339D01*
X138860493Y-101817440D01*
X138861088Y-101820287D01*
X138861219Y-101822712D01*
X138861219Y-101853904D01*
X138860591Y-101860282D01*
X138859448Y-101864051D01*
X138857589Y-101867528D01*
X138855091Y-101870572D01*
X138852047Y-101873070D01*
X138848570Y-101874929D01*
X138844801Y-101876072D01*
X138838423Y-101876700D01*
X138438337Y-101876700D01*
X138431959Y-101876072D01*
X138428190Y-101874929D01*
X138424713Y-101873070D01*
X138421669Y-101870572D01*
X138419171Y-101867528D01*
X138417312Y-101864051D01*
X138416169Y-101860282D01*
X138415541Y-101853904D01*
X138415541Y-101608818D01*
X138416169Y-101602440D01*
X138417312Y-101598671D01*
X138419171Y-101595194D01*
X138421669Y-101592150D01*
X138424713Y-101589652D01*
X138428190Y-101587793D01*
X138431959Y-101586650D01*
X138438337Y-101586022D01*
X138658423Y-101586022D01*
X138664801Y-101586650D01*
X138664801Y-101586650D01*
G37*
G36*
X139458576Y-101418861D02*
X139090880Y-101786557D01*
X138723184Y-101418861D01*
X139090880Y-101051165D01*
X139458576Y-101418861D01*
X139458576Y-101418861D01*
G37*
G36*
X131635880Y-101763860D02*
X130995880Y-101763860D01*
X130995880Y-101223860D01*
X131635880Y-101223860D01*
X131635880Y-101763860D01*
X131635880Y-101763860D01*
G37*
G36*
X130535880Y-101763860D02*
X129895880Y-101763860D01*
X129895880Y-101223860D01*
X130535880Y-101223860D01*
X130535880Y-101763860D01*
X130535880Y-101763860D01*
G37*
G36*
X142910880Y-101738860D02*
X141670880Y-101738860D01*
X141670880Y-101498860D01*
X142910880Y-101498860D01*
X142910880Y-101738860D01*
X142910880Y-101738860D01*
G37*
G36*
X151060880Y-101538860D02*
X150345880Y-101538860D01*
X150345880Y-101248860D01*
X151060880Y-101248860D01*
X151060880Y-101538860D01*
X151060880Y-101538860D01*
G37*
G36*
X149035880Y-101538860D02*
X148320880Y-101538860D01*
X148320880Y-101248860D01*
X149035880Y-101248860D01*
X149035880Y-101538860D01*
X149035880Y-101538860D01*
G37*
G36*
X142910880Y-101388860D02*
X141670880Y-101388860D01*
X141670880Y-101148860D01*
X142910880Y-101148860D01*
X142910880Y-101388860D01*
X142910880Y-101388860D01*
G37*
G36*
X139749801Y-100961650D02*
X139753570Y-100962793D01*
X139757047Y-100964652D01*
X139760091Y-100967150D01*
X139762589Y-100970194D01*
X139764448Y-100973671D01*
X139765591Y-100977440D01*
X139766219Y-100983818D01*
X139766219Y-101228904D01*
X139765591Y-101235282D01*
X139764448Y-101239051D01*
X139762589Y-101242528D01*
X139760091Y-101245572D01*
X139757047Y-101248070D01*
X139753570Y-101249929D01*
X139749801Y-101251072D01*
X139743423Y-101251700D01*
X139523337Y-101251700D01*
X139516959Y-101251072D01*
X139513190Y-101249929D01*
X139510698Y-101248597D01*
X139510696Y-101248596D01*
X139509715Y-101248071D01*
X139505470Y-101244262D01*
X139504264Y-101242822D01*
X139503000Y-101241687D01*
X139326858Y-101031296D01*
X139323251Y-101026010D01*
X139322417Y-101024052D01*
X139321706Y-101022383D01*
X139320900Y-101018527D01*
X139320900Y-101018525D01*
X139320672Y-101017435D01*
X139320541Y-101015010D01*
X139320541Y-100983818D01*
X139321169Y-100977440D01*
X139322312Y-100973671D01*
X139324171Y-100970194D01*
X139326669Y-100967150D01*
X139329713Y-100964652D01*
X139333190Y-100962793D01*
X139336959Y-100961650D01*
X139343337Y-100961022D01*
X139743423Y-100961022D01*
X139749801Y-100961650D01*
X139749801Y-100961650D01*
G37*
G36*
X138844801Y-100961650D02*
X138848570Y-100962793D01*
X138852047Y-100964652D01*
X138855091Y-100967150D01*
X138857589Y-100970194D01*
X138859448Y-100973671D01*
X138860591Y-100977440D01*
X138861219Y-100983818D01*
X138861219Y-101013904D01*
X138860591Y-101020282D01*
X138859448Y-101024051D01*
X138857063Y-101028512D01*
X138855616Y-101030443D01*
X138678049Y-101242537D01*
X138676291Y-101244261D01*
X138676290Y-101244262D01*
X138673477Y-101247020D01*
X138670180Y-101249177D01*
X138666525Y-101250649D01*
X138660880Y-101251458D01*
X138659005Y-101251458D01*
X138657316Y-101251700D01*
X138438337Y-101251700D01*
X138431959Y-101251072D01*
X138428190Y-101249929D01*
X138424713Y-101248070D01*
X138421669Y-101245572D01*
X138419171Y-101242528D01*
X138417312Y-101239051D01*
X138416169Y-101235282D01*
X138415541Y-101228904D01*
X138415541Y-100983818D01*
X138416169Y-100977440D01*
X138417312Y-100973671D01*
X138419171Y-100970194D01*
X138421669Y-100967150D01*
X138424713Y-100964652D01*
X138428190Y-100962793D01*
X138431959Y-100961650D01*
X138438337Y-100961022D01*
X138838423Y-100961022D01*
X138844801Y-100961650D01*
X138844801Y-100961650D01*
G37*
G36*
X150585880Y-100988860D02*
X150295880Y-100988860D01*
X150295880Y-100273860D01*
X150585880Y-100273860D01*
X150585880Y-100988860D01*
X150585880Y-100988860D01*
G37*
G36*
X150085880Y-100988860D02*
X149795880Y-100988860D01*
X149795880Y-100273860D01*
X150085880Y-100273860D01*
X150085880Y-100988860D01*
X150085880Y-100988860D01*
G37*
G36*
X149585880Y-100988860D02*
X149295880Y-100988860D01*
X149295880Y-100273860D01*
X149585880Y-100273860D01*
X149585880Y-100988860D01*
X149585880Y-100988860D01*
G37*
G36*
X149085880Y-100988860D02*
X148795880Y-100988860D01*
X148795880Y-100273860D01*
X149085880Y-100273860D01*
X149085880Y-100988860D01*
X149085880Y-100988860D01*
G37*
G36*
X131385880Y-100638860D02*
X130595880Y-100638860D01*
X130595880Y-99798860D01*
X131385880Y-99798860D01*
X131385880Y-100638860D01*
X131385880Y-100638860D01*
G37*
G36*
X139960880Y-100438860D02*
X139320880Y-100438860D01*
X139320880Y-99898860D01*
X139960880Y-99898860D01*
X139960880Y-100438860D01*
X139960880Y-100438860D01*
G37*
G36*
X138860880Y-100438860D02*
X138220880Y-100438860D01*
X138220880Y-99898860D01*
X138860880Y-99898860D01*
X138860880Y-100438860D01*
X138860880Y-100438860D01*
G37*
G36*
X142160880Y-99863860D02*
X141520880Y-99863860D01*
X141520880Y-99323860D01*
X142160880Y-99323860D01*
X142160880Y-99863860D01*
X142160880Y-99863860D01*
G37*
G36*
X143260880Y-99863860D02*
X142620880Y-99863860D01*
X142620880Y-99323860D01*
X143260880Y-99323860D01*
X143260880Y-99863860D01*
X143260880Y-99863860D01*
G37*
G36*
X131385880Y-99138860D02*
X130595880Y-99138860D01*
X130595880Y-98298860D01*
X131385880Y-98298860D01*
X131385880Y-99138860D01*
X131385880Y-99138860D01*
G37*
G36*
X134735880Y-99101360D02*
X134095880Y-99101360D01*
X134095880Y-97511360D01*
X134735880Y-97511360D01*
X134735880Y-99101360D01*
X134735880Y-99101360D01*
G37*
G36*
X135735880Y-99101360D02*
X135095880Y-99101360D01*
X135095880Y-97511360D01*
X135735880Y-97511360D01*
X135735880Y-99101360D01*
X135735880Y-99101360D01*
G37*
G36*
X139460880Y-99063860D02*
X138920880Y-99063860D01*
X138920880Y-98423860D01*
X139460880Y-98423860D01*
X139460880Y-99063860D01*
X139460880Y-99063860D01*
G37*
G36*
X141260880Y-99063860D02*
X140720880Y-99063860D01*
X140720880Y-98423860D01*
X141260880Y-98423860D01*
X141260880Y-99063860D01*
X141260880Y-99063860D01*
G37*
G36*
X140360880Y-99063860D02*
X139820880Y-99063860D01*
X139820880Y-98423860D01*
X140360880Y-98423860D01*
X140360880Y-99063860D01*
X140360880Y-99063860D01*
G37*
G36*
X147510880Y-99013860D02*
X146970880Y-99013860D01*
X146970880Y-98373860D01*
X147510880Y-98373860D01*
X147510880Y-99013860D01*
X147510880Y-99013860D01*
G37*
G36*
X151260880Y-98413861D02*
X150220880Y-98413861D01*
X150220880Y-97573861D01*
X151260880Y-97573861D01*
X151260880Y-98413861D01*
X151260880Y-98413861D01*
G37*
G36*
X149760880Y-98413861D02*
X148720880Y-98413861D01*
X148720880Y-97573861D01*
X149760880Y-97573861D01*
X149760880Y-98413861D01*
X149760880Y-98413861D01*
G37*
G36*
X139460880Y-97963860D02*
X138920880Y-97963860D01*
X138920880Y-97323860D01*
X139460880Y-97323860D01*
X139460880Y-97963860D01*
X139460880Y-97963860D01*
G37*
G36*
X140360880Y-97963860D02*
X139820880Y-97963860D01*
X139820880Y-97323860D01*
X140360880Y-97323860D01*
X140360880Y-97963860D01*
X140360880Y-97963860D01*
G37*
G36*
X141260880Y-97963860D02*
X140720880Y-97963860D01*
X140720880Y-97323860D01*
X141260880Y-97323860D01*
X141260880Y-97963860D01*
X141260880Y-97963860D01*
G37*
G36*
X147510880Y-97913860D02*
X146970880Y-97913860D01*
X146970880Y-97273860D01*
X147510880Y-97273860D01*
X147510880Y-97913860D01*
X147510880Y-97913860D01*
G37*
G36*
X131635880Y-97663860D02*
X130995880Y-97663860D01*
X130995880Y-97123860D01*
X131635880Y-97123860D01*
X131635880Y-97663860D01*
X131635880Y-97663860D01*
G37*
G36*
X130535880Y-97663860D02*
X129895880Y-97663860D01*
X129895880Y-97123860D01*
X130535880Y-97123860D01*
X130535880Y-97663860D01*
X130535880Y-97663860D01*
G37*
G36*
X151260880Y-97313861D02*
X150220880Y-97313861D01*
X150220880Y-96473861D01*
X151260880Y-96473861D01*
X151260880Y-97313861D01*
X151260880Y-97313861D01*
G37*
G36*
X149760880Y-97313861D02*
X148720880Y-97313861D01*
X148720880Y-96473861D01*
X149760880Y-96473861D01*
X149760880Y-97313861D01*
X149760880Y-97313861D01*
G37*
G36*
X138110880Y-96963860D02*
X137570880Y-96963860D01*
X137570880Y-96323860D01*
X138110880Y-96323860D01*
X138110880Y-96963860D01*
X138110880Y-96963860D01*
G37*
G36*
X137210880Y-96963860D02*
X136670880Y-96963860D01*
X136670880Y-96323860D01*
X137210880Y-96323860D01*
X137210880Y-96963860D01*
X137210880Y-96963860D01*
G37*
G36*
X131360880Y-96638860D02*
X130670880Y-96638860D01*
X130670880Y-95798860D01*
X131360880Y-95798860D01*
X131360880Y-96638860D01*
X131360880Y-96638860D01*
G37*
G36*
X130510880Y-96638860D02*
X129820880Y-96638860D01*
X129820880Y-95798860D01*
X130510880Y-95798860D01*
X130510880Y-96638860D01*
X130510880Y-96638860D01*
G37*
G36*
X145837880Y-96433860D02*
X145543880Y-96433860D01*
X145543880Y-95393860D01*
X145837880Y-95393860D01*
X145837880Y-96433860D01*
X145837880Y-96433860D01*
G37*
G36*
X141837880Y-96433860D02*
X141543880Y-96433860D01*
X141543880Y-95393860D01*
X141837880Y-95393860D01*
X141837880Y-96433860D01*
X141837880Y-96433860D01*
G37*
G36*
X142337880Y-96433860D02*
X142043880Y-96433860D01*
X142043880Y-95393860D01*
X142337880Y-95393860D01*
X142337880Y-96433860D01*
X142337880Y-96433860D01*
G37*
G36*
X142837880Y-96433860D02*
X142543880Y-96433860D01*
X142543880Y-95393860D01*
X142837880Y-95393860D01*
X142837880Y-96433860D01*
X142837880Y-96433860D01*
G37*
G36*
X143337880Y-96433860D02*
X143043880Y-96433860D01*
X143043880Y-95393860D01*
X143337880Y-95393860D01*
X143337880Y-96433860D01*
X143337880Y-96433860D01*
G37*
G36*
X144837880Y-96433860D02*
X144543880Y-96433860D01*
X144543880Y-95393860D01*
X144837880Y-95393860D01*
X144837880Y-96433860D01*
X144837880Y-96433860D01*
G37*
G36*
X144337880Y-96433860D02*
X144043880Y-96433860D01*
X144043880Y-95393860D01*
X144337880Y-95393860D01*
X144337880Y-96433860D01*
X144337880Y-96433860D01*
G37*
G36*
X143837880Y-96433860D02*
X143543880Y-96433860D01*
X143543880Y-95393860D01*
X143837880Y-95393860D01*
X143837880Y-96433860D01*
X143837880Y-96433860D01*
G37*
G36*
X146337880Y-96433860D02*
X146043880Y-96433860D01*
X146043880Y-95393860D01*
X146337880Y-95393860D01*
X146337880Y-96433860D01*
X146337880Y-96433860D01*
G37*
G36*
X145337880Y-96433860D02*
X145043880Y-96433860D01*
X145043880Y-95393860D01*
X145337880Y-95393860D01*
X145337880Y-96433860D01*
X145337880Y-96433860D01*
G37*
G36*
X134935880Y-96363860D02*
X134295880Y-96363860D01*
X134295880Y-95823860D01*
X134935880Y-95823860D01*
X134935880Y-96363860D01*
X134935880Y-96363860D01*
G37*
G36*
X133835880Y-96363860D02*
X133195880Y-96363860D01*
X133195880Y-95823860D01*
X133835880Y-95823860D01*
X133835880Y-96363860D01*
X133835880Y-96363860D01*
G37*
G36*
X137210880Y-95863860D02*
X136670880Y-95863860D01*
X136670880Y-95223860D01*
X137210880Y-95223860D01*
X137210880Y-95863860D01*
X137210880Y-95863860D01*
G37*
G36*
X149210880Y-95863860D02*
X148670880Y-95863860D01*
X148670880Y-95223860D01*
X149210880Y-95223860D01*
X149210880Y-95863860D01*
X149210880Y-95863860D01*
G37*
G36*
X138110880Y-95863860D02*
X137570880Y-95863860D01*
X137570880Y-95223860D01*
X138110880Y-95223860D01*
X138110880Y-95863860D01*
X138110880Y-95863860D01*
G37*
G36*
X151110880Y-95863860D02*
X150570880Y-95863860D01*
X150570880Y-95223860D01*
X151110880Y-95223860D01*
X151110880Y-95863860D01*
X151110880Y-95863860D01*
G37*
G36*
X150160880Y-95863860D02*
X149620880Y-95863860D01*
X149620880Y-95223860D01*
X150160880Y-95223860D01*
X150160880Y-95863860D01*
X150160880Y-95863860D01*
G37*
G36*
X141155880Y-95770860D02*
X140115880Y-95770860D01*
X140115880Y-95476860D01*
X141155880Y-95476860D01*
X141155880Y-95770860D01*
X141155880Y-95770860D01*
G37*
G36*
X147765880Y-95770860D02*
X146725880Y-95770860D01*
X146725880Y-95476860D01*
X147765880Y-95476860D01*
X147765880Y-95770860D01*
X147765880Y-95770860D01*
G37*
G36*
X134810880Y-95343860D02*
X134120880Y-95343860D01*
X134120880Y-94243860D01*
X134810880Y-94243860D01*
X134810880Y-95343860D01*
X134810880Y-95343860D01*
G37*
G36*
X132910880Y-95343860D02*
X132220880Y-95343860D01*
X132220880Y-94243860D01*
X132910880Y-94243860D01*
X132910880Y-95343860D01*
X132910880Y-95343860D01*
G37*
G36*
X133860880Y-95343860D02*
X133170880Y-95343860D01*
X133170880Y-94243860D01*
X133860880Y-94243860D01*
X133860880Y-95343860D01*
X133860880Y-95343860D01*
G37*
G36*
X147765880Y-95270860D02*
X146725880Y-95270860D01*
X146725880Y-94976860D01*
X147765880Y-94976860D01*
X147765880Y-95270860D01*
X147765880Y-95270860D01*
G37*
G36*
X141155880Y-95270860D02*
X140115880Y-95270860D01*
X140115880Y-94976860D01*
X141155880Y-94976860D01*
X141155880Y-95270860D01*
X141155880Y-95270860D01*
G37*
G36*
X130510880Y-95138860D02*
X129820880Y-95138860D01*
X129820880Y-94298860D01*
X130510880Y-94298860D01*
X130510880Y-95138860D01*
X130510880Y-95138860D01*
G37*
G36*
X131360880Y-95138860D02*
X130670880Y-95138860D01*
X130670880Y-94298860D01*
X131360880Y-94298860D01*
X131360880Y-95138860D01*
X131360880Y-95138860D01*
G37*
G36*
X141155880Y-94770860D02*
X140115880Y-94770860D01*
X140115880Y-94476860D01*
X141155880Y-94476860D01*
X141155880Y-94770860D01*
X141155880Y-94770860D01*
G37*
G36*
X147765880Y-94770860D02*
X146725880Y-94770860D01*
X146725880Y-94476860D01*
X147765880Y-94476860D01*
X147765880Y-94770860D01*
X147765880Y-94770860D01*
G37*
G36*
X150160880Y-94763860D02*
X149620880Y-94763860D01*
X149620880Y-94123860D01*
X150160880Y-94123860D01*
X150160880Y-94763860D01*
X150160880Y-94763860D01*
G37*
G36*
X149210880Y-94763860D02*
X148670880Y-94763860D01*
X148670880Y-94123860D01*
X149210880Y-94123860D01*
X149210880Y-94763860D01*
X149210880Y-94763860D01*
G37*
G36*
X151110880Y-94763860D02*
X150570880Y-94763860D01*
X150570880Y-94123860D01*
X151110880Y-94123860D01*
X151110880Y-94763860D01*
X151110880Y-94763860D01*
G37*
G36*
X139270880Y-94663860D02*
X138630880Y-94663860D01*
X138630880Y-94123860D01*
X139270880Y-94123860D01*
X139270880Y-94663860D01*
X139270880Y-94663860D01*
G37*
G36*
X138170880Y-94663860D02*
X137530880Y-94663860D01*
X137530880Y-94123860D01*
X138170880Y-94123860D01*
X138170880Y-94663860D01*
X138170880Y-94663860D01*
G37*
G36*
X145710880Y-94503860D02*
X144170880Y-94503860D01*
X144170880Y-92963860D01*
X145710880Y-92963860D01*
X145710880Y-94503860D01*
X145710880Y-94503860D01*
G37*
G36*
X143710880Y-94503860D02*
X142170880Y-94503860D01*
X142170880Y-92963860D01*
X143710880Y-92963860D01*
X143710880Y-94503860D01*
X143710880Y-94503860D01*
G37*
G36*
X141155880Y-94270860D02*
X140115880Y-94270860D01*
X140115880Y-93976860D01*
X141155880Y-93976860D01*
X141155880Y-94270860D01*
X141155880Y-94270860D01*
G37*
G36*
X147765880Y-94270860D02*
X146725880Y-94270860D01*
X146725880Y-93976860D01*
X147765880Y-93976860D01*
X147765880Y-94270860D01*
X147765880Y-94270860D01*
G37*
G36*
X141155880Y-93770860D02*
X140115880Y-93770860D01*
X140115880Y-93476860D01*
X141155880Y-93476860D01*
X141155880Y-93770860D01*
X141155880Y-93770860D01*
G37*
G36*
X147765880Y-93770860D02*
X146725880Y-93770860D01*
X146725880Y-93476860D01*
X147765880Y-93476860D01*
X147765880Y-93770860D01*
X147765880Y-93770860D01*
G37*
G36*
X138160880Y-93763860D02*
X137520880Y-93763860D01*
X137520880Y-93223860D01*
X138160880Y-93223860D01*
X138160880Y-93763860D01*
X138160880Y-93763860D01*
G37*
G36*
X139260880Y-93763860D02*
X138620880Y-93763860D01*
X138620880Y-93223860D01*
X139260880Y-93223860D01*
X139260880Y-93763860D01*
X139260880Y-93763860D01*
G37*
G36*
X131635880Y-93663860D02*
X130995880Y-93663860D01*
X130995880Y-93123860D01*
X131635880Y-93123860D01*
X131635880Y-93663860D01*
X131635880Y-93663860D01*
G37*
G36*
X130535880Y-93663860D02*
X129895880Y-93663860D01*
X129895880Y-93123860D01*
X130535880Y-93123860D01*
X130535880Y-93663860D01*
X130535880Y-93663860D01*
G37*
G36*
X147765880Y-93270860D02*
X146725880Y-93270860D01*
X146725880Y-92976860D01*
X147765880Y-92976860D01*
X147765880Y-93270860D01*
X147765880Y-93270860D01*
G37*
G36*
X141155880Y-93270860D02*
X140115880Y-93270860D01*
X140115880Y-92976860D01*
X141155880Y-92976860D01*
X141155880Y-93270860D01*
X141155880Y-93270860D01*
G37*
G36*
X134810880Y-93143860D02*
X134120880Y-93143860D01*
X134120880Y-92043860D01*
X134810880Y-92043860D01*
X134810880Y-93143860D01*
X134810880Y-93143860D01*
G37*
G36*
X132910880Y-93143860D02*
X132220880Y-93143860D01*
X132220880Y-92043860D01*
X132910880Y-92043860D01*
X132910880Y-93143860D01*
X132910880Y-93143860D01*
G37*
G36*
X139280880Y-92863860D02*
X138640880Y-92863860D01*
X138640880Y-92323860D01*
X139280880Y-92323860D01*
X139280880Y-92863860D01*
X139280880Y-92863860D01*
G37*
G36*
X138180880Y-92863860D02*
X137540880Y-92863860D01*
X137540880Y-92323860D01*
X138180880Y-92323860D01*
X138180880Y-92863860D01*
X138180880Y-92863860D01*
G37*
G36*
X141155880Y-92770860D02*
X140115880Y-92770860D01*
X140115880Y-92476860D01*
X141155880Y-92476860D01*
X141155880Y-92770860D01*
X141155880Y-92770860D01*
G37*
G36*
X147765880Y-92770860D02*
X146725880Y-92770860D01*
X146725880Y-92476860D01*
X147765880Y-92476860D01*
X147765880Y-92770860D01*
X147765880Y-92770860D01*
G37*
G36*
X130535880Y-92763860D02*
X129895880Y-92763860D01*
X129895880Y-92223860D01*
X130535880Y-92223860D01*
X130535880Y-92763860D01*
X130535880Y-92763860D01*
G37*
G36*
X131635880Y-92763860D02*
X130995880Y-92763860D01*
X130995880Y-92223860D01*
X131635880Y-92223860D01*
X131635880Y-92763860D01*
X131635880Y-92763860D01*
G37*
G36*
X145710880Y-92383860D02*
X144170880Y-92383860D01*
X144170880Y-90843860D01*
X145710880Y-90843860D01*
X145710880Y-92383860D01*
X145710880Y-92383860D01*
G37*
G36*
X143705880Y-91253860D02*
X143706841Y-91263615D01*
X143709686Y-91272994D01*
X143710880Y-91275228D01*
X143710880Y-92353860D01*
X142170880Y-92353860D01*
X142170880Y-91408860D01*
X142169919Y-91399105D01*
X142167074Y-91389726D01*
X142162453Y-91381081D01*
X142156235Y-91373505D01*
X142148659Y-91367287D01*
X142140014Y-91362666D01*
X142135238Y-91361217D01*
X142156235Y-91340220D01*
X142162453Y-91332644D01*
X142167074Y-91323999D01*
X142169919Y-91314620D01*
X142170880Y-91304865D01*
X142170880Y-91303860D01*
X142171885Y-91303860D01*
X142181640Y-91302899D01*
X142191019Y-91300054D01*
X142199664Y-91295433D01*
X142207240Y-91289215D01*
X142641235Y-90855220D01*
X142646455Y-90848860D01*
X143705880Y-90848860D01*
X143705880Y-91253860D01*
X143705880Y-91253860D01*
G37*
G36*
X141155880Y-92270860D02*
X140115880Y-92270860D01*
X140115880Y-91976860D01*
X141155880Y-91976860D01*
X141155880Y-92270860D01*
X141155880Y-92270860D01*
G37*
G36*
X147765880Y-92270860D02*
X146725880Y-92270860D01*
X146725880Y-91976860D01*
X147765880Y-91976860D01*
X147765880Y-92270860D01*
X147765880Y-92270860D01*
G37*
G36*
X147765880Y-91770860D02*
X146725880Y-91770860D01*
X146725880Y-91476860D01*
X147765880Y-91476860D01*
X147765880Y-91770860D01*
X147765880Y-91770860D01*
G37*
G36*
X141155880Y-91770860D02*
X140115880Y-91770860D01*
X140115880Y-91476860D01*
X141155880Y-91476860D01*
X141155880Y-91770860D01*
X141155880Y-91770860D01*
G37*
G36*
X133554220Y-91315647D02*
X133114220Y-91315647D01*
X133114220Y-89925647D01*
X133554220Y-89925647D01*
X133554220Y-91315647D01*
X133554220Y-91315647D01*
G37*
G36*
X132904220Y-91315647D02*
X132464220Y-91315647D01*
X132464220Y-89925647D01*
X132904220Y-89925647D01*
X132904220Y-91315647D01*
X132904220Y-91315647D01*
G37*
G36*
X132254220Y-91315647D02*
X131814220Y-91315647D01*
X131814220Y-89925647D01*
X132254220Y-89925647D01*
X132254220Y-91315647D01*
X132254220Y-91315647D01*
G37*
G36*
X131604220Y-91315647D02*
X131164220Y-91315647D01*
X131164220Y-89925647D01*
X131604220Y-89925647D01*
X131604220Y-91315647D01*
X131604220Y-91315647D01*
G37*
G36*
X134204220Y-91315647D02*
X133764220Y-91315647D01*
X133764220Y-89925647D01*
X134204220Y-89925647D01*
X134204220Y-91315647D01*
X134204220Y-91315647D01*
G37*
G36*
X147765880Y-91270860D02*
X146725880Y-91270860D01*
X146725880Y-90976860D01*
X147765880Y-90976860D01*
X147765880Y-91270860D01*
X147765880Y-91270860D01*
G37*
G36*
X141155880Y-91270860D02*
X140115880Y-91270860D01*
X140115880Y-90976860D01*
X141155880Y-90976860D01*
X141155880Y-91270860D01*
X141155880Y-91270860D01*
G37*
G36*
X136704220Y-91115647D02*
X135064220Y-91115647D01*
X135064220Y-89675647D01*
X136704220Y-89675647D01*
X136704220Y-91115647D01*
X136704220Y-91115647D01*
G37*
G36*
X130304220Y-91115647D02*
X128664220Y-91115647D01*
X128664220Y-89675647D01*
X130304220Y-89675647D01*
X130304220Y-91115647D01*
X130304220Y-91115647D01*
G37*
G36*
X139210880Y-90963860D02*
X138570880Y-90963860D01*
X138570880Y-90423860D01*
X139210880Y-90423860D01*
X139210880Y-90963860D01*
X139210880Y-90963860D01*
G37*
G36*
X138110880Y-90963860D02*
X137470880Y-90963860D01*
X137470880Y-90423860D01*
X138110880Y-90423860D01*
X138110880Y-90963860D01*
X138110880Y-90963860D01*
G37*
G36*
X141155880Y-90770860D02*
X140115880Y-90770860D01*
X140115880Y-90476860D01*
X141155880Y-90476860D01*
X141155880Y-90770860D01*
X141155880Y-90770860D01*
G37*
G36*
X147765880Y-90770860D02*
X146725880Y-90770860D01*
X146725880Y-90476860D01*
X147765880Y-90476860D01*
X147765880Y-90770860D01*
X147765880Y-90770860D01*
G37*
G36*
X141155880Y-90270860D02*
X140115880Y-90270860D01*
X140115880Y-89976860D01*
X141155880Y-89976860D01*
X141155880Y-90270860D01*
X141155880Y-90270860D01*
G37*
G36*
X147765880Y-90270860D02*
X146725880Y-90270860D01*
X146725880Y-89976860D01*
X147765880Y-89976860D01*
X147765880Y-90270860D01*
X147765880Y-90270860D01*
G37*
G36*
X138110880Y-90063860D02*
X137470880Y-90063860D01*
X137470880Y-89523860D01*
X138110880Y-89523860D01*
X138110880Y-90063860D01*
X138110880Y-90063860D01*
G37*
G36*
X139210880Y-90063860D02*
X138570880Y-90063860D01*
X138570880Y-89523860D01*
X139210880Y-89523860D01*
X139210880Y-90063860D01*
X139210880Y-90063860D01*
G37*
G36*
X141155880Y-89770860D02*
X140115880Y-89770860D01*
X140115880Y-89476860D01*
X141155880Y-89476860D01*
X141155880Y-89770860D01*
X141155880Y-89770860D01*
G37*
G36*
X141155880Y-89270860D02*
X140115880Y-89270860D01*
X140115880Y-88976860D01*
X141155880Y-88976860D01*
X141155880Y-89270860D01*
X141155880Y-89270860D01*
G37*
G36*
X139210880Y-89163860D02*
X138570880Y-89163860D01*
X138570880Y-88623860D01*
X139210880Y-88623860D01*
X139210880Y-89163860D01*
X139210880Y-89163860D01*
G37*
G36*
X138110880Y-89163860D02*
X137470880Y-89163860D01*
X137470880Y-88623860D01*
X138110880Y-88623860D01*
X138110880Y-89163860D01*
X138110880Y-89163860D01*
G37*
G36*
X158412880Y-89107860D02*
X157372880Y-89107860D01*
X157372880Y-87467860D01*
X158412880Y-87467860D01*
X158412880Y-89107860D01*
X158412880Y-89107860D01*
G37*
G36*
X126281880Y-89107860D02*
X125241880Y-89107860D01*
X125241880Y-87467860D01*
X126281880Y-87467860D01*
X126281880Y-89107860D01*
X126281880Y-89107860D01*
G37*
G36*
X123281880Y-89107860D02*
X122241880Y-89107860D01*
X122241880Y-87467860D01*
X123281880Y-87467860D01*
X123281880Y-89107860D01*
X123281880Y-89107860D01*
G37*
G36*
X155412880Y-89107860D02*
X154372880Y-89107860D01*
X154372880Y-87467860D01*
X155412880Y-87467860D01*
X155412880Y-89107860D01*
X155412880Y-89107860D01*
G37*
G36*
X132454220Y-88915647D02*
X130514220Y-88915647D01*
X130514220Y-86975647D01*
X132454220Y-86975647D01*
X132454220Y-88915647D01*
X132454220Y-88915647D01*
G37*
G36*
X134854220Y-88915647D02*
X132914220Y-88915647D01*
X132914220Y-86975647D01*
X134854220Y-86975647D01*
X134854220Y-88915647D01*
X134854220Y-88915647D01*
G37*
G36*
X141155880Y-88770860D02*
X140115880Y-88770860D01*
X140115880Y-88476860D01*
X141155880Y-88476860D01*
X141155880Y-88770860D01*
X141155880Y-88770860D01*
G37*
G36*
X136125364Y-87236065D02*
X136261085Y-87277235D01*
X136386167Y-87344093D01*
X136495800Y-87434067D01*
X136585774Y-87543700D01*
X136652632Y-87668782D01*
X136693802Y-87804503D01*
X136707703Y-87945647D01*
X136693802Y-88086791D01*
X136652632Y-88222512D01*
X136585774Y-88347594D01*
X136495800Y-88457227D01*
X136386167Y-88547201D01*
X136261085Y-88614059D01*
X136125364Y-88655229D01*
X136019586Y-88665647D01*
X135948854Y-88665647D01*
X135843076Y-88655229D01*
X135707355Y-88614059D01*
X135582273Y-88547201D01*
X135472640Y-88457227D01*
X135382666Y-88347594D01*
X135315808Y-88222512D01*
X135274638Y-88086791D01*
X135260737Y-87945647D01*
X135274638Y-87804503D01*
X135315808Y-87668782D01*
X135382666Y-87543700D01*
X135472640Y-87434067D01*
X135582273Y-87344093D01*
X135707355Y-87277235D01*
X135843076Y-87236065D01*
X135948854Y-87225647D01*
X136019586Y-87225647D01*
X136125364Y-87236065D01*
X136125364Y-87236065D01*
G37*
G36*
X129525364Y-87236065D02*
X129661085Y-87277235D01*
X129786167Y-87344093D01*
X129895800Y-87434067D01*
X129985774Y-87543700D01*
X130052632Y-87668782D01*
X130093802Y-87804503D01*
X130107703Y-87945647D01*
X130093802Y-88086791D01*
X130052632Y-88222512D01*
X129985774Y-88347594D01*
X129895800Y-88457227D01*
X129786167Y-88547201D01*
X129661085Y-88614059D01*
X129525364Y-88655229D01*
X129419586Y-88665647D01*
X129348854Y-88665647D01*
X129243076Y-88655229D01*
X129107355Y-88614059D01*
X128982273Y-88547201D01*
X128872640Y-88457227D01*
X128782666Y-88347594D01*
X128715808Y-88222512D01*
X128674638Y-88086791D01*
X128660737Y-87945647D01*
X128674638Y-87804503D01*
X128715808Y-87668782D01*
X128782666Y-87543700D01*
X128872640Y-87434067D01*
X128982273Y-87344093D01*
X129107355Y-87277235D01*
X129243076Y-87236065D01*
X129348854Y-87225647D01*
X129419586Y-87225647D01*
X129525364Y-87236065D01*
X129525364Y-87236065D01*
G37*
G36*
X141155880Y-88270860D02*
X140115880Y-88270860D01*
X140115880Y-87976860D01*
X141155880Y-87976860D01*
X141155880Y-88270860D01*
X141155880Y-88270860D01*
G37*
G36*
X139210880Y-88263860D02*
X138570880Y-88263860D01*
X138570880Y-87723860D01*
X139210880Y-87723860D01*
X139210880Y-88263860D01*
X139210880Y-88263860D01*
G37*
G36*
X138110880Y-88263860D02*
X137470880Y-88263860D01*
X137470880Y-87723860D01*
X138110880Y-87723860D01*
X138110880Y-88263860D01*
X138110880Y-88263860D01*
G37*
G36*
X141155880Y-87770860D02*
X140115880Y-87770860D01*
X140115880Y-87476860D01*
X141155880Y-87476860D01*
X141155880Y-87770860D01*
X141155880Y-87770860D01*
G37*
G36*
X141155880Y-87270860D02*
X140115880Y-87270860D01*
X140115880Y-86976860D01*
X141155880Y-86976860D01*
X141155880Y-87270860D01*
X141155880Y-87270860D01*
G37*
G36*
X141155880Y-86770860D02*
X140115880Y-86770860D01*
X140115880Y-86476860D01*
X141155880Y-86476860D01*
X141155880Y-86770860D01*
X141155880Y-86770860D01*
G37*
M02*
